<svg width="70" height="70" viewBox="0 0 70 70" fill="none" xmlns="http://www.w3.org/2000/svg">
<rect width="70" height="70" fill="white"/>
<g clip-path="url(#clip0_2329_2371)">
<path d="M56.1532 30.3463L59.2084 29.3842L58.2159 27.181C57.4504 28.1831 56.7608 29.2412 56.1532 30.3463ZM55.1142 20.2769L49.1279 6.93359L5.30078 9.41624L17.4451 42.557L40.8164 35.1873C39.3277 33.046 38.7848 30.5016 40.5063 29.2603C42.4292 27.8639 45.3294 29.4776 47.1749 31.7583C48.9573 28.7792 53.9665 21.8438 55.1142 20.2769Z" fill="#235F64"/>
<path d="M47.7649 16.5781C48.3768 16.5426 48.9649 16.3287 49.4566 15.9626C49.9483 15.5966 50.3221 15.0945 50.5318 14.5183C50.7416 13.9422 50.778 13.3172 50.6368 12.7206C50.4956 12.1239 50.1828 11.5817 49.737 11.1608C49.2913 10.74 48.7321 10.459 48.1285 10.3524C47.5249 10.2459 46.9034 10.3185 46.3406 10.5614C45.7778 10.8042 45.2984 11.2066 44.9616 11.7189C44.6248 12.2311 44.4453 12.8309 44.4453 13.444C44.4703 14.3 44.834 15.111 45.4565 15.6987C46.079 16.2864 46.9093 16.6027 47.7649 16.5781ZM45.051 17.928H50.479V32.1243H45.051V17.928Z" fill="white"/>
<path d="M42.3666 22.0691C42.4131 22.0847 42.4441 22.0691 42.4441 22.0225V18.4231C42.4422 18.3977 42.4341 18.3731 42.4206 18.3515C42.4071 18.3299 42.3885 18.3119 42.3666 18.299C41.4621 17.8865 40.4758 17.6848 39.482 17.7093C38.6409 17.6386 37.7953 17.6386 36.9541 17.7093C29.0447 18.3465 28.75 24.0706 28.75 24.3189V25.7151C28.75 25.8858 28.75 31.735 36.9541 32.2471C37.7605 32.3093 39.3259 32.2471 39.482 32.2471C40.5736 32.2592 41.6576 32.0645 42.6767 31.673C42.6991 31.6651 42.7187 31.6504 42.7325 31.631C42.7464 31.6116 42.754 31.5883 42.7542 31.5645V28.1977C42.7542 28.1509 42.7232 28.1356 42.6922 28.1665C41.7067 28.6469 40.6248 28.8963 39.5286 28.8957C39.0813 28.9623 38.6266 28.9623 38.1793 28.8957C34.5193 28.2753 34.3487 25.6066 34.3487 25.6066C34.3487 25.56 34.3331 25.4824 34.3331 25.4514V24.4274C34.3298 24.3752 34.3351 24.3228 34.3487 24.2723C34.4943 23.3681 34.9628 22.5475 35.6672 21.9626C36.3716 21.3777 37.2642 21.0683 38.1793 21.0916H39.5286C40.5273 21.2373 41.4899 21.5689 42.3666 22.0691Z" fill="white"/>
<path d="M13.6767 32.0789C13.6755 32.0983 13.6821 32.1174 13.695 32.132C13.7079 32.1466 13.726 32.1555 13.7454 32.1567H19.0417C19.0611 32.1578 19.0801 32.1512 19.0947 32.1383C19.1092 32.1255 19.118 32.1073 19.1192 32.0879V27.952C19.1186 27.9423 19.1199 27.9326 19.1231 27.9235C19.1263 27.9143 19.1313 27.9059 19.1378 27.8987C19.1443 27.8914 19.1521 27.8856 19.1609 27.8814C19.1696 27.8773 19.1791 27.8749 19.1888 27.8745H19.1976C19.1976 27.8745 27.6497 28.4795 27.6497 22.8164C27.6497 18.3325 22.3459 17.8511 20.6088 17.9291H13.7533C13.7437 17.9285 13.7341 17.9298 13.725 17.933C13.7159 17.9361 13.7075 17.941 13.7003 17.9473C13.6931 17.9537 13.6873 17.9614 13.6831 17.9701C13.6788 17.9787 13.6764 17.9881 13.6758 17.9977V18.0067L13.6767 32.0789ZM19.0272 24.7248V21.0166H20.3299C20.3299 21.0166 22.2065 21.0942 22.3615 22.3819C22.3927 22.6344 22.3927 22.8898 22.3615 23.1423C22.2678 23.5765 22.0327 23.9674 21.6931 24.2536C21.3535 24.5399 20.9286 24.7054 20.4849 24.7241L19.0272 24.7248Z" fill="white"/>
<path d="M47.917 38.971C48.3752 38.9991 48.8332 38.9138 49.2507 38.7227C51.1735 37.7143 57.6717 21.842 64.5266 16.9547C64.5754 16.9215 64.6175 16.8794 64.6507 16.8306C64.6781 16.7947 64.6943 16.7515 64.6972 16.7064C64.6972 16.7064 64.6972 16.3806 63.6892 16.3806C57.5944 16.2099 51.2513 29.01 47.917 34.0681C47.8704 34.1302 47.6534 34.0681 47.6534 34.0681C46.4557 32.6479 45.0487 31.4184 43.4809 30.4221C43.3219 30.3647 43.1535 30.3384 42.9846 30.3445C42.4438 30.4045 41.9321 30.62 41.5112 30.965C41.3188 31.1507 41.1744 31.3806 41.0907 31.6347C41.0069 31.8888 40.9863 32.1595 41.0305 32.4234C41.0389 32.5521 41.0704 32.6782 41.1236 32.7958C42.3914 34.7736 43.8737 36.6051 45.5437 38.2571C45.8659 38.5379 46.2442 38.7468 46.6534 38.8699C47.0627 38.993 47.4934 39.0274 47.917 38.971Z" fill="#3CB65E"/>
</g>
<path d="M38.1406 51.9219H41.8878L45.0816 57.598H45.1448L44.9867 51.9219H48.5599V63.1159H44.7179L41.619 57.7719H41.5558L41.7139 63.1159H38.1406V51.9219Z" fill="#235F64"/>
<path d="M32.2539 51.9219H36.0485V63.1159H32.2539V51.9219Z" fill="#235F64"/>
<path d="M25.1964 59.5111V63.1159H21.4492V51.9219H26.2557C26.8249 51.9219 27.3835 51.9851 27.9317 52.1116C28.4798 52.2275 28.9699 52.4331 29.4021 52.7282C29.8342 53.0128 30.1821 53.3975 30.4456 53.8824C30.7091 54.3567 30.8408 54.9576 30.8408 55.6848C30.8408 56.3805 30.7091 56.9708 30.4456 57.4557C30.1926 57.9405 29.85 58.3358 29.4179 58.6415C28.9962 58.9471 28.5061 59.1685 27.9475 59.3055C27.3994 59.4426 26.8354 59.5111 26.2557 59.5111H25.1964ZM25.1964 54.8469V56.6493H25.9869C26.2715 56.6493 26.5298 56.5808 26.7617 56.4438C27.0041 56.2962 27.1253 56.0538 27.1253 55.7165C27.1253 55.5373 27.0937 55.395 27.0304 55.2896C26.9672 55.1736 26.8776 55.084 26.7617 55.0208C26.6562 54.9576 26.535 54.9154 26.398 54.8943C26.261 54.8627 26.1239 54.8469 25.9869 54.8469H25.1964Z" fill="#235F64"/>
<defs>
<clipPath id="clip0_2329_2371">
<rect width="60" height="36.4865" fill="white" transform="translate(5 6.5)"/>
</clipPath>
</defs>
</svg>
