<svg width="67" height="40" viewBox="0 0 67 40" fill="none" xmlns="http://www.w3.org/2000/svg">
<g clip-path="url(#clip0_4_8922)">
<path d="M0.950472 18.7363C1.07691 17.242 1.98787 12.5579 8.422 10.6829C8.422 10.6829 14.053 8.88969 23.5964 10.8438V20.8499H27.0261V40.0014H19.2256V36.4697C19.2256 36.4697 16.7657 39.5848 11.3531 39.9397C11.3531 39.9397 4.49945 40.7673 1.4275 36.395C1.4275 36.395 -1.00649 33.2526 0.482064 28.1246C0.482064 28.1246 1.4275 24.6503 6.24808 23.4218C6.24808 23.4218 9.15479 22.6416 14.7786 22.1215C14.7786 22.1215 18.2528 22.0037 18.9382 19.6645C18.9382 19.6645 19.8132 17.1601 17.2125 15.8124C17.2125 15.8124 14.3533 14.4186 10.7612 15.9072C10.7612 15.9072 9.10019 16.4187 8.79414 18.7392H0.950472V18.7363ZM8.80133 33.6047C10.2425 35.0702 13.5515 34.6923 13.5515 34.6923C16.0329 34.4323 17.2614 33.1334 17.2614 33.1334C19.0345 31.6204 18.9152 28.7381 18.9152 28.7381V25.2883C18.0402 26.1863 15.5832 26.4938 15.5832 26.4938C13.0788 26.7294 11.0457 27.2495 11.0457 27.2495C7.9263 28.1116 7.83147 30.5341 7.83147 30.5341C7.5714 32.3532 8.79989 33.6061 8.79989 33.6061L8.80133 33.6047Z" fill="#002A52"/>
<path d="M50.2269 33.4164C53.6135 34.5127 56.5849 33.3317 56.5849 33.3317C59.3939 32.2555 58.8407 30.6678 58.8407 30.6678C58.345 28.4938 54.5302 27.8588 54.5302 27.8588L48.599 26.4435C44.0859 25.3558 42.5255 23.3241 42.5255 23.3241C40.3041 20.9131 41.1792 16.8957 41.1792 16.8957C42.0068 12.8079 45.7641 11.3898 45.7641 11.3898C49.8519 9.57074 55.1696 10.0664 55.1696 10.0664C60.983 10.4688 63.0621 12.9028 63.0621 12.9028C65.3524 14.9387 65.7619 17.8354 65.8352 18.7679H58.437C58.0864 16.604 56.6582 15.9977 56.6582 15.9977C53.9871 14.5795 51.01 15.4301 51.01 15.4301C48.3389 16.0681 48.836 18.3598 48.836 18.3598C49.1909 20.416 52.7586 21.0309 52.7586 21.0309C56.7286 21.8341 60.3436 22.804 60.3436 22.804C65.6843 24.2221 66.4646 28.1217 66.4646 28.1217C67.2922 32.1865 65.2677 35.211 65.2677 35.211C64.7619 36.0401 64.1024 36.7197 63.384 37.2772C59.1985 40.3377 52.9626 39.9885 52.9626 39.9885C42.6261 40 40.4162 34.1406 40.4162 34.1406C39.3242 31.7799 39.3774 29.3056 39.3774 29.3056H46.8963C46.8963 29.3056 46.892 32.3575 50.2283 33.4179L50.2269 33.4164Z" fill="#002A52"/>
<path d="M38.9362 18.7105C38.9362 17.5265 39.1503 16.3914 39.5397 15.344C39.6977 14.8842 39.9262 14.3741 40.2509 13.8454C40.9435 12.6614 41.8803 11.637 42.9924 10.8438H36.8988V8.48167C37.0884 5.88244 39.5454 5.92986 39.5454 5.92986H42.7596V0.0215998H38.8126C35.8111 -0.168062 33.5193 0.990025 33.5193 0.990025C28.887 3.32919 29.0996 7.91412 29.0996 7.91412V10.8424H25.6699V18.7766H29.0996V39.9986H36.8686V18.7766H38.9362C38.9362 18.755 38.9362 18.732 38.9362 18.7105Z" fill="#002A52"/>
</g>
<defs>
<clipPath id="clip0_4_8922">
<rect width="66.6619" height="40" fill="white"/>
</clipPath>
</defs>
</svg>
