<svg width="74" height="44" viewBox="0 0 74 44" fill="none" xmlns="http://www.w3.org/2000/svg">
<g clip-path="url(#clip0_14_4479)">
<path d="M1.04552 20.6101C1.1846 18.9663 2.18665 13.8139 9.2642 11.7513C9.2642 11.7513 15.4582 9.77879 25.956 11.9283V22.935H29.7287V44.0017H21.1481V40.1168C21.1481 40.1168 18.4423 43.5434 12.4885 43.9338C12.4885 43.9338 4.94939 44.8441 1.57025 40.0346C1.57025 40.0346 -1.10714 36.578 0.530271 30.9372C0.530271 30.9372 1.57025 27.1155 6.87288 25.7641C6.87288 25.7641 10.0703 24.9059 16.2564 24.3338C16.2564 24.3338 20.0781 24.2042 20.832 21.6311C20.832 21.6311 21.7945 18.8762 18.9338 17.3937C18.9338 17.3937 15.7886 15.8606 11.8373 17.498C11.8373 17.498 10.0102 18.0607 9.67356 20.6132H1.04552V20.6101ZM9.68146 36.9653C11.2667 38.5774 14.9066 38.1617 14.9066 38.1617C17.6362 37.8756 18.9875 36.4469 18.9875 36.4469C20.9379 34.7826 20.8067 31.6121 20.8067 31.6121V27.8172C19.8442 28.8051 17.1415 29.1433 17.1415 29.1433C14.3867 29.4025 12.1502 29.9746 12.1502 29.9746C8.71893 30.9229 8.61461 33.5877 8.61461 33.5877C8.32854 35.5886 9.67988 36.9668 9.67988 36.9668L9.68146 36.9653Z" fill="#052460"/>
<path d="M55.2494 36.7582C58.9747 37.9641 62.2432 36.665 62.2432 36.665C65.3331 35.4811 64.7246 33.7347 64.7246 33.7347C64.1793 31.3434 59.983 30.6448 59.983 30.6448L53.4587 29.088C48.4943 27.8915 46.7778 25.6567 46.7778 25.6567C44.3343 23.0045 45.2969 18.5854 45.2969 18.5854C46.2073 14.0889 50.3403 12.5289 50.3403 12.5289C54.8369 10.5279 60.6864 11.0732 60.6864 11.0732C67.0811 11.5158 69.3681 14.1932 69.3681 14.1932C71.8875 16.4328 72.3379 19.6191 72.4185 20.6448H64.2805C63.8948 18.2646 62.3238 17.5976 62.3238 17.5976C59.3856 16.0376 56.1108 16.9733 56.1108 16.9733C53.1726 17.675 53.7195 20.196 53.7195 20.196C54.1098 22.4577 58.0343 23.1341 58.0343 23.1341C62.4012 24.0177 66.3778 25.0845 66.3778 25.0845C72.2526 26.6445 73.1108 30.934 73.1108 30.934C74.0212 35.4053 71.7942 38.7323 71.7942 38.7323C71.2379 39.6442 70.5124 40.3918 69.7222 41.0051C65.1181 44.3716 58.2587 43.9875 58.2587 43.9875C46.8885 44.0001 44.4576 37.5548 44.4576 37.5548C43.2564 34.958 43.3149 32.2363 43.3149 32.2363H51.5858C51.5858 32.2363 51.581 35.5934 55.251 36.7598L55.2494 36.7582Z" fill="#052460"/>
<path d="M42.8292 20.5814C42.8292 19.279 43.0647 18.0304 43.4931 16.8782C43.6669 16.3724 43.9182 15.8114 44.2754 15.2297C45.0372 13.9274 46.0677 12.8005 47.291 11.928H40.5881V9.32966C40.7967 6.4705 43.4994 6.52266 43.4994 6.52266H47.035V0.0235767H42.6933C39.3916 -0.185051 36.8707 1.08884 36.8707 1.08884C31.7751 3.66193 32.009 8.70535 32.009 8.70535V11.9264H28.2363V20.6541H32.009V43.9983H40.5549V20.6541H42.8292C42.8292 20.6303 42.8292 20.6051 42.8292 20.5814Z" fill="#036FD0"/>
</g>
<defs>
<clipPath id="clip0_14_4479">
<rect width="73.328" height="44" fill="white"/>
</clipPath>
</defs>
</svg>
