<svg width="224" height="224" viewBox="0 0 224 224" fill="none" xmlns="http://www.w3.org/2000/svg">
<g clip-path="url(#clip0_3254_65845)">
<path d="M57.1421 31.5463C75.9996 24.8922 98.1718 15.174 111.426 2.78236C125.067 15.5871 147.26 25.316 166.047 31.8768C175.822 35.2902 184.766 37.8765 191.267 39.6096C194.518 40.4764 197.161 41.1304 198.993 41.5684C199.412 41.6684 199.788 41.7573 200.12 41.8347C191.817 124.576 172.454 181.459 111.468 221.585C80.7811 199.921 60.2201 175.296 46.5124 145.97C32.8143 116.664 25.9115 82.5613 22.6965 41.8274C23.0508 41.7414 23.4579 41.6417 23.9146 41.5284C25.7682 41.0683 28.4405 40.3836 31.7249 39.4828C38.2919 37.6816 47.3159 35.0137 57.1421 31.5463Z" stroke="#002A52" stroke-width="4"/>
<path d="M137.367 137.715V106.664H144.099V137.715H137.367Z" fill="#036FD0"/>
<path d="M137.367 137.715V106.664H144.099V137.715H137.367Z" fill="#036FD0"/>
<path d="M137.367 137.715V106.664H144.099V137.715H137.367Z" fill="url(#paint0_linear_3254_65845)"/>
<path d="M126.734 117.824C126.416 115.942 125.721 114.422 124.65 113.264C123.608 112.106 121.986 111.527 119.786 111.527C117.035 111.527 115.052 112.497 113.836 114.437C112.649 116.348 112.056 118.924 112.056 122.167C112.056 125.439 112.649 128.044 113.836 129.984C115.052 131.895 117.035 132.851 119.786 132.851C123.897 132.851 126.213 130.636 126.734 126.206H133.596C133.364 128.58 132.684 130.694 131.555 132.547C130.426 134.371 128.862 135.804 126.865 136.846C124.896 137.859 122.565 138.366 119.873 138.366C116.804 138.366 114.155 137.686 111.925 136.325C109.696 134.935 108.002 133.024 106.844 130.592C105.715 128.16 105.15 125.381 105.15 122.254C105.15 119.069 105.729 116.261 106.888 113.829C108.075 111.368 109.783 109.457 112.012 108.096C114.27 106.707 116.948 106.012 120.046 106.012C122.71 106.012 125.012 106.518 126.952 107.532C128.92 108.516 130.455 109.906 131.555 111.701C132.655 113.467 133.336 115.508 133.596 117.824H126.734Z" fill="#036FD0"/>
<path d="M126.734 117.824C126.416 115.942 125.721 114.422 124.65 113.264C123.608 112.106 121.986 111.527 119.786 111.527C117.035 111.527 115.052 112.497 113.836 114.437C112.649 116.348 112.056 118.924 112.056 122.167C112.056 125.439 112.649 128.044 113.836 129.984C115.052 131.895 117.035 132.851 119.786 132.851C123.897 132.851 126.213 130.636 126.734 126.206H133.596C133.364 128.58 132.684 130.694 131.555 132.547C130.426 134.371 128.862 135.804 126.865 136.846C124.896 137.859 122.565 138.366 119.873 138.366C116.804 138.366 114.155 137.686 111.925 136.325C109.696 134.935 108.002 133.024 106.844 130.592C105.715 128.16 105.15 125.381 105.15 122.254C105.15 119.069 105.729 116.261 106.888 113.829C108.075 111.368 109.783 109.457 112.012 108.096C114.27 106.707 116.948 106.012 120.046 106.012C122.71 106.012 125.012 106.518 126.952 107.532C128.92 108.516 130.455 109.906 131.555 111.701C132.655 113.467 133.336 115.508 133.596 117.824H126.734Z" fill="#036FD0"/>
<path d="M126.734 117.824C126.416 115.942 125.721 114.422 124.65 113.264C123.608 112.106 121.986 111.527 119.786 111.527C117.035 111.527 115.052 112.497 113.836 114.437C112.649 116.348 112.056 118.924 112.056 122.167C112.056 125.439 112.649 128.044 113.836 129.984C115.052 131.895 117.035 132.851 119.786 132.851C123.897 132.851 126.213 130.636 126.734 126.206H133.596C133.364 128.58 132.684 130.694 131.555 132.547C130.426 134.371 128.862 135.804 126.865 136.846C124.896 137.859 122.565 138.366 119.873 138.366C116.804 138.366 114.155 137.686 111.925 136.325C109.696 134.935 108.002 133.024 106.844 130.592C105.715 128.16 105.15 125.381 105.15 122.254C105.15 119.069 105.729 116.261 106.888 113.829C108.075 111.368 109.783 109.457 112.012 108.096C114.27 106.707 116.948 106.012 120.046 106.012C122.71 106.012 125.012 106.518 126.952 107.532C128.92 108.516 130.455 109.906 131.555 111.701C132.655 113.467 133.336 115.508 133.596 117.824H126.734Z" fill="url(#paint1_linear_3254_65845)"/>
<path d="M78.0771 137.715V106.664H92.3651C95.5789 106.664 98.1122 107.475 99.9651 109.096C101.847 110.717 102.788 113.12 102.788 116.305C102.788 119.49 101.847 121.907 99.9651 123.558C98.1122 125.179 95.5789 125.99 92.3651 125.99H84.8086V137.715H78.0771ZM91.1491 120.431C92.7126 120.431 93.8851 120.112 94.6669 119.475C95.4775 118.81 95.8829 117.753 95.8829 116.305C95.8829 114.887 95.4775 113.859 94.6669 113.222C93.8851 112.556 92.7126 112.223 91.1491 112.223H84.8086V120.431H91.1491Z" fill="#036FD0"/>
<path d="M78.0771 137.715V106.664H92.3651C95.5789 106.664 98.1122 107.475 99.9651 109.096C101.847 110.717 102.788 113.12 102.788 116.305C102.788 119.49 101.847 121.907 99.9651 123.558C98.1122 125.179 95.5789 125.99 92.3651 125.99H84.8086V137.715H78.0771ZM91.1491 120.431C92.7126 120.431 93.8851 120.112 94.6669 119.475C95.4775 118.81 95.8829 117.753 95.8829 116.305C95.8829 114.887 95.4775 113.859 94.6669 113.222C93.8851 112.556 92.7126 112.223 91.1491 112.223H84.8086V120.431H91.1491Z" fill="#036FD0"/>
<path d="M78.0771 137.715V106.664H92.3651C95.5789 106.664 98.1122 107.475 99.9651 109.096C101.847 110.717 102.788 113.12 102.788 116.305C102.788 119.49 101.847 121.907 99.9651 123.558C98.1122 125.179 95.5789 125.99 92.3651 125.99H84.8086V137.715H78.0771ZM91.1491 120.431C92.7126 120.431 93.8851 120.112 94.6669 119.475C95.4775 118.81 95.8829 117.753 95.8829 116.305C95.8829 114.887 95.4775 113.859 94.6669 113.222C93.8851 112.556 92.7126 112.223 91.1491 112.223H84.8086V120.431H91.1491Z" fill="url(#paint2_linear_3254_65845)"/>
<path d="M129.903 152.331C131.548 152.715 132.856 153.099 133.825 153.483C134.794 153.849 135.599 154.416 136.239 155.184C136.879 155.952 137.199 156.985 137.199 158.283C137.199 160.002 136.613 161.401 135.443 162.48C134.273 163.559 132.527 164.098 130.204 164.098C128.577 164.098 127.132 163.824 125.871 163.275C124.609 162.708 123.603 161.904 122.853 160.862C122.122 159.819 121.711 158.576 121.619 157.131H124.197C124.527 160.331 126.492 161.931 130.095 161.931C131.74 161.931 132.901 161.62 133.578 160.999C134.273 160.359 134.62 159.481 134.62 158.366C134.62 157.524 134.437 156.875 134.072 156.418C133.706 155.961 133.194 155.614 132.536 155.376C131.877 155.12 130.853 154.818 129.464 154.471C129.336 154.452 129.144 154.407 128.888 154.334C127.553 154.004 126.447 153.666 125.569 153.319C124.709 152.971 123.969 152.441 123.347 151.728C122.744 151.015 122.442 150.073 122.442 148.903C122.442 147.312 123.027 146.05 124.197 145.118C125.368 144.185 126.995 143.719 129.08 143.719C131.292 143.719 133.048 144.258 134.346 145.337C135.663 146.416 136.403 147.943 136.568 149.918H133.989C133.807 148.564 133.331 147.559 132.563 146.9C131.795 146.224 130.643 145.886 129.107 145.886C127.754 145.886 126.73 146.132 126.035 146.626C125.359 147.12 125.02 147.842 125.02 148.793C125.02 149.561 125.231 150.164 125.651 150.603C126.09 151.042 126.62 151.371 127.242 151.591C127.864 151.81 128.751 152.057 129.903 152.331Z" fill="#002A52"/>
<path d="M104.126 163.713V144.102H111.23C113.04 144.102 114.595 144.486 115.893 145.254C117.209 146.003 118.215 147.119 118.91 148.6C119.605 150.063 119.952 151.836 119.952 153.921C119.952 157.048 119.175 159.462 117.621 161.162C116.085 162.863 113.955 163.713 111.23 163.713H104.126ZM106.595 146.296V161.519H111.23C115.326 161.519 117.374 158.986 117.374 153.921C117.374 148.838 115.326 146.296 111.23 146.296H106.595Z" fill="#002A52"/>
<path d="M85.5635 163.713V144.102H92.6675C94.4778 144.102 96.032 144.486 97.3303 145.254C98.6469 146.003 99.6526 147.119 100.347 148.6C101.042 150.063 101.39 151.836 101.39 153.921C101.39 157.048 100.613 159.462 99.0583 161.162C97.5223 162.863 95.392 163.713 92.6675 163.713H85.5635ZM88.032 146.296V161.519H92.6675C96.7635 161.519 98.8115 158.986 98.8115 153.921C98.8115 148.838 96.7635 146.296 92.6675 146.296H88.032Z" fill="#002A52"/>
<path d="M143.116 176.711H141.984V168.728H138.992V167.723H146.108V168.728H143.116V176.711Z" fill="#002A52"/>
<path d="M132.022 176.711H130.891V167.723H132.273L136.761 175.102H136.787V167.723H137.918V176.711H136.535L132.047 169.332H132.022V176.711Z" fill="#002A52"/>
<path d="M128.799 176.711L128.007 174.461H124.047L123.255 176.711H122.086L125.405 167.723H126.675L130.019 176.711H128.799ZM126.021 168.766L124.424 173.455H127.643L126.046 168.766H126.021Z" fill="#002A52"/>
<path d="M120.087 176.711V167.723H121.218V176.711H120.087Z" fill="#002A52"/>
<path d="M113.175 176.711V167.723H114.306V175.706H119.021V176.711H113.175Z" fill="#002A52"/>
<path d="M105.552 176.711V167.723H109.122C110.002 167.723 110.706 167.936 111.234 168.364C111.77 168.783 112.039 169.441 112.039 170.338C112.039 171.234 111.77 171.896 111.234 172.324C110.706 172.743 110.002 172.952 109.122 172.952H106.683V176.711H105.552ZM109.197 171.947C109.759 171.947 110.174 171.817 110.442 171.557C110.719 171.289 110.857 170.882 110.857 170.338C110.857 169.793 110.719 169.39 110.442 169.131C110.174 168.862 109.759 168.728 109.197 168.728H106.683V171.947H109.197Z" fill="#002A52"/>
<path d="M96.2965 176.711H95.165V167.723H96.7113L99.5273 175.19H99.5525L102.368 167.723H103.915V176.711H102.783V169.319H102.758L100.043 176.711H99.037L96.3216 169.319H96.2965V176.711Z" fill="#002A52"/>
<path d="M89.5045 176.887C88.6413 176.887 87.8744 176.686 87.2039 176.284C86.5418 175.882 86.0264 175.329 85.6576 174.625C85.2889 173.912 85.1045 173.108 85.1045 172.211C85.1045 171.314 85.2889 170.514 85.6576 169.81C86.0264 169.097 86.5418 168.544 87.2039 168.15C87.8744 167.748 88.6413 167.547 89.5045 167.547C90.3677 167.547 91.1304 167.748 91.7925 168.15C92.463 168.544 92.9826 169.097 93.3514 169.81C93.7201 170.514 93.9045 171.314 93.9045 172.211C93.9045 173.108 93.7201 173.912 93.3514 174.625C92.9826 175.329 92.463 175.882 91.7925 176.284C91.1304 176.686 90.3677 176.887 89.5045 176.887ZM89.5045 175.882C90.2253 175.882 90.8245 175.718 91.3022 175.391C91.7883 175.056 92.1445 174.612 92.3708 174.059C92.6054 173.506 92.7228 172.89 92.7228 172.211C92.7228 171.54 92.6054 170.929 92.3708 170.375C92.1445 169.822 91.7883 169.382 91.3022 169.055C90.8245 168.72 90.2253 168.553 89.5045 168.553C88.7837 168.553 88.1803 168.72 87.6942 169.055C87.2165 169.382 86.8603 169.822 86.6256 170.375C86.3993 170.929 86.2862 171.54 86.2862 172.211C86.2862 172.89 86.3993 173.506 86.6256 174.059C86.8603 174.612 87.2165 175.056 87.6942 175.391C88.1803 175.718 88.7837 175.882 89.5045 175.882Z" fill="#002A52"/>
<path d="M82.8578 170.69C82.7488 170.128 82.489 169.634 82.0784 169.206C81.6761 168.77 81.0559 168.553 80.2178 168.553C79.5389 168.553 78.9774 168.724 78.5332 169.068C78.089 169.412 77.7622 169.86 77.5526 170.413C77.3431 170.966 77.2384 171.566 77.2384 172.211C77.2384 172.856 77.3431 173.46 77.5526 174.021C77.7622 174.574 78.089 175.023 78.5332 175.366C78.9774 175.71 79.5389 175.882 80.2178 175.882C81.081 175.882 81.7264 175.647 82.1538 175.178C82.5812 174.7 82.8159 174.13 82.8578 173.468H84.0395C83.9725 174.13 83.7755 174.721 83.4486 175.241C83.1218 175.76 82.6818 176.167 82.1286 176.46C81.5755 176.745 80.9385 176.887 80.2178 176.887C79.4048 176.887 78.6841 176.686 78.0555 176.284C77.4269 175.882 76.9366 175.329 76.5846 174.625C76.2326 173.912 76.0566 173.108 76.0566 172.211C76.0566 171.314 76.2326 170.514 76.5846 169.81C76.9366 169.097 77.4269 168.544 78.0555 168.15C78.6841 167.748 79.4048 167.547 80.2178 167.547C80.9302 167.547 81.5629 167.689 82.1161 167.974C82.6692 168.251 83.1092 168.628 83.4361 169.106C83.7629 169.583 83.9641 170.111 84.0395 170.69H82.8578Z" fill="#002A52"/>
<circle cx="111.999" cy="61.7154" r="33.2857" stroke="#036FD0" stroke-width="2"/>
<circle cx="111.999" cy="61.7154" r="33.2857" stroke="url(#paint3_linear_3254_65845)" stroke-width="2"/>
<path d="M96 62.4032L107.721 74.2846L129.143 52.5703" stroke="#036FD0" stroke-width="8" stroke-linecap="round"/>
<path d="M96 62.4032L107.721 74.2846L129.143 52.5703" stroke="url(#paint4_linear_3254_65845)" stroke-width="8" stroke-linecap="round"/>
</g>
<defs>
<linearGradient id="paint0_linear_3254_65845" x1="58.3802" y1="157.598" x2="191.512" y2="125.026" gradientUnits="userSpaceOnUse">
<stop stop-color="#052460"/>
<stop offset="0.578537" stop-color="#036FD0"/>
<stop offset="1" stop-color="#00AEEF"/>
</linearGradient>
<linearGradient id="paint1_linear_3254_65845" x1="58.3807" y1="157.597" x2="191.512" y2="125.025" gradientUnits="userSpaceOnUse">
<stop stop-color="#052460"/>
<stop offset="0.578537" stop-color="#036FD0"/>
<stop offset="1" stop-color="#00AEEF"/>
</linearGradient>
<linearGradient id="paint2_linear_3254_65845" x1="58.3804" y1="157.598" x2="191.512" y2="125.026" gradientUnits="userSpaceOnUse">
<stop stop-color="#052460"/>
<stop offset="0.578537" stop-color="#036FD0"/>
<stop offset="1" stop-color="#00AEEF"/>
</linearGradient>
<linearGradient id="paint3_linear_3254_65845" x1="61.4771" y1="110.733" x2="192.654" y2="90.2284" gradientUnits="userSpaceOnUse">
<stop stop-color="#052460"/>
<stop offset="0.578537" stop-color="#036FD0"/>
<stop offset="1" stop-color="#00AEEF"/>
</linearGradient>
<linearGradient id="paint4_linear_3254_65845" x1="88.1527" y1="78.9498" x2="149.606" y2="64.288" gradientUnits="userSpaceOnUse">
<stop stop-color="#052460"/>
<stop offset="0.578537" stop-color="#036FD0"/>
<stop offset="1" stop-color="#00AEEF"/>
</linearGradient>
<clipPath id="clip0_3254_65845">
<rect width="224" height="224" fill="white"/>
</clipPath>
</defs>
</svg>
