<svg width="70" height="70" viewBox="0 0 70 70" fill="none" xmlns="http://www.w3.org/2000/svg">
<rect width="70" height="70" fill="white"/>
<g clip-path="url(#clip0_2329_2342)">
<path d="M56.3594 29.4866L59.4375 28.5184L58.4375 26.3009C57.7031 27.2223 56.9687 28.4091 56.3594 29.4866ZM55.3125 19.3517L49.2812 5.92188L5.125 8.42045L17.3594 41.7765L40.9062 34.3588C39.4062 32.2038 38.8594 29.6428 40.5937 28.3935C42.5312 26.988 45.4531 28.6121 47.3125 30.9077C49.1094 27.9094 54.1562 20.929 55.3125 19.3517Z" fill="#225E63"/>
<path d="M47.9063 15.6253C49.75 15.6253 51.25 14.2199 51.25 12.4709C51.25 10.7219 49.75 9.31641 47.9063 9.31641C46.0625 9.31641 44.5625 10.7219 44.5625 12.4709C44.5625 14.2043 46.0625 15.6253 47.9063 15.6253ZM45.1719 16.9839H50.6406V31.2727H45.1719V16.9839Z" fill="#FEFEFE"/>
<path d="M42.4688 21.1519C42.5156 21.1675 42.5469 21.1519 42.5469 21.1051V17.4821C42.5469 17.4353 42.5156 17.3884 42.4688 17.3572C42.4688 17.3572 41.75 16.8887 39.5625 16.7638C39.4531 16.7013 37.5313 16.6857 37.0156 16.7638C29.0469 17.4041 28.75 23.1664 28.75 23.4163V24.8217C28.75 24.9935 28.75 30.8808 37.0156 31.3961C37.8281 31.4586 39.4063 31.3961 39.5625 31.3961C41.4688 31.3961 42.7813 30.8183 42.7813 30.8183C42.8281 30.8027 42.8594 30.7558 42.8594 30.709V27.3203C42.8594 27.2734 42.8281 27.2578 42.7969 27.2891C42.7969 27.2891 42.2031 27.7575 39.6094 28.023C38.875 28.1011 38.5156 28.0699 38.25 28.023C34.5625 27.3984 34.3906 24.7124 34.3906 24.7124C34.3906 24.6656 34.375 24.5875 34.375 24.5562V23.5256C34.375 23.4787 34.375 23.4007 34.3906 23.3694C34.3906 23.3694 34.6406 20.4804 38.25 20.1681H39.6094C41.1875 20.3711 42.4688 21.1519 42.4688 21.1519Z" fill="#FEFEFE"/>
<path d="M13.5625 31.2257C13.5625 31.2725 13.5938 31.3038 13.6406 31.3038H18.9688C19.0156 31.3038 19.0469 31.2725 19.0469 31.2257V27.0718C19.0469 27.025 19.0781 26.9937 19.125 26.9937C19.125 26.9937 27.6406 27.6028 27.6406 21.9029C27.6406 17.3898 22.2969 16.9057 20.5469 16.9838C20.5156 16.9838 13.6406 16.9838 13.6406 16.9838C13.5938 16.9838 13.5625 17.015 13.5625 17.0619V31.2257ZM18.9531 23.8237V20.0914H20.2656C20.2656 20.0914 22.1563 20.1695 22.3125 21.4656C22.3438 21.5593 22.3438 22.1996 22.3125 22.2308C22.0625 23.7456 20.4219 23.8237 20.4219 23.8237H18.9531Z" fill="#FEFEFE"/>
<path d="M48.0626 38.1684C48.5001 38.1684 48.8438 38.1684 49.4063 37.9186C51.3438 36.9035 57.8907 20.9283 64.7969 16.0092C64.8438 15.9779 64.8907 15.9311 64.9219 15.8843C64.9688 15.8218 64.9688 15.7593 64.9688 15.7593C64.9688 15.7593 64.9688 15.4314 63.9532 15.4314C57.8126 15.2596 51.4219 28.1429 48.0626 33.2338C48.0157 33.2962 47.7969 33.2338 47.7969 33.2338C47.7969 33.2338 45.5469 30.579 43.5938 29.564C43.5469 29.5484 43.3282 29.4703 43.0938 29.4859C42.9376 29.4859 42.0313 29.6733 41.6094 30.1105C41.1094 30.6415 41.1251 30.9382 41.1251 31.5784C41.1251 31.6253 41.1563 31.8439 41.2188 31.9532C41.7032 32.7965 43.8751 35.7948 45.6719 37.4501C45.9376 37.6531 46.3594 38.1684 48.0626 38.1684Z" fill="#2BBC5D"/>
<path d="M21.5742 62.6394L22.5117 62.9205C22.4492 63.186 22.3555 63.4046 22.2148 63.5764C22.0742 63.7482 21.918 63.8887 21.7148 63.9668C21.5117 64.0605 21.2617 64.1074 20.9492 64.1074C20.5742 64.1074 20.2773 64.0605 20.0273 63.9512C19.793 63.8419 19.5898 63.6545 19.418 63.3734C19.2461 63.1079 19.1523 62.7488 19.1523 62.3271C19.1523 61.7649 19.3086 61.3277 19.6055 61.0154C19.9023 60.703 20.3398 60.5625 20.8867 60.5625C21.3242 60.5625 21.6523 60.6562 21.9023 60.828C22.1523 60.9998 22.3398 61.2652 22.4492 61.64L21.5117 61.843C21.4805 61.7337 21.4492 61.6556 21.4023 61.6088C21.3398 61.5307 21.2773 61.4682 21.1836 61.4214C21.0898 61.3745 20.9961 61.3589 20.9023 61.3589C20.668 61.3589 20.4805 61.4526 20.3555 61.6556C20.2617 61.7962 20.2148 62.0304 20.2148 62.3271C20.2148 62.7019 20.2773 62.9674 20.3867 63.1079C20.4961 63.2485 20.668 63.3266 20.8711 63.3266C21.0742 63.3266 21.2305 63.2641 21.3242 63.1548C21.4492 63.0142 21.5273 62.8581 21.5742 62.6394Z" fill="#225E63"/>
<path d="M22.8867 62.3271C22.8867 61.7649 23.043 61.3277 23.3555 61.0154C23.668 60.703 24.1055 60.5469 24.668 60.5469C25.2461 60.5469 25.6836 60.703 25.9961 60.9997C26.3086 61.3121 26.4648 61.7337 26.4648 62.2959C26.4648 62.7019 26.4023 63.0298 26.2617 63.2797C26.1211 63.5296 25.9336 63.7326 25.668 63.8731C25.418 64.0137 25.0898 64.0917 24.7148 64.0917C24.3242 64.0917 24.0117 64.0293 23.7461 63.9043C23.4961 63.7794 23.293 63.592 23.1211 63.3109C22.9492 63.0298 22.8867 62.7331 22.8867 62.3271ZM23.9492 62.3271C23.9492 62.6707 24.0117 62.9205 24.1367 63.0767C24.2617 63.2328 24.4336 63.3109 24.668 63.3109C24.9023 63.3109 25.0742 63.2328 25.1992 63.0923C25.3242 62.9361 25.3867 62.6707 25.3867 62.2959C25.3867 61.9679 25.3242 61.7337 25.1836 61.5932C25.0586 61.437 24.8711 61.3745 24.6523 61.3745C24.4336 61.3745 24.2617 61.4526 24.1367 61.6088C24.0117 61.7337 23.9492 61.9836 23.9492 62.3271Z" fill="#225E63"/>
<path d="M27.0117 60.6094H28.4023L28.9336 62.7019L29.4648 60.6094H30.8555V64.0449H29.9805V61.4214L29.3086 64.0449H28.5273L27.8555 61.4214V64.0449H26.9805V60.6094H27.0117Z" fill="#225E63"/>
<path d="M31.543 60.6094H33.3086C33.6992 60.6094 33.9805 60.7031 34.168 60.8905C34.3555 61.0779 34.4492 61.3277 34.4492 61.6713C34.4492 62.0148 34.3398 62.2959 34.1367 62.4833C33.9336 62.6863 33.6055 62.78 33.1836 62.78H32.6055V64.0605H31.543V60.6094ZM32.6055 62.0773H32.8711C33.0742 62.0773 33.2148 62.0461 33.3086 61.968C33.3867 61.8899 33.4336 61.8118 33.4336 61.7025C33.4336 61.5932 33.4023 61.4995 33.3242 61.4214C33.2461 61.3433 33.1211 61.3121 32.918 61.3121H32.6211V62.0773H32.6055Z" fill="#225E63"/>
<path d="M35.0117 60.6094H36.0742V63.2016H37.7305V64.0449H35.0117V60.6094Z" fill="#225E63"/>
<path d="M38.2617 60.6094H39.3242V64.0449H38.2617V60.6094Z" fill="#225E63"/>
<path d="M42.1992 63.4671H40.9961L40.8242 64.0293H39.7461L41.043 60.5938H42.1992L43.4961 64.0293H42.3867L42.1992 63.4671ZM41.9805 62.7332L41.6055 61.4995L41.2305 62.7332H41.9805Z" fill="#225E63"/>
<path d="M43.8242 60.6094H44.8086L46.1055 62.5145V60.6094H47.1055V64.0449H46.1055L44.8242 62.1554V64.0449H43.8242V60.6094Z" fill="#225E63"/>
<path d="M47.5742 60.6094H50.8086V61.4526H49.7305V64.0449H48.668V61.4526H47.5898V60.6094H47.5742Z" fill="#225E63"/>
<path d="M19.043 47.5391H24.1523C25.168 47.5391 25.9805 47.6796 26.5898 47.9451C27.2148 48.2262 27.7305 48.6166 28.1211 49.1163C28.5273 49.6316 28.8242 50.225 28.9961 50.8965C29.1836 51.568 29.2773 52.2864 29.2773 53.0515C29.2773 54.2384 29.1367 55.1597 28.8711 55.8156C28.6055 56.4715 28.2305 57.018 27.7461 57.4709C27.2617 57.9082 26.7461 58.2049 26.1992 58.361C25.4492 58.564 24.7617 58.6577 24.1523 58.6577H19.043V47.5391ZM22.4805 50.0533V56.1279H23.3242C24.043 56.1279 24.5586 56.0498 24.8555 55.8937C25.1523 55.7375 25.4023 55.4564 25.5742 55.066C25.7461 54.6756 25.8398 54.0197 25.8398 53.1296C25.8398 51.9428 25.6523 51.1464 25.2617 50.7091C24.8711 50.2719 24.2461 50.0533 23.3398 50.0533H22.4805Z" fill="#225E63"/>
<path d="M30.2305 54.9878L33.5117 54.7848C33.5898 55.3158 33.7305 55.7218 33.9492 56.0029C34.3086 56.4557 34.8086 56.6744 35.4648 56.6744C35.9492 56.6744 36.3398 56.5651 36.6055 56.3308C36.8711 56.0966 37.0117 55.8311 37.0117 55.5344C37.0117 55.2533 36.8867 54.9878 36.6367 54.7536C36.3867 54.5193 35.793 54.3163 34.8711 54.1133C33.3555 53.7698 32.293 53.3169 31.6367 52.7547C30.9805 52.1925 30.668 51.4742 30.668 50.5997C30.668 50.0219 30.8398 49.491 31.168 48.9756C31.4961 48.4603 31.9961 48.0699 32.668 47.7732C33.3398 47.4765 34.2461 47.3359 35.4023 47.3359C36.8242 47.3359 37.918 47.6014 38.6523 48.1324C39.4023 48.6633 39.8398 49.5066 39.9805 50.6622L36.7305 50.8496C36.6367 50.3498 36.4648 49.9907 36.1836 49.7564C35.9023 49.5222 35.5273 49.4129 35.043 49.4129C34.6367 49.4129 34.3398 49.491 34.1367 49.6627C33.9336 49.8345 33.8398 50.0375 33.8398 50.2874C33.8398 50.4592 33.918 50.6309 34.0898 50.7715C34.2461 50.912 34.6367 51.0526 35.2461 51.1775C36.7461 51.5054 37.8242 51.8334 38.4805 52.1613C39.1367 52.4893 39.6055 52.9109 39.9023 53.395C40.1992 53.8791 40.3398 54.4413 40.3398 55.0503C40.3398 55.7686 40.1367 56.4245 39.7461 57.0179C39.3555 57.627 38.793 58.0798 38.0898 58.3921C37.3867 58.7045 36.4805 58.8606 35.4023 58.8606C33.5117 58.8606 32.1992 58.5015 31.4648 57.7675C30.7461 57.0335 30.3398 56.1122 30.2305 54.9878Z" fill="#225E63"/>
<path d="M41.2148 54.9878L44.4961 54.7848C44.5742 55.3158 44.7148 55.7218 44.9336 56.0029C45.293 56.4557 45.793 56.6744 46.4492 56.6744C46.9336 56.6744 47.3242 56.5651 47.5898 56.3308C47.8555 56.0966 47.9961 55.8311 47.9961 55.5344C47.9961 55.2533 47.8711 54.9878 47.6211 54.7536C47.3711 54.5193 46.7773 54.3163 45.8555 54.1133C44.3398 53.7698 43.2773 53.3169 42.6211 52.7547C41.9805 52.1925 41.6523 51.4742 41.6523 50.5997C41.6523 50.0219 41.8242 49.491 42.1523 48.9756C42.4805 48.4603 42.9805 48.0699 43.6523 47.7732C44.3242 47.4765 45.2305 47.3359 46.3867 47.3359C47.8086 47.3359 48.9023 47.6014 49.6367 48.1324C50.3867 48.6633 50.8242 49.5066 50.9648 50.6622L47.7148 50.8496C47.6211 50.3498 47.4492 49.9907 47.168 49.7564C46.8867 49.5222 46.5117 49.4129 46.0273 49.4129C45.6211 49.4129 45.3242 49.491 45.1211 49.6627C44.918 49.8345 44.8242 50.0375 44.8242 50.2874C44.8242 50.4592 44.9023 50.6309 45.0742 50.7715C45.2305 50.912 45.6211 51.0526 46.2305 51.1775C47.7305 51.5054 48.8086 51.8334 49.4648 52.1613C50.1211 52.4893 50.5898 52.9109 50.8867 53.395C51.1836 53.8791 51.3242 54.4413 51.3242 55.0503C51.3242 55.7686 51.1211 56.4245 50.7305 57.0179C50.3398 57.627 49.7773 58.0798 49.0742 58.3921C48.3711 58.7045 47.4648 58.8606 46.3867 58.8606C44.4961 58.8606 43.1836 58.5015 42.4492 57.7675C41.7148 57.0335 41.3086 56.1122 41.2148 54.9878Z" fill="#225E63"/>
</g>
<defs>
<clipPath id="clip0_2329_2342">
<rect width="60" height="58.4043" fill="white" transform="translate(5 5.79688)"/>
</clipPath>
</defs>
</svg>
