<svg width="224" height="224" viewBox="0 0 224 224" fill="none" xmlns="http://www.w3.org/2000/svg">
<path d="M57.1431 31.5463C76.0005 24.8922 98.1727 15.174 111.427 2.78237C125.068 15.5871 147.261 25.316 166.048 31.8768C175.823 35.2902 184.767 37.8765 191.268 39.6096C194.519 40.4764 197.162 41.1304 198.994 41.5684C199.413 41.6684 199.789 41.7573 200.121 41.8347C191.818 124.576 172.455 181.459 111.469 221.585C80.7821 199.921 60.2211 175.296 46.5134 145.97C32.8152 116.664 25.9125 82.5613 22.6975 41.8274C23.0518 41.7414 23.4589 41.6417 23.9156 41.5284C25.7692 41.0683 28.4414 40.3836 31.7259 39.4828C38.2928 37.6816 47.3168 35.0137 57.1431 31.5463Z" stroke="#002A52" stroke-width="4"/>
<path d="M137.358 137.715V106.664H144.09V137.715H137.358Z" fill="#036FD0"/>
<path d="M137.358 137.715V106.664H144.09V137.715H137.358Z" fill="#036FD0"/>
<path d="M137.358 137.715V106.664H144.09V137.715H137.358Z" fill="url(#paint0_linear_3254_65889)"/>
<path d="M126.726 117.824C126.407 115.942 125.712 114.422 124.641 113.264C123.599 112.106 121.977 111.527 119.777 111.527C117.027 111.527 115.043 112.497 113.827 114.437C112.64 116.348 112.047 118.924 112.047 122.167C112.047 125.439 112.64 128.044 113.827 129.984C115.043 131.895 117.027 132.851 119.777 132.851C123.888 132.851 126.204 130.636 126.726 126.206H133.587C133.356 128.58 132.675 130.694 131.546 132.547C130.417 134.371 128.854 135.804 126.856 136.846C124.887 137.859 122.556 138.366 119.864 138.366C116.795 138.366 114.146 137.686 111.916 136.325C109.687 134.935 107.993 133.024 106.835 130.592C105.706 128.16 105.142 125.381 105.142 122.254C105.142 119.069 105.721 116.261 106.879 113.829C108.066 111.368 109.774 109.457 112.003 108.096C114.262 106.707 116.94 106.012 120.038 106.012C122.701 106.012 125.003 106.518 126.943 107.532C128.912 108.516 130.446 109.906 131.546 111.701C132.646 113.467 133.327 115.508 133.587 117.824H126.726Z" fill="#036FD0"/>
<path d="M126.726 117.824C126.407 115.942 125.712 114.422 124.641 113.264C123.599 112.106 121.977 111.527 119.777 111.527C117.027 111.527 115.043 112.497 113.827 114.437C112.64 116.348 112.047 118.924 112.047 122.167C112.047 125.439 112.64 128.044 113.827 129.984C115.043 131.895 117.027 132.851 119.777 132.851C123.888 132.851 126.204 130.636 126.726 126.206H133.587C133.356 128.58 132.675 130.694 131.546 132.547C130.417 134.371 128.854 135.804 126.856 136.846C124.887 137.859 122.556 138.366 119.864 138.366C116.795 138.366 114.146 137.686 111.916 136.325C109.687 134.935 107.993 133.024 106.835 130.592C105.706 128.16 105.142 125.381 105.142 122.254C105.142 119.069 105.721 116.261 106.879 113.829C108.066 111.368 109.774 109.457 112.003 108.096C114.262 106.707 116.94 106.012 120.038 106.012C122.701 106.012 125.003 106.518 126.943 107.532C128.912 108.516 130.446 109.906 131.546 111.701C132.646 113.467 133.327 115.508 133.587 117.824H126.726Z" fill="#036FD0"/>
<path d="M126.726 117.824C126.407 115.942 125.712 114.422 124.641 113.264C123.599 112.106 121.977 111.527 119.777 111.527C117.027 111.527 115.043 112.497 113.827 114.437C112.64 116.348 112.047 118.924 112.047 122.167C112.047 125.439 112.64 128.044 113.827 129.984C115.043 131.895 117.027 132.851 119.777 132.851C123.888 132.851 126.204 130.636 126.726 126.206H133.587C133.356 128.58 132.675 130.694 131.546 132.547C130.417 134.371 128.854 135.804 126.856 136.846C124.887 137.859 122.556 138.366 119.864 138.366C116.795 138.366 114.146 137.686 111.916 136.325C109.687 134.935 107.993 133.024 106.835 130.592C105.706 128.16 105.142 125.381 105.142 122.254C105.142 119.069 105.721 116.261 106.879 113.829C108.066 111.368 109.774 109.457 112.003 108.096C114.262 106.707 116.94 106.012 120.038 106.012C122.701 106.012 125.003 106.518 126.943 107.532C128.912 108.516 130.446 109.906 131.546 111.701C132.646 113.467 133.327 115.508 133.587 117.824H126.726Z" fill="url(#paint1_linear_3254_65889)"/>
<path d="M78.0684 137.715V106.664H92.3564C95.5701 106.664 98.1034 107.475 99.9564 109.096C101.838 110.717 102.779 113.12 102.779 116.305C102.779 119.49 101.838 121.907 99.9564 123.558C98.1034 125.179 95.5701 125.99 92.3564 125.99H84.7998V137.715H78.0684ZM91.1404 120.431C92.7038 120.431 93.8764 120.112 94.6581 119.475C95.4687 118.81 95.8741 117.753 95.8741 116.305C95.8741 114.887 95.4687 113.859 94.6581 113.222C93.8764 112.556 92.7038 112.223 91.1404 112.223H84.7998V120.431H91.1404Z" fill="#036FD0"/>
<path d="M78.0684 137.715V106.664H92.3564C95.5701 106.664 98.1034 107.475 99.9564 109.096C101.838 110.717 102.779 113.12 102.779 116.305C102.779 119.49 101.838 121.907 99.9564 123.558C98.1034 125.179 95.5701 125.99 92.3564 125.99H84.7998V137.715H78.0684ZM91.1404 120.431C92.7038 120.431 93.8764 120.112 94.6581 119.475C95.4687 118.81 95.8741 117.753 95.8741 116.305C95.8741 114.887 95.4687 113.859 94.6581 113.222C93.8764 112.556 92.7038 112.223 91.1404 112.223H84.7998V120.431H91.1404Z" fill="#036FD0"/>
<path d="M78.0684 137.715V106.664H92.3564C95.5701 106.664 98.1034 107.475 99.9564 109.096C101.838 110.717 102.779 113.12 102.779 116.305C102.779 119.49 101.838 121.907 99.9564 123.558C98.1034 125.179 95.5701 125.99 92.3564 125.99H84.7998V137.715H78.0684ZM91.1404 120.431C92.7038 120.431 93.8764 120.112 94.6581 119.475C95.4687 118.81 95.8741 117.753 95.8741 116.305C95.8741 114.887 95.4687 113.859 94.6581 113.222C93.8764 112.556 92.7038 112.223 91.1404 112.223H84.7998V120.431H91.1404Z" fill="url(#paint2_linear_3254_65889)"/>
<path d="M117.405 163.717H114.937V144.105H117.954L127.746 160.206H127.801V144.105H130.269V163.717H127.252L117.46 147.616H117.405V163.717Z" fill="#002A52"/>
<path d="M108.909 163.717V144.105H111.378V163.717H108.909Z" fill="#002A52"/>
<path d="M92.2754 163.717V144.105H100.065C101.985 144.105 103.521 144.572 104.673 145.504C105.843 146.419 106.429 147.854 106.429 149.811C106.429 151.767 105.843 153.212 104.673 154.144C103.521 155.059 101.985 155.516 100.065 155.516H94.744V163.717H92.2754ZM100.23 153.321C101.455 153.321 102.36 153.038 102.945 152.471C103.549 151.886 103.85 150.999 103.85 149.811C103.85 148.622 103.549 147.744 102.945 147.177C102.36 146.592 101.455 146.3 100.23 146.3H94.744V153.321H100.23Z" fill="#002A52"/>
<circle cx="112.007" cy="61.7115" r="33.2857" stroke="#036FD0" stroke-width="2"/>
<circle cx="112.007" cy="61.7115" r="33.2857" stroke="url(#paint3_linear_3254_65889)" stroke-width="2"/>
<path d="M95.9912 61.2587L107.712 73.1401L129.134 51.4258" stroke="#036FD0" stroke-width="8" stroke-linecap="round"/>
<path d="M95.9912 61.2587L107.712 73.1401L129.134 51.4258" stroke="url(#paint4_linear_3254_65889)" stroke-width="8" stroke-linecap="round"/>
<path d="M144.259 176.719H143.128V168.736H140.136V167.73H147.251V168.736H144.259V176.719Z" fill="#002A52"/>
<path d="M133.166 176.719H132.034V167.73H133.417L137.905 175.11H137.93V167.73H139.062V176.719H137.679L133.191 169.34H133.166V176.719Z" fill="#002A52"/>
<path d="M129.943 176.719L129.151 174.469H125.191L124.399 176.719H123.229L126.548 167.73H127.818L131.162 176.719H129.943ZM127.164 168.774L125.568 173.463H128.786L127.189 168.774H127.164Z" fill="#002A52"/>
<path d="M121.23 176.719V167.73H122.362V176.719H121.23Z" fill="#002A52"/>
<path d="M114.318 176.719V167.73H115.45V175.713H120.164V176.719H114.318Z" fill="#002A52"/>
<path d="M106.695 176.719V167.73H110.266C111.146 167.73 111.85 167.944 112.378 168.372C112.914 168.791 113.182 169.449 113.182 170.345C113.182 171.242 112.914 171.904 112.378 172.332C111.85 172.751 111.146 172.96 110.266 172.96H107.827V176.719H106.695ZM110.341 171.954C110.903 171.954 111.317 171.825 111.586 171.565C111.862 171.297 112 170.89 112 170.345C112 169.801 111.862 169.398 111.586 169.138C111.317 168.87 110.903 168.736 110.341 168.736H107.827V171.954H110.341Z" fill="#002A52"/>
<path d="M97.44 176.719H96.3086V167.73H97.8549L100.671 175.198H100.696L103.512 167.73H105.058V176.719H103.927V169.327H103.902L101.186 176.719H100.181L97.4652 169.327H97.44V176.719Z" fill="#002A52"/>
<path d="M90.648 176.895C89.7848 176.895 89.018 176.694 88.3475 176.292C87.6854 175.89 87.17 175.336 86.8012 174.632C86.4324 173.92 86.248 173.115 86.248 172.219C86.248 171.322 86.4324 170.522 86.8012 169.818C87.17 169.105 87.6854 168.552 88.3475 168.158C89.018 167.756 89.7848 167.555 90.648 167.555C91.5113 167.555 92.274 167.756 92.936 168.158C93.6065 168.552 94.1261 169.105 94.4949 169.818C94.8637 170.522 95.048 171.322 95.048 172.219C95.048 173.115 94.8637 173.92 94.4949 174.632C94.1261 175.336 93.6065 175.89 92.936 176.292C92.274 176.694 91.5113 176.895 90.648 176.895ZM90.648 175.89C91.3688 175.89 91.968 175.726 92.4458 175.399C92.9319 175.064 93.288 174.62 93.5143 174.067C93.749 173.514 93.8663 172.898 93.8663 172.219C93.8663 171.548 93.749 170.936 93.5143 170.383C93.288 169.83 92.9319 169.39 92.4458 169.063C91.968 168.728 91.3688 168.56 90.648 168.56C89.9273 168.56 89.3239 168.728 88.8378 169.063C88.36 169.39 88.0039 169.83 87.7692 170.383C87.5429 170.936 87.4298 171.548 87.4298 172.219C87.4298 172.898 87.5429 173.514 87.7692 174.067C88.0039 174.62 88.36 175.064 88.8378 175.399C89.3239 175.726 89.9273 175.89 90.648 175.89Z" fill="#002A52"/>
<path d="M84.0013 170.698C83.8924 170.136 83.6326 169.642 83.2219 169.214C82.8196 168.778 82.1994 168.56 81.3613 168.56C80.6825 168.56 80.121 168.732 79.6768 169.076C79.2326 169.419 78.9057 169.868 78.6962 170.421C78.4867 170.974 78.3819 171.573 78.3819 172.219C78.3819 172.864 78.4867 173.467 78.6962 174.029C78.9057 174.582 79.2326 175.03 79.6768 175.374C80.121 175.718 80.6825 175.89 81.3613 175.89C82.2246 175.89 82.8699 175.655 83.2973 175.186C83.7248 174.708 83.9594 174.138 84.0013 173.476H85.1831C85.116 174.138 84.9191 174.729 84.5922 175.248C84.2653 175.768 83.8253 176.174 83.2722 176.468C82.7191 176.753 82.0821 176.895 81.3613 176.895C80.5484 176.895 79.8276 176.694 79.1991 176.292C78.5705 175.89 78.0802 175.336 77.7282 174.632C77.3762 173.92 77.2002 173.115 77.2002 172.219C77.2002 171.322 77.3762 170.522 77.7282 169.818C78.0802 169.105 78.5705 168.552 79.1991 168.158C79.8276 167.756 80.5484 167.555 81.3613 167.555C82.0737 167.555 82.7065 167.697 83.2596 167.982C83.8128 168.259 84.2528 168.636 84.5796 169.114C84.9065 169.591 85.1076 170.119 85.1831 170.698H84.0013Z" fill="#002A52"/>
<defs>
<linearGradient id="paint0_linear_3254_65889" x1="58.3715" y1="157.598" x2="191.503" y2="125.026" gradientUnits="userSpaceOnUse">
<stop stop-color="#052460"/>
<stop offset="0.578537" stop-color="#036FD0"/>
<stop offset="1" stop-color="#00AEEF"/>
</linearGradient>
<linearGradient id="paint1_linear_3254_65889" x1="58.3719" y1="157.597" x2="191.504" y2="125.025" gradientUnits="userSpaceOnUse">
<stop stop-color="#052460"/>
<stop offset="0.578537" stop-color="#036FD0"/>
<stop offset="1" stop-color="#00AEEF"/>
</linearGradient>
<linearGradient id="paint2_linear_3254_65889" x1="58.3716" y1="157.598" x2="191.503" y2="125.026" gradientUnits="userSpaceOnUse">
<stop stop-color="#052460"/>
<stop offset="0.578537" stop-color="#036FD0"/>
<stop offset="1" stop-color="#00AEEF"/>
</linearGradient>
<linearGradient id="paint3_linear_3254_65889" x1="61.4859" y1="110.729" x2="192.663" y2="90.2245" gradientUnits="userSpaceOnUse">
<stop stop-color="#052460"/>
<stop offset="0.578537" stop-color="#036FD0"/>
<stop offset="1" stop-color="#00AEEF"/>
</linearGradient>
<linearGradient id="paint4_linear_3254_65889" x1="88.1439" y1="77.8052" x2="149.597" y2="63.1434" gradientUnits="userSpaceOnUse">
<stop stop-color="#052460"/>
<stop offset="0.578537" stop-color="#036FD0"/>
<stop offset="1" stop-color="#00AEEF"/>
</linearGradient>
</defs>
</svg>
