<?xml version="1.0" encoding="utf-8"?>
<!-- Generator: Adobe Illustrator 25.4.1, SVG Export Plug-In . SVG Version: 6.00 Build 0)  -->
<svg version="1.1" id="Layer_1" xmlns="http://www.w3.org/2000/svg" xmlns:xlink="http://www.w3.org/1999/xlink" x="0px" y="0px"
	 width="128px" height="48px" viewBox="0 0 128 48" style="enable-background:new 0 0 128 48;" xml:space="preserve">
<style type="text/css">
	.st0{fill-rule:evenodd;clip-rule:evenodd;fill:#004265;}
	.st1{fill-rule:evenodd;clip-rule:evenodd;fill:#BD9E55;}
</style>
<g>
	<path class="st0" d="M107.7,36.8h1.9v-3.5h0l2.4,3.5h2.4l-3-4l2.7-3.2h-2.2l-2.2,2.9h0v-6.2h-1.9V36.8z M13.8,31.6
		c0.6-0.5,1.4-0.8,2.2-0.8c1.1,0,1.6,0.4,1.6,1.5h-1c-0.8,0-1.7,0.1-2.4,0.4c-0.7,0.3-1.2,1-1.2,2v0c0,1.4,1.2,2.1,2.5,2.1
		c0.9,0,1.8-0.4,2.2-1.2h0c0,0.2,0,0.7,0.1,1.1h1.6c0-0.6-0.1-1.1-0.1-1.6c0-0.5,0-1.1,0-1.8v-0.9c0-2.1-0.9-3-3.1-3
		c-0.8,0-1.8,0.2-2.5,0.5L13.8,31.6z M99.4,36.8h1.9v-3.5c0-0.9,0.3-2.4,1.6-2.4c1.2,0,1.2,1.2,1.2,2.1v3.8h1.9v-4.5
		c0-1.6-0.7-2.8-2.4-2.8c-1,0-1.8,0.3-2.4,1.1h0v-1h-1.8V36.8z M92.3,31.6c0.6-0.5,1.4-0.8,2.2-0.8c1.1,0,1.6,0.4,1.6,1.5h-1
		c-0.8,0-1.7,0.1-2.4,0.4c-0.7,0.3-1.2,1-1.2,2.1c0,1.4,1.2,2.1,2.5,2.1c0.9,0,1.8-0.4,2.2-1.2h0c0,0.2,0,0.7,0.1,1.1H98
		c0-0.6-0.1-1.1-0.1-1.6c0-0.5,0-1.1,0-1.8v-0.9c0-2.1-0.9-3-3.1-3c-0.8,0-1.8,0.2-2.5,0.5L92.3,31.6z M93.3,34.7
		c0-1.1,1.2-1.2,2.1-1.2h0.8c0,0.6-0.1,1.1-0.4,1.5c-0.3,0.4-0.7,0.6-1.3,0.6C93.8,35.6,93.3,35.3,93.3,34.7z M85.6,33.2
		c0-1,0.5-2.3,1.7-2.3c1.2,0,1.5,1.3,1.5,2.3c0,1-0.3,2.3-1.6,2.3C86,35.5,85.6,34.2,85.6,33.2z M83.7,36.8h1.8v-0.9h0
		c0.5,0.8,1.4,1,2.2,1c2.2,0,3-1.8,3-3.8c0-2-0.8-3.7-3-3.7c-1,0-1.6,0.4-2.1,1.1h0v-4.2h-1.9V36.8z M73.7,33.2c0-1,0.3-2.3,1.5-2.3
		c1.2,0,1.7,1.3,1.7,2.3c0,1-0.4,2.3-1.6,2.3C74.1,35.5,73.7,34.2,73.7,33.2z M77,36.8h1.8V26.3h-1.9v4.1h0c-0.6-0.7-1.2-1-2.1-1
		c-2.2,0-3,1.8-3,3.7c0,2,0.8,3.8,3,3.8c0.9,0,1.6-0.3,2.2-1h0V36.8z M66.1,32.5c0.1-1,0.6-1.7,1.7-1.7c1,0,1.5,0.8,1.5,1.7H66.1z
		 M70.5,34.9c-0.7,0.4-1.5,0.7-2.4,0.7c-1.2,0-2-0.7-2.1-1.8h5c0-2.5-0.8-4.3-3.4-4.3c-2.2,0-3.3,1.7-3.3,3.8c0,2.4,1.4,3.7,3.8,3.7
		c1,0,1.8-0.2,2.5-0.6V34.9z M60.2,34.6c0,1.4,0.8,2.3,2.3,2.3c0.6,0,1-0.1,1.4-0.2l-0.1-1.5c-0.2,0.1-0.5,0.2-0.9,0.2
		c-0.7,0-0.9-0.6-0.9-1.2V31h1.7v-1.4h-1.7v-2l-1.9,0.6v1.4h-1.4V31h1.4V34.6z M56.1,36.8h1.9v-7.2h-1.9V36.8z M56.1,28.3h1.9v-1.8
		h-1.9V28.3z M47.8,36.8h1.9v-3.5c0-0.9,0.3-2.4,1.6-2.4c1.2,0,1.2,1.2,1.2,2.1v3.8h1.9v-4.5c0-1.6-0.7-2.8-2.4-2.8
		c-1,0-1.8,0.3-2.4,1.1h0v-1h-1.8V36.8z M46.2,29.6h-1.9v3.5c0,0.9-0.3,2.4-1.6,2.4c-1.2,0-1.2-1.2-1.2-2.1v-3.8h-1.9v4.5
		c0,1.6,0.7,2.8,2.4,2.8c1,0,1.8-0.4,2.4-1.1h0v1h1.8V29.6z M32.7,36.8h1.9v-7.2h-1.9V36.8z M32.7,28.3h1.9v-1.8h-1.9V28.3z
		 M29.2,36.8H31V26.3h-1.9V36.8z M20.9,36.8h1.9v-3.5c0-0.9,0.3-2.4,1.6-2.4c1.2,0,1.2,1.2,1.2,2.1v3.8h1.9v-4.5
		c0-1.6-0.7-2.8-2.4-2.8c-1,0-1.8,0.4-2.3,1.1h0v-4.3h-1.9V36.8z M14.8,34.7c0-1.1,1.2-1.2,2.1-1.2h0.8c0,0.6-0.1,1.1-0.4,1.5
		c-0.3,0.4-0.7,0.6-1.3,0.6C15.3,35.6,14.8,35.3,14.8,34.7z"/>
	<path class="st1" d="M16.8,22.8c1-0.5,2-0.9,3-1.5c0.4-0.1-0.2,1.1-2.5,1.6C17.1,22.9,16.8,23,16.8,22.8z M19,18.9
		c0.4,0,0.9,0.1,1.3,0.3c-0.6,0.3-1.9,0.7-2.5,0.3C18.1,19.1,18.5,18.9,19,18.9z M23.6,17.1C24,17,27,15.4,27,15.6
		c0.1,0.4-0.5,0.7-0.9,0.8C25.9,16.5,23.8,17.3,23.6,17.1L23.6,17.1z M24.6,18.6c0.2-0.2,0.4-0.5,0.7-0.6c0.3,0,0.5,0.2,0.7,0.3
		c0.3,0.1,0.4-0.7,0.7-0.6c0.3,0.2,0.7,0.3,0.9,0.5c0,0.2-0.6,0.8-0.8,0.7c-0.3-0.1-0.5-0.4-0.8-0.4c-0.7,0.8-0.6,0.6-1.5,0.1
		C24.5,18.7,24.5,18.6,24.6,18.6z M34.7,16.1c0.1-0.1,0.2-0.4,0.3-0.2c0.1,0.1,1,4.5,0.3,4.9c-0.1,0-0.1-0.1-0.1-0.1
		c0-1.3-0.6-3.5-0.7-4C34.5,16.5,34.7,16.3,34.7,16.1z M37.3,19.8c0.2-0.3,0.3-0.5,0.5-0.7c0.2,0.1,0.2-0.1,0.1,0.2
		c-0.2,0.4-1.4,2.1,0.9,2.6c0.3,0,0.5,0.1,0.8,0.1c0.6,0,1.5-0.3,2-0.7c-0.4-0.2-1.6-0.2-1.9-0.3c-0.1-0.1,0.2-0.8,0.3-0.8
		c0.3-0.1,2.2-0.4,1.9-1.6c-0.1-0.5-0.6-1.9-0.2-2.3c0.2-0.1,0.1-0.3,0.2-0.5l0.6,3.3c0.7,2.3,6.9,1.2,7.2,1c0,0,0.2-2.1,0.5-2.4
		c0.3-0.3,0.2-0.4,1.1,0c0.6,0.4,1.4,0.7,1.8,1.4c0.5,0.6,0.2,1.9-0.1,1.9c-0.4,0-0.7-0.2-1.1-0.2c-0.5-0.1-1.1,0-1.5-0.1
		c0,0-0.1,0-0.1,0c-1.6,0.7-7.1,1.6-8-0.4c-0.1-0.2-0.2-0.5-0.3-0.8l-0.8,0.9l0,0c0.7,0.2,1.5-0.2,0.9,1c-0.6,0.7-1.4,1.2-2.3,1.4
		c-1.4,0.4-3.3-0.2-2.9-2C37,20.4,37.2,20.1,37.3,19.8z M38.7,16.4c0.5-0.3,0,0.3,0.2,0.4c0.3,0,0.4-0.3,0.6-0.4
		c0.1,0.1,0,0.3,0.2,0.4c0.2-0.1,0.1-0.4,0.4-0.5c0.4,0.1-0.6,1.6-0.8,0.9c0,0,0,0,0,0c-0.2,0.1-0.5,0.4-0.7,0.1
		C38.1,17,38.4,16.7,38.7,16.4z M45.5,16.2c0.2-0.2,2-0.5,2.1-0.1c0.2,0.6-2.1,1.8-2.2,1.4c0-0.1,2.8-1.2-0.3-0.7
		C44.8,16.9,45.4,16.3,45.5,16.2z M50.6,19c0.1,0,0.7,0.2,0.6,0.4c-0.2,0.5-0.8,0.3-1.1,0C50.2,19.2,50.4,19,50.6,19z M51.8,19.1
		c0.4,0.2,0.8,0.5,1,0.9l-1.3-0.2C51.6,19.5,51.7,19.3,51.8,19.1z M53.3,16.3c0.8-0.5,3.6,1.8,3.8,1.9l2.2-2.6
		c0.3-0.2,0.3,3,0.3,3.2c0.1,1.9-0.4,2.9-0.4,2.6c0-0.6-0.1-4.1-0.2-4.6c-0.3,0.1-1.2,1.5-1.5,1.8c0.2,0.3,1,1.4,0.4,2.4
		c-0.5,0.7-2.6,1.5-1.7-1.2c0.1-0.2,0.5-0.8,0.4-0.9c-0.6-0.5-1.3-0.9-2.1-1.2c-0.1,0.1-0.1,0.3-0.2,0.3c-0.5,0.1-0.7-0.4-1.1-0.6
		C53.1,17.2,53.2,16.5,53.3,16.3z M56.4,15.7c1.2-0.6,1.1,0.6,0.6,0.4c-0.1,0,0-0.2-0.1-0.2c-0.1,0-0.3-0.1-0.4,0.1
		c0.2,0.6,1.5,0,1.5,0.2c0,0.3-1.5,0.9-1.7,0.7c0-0.1,0.1-0.2,0.1-0.3C55.8,16.4,55.9,15.9,56.4,15.7z M56.7,19.5
		c0.1-0.1,0.1-0.2,0.2-0.3c0.3,0.2,0.6,0.6,0.8,0.9c0.1,0.2-1.2,0.7-1.3,0.2C56.4,20,56.6,19.8,56.7,19.5z M61.3,19.2
		c0.1,0,0.1,0.9,0.6,1.1c0.5,0.2,1,0.5,1.7,0.4c0.5-0.1,3.1-0.3,2.9-1.2c-0.2-0.9-0.3-1.8-0.4-2.7c-0.1-0.3,0.1-0.8,0.3-1.1
		c0.1,0,0.6,3.2,0.7,3.5c0,0.4,0.4,0.7,0.7,1c0.8,0.4,3.7,0.3,4.7-0.1c0.3-0.9,0.9-1.4,0.5,0c0.4,0.1,0.7,0.4,1.2,0.2
		c0.5-0.2-0.1-1.3,0-1.7c0-0.1,0.3-0.9,0.3-0.7c0.3,0.6,0.2,2.4,1.1,2.5c0.2,0,0.4,0,0.5-0.2L75.4,17c-0.1-0.6-0.4-0.3,0.2-1.4
		c0.1-0.3,0.2,0.4,0.6,0.6c0.3,0.1,0.5,0,0.4,0.4c-0.1,0.2-0.2,0.6-0.5,0.7c-0.3,0.5,1,3.9-0.9,4.1c-0.4,0-0.9-0.4-0.9-0.8
		c-0.5,0.2-0.2,1.1-1.7,0.2c-0.4-0.3,0.5,0.2-2,0.6c-1,0.2-3.4,0.3-3.9-0.7c-0.1-0.1-0.1-0.3-0.2-0.5c-0.8,1.2-2.1,1.4-3.5,1.5
		c-1,0-2.1-0.4-1.9-1.5C61.1,19.8,61.2,19.5,61.3,19.2z M62.6,18.7c0.1,0,1.5-0.4,1.5-0.5c-0.2-0.3-2,0.5-1.3-0.9
		c0.6-1.1,2.1-1.7,2.1-1.3c0,0.2-0.5,1.1-0.7,0.9c0-0.1,0-0.1-0.1-0.2c-0.5-0.1-1.2,0.4-0.3,0.6c0.1,0,1.9-0.3,0.5,1.2
		c-0.6,0.6-2.5,0.5-2.1,0.3C62.2,18.7,62.4,18.7,62.6,18.7z M68.9,18.6c0.5-0.5,0.5-1,1.3-0.3c0.4,0.3,0.5,0.4-0.4,1
		C69.5,19.2,69.2,18.9,68.9,18.6L68.9,18.6z M69.6,17c1.1-0.5,2.3-1,3.3-1.5c0.6,0.5-3.4,2-3.6,1.9L69.6,17z M72.8,22.4
		c0.2-0.2,0.3-0.5,0.6-0.7c0.2,0,0.8,0.4,0.7,0.6C73.5,23.2,73.6,23,72.8,22.4L72.8,22.4z M78,16.1c0.3-0.5,0.2,1.1,0.3,1.5
		c0,0.6,0.1,1.2,0.1,1.8c0.1,0.5,0.1,1.2-0.3,1.6c-0.2-0.1-0.4-3-0.4-3.3C77.8,17.1,77.8,16.5,78,16.1z M13.3,19.2
		c0.1-0.3,0.2,0.3,0.2,0.4c0.5,0.6,2.5,0.1,2.9-0.4c0.2-0.3-0.4-1.8-0.5-2.1c0-0.1,0.1-1.2,0.3-0.9c0.3,0.5,0.4,2.8,1,3.2
		c0.4-0.4,0.6-2.1,3.3-1.3c0.7,0.3,1.6,0.6,2.4,0.4c0.1,0.1-0.2,0.8-0.3,0.8c-0.4,0.1-1.5,0.1-1.7,0.3c0,0.1,0.2,0.2,0.2,0.3
		c1,0.9,6.4,0.2,8-0.1c1-0.2,0.5-0.7,1-1.1c0.4-0.3-0.6,1,0.6,1.3c0.4,0.1,0.6-0.3,0.8-0.5c0-0.8-0.2-2.3-0.5-3
		c-0.1-0.2,0.2-0.9,0.4-1c0.2,0.1,0.3,0.3,0.5,0.5c0.1,0.1,0.5,0,0.5,0.3c-0.1,0.3-0.2,0.6-0.4,0.8c-0.1,0-0.2,0-0.2,0.1
		c0.1,2.4-0.1,2,1.6,2.8c0.5,0.2,0.2,0.3,0.2,0.8c-0.1,0.5-0.7,0-0.9-0.1l-1-0.4c-1.8,1.6-1.4-0.3-1.8,0c-0.7,0.5-1.4,0.6-2.3,0.7
		c-1.6,0.3-4.2,0.4-5.8,0.2c-0.5-0.1-1-0.5-1.1-1l0-0.5c-0.1-0.1-2.5,0.9-3.4,0.6c-0.5-0.2-0.4-0.7-0.6-0.8
		c-0.7,1.2-3.4,1.6-3.5,0.7C13.1,19.9,13.2,19.5,13.3,19.2z"/>
	<path class="st1" d="M95.3,15.7l0.5-0.4l-0.4-0.3l0.4-0.3l-0.4-0.4l-0.4,0.3l0.3,0.4L95,15.3L95.3,15.7z M96.1,17.7
		c0.1,0,0.2-0.1,0.2-0.1c0.1-0.1,0-0.2,0-0.2c-0.1-0.2-0.4-0.1-0.4-0.1c-0.2,0.1-0.3,0.2-0.5,0.3l0.1-0.2c0.2-0.3,0.2-0.5,0.2-0.5
		c0-0.1-0.1-0.1-0.1-0.1c-0.2,0-0.2,0.2-0.2,0.2c-0.1,0.1,0.1,0.3,0.1,0.3c-0.1,0.4-0.2,0.5-0.2,0.5c0.2-0.2,0.5-0.3,0.6-0.4l0.1,0
		l0,0l0,0.1L96.1,17.7L96.1,17.7z M94.6,8.9c0,0,0.3,0.4,0.5,0.3c0,0,0-0.1,0-0.2c-0.1-0.1-0.1-0.2-0.1-0.1c0,0,0.1,0.1,0,0.2
		C94.9,9,94.8,9,94.6,8.9c0-0.2-0.2-0.6-0.2-0.4L94.6,8.9z M95.9,12.5l0.1,0.1c0.2-0.1,0.4,0,0.8,0.2C96.6,12.5,96.3,12.4,95.9,12.5
		z M94.1,11.6c0.1,0,0.2-0.1,0.2-0.1c0,0,0,0,0.1,0c0.1,0,0.3,0,0.4,0.1c0,0,0.2,0,0.1-0.1c-0.1-0.1-0.2-0.3-0.5-0.5
		c0,0-0.1-0.1,0.1-0.1c0,0,0.2,0,0.1-0.1c-0.1-0.1-0.1-0.1-0.1-0.1c-0.1,0-0.2,0-0.2,0c0,0,0,0.2,0.1,0.3c0.1,0.1,0.4,0.3,0.4,0.3
		s-0.2,0-0.3-0.1c-0.1,0-0.4,0-0.4,0.1C93.8,11.5,94,11.6,94.1,11.6z M93.2,10.8c0.1-0.2,0.2-0.4,0.3-0.6c0.1-0.1,0.1,0.1,0.1,0.1
		s0,0.4,0,0.5c0,0.1,0,0.1,0,0.1c0.4-0.7,0.1-1.1,0-1.3c-0.1-0.2-0.2-0.1-0.2-0.1S93.1,10,93,10.2c-0.1,0.2,0,0.3,0,0.3L93.2,10.8z
		 M95.4,10.8c-0.2,0-0.2-0.2-0.2-0.2c-0.1-0.2,0-0.4,0-0.4c0-0.3,0.3-0.2,0.3-0.2c0.1,0,0.2,0.1,0.3,0.2c0.1,0.1,0,0.3,0,0.3
		C95.7,10.9,95.4,10.8,95.4,10.8z M96.6,9.8c0,0,0.2,0,0.3,0.1c0,0,0,0.1-0.2,0.3c0,0-0.3,0.2-0.6,0.4L95.8,10L96.6,9.8z M92.8,11.8
		l1.6,0.7c0.2,0.3,0.2,0.7,0.2,1.2L95,14c0.2,0,0.4-0.4,0.7-0.8c0.2-0.2,0.3,0,0.3,0c0.1,0.2,0.2,0.5,0.3,1.1c0.2,0.8,0,1.4-0.4,1.7
		c-0.7,0.5-1.4,0.4-1.8-0.1c0.2,0.3,0.6,0.6,1,0.7c0.9,0.1,1.7-0.5,1.7-1.4c0-0.8-0.2-1.5-0.6-2.1c-0.2-0.2-0.3-0.3-0.3-0.3
		c-0.2-0.2-0.4-0.2-0.6,0L95,13.2L95,13.3c0-0.2-0.2-0.5-0.3-0.8l0.4,0c0.6,0,0.9-0.4,1-1.3c0-0.1,0.1-0.2,0.1-0.2l0.9-0.6
		c0.2-0.2,0.1-0.4,0.1-0.4l-0.3-0.5c-0.2-0.2-0.4-0.2-0.8-0.1c-0.4,0.1-0.6,0.2-0.7,0.1l0.1-0.2l-0.8,0.3l0.3,0.4
		c0,0.2,0.1,0.5,0.1,0.5c0.1,0.1,0.2,0.3,0.4,0.5c0.1,0.1,0.3,0.1,0.3,0.1c0,0.2-0.1,0.5-0.4,0.7c-0.3,0.2-0.6,0.2-1,0.1l-0.6-0.3
		l-0.9-0.4l-0.3-0.1c-0.1,0-0.1,0.1-0.1,0.1L92.8,11.8z M105.3,15.2c-0.7-0.1-1.5-0.2-2.2-0.4c-0.2,0-0.4-0.2-0.4-0.5
		c0-0.4,0.3-0.5,0.7-0.5c-0.2-0.1-0.4-0.2-0.7-0.4c-0.2-0.1-0.2-0.5-0.1-0.6c0.1-0.1,0.2-0.1,0.6-0.1c-0.1-0.2-0.6-0.3-0.6-0.3
		c-0.3-0.1-0.5-0.2-0.6-0.4c-0.1-0.3,0-0.5,0.3-0.8c0.4-0.4,0.9-0.6,0.9-0.6c1-0.7,1.6-1.3,2-1.7L104.8,9l-2.8,2.1
		c-1.4,0.1-2.4-0.5-2.6-1.1c-0.2-0.5,0-0.9,0.6-1.1l-0.1,0c-0.6,0.2-0.9,0.5-1,0.9c-0.1,0.7,0.4,1.1,1.5,1.5c0.6,0.2,1,0.2,1.5,0
		c-0.2,0.2-0.3,0.4-0.3,0.7c0,0.3,0.4,0.5,0.9,0.5c-0.2,0.1-0.3,0.2-0.3,0.3c-0.1,0.3,0.1,0.6,0.6,0.7c0.1,0,0.1,0.1,0.1,0.1
		c-0.4,0-0.6,0.2-0.6,0.7c0.1,0.2,0.3,0.5,0.8,0.6c0.3,0.2,1.2,0.3,2.5,0.5c0.2,0,0,0.2,0,0.2l-0.3,0l0,0l1.5-0.1l-0.4-0.4
		L105.3,15.2z M96.7,11.8l-0.1-0.1c0-0.1,0-0.1,0.1-0.1c0,0,0.1-0.1,0-0.2c0,0-0.2-0.1-0.3,0.1c0,0,0,0.1,0.1,0.2l0.4,0.5
		c-0.3-0.1-0.5-0.1-0.6,0c0,0-0.2,0-0.2,0.1c0,0,0,0.1,0.2,0.1c0,0,0.2,0,0.2-0.2c0.2,0,0.4,0,0.5,0.1L96.7,11.8z M105.9,17.2
		l-0.1,0l-0.1-0.1l-1.1-0.6l-1.4-0.7c-0.4-0.2-0.7-0.4-0.9-0.6l-0.1-0.1c-0.1-0.1-0.1,0-0.1,0l0.4,0.6c0.4,0.4,1.4,0.9,2.5,1.5
		c0.2,0.2,0,0.2,0,0.2l-0.3,0c0.4,0.2,1.1,0.3,1.4,0.5h0.1L105.9,17.2L105.9,17.2z M103.3,19.7c-0.1,0-0.2,0-0.3-0.1
		c0,0,0.1-0.2,0.3-0.1c0,0,0.2,0,0.3,0.1C103.6,19.6,103.5,19.7,103.3,19.7z M99.1,19.7c-0.8,0.2-1.4,0.3-1.5,0.1
		c0.1-0.4,0.1-0.6,0.1-0.8l0-0.2c0.1-0.3,0.5-0.5,1-0.3c0.2,0.1,0.5,0.3,1,0.6l0.3,0.2L99.1,19.7z M102.2,17.4l-0.1,0l-0.1,0l0,0
		l0-0.1l0-0.1l0.1,0h0.1l0.1,0l0,0.1L102.2,17.4l0.1,0L102.2,17.4z M103.2,19c0,0-0.4,0.1-0.6,0.4c0,0-0.3-0.4-0.6-0.8
		c0.2-0.3,0.2-0.7,0.3-0.9l0.1,0l0.1,0l0,0l0,0v-0.1l0-0.1l-0.1-0.1l-0.1,0c0-0.3-0.1-0.4-0.1-0.4c-0.1-0.1-0.2,0-0.2,0l-0.1,0.1
		l-0.1,0.2c-0.1,0.3,0.3,0.3,0.3,0.3c0.2,0,0.1,0.2,0.1,0.2c0,0.2-0.1,0.4-0.2,0.7c-0.3-0.4-0.6-0.8-0.7-1.1l-0.1-0.2l0-0.1v0h0.1
		l0.1,0.1l0.1,0l0.1,0l-0.4-0.3l-0.1-0.1l-0.3-0.2l-0.2-0.1l0,0.5l0.1,0.1l0.1,0.1l0.2,0.2l0.4,0.6l0.3,0.5l0.3,0.4l0,0
		c-0.1,0.1-0.1,0.3-0.2,0.4c0.1-0.1,0.2-0.3,0.2-0.4l0.5,0.7c0,0-0.2,0.3-0.3,0.4c0,0-0.4,0.5-0.8,0.1l-0.1-0.1
		c-0.1-0.1,0-0.3,0-0.3c0-0.1,0-0.1,0-0.1c-0.1-0.1-0.4,0.3-0.4,0.3l-0.1,0.1c-0.2,0.3-0.4,0.6-0.6,0.6c-0.5,0-0.7-0.2-0.7-0.8l0,0
		c0.1,0,0.2-0.1,0.4-0.2c0.3-0.2,0.7-0.2,1.2-0.2c0.3-0.4,0.3-0.5,0.3-0.5c-0.6,0-1.5-0.5-1.5-0.5l-0.3-0.2l-0.3-0.2
		c-0.4-0.3-0.8-0.1-0.8-0.1c-0.6,0.2-0.8,0.6-0.8,0.6c-0.1,0.2-0.2,0.5-0.3,0.9l0,0.2c-0.3,0-0.5-0.2-0.6-0.6c0,0,0,0,0,0l0.4-0.3
		c0.4-0.3,0.4-0.7,0.2-1.3c-0.2-0.3-0.3-0.7-0.3-1.1l0.3,0.2L97.1,16l0-0.1l0,0l-0.3,0.3v0.4c0,0.4,0.1,0.9,0.3,1.3
		c0.1,0.4,0.1,0.7,0.1,0.7c0,0.2-0.3,0.2-0.9,0.1c-1.1-0.2-1.9-0.5-2.1-0.6c-0.5-0.3-0.2-1,0.9-1.3l0-0.1c-0.8,0.2-1.3,0.4-1.5,0.8
		c-0.2,0.4-0.2,0.8,0.3,0.9c0.1,0.1,0.6,0.2,1.5,0.4c0.7,0.2,1.1,0.2,1.5,0.2l0,0c-0.4,0.8-0.1,1.3,1.4,1.2c0.4-0.1,0.9-0.2,1.3-0.4
		l0,0c-0.2,0.6-0.1,1,0.3,1.2c0.4,0.1,0.8,0,1.1-0.5l0.3-0.4c0,0,0.1-0.2,0.2,0c0.1,0.4,0.3,0.6,0.8,0.5c0.2-0.1,0.3-0.2,0.4-0.5
		l0.3-0.4c0.2,0.3,0.5,0.4,0.7,0.3c0,0,0.3,0,0.3-0.6l-0.1-0.5C103.7,19.3,103.6,18.9,103.2,19z M105.3,16.4c0,0.1,0.1,0.2,0.4,0.3
		l0-0.1c0,0-0.4-0.2-0.1-0.2c0,0,0.1,0,0.3,0l0.6,0.2c-0.3-0.2-0.6-0.3-0.8-0.4C105.6,16.3,105.3,16.2,105.3,16.4z M102,13.3
		l-0.5-0.1l-0.1,0.5l0.5,0.1L102,13.3z M97.3,20.7L97.3,20.7l-0.2,0.2l1.6-0.1c0.1-0.1,0.1-0.2,0.1-0.2l-0.4,0L97.3,20.7z
		 M94.2,15.9c0,0,0.3-0.1,0-0.4c0,0-0.6-0.5-0.7-0.4l0,0.1c0,0,0.3,0.4,0,0.4c0,0-0.2,0-0.4-0.1c-0.6-0.5-1-0.8-1.1-1
		c0,0-0.1,0-0.1,0.1l0.2,0.2c0.2,0.2,0.7,0.7,1.4,1.1C93.4,15.8,93.7,16,94.2,15.9z M93.5,16.9c0,0.1,0.2,0.1,0.2,0.1
		c0.3-0.1,0.1-0.4,0.1-0.4c-0.1-0.1-0.5-0.1-0.5-0.1l-0.3,0c0.2-0.1,0.3-0.2,0.5-0.4c0.1-0.1-0.1-0.1-0.1-0.1h-0.2
		c-0.2,0-0.1,0.1-0.1,0.1c0,0.1-0.1,0.2-0.1,0.2l-0.3,0.2c-0.2,0.1,0.1,0.1,0.1,0.1l0.7,0C93.7,16.6,93.5,16.9,93.5,16.9z M104.3,18
		l-1.7-1.4c0,0-0.2-0.1-0.1-0.2l0.3,0l0-0.1l-0.4-0.2l-0.9-0.3l0.1,0.5l0,0l0.1,0l0.1,0.1l0.2,0.2l0.8,0.7l0.6,0.5l0.6,0.5
		c0,0,0.8,0.6,0.8,0.9C105,18.8,104.7,18.4,104.3,18z M95.8,19.6l0.2-0.1c0.1-0.1,0-0.2,0-0.2c-0.1-0.1-0.4-0.1-0.4-0.1
		c-0.1,0-0.2,0.1-0.2,0.1c0.2,0,0.3,0,0.4,0.1L95.8,19.6c-0.2-0.1-0.4,0-0.4,0c-0.2,0.1-0.2,0.4-0.1,0.4c0.3,0.2,0.6,0.2,1,0.1
		c-0.4-0.1-0.7-0.2-0.8-0.3C95.3,19.6,95.8,19.6,95.8,19.6z M92.3,14c0.2,0,0.2-0.1,0.2-0.1l-0.1,0c-0.1-0.1,0.1-0.1,0.1-0.1
		c0.1,0,0.2,0,0.4,0l0-0.1l0,0.1l0,0.1L93,14l0.1,0.1l0.1,0l0.1,0l0-0.1l-0.1-0.1c0-0.2,0.2-0.2,0.2-0.2c0,0.1,0,0.4,0,0.4
		c0.1,0.3,0.2,0.3,0.8,0.3c0.5,0,0.8,0.1,1,0.2l0,0c-0.3-0.3-1.2-0.3-1.2-0.3c-0.6,0-0.4-0.5-0.4-0.5c0.1-0.4-0.1-0.4-0.1-0.4
		l-0.1,0l-0.1,0l-0.1,0l-0.1,0.1c-0.1-0.2-0.5-0.3-0.5-0.3c-0.3-0.1-0.3-0.3-0.2-0.4l0.1,0c0-0.2-0.2-0.2-0.2-0.2
		c-0.3,0.2,0,0.5,0,0.5l0.2,0.1l0.3,0.2h-0.3c-0.3,0-0.3,0.2-0.3,0.2C92,14,92.3,14,92.3,14z M105.1,10.4L105.1,10.4
		c0.3,0.4,0.6,0.7,1,0.7c0.1,0,0.2,0,0.3,0c0,0,0-0.4-0.3-0.9c0,0-0.1-0.1-0.4-0.1c0.2,0.3,0.3,0.6,0.3,0.8L105.1,10.4z M103.8,8.7
		c0-0.1,0.3-0.2,0.7-0.3c-0.5,0-0.8,0.1-0.9,0.3C103.5,9,103.6,9,103.9,9l0.1-0.1h-0.2C103.7,8.8,103.8,8.7,103.8,8.7z M103.4,7.6
		L103.4,7.6c0.3,0.1,0.1,0.3,0.1,0.3l-0.2,0l-0.1-0.2C103.3,7.7,103.3,7.6,103.4,7.6z M100.7,9.7l0.6-1.4c0.4,0.1,1,0.1,1.9-0.1
		l0.1,0.2l0.1,0L103.4,8c0.3,0,0.4-0.1,0.4-0.3c-0.1-0.1-0.2-0.2-0.4-0.1c0,0-0.2,0.1-0.2,0.2l0.1,0.2c-0.5,0.1-1,0.2-1.9,0.2
		l0.1-0.3c0,0,0-0.2,0.2-0.1l0.1,0.2l0.1-1.3c0,0-0.3,0.1-0.4,0.4c-0.1,0.2-0.2,0.5-0.4,0.9c-0.5,1.4-0.8,2.2-1,2.4
		C100.4,10.2,100.6,10,100.7,9.7z M105,13.8c-0.1-0.1-0.3-0.1-0.7-0.1l0.4-0.2c0.2-0.2,0.3-0.3,0.3-0.3c-0.3-0.1-0.3,0-0.3,0
		c-0.1,0,0,0.2,0,0.2l-0.4,0.3l-0.1,0.1v0l0.8,0.1c0.2,0,0.2,0.2,0,0.3C105.2,14.3,105.2,13.9,105,13.8z M97.8,17.2l0.4-0.4l0.1-0.1
		l0.1,0l0.1,0l0,0.1l0,0.1l0,0l0,0l0-0.1l0-0.1l0-0.1c-0.2-0.2-0.3,0.1-0.3,0.1L97.8,17c0-0.3,0-0.5,0-0.6c-0.1-0.2-0.2,0-0.2,0
		c-0.1,0.1,0,0.2,0,0.2l0,0l0.1,0l0,0l0,0.1V17.2L97.8,17.2z M103.4,11.4l0,0.5l0.5,0.1l0.1-0.6L103.4,11.4z M106.1,14.8
		c-0.5-1.7-0.9-3-1.2-3.7c-0.2-0.5-0.4-0.6-0.7-0.3c0,0,0.1,0.1,0.2,0c0,0,0.1-0.2,0.2,0c0.4,0.8,1,2.5,1.4,3.9L106.1,14.8z
		 M102.5,9l0.2,0c0,0,0.4-0.2,0.5-0.2c0,0-0.3-0.1-0.7,0c0,0-0.5,0.1-0.6,0.4c0,0,0,0.2,0.1,0.2l0.3,0.2c0,0,0.1,0.1,0,0.2
		c-0.2,0.1-0.5,0-1.1-0.2l0,0c0.4,0.3,0.7,0.4,1,0.3l0.8-0.4l-0.4-0.3C102.5,9.2,102.3,9,102.5,9z M106.3,12.2l-0.4,0.3l-0.1,0v0
		l0.8,0.1c0.2,0,0.2,0.2,0,0.3c0.3,0.1,0.3-0.3,0.1-0.4c-0.1-0.1-0.3-0.1-0.7-0.1L106.3,12.2c0.3-0.1,0.4-0.2,0.4-0.2
		c-0.3-0.1-0.3,0-0.3,0C106.3,12,106.3,12.2,106.3,12.2z M98.4,10.1l0.1,0.1c0,0,0.2,0.2,0.1,0.3c0,0-0.2,0.2-0.5,0.4
		c0,0-0.3,0.1-0.4-0.1c0-0.2,0.1-0.5,0.4-0.9L98.4,10.1z M95.4,8.3C95.4,8.3,95.4,8.3,95.4,8.3c0.8,0.8,2.1,1.3,2.1,1.3l0.6,0.3
		c-0.3,0.3-0.3,0.6-0.3,0.6c-0.1,0.3-0.1,0.6,0,0.8c0.1,0.4,0.5,0.2,0.5,0.2c0.4-0.2,0.6-0.6,0.6-0.6c0-0.2,0-0.4,0-0.7
		c0-0.4-0.3-0.6-0.3-0.6c0.7-0.8,1.4-1.7,2-2.6l0.1-0.6c-0.3,0.4-0.8,1.1-1.5,2l-0.9,1.1c-0.2-0.2-1-0.4-1-0.4
		c-0.6-0.2-1.1-0.6-1.1-0.6l-0.1-0.1l0.4,0c0,0-0.4-0.3-0.8-0.4c-0.4-0.1-0.5-0.2-0.5-0.1C95.2,7.9,95.3,8.2,95.4,8.3
		C95.3,8.2,95.3,8.3,95.4,8.3z M99,16.8l0,0.3c0,0-0.1,0.1-0.2,0l0-0.1l0-0.3h-0.1l0,0.1v0.1l0,0.1l0,0.1c0,0.1,0.1,0.2,0.2,0.1
		l0-0.1l0.1,0l0.1,0.1l0.1,0l0,0l0-0.1l0-0.5l-0.1,0.1l0,0.3c0,0,0,0.1-0.1,0L99,16.8L99,16.8z M99.8,16.8l0.2,0l0.1,0l0.1,0
		l0.1-0.1v0l-0.1,0l-0.2,0L99.8,16.8l-0.1,0h-0.1l0,0.1l0.2,0L99.8,16.8z M106.6,14.8c-0.2,0-0.2-0.3-0.2-0.3c0.1,0,0.2,0,0.4,0.1
		L106.6,14.8z M106.8,14.4l-0.2-0.1c-0.2-0.1-0.3,0-0.3,0c-0.1,0.2,0,0.3,0.2,0.4c0.2,0.1,0.3,0,0.3,0l0.2-0.2l0,0l0.1,0L106.8,14.4
		z M96.8,8l0-0.2c-0.2-0.2,0.1-0.3,0.1-0.3c0.8-0.5,2.3-1,2.3-1l0.1-0.1c-0.5,0.2-1.6,0.6-2.4,1C96.5,7.6,96.5,7.8,96.8,8z
		 M98.3,8.2l0.1-0.2l-0.3,0.2c0,0-0.3,0.2-0.4-0.1c0,0,0-0.2,0.2-0.2c0,0,0.1,0,0.2,0.1c0,0,0.1-0.1,0-0.3c0,0-0.1-0.1-0.3,0.1
		l-0.2,0.3c0,0-0.1,0.2,0.1,0.2l0.1,0l-0.1,0.2L98.3,8.2z M99.7,18l0.3-0.3l0.4,0.4l0.4-0.4l-0.5-0.4l-0.2,0.3l-0.5-0.4l-0.3,0.4
		L99.7,18z M99.5,7.4c0,0,0.1,0,0.2-0.2c0,0,0.1-0.2,0-0.3l-0.1-0.1L99.4,7L99.5,7c0,0,0.2,0.2,0,0.2c0,0-0.2,0.1-0.2-0.1
		c0-0.2,0.1-0.4,0.2-0.5c0,0-0.4,0.2-0.3,0.7C99.1,7.3,99.1,7.6,99.5,7.4z"/>
</g>
</svg>
