<svg width="128" height="48" viewBox="0 0 128 48" fill="none" xmlns="http://www.w3.org/2000/svg">
<g clip-path="url(#clip0_4361_26303)">
<path d="M99.0586 15.1055C99.0586 15.1055 101.063 17.4464 101.422 17.8803C100.988 18.7482 98.4306 23.1161 100.48 28.0149C101.685 31.3665 103.86 33.4219 105.836 35.6144C104.968 36.5051 103.615 37.8812 103.472 38.0011C99.778 34.8665 96.1125 29.2653 96.2324 23.767C96.3351 19.1079 98.3335 16.333 99.0586 15.1055Z" fill="#EC6437"/>
<path d="M108.068 32.8956C108.068 32.8956 106.064 30.5546 105.705 30.1207C106.138 29.2529 108.696 24.885 106.647 19.9861C105.442 16.6346 103.267 14.5791 101.291 12.3866C102.159 11.4959 103.512 10.1199 103.655 10C107.349 13.1346 111.015 18.7357 110.895 24.2341C110.786 28.8931 108.793 31.668 108.068 32.8956Z" fill="#EC6437"/>
<path d="M20.2374 28.4067L19.2896 31.33H21.208L20.2374 28.4067ZM22.0987 34.0421L21.5734 32.4434H18.9299L18.416 34.0421H17L19.5465 26.8594H20.9796L23.5546 34.0421H22.0987Z" fill="#0B1730"/>
<path d="M34.1748 30.4072C34.4431 30.5899 34.6487 30.8068 34.7971 31.0638C34.9399 31.3207 35.0141 31.6404 35.0141 32.0116C35.0141 32.4969 34.8942 32.9023 34.6544 33.2277C34.4146 33.5532 34.1005 33.7987 33.7066 33.9528C33.3126 34.1127 32.8787 34.1926 32.4105 34.1926C31.9423 34.1926 31.4684 34.107 31.0231 33.93C30.572 33.753 30.178 33.5018 29.8354 33.1649L30.572 32.2457C30.8632 32.5254 31.1658 32.7367 31.4798 32.8851C31.7939 33.0336 32.0965 33.1078 32.3877 33.1078C32.7245 33.1078 32.9872 33.0507 33.2155 32.8966C33.4439 32.7424 33.5581 32.514 33.5581 32.2114C33.5581 32.0344 33.5182 31.8917 33.4325 31.7661C33.3469 31.6462 33.227 31.5377 33.0671 31.4406C32.9072 31.3493 32.7131 31.2236 32.4333 31.1037L31.7368 30.824C31.3599 30.6755 31.0516 30.5156 30.8061 30.3387C30.5606 30.1617 30.3722 29.9504 30.2408 29.6992C30.1095 29.448 30.041 29.1453 30.041 28.7971C30.041 28.3574 30.1495 27.9806 30.3664 27.6665C30.5834 27.3525 30.8803 27.1184 31.2571 26.9586C31.634 26.7987 32.0622 26.7188 32.5418 26.7188C33.0214 26.7188 33.4325 26.7987 33.8322 26.9586C34.2376 27.1184 34.5916 27.3582 34.8999 27.6665L34.1862 28.5858C33.9521 28.346 33.6894 28.1576 33.3925 28.0148C33.0956 27.8721 32.8102 27.8036 32.5418 27.8036C32.2107 27.8036 32.0222 27.8778 31.8224 28.0205C31.6169 28.1633 31.5198 28.3802 31.5198 28.6657C31.5198 28.8656 31.5997 29.0311 31.7596 29.1568C31.9195 29.2824 32.085 29.4137 32.4162 29.5507L33.1128 29.8419C33.5467 30.036 33.9064 30.2245 34.1748 30.4072Z" fill="#0B1730"/>
<path d="M55.7798 34.0437V30.6465C55.7798 30.2982 55.7341 30.047 55.6484 29.8871C55.5628 29.7273 55.46 29.6473 55.2202 29.6473C55.0375 29.6473 54.8434 29.6987 54.6321 29.8015C54.4209 29.9043 54.2267 30.0413 54.044 30.2069V34.0437H52.5767V28.6025H53.9755V29.2248C54.2267 29.0136 54.5008 28.8366 54.8034 28.6995C55.106 28.5625 55.3972 28.494 55.677 28.494C56.0196 28.494 56.2993 28.5625 56.522 28.7052C56.739 28.848 56.9103 29.0421 57.0245 29.2933C57.2871 29.0592 57.5726 28.8708 57.8752 28.7167C58.1778 28.5625 58.4861 28.4883 58.8059 28.4883C59.2912 28.4883 59.7822 28.6367 60.0391 28.9279C60.2961 29.2248 60.4274 29.6245 60.4274 30.1327V34.038H58.96V30.4638C58.96 30.1555 58.9086 29.9385 58.8059 29.8186C58.7031 29.6987 58.5489 29.6416 58.3491 29.6416C58.1493 29.6416 57.9951 29.6987 57.7781 29.8186C57.5669 29.9328 57.3842 30.0698 57.2357 30.2183V34.0437H55.7798Z" fill="#0B1730"/>
<path d="M67.7701 32.6546C67.9528 32.4719 68.0441 32.2093 68.0441 31.8667C68.0441 31.5527 67.9471 31.3072 67.7587 31.1302C67.5702 30.9532 67.2619 30.8675 66.8337 30.8675H65.5776V32.9287H66.8965C67.2962 32.9287 67.5874 32.8374 67.7701 32.6546ZM67.4047 29.6628C67.5588 29.5714 67.6787 29.4458 67.7529 29.2974C67.8329 29.1489 67.8671 28.9891 67.8671 28.8121C67.8671 28.538 67.7758 28.3267 67.5931 28.1612C67.4104 28.0013 67.1192 27.9214 66.7195 27.9214H65.5776V29.7998H66.828C67.0564 29.7998 67.2505 29.7542 67.4047 29.6628ZM64.1045 26.8594H66.8565C67.6844 26.8594 68.2896 27.0135 68.6779 27.3161C69.0662 27.6188 69.2603 28.0698 69.2603 28.6636C69.2603 29.0176 69.1803 29.3374 69.0148 29.6171C68.8492 29.8969 68.5923 30.1196 68.2326 30.2794C68.6208 30.3879 68.9234 30.5935 69.1461 30.8961C69.3688 31.1987 69.483 31.547 69.483 31.9581C69.483 32.6375 69.2774 33.1514 68.8663 33.5111C68.4552 33.8708 67.8272 34.0478 66.9821 34.0478H64.1045V26.8594Z" fill="#0B1730"/>
<path d="M80.9023 34.0422V30.6621C80.9023 30.3253 80.8452 30.0741 80.7368 29.9028C80.6283 29.7315 80.4342 29.6458 80.1658 29.6458C79.9717 29.6458 79.7547 29.7029 79.5206 29.8114C79.2865 29.9199 79.0696 30.0512 78.8697 30.2111V34.048H77.4023V28.6067H78.8012V29.229C79.0981 29.0006 79.395 28.8236 79.6919 28.698C79.9888 28.5667 80.2971 28.5039 80.6226 28.5039C81.1536 28.5039 81.6731 28.6524 81.9529 28.9435C82.2327 29.2404 82.3697 29.6401 82.3697 30.1483V34.0537H80.9023V34.0422Z" fill="#0B1730"/>
<path d="M87.5994 34.0424L86.0406 31.6444L85.6695 32.0269V34.0424H84.2021V26.7227H85.6695V30.3711L87.3196 28.6011H88.8955L86.9485 30.6908L89.1467 34.0424H87.5994Z" fill="#0B1730"/>
<path d="M74.0905 32.7537V31.606H73.1199C72.5832 31.606 72.1493 31.8972 72.1493 32.4282C72.1493 32.9307 72.5889 33.2276 73.1199 33.2276C73.5595 33.2219 73.8679 33.0677 74.0905 32.7537ZM74.0905 30.5726C74.0905 30.0245 73.7594 29.6648 73.0799 29.6648C72.5261 29.6648 72.0122 29.876 71.5726 30.3042L71.0587 29.3507C71.6868 28.7684 72.5033 28.5 73.314 28.5C74.4902 28.5 75.5693 28.9967 75.5693 30.5555V34.0498H74.0905V33.4959C73.7365 33.9356 73.2512 34.1925 72.5775 34.1925C71.7553 34.1925 70.7847 33.6101 70.7847 32.394C70.7847 31.1778 71.7553 30.6411 72.5775 30.6411H74.0905V30.5726Z" fill="#0B1730"/>
<path d="M49.2707 32.7537V31.606H48.3001C47.7634 31.606 47.3294 31.8972 47.3294 32.4282C47.3294 32.9307 47.7691 33.2276 48.3001 33.2276C48.7397 33.2219 49.048 33.0677 49.2707 32.7537ZM49.2707 30.5726C49.2707 30.0245 48.9396 29.6648 48.2601 29.6648C47.7063 29.6648 47.1924 29.876 46.7528 30.3042L46.2389 29.3507C46.867 28.7684 47.6834 28.5 48.4942 28.5C49.6704 28.5 50.7495 28.9967 50.7495 30.5555V34.0498H49.2707V33.4959C48.9167 33.9356 48.4314 34.1925 47.7577 34.1925C46.9355 34.1925 45.9648 33.6101 45.9648 32.394C45.9648 31.1778 46.9355 30.6411 47.7577 30.6411H49.2707V30.5726Z" fill="#0B1730"/>
<path d="M39.6213 32.7537V31.606H38.6507C38.114 31.606 37.68 31.8972 37.68 32.4282C37.68 32.9307 38.1197 33.2276 38.6507 33.2276C39.0846 33.2219 39.3929 33.0677 39.6213 32.7537ZM39.6213 30.5726C39.6213 30.0245 39.2901 29.6648 38.6107 29.6648C38.0569 29.6648 37.543 29.876 37.1034 30.3042L36.5895 29.3507C37.2176 28.7684 38.034 28.5 38.8448 28.5C40.021 28.5 41.1001 28.9967 41.1001 30.5555V34.0498H39.6213V33.4959C39.2673 33.9356 38.782 34.1925 38.1083 34.1925C37.2861 34.1925 36.3154 33.6101 36.3154 32.394C36.3154 31.1778 37.2861 30.6411 38.1083 30.6411H39.6213V30.5726Z" fill="#0B1730"/>
<path d="M42.9272 26.8997L44.3946 26.7227V34.0424H42.9272V26.8997Z" fill="#0B1730"/>
<path d="M24.6968 26.8997L26.1642 26.7227V34.0424H24.6968V26.8997Z" fill="#0B1730"/>
<path d="M32.5357 19.7589H39.5985C39.7755 19.7589 39.9183 19.7075 40.0211 19.5933C40.1238 19.4791 40.1752 19.2964 40.1752 19.0395V16.6015H41.6312V19.0909C41.6312 19.3478 41.7111 19.5305 41.8653 19.6447C42.0194 19.7589 42.225 19.8103 42.4819 19.8103C42.7388 19.8103 42.9215 19.7589 43.0472 19.6447C43.1728 19.5305 43.2299 19.3478 43.2299 19.0909V16.6015H44.6858V19.0909C44.6858 19.3478 44.7658 19.5305 44.9199 19.6447C45.0741 19.7589 45.2796 19.8103 45.5366 19.8103C45.7935 19.8103 45.9762 19.7589 46.1018 19.6447C46.2274 19.5305 46.2845 19.3478 46.2845 19.0909V16.6015H47.7405V19.0395C47.7405 19.2964 47.7919 19.4791 47.8946 19.5933C47.9974 19.7075 48.1401 19.7589 48.3171 19.7589H55.6883L55.6997 14.0664H57.1556V21.2263H48.5855C48.4941 21.2263 48.3914 21.2034 48.2886 21.1749C48.1858 21.1463 48.083 21.1007 47.9803 21.0493C47.8775 20.9979 47.7861 20.9237 47.7005 20.8437C47.6206 20.7638 47.5578 20.6667 47.5178 20.564H47.4778C47.3237 20.7981 47.1181 20.9751 46.8612 21.0892C46.6043 21.2034 46.2845 21.2548 45.9077 21.2548V21.232C45.5366 21.232 45.2282 21.1692 44.977 21.0493C44.7201 20.9237 44.5545 20.7638 44.486 20.5697H44.446C44.2919 20.8038 44.0863 20.9808 43.8294 21.095C43.5724 21.2091 43.2527 21.2605 42.8759 21.2605C42.499 21.2605 42.1964 21.1977 41.9452 21.0778C41.6883 20.9522 41.5227 20.7923 41.4542 20.5982H41.4142C41.4028 20.6382 41.3742 20.6896 41.3114 20.7638C41.2486 20.838 41.1801 20.9065 41.0888 20.9808C40.9974 21.055 40.8946 21.1121 40.769 21.1635C40.6434 21.2149 40.5235 21.2377 40.3922 21.2377H32.4101L31.9705 21.2149C31.8392 21.2091 31.7021 21.192 31.5708 21.1521C31.4395 21.1121 31.3139 21.0607 31.1997 20.9979C31.0855 20.9351 30.9827 20.8666 30.8799 20.7809C30.7772 20.701 30.6972 20.6039 30.623 20.5126C30.4974 20.6553 30.3661 20.7695 30.2119 20.8609C30.0578 20.9522 29.9036 21.0264 29.7494 21.0778C29.5953 21.1292 29.4525 21.1692 29.3098 21.192C29.2013 21.2091 29.0414 21.232 28.933 21.232H24.4224V19.7532H26.2552V15.5167H27.7111V19.7532H28.933C29.0072 19.7532 29.0757 19.7418 29.1614 19.7246C29.2413 19.7018 29.3269 19.6618 29.3954 19.599C29.4697 19.5362 29.5268 19.4563 29.5782 19.3535C29.6295 19.2507 29.6524 19.1194 29.6524 18.9653V14.0664H31.1083V18.7312C31.1083 18.9082 31.1369 19.0566 31.1883 19.1822C31.2397 19.3078 31.3139 19.4049 31.3938 19.4906C31.4737 19.5705 31.5708 19.6333 31.6736 19.6733C31.7764 19.7132 31.8791 19.7304 31.9819 19.7361L32.5357 19.7589Z" fill="#0B1730"/>
<path d="M68.5637 17.5722H67.5988C67.4503 17.5722 67.3418 17.538 67.279 17.4523C67.2162 17.3667 67.1819 17.2582 67.1819 17.1212C67.1819 16.9841 67.2162 16.8757 67.279 16.8014C67.3418 16.7272 67.4103 16.693 67.496 16.693C67.593 16.693 67.6787 16.7158 67.7415 16.7786C67.8043 16.8414 67.8386 16.927 67.85 17.0355H68.5066C68.4952 16.8757 68.4552 16.7443 68.3981 16.6359C68.3353 16.5274 68.2668 16.4417 68.164 16.3675C68.0669 16.2933 67.9585 16.2476 67.8328 16.2076C67.7129 16.1734 67.5873 16.1562 67.4674 16.1562C67.1648 16.1562 66.9079 16.2305 66.7138 16.3903C66.5196 16.5502 66.4226 16.7672 66.4226 17.047C66.4226 17.2297 66.4854 17.3895 66.5939 17.5209V17.5551L66.2627 17.5665V18.1261H68.5523V17.5722H68.5637Z" fill="#0B1730"/>
<path d="M87.4397 16.6015V19.7589H84.0254C84.0254 19.7589 83.9626 19.7475 83.9283 19.7475H83.4658C83.3631 19.7475 83.2603 19.7246 83.1575 19.6847C83.0547 19.6447 82.9634 19.5819 82.8834 19.502C82.8035 19.422 82.7293 19.3193 82.6779 19.1936C82.6265 19.068 82.598 18.9196 82.598 18.7426V16.5901H81.142V18.9481C81.142 19.1023 81.1192 19.2336 81.0678 19.3364C81.0164 19.4392 80.9536 19.5191 80.8851 19.5819C80.8109 19.6447 80.7309 19.6847 80.651 19.7075C80.5711 19.7304 80.4968 19.7361 80.4283 19.7361H79.0523C79.0009 19.7361 78.9495 19.7475 78.9095 19.7589H72.0466C71.921 19.7589 71.8011 19.7475 71.6697 19.7189C71.5384 19.6904 71.4242 19.639 71.3215 19.5648C71.2187 19.4905 71.1388 19.3992 71.0645 19.285C70.9903 19.1708 70.9618 19.0395 70.9618 18.8739V14.0664H69.4944V19.7703H66.4169C66.2228 19.7703 66.0572 19.7418 65.9259 19.679C65.7945 19.6162 65.6918 19.5362 65.6061 19.422C65.5262 19.3078 65.4748 19.1765 65.4405 19.0109C65.412 18.8454 65.3892 18.6627 65.3892 18.4571V17.9261H64.1045V18.6227C64.1045 19.0224 64.1559 19.6276 64.2587 19.9245C64.3614 20.2214 64.4927 20.4669 64.6697 20.661C64.8467 20.8551 65.058 20.9979 65.3035 21.0892C65.549 21.1806 65.8174 21.232 66.1143 21.232H70.6991C70.7733 21.1406 70.8247 21.0264 70.8647 20.8951C70.9047 20.7638 70.9389 20.661 70.9446 20.5868H70.9846C71.0246 20.6896 71.0874 20.7809 71.1673 20.8666C71.2472 20.9465 71.3443 21.0207 71.4414 21.0721C71.5441 21.1235 71.6469 21.1635 71.7497 21.1977C71.8525 21.2263 71.9552 21.2491 72.0466 21.2491H72.2635C72.3206 21.2491 72.3606 21.2434 72.3949 21.2263H80.4169C80.5311 21.2263 80.651 21.2149 80.7937 21.1977C80.9365 21.1749 81.0792 21.1349 81.2334 21.0835C81.3875 21.0321 81.5417 20.9579 81.6958 20.8666C81.85 20.7752 81.9813 20.661 82.1069 20.5183C82.1812 20.6096 82.2611 20.701 82.3639 20.7866C82.4666 20.8666 82.5694 20.9408 82.6836 21.0036C82.7978 21.0664 82.9177 21.1178 83.0547 21.1578C83.1861 21.1977 83.3231 21.2206 83.4544 21.2206H83.8141C83.8141 21.2206 83.8769 21.232 83.9169 21.232H88.89V16.6072H87.4397V16.6015Z" fill="#0B1730"/>
<path d="M22.093 19.5418C22.093 19.6103 22.0359 19.6731 21.9617 19.6731H20.2088C20.1403 19.6731 20.0775 19.616 20.0775 19.5418V18.28C20.0775 17.9145 20.1631 17.6462 20.3344 17.4749H20.3401C20.5 17.315 20.7455 17.2294 21.0881 17.218H21.1794C21.425 17.218 21.6476 17.315 21.8132 17.4749C21.8189 17.4806 21.8246 17.4806 21.8246 17.4863C21.9902 17.6519 22.093 17.8803 22.093 18.1315V19.5418ZM22.9608 16.4871C22.6126 16.1103 22.0701 15.9219 21.3336 15.9219H20.8254C20.0946 15.9219 19.5522 16.1103 19.2039 16.4871C18.8556 16.864 18.6786 17.4178 18.6786 18.1429V19.6731H18.5644C18.0106 19.6902 17.6052 20.0956 17.3654 20.3811C17.1256 20.6723 17 21.1119 17 21.7057V23.7441H18.3703V21.8827C18.3703 21.4374 18.6215 21.2204 19.1297 21.2204H21.3336C22.0644 21.2204 22.6069 21.032 22.9608 20.6552C23.3091 20.2783 23.4861 19.7245 23.4861 18.9994V18.1372C23.4861 17.4178 23.3034 16.8697 22.9551 16.4871" fill="#0B1730"/>
<path d="M58.9717 14.0715L60.4391 13.8945V21.2257H58.9717V14.0715Z" fill="#0B1730"/>
<path d="M82.581 14.0664H81.125V15.2654H82.581V14.0664Z" fill="#0B1730"/>
<path d="M88.8954 22.5508H87.4395V23.7498H88.8954V22.5508Z" fill="#0B1730"/>
</g>
<defs>
<clipPath id="clip0_4361_26303">
<rect width="93.9005" height="28" fill="white" transform="translate(17 10)"/>
</clipPath>
</defs>
</svg>
