<svg width="128" height="48" viewBox="0 0 128 48" fill="none" xmlns="http://www.w3.org/2000/svg">
<path d="M89.9333 9.47129C87.3993 12.0031 87.3993 16.1103 89.9333 18.6454C92.4608 21.175 96.5615 21.175 99.0998 18.6454C101.631 16.1157 101.631 12.0031 99.0998 9.47129C96.5626 6.94055 92.4608 6.94055 89.9333 9.47129ZM89.4013 8.94472C92.2233 6.11738 96.8001 6.11738 99.6264 8.94472C102.448 11.7678 102.448 16.3489 99.6264 19.1762C96.799 21.9982 92.2233 21.9982 89.4013 19.1698C86.5804 16.35 86.5804 11.7688 89.4013 8.9458" fill="#CEB872"/>
<path d="M90.9869 10.5368C89.0375 12.4841 89.0375 15.6424 90.9869 17.5917C92.9331 19.5433 96.0935 19.5433 98.0397 17.5971C99.9912 15.6424 99.9912 12.4841 98.0397 10.5379C96.0935 8.58532 92.9331 8.58424 90.9869 10.5368ZM89.9327 9.47618C92.4602 6.94544 96.561 6.94544 99.0971 9.47618C101.629 12.008 101.629 16.1206 99.0971 18.6502C96.561 21.1799 92.4602 21.1799 89.9327 18.6502C87.3987 16.1163 87.3987 12.008 89.9327 9.47618Z" fill="#BFA943"/>
<path d="M91.4044 10.9491C89.685 12.6599 89.685 15.4518 91.4044 17.1744C93.1184 18.8842 95.9049 18.8842 97.6232 17.1744C99.3426 15.4507 99.3426 12.6599 97.6232 10.9491C95.9049 9.22115 93.1195 9.22115 91.4044 10.9491ZM90.9874 10.5311C92.9336 8.57638 96.094 8.5796 98.0402 10.5322C99.9917 12.4773 99.9917 15.6367 98.0402 17.5914C96.094 19.5375 92.9336 19.5375 90.9874 17.586C89.038 15.6367 89.038 12.4783 90.9874 10.5311Z" fill="#DCCD98"/>
<path d="M95.5932 15.1414C93.0646 17.6711 88.9509 17.6711 86.4299 15.1414C83.8991 12.6096 83.8991 8.50457 86.4299 5.96846C88.9509 3.43557 93.0646 3.43557 95.5932 5.96846C98.1261 8.50457 98.1261 12.6096 95.5932 15.1414ZM96.1208 15.6691C98.9439 12.8504 98.9439 8.26815 96.1208 5.44834C93.2967 2.61241 88.7177 2.61241 85.8958 5.43974C83.0738 8.26815 83.0738 12.8418 85.8958 15.6691C88.7177 18.4921 93.2956 18.4921 96.1208 15.6691Z" fill="#809FC0"/>
<path d="M94.5384 14.0901C92.5944 16.0374 89.4339 16.0374 87.4846 14.0901C85.5363 12.1418 85.5363 8.98567 87.4846 7.03737C89.4339 5.08693 92.5944 5.08693 94.5384 7.03737C96.491 8.98567 96.491 12.1418 94.5384 14.0901ZM95.5926 15.1508C98.1255 12.619 98.1255 8.51391 95.5926 5.97779C93.0651 3.4449 88.9504 3.4449 86.4293 5.97779C83.8986 8.51391 83.8986 12.619 86.4293 15.1508C88.9504 17.6805 93.0651 17.6805 95.5926 15.1508Z" fill="#12759B"/>
<path d="M94.1202 13.6665C92.3997 15.3838 89.6122 15.3838 87.8992 13.6665C86.1798 11.9493 86.1798 9.15954 87.8992 7.43691C89.6122 5.72181 92.3997 5.72181 94.1202 7.43691C95.8417 9.15954 95.8417 11.9493 94.1202 13.6665ZM94.5382 14.0781C96.4908 12.1319 96.4908 8.97363 94.5382 7.02533C92.5942 5.07489 89.4338 5.07489 87.4855 7.02533C85.5361 8.97363 85.5361 12.1319 87.4855 14.0781C89.4338 16.0232 92.5942 16.0232 94.5382 14.0781Z" fill="#A5BBCD"/>
<mask id="mask0_4361_26290" style="mask-type:luminance" maskUnits="userSpaceOnUse" x="90" y="3" width="12" height="12">
<path d="M95.0962 3L90.2056 7.89169L96.6168 14.304L101.511 9.41443L95.0962 3Z" fill="white"/>
</mask>
<g mask="url(#mask0_4361_26290)">
<path d="M89.9323 9.46738C87.3983 11.9992 87.3983 16.1064 89.9323 18.6414C92.4598 21.1711 96.5606 21.1711 99.0988 18.6414C101.63 16.1118 101.63 11.9992 99.0988 9.46738C96.5616 6.93664 92.4598 6.93664 89.9323 9.46738ZM89.4003 8.94081C92.2223 6.11348 96.7991 6.11348 99.6254 8.94081C102.447 11.7639 102.447 16.345 99.6254 19.1723C96.7981 21.9943 92.2223 21.9943 89.4003 19.1659C86.5794 16.3461 86.5794 11.7649 89.4003 8.94189" fill="#CFBB72"/>
<path d="M90.9874 10.5212C89.038 12.4684 89.038 15.6267 90.9874 17.5761C92.9335 19.5276 96.094 19.5276 98.0402 17.5815C99.9917 15.6267 99.9917 12.4684 98.0402 10.5223C96.094 8.56969 92.9335 8.56862 90.9874 10.5212ZM89.9332 9.46055C92.4607 6.92981 96.5615 6.92981 99.0976 9.46055C101.629 11.9924 101.629 16.105 99.0976 18.6346C96.5615 21.1643 92.4607 21.1643 89.9332 18.6346C87.3992 16.1007 87.3992 11.9924 89.9332 9.46055Z" fill="#BFA943"/>
<path d="M91.4034 10.9452C89.684 12.656 89.684 15.4479 91.4034 17.1705C93.1174 18.8803 95.9039 18.8803 97.6222 17.1705C99.3416 15.4468 99.3416 12.656 97.6222 10.9452C95.9039 9.21725 93.1185 9.21725 91.4034 10.9452ZM90.9864 10.5272C92.9326 8.57247 96.0931 8.5757 98.0392 10.5283C99.9907 12.4734 99.9907 15.6328 98.0392 17.5875C96.0931 19.5336 92.9326 19.5336 90.9864 17.5821C89.0371 15.6328 89.0371 12.4744 90.9864 10.5272Z" fill="#DFD09B"/>
</g>
<path d="M53.3184 15.5753H54.1319L54.2426 15.8912C54.2426 15.8912 54.3135 15.8912 54.3135 19.3558C54.3049 19.963 54.1319 20.4799 53.7708 20.8829C53.4033 21.303 52.9036 21.5115 52.2921 21.5115H50.6479V20.5143H52.3061C52.6048 20.5143 52.8423 20.4036 53.0261 20.1768C53.2163 19.9469 53.3076 19.6685 53.3076 19.3397L53.3173 15.5742L53.3184 15.5753Z" fill="#B49D31"/>
<path d="M53.3184 15.5753H54.1319L54.2426 15.8912C54.2426 15.8912 54.3135 15.8912 54.3135 19.3558C54.3049 19.963 54.1319 20.4799 53.7708 20.8829C53.4033 21.303 52.9036 21.5115 52.2921 21.5115H50.6479V20.5143H52.3061C52.6048 20.5143 52.8423 20.4036 53.0261 20.1768C53.2163 19.9469 53.3076 19.6685 53.3076 19.3397L53.3173 15.5742L53.3184 15.5753Z" stroke="#B09C34" stroke-width="0.29" stroke-miterlimit="3.86"/>
<path d="M51.5587 17.2812H52.5645V19.6691C52.5645 20.0806 52.3679 20.3633 52.1777 20.5309C52.0906 20.6158 51.9993 20.6738 51.9284 20.7115C51.8531 20.7491 51.5651 20.8554 51.5651 20.8554L51.5576 17.2812H51.5587Z" fill="#B49D31"/>
<path d="M51.5587 17.2812H52.5645V19.6691C52.5645 20.0806 52.3679 20.3633 52.1777 20.5309C52.0906 20.6158 51.9993 20.6738 51.9284 20.7115C51.8531 20.7491 51.5651 20.8554 51.5651 20.8554L51.5576 17.2812H51.5587Z" stroke="#B09C34" stroke-width="0.29" stroke-miterlimit="3.86"/>
<path d="M56.2032 15.5703H55.2017V21.513H56.2032V15.5703Z" fill="#B49D31"/>
<path d="M56.2032 15.5703H55.2017V21.513H56.2032V15.5703Z" stroke="#B09C34" stroke-width="0.29" stroke-miterlimit="3.86"/>
<path d="M51.6607 15.7805C51.7768 15.6441 51.9358 15.5742 52.1185 15.5742H52.7719V15.9439H52.1185C52.0519 15.9439 51.996 15.9729 51.9401 16.0417C51.8971 16.1115 51.8681 16.19 51.8681 16.2641C51.8681 16.3576 51.8971 16.4307 51.9401 16.4973C51.9885 16.5607 52.0487 16.5822 52.1271 16.5822L52.9062 16.5908V16.9497H51.5898L51.5371 16.9465C51.4232 16.9347 51.3469 16.8681 51.2997 16.8154C51.2792 16.7885 51.262 16.7617 51.2459 16.7434L51.1836 16.5833H51.549L51.5178 16.4769C51.5006 16.4103 51.4952 16.3447 51.4952 16.2663C51.4952 16.0857 51.5511 15.9245 51.6618 15.7838" fill="#B49D31"/>
<path d="M51.6607 15.7805C51.7768 15.6441 51.9358 15.5742 52.1185 15.5742H52.7719V15.9439H52.1185C52.0519 15.9439 51.996 15.9729 51.9401 16.0417C51.8971 16.1115 51.8681 16.19 51.8681 16.2641C51.8681 16.3576 51.8971 16.4307 51.9401 16.4973C51.9885 16.5607 52.0487 16.5822 52.1271 16.5822L52.9062 16.5908V16.9497H51.5898L51.5371 16.9465C51.4232 16.9347 51.3469 16.8681 51.2997 16.8154C51.2792 16.7885 51.262 16.7617 51.2459 16.7434L51.1836 16.5833H51.549L51.5178 16.4769C51.5006 16.4103 51.4952 16.3447 51.4952 16.2663C51.4952 16.0857 51.5511 15.9245 51.6618 15.7838L51.6607 15.7805Z" stroke="#B09C34" stroke-width="0.29" stroke-miterlimit="3.86"/>
<path d="M73.0805 19.4989C73.0805 20.0974 72.8752 20.6025 72.4454 20.9732C72.0585 21.3236 71.5696 21.4955 71.0011 21.5138H69.819C69.4128 21.5138 69.1345 21.3236 68.9636 21.1398C68.8809 21.042 68.8175 20.9528 68.7831 20.8841C68.739 20.8088 68.6348 20.5155 68.6348 20.5155H70.9259C71.2526 20.5122 71.5255 20.4209 71.7565 20.2328C71.9736 20.0544 72.0865 19.8105 72.0865 19.5053V18.1094H73.0826V19.4989H73.0805Z" fill="#B49D31"/>
<path d="M73.0805 19.4989C73.0805 20.0974 72.8752 20.6025 72.4454 20.9732C72.0585 21.3236 71.5696 21.4955 71.0011 21.5138H69.819C69.4128 21.5138 69.1345 21.3236 68.9636 21.1398C68.8809 21.042 68.8175 20.9528 68.7831 20.8841C68.739 20.8088 68.6348 20.5155 68.6348 20.5155H70.9259C71.2526 20.5122 71.5255 20.4209 71.7565 20.2328C71.9736 20.0544 72.0865 19.8105 72.0865 19.5053V18.1094H73.0826V19.4989H73.0805Z" stroke="#B09C34" stroke-width="0.29" stroke-miterlimit="3.86"/>
<path d="M72.3427 22.6446C72.3427 23.0024 72.0536 23.3012 71.6861 23.3012C71.3186 23.3012 71.0273 23.0014 71.0273 22.6446C71.0273 22.2878 71.3164 21.9805 71.6861 21.9805C72.0558 21.9805 72.3427 22.2803 72.3427 22.6446Z" fill="#B49D31"/>
<path d="M72.3427 22.6446C72.3427 23.0024 72.0536 23.3012 71.6861 23.3012C71.3186 23.3012 71.0273 23.0014 71.0273 22.6446C71.0273 22.2878 71.3164 21.9805 71.6861 21.9805C72.0558 21.9805 72.3427 22.2803 72.3427 22.6446Z" stroke="#B09C34" stroke-width="0.29" stroke-miterlimit="3.86"/>
<path d="M65.2611 21.0032C64.9022 21.3482 64.4401 21.5137 63.8974 21.5137H59.5806C58.9885 21.5137 58.4985 21.2966 58.1288 20.8571C57.772 20.4261 57.6001 19.9114 57.6001 19.3182C57.6001 18.725 57.772 18.1952 58.1299 17.7783C58.5028 17.3581 59.0057 17.1496 59.6161 17.1496H60.7767V18.1436H59.6043C59.2959 18.1436 59.0627 18.2608 58.8778 18.4886C58.6876 18.7186 58.5909 18.9958 58.5909 19.3171C58.5909 19.6384 58.6876 19.8953 58.8853 20.1586C59.0756 20.4036 59.3109 20.5143 59.5796 20.5143H63.9071C64.2123 20.5143 64.4433 20.4036 64.6271 20.1768C64.8226 19.9469 64.9161 19.6685 64.9161 19.3397V15.5742H65.7415L65.8425 15.8902C65.8425 15.8902 65.9155 15.8902 65.9155 19.3547C65.9155 19.7943 65.8167 20.1811 65.6383 20.5132H67.3244C67.6468 20.51 67.9229 20.4176 68.1518 20.2306C68.3678 20.0522 68.4796 19.8082 68.4796 19.503V18.1071H69.4768V19.4966C69.4768 20.0952 69.2748 20.5949 68.8503 20.9656C68.4527 21.3213 67.967 21.4933 67.3985 21.5115H66.2186C65.7146 21.5115 65.4126 21.2332 65.2622 21.0011" fill="#B49D31"/>
<path d="M65.2611 21.0032C64.9022 21.3482 64.4401 21.5137 63.8974 21.5137H59.5806C58.9885 21.5137 58.4985 21.2966 58.1288 20.8571C57.772 20.4261 57.6001 19.9114 57.6001 19.3182C57.6001 18.725 57.772 18.1952 58.1299 17.7783C58.5028 17.3581 59.0057 17.1496 59.6161 17.1496H60.7767V18.1436H59.6043C59.2959 18.1436 59.0627 18.2608 58.8778 18.4886C58.6876 18.7186 58.5909 18.9958 58.5909 19.3171C58.5909 19.6384 58.6876 19.8953 58.8853 20.1586C59.0756 20.4036 59.3109 20.5143 59.5796 20.5143H63.9071C64.2123 20.5143 64.4433 20.4036 64.6271 20.1768C64.8226 19.9469 64.9161 19.6685 64.9161 19.3397V15.5742H65.7415L65.8425 15.8902C65.8425 15.8902 65.9155 15.8902 65.9155 19.3547C65.9155 19.7943 65.8167 20.1811 65.6383 20.5132H67.3244C67.6468 20.51 67.9229 20.4176 68.1518 20.2306C68.3678 20.0522 68.4796 19.8082 68.4796 19.503V18.1071H69.4768V19.4966C69.4768 20.0952 69.2748 20.5949 68.8503 20.9656C68.4527 21.3213 67.967 21.4933 67.3985 21.5115H66.2186C65.7146 21.5115 65.4126 21.2332 65.2622 21.0011L65.2611 21.0032Z" stroke="#B09C34" stroke-width="0.29" stroke-miterlimit="3.86"/>
<path d="M44.0537 17.6676V17.1485H47.9051C48.4951 17.1485 48.9851 17.3645 49.3559 17.8084C49.7116 18.2371 49.89 18.7487 49.89 19.3386C49.89 19.9286 49.7116 20.4713 49.3559 20.8818C48.983 21.302 48.479 21.5104 47.8697 21.5104H41.6078C41.1006 21.5104 40.8008 21.2181 40.6439 21C40.285 21.3439 39.8272 21.5104 39.2759 21.5104H37.5683V18.8271C37.5683 18.5477 37.4544 18.3199 37.203 18.1243C36.944 17.9362 36.671 17.8406 36.368 17.8406C36.0381 17.8406 35.763 17.9362 35.5373 18.12C35.3116 18.3081 35.1977 18.5413 35.1977 18.8475V21.5104H28.0149C27.4067 21.5104 26.8984 21.3009 26.5352 20.8818C26.1741 20.4724 26 19.949 26 19.3386C26 18.7282 26.1741 18.2371 26.5352 17.8084C26.893 17.3645 27.3906 17.1485 27.9891 17.1485H30.5467V18.1426H27.9891C27.714 18.1426 27.4841 18.2597 27.2831 18.5101C27.0886 18.7691 26.9919 19.042 26.9919 19.3397C26.9919 19.6685 27.0918 19.9436 27.2831 20.1768C27.4626 20.4025 27.6968 20.5153 28.0063 20.5153H34.194V18.8604C34.194 18.2457 34.4014 17.745 34.8248 17.3721C35.2385 17.0217 35.7533 16.8391 36.3658 16.8391C36.9784 16.8391 37.4781 17.0207 37.9025 17.3721C38.3442 17.7428 38.5645 18.2296 38.5645 18.8282V20.5153H39.2877C39.5929 20.5153 39.8261 20.4025 40.012 20.1768C40.2022 19.9469 40.2914 19.6685 40.2914 19.3397L40.2947 15.5742H41.1146L41.2274 15.8837C41.2274 15.8837 41.2984 15.8902 41.2984 19.3547C41.2919 19.7943 41.1973 20.1811 41.0093 20.5153H42.8018C42.6309 20.2316 42.5374 19.8878 42.5374 19.503C42.5374 19.0517 42.6803 18.639 42.9672 18.2694C43.266 17.9072 43.6228 17.6977 44.0526 17.6676M45.7387 19.2C45.7387 18.9819 45.6635 18.8271 45.5087 18.6982C45.3443 18.5692 45.1552 18.5004 44.9241 18.5004H44.5652C44.2654 18.509 44.0086 18.5971 43.7786 18.7895C43.5561 18.9786 43.4433 19.215 43.4433 19.502C43.4433 19.8254 43.5561 20.0597 43.7721 20.2413C43.9871 20.4165 44.2503 20.5067 44.5856 20.5067H45.7376V19.1989L45.7387 19.2ZM46.1428 18.1426C46.3405 18.3349 46.4684 18.5692 46.5243 18.8432C46.5511 18.9281 46.5543 19.0184 46.5619 19.1205C46.5619 19.1452 46.5705 19.1785 46.5705 19.2161V20.5153H47.8751C48.1835 20.5153 48.4156 20.4025 48.6004 20.1768C48.7906 19.9469 48.8884 19.6685 48.8884 19.3397C48.8884 19.042 48.7949 18.7616 48.6004 18.5101C48.4048 18.2597 48.1792 18.1426 47.9041 18.1426H46.1428Z" fill="#B49D31"/>
<path d="M44.0537 17.6676V17.1485H47.9051C48.4951 17.1485 48.9851 17.3645 49.3559 17.8084C49.7116 18.2371 49.89 18.7487 49.89 19.3386C49.89 19.9286 49.7116 20.4713 49.3559 20.8818C48.983 21.302 48.479 21.5104 47.8697 21.5104H41.6078C41.1006 21.5104 40.8008 21.2181 40.6439 21C40.285 21.3439 39.8272 21.5104 39.2759 21.5104H37.5683V18.8271C37.5683 18.5477 37.4544 18.3199 37.203 18.1243C36.944 17.9362 36.671 17.8406 36.368 17.8406C36.0381 17.8406 35.763 17.9362 35.5373 18.12C35.3116 18.3081 35.1977 18.5413 35.1977 18.8475V21.5104H28.0149C27.4067 21.5104 26.8984 21.3009 26.5352 20.8818C26.1741 20.4724 26 19.949 26 19.3386C26 18.7282 26.1741 18.2371 26.5352 17.8084C26.893 17.3645 27.3906 17.1485 27.9891 17.1485H30.5467V18.1426H27.9891C27.714 18.1426 27.4841 18.2597 27.2831 18.5101C27.0886 18.7691 26.9919 19.042 26.9919 19.3397C26.9919 19.6685 27.0918 19.9436 27.2831 20.1768C27.4626 20.4025 27.6968 20.5153 28.0063 20.5153H34.194V18.8604C34.194 18.2457 34.4014 17.745 34.8248 17.3721C35.2385 17.0217 35.7533 16.8391 36.3658 16.8391C36.9784 16.8391 37.4781 17.0207 37.9025 17.3721C38.3442 17.7428 38.5645 18.2296 38.5645 18.8282V20.5153H39.2877C39.5929 20.5153 39.8261 20.4025 40.012 20.1768C40.2022 19.9469 40.2914 19.6685 40.2914 19.3397L40.2947 15.5742H41.1146L41.2274 15.8837C41.2274 15.8837 41.2984 15.8902 41.2984 19.3547C41.2919 19.7943 41.1973 20.1811 41.0093 20.5153H42.8018C42.6309 20.2316 42.5374 19.8878 42.5374 19.503C42.5374 19.0517 42.6803 18.639 42.9672 18.2694C43.266 17.9072 43.6228 17.6977 44.0526 17.6676H44.0537ZM45.7398 19.2C45.7398 18.9819 45.6646 18.8271 45.5098 18.6982C45.3454 18.5692 45.1563 18.5004 44.9252 18.5004H44.5663C44.2665 18.509 44.0096 18.5971 43.7797 18.7895C43.5572 18.9786 43.4444 19.215 43.4444 19.502C43.4444 19.8254 43.5572 20.0597 43.7732 20.2413C43.9881 20.4165 44.2514 20.5067 44.5867 20.5067H45.7387V19.1989L45.7398 19.2ZM46.1438 18.1426C46.3416 18.3349 46.4694 18.5692 46.5253 18.8432C46.5522 18.9281 46.5554 19.0184 46.5629 19.1205C46.5629 19.1452 46.5715 19.1785 46.5715 19.2161V20.5153H47.8761C48.1845 20.5153 48.4167 20.4025 48.6015 20.1768C48.7917 19.9469 48.8895 19.6685 48.8895 19.3397C48.8895 19.042 48.796 18.7616 48.6015 18.5101C48.4059 18.2597 48.1802 18.1426 47.9051 18.1426H46.1438Z" stroke="#C5A901" stroke-width="0.29" stroke-miterlimit="3.86"/>
<path d="M66.6631 18.1882C66.6631 17.8293 66.9608 17.5273 67.3272 17.5273C67.6936 17.5273 67.9849 17.8293 67.9849 18.1882C67.9849 18.5472 67.6926 18.8524 67.3272 18.8524C66.9618 18.8524 66.6631 18.5525 66.6631 18.1882Z" fill="#B49D31"/>
<path d="M66.6631 18.1882C66.6631 17.8293 66.9608 17.5273 67.3272 17.5273C67.6936 17.5273 67.9849 17.8293 67.9849 18.1882C67.9849 18.5472 67.6926 18.8524 67.3272 18.8524C66.9618 18.8524 66.6631 18.5525 66.6631 18.1882Z" stroke="#B09C34" stroke-width="0.29" stroke-miterlimit="3.86"/>
<path d="M75.401 15.5753H76.2252L76.3295 15.8912C76.3295 15.8912 76.4026 15.8912 76.4026 19.3558C76.3983 19.963 76.222 20.4799 75.8674 20.8829C75.4988 21.303 74.9916 21.5115 74.3801 21.5115H72.7402V20.5143H74.3941C74.6993 20.5143 74.9303 20.4036 75.1184 20.1768C75.3064 19.9469 75.4053 19.6685 75.4053 19.3483L75.401 15.5742V15.5753Z" fill="#B49D31"/>
<path d="M75.401 15.5753H76.2252L76.3295 15.8912C76.3295 15.8912 76.4026 15.8912 76.4026 19.3558C76.3983 19.963 76.222 20.4799 75.8674 20.8829C75.4988 21.303 74.9916 21.5115 74.3801 21.5115H72.7402V20.5143H74.3941C74.6993 20.5143 74.9303 20.4036 75.1184 20.1768C75.3064 19.9469 75.4053 19.6685 75.4053 19.3483L75.401 15.5742V15.5753Z" stroke="#B09C34" stroke-width="0.29" stroke-miterlimit="3.86"/>
<path d="M78.3652 15.5703H77.3647V21.513H78.3652V15.5703Z" fill="#B49D31"/>
<path d="M78.3652 15.5703H77.3647V21.513H78.3652V15.5703Z" stroke="#B09C34" stroke-width="0.29" stroke-miterlimit="3.86"/>
<path d="M61.8469 17.3548C61.9651 17.2183 62.1187 17.1484 62.3089 17.1484H62.9591V17.516H62.3089C62.2391 17.516 62.1757 17.5439 62.1295 17.6137C62.0693 17.6814 62.0467 17.7599 62.0467 17.8405C62.0467 17.9351 62.079 18.0135 62.1295 18.064C62.1757 18.1253 62.2326 18.1554 62.3186 18.1554H63.0945V18.5261H61.7265C61.6061 18.5078 61.5309 18.4412 61.4847 18.3886C61.46 18.3638 61.4439 18.3391 61.4299 18.3155L61.3687 18.1554H61.7319L61.7007 18.0457C61.69 17.9845 61.6792 17.9146 61.6792 17.8416C61.6792 17.6567 61.7362 17.488 61.8469 17.3558" fill="#B49D31"/>
<path d="M61.8469 17.3548C61.9651 17.2183 62.1187 17.1484 62.3089 17.1484H62.9591V17.516H62.3089C62.2391 17.516 62.1757 17.5439 62.1295 17.6137C62.0693 17.6814 62.0467 17.7599 62.0467 17.8405C62.0467 17.9351 62.079 18.0135 62.1295 18.064C62.1757 18.1253 62.2326 18.1554 62.3186 18.1554H63.0945V18.5261H61.7265C61.6061 18.5078 61.5309 18.4412 61.4847 18.3886C61.46 18.3638 61.4439 18.3391 61.4299 18.3155L61.3687 18.1554H61.7319L61.7007 18.0457C61.69 17.9845 61.6792 17.9146 61.6792 17.8416C61.6792 17.6567 61.7362 17.488 61.8469 17.3558V17.3548Z" stroke="#B09C34" stroke-width="0.29" stroke-miterlimit="3.86"/>
<path d="M33.6151 22.6446C33.6151 23.0089 33.3175 23.3012 32.9564 23.3012C32.5953 23.3012 32.2891 23.0014 32.2891 22.6446C32.2891 22.2878 32.591 21.9805 32.9564 21.9805C33.3218 21.9805 33.6151 22.2749 33.6151 22.6446Z" fill="#B49D31"/>
<path d="M33.6151 22.6446C33.6151 23.0089 33.3175 23.3012 32.9564 23.3012C32.5953 23.3012 32.2891 23.0014 32.2891 22.6446C32.2891 22.2878 32.591 21.9805 32.9564 21.9805C33.3218 21.9805 33.6151 22.2749 33.6151 22.6446Z" stroke="#B09C34" stroke-width="0.29" stroke-miterlimit="3.86"/>
<path d="M31.9548 22.6446C31.9548 23.0089 31.6582 23.3012 31.2939 23.3012C30.9296 23.3012 30.6309 23.0014 30.6309 22.6446C30.6309 22.2878 30.9296 21.9805 31.2939 21.9805C31.6582 21.9805 31.9548 22.2749 31.9548 22.6446Z" fill="#B49D31"/>
<path d="M31.9548 22.6446C31.9548 23.0089 31.6582 23.3012 31.2939 23.3012C30.9296 23.3012 30.6309 23.0014 30.6309 22.6446C30.6309 22.2878 30.9296 21.9805 31.2939 21.9805C31.6582 21.9805 31.9548 22.2749 31.9548 22.6446Z" stroke="#B09C34" stroke-width="0.29" stroke-miterlimit="3.86"/>
<path d="M35.0858 36.7522C34.4657 37.1906 34.2712 37.2282 34.0853 37.2282C33.8102 37.2282 33.649 37.0627 33.649 36.6447V32.8126C33.649 30.9707 32.2047 30.2539 30.0855 30.2539C28.7584 30.2539 27.5333 30.6064 26.4404 31.2845V33.4348C27.2743 32.574 28.4865 32.027 29.5418 32.027C30.6927 32.027 31.0559 32.6439 31.0011 33.4348C27.4763 34.5266 26.002 34.9296 26.002 36.937C26.002 37.9987 27.0003 38.9992 28.3554 38.9992C29.2667 38.9992 30.1049 38.7434 31.1311 38.0482C31.3095 38.7262 31.7297 38.9992 32.6087 38.9992C33.318 38.9992 34.3615 38.6671 35.0879 38.233V36.7522H35.0858ZM31 36.7865C30.5659 37.1917 30.0307 37.426 29.5407 37.426C29.0507 37.426 28.6788 37.0316 28.6788 36.5308C28.6788 35.7012 29.4279 35.3304 30.999 34.7652V36.7865H31Z" fill="#00578B"/>
<path d="M38.5271 26.3917H35.8813V38.8391H38.5271V33.4692C39.1482 32.5762 39.6791 32.1882 40.2938 32.1882C41.1137 32.1882 41.6639 32.7803 41.6639 34.0334V38.838H44.3129V33.4681C44.3129 31.1856 42.7557 30.2528 41.2287 30.2528C40.1863 30.2528 39.333 30.6956 38.5636 31.6617H38.526V26.3906L38.5271 26.3917Z" fill="#00578B"/>
<path d="M48.846 26.3945H46.1992V38.8419H48.846V26.3945Z" fill="#00578B"/>
<path d="M53.4604 30.423H50.8083V38.8416H53.4604V30.423ZM52.1257 26.2266C51.323 26.2266 50.6621 26.881 50.6621 27.6881C50.6621 28.4951 51.323 29.1463 52.1257 29.1463C52.9285 29.1463 53.5905 28.4865 53.5905 27.6881C53.5905 26.8896 52.9339 26.2266 52.1257 26.2266Z" fill="#00578B"/>
<path d="M57.9792 26.3945H55.3335V38.8419H57.9792V38.2004C58.7067 38.7291 59.4901 39.002 60.3316 39.002C62.6345 39.002 64.254 37.1934 64.254 34.6068C64.254 32.0202 62.5754 30.2578 60.1467 30.2578C59.3289 30.2578 58.8207 30.4093 57.9792 30.8972V26.3956V26.3945ZM57.9792 32.6145C58.5971 32.1739 59.0001 32.0299 59.5106 32.0299C60.6078 32.0299 61.5728 32.7832 61.5728 34.5638C61.5728 36.3445 60.7894 37.231 59.5417 37.231C59.0162 37.231 58.538 37.0129 57.9781 36.5218V32.6145H57.9792Z" fill="#00578B"/>
<path d="M74.2693 36.7522C73.6504 37.1906 73.4494 37.2282 73.2667 37.2282C72.997 37.2282 72.8294 37.0627 72.8294 36.6447V32.8126C72.8294 30.9707 71.384 30.2539 69.2659 30.2539C67.9355 30.2539 66.7169 30.6064 65.6208 31.2845V33.4348C66.4622 32.574 67.6636 32.027 68.7232 32.027C69.8709 32.027 70.2406 32.6439 70.1858 33.4348C66.6578 34.5266 65.1855 34.9296 65.1855 36.937C65.1855 37.9987 66.1828 38.9992 67.539 38.9992C68.446 38.9992 69.2906 38.7434 70.3115 38.0482C70.491 38.7262 70.9111 38.9992 71.7913 38.9992C72.4962 38.9992 73.5397 38.6671 74.2693 38.233V36.7522ZM70.1847 36.7865C69.7452 37.1917 69.2175 37.426 68.7221 37.426C68.2267 37.426 67.8603 37.0316 67.8603 36.5308C67.8603 35.7012 68.6125 35.3304 70.1847 34.7652V36.7865Z" fill="#00578B"/>
<path d="M77.6697 30.4194H75.0239V38.838H77.6697V33.4176C78.3649 32.3709 78.8571 32.027 79.5126 32.027C80.2606 32.027 80.8269 32.5203 80.8269 33.7088V38.838H83.4705V33.4853C83.4705 31.0051 81.7264 30.2539 80.4089 30.2539C79.3332 30.2539 78.5079 30.659 77.6697 31.6208V30.4183V30.4194Z" fill="#00578B"/>
<path d="M88.029 26.3945H85.3779V38.8419H88.029V34.6949H88.0666L91.3303 38.8419H94.5789L91.1497 34.5864L94.4349 30.4222H91.3303L88.0666 34.5864H88.029V26.3945Z" fill="#00578B"/>
</svg>
