<svg width="128" height="48" viewBox="0 0 128 48" fill="none" xmlns="http://www.w3.org/2000/svg">
<g clip-path="url(#clip0_4361_26328)">
<mask id="mask0_4361_26328" style="mask-type:luminance" maskUnits="userSpaceOnUse" x="18" y="8" width="93" height="32">
<path d="M110.541 8H18V40H110.541V8Z" fill="white"/>
</mask>
<g mask="url(#mask0_4361_26328)">
<path d="M22.8902 32.0822C23.8233 31.6356 24.2959 31.039 24.2959 30.2882C24.2959 29.0711 23.2026 28.2531 21.212 28.2531H18C18.5126 28.6878 18.5567 29.1738 18.5567 29.8693V35.8283C18.5567 36.5198 18.5487 36.8676 18.5487 37.4564H21.0278C23.6832 37.4564 25.129 36.2867 25.129 34.552C25.133 33.3467 24.368 32.4892 22.8902 32.0822ZM20.0626 29.2292C20.4471 29.1501 20.7715 29.1106 21.0438 29.1106C22.1292 29.1106 22.742 29.6401 22.742 30.4937C22.742 31.4026 22.0611 31.9597 20.8276 31.9597C20.5873 31.9597 20.3389 31.9439 20.0626 31.9044V29.2292ZM21.2961 36.4724C21.0198 36.4724 20.5993 36.429 20.0626 36.3736V32.9081C20.5632 32.8291 20.9637 32.7895 21.2561 32.7895C22.6899 32.7895 23.6071 33.6194 23.6071 34.7021C23.6031 35.777 22.77 36.4724 21.2961 36.4724ZM31.2166 34.9353V33.3704C31.2166 32.3944 31.1325 31.7424 30.4517 31.2523C30.0191 30.9441 29.4624 30.7901 28.7936 30.7901C28.4732 30.7901 27.4519 30.8572 26.687 31.0785L26.6829 32.2718C27.3918 31.9281 27.9766 31.77 28.4451 31.77C29.3943 31.77 29.951 32.1534 29.951 32.6947C29.951 33.1847 29.5065 33.3585 28.4252 33.6036C27.4198 33.8367 26.6709 33.9276 26.1703 34.4215C25.8659 34.7337 25.7017 35.1408 25.7017 35.5873C25.7017 36.7293 26.5227 37.4959 28.0206 37.6105C28.6254 37.6579 30.3516 37.401 30.8362 37.3102C31.1005 37.3971 31.4289 37.4366 31.8334 37.4366L32.4022 36.5633C31.2406 36.4843 31.2166 36.1049 31.2166 34.9353ZM28.6374 36.6621C27.6962 36.6621 27.1155 36.1879 27.1155 35.5319C27.1155 34.6903 28.0326 34.5006 29.967 33.9829V35.8994C29.967 36.0971 29.983 36.2749 30.0191 36.429C29.6146 36.5198 28.8977 36.6621 28.6374 36.6621ZM79.5215 34.9353V33.3704C79.5215 32.3944 79.4374 31.7424 78.7565 31.2523C78.328 30.9441 77.7673 30.7901 77.1024 30.7901C76.786 30.7901 75.7567 30.8572 74.9917 31.0785L74.9838 32.2718C75.6926 31.9281 76.2774 31.77 76.75 31.77C77.6951 31.77 78.2518 32.1534 78.2518 32.6947C78.2518 33.1847 77.8073 33.3585 76.7219 33.6036C75.7167 33.8367 74.9677 33.9276 74.4671 34.4215C74.1587 34.7337 73.9945 35.1408 73.9945 35.5873C73.9945 36.7293 74.8195 37.4959 76.3134 37.6105C76.9182 37.6579 78.6444 37.401 79.129 37.3102C79.3933 37.3971 79.7217 37.4366 80.1263 37.4366L80.6949 36.5633C79.5495 36.4843 79.5215 36.1049 79.5215 34.9353ZM76.9502 36.6621C76.005 36.6621 75.4203 36.1879 75.4203 35.5319C75.4203 34.6903 76.3375 34.5006 78.2719 33.9829V35.8994C78.2719 36.0971 78.2879 36.2749 78.324 36.429C77.9274 36.5198 77.2026 36.6621 76.9502 36.6621ZM38.8903 36.2512V33.2242C38.8903 31.7858 37.845 30.8612 36.4152 30.8612C35.6182 30.8612 34.9573 31.2049 34.2845 31.8925L34.2925 31.0074C33.6837 31.0074 33.1711 31.0113 32.7105 31.0113H32.5584C32.9068 31.3117 33.0309 31.687 33.0309 32.2323V36.2551C33.0309 36.8004 33.0349 37.0691 33.0349 37.4642H34.7851C34.4407 37.1639 34.3165 36.8004 34.3165 36.2551V33.8525C34.3165 32.5327 34.7291 31.932 35.9666 31.932C37.1361 31.932 37.5967 32.5841 37.5967 33.9434V36.2512C37.5967 36.7965 37.6007 37.0494 37.6007 37.4603H39.3589C39.0145 37.16 38.8903 36.7965 38.8903 36.2512ZM45.2223 36.4724L42.9314 33.734L45.2143 31.0074H43.1837C43.3078 31.1852 43.38 31.3472 43.38 31.4855C43.38 31.6475 43.2358 31.9479 42.9314 32.3035L41.5416 33.8486V28.1583C40.8208 28.1583 40.3562 28.1543 39.9075 28.1543H39.7834C40.1319 28.4507 40.256 28.8222 40.256 29.3635V36.2472C40.256 36.7925 40.256 37.0375 40.256 37.4564H42.0102C41.6618 37.1561 41.5416 36.7925 41.5416 36.2472V33.8841L43.7044 36.666C44.0809 37.1718 44.3732 37.4564 44.8739 37.4564H46.2075C45.6789 36.9466 45.3344 36.6225 45.2223 36.4724ZM53.741 29.3279C52.6276 28.4547 51.4742 28.2531 49.9562 28.2531H46.6761C47.1927 28.6878 47.2168 29.1738 47.2168 29.8693V35.8283C47.2168 36.5198 47.2088 36.9783 47.2088 37.4564H49.5117C51.6264 37.4564 53.0722 37.0929 54.1575 35.935C54.9745 35.0696 55.3951 33.979 55.3951 32.7184C55.3951 31.3077 54.8224 30.1656 53.741 29.3279ZM50.2366 36.4922C49.8602 36.4922 49.3555 36.5198 48.7067 36.5198V29.2173H50.1365C52.4314 29.2173 53.8652 30.6992 53.8652 32.833C53.8652 34.9748 52.3232 36.4922 50.2366 36.4922ZM62.1035 36.2512V33.2242C62.1035 31.7858 61.0582 30.8612 59.6285 30.8612C58.8314 30.8612 58.1666 31.2049 57.4978 31.8925V28.1346C56.7688 28.1346 56.2842 28.1583 55.8957 28.1583H55.7716C56.116 28.4547 56.2481 28.826 56.2481 29.3675V36.2512C56.2481 36.7965 56.2642 37.16 56.2642 37.4603H57.9984C57.654 37.16 57.5258 36.7965 57.5258 36.2512V33.8486C57.5258 32.5287 57.9423 31.9281 59.1798 31.9281C60.3493 31.9281 60.8099 32.5801 60.8099 33.9395V36.2472C60.8099 36.7925 60.7979 37.1047 60.7979 37.4564H62.5802C62.2277 37.16 62.1035 36.7965 62.1035 36.2512ZM66.6653 30.7901C65.648 30.7901 64.6787 31.1694 63.9899 31.7937C63.273 32.4616 62.8845 33.327 62.8845 34.3109C62.8845 35.196 63.257 36.0496 63.9299 36.7016C64.6227 37.3813 65.4437 37.6816 66.485 37.6816C67.4983 37.6816 68.4756 37.3141 69.1564 36.6937C69.8774 36.0259 70.2538 35.1565 70.2538 34.1765C70.2538 33.2795 69.8894 32.4378 69.2245 31.7898C68.5276 31.1022 67.6946 30.7901 66.6653 30.7901ZM66.6372 36.7451C65.2875 36.7451 64.3424 35.6702 64.3424 34.0343C64.3424 32.7342 65.2475 31.7424 66.5131 31.7424C67.8347 31.7424 68.808 32.8291 68.808 34.3504C68.808 35.7651 67.9029 36.7451 66.6372 36.7451ZM70.0816 30.9836H70.0776C70.0255 30.9836 70.0336 30.9836 70.0816 30.9836ZM72.3364 36.2512V31.9479H74.0105V31.0113H72.3364V30.1815C72.3364 29.2726 72.5327 28.9683 73.2816 28.8774C73.4499 28.8577 73.6741 28.8577 73.9905 28.8577L73.9865 28.02C73.7262 27.9923 73.7542 27.9805 73.5179 27.9805C70.8105 27.9805 71.1149 29.0909 71.1149 30.9955C71.0749 30.9955 70.2658 30.9876 70.0816 30.9836C70.9266 31.1299 71.0589 31.9439 71.0589 31.9439V36.2472C71.0589 36.7925 71.0187 37.1047 71.0187 37.4564H72.809C72.4605 37.16 72.3364 36.7965 72.3364 36.2512ZM84.2274 30.873C83.5625 30.873 83.062 31.201 82.6574 31.8885L82.6614 30.9995C82.0367 30.9995 81.4999 31.0074 81.0434 31.0074H80.8912C81.2396 31.3077 81.3638 31.6831 81.3638 32.2284V36.2512C81.3638 36.7965 81.3558 37.077 81.3558 37.4603H83.114C82.7656 37.16 82.6414 36.7965 82.6414 36.2512V33.8486C82.6414 32.6394 83.1701 31.9992 84.1112 31.9992C84.3796 31.9992 84.5878 32.0663 84.7961 32.2166V30.9441C84.5918 30.9047 84.4116 30.873 84.2274 30.873Z" fill="#002A52"/>
<path d="M65.5199 19.4904H67.8748L67.6145 18.9451H66.7815C66.441 18.9451 66.2488 18.8344 66.2488 18.5579C66.2488 18.305 66.4371 18.1192 66.6854 18.1192H67.3062V17.5107H66.5852C65.9885 17.5107 65.6561 17.9849 65.6561 18.467C65.6561 18.6052 65.7001 18.7989 65.7922 18.953L65.5199 18.9609V19.4904ZM80.0382 16.8152C80.4627 16.8152 80.7511 16.5188 80.7511 16.1197C80.7511 15.7483 80.4628 15.4677 80.0982 15.4677C79.5375 15.4677 79.3734 15.8945 79.3734 16.1711C79.3734 16.5188 79.6457 16.8152 80.0382 16.8152ZM76.1934 16.8428V16.2343V15.2227H74.395V15.2425C74.8036 15.3373 74.9038 15.7562 74.9157 16.5544H74.9117V20.6759C74.9038 21.1106 74.4832 21.9364 73.0454 21.9641L59.6806 21.9443C58.9716 21.9443 58.2307 21.4188 58.2307 20.7115C58.2307 20.0831 58.7474 19.4588 59.3962 19.4588C59.3962 19.4588 60.2733 19.3521 60.5216 19.9448H60.5377V18.6645L59.4202 18.6685C58.1907 18.6645 57.2094 19.6209 57.2094 20.7945C57.2094 21.976 58.1867 22.9283 59.3882 22.9283L70.9307 22.9441C73.6221 22.9441 74.331 22.8295 75.1079 22.1854C75.3002 22.0234 75.4203 21.8416 75.5565 21.648C75.5565 21.648 75.5846 21.6124 75.6286 21.561C75.8009 21.8416 76.3335 23.0271 77.9555 22.9362C79.1251 22.869 79.6577 22.5568 80.0222 22.1182C80.3706 22.4976 81.2558 22.9718 82.2129 22.9362C84.2075 22.9244 84.7681 21.8654 84.7962 21.1066V18.5974V17.2894H83.0019V17.3092C83.4305 17.4079 83.5186 17.8545 83.5186 18.7278V20.826C83.5186 21.1026 83.3504 21.9325 82.245 21.9601C81.0235 22.0471 80.695 21.2252 80.663 20.9367V20.6838H80.667V20.2254C80.671 20.1977 80.671 18.8029 80.671 18.7792H80.667V17.7043H78.8727V17.724C79.2292 17.811 79.3533 18.1469 79.3813 18.7792H79.3773C79.3813 18.8898 79.3854 20.3795 79.3854 20.5178L79.3894 20.83C79.3894 21.1066 79.2091 21.972 77.9035 21.972C77.9035 21.972 76.3415 22.0984 76.1973 19.9685V16.8428H76.1934ZM81.9486 24.1691C81.9486 24.5169 82.2209 24.8053 82.6174 24.8053C83.038 24.8053 83.3263 24.5129 83.3263 24.1137C83.3263 23.7384 83.038 23.4578 82.6695 23.4578C82.1088 23.4617 81.9486 23.8885 81.9486 24.1691ZM76.1973 16.0525V16.2383V16.5465V16.0525ZM35.2257 15.3452C34.8252 15.3452 34.625 15.5665 34.5489 15.7917C34.5168 15.8787 34.5049 15.9735 34.5049 16.0525C34.5049 16.4003 34.7772 16.6927 35.1737 16.6927C35.5982 16.6927 35.8826 16.4003 35.8826 16.0012C35.8826 15.6218 35.5942 15.3452 35.2257 15.3452ZM50.5731 17.242C50.5731 17.5897 50.8494 17.8821 51.2419 17.8821C51.6624 17.8821 51.9508 17.5936 51.9508 17.1906C51.9508 16.8191 51.6665 16.5346 51.298 16.5346C50.7373 16.5346 50.5731 16.9654 50.5731 17.242ZM21.18 21.3635C21.18 21.3635 21.1961 19.6643 21.2001 19.5497H21.1881V18.4828H19.3938V18.4985C19.7543 18.5855 19.8784 18.9175 19.9064 19.5497C19.9145 19.6643 19.9064 21.814 19.9064 21.814C19.9064 23.201 19.1455 24.339 18.1763 24.339V24.4932C19.8384 24.4932 21.18 23.3432 21.18 21.3635ZM52.8679 22.9283C52.8679 22.9283 55.0787 23.3037 54.9786 20.8102C54.9786 19.4469 54.0334 18.3919 52.5595 18.3919L48.1581 18.3959C48.1581 18.3959 48.1581 18.3998 48.0739 18.3959L48.0019 18.4037V15.2188H46.2075V15.2346C46.568 15.3215 46.6922 15.6574 46.7162 16.2896V18.4037C46.7202 18.5065 46.7202 21.0197 46.7202 21.9483H37.016V18.5816C37.016 17.7359 37.1162 17.3605 37.5367 17.2578V17.1787H34.7011C33.4275 17.1787 32.3942 18.1824 32.3942 19.4232C32.3942 20.6641 33.4275 21.6559 34.7011 21.6559C35.1697 21.6559 35.5462 21.4859 35.8505 21.3081V21.9483H23.8354L23.8634 21.3753V16.665C23.8634 16.5267 23.8674 16.4042 23.8714 16.2896H23.8634L23.8594 15.2188H22.0652V15.2346C22.4256 15.3215 22.5458 15.6574 22.5778 16.2896C22.5818 16.4042 22.5858 16.5267 22.5858 16.665L22.5498 21.4899C22.5498 22.3633 22.4617 22.7544 22.0331 22.8493V22.9323H52.8679V22.9283ZM35.8586 19.3917C35.8465 19.9804 35.3579 20.4546 34.7532 20.4546C34.1444 20.4546 33.6478 19.9685 33.6478 19.3758C33.6478 18.7792 34.1444 18.297 34.7532 18.297L35.8586 18.2931V19.3917ZM47.9978 19.6524H51.8186C53.4527 19.4667 53.9374 20.1582 53.9374 20.7707C53.9374 21.3832 53.8011 21.8969 52.8679 21.9523H47.9978V19.6524Z" fill="#002A52"/>
<path d="M91.3645 39.9842C93.6114 40.2884 111.754 36.1946 109.635 25.1064C108.618 20.8546 103.996 19.507 103.199 19.507C104.461 12.5957 101.906 8 101.906 8C101.906 8 103.388 15.6384 100.933 19.3806C98.3173 19.3055 92.4058 21.6014 92.4058 21.6014C92.4058 21.6014 98.918 20.7123 100.027 21.0244C97.4201 25.3356 89.8506 27.7422 89.8506 27.7422C89.8506 27.7422 89.1538 31.4527 91.5047 31.2472C93.0146 30.7533 95.1252 29.6745 96.2266 28.9829C102.014 25.3514 102.595 21.4908 102.727 21.7595C102.887 22.0598 106.552 23.4626 105.106 27.9516C102.671 35.0723 89.5542 36.5621 89.5542 36.5621C89.5542 36.5621 89.1177 39.6839 91.3645 39.9842Z" fill="#002A52"/>
<path d="M108.197 15.1697C109.487 15.1697 110.54 14.1423 110.54 12.8817C110.54 11.6172 109.487 10.5938 108.197 10.5938C106.904 10.5938 105.854 11.6172 105.854 12.8817C105.854 14.1423 106.904 15.1697 108.197 15.1697Z" fill="#002A52"/>
</g>
</g>
<defs>
<clipPath id="clip0_4361_26328">
<rect width="92.5405" height="32" fill="white" transform="translate(18 8)"/>
</clipPath>
</defs>
</svg>
