<svg width="128" height="48" viewBox="0 0 128 48" fill="none" xmlns="http://www.w3.org/2000/svg">
<g clip-path="url(#clip0_4361_26293)">
<path d="M64.3864 15.6016H63.8569V20.672C63.8569 21.001 64.0575 21.2016 64.3864 21.2016C64.7154 21.2016 64.916 21.001 64.916 20.672V16.1231C64.916 15.7941 64.7154 15.6016 64.3864 15.6016Z" fill="#071689"/>
<path d="M60.8242 21.1999C61.8832 21.1999 62.4127 20.673 62.4127 19.6194V19.483V16.1214C62.4127 15.7924 62.2763 15.6641 61.9474 15.6641H61.8832H61.4821H61.4179V19.6194C61.4179 19.9483 61.2253 20.1409 60.8242 20.1409H59.5726V16.1214C59.5726 15.7924 59.4442 15.6641 59.1153 15.6641H59.0431H58.5858H58.5216V16.1936V20.205H57.5267C57.3342 20.205 57.27 20.4056 57.27 20.7345C57.27 21.0635 57.3342 21.2641 57.5267 21.2641H60.8242V21.1999Z" fill="#071689"/>
<path d="M77.8408 22.1246C77.8408 22.4535 78.0334 22.6461 78.3623 22.6461H78.7635C79.7503 22.6461 80.2798 22.1888 80.344 21.2019V18.6266V17.8403C80.344 17.5114 80.2076 17.375 79.8786 17.375H79.3572H79.2849V17.9045V17.9687V21.0655C79.2849 21.3945 79.0924 21.5951 78.7635 21.5951H78.3623C77.9692 21.5951 77.8408 21.7234 77.8408 22.1246Z" fill="#071689"/>
<path d="M96.8951 21.2016C97.4166 21.2016 97.6172 21.001 97.6172 20.672V16.6526V16.1231V16.0589C97.6172 15.7299 97.4888 15.6016 97.1519 15.6016H96.6946H96.6304V16.1231V20.1425H94.5845V17.3104C94.5845 16.9815 94.4562 16.8531 94.1192 16.8531H93.5977H93.5255V20.2067H92.1456V17.3746C92.1456 17.0457 92.0092 16.9173 91.6803 16.9173H91.1588H91.0866V20.2789H89.835V17.4468C89.835 17.1179 89.7066 16.9815 89.3777 16.9815H88.8482H88.784V20.3431H83.2401H83.1759C82.7828 20.3431 82.5823 20.1425 82.5823 19.8136V16.2594C82.5823 15.9947 82.4539 15.7941 82.1891 15.7941C82.1249 15.7941 82.1249 15.7941 82.0608 15.7941C81.9886 15.7941 81.9886 15.7941 81.9244 15.7941H81.5954H81.5312V19.8136C81.5312 20.8673 82.0581 21.3941 83.1118 21.3941H83.0476H96.8951V21.2016Z" fill="#071689"/>
<path fill-rule="evenodd" clip-rule="evenodd" d="M77.247 21.1295H69.8579C68.8042 21.1295 68.2773 20.6026 68.2773 19.5489V18.3696C68.2773 17.3159 68.8042 16.7891 69.8579 16.7891H71.6389C71.9679 16.7891 72.1685 16.9816 72.1685 17.3106V20.0785H73.9495C73.8773 19.9501 73.8773 19.7495 73.8773 19.5489V18.3696C73.8773 17.3159 74.4069 16.7891 75.4659 16.7891H76.1879C77.2416 16.7891 77.7685 17.3159 77.7685 18.3696V20.6722C77.7685 21.0011 77.5759 21.2017 77.247 21.2017V21.1295ZM71.0453 17.8962H69.7937C69.4647 17.8962 69.2642 18.0968 69.2642 18.4257V19.6131C69.2642 19.9421 69.4647 20.1346 69.7937 20.1346H71.0453V17.8962ZM74.9364 19.6131C74.9364 19.9421 75.1369 20.1426 75.4659 20.1426H76.7175V18.4257C76.7175 18.0968 76.5169 17.8962 76.1879 17.8962H75.4659C75.1369 17.8962 74.9364 18.0968 74.9364 18.4257V19.6131Z" fill="#071689"/>
<path d="M99.3982 21.2016C99.7271 21.2016 99.9277 21.001 99.9277 20.672V16.1231C99.9277 15.7941 99.7271 15.6016 99.3982 15.6016H98.8687V20.672C98.8687 21.001 99.005 21.2016 99.3982 21.2016Z" fill="#071689"/>
<path fill-rule="evenodd" clip-rule="evenodd" d="M104.87 21.2017C103.819 21.2017 103.29 20.608 103.29 19.5489V16.9816H103.883C104.148 16.9816 104.341 17.118 104.341 17.4469V19.5489C104.341 19.8779 104.541 20.0785 104.87 20.0785H106.587C106.515 19.9501 106.515 19.7495 106.515 19.5489V18.3696C106.515 17.3159 107.044 16.7891 108.103 16.7891H108.825C109.879 16.7891 110.406 17.3159 110.406 18.3696V21.2017H104.87ZM109.355 18.4338C109.355 18.1048 109.154 17.9042 108.825 17.9042H108.103C107.774 17.9042 107.574 18.1048 107.574 18.4338V19.6212C107.574 19.9501 107.71 20.1426 108.039 20.1426H109.355V18.4338Z" fill="#071689"/>
<path d="M29.6388 22.7095C29.703 22.7817 29.8394 22.7817 29.9035 22.7817C30.0319 22.7817 30.1041 22.7817 30.1683 22.7095C30.2325 22.6453 30.3689 22.5811 30.3689 22.5169C30.433 22.4527 30.433 22.3164 30.433 22.2522C30.433 22.188 30.433 22.0516 30.3689 21.9874C30.2967 21.9232 30.2325 21.7868 30.1683 21.7868C30.1041 21.7227 29.9677 21.7227 29.9035 21.7227C29.7752 21.7227 29.703 21.7227 29.6388 21.7868C29.5746 21.859 29.4462 21.9232 29.4462 21.9874C29.374 22.0516 29.374 22.188 29.374 22.2522C29.374 22.3164 29.374 22.4527 29.4462 22.5169C29.5104 22.5811 29.5746 22.7095 29.6388 22.7095Z" fill="#071689"/>
<path d="M31.6849 21.7204C31.6207 21.6563 31.4843 21.6562 31.4201 21.6562C31.2918 21.6562 31.2196 21.6563 31.1554 21.7204C31.0912 21.7846 30.9628 21.8568 30.9628 21.921C30.8906 21.9852 30.8906 22.1216 30.8906 22.1858C30.8906 22.2499 30.8906 22.3783 30.9628 22.4505C31.027 22.5147 31.0912 22.5789 31.1554 22.6431C31.2196 22.7073 31.356 22.7073 31.4201 22.7073C31.4843 22.7073 31.6207 22.7073 31.6849 22.6431C31.7491 22.5789 31.8855 22.5147 31.8855 22.4505C31.9497 22.3783 31.9496 22.2499 31.9496 22.1858C31.9496 22.1216 31.9497 21.9852 31.8855 21.921C31.8855 21.8568 31.8186 21.79 31.6849 21.7204Z" fill="#071689"/>
<path fill-rule="evenodd" clip-rule="evenodd" d="M113.174 21.2628C112.917 22.2496 112.387 22.7069 111.401 22.7069H111C110.671 22.7069 110.478 22.5143 110.478 22.1854C110.478 21.8565 110.671 21.6559 111 21.6559H111.401C111.73 21.6559 111.922 21.5275 111.922 21.1264V16.9143H112.452C112.781 16.9143 112.981 17.1149 112.981 17.4439V20.2037C113.11 20.2037 114.297 20.2037 114.297 20.2037V16.457H114.826C114.891 16.457 115.027 16.457 115.091 16.5212C115.155 16.5212 115.155 16.5212 115.155 16.5212C115.22 16.5854 115.284 16.7138 115.284 16.9143V16.9785C115.356 16.9143 115.484 16.8502 115.685 16.8502H118.453C119.504 16.8502 120.033 17.3075 120.033 18.3665V20.1396H121.75V18.4307C121.75 17.377 122.277 16.8502 123.331 16.8502H124.053C125.112 16.8502 125.641 17.377 125.641 18.4307V19.6822C125.641 20.7332 125.112 21.1986 124.053 21.1986H123.796L113.174 21.2628ZM122.793 20.1396H124.053C124.382 20.1396 124.574 20.0112 124.574 19.61V18.4307C124.574 18.1017 124.382 17.9012 124.053 17.9012H123.323C122.994 17.9012 122.793 18.1017 122.793 18.4307V20.1396ZM115.212 20.0673H118.974V18.3585C118.974 18.0295 118.774 17.829 118.445 17.829H115.212V20.0673Z" fill="#071689"/>
<path fill-rule="evenodd" clip-rule="evenodd" d="M41.0474 18.2312V19.4186C41.0474 20.4054 40.5821 20.9991 39.7317 21.0633H34.7815C34.4526 21.0633 34.252 20.8707 34.252 20.5338V18.2954C34.252 17.9664 34.0595 17.7739 33.7305 17.7739H33.0004V20.5338C33.0004 20.9349 32.8079 21.1275 32.479 21.1275H29.5747C28.5878 21.1275 27.9941 20.606 27.9941 19.6191V17.5733H28.5156C28.8526 17.5733 28.981 17.7017 28.981 18.0386V19.5469C28.981 19.8759 29.1093 20.0764 29.5105 20.0764H31.8853V17.2444C31.8853 16.9154 32.0778 16.7148 32.4067 16.7148H33.6583C34.7173 16.7148 35.2469 17.3085 35.2469 18.3676V20.0764H37.0921V18.3676C37.0921 17.3139 37.619 16.7871 38.6726 16.7871H39.3947C40.5179 16.7871 41.0474 17.3085 41.0474 18.2312ZM39.9242 18.3676C39.9242 18.0386 39.7317 17.8381 39.3947 17.8381H38.6726C38.3437 17.8381 38.1431 18.0386 38.1431 18.3676V20.1406H39.3947C39.7317 20.1406 39.9242 20.0123 39.9242 19.6191V18.3676Z" fill="#071689"/>
<path d="M55.8819 16.7873H55.3524H55.2882V19.5472C55.2882 19.9483 55.0876 20.0767 54.7587 20.0767H53.9002V17.2446C53.9002 16.9156 53.7719 16.7873 53.4429 16.7873H52.9134H52.8492V20.1409H51.5977V17.3088C51.5977 16.9798 51.4613 16.8515 51.1323 16.8515H50.6109H50.5386V20.205H46.7839C46.7839 20.0767 46.8481 20.0125 46.8481 19.8761V16.1214C46.8481 15.7924 46.7197 15.6641 46.3908 15.6641H46.3186H45.9255H45.8613V19.7477C45.8613 20.0767 45.6607 20.205 45.3318 20.205H45.396H44.4733V16.1214C44.4733 15.7924 44.3449 15.6641 44.016 15.6641H43.9438H43.4865H43.4223V20.205H42.0985C41.906 20.205 41.8418 20.4056 41.8418 20.7345C41.8418 21.0635 41.906 21.2641 42.0985 21.2641H54.0366H54.8951C55.9461 21.2641 56.4756 20.7345 56.4756 19.6194V17.9025V17.8383V17.3729C56.3392 16.9798 56.2108 16.7873 55.8819 16.7873Z" fill="#071689"/>
<path d="M69.1356 16.258C69.1998 16.3222 69.3282 16.3222 69.4004 16.3222C69.5288 16.3222 69.5929 16.3222 69.6651 16.258C69.7293 16.1939 69.8577 16.1216 69.8577 16.0575C69.9941 15.9291 69.9941 15.8649 69.9941 15.7285C69.9941 15.6643 69.9941 15.536 69.9219 15.4638C69.8577 15.3996 69.7935 15.2712 69.7293 15.2712C69.6651 15.207 69.5288 15.207 69.4646 15.207C69.3282 15.207 69.264 15.207 69.1998 15.2712C69.1356 15.3354 69.0688 15.3996 68.9992 15.4638C68.9351 15.536 68.9351 15.6643 68.9351 15.7285C68.9351 15.8649 68.9351 15.9291 68.9992 15.9933C68.9992 16.1216 69.0714 16.1939 69.1356 16.258Z" fill="#071689"/>
<path d="M71.1815 15.2712C71.1093 15.207 70.9809 15.207 70.9167 15.207C70.8445 15.207 70.7161 15.207 70.652 15.2712C70.5878 15.3354 70.4514 15.3996 70.4514 15.4638C70.3872 15.536 70.3872 15.6643 70.3872 15.7285C70.3872 15.7927 70.3872 15.9291 70.4514 15.9933C70.5156 16.0575 70.5824 16.1243 70.652 16.1939C70.7161 16.258 70.8445 16.258 70.9167 16.258C70.9809 16.258 71.1093 16.258 71.1815 16.1939C71.2457 16.1216 71.374 16.0575 71.374 15.9933C71.4382 15.9291 71.4382 15.7927 71.4382 15.7285C71.4382 15.6002 71.4382 15.536 71.374 15.4638C71.374 15.3996 71.3098 15.2712 71.1815 15.2712Z" fill="#071689"/>
<path d="M74.8082 16.2564C74.8724 16.3205 75.0008 16.3205 75.0649 16.3205C75.1372 16.3205 75.2655 16.3205 75.3297 16.2564C75.4019 16.1922 75.5303 16.12 75.5303 16.0558C75.5945 15.9916 75.5945 15.8632 75.5945 15.791C75.5945 15.7268 75.5945 15.5985 75.5303 15.5343C75.4661 15.4621 75.4019 15.3337 75.3297 15.3337C75.2655 15.2695 75.1372 15.2695 75.0649 15.2695C74.9366 15.2695 74.8724 15.2695 74.8082 15.3337C74.736 15.2695 74.6076 15.3979 74.6076 15.4621C74.5435 15.5343 74.5435 15.6627 74.5435 15.7268C74.5435 15.8632 74.5435 15.9274 74.6076 15.9916C74.6076 16.12 74.736 16.1922 74.8082 16.2564Z" fill="#071689"/>
<path d="M76.8458 15.2712C76.7816 15.207 76.6533 15.207 76.5811 15.207C76.5169 15.207 76.3885 15.207 76.3243 15.2712C76.2521 15.3354 76.1238 15.3996 76.1238 15.4638C76.0596 15.536 76.0596 15.6643 76.0596 15.7285C76.0596 15.7927 76.0596 15.9291 76.1238 15.9933C76.1879 16.0575 76.2548 16.1243 76.3243 16.1939C76.3885 16.258 76.5169 16.258 76.5811 16.258C76.6533 16.258 76.7816 16.258 76.8458 16.1939C76.918 16.1216 77.0464 16.0575 77.0464 15.9933C77.1106 15.9291 77.1106 15.7927 77.1106 15.7285C77.1106 15.6002 77.1106 15.536 77.0464 15.4638C76.9822 15.3996 76.918 15.2712 76.8458 15.2712Z" fill="#071689"/>
<path d="M90.3644 16.258C90.4286 16.3222 90.5649 16.3222 90.6291 16.3222C90.6933 16.3222 90.8297 16.3222 90.8939 16.258C90.9581 16.1939 91.0864 16.1216 91.0864 16.0575C91.1586 15.9933 91.1586 15.8649 91.1586 15.7927C91.1586 15.7285 91.1586 15.6002 91.0864 15.536C91.0864 15.3996 91.0222 15.2712 90.8939 15.2712C90.8297 15.207 90.6933 15.207 90.6291 15.207C90.4927 15.207 90.4286 15.207 90.3644 15.2712C90.3002 15.3354 90.2333 15.3996 90.1638 15.4638C90.0996 15.536 90.0996 15.6643 90.0996 15.7285C90.0996 15.8649 90.0996 15.9291 90.1638 15.9933C90.1638 16.1216 90.236 16.1939 90.3644 16.258Z" fill="#071689"/>
<path d="M92.4105 15.2712C92.3463 15.207 92.2099 15.207 92.1457 15.207C92.0815 15.207 91.9452 15.207 91.881 15.2712C91.8168 15.3354 91.6804 15.3996 91.6804 15.4638C91.6162 15.536 91.6162 15.6643 91.6162 15.7285C91.6162 15.7927 91.6162 15.9291 91.6804 15.9933C91.7499 16.0575 91.8168 16.1243 91.881 16.1939C91.9452 16.258 92.0815 16.258 92.1457 16.258C92.2099 16.258 92.3463 16.258 92.4105 16.1939C92.4747 16.1216 92.603 16.0575 92.603 15.9933C92.6752 15.9291 92.6752 15.7927 92.6752 15.7285C92.6752 15.6002 92.6752 15.536 92.603 15.4638C92.5389 15.3996 92.4747 15.2712 92.4105 15.2712Z" fill="#071689"/>
<path d="M91.6158 13.955C91.5517 13.8828 91.4233 13.8828 91.3511 13.8828C91.2869 13.8828 91.1585 13.8828 91.0863 13.955C91.0221 14.0192 90.8938 14.0834 90.8938 14.1476C90.8296 14.2118 90.8296 14.3481 90.8296 14.4123C90.8296 14.5407 90.8296 14.6129 90.8938 14.6771C90.958 14.7413 91.0221 14.8054 91.0863 14.8696C91.1585 14.9418 91.2869 14.9418 91.3511 14.9418C91.4233 14.9418 91.5517 14.9418 91.6158 14.8696C91.68 14.8054 91.8164 14.7413 91.8164 14.6771C91.8806 14.6129 91.8806 14.4765 91.8806 14.4123C91.8806 14.3481 91.8806 14.2118 91.8164 14.1476C91.8164 14.0834 91.7496 14.0192 91.6158 13.955Z" fill="#071689"/>
<path d="M108.761 15.2712C108.697 15.207 108.56 15.207 108.496 15.207C108.432 15.207 108.296 15.207 108.232 15.2712C108.167 15.3354 108.031 15.3996 108.031 15.4638C107.967 15.536 107.967 15.6643 107.967 15.7285C107.967 15.7927 107.967 15.9291 108.031 15.9933C108.101 16.0575 108.167 16.1243 108.232 16.1939C108.296 16.258 108.432 16.258 108.496 16.258C108.56 16.258 108.697 16.258 108.761 16.1939C108.825 16.1216 108.962 16.0575 108.962 15.9933C109.026 15.9291 109.026 15.7927 109.026 15.7285C109.026 15.6002 109.026 15.536 108.962 15.4638C108.962 15.3996 108.825 15.2712 108.761 15.2712Z" fill="#071689"/>
<path d="M59.444 22.2513H58.8503C58.7861 22.2513 58.7861 22.2513 58.7861 22.2513V21.9224C58.7861 21.8582 58.7861 21.8582 58.7861 21.8582H59.1792C59.3129 21.8582 59.3798 21.7913 59.3798 21.6576C59.3798 21.5239 59.3129 21.457 59.1792 21.457H58.7861C58.5213 21.457 58.3849 21.5934 58.3849 21.9224V22.1871C58.3849 22.1871 58.3849 22.1871 58.3849 22.2513C58.2566 22.2513 58.1924 22.3182 58.1924 22.4519C58.1924 22.5802 58.2566 22.6444 58.3849 22.6444H59.444C59.5723 22.6444 59.6365 22.5802 59.6365 22.4519C59.6365 22.3182 59.5723 22.2513 59.444 22.2513Z" fill="#071689"/>
<path d="M68.7346 26.793H68.1489V31.8635C68.1489 32.2004 68.3415 32.393 68.7346 32.393C69.1357 32.393 69.2641 32.2004 69.2641 31.8635V27.3225C69.3283 27.0577 69.1357 26.793 68.7346 26.793Z" fill="#071689"/>
<path d="M94.456 26.793H93.8623V31.8635C93.8623 32.2004 94.0549 32.393 94.456 32.393C94.8491 32.393 94.9775 32.2004 94.9775 31.8635V27.2583C94.9775 26.9935 94.7849 26.793 94.456 26.793Z" fill="#071689"/>
<path d="M30.9626 29.3661L29.5746 28.8366C29.2457 28.7002 29.1093 28.5718 29.1093 28.3071V28.1787C29.1093 27.8498 29.3098 27.7134 29.7752 27.7134H31.4841C31.5482 27.7134 31.6204 27.6492 31.6204 27.585V26.9913C31.6204 26.9271 31.5482 26.863 31.4841 26.863C30.8904 26.7266 30.5614 26.7266 29.9677 26.7266C28.652 26.7266 27.9219 27.0555 27.9219 28.1145V28.2429C27.9219 29.1013 28.1866 29.4945 28.7803 29.695L30.2325 30.2165C30.6256 30.3529 30.762 30.4813 30.762 30.8102V30.8744C30.762 31.2034 30.5614 31.3397 30.1041 31.3397H28.0583C27.9941 31.3397 27.9219 31.4039 27.9219 31.4681V31.9976C27.9219 32.0618 27.9219 32.126 28.0583 32.126C28.7161 32.2624 29.3098 32.2624 29.8394 32.2624C31.0909 32.2624 31.9494 31.9334 31.9494 30.8744V30.6819C32.0136 29.9518 31.6846 29.6228 30.9626 29.3661Z" fill="#071689"/>
<path fill-rule="evenodd" clip-rule="evenodd" d="M43.687 32.3288C43.7511 32.4572 43.687 32.4572 43.6148 32.4572H42.6921C42.6279 32.4572 42.6279 32.393 42.6279 32.3288L42.2348 30.8125H40.2531L39.86 32.3288C39.7958 32.4572 39.7958 32.4572 39.7317 32.4572H38.801C38.7368 32.4572 38.7368 32.393 38.7368 32.3288L40.0606 27.6514C40.2531 26.8652 40.3895 26.793 41.248 26.793C42.1706 26.793 42.299 26.8652 42.4996 27.6514L43.687 32.3288ZM41.9701 29.8256L41.4405 27.9162C41.3764 27.7878 41.3764 27.7156 41.248 27.7156C41.1116 27.7156 41.1116 27.7156 41.0474 27.9162L40.5179 29.8256H41.9701Z" fill="#071689"/>
<path fill-rule="evenodd" clip-rule="evenodd" d="M49.2227 32.2624C49.2869 32.3266 49.2869 32.3907 49.1585 32.3907H48.2359C48.0995 32.3907 48.0353 32.3907 47.9711 32.2624L46.7837 30.4171H46.1259V32.3266C46.1259 32.4549 46.0537 32.4549 45.9895 32.4549H45.0668C44.9385 32.4549 44.9385 32.3907 44.9385 32.3266V26.7266H46.9843C48.5648 26.7266 49.0863 27.1197 49.0863 28.5718C49.0863 29.695 48.8296 30.1524 47.9711 30.2807L49.2227 32.2624ZM47.8989 28.644C47.8989 27.922 47.6422 27.7214 46.7837 27.7214H45.9895V29.5025H46.7837C47.7064 29.5025 47.8989 29.3661 47.8989 28.644Z" fill="#071689"/>
<path fill-rule="evenodd" clip-rule="evenodd" d="M58.9787 32.3288C59.0429 32.4572 58.9787 32.4572 58.9146 32.4572H57.9919C57.9277 32.4572 57.9277 32.393 57.9277 32.3288L57.5266 30.8125H55.553L55.1598 32.3288C55.0876 32.4572 55.0876 32.4572 55.0234 32.4572H54.1008C54.0366 32.4572 54.0366 32.393 54.0366 32.3288L55.3524 27.6514C55.553 26.8652 55.6813 26.793 56.5398 26.793C57.4624 26.793 57.5988 26.8652 57.7914 27.6514L58.9787 32.3288ZM57.334 29.8256L56.8045 27.9162C56.7403 27.7878 56.7403 27.7156 56.604 27.7156C56.4756 27.7156 56.4756 27.7156 56.4114 27.9162L55.8819 29.8256H57.334Z" fill="#071689"/>
<path d="M73.4843 29.3661L72.1044 28.8366C71.7754 28.7002 71.6391 28.5718 71.6391 28.3071V28.1787C71.6391 27.8498 71.8396 27.7134 72.2969 27.7134H74.0138C74.078 27.7134 74.1422 27.6492 74.1422 27.585V26.9913C74.1422 26.9271 74.078 26.863 74.0138 26.863C73.4201 26.7266 73.0912 26.7266 72.4975 26.7266C71.1817 26.7266 70.4517 27.0555 70.4517 28.1145V28.2429C70.4517 29.1013 70.7164 29.4945 71.3101 29.695L72.7623 30.2165C73.1554 30.3529 73.2918 30.4813 73.2918 30.8102V30.8744C73.2918 31.2034 73.0912 31.3397 72.6259 31.3397H70.5881C70.5158 31.3397 70.4517 31.4039 70.4517 31.4681V31.9976C70.4517 32.0618 70.4517 32.126 70.5881 32.126C71.2459 32.2624 71.8396 32.2624 72.3611 32.2624C73.6207 32.2624 74.4711 31.9334 74.4711 30.8744V30.6819C74.4711 29.9518 74.1422 29.6228 73.4843 29.3661Z" fill="#071689"/>
<path d="M79.0925 31.4039H76.7177V27.8498V27.2561C76.7177 26.9271 76.5171 26.7907 76.124 26.7266H75.5303V27.7856V32.1982C75.5303 32.2624 75.5945 32.3266 75.6586 32.3266H79.0925C79.1566 32.3266 79.2208 32.2624 79.2208 32.1982V31.4039C79.1566 31.4681 79.1566 31.4039 79.0925 31.4039Z" fill="#071689"/>
<path fill-rule="evenodd" clip-rule="evenodd" d="M85.0212 32.3288C85.0934 32.4572 85.0212 32.4572 84.957 32.4572H84.0344C83.9702 32.4572 83.9702 32.393 83.9702 32.3288L83.5771 30.8125H81.5954L81.2023 32.3288C81.1301 32.4572 81.1301 32.4572 81.0659 32.4572H80.1433C80.0791 32.4572 80.0791 32.393 80.0791 32.3288L81.3949 27.6514C81.5954 26.8652 81.7238 26.793 82.5823 26.793C83.5049 26.793 83.6413 26.8652 83.8338 27.6514L85.0212 32.3288ZM83.3123 29.8256L82.7828 27.9162C82.7186 27.7878 82.7186 27.7156 82.5823 27.7156C82.4539 27.7156 82.4539 27.7156 82.3897 27.9162L81.8602 29.8256H83.3123Z" fill="#071689"/>
<path d="M91.8809 26.793H91.0224C90.7577 26.793 90.6935 26.8652 90.6293 27.0577L89.2413 30.7483L87.8614 27.0577C87.7972 26.8652 87.6608 26.793 87.4602 26.793H86.6098C86.5376 26.793 86.5376 26.8652 86.5376 26.9294L86.0161 32.3288C86.0161 32.393 86.0803 32.4572 86.1445 32.4572H87.0671C87.1313 32.4572 87.2035 32.393 87.2035 32.3288L87.5324 28.8388L88.8482 32.3288C88.9124 32.393 88.9124 32.4572 88.9766 32.4572H89.6425C89.7067 32.4572 89.7708 32.393 89.7708 32.3288L91.0866 28.8388L91.4236 32.3288C91.4236 32.393 91.4877 32.4572 91.5519 32.4572H92.4746C92.5387 32.4572 92.6029 32.393 92.6029 32.3288L92.0815 26.9294C92.0092 26.8652 92.0092 26.793 91.8809 26.793Z" fill="#071689"/>
<path d="M99.7274 26.7924C99.3985 26.7282 98.9332 26.6641 98.2753 26.6641C96.43 26.6641 96.1011 27.3219 96.1011 29.4962C96.1011 31.6704 96.3658 32.3282 98.2753 32.3282C98.9332 32.3282 99.3343 32.2641 99.7274 32.1999C99.8611 32.1999 99.928 32.133 99.928 31.9993V31.4056C99.928 31.3414 99.8558 31.2772 99.7916 31.2772H98.2753C97.2885 31.2772 97.2885 30.8119 97.2885 29.432C97.2885 28.044 97.2885 27.5867 98.2753 27.5867H99.7916C99.8558 27.5867 99.928 27.5225 99.928 27.4503V26.8646C99.928 26.9288 99.8558 26.8646 99.7274 26.7924Z" fill="#071689"/>
<path fill-rule="evenodd" clip-rule="evenodd" d="M107.702 30.8761C107.702 32.0635 107.108 32.3924 105.728 32.3924C105.07 32.3924 104.148 32.3924 103.482 32.3282C103.354 32.2641 103.354 32.2641 103.354 32.1999V26.8646C103.354 26.7282 103.418 26.7282 103.482 26.7282C104.148 26.6641 104.934 26.6641 105.528 26.6641C106.98 26.6641 107.574 27.0572 107.574 28.2446C107.574 29.0308 107.309 29.432 106.715 29.5603C107.445 29.6245 107.638 30.0899 107.702 30.8761ZM104.477 29.1672H105.199C105.993 29.1672 106.322 29.0308 106.322 28.4452C106.322 27.8515 105.993 27.7151 105.335 27.7151H104.477V29.1672ZM106.45 30.6835C106.45 30.0898 106.186 29.9615 105.592 29.9615H104.477V31.4056H105.592C106.186 31.4056 106.45 31.2772 106.45 30.6835Z" fill="#071689"/>
<path fill-rule="evenodd" clip-rule="evenodd" d="M113.575 32.3288C113.639 32.4572 113.575 32.4572 113.51 32.4572H112.588C112.516 32.4572 112.516 32.393 112.516 32.3288L112.123 30.8125H110.141L109.748 32.3288C109.684 32.4572 109.684 32.4572 109.619 32.4572H108.697C108.625 32.4572 108.625 32.393 108.625 32.3288L109.948 27.6514C110.141 26.8652 110.277 26.793 111.136 26.793C112.058 26.793 112.187 26.8652 112.387 27.6514L113.575 32.3288ZM111.858 29.8256L111.328 27.9162C111.264 27.7878 111.264 27.7156 111.136 27.7156C110.999 27.7156 110.999 27.7156 110.935 27.9162L110.406 29.8256H111.858Z" fill="#071689"/>
<path d="M119.504 26.793H118.581C118.517 26.793 118.453 26.8652 118.453 26.9294V30.3551L116.214 27.0577C116.078 26.8652 116.078 26.793 115.749 26.793H115.027C114.955 26.793 114.891 26.8652 114.891 26.9294V32.3288C114.891 32.393 114.955 32.4572 115.027 32.4572H115.95C116.014 32.4572 116.078 32.393 116.078 32.3288V28.7746L118.453 32.2646C118.581 32.393 118.653 32.4572 118.846 32.4572H119.504C119.576 32.4572 119.64 32.393 119.64 32.3288V26.9294C119.64 26.8652 119.576 26.793 119.504 26.793Z" fill="#071689"/>
<path d="M125.569 32.1982L123.459 29.3661L125.377 26.9271C125.441 26.863 125.441 26.7907 125.312 26.7907H124.253C124.189 26.7907 124.125 26.7907 124.125 26.863L122.28 29.2297V27.7856V27.2561C122.28 26.9271 122.079 26.7907 121.686 26.7266H121.092V27.7134V31.2756V31.797C121.092 32.126 121.285 32.3266 121.686 32.3266C122.079 32.3266 122.207 32.126 122.207 31.797V31.2756V29.5587L124.189 32.2624C124.189 32.3266 124.253 32.3266 124.317 32.3266H125.377C125.641 32.3907 125.641 32.3266 125.569 32.1982Z" fill="#071689"/>
<path d="M37.285 26.793H36.6913V28.6382V29.1036H34.2523V28.7024V27.3225C34.2523 26.9935 34.0598 26.8652 33.6586 26.793H33.0649V28.6382V31.342V31.7993C33.0649 32.1282 33.2655 32.3288 33.6586 32.3288C34.0598 32.3288 34.1882 32.1282 34.1882 31.7993V31.342V30.0262H36.6271V31.342V31.7993C36.6271 32.1282 36.8277 32.3288 37.2208 32.3288C37.622 32.3288 37.7503 32.1282 37.7503 31.7993V31.342V28.6382V27.2583C37.8787 26.9935 37.6861 26.793 37.285 26.793Z" fill="#071689"/>
<path d="M52.5845 26.793H51.9908V28.3093V29.6973C51.9908 30.1546 51.9908 30.5477 51.8624 30.8125C51.7902 30.9488 51.726 31.0772 51.6618 31.1414C51.5977 31.2056 51.5977 31.2056 51.5335 31.2778C51.3329 31.4061 51.004 31.4703 50.8676 31.4703H50.2739C50.2097 31.4703 50.1455 31.5345 50.1455 31.6067V32.2004C50.1455 32.3288 50.2097 32.3288 50.3461 32.393C50.4744 32.393 50.6108 32.4572 50.7392 32.4572C51.1323 32.5294 52.1272 32.5294 52.6487 31.8635C52.9776 31.4061 53.0498 30.7483 53.0498 29.7615V29.2961V27.3225C53.114 26.9935 52.9134 26.793 52.5845 26.793Z" fill="#071689"/>
<path d="M64.3221 26.793H63.7284V28.6382V29.1036H61.2894V28.7024V27.3867C61.2894 27.0577 61.0889 26.8652 60.6957 26.8652H60.1021V31.6067V31.9998C60.1021 32.3288 60.3026 32.5294 60.6957 32.5294C61.0889 32.5294 61.2894 32.3288 61.2894 31.9998V31.5345V30.2188H62.6052H63.7284V31.6709V31.9998C63.7284 32.3288 63.929 32.5294 64.3221 32.5294C64.7152 32.5294 64.8516 32.3288 64.8516 31.9998V31.5345V28.8388V27.5231C64.9158 27.0577 64.7152 26.793 64.3221 26.793Z" fill="#071689"/>
<path d="M13.2241 13.4258C13.2241 13.4258 12.3015 14.212 12.0367 14.9421C11.772 15.6642 11.7078 15.9289 12.1651 17.1163C12.6304 18.2957 14.2109 22.9089 14.2109 22.9089C14.2109 22.9089 14.7404 24.0321 13.8178 24.69C13.8178 24.69 13.2241 25.1473 13.3525 25.0831C13.4889 25.0189 15.3341 24.6178 14.7404 22.9731C14.4757 22.1868 12.4298 16.5226 12.4298 16.5226C12.4298 16.5226 11.8361 15.0705 13.2883 13.6905L13.2241 13.4258Z" fill="#071689"/>
<path d="M15.1334 23.9599C15.1334 23.9599 15.9277 23.302 15.6629 22.3794C15.3982 21.4567 13.4246 15.7925 13.4246 15.7925C13.4246 15.7925 12.8309 14.4768 13.3523 13.4258C13.3523 13.4258 12.6303 14.0195 12.6945 14.9421C12.7587 15.8647 13.3523 17.0441 13.6171 17.8384C13.8819 18.6246 15.1976 22.4516 15.1976 22.4516C15.1976 22.4516 15.3982 23.1736 15.2698 23.5026C15.1334 23.8957 15.0051 24.0963 15.1334 23.9599Z" fill="#071689"/>
<path d="M12.1008 16.5859C12.1008 16.5859 11.6435 17.1796 12.1008 18.4312C12.5662 19.6828 13.6813 22.908 13.6813 22.908C13.6813 22.908 14.2109 24.1596 13.6172 24.8816L13.4246 25.018C13.4246 25.018 13.8177 24.4885 13.553 23.7023C13.2882 22.908 11.8361 19.0891 11.8361 19.0891C11.8361 19.0891 11.3788 17.9017 11.6435 17.1155L12.1008 16.5859Z" fill="#071689"/>
<path d="M14.3472 25.4132V25.2126C14.3472 25.2126 14.275 25.1484 14.2108 25.1484C14.1466 25.2126 14.0103 25.349 14.0825 25.5416C14.1466 25.6779 14.2108 25.6779 14.2108 25.6779L14.1466 25.7421V25.8705C14.1466 25.8705 14.2108 25.8705 14.275 25.7421C14.4114 25.6138 14.5398 25.4774 14.5398 25.4774V25.2848C14.5398 25.2848 14.3472 25.4132 14.275 25.4774C14.2108 25.5416 14.0825 25.5416 14.0103 25.4774C14.0103 25.4132 14.0825 25.349 14.1466 25.349C14.275 25.349 14.3472 25.4132 14.3472 25.4132Z" fill="#071689"/>
<path d="M16.4575 25.082L16.3853 25.6115L16.9148 25.6757L16.9789 25.1462L16.4575 25.082Z" fill="#071689"/>
<path d="M15.9279 25.5391L15.7915 26.0686L16.321 26.1328L16.3852 25.6113L15.9279 25.5391Z" fill="#071689"/>
<path d="M15.3341 25.9414L15.1978 26.4629L15.7273 26.5351L15.7914 26.0056L15.3341 25.9414Z" fill="#071689"/>
<path d="M16.9144 34.9599C16.9144 34.9599 16.0559 34.302 16.1201 31.2773H16.3849C16.3849 31.2773 16.1201 33.5157 16.8502 34.6951L16.9144 34.9599Z" fill="#071689"/>
<path d="M17.3799 25.741C17.3799 25.741 17.3799 25.5404 16.5857 23.3662C16.3851 22.9089 13.0877 13.4258 13.0877 13.4258C13.0877 13.4258 12.6304 12.3748 13.7536 11.1232C13.9461 10.9226 14.6762 10.1284 15.0051 10L15.0693 10.3289C15.0693 10.3289 13.3524 11.4521 13.553 12.8963C13.6814 13.8189 13.9461 14.2842 13.9461 14.2842L17.3799 24.0321C17.3799 24.0321 17.8372 25.1473 17.6367 26.0057C17.5725 26.5994 16.9788 26.6636 16.9788 26.6636C16.9788 26.6636 17.1152 27.3215 16.3851 27.3857C16.3851 27.3857 16.3209 27.9794 15.7914 27.9152C15.7914 27.9152 15.7914 28.5089 15.0693 28.5731C14.3473 28.7014 14.0103 27.9152 13.7536 27.2573C13.4888 26.5994 10.9776 19.812 10.9776 19.812C10.9776 19.812 9.99082 17.7742 11.9725 16.3221L12.0367 16.651C12.0367 16.651 11.1782 17.5095 11.1782 18.1032C11.1782 18.6968 11.2424 19.1542 11.443 19.6837C11.6435 20.2052 14.2109 27.2573 14.2109 27.2573C14.2109 27.2573 14.4756 28.1158 15.1335 27.851C15.7914 27.6504 15.5988 26.8642 15.5988 26.792C15.5988 26.7278 15.663 26.792 15.7272 26.8642C15.7272 26.9284 15.7914 27.2573 15.7914 27.2573C15.7914 27.2573 16.2567 27.2573 16.2567 26.7278C16.2567 26.1983 16.3209 26.2705 16.3209 26.3347C16.3851 26.3989 16.3851 26.7278 16.3851 26.7278C16.3851 26.7278 16.8504 26.792 16.7862 26.1983C16.714 25.741 16.7862 25.8052 16.8504 25.8052L16.9146 26.0057C16.9146 26.0057 17.2435 26.1341 17.3799 25.741Z" fill="#071689"/>
<path fill-rule="evenodd" clip-rule="evenodd" d="M15.9922 24.6918C15.9922 24.6918 15.9922 25.2855 15.6632 25.3497C15.3343 25.4138 15.1979 25.0849 15.1337 24.9565C15.1337 24.9565 15.0696 24.9565 15.0696 25.1491C15.0696 25.3497 15.2701 27.0585 14.0105 27.3233C13.0879 27.6522 12.4942 26.3365 12.4942 26.3365C12.4942 26.3365 12.6306 27.4517 12.2375 27.9812C11.8363 28.5107 11.3148 28.5107 10.9137 28.1818C10.9137 28.1818 10.6489 28.5749 9.86268 28.8396C9.86268 28.8396 9.72629 28.9038 9.92686 28.7032C10.1274 28.5107 10.4564 28.2459 10.6489 27.917C10.6489 27.917 10.32 27.3875 10.3842 26.3365C10.5206 25.2855 10.7211 24.8202 10.7211 24.6196C10.7853 24.427 10.7853 24.3628 10.8495 24.3628C10.9137 24.3628 10.9137 24.4912 10.9779 24.6196C10.9779 24.756 11.5074 25.6786 11.5716 26.2723C11.5716 26.866 11.4432 27.5239 11.3148 27.7886C11.3148 27.7886 12.1011 27.917 12.3658 27.0585C12.3658 27.0585 12.43 26.7296 12.3658 26.4007C12.3016 26.0717 11.5074 24.1623 11.5074 24.1623C11.5074 24.1623 11.5074 23.8975 11.5074 23.7691C11.5074 23.6328 11.4432 23.3038 11.5074 23.3038C11.5074 23.2396 11.5074 23.2396 11.5716 23.368C11.5716 23.4402 12.1653 25.0849 12.6948 26.0075C13.2243 26.9302 14.0105 26.7296 14.4117 26.2723C14.7406 25.807 14.8048 25.2133 14.8048 24.8843C14.8048 24.5554 14.9412 24.0981 15.0054 24.0981C15.1337 24.0981 15.1337 24.2265 15.1337 24.2906C15.1979 24.3628 15.2701 24.756 15.5269 24.6196C15.7916 24.5554 15.7916 24.2265 15.7916 24.1623C15.7916 24.0981 15.6632 23.705 15.7916 23.5686C15.928 23.4402 15.928 23.8975 15.928 23.8975C15.928 23.8975 15.928 24.0339 16.0564 23.8333C16.1928 23.705 16.2569 23.5044 16.1928 23.2396C16.1928 23.2396 16.1206 23.0391 16.1928 23.0391C16.2569 23.0391 16.4575 23.6328 16.4575 24.0339C16.3853 24.427 16.2569 24.5554 15.9922 24.6918ZM11.379 26.3365C11.379 26.0075 10.8495 25.2855 10.8495 25.2855C10.8495 25.2855 10.6489 25.6786 10.6489 26.7938C10.6489 26.7938 10.6489 27.1227 10.9779 27.5239C10.9779 27.5239 11.4432 26.7938 11.379 26.3365Z" fill="#071689"/>
<path d="M4.84814 31.5325C4.84814 31.5325 4.84814 31.4683 4.91233 31.4683C4.98453 31.4683 4.98453 31.5325 4.98453 31.6689C4.98453 31.7331 5.17708 33.0488 6.17193 33.5142C6.17193 33.5142 6.56505 33.7067 6.82981 33.45C7.02236 33.1852 7.02236 32.7841 7.09456 32.5915C7.09456 32.4551 7.15875 31.7331 7.48769 31.2758C7.88081 30.8104 8.14556 30.9468 8.14556 31.011C8.14556 31.0752 8.34614 31.6689 8.86763 31.7973C9.39714 31.9978 10.6487 31.9978 11.443 30.4173C11.5072 30.3531 11.5714 30.2167 11.443 30.1526C11.3146 30.0884 11.2424 30.0884 11.2424 30.0884C11.2424 30.0884 11.3146 30.2809 11.1782 30.4173C11.0499 30.5457 10.6487 30.7463 10.4562 30.3531C10.4562 30.3531 10.384 30.1526 10.384 29.7594C10.384 29.4305 10.6487 29.1016 10.8493 29.1016C11.114 29.1016 11.6436 29.2941 11.7077 30.0884C11.7719 30.8746 11.114 31.8614 10.3198 32.2626C9.53353 32.6557 8.61089 32.4551 8.20975 31.9337C8.20975 31.9337 8.08138 31.6689 8.08138 31.6047C8.08138 31.6047 8.08138 31.5325 7.94499 31.6689C7.81663 31.7973 7.48769 31.9978 7.4235 32.5915C7.3513 33.2494 7.3513 34.0357 6.62923 33.9715C5.90717 33.9073 5.31347 32.8563 5.1129 32.1262C4.98453 32.1984 4.84814 31.7973 4.84814 31.5325Z" fill="#071689"/>
<path d="M9.66211 33.251C9.66211 33.251 9.66211 33.1868 9.72629 33.1868C9.7985 33.1868 11.2426 32.8579 11.9727 31.3415C12.2375 30.7478 12.43 29.761 12.4942 29.1031C12.5664 28.4453 12.6948 27.9157 13.0237 27.8516C13.0237 27.8516 13.0879 27.8516 13.1601 28.1163C13.2243 28.3731 13.3527 28.6378 13.2885 28.702C13.2243 28.702 13.1601 28.6378 13.0879 28.5736C13.0237 28.5094 12.759 28.9026 12.759 29.1673C12.6948 29.4321 12.759 31.141 12.3016 31.9352C11.9005 32.7215 10.9137 33.1868 9.66211 33.251Z" fill="#071689"/>
<path d="M13.8179 31.1422C13.8179 31.1422 13.8179 31.407 13.6173 31.5353C13.3526 31.6717 13.0878 31.5353 13.0236 31.3428C13.0236 31.1422 12.8311 30.5485 13.0878 30.3559C13.3526 30.1554 13.8179 30.0912 14.0827 30.5485C14.3474 31.0138 14.1468 31.9365 13.8821 32.2654C13.6815 32.5943 12.7589 34.0385 10.2557 34.3032C9.66202 34.3674 8.14569 33.9743 8.34626 32.5302C8.41045 32.0006 8.61102 31.4711 8.86775 31.078C8.86775 31.078 8.93996 31.0138 8.93996 31.1422C8.93996 31.2064 8.34626 32.3296 8.73939 32.9875C9.20472 33.6453 10.0551 34.0385 11.8362 33.2522C13.5531 32.458 13.9463 31.3428 13.9463 31.2786C14.0104 31.2064 13.8179 31.1422 13.8179 31.1422Z" fill="#071689"/>
<path d="M9.06826 27.6486C9.33302 27.3839 9.79835 26.9908 9.92671 26.5335C10.0551 26.0681 9.9909 25.7392 9.79835 25.675C9.59777 25.6108 9.20465 26.0039 9.06826 26.1323C8.93989 26.2687 9.06826 26.9266 9.06826 26.9266C9.06826 26.9266 8.86769 27.0549 8.73932 27.1913C8.61095 27.3197 8.20981 27.5845 8.08144 28.0418C7.94505 28.4429 8.08144 28.7718 8.20981 28.9002C8.3462 29.0286 8.8035 28.9002 8.93989 28.836C9.13244 28.7718 9.20465 28.9002 9.20465 28.9002C9.20465 28.9002 8.53875 29.8228 7.02242 30.0876C6.0356 30.2802 4.12614 30.6813 2.01611 29.4297C2.01611 29.4297 3.1313 31.3392 6.75766 30.7455C8.41038 30.4807 9.13244 29.4939 9.26883 29.2933C9.3972 29.0286 9.53359 28.5713 9.33302 28.3065C9.20465 28.0418 8.86769 28.114 8.61095 28.1782C8.3462 28.2423 8.28201 28.1782 8.28201 28.1782C8.3462 28.1782 8.73932 27.9134 9.06826 27.6486Z" fill="#071689"/>
<path d="M8.67491 30.2812L9.26861 30.6182L9.00385 31.1397L8.41016 30.8108L8.67491 30.2812Z" fill="#071689"/>
<path d="M9.59749 30.0898L10.1912 30.4188L9.92643 30.9483L9.26855 30.6194L9.59749 30.0898Z" fill="#071689"/>
<path d="M13.4244 29.1016L14.0101 29.4305L13.8175 29.952L13.1597 29.6231L13.4244 29.1016Z" fill="#071689"/>
<path d="M15.3981 32.527C15.3981 32.527 15.3981 32.2623 15.5265 32.3264C15.5987 32.3264 15.4623 32.7837 15.5265 33.4496C15.5987 34.1075 15.5987 35.9448 18.0376 37.068C18.0376 37.068 18.6313 37.4611 20.605 37.8623C20.605 37.8623 20.7414 37.8623 20.6692 37.9264C20.605 37.9906 18.8961 38.0548 17.6365 37.5975C16.3849 37.1964 15.3981 35.9448 15.3339 34.3001C15.3339 34.1717 15.2697 33.6422 15.3981 32.527Z" fill="#071689"/>
<path d="M22.3218 30.3541C21.5276 28.7013 20.0834 27.3856 19.0244 26.5352C19.0244 26.9283 19.1528 27.2572 19.7465 27.8509C20.4124 28.3724 21.664 29.8887 22.0571 30.683C22.1213 30.8114 22.1213 31.2045 22.1213 31.3409C22.0571 31.2767 22.0571 30.4183 20.9339 30.7472C21.664 30.9478 22.1213 31.734 22.2577 32.1993C22.3218 31.6056 22.386 30.7472 22.3218 30.3541Z" fill="#071689"/>
<path d="M17.5085 32.1277C17.1796 32.4567 16.8506 32.8578 16.5859 33.6441C16.2569 34.5025 16.979 35.1604 16.979 35.032C17.1154 32.5931 19.418 31.4699 20.5412 31.863C20.8059 31.9994 21.3996 32.1999 20.9343 32.7856C20.9343 32.7856 21.7286 33.2509 22.1217 32.3283C22.2581 32.1277 19.9475 30.1541 17.5085 32.1277Z" fill="#071689"/>
<path d="M15.0053 10L15.0695 10.3289C15.0695 10.3289 14.3474 10.8585 14.4758 11.9736C14.4758 11.9736 14.4758 12.439 14.7405 13.0968C15.0053 13.8189 18.3669 23.5026 18.3669 23.5026C18.3669 23.5026 18.9606 25.0831 18.6316 26.1983C18.4311 26.9284 18.3027 27.3857 17.3801 28.3083C16.4574 29.2309 14.6763 29.4315 14.6763 29.4315C14.6763 29.4315 14.0104 29.5599 14.4116 29.4315C14.8047 29.2951 18.1021 27.9794 18.4953 25.6126C18.4953 25.4762 18.4311 25.0189 18.3669 24.8825C18.3027 24.7542 14.1468 12.8963 14.1468 12.8963C14.1468 12.8963 13.3526 11.1874 15.0053 10Z" fill="#071689"/>
<path fill-rule="evenodd" clip-rule="evenodd" d="M19.4178 29.1679C19.4178 29.2321 19.3536 29.8258 19.2894 29.8258C19.2253 29.89 19.0889 29.6974 18.8241 29.7616C18.5674 29.8258 18.431 29.89 18.0379 30.5479C17.6367 31.1416 17.1794 31.6069 16.3852 31.7994C16.321 31.7994 16.1926 31.7994 16.0562 31.7994C16.0562 31.7353 15.992 31.7352 15.992 31.7352C15.6631 31.5347 15.5989 31.0132 15.5989 31.0132V30.949H15.5267C15.5267 30.949 14.941 31.2779 14.941 31.7352V32C14.941 32.5295 14.941 33.6447 14.2751 34.11C13.4889 34.6315 11.9725 34.6315 11.772 34.6315C12.2373 34.5032 13.5531 34.11 14.1468 33.4522C14.4757 33.1152 14.6763 32.5937 14.7405 31.9358V31.6711C14.7405 31.4705 14.7405 31.2057 14.8046 31.0774C14.8688 30.949 15.0052 30.5479 15.6631 30.2189C15.7273 30.2189 15.7273 30.2189 15.7273 30.2189C15.7273 30.2831 15.7273 30.2831 15.7273 30.2831C15.6631 30.4195 15.7273 30.8126 15.7915 30.8768C15.8637 30.949 15.8637 31.0774 16.0562 31.1416H16.1204C16.1204 31.0132 16.1204 30.8126 16.1204 30.7484C16.2568 29.6252 16.7141 28.9673 17.5084 28.9032C17.5084 28.9032 17.5725 28.9032 17.6367 28.9673C17.7089 28.9673 17.7089 29.0315 17.7089 29.1037C17.7089 29.2963 17.7089 29.4969 17.7089 29.6252C17.7089 29.9542 17.6367 30.2831 17.5725 30.5479C17.7731 30.3553 18.1662 29.6252 18.3026 29.4969C18.431 29.3685 18.5674 29.1679 18.5674 29.1679C18.5674 29.1679 18.5674 29.1037 18.5674 28.9032C18.5674 28.9032 18.5674 28.7026 18.6958 28.5742C18.6958 28.5742 18.7599 28.5742 18.7599 28.6384C18.7599 28.7026 18.8241 28.7748 18.8963 28.839C19.0889 28.9032 19.49 29.0315 19.4178 29.1679ZM16.3852 31.0774V31.1416C16.4574 31.0774 16.4574 31.0774 16.4574 31.0774C16.5215 31.0774 16.5857 31.0132 16.5857 31.0132C17.1794 30.6842 17.5084 30.0264 17.5084 29.7616V29.6974C17.5084 29.6974 17.2436 29.6252 16.7863 30.1547C16.5857 30.2831 16.4574 30.6201 16.3852 31.0774Z" fill="#071689"/>
</g>
<defs>
<clipPath id="clip0_4361_26293">
<rect width="123.713" height="28" fill="white" transform="translate(2 10)"/>
</clipPath>
</defs>
</svg>
