<svg width="128" height="48" viewBox="0 0 128 48" fill="none" xmlns="http://www.w3.org/2000/svg">
<path d="M93.5133 23.4201V23.3287C95.3218 22.4651 96.0737 20.8902 96.0737 19.102C96.0737 16.1656 93.7165 14.1641 89.8047 14.1641H79.9492V33.1436H90.3026C94.5496 33.1436 97.0084 30.8473 97.0084 27.8196C97.0084 25.7062 96.033 24.3549 93.5133 23.4201ZM90.1908 30.3292H83.1192V16.8972H89.4593C91.6946 16.8972 92.7919 17.6592 92.7919 19.4678C92.7919 21.4185 91.1662 22.1806 89.3577 22.1806H84.2572C84.2572 23.664 85.07 24.995 86.5839 24.995H89.9267C92.04 24.995 93.7368 26.1431 93.7368 27.6367C93.747 29.3944 92.2534 30.3292 90.1908 30.3292Z" fill="#001B59"/>
<path d="M67.1062 33.6971C65.5822 33.6971 64.1902 33.4431 62.9709 32.9351C61.7517 32.4271 60.7153 31.726 59.8822 30.8421C59.0491 29.9581 58.3988 28.9014 57.9517 27.7025C57.5047 26.5036 57.271 25.1827 57.271 23.7908C57.271 22.3683 57.5047 21.017 57.9517 19.7978C58.3988 18.5887 59.0491 17.5117 59.8822 16.5973C60.7153 15.693 61.7517 14.9818 62.9608 14.4636C64.18 13.9556 65.5618 13.6914 67.096 13.6914C68.1934 13.6914 69.2399 13.8438 70.2153 14.1486C71.1907 14.4534 72.0746 14.8903 72.8366 15.4695C73.5987 16.0384 74.2388 16.7598 74.7366 17.6031C75.1938 18.3753 75.4986 19.2694 75.6409 20.2651H72.2067C71.9933 19.4218 71.5158 18.5684 70.7131 17.8267C70.2457 17.3898 69.1891 16.5465 67.0859 16.5465C65.7549 16.5465 64.6271 16.8919 63.7939 17.4101C63.0929 17.8571 62.5747 18.355 62.1175 19.0154C61.6603 19.6657 61.325 20.4074 61.1218 21.2405C60.9186 22.0635 60.817 22.917 60.817 23.7908C60.817 24.6239 60.9186 25.6603 61.1218 26.4528C61.325 27.2555 61.6603 27.987 62.1175 28.6271C62.5747 29.2774 63.164 29.8057 63.9057 30.1918C64.8404 30.6897 66.0394 30.8929 67.0859 30.8929C68.5286 30.8929 69.9816 30.4255 71.0078 29.5212C72.2067 28.4747 72.1661 27.5196 72.7452 26.8694C73.3853 26.148 74.5842 26.1886 75.2142 26.1886H75.8136C75.6815 27.2758 75.4072 28.2817 74.9703 29.1656C74.5131 30.1207 73.8933 30.9437 73.1313 31.6142C72.3794 32.2848 71.4751 32.803 70.4591 33.1586C69.4634 33.5142 68.3254 33.6971 67.1062 33.6971Z" fill="#001B59"/>
<path d="M104.314 14.1836V33.1529C102.485 33.1529 100.818 32.1268 100.818 30.2877V14.1836H104.314Z" fill="#001B59"/>
<path d="M35.6597 26.8922L27.9175 34.6547C28.6897 35.3253 29.5635 35.8943 30.4677 36.382L35.5174 31.3323V37.9162C36.0051 37.9772 36.4928 37.9975 36.9805 37.9975C37.4682 37.9975 37.9559 37.9772 38.4436 37.9162V31.3323L43.4933 36.382C44.4077 35.8943 45.2612 35.3253 46.0435 34.6547L38.3013 26.9125C37.9559 26.5874 37.4885 26.3842 36.9805 26.3842C36.4623 26.3639 35.9949 26.5671 35.6597 26.8922Z" fill="url(#paint0_linear_4361_26291)"/>
<path d="M24.5952 17.4963L29.7261 22.6273H23.061C23.0203 23.0947 23 23.5417 23 24.0091C23 24.5171 23.0203 25.0455 23.0813 25.5332H29.716L24.646 30.6032C25.1337 31.5176 25.723 32.3711 26.3936 33.1331L34.1357 25.3909C34.4609 25.0455 34.6641 24.5781 34.6641 24.0701C34.6641 23.5621 34.4609 23.0947 34.1357 22.7492L26.3123 14.9258C25.6417 15.7081 25.0727 16.5819 24.5952 17.4963Z" fill="url(#paint1_linear_4361_26291)"/>
<path d="M39.8047 22.7641C39.4796 23.1095 39.2764 23.5769 39.2764 24.0849C39.2764 24.5929 39.4796 25.0603 39.8047 25.4058L47.5469 33.1479C48.2175 32.3758 48.8068 31.5223 49.2945 30.618L44.2244 25.548H50.8693C50.9303 25.04 50.9506 24.532 50.9506 24.024C50.9506 23.5566 50.9303 23.0892 50.8896 22.6422H44.2244L49.3554 17.5112C48.8677 16.5968 48.2987 15.7433 47.6282 14.9609L39.8047 22.7641Z" fill="url(#paint2_linear_4361_26291)"/>
<path d="M35.5181 10.0813V16.8074L30.3668 11.6561C29.4524 12.1438 28.5989 12.7331 27.8369 13.4037L35.6604 21.2272C36.0058 21.5523 36.4732 21.7555 36.9812 21.7555C37.4892 21.7555 37.9566 21.5523 38.3021 21.2272L46.1255 13.4037C45.3533 12.7331 44.4999 12.1438 43.5956 11.6561L38.4443 16.8074V10.0813C37.9566 10.0406 37.4689 10 36.9812 10C36.4834 10.0203 35.9957 10.0406 35.5181 10.0813Z" fill="url(#paint3_linear_4361_26291)"/>
<defs>
<linearGradient id="paint0_linear_4361_26291" x1="37.3677" y1="26.1281" x2="36.36" y2="47.8761" gradientUnits="userSpaceOnUse">
<stop stop-color="#1C8FC0"/>
<stop offset="0.0969329" stop-color="#146B9F"/>
<stop offset="0.2209" stop-color="#031A54"/>
<stop offset="1" stop-color="#001B58"/>
</linearGradient>
<linearGradient id="paint1_linear_4361_26291" x1="35.345" y1="23.9457" x2="4.52838" y2="24.1976" gradientUnits="userSpaceOnUse">
<stop stop-color="#1C8FC0"/>
<stop offset="0.0969329" stop-color="#146B9F"/>
<stop offset="0.2209" stop-color="#031A54"/>
<stop offset="1" stop-color="#001B58"/>
</linearGradient>
<linearGradient id="paint2_linear_4361_26291" x1="37.1798" y1="24.0543" x2="73.2864" y2="24.0543" gradientUnits="userSpaceOnUse">
<stop stop-color="#1C8FC0"/>
<stop offset="0.0969329" stop-color="#146B9F"/>
<stop offset="0.2209" stop-color="#031A54"/>
<stop offset="1" stop-color="#001B58"/>
</linearGradient>
<linearGradient id="paint3_linear_4361_26291" x1="34.3589" y1="19.3567" x2="40.4047" y2="5.58585" gradientUnits="userSpaceOnUse">
<stop stop-color="#870051"/>
<stop offset="0.050003" stop-color="#870051"/>
<stop offset="0.0620038" stop-color="#80004A"/>
<stop offset="0.1548" stop-color="#510015"/>
<stop offset="0.2" stop-color="#3E0000"/>
<stop offset="1" stop-color="#3E0000"/>
</linearGradient>
</defs>
</svg>
