<svg width="128" height="48" viewBox="0 0 128 48" fill="none" xmlns="http://www.w3.org/2000/svg">
<path fill-rule="evenodd" clip-rule="evenodd" d="M107.704 36.8302H109.574V33.3424H109.602L112.001 36.8302H114.373L111.36 32.8546L114.039 29.6461H111.834L109.602 32.5198H109.574V26.3674H107.704V36.8302ZM13.8365 31.6267C14.4637 31.1522 15.2596 30.8454 16.0539 30.8454C17.1564 30.8454 17.6722 31.2364 17.6722 32.3943H16.6408C15.8596 32.3943 14.9382 32.4637 14.2266 32.8125C13.5212 33.1586 13.0081 33.7796 13 34.8381V34.8759C13.0077 36.235 14.2453 36.9979 15.5101 36.9979C16.3613 36.9979 17.296 36.5515 17.7285 35.7558H17.7566C17.7705 35.9796 17.7705 36.454 17.8399 36.8302H19.4864C19.4443 36.2722 19.4168 35.7699 19.4029 35.226C19.3888 34.6961 19.3748 34.1514 19.3748 33.4259V32.5059C19.3748 30.3851 18.4673 29.4776 16.2779 29.4776C15.4828 29.4776 14.5059 29.6875 13.7802 30.0223L13.8365 31.6267ZM99.4344 36.8302H101.303V33.3141C101.303 32.3943 101.597 30.9296 102.95 30.9296C104.15 30.9296 104.164 32.115 104.164 32.9943V36.8302H106.033V32.296C106.033 30.6783 105.293 29.4784 103.592 29.4784C102.615 29.4784 101.82 29.7991 101.234 30.6215H101.206V29.6461H99.4344V36.8302ZM92.3502 31.6267C92.9777 31.1522 93.7734 30.8454 94.5685 30.8454C95.6703 30.8454 96.1868 31.2364 96.1868 32.3943H95.1545C94.3733 32.3943 93.4527 32.4637 92.7403 32.8125C92.0296 33.1614 91.513 33.7894 91.513 34.8632C91.513 36.2302 92.7545 36.9979 94.024 36.9979C94.8752 36.9979 95.8106 36.5515 96.2422 35.7558H96.2703C96.2844 35.9796 96.2844 36.454 96.3539 36.8302H98.0002C97.958 36.2722 97.9307 35.7699 97.9166 35.226C97.9027 34.6961 97.8886 34.1514 97.8886 33.4259V32.5059C97.8886 30.3851 96.9819 29.4776 94.7917 29.4776C93.9958 29.4776 93.0196 29.6875 92.2941 30.0223L92.3502 31.6267ZM93.2989 34.7516C93.2989 33.6497 94.5404 33.5095 95.3777 33.5095H96.1868C96.1868 34.0681 96.1032 34.5839 95.7959 34.9887C95.5026 35.3796 95.0568 35.6303 94.4849 35.6303C93.8147 35.6303 93.2989 35.3657 93.2989 34.7516ZM85.6289 33.2171C85.6289 32.2129 86.1033 30.9294 87.3027 30.9294C88.5167 30.9294 88.8515 32.2543 88.8515 33.2171C88.8515 34.2073 88.5026 35.5469 87.2746 35.5469C86.0331 35.5469 85.6289 34.2354 85.6289 33.2171ZM83.7454 36.8298H85.5587V35.9511H85.5869C86.1308 36.719 86.9959 36.9983 87.791 36.9983C89.9945 36.9983 90.8046 35.1843 90.8046 33.2171C90.8046 31.236 89.9945 29.478 87.791 29.478C86.8149 29.478 86.1588 29.8823 85.643 30.5665H85.615V26.3672H83.7454V36.8298ZM73.7225 33.2171C73.7225 32.2543 74.0573 30.9294 75.2705 30.9294C76.4706 30.9294 76.9451 32.2129 76.9451 33.2171C76.9451 34.2354 76.5401 35.5469 75.2988 35.5469C74.0714 35.5469 73.7225 34.2073 73.7225 33.2171ZM77.0145 36.8298H78.8285V26.3672H76.9584V30.4822H76.931C76.3732 29.7987 75.7177 29.478 74.7829 29.478C72.5786 29.478 71.7694 31.236 71.7694 33.2171C71.7694 35.1843 72.5786 36.9983 74.7829 36.9983C75.6614 36.9983 76.4285 36.719 76.9865 36.0214H77.0145V36.8298ZM66.0944 32.5334C66.1779 31.5711 66.7077 30.8454 67.754 30.8454C68.8004 30.8454 69.2187 31.6267 69.2748 32.5334H66.0944ZM70.5303 34.9054C69.8334 35.2955 69.0516 35.6303 68.1449 35.6303C66.9878 35.6303 66.1779 34.9748 66.0944 33.8168H71.0608C71.0608 31.306 70.3071 29.4784 67.6424 29.4784C65.4109 29.4784 64.3084 31.1944 64.3084 33.273C64.3084 35.6303 65.6902 36.9979 68.0614 36.9979C69.0658 36.9979 69.8475 36.8021 70.5303 36.4254V34.9054ZM60.2521 34.6678C60.2521 36.091 61.0611 36.9977 62.5264 36.9977C63.0836 36.9977 63.5161 36.9416 63.907 36.83L63.8515 35.352C63.6563 35.4769 63.3348 35.5471 63.0003 35.5471C62.2885 35.5471 62.1216 34.9744 62.1216 34.3611V31.013H63.782V29.6459H62.1216V27.6087L60.2521 28.2087V29.6459H58.8709V31.013H60.2521V34.6678ZM56.0981 36.83H57.9676V29.6459H56.0981V36.83ZM56.0981 28.3344H57.9676V26.549H56.0981V28.3344ZM47.8281 36.8302H49.697V33.3141C49.697 32.3943 49.9904 30.9296 51.3433 30.9296C52.5434 30.9296 52.5574 32.115 52.5574 32.9943V36.8302H54.4269V32.296C54.4269 30.6783 53.6873 29.4784 51.9854 29.4784C51.0085 29.4784 50.2134 29.7991 49.6275 30.6215H49.6001V29.6461H47.8281V36.8302ZM46.1982 29.6457H44.3295V33.1616C44.3295 34.0816 44.0361 35.5469 42.6832 35.5469C41.4831 35.5469 41.4691 34.3609 41.4691 33.4822V29.6457H39.5996V34.1799C39.5996 35.7981 40.3392 36.9983 42.041 36.9983C43.0178 36.9983 43.827 36.5511 44.3989 35.8543H44.4264V36.8298H46.1982V29.6457ZM32.7724 36.83H34.6419V29.6459H32.7724V36.83ZM32.7724 28.3344H34.6419V26.549H32.7724V28.3344ZM29.1905 36.83H31.0594V26.3672H29.1905V36.83ZM20.9205 36.8302H22.79V33.3141C22.79 32.3943 23.0826 30.9296 24.4363 30.9296C25.6363 30.9296 25.6496 32.115 25.6496 32.9943V36.8302H27.5191V32.296C27.5191 30.6783 26.7795 29.4784 25.0777 29.4784C24.1015 29.4784 23.2917 29.9246 22.8181 30.6215H22.79V26.3674H20.9205V36.8302ZM14.7852 34.7516C14.7852 33.6497 16.0267 33.5095 16.8632 33.5095H17.6722C17.6722 34.0681 17.5889 34.5839 17.2821 34.9887C16.9887 35.3796 16.5431 35.6303 15.9712 35.6303C15.301 35.6303 14.7852 35.3657 14.7852 34.7516Z" fill="#002A52"/>
<path fill-rule="evenodd" clip-rule="evenodd" d="M16.7965 22.8036C17.7929 22.3103 18.8223 21.8935 19.7718 21.2858C20.1546 21.1738 19.5411 22.3461 17.2238 22.9343C17.1118 22.9628 16.7965 23.0018 16.7965 22.8036ZM19.0477 18.9188C19.4953 18.9671 19.9228 19.0465 20.3151 19.1895C19.7482 19.4424 18.3702 19.8768 17.819 19.5118C18.1088 19.1076 18.5649 18.9468 19.0477 18.9188ZM23.6022 17.1601C23.9903 17.0045 27.0192 15.4453 27.0536 15.6836C27.114 16.1014 26.5157 16.3656 26.2035 16.4766C25.8815 16.5911 23.8463 17.3443 23.5875 17.217L23.6022 17.1601ZM24.5805 18.6085C24.786 18.3882 24.9384 18.0976 25.2316 17.9602C25.4962 17.9938 25.7124 18.1356 25.9286 18.2766C26.2095 18.3471 26.3651 17.5949 26.6675 17.7242C26.9714 17.911 27.3307 17.996 27.5931 18.2456C27.5726 18.4127 27.0313 19.0332 26.8395 18.9699C26.5672 18.8802 26.2978 18.6099 26.0072 18.6079C25.3159 19.3664 25.4426 19.2023 24.5517 18.7539C24.4914 18.7089 24.5733 18.659 24.5805 18.6085ZM34.726 16.165C34.7956 16.0586 34.8786 15.7765 34.9997 15.9516C35.0552 16.0316 36.0463 20.4784 35.2929 20.8983C35.2116 20.9103 35.2396 20.8219 35.1989 20.7833C35.1989 19.5291 34.5782 17.251 34.5364 16.8302C34.5659 16.5959 34.6761 16.3938 34.726 16.165ZM37.3485 19.8106C37.5001 19.5579 37.6453 19.2858 37.8579 19.0724C38.0706 19.1641 38.0431 18.9755 37.924 19.2759C37.7626 19.6823 36.5154 21.3358 38.8299 21.8985C39.0881 21.9258 39.3107 22.0415 39.59 22.0318C40.2128 21.9835 41.0971 21.7384 41.5528 21.3175C41.1064 21.0919 39.9146 21.1569 39.6475 20.9713C39.5548 20.9069 39.8764 20.2007 39.9878 20.137C40.2466 19.9888 42.1452 19.7618 41.9184 18.5468C41.8249 18.0465 41.3626 16.6918 41.6755 16.2217C41.8329 16.1087 41.8146 15.906 41.9248 15.7544L42.5522 19.0851C43.268 21.4293 49.4027 20.3304 49.7305 20.0704C49.7771 20.0334 49.9485 17.9663 50.2422 17.6751C50.5877 17.3323 50.4711 17.2796 51.3291 17.6842C51.9573 18.0765 52.7152 18.4316 53.0892 19.1137C53.5439 19.7087 53.2665 20.9926 53.0029 21.0429C52.6225 21.0648 52.3188 20.8591 51.9384 20.8564C51.4288 20.7883 50.8787 20.8283 50.3973 20.7167C50.3776 20.6725 50.3229 20.6781 50.2891 20.6906C48.6587 21.3668 43.2345 22.3268 42.2693 20.2822C42.1353 20.0338 42.1044 19.7419 42.0187 19.4682L41.1949 20.3694L41.1941 20.4002C41.8547 20.6467 42.7274 20.2066 42.1155 21.4108C41.4853 22.0782 40.719 22.5799 39.8615 22.7889C38.4336 23.2037 36.5265 22.5828 36.945 20.7911C37.0369 20.443 37.2299 20.1398 37.3485 19.8106ZM38.6769 16.4829C39.1299 16.2106 38.6622 16.8135 38.8432 16.8716C39.1416 16.9124 39.2335 16.5699 39.472 16.4766C39.5731 16.5923 39.4418 16.8064 39.6244 16.8716C39.8629 16.7467 39.7436 16.4535 39.9829 16.3222C40.3435 16.4582 39.4147 17.8911 39.1794 17.2556C39.1794 17.2359 39.1591 17.2231 39.1458 17.2106C38.926 17.3101 38.6598 17.6258 38.4306 17.3503C38.1493 17.0123 38.4334 16.7624 38.6769 16.4829ZM45.527 16.2661C45.7746 16.0572 47.4838 15.8076 47.5797 16.1937C47.7305 16.8012 45.4792 17.945 45.4265 17.5538C45.409 17.4236 48.2465 16.4 45.1747 16.9039C44.7947 16.9661 45.4564 16.3498 45.527 16.2661ZM50.5831 19.0177C50.7124 18.9986 51.302 19.2277 51.2183 19.4099C50.9959 19.8933 50.4081 19.6721 50.1306 19.4197C50.1803 19.2234 50.3923 19.0732 50.5831 19.0177ZM51.8183 19.1159C52.1972 19.3097 52.6022 19.624 52.8155 19.9938L51.5201 19.7734C51.6106 19.5524 51.7558 19.3511 51.8183 19.1159ZM53.2977 16.3419C54.0952 15.8738 56.8547 18.1125 57.0851 18.2009L59.3238 15.6484C59.6286 15.4905 59.6363 18.6966 59.648 18.8625C59.7849 20.7813 59.2054 21.7438 59.222 21.4619C59.2556 20.8866 59.1537 17.3793 58.9799 16.8458C58.6526 16.994 57.7793 18.2967 57.4957 18.617C57.6701 18.9546 58.5185 19.9924 57.8682 20.9679C57.4077 21.6588 55.3037 22.4458 56.1939 19.812C56.2484 19.6506 56.6442 19.0618 56.5553 18.9138C55.9082 18.4324 55.2394 18.0021 54.502 17.7228C54.4262 17.8177 54.4515 17.9826 54.3019 18.0198C53.7707 18.1293 53.5651 17.6387 53.2275 17.3825C53.1314 17.2506 53.2303 16.5148 53.2977 16.3419ZM56.3757 15.7131C57.5846 15.131 57.4308 16.3341 56.9953 16.1628C56.9287 16.1179 56.9701 16.0043 56.8619 15.9902C56.7328 15.9958 56.5426 15.9243 56.4606 16.0435C56.7069 16.5985 57.9281 16.0192 57.9398 16.1959C57.9564 16.4465 56.4246 17.0475 56.2689 16.9124C56.2697 16.8106 56.3524 16.7292 56.3671 16.6273C55.8688 16.4018 55.9673 15.993 56.3757 15.7131ZM56.7469 19.5818C56.8493 19.4999 56.8304 19.3602 56.9532 19.2977C57.2705 19.5418 57.5181 19.8611 57.7061 20.1798C57.7722 20.3817 56.4829 20.8836 56.4199 20.398C56.4093 20.0738 56.6556 19.8605 56.7469 19.5818ZM61.3421 19.2506C61.4521 19.219 61.4869 20.1555 61.8951 20.3855C62.4032 20.6176 62.9176 20.8633 63.5562 20.7539C64.0823 20.6936 66.6244 20.4794 66.4068 19.6029C66.2383 18.7137 66.1317 17.7986 65.9632 16.9152C65.8436 16.5949 66.0911 16.0733 66.2586 15.7944C66.3859 15.7747 66.8709 18.9874 66.919 19.3089C66.9499 19.7034 67.2861 20.036 67.6306 20.2605C68.4554 20.696 71.3378 20.5967 72.3058 20.1145C72.6072 19.182 73.1622 18.7604 72.7606 20.1314C73.1198 20.2548 73.5046 20.5307 73.9207 20.3503C74.3864 20.1054 73.8634 19.0885 73.8813 18.6934C73.8857 18.5955 74.1338 17.8072 74.2217 17.9538C74.5644 18.5255 74.4365 20.3988 75.36 20.438C75.5509 20.4332 75.7614 20.4283 75.8646 20.2711L75.4393 17.0807C75.3208 16.5265 75.0076 16.798 75.6014 15.7117C75.7471 15.4453 75.7807 16.1378 76.1797 16.313C76.4958 16.4519 76.7154 16.2677 76.5901 16.7222C76.4526 16.9566 76.4021 17.2856 76.0884 17.3847C75.8242 17.9293 77.1101 21.2417 75.2014 21.4521C74.7753 21.4991 74.3235 21.0306 74.2708 20.6576C73.7504 20.8659 74.0426 21.7953 72.5915 20.8156C72.151 20.5182 73.0774 20.9872 70.5682 21.3827C69.5548 21.5425 67.195 21.6841 66.6622 20.697C66.5956 20.5504 66.5562 20.3855 66.5098 20.2325C65.6773 21.4527 64.4213 21.6347 62.9701 21.7083C62.0091 21.7571 60.92 21.2906 61.1028 20.1945C61.1525 19.8717 61.1969 19.5357 61.3421 19.2506ZM62.5695 18.7595C62.7163 18.7332 64.0983 18.3389 64.0354 18.2317C63.8422 17.9025 62.0109 18.6952 62.7666 17.3461C63.3837 16.2444 64.8291 15.6643 64.898 16.0815C64.9254 16.2486 64.4205 17.1607 64.19 16.9572C64.1428 16.9066 64.1914 16.8119 64.1098 16.7853C63.6445 16.7246 62.9007 17.1497 63.7849 17.3608C63.8617 17.3791 65.7137 17.0785 64.2494 18.5321C63.6433 19.1336 61.7987 19.057 62.107 18.7875C62.258 18.7187 62.4066 18.7777 62.5695 18.7595ZM68.8952 18.6843C69.4196 18.1418 69.4204 17.7129 70.1823 18.3524C70.5696 18.6775 70.6742 18.7463 69.8061 19.3644C69.4781 19.279 69.1683 18.9341 68.8671 18.7728L68.8952 18.6843ZM69.6103 17.059C70.7023 16.5096 71.861 16.0998 72.9465 15.5312C73.5823 15.9848 69.5485 17.5327 69.3494 17.4058L69.6103 17.059ZM72.8483 22.4424C73.0743 22.2156 73.1795 21.9119 73.4862 21.7489C73.6388 21.7209 74.3333 22.1476 74.1944 22.3384C73.528 23.2544 73.5941 23.0143 72.8336 22.5182L72.8483 22.4424ZM78.0154 16.1628C78.2836 15.682 78.2528 17.2538 78.3081 17.619C78.3299 18.2281 78.3852 18.7805 78.4268 19.3777C78.5376 19.9055 78.5587 20.5657 78.1678 20.9749C77.9804 20.9089 77.7837 17.9779 77.7713 17.6393C77.7622 17.1131 77.7741 16.5923 78.0154 16.1628ZM13.3584 19.2156C13.4961 18.954 13.5587 19.5579 13.5991 19.6043C14.0946 20.173 16.1106 19.7199 16.5375 19.2408C16.776 18.9733 16.1064 17.4398 16.068 17.1109C16.0539 16.99 16.2148 15.8619 16.3964 16.174C16.6938 16.6852 16.7752 18.985 17.4048 19.4197C17.7808 19.0103 17.9835 17.2902 20.6849 18.1643C21.4154 18.5004 22.2351 18.7608 23.1263 18.6093C23.2081 18.6908 22.9147 19.3741 22.786 19.4255C22.4325 19.5663 21.2962 19.4915 21.0575 19.7095C21.0631 19.8366 21.219 19.9075 21.2996 20.0099C22.2894 20.8866 27.7076 20.255 29.2485 19.9474C30.2426 19.7491 29.6989 19.2301 30.2843 18.8836C30.7226 18.6242 29.7337 19.9315 30.8493 20.2148C31.2843 20.3252 31.4564 19.9476 31.6971 19.6948C31.6544 18.9146 31.5384 17.3861 31.2368 16.6506C31.1505 16.4401 31.4115 15.7702 31.5997 15.6063C31.761 15.7475 31.9084 15.9452 32.0978 16.0863C32.246 16.2211 32.5659 16.1348 32.5975 16.3761C32.5 16.6673 32.4081 16.9649 32.1616 17.1845C32.0811 17.172 31.9786 17.1903 31.9778 17.2723C32.125 19.7093 31.913 19.284 33.5281 20.0393C34.0409 20.279 33.769 20.3843 33.683 20.8788C33.5983 21.3662 32.9772 20.889 32.7666 20.7889L31.7174 20.4374C29.9346 22.0201 30.3389 20.1452 29.869 20.4479C29.1359 20.9204 28.4455 21.0173 27.6002 21.1587C25.9901 21.4281 23.3579 21.5299 21.7768 21.3153C21.2815 21.2092 20.7346 20.8494 20.6372 20.3475L20.6757 19.8907C20.5757 19.7962 18.149 20.8335 17.3004 20.504C16.805 20.3117 16.9132 19.8213 16.7038 19.6548C16.0143 20.8915 13.3232 21.2699 13.2385 20.3755C13.1471 19.9813 13.2524 19.5762 13.3584 19.2156Z" fill="#6D91B2"/>
<path fill-rule="evenodd" clip-rule="evenodd" d="M95.338 15.7465L95.7966 15.2988L95.4352 14.9583L95.8553 14.6168L95.4939 14.237L95.0854 14.5684L95.416 14.9382L94.9874 15.3668L95.338 15.7465ZM96.0972 17.7728C96.1844 17.7835 96.2808 17.7163 96.2808 17.7163C96.3387 17.6448 96.3122 17.5341 96.3122 17.5341C96.2186 17.3363 95.9381 17.4592 95.9381 17.4592C95.7759 17.5219 95.6138 17.6171 95.4524 17.7442L95.5431 17.5592C95.733 17.2877 95.7067 17.0199 95.7067 17.0199C95.6824 16.8993 95.5753 16.965 95.5753 16.965C95.3852 16.9914 95.3982 17.13 95.3982 17.13C95.3445 17.2507 95.4552 17.392 95.4552 17.392C95.3202 17.7499 95.2696 17.9299 95.3024 17.9327C95.5482 17.7649 95.8265 17.5977 95.9452 17.5685L96.0338 17.5691L96.0794 17.5942L96.0923 17.655L96.0852 17.7121L96.0972 17.7728ZM94.6004 8.92275C94.6004 8.92275 94.8639 9.34767 95.0524 9.19199C95.0524 9.19199 95.0903 9.09989 95.0204 8.95494C94.9504 8.80938 94.8747 8.72072 94.9074 8.87294C94.9074 8.87294 94.9775 9.01426 94.9125 9.03064C94.9125 9.03064 94.7998 9.08429 94.6761 8.89562C94.5518 8.70795 94.3797 8.27717 94.4119 8.51928L94.6004 8.92275ZM95.9429 12.58L96.0209 12.7114C96.1923 12.6407 96.4557 12.7108 96.8108 12.9213C96.5851 12.5893 96.2958 12.4758 95.9429 12.58ZM94.0949 11.651C94.1969 11.6403 94.337 11.581 94.2726 11.5273C94.2726 11.5273 94.2726 11.5002 94.337 11.5109C94.4012 11.5217 94.606 11.5431 94.7083 11.581C94.7083 11.581 94.8911 11.6132 94.7939 11.5217C94.6975 11.4302 94.6167 11.2688 94.3096 11.0431C94.3096 11.0431 94.2076 10.9139 94.369 10.9297C94.369 10.9297 94.5254 10.8975 94.4554 10.8218C94.3854 10.7467 94.4011 10.7196 94.3262 10.736C94.2505 10.7526 94.1212 10.736 94.1161 10.7846C94.1104 10.8325 94.0898 10.984 94.2291 11.086C94.369 11.1882 94.584 11.3874 94.584 11.3874C94.584 11.3874 94.3904 11.3389 94.2619 11.3281C94.1327 11.3174 93.8847 11.3445 93.8683 11.4352C93.8527 11.5273 93.9926 11.6615 94.0949 11.651ZM93.2072 10.8653C93.2821 10.6662 93.4434 10.4184 93.5298 10.2947C93.6163 10.1712 93.5999 10.424 93.5999 10.424C93.5999 10.424 93.5884 10.8117 93.5677 10.9403C93.5456 11.0696 93.5835 11.086 93.5835 11.086C93.9977 10.4297 93.6533 9.98839 93.5513 9.79485C93.4491 9.60051 93.3256 9.7248 93.3256 9.7248C93.3256 9.7248 93.1149 10.0147 93.0136 10.2034C92.9108 10.3918 92.9806 10.4775 92.9806 10.4775L93.2072 10.8653ZM95.416 10.8662C95.251 10.8761 95.2117 10.7004 95.2117 10.7004C95.1431 10.5147 95.1917 10.2913 95.1917 10.2913C95.1917 10.0291 95.5132 10.1362 95.5132 10.1362C95.616 10.1726 95.7109 10.2404 95.7966 10.3405C95.8652 10.4568 95.8259 10.671 95.8259 10.671C95.7281 10.9146 95.416 10.8662 95.416 10.8662ZM96.6251 9.89266C96.6251 9.89266 96.83 9.87343 96.8987 9.95055C96.8987 9.95055 96.8701 10.0777 96.6843 10.204C96.6843 10.204 96.4108 10.4376 96.0895 10.5741L95.7966 10.0777L96.6251 9.89266ZM92.7936 11.8401L94.4311 12.5515C94.6083 12.873 94.6704 13.2784 94.6167 13.7692L94.9676 14.0912C95.1824 14.052 95.3967 13.6621 95.7087 13.2527C95.8946 13.0386 96.0308 13.2722 96.0308 13.2722C96.1573 13.4841 96.2551 13.8177 96.333 14.3348C96.5029 15.1668 96.343 15.6881 95.8844 16.0687C95.1917 16.5944 94.5105 16.4494 94.1198 15.9709C94.3461 16.3065 94.6747 16.5407 95.1046 16.6721C96.0016 16.7893 96.8165 16.1579 96.8207 15.2795C96.8207 14.4504 96.6357 13.7556 96.2644 13.1942C96.1116 13.0286 96.0008 12.9315 95.933 12.9021C95.6966 12.7264 95.4988 12.7193 95.338 12.8829L95.036 13.2629L94.9775 13.3307C94.9297 13.1058 94.8153 12.8557 94.6368 12.5808L95.0854 12.6201C95.6617 12.6201 95.9994 12.1816 96.0988 11.3053C96.0694 11.1883 96.1958 11.1295 96.1958 11.1295L97.0543 10.5639C97.2784 10.3498 97.1521 10.1362 97.1521 10.1362L96.83 9.59062C96.6707 9.40073 96.3944 9.38129 96.0016 9.5321C95.5889 9.66693 95.3609 9.70924 95.3188 9.65843L95.4646 9.42482L94.6269 9.75561L94.8905 10.1455C94.8803 10.3405 95.0168 10.6133 95.0168 10.6133C95.0718 10.7561 95.1925 10.9383 95.3773 11.1589C95.4745 11.2759 95.6694 11.3053 95.6694 11.3053C95.631 11.5496 95.5423 11.7816 95.2996 12.0353C94.999 12.2515 94.6574 12.2709 94.2754 12.0944L93.6519 11.8008L92.7936 11.4409L92.5201 11.3439C92.3929 11.3146 92.4421 11.451 92.4421 11.451L92.7936 11.8401ZM105.323 15.221C104.577 15.1089 103.849 14.9724 103.139 14.8111C102.903 14.7826 102.785 14.6232 102.788 14.3348C102.818 13.9754 103.055 13.8163 103.5 13.857C103.326 13.7248 103.115 13.6248 102.828 13.477C102.612 13.3993 102.609 12.9857 102.749 12.8436C102.8 12.7636 102.988 12.7179 103.314 12.7072C103.227 12.5221 102.72 12.415 102.72 12.415C102.43 12.3345 102.234 12.2108 102.135 12.0452C102.041 11.7553 102.129 11.4954 102.398 11.266C102.788 10.9061 103.285 10.6226 103.285 10.6226C104.286 9.92059 104.919 9.31712 105.271 8.89564L104.776 9.03572L101.983 11.1824C100.617 11.2702 99.5818 10.7004 99.3846 10.107C99.2111 9.57624 99.3831 9.17784 99.9595 9.01995L99.8917 9.00072C99.3275 9.15497 99.0281 9.50499 98.9368 9.94123C98.8546 10.5939 99.3524 11.081 100.428 11.4024C101.071 11.5867 101.389 11.5895 101.881 11.3925C101.686 11.5482 101.554 11.798 101.608 12.0944C101.656 12.3472 101.978 12.5515 102.485 12.61C102.333 12.6608 102.218 12.7744 102.163 12.9122C102.069 13.2329 102.271 13.4699 102.769 13.6228C102.905 13.6428 102.866 13.7106 102.866 13.7106C102.417 13.7098 102.225 13.9341 102.29 14.3834C102.363 14.6198 102.623 14.834 103.07 15.0261C103.402 15.1767 104.251 15.3589 105.615 15.5717C105.831 15.6103 105.634 15.7274 105.634 15.7274L105.342 15.7674L105.351 15.8152L106.883 15.7466L106.483 15.3866L105.323 15.221ZM96.6744 11.8302L96.5664 11.7039C96.5387 11.6045 96.5808 11.566 96.6936 11.5867C96.6936 11.5867 96.8399 11.5288 96.7037 11.4217C96.7037 11.4217 96.4594 11.3439 96.4008 11.5381C96.4008 11.5381 96.3715 11.616 96.4794 11.733L96.9278 12.2009C96.6628 12.1387 96.4709 12.1322 96.3523 12.1816C96.3523 12.1816 96.118 12.1622 96.1958 12.3088C96.1958 12.3088 96.2158 12.3958 96.3715 12.4444C96.3715 12.4444 96.5758 12.3958 96.5958 12.2786C96.8035 12.2743 96.9792 12.3001 97.1228 12.3565L96.6744 11.8302ZM105.859 17.2471L105.752 17.2278L105.654 17.16L104.552 16.5557L103.168 15.8245C102.772 15.6346 102.456 15.4395 102.222 15.2403L102.095 15.1038C102.008 14.9775 102.018 15.0552 102.018 15.0552L102.398 15.6302C102.759 16.0102 103.754 16.5165 104.894 17.1015C105.129 17.2671 104.894 17.2663 104.894 17.2663L104.601 17.2857C105.011 17.4714 105.743 17.5485 105.986 17.7627H106.054L105.918 17.3349L105.859 17.2471ZM103.269 19.7875C103.15 19.7931 103.049 19.7638 102.967 19.6996C102.967 19.6996 103.065 19.5146 103.298 19.5538C103.298 19.5538 103.493 19.5245 103.572 19.6123C103.612 19.6589 103.552 19.7782 103.269 19.7875ZM99.0925 19.7601C98.3119 19.9652 97.737 20.0144 97.62 19.9067C97.6813 19.4968 97.6942 19.2888 97.6985 19.1468L97.737 18.9905C97.8248 18.6775 98.2441 18.5034 98.7704 18.669C98.9761 18.7317 99.3047 18.9239 99.7559 19.2445L100.097 19.4196L99.0925 19.7601ZM102.227 17.4863L102.121 17.4764L102.043 17.4663L101.994 17.4371L102.013 17.3592L102.062 17.3007L102.13 17.2521H102.198L102.257 17.2722L102.295 17.34L102.315 17.4177L102.335 17.5056L102.227 17.4863ZM103.217 19.0303C103.217 19.0303 102.836 19.0882 102.661 19.3903C102.661 19.3903 102.393 19.0382 102.083 18.6147C102.248 18.2748 102.327 17.9242 102.383 17.6999L102.49 17.72L102.549 17.7584L102.588 17.807L102.627 17.7878V17.6999L102.608 17.5928L102.501 17.5349L102.393 17.5056C102.393 17.2228 102.266 17.1165 102.266 17.1165C102.198 17.0086 102.072 17.1357 102.072 17.1357L102.003 17.1936L101.926 17.3592C101.848 17.6706 102.198 17.6513 102.198 17.6513C102.354 17.622 102.276 17.8562 102.276 17.8562C102.242 18.0076 102.194 18.3011 102.066 18.5904C101.804 18.2319 101.516 17.8256 101.335 17.5392L101.209 17.3635L101.179 17.3058V17.2572H101.247L101.354 17.3149L101.471 17.3349L101.578 17.325L101.228 16.9843L101.081 16.8764L100.819 16.6823L100.584 16.5359L100.564 17.0236L100.652 17.1114L100.769 17.1885L100.935 17.4222L101.286 17.9777L101.627 18.484L101.901 18.9125L101.911 18.9269C101.846 19.0603 101.775 19.2053 101.696 19.3609C101.777 19.2125 101.851 19.0718 101.92 18.9396L102.427 19.653C102.427 19.653 102.193 19.9265 102.125 20.1017C102.125 20.1017 101.734 20.6379 101.345 20.218L101.257 20.1116C101.192 20.031 101.273 19.851 101.294 19.7759C101.316 19.7002 101.294 19.6846 101.294 19.6846C101.16 19.5931 100.894 20.0259 100.894 20.0259L100.826 20.1523C100.658 20.4887 100.472 20.713 100.184 20.793C99.6767 20.8158 99.4516 20.565 99.5117 20.0429L99.4988 20.0415C99.618 19.9937 99.7366 19.9417 99.853 19.8866C100.195 19.7239 100.585 19.6496 101.023 19.6631C101.364 19.3018 101.316 19.1953 101.316 19.1953C100.701 19.2145 99.8437 18.6983 99.8437 18.6983L99.5403 18.5033L99.2188 18.309C98.8097 18.0555 98.419 18.1827 98.419 18.1827C97.8542 18.4068 97.6691 18.7568 97.6691 18.7568C97.5219 18.9339 97.4278 19.2267 97.3857 19.6338L97.3564 19.8188C97.0529 19.8281 96.86 19.6437 96.76 19.1839C96.7735 19.1817 96.7879 19.1789 96.8007 19.176L97.1713 18.854C97.5612 18.5133 97.62 18.1633 97.3756 17.5976C97.2007 17.2899 97.1165 16.9328 97.1228 16.5257L97.3857 16.7207L97.1228 16.0587L97.1029 15.9508L97.0543 15.9022L96.7136 16.2437V16.6235C96.6964 16.995 96.7914 17.5292 96.9956 17.9576C97.1422 18.3282 97.1321 18.6789 97.1321 18.6789C97.1428 18.9011 96.8308 18.9238 96.1958 18.7469C95.0475 18.5019 94.3319 18.294 94.0511 18.124C93.5499 17.7756 93.8562 17.16 94.9481 16.867L94.9583 16.8085C94.1856 16.9772 93.6813 17.2571 93.4462 17.6462C93.2707 18.0361 93.2707 18.3969 93.7784 18.5912C93.8827 18.6562 94.3704 18.7989 95.2411 19.0204C95.9008 19.1854 96.3407 19.2495 96.7286 19.1888L96.7136 19.2145C96.3622 20.0144 96.6252 20.53 98.137 20.4322C98.5819 20.3508 99.0061 20.2316 99.4095 20.0765L99.3846 20.1208C99.2182 20.7557 99.3253 21.1614 99.7073 21.3385C100.154 21.4691 100.504 21.297 100.76 20.8221L101.013 20.4322C101.013 20.4322 101.159 20.2087 101.209 20.413C101.298 20.8022 101.549 21.0464 101.988 20.8899C102.213 20.7636 102.274 20.6443 102.427 20.4322L102.71 20.0338C102.925 20.3251 103.2 20.415 103.431 20.3644C103.431 20.3644 103.754 20.3243 103.734 19.7894L103.674 19.3317C103.674 19.3317 103.617 18.9425 103.217 19.0303ZM105.289 16.4758C105.304 16.5458 105.383 16.6401 105.699 16.743L105.678 16.6916C105.678 16.6916 105.246 16.4859 105.551 16.4551C105.551 16.4551 105.668 16.4144 105.846 16.4966L106.425 16.743C106.131 16.5373 105.815 16.3938 105.646 16.3424C105.646 16.3424 105.32 16.2401 105.289 16.4758ZM102.005 13.3835L101.493 13.2756L101.348 13.8191L101.881 13.9663L102.005 13.3835ZM97.3163 20.7401L97.2479 20.7501L97.1315 20.9057L98.6819 20.8472C98.8097 20.7893 98.8283 20.6721 98.8283 20.6721L98.4082 20.6822L97.3163 20.7401ZM94.2461 15.9508C94.2461 15.9508 94.5676 15.8539 94.2754 15.5423C94.2754 15.5423 93.7191 15.0654 93.5535 15.1725L93.5734 15.2304C93.5734 15.2304 93.8669 15.601 93.5835 15.6395C93.5835 15.6395 93.3392 15.6395 93.1349 15.4939C92.5523 15.0425 92.1743 14.721 92.0037 14.5291C92.0037 14.5291 91.8573 14.4805 91.9059 14.6168L92.0624 14.7826C92.2865 15.016 92.7351 15.4739 93.427 15.8338C93.427 15.8338 93.7106 16.0102 94.2461 15.9508ZM93.4657 16.9472C93.427 17.045 93.642 17.025 93.642 17.025C93.9248 16.9086 93.7784 16.665 93.7784 16.665C93.7005 16.548 93.3199 16.5865 93.3199 16.5865L92.9885 16.5964C93.162 16.4986 93.3313 16.3559 93.4948 16.168C93.612 16.0223 93.3784 16.0415 93.3784 16.0415H93.2027C93.0078 16.0223 93.0665 16.1873 93.0665 16.1873C93.1049 16.2944 92.9885 16.4015 92.9885 16.4015L92.6672 16.5772C92.4814 16.6551 92.7936 16.7037 92.7936 16.7037L93.4462 16.6936C93.6606 16.6843 93.4657 16.9472 93.4657 16.9472ZM104.29 18.0463L102.593 16.6529C102.593 16.6529 102.408 16.5258 102.495 16.448L102.828 16.4387L102.798 16.3701L102.398 16.1851L101.54 15.8539L101.676 16.3316L101.716 16.3802L101.793 16.3701L101.92 16.448L102.154 16.643L102.944 17.325L103.519 17.8121L104.133 18.2991C104.133 18.2991 104.884 18.9032 104.972 19.1569C104.988 18.8068 104.748 18.437 104.29 18.0463ZM95.7923 19.683L95.9774 19.6253C96.0944 19.5273 95.9381 19.4202 95.9381 19.4202C95.7923 19.2939 95.5875 19.3425 95.5875 19.3425C95.451 19.3425 95.431 19.4496 95.431 19.4496C95.631 19.4296 95.748 19.4688 95.7824 19.5666L95.7437 19.5959C95.5581 19.5959 95.3824 19.6739 95.3824 19.6739C95.1639 19.7389 95.1481 20.0245 95.3239 20.1124C95.6118 20.2944 95.9429 20.3365 96.318 20.2387C95.8838 20.163 95.6138 20.0686 95.5089 19.9559C95.3038 19.6824 95.7923 19.683 95.7923 19.683ZM92.3059 14.042C92.4907 13.9941 92.5009 13.9056 92.5009 13.9056L92.3936 13.857C92.3059 13.7785 92.4907 13.7791 92.4907 13.7791C92.5794 13.7584 92.7187 13.7677 92.9108 13.8084L92.9393 13.7562L92.9108 13.857L92.9399 13.9449L93.0179 14.042L93.0756 14.1206L93.1442 14.1497L93.2128 14.1305L93.1736 14.042L93.0956 13.9649C93.1349 13.7598 93.2807 13.8084 93.2807 13.8084C93.2321 13.9056 93.2807 14.2277 93.2807 14.2277C93.3977 14.4997 93.5242 14.5483 94.0319 14.5583C94.5147 14.5532 94.8461 14.6119 95.0261 14.7332L95.0461 14.6848C94.734 14.3534 93.8663 14.4026 93.8663 14.4026C93.3106 14.354 93.4948 13.9248 93.4948 13.9248C93.6019 13.4863 93.3977 13.5355 93.3977 13.5355L93.2906 13.5448L93.1634 13.5841L93.0665 13.6228L92.9563 13.7149C92.8729 13.5321 92.4907 13.3892 92.4907 13.3892C92.2379 13.2629 92.1601 13.0772 92.3351 13.0386L92.4029 12.99C92.4029 12.7665 92.1593 12.8244 92.1593 12.8244C91.8474 13.0185 92.1593 13.2821 92.1593 13.2821L92.3251 13.4285L92.6085 13.6228H92.2766C91.9638 13.5943 91.9352 13.8084 91.9352 13.8084C91.9836 14.0904 92.3059 14.042 92.3059 14.042ZM105.06 10.4862V10.5255C105.351 10.9219 105.669 11.1524 106.016 11.2174C106.141 11.2397 106.254 11.246 106.357 11.2366C106.357 11.2366 106.377 10.7982 106.026 10.3791C106.026 10.3791 105.908 10.3212 105.576 10.282C105.781 10.6105 105.869 10.8676 105.84 11.0518L105.06 10.4862ZM103.802 8.75212C103.822 8.66789 104.075 8.58652 104.543 8.47011C104.075 8.47011 103.792 8.58652 103.636 8.75212C103.47 9.00212 103.567 9.06428 103.919 9.01569L103.978 8.92783H103.734C103.715 8.81083 103.802 8.75212 103.802 8.75212ZM103.382 7.66098L103.48 7.68101C103.674 7.7296 103.509 7.92455 103.509 7.92455L103.344 7.97312L103.275 7.73951C103.284 7.71015 103.32 7.68445 103.382 7.66098ZM100.731 9.69771L101.286 8.24864C101.646 8.34298 102.286 8.3029 103.207 8.12941L103.305 8.36302L103.451 8.31445L103.382 8.0124C103.646 7.99296 103.754 7.87596 103.773 7.67089C103.716 7.53809 103.567 7.50954 103.324 7.58303C103.324 7.58303 103.12 7.64092 103.129 7.81725L103.187 8.05167C102.681 8.16443 102.178 8.24521 101.288 8.24582L101.404 7.94378C101.404 7.94378 101.441 7.72878 101.559 7.83669L101.656 8.06079L101.806 6.80242C101.806 6.80242 101.54 6.95041 101.393 7.2231C101.296 7.40104 101.163 7.68951 100.994 8.09014C100.525 9.50276 100.194 10.2627 99.9601 10.4568C100.37 10.2732 100.627 10.0198 100.731 9.69771ZM104.964 13.8785C104.888 13.8084 104.621 13.8155 104.223 13.8198L104.593 13.5762C104.808 13.4013 104.886 13.2357 104.886 13.2357C104.604 13.1378 104.544 13.255 104.544 13.255C104.447 13.2456 104.506 13.4793 104.506 13.4793L104.106 13.742L104.009 13.8005V13.8491L104.789 13.9084C104.943 13.892 105.013 14.0834 104.837 14.2483C105.179 14.317 105.169 13.9084 104.964 13.8785ZM97.7728 17.2699L98.1333 16.8507L98.2404 16.7151L98.2991 16.7043L98.3669 16.7343L98.3862 16.7922L98.3961 16.8608L98.4447 16.88L98.474 16.8608L98.5133 16.7829L98.5232 16.6857L98.5034 16.5879C98.3469 16.4223 98.2113 16.6464 98.2113 16.6464L97.8505 17.075C97.8934 16.8142 97.8906 16.593 97.8606 16.4322C97.7533 16.228 97.627 16.4422 97.627 16.4422C97.5185 16.5102 97.607 16.6071 97.607 16.6071L97.6556 16.6365L97.7141 16.6857L97.7627 16.7151L97.7728 16.7829L97.7341 17.2213L97.7728 17.2699ZM103.443 11.4852L103.404 12.0017L103.925 12.0972L104.009 11.5045L103.443 11.4852ZM106.093 14.8797C105.625 13.1464 105.211 11.9231 104.914 11.2267C104.738 10.7411 104.497 10.6469 104.192 10.9447C104.192 10.9447 104.309 11.0617 104.416 10.9832C104.416 10.9832 104.503 10.7891 104.621 10.9547C105.069 11.7423 105.586 13.477 105.986 14.8603L106.093 14.8797ZM102.485 9.00577L102.71 9.01569C102.71 9.01569 103.1 8.83006 103.168 8.83936C103.168 8.83936 102.905 8.73288 102.476 8.86C102.476 8.86 102.008 8.97642 101.891 9.21063C101.891 9.21063 101.842 9.37562 102.018 9.43412L102.29 9.59062C102.29 9.59062 102.388 9.69771 102.251 9.74628C102.056 9.80621 101.712 9.75418 101.14 9.59062L101.131 9.63919C101.484 9.92544 101.803 10.0133 102.086 9.90278L102.856 9.51207L102.466 9.23917C102.466 9.23917 102.29 9.07419 102.485 9.00577ZM106.345 12.263L105.946 12.5258L105.858 12.5744V12.6235L106.629 12.6922C106.783 12.6764 106.853 12.8671 106.678 13.0329C107.018 13.1013 107.008 12.6922 106.804 12.6622C106.727 12.5922 106.46 12.5993 106.063 12.6043L106.433 12.3602C106.648 12.1859 106.726 12.0201 106.726 12.0201C106.444 11.9231 106.385 12.0395 106.385 12.0395C106.287 12.0294 106.345 12.263 106.345 12.263ZM98.4384 10.1647L98.5653 10.3012C98.5653 10.3012 98.771 10.467 98.6441 10.6419C98.6441 10.6419 98.4684 10.8467 98.1856 11.0417C98.1856 11.0417 97.8833 11.1781 97.8349 10.9154C97.8084 10.6676 97.9483 10.3726 98.2534 10.0291L98.4384 10.1647ZM95.3753 8.32578C95.4131 8.34158 95.4552 8.33652 95.4552 8.33652C96.1573 9.09708 97.4442 9.63919 97.4442 9.63919L98.0584 9.95055C97.7957 10.2334 97.757 10.5546 97.757 10.5546C97.6991 10.8947 97.6892 11.1581 97.7276 11.3439C97.8448 11.733 98.1856 11.5482 98.1856 11.5482C98.6048 11.3832 98.7704 10.9253 98.7704 10.9253C98.804 10.7297 98.8176 10.5091 98.8097 10.2627C98.7611 9.90278 98.4684 9.69771 98.4684 9.69771C99.151 8.88856 99.8923 8.03164 100.516 7.06741L100.638 6.47266C100.384 6.901 99.8852 7.56319 99.1631 8.44724L98.2698 9.50417C98.1147 9.34849 97.2979 9.06428 97.2979 9.06428C96.7128 8.83065 96.2065 8.45089 96.2065 8.45089L96.0895 8.34359L96.4887 8.31445C96.4887 8.31445 96.0802 8.02941 95.7194 7.91665C95.3589 7.80368 95.2196 7.69031 95.2303 7.79801C95.2411 7.90592 95.3103 8.25007 95.3103 8.25007C95.3103 8.25007 95.338 8.30938 95.3753 8.32578ZM99.0046 16.8486L98.9953 17.1892C98.9953 17.1892 98.8489 17.3256 98.7904 17.1699L98.8004 17.0922L98.8297 16.7707H98.7512L98.7411 16.8871V16.9851L98.7218 17.1315L98.7125 17.2679C98.7119 17.4114 98.7803 17.4471 98.9168 17.3742L98.9662 17.3157L99.0239 17.3649L99.1024 17.4236L99.1897 17.4036L99.2383 17.355L99.2775 17.2679L99.2874 16.8094L99.2188 16.8871L99.2089 17.18C99.2089 17.18 99.1704 17.2965 99.0631 17.2092L99.0826 16.8292L99.0046 16.8486ZM99.7994 16.875L99.9652 16.8357L100.112 16.7871L100.209 16.758L100.277 16.6993V16.6701L100.131 16.7094L99.9166 16.758L99.7903 16.7972L99.6539 16.8264H99.5267L99.4874 16.9436L99.6539 16.9043L99.7994 16.875ZM106.615 14.8232C106.371 14.8425 106.439 14.4927 106.439 14.4927C106.544 14.4455 106.67 14.4747 106.82 14.5797L106.615 14.8232ZM106.79 14.4927L106.634 14.4147C106.4 14.3362 106.303 14.4147 106.303 14.4147C106.235 14.6062 106.29 14.7554 106.468 14.8625C106.644 14.9888 106.752 14.8919 106.752 14.8919L106.918 14.7162L106.947 14.7069L107.044 14.6775L106.79 14.4927ZM96.7721 8.06079L96.7622 7.84742C96.5571 7.68162 96.8399 7.59315 96.8399 7.59315C97.6884 7.13524 99.1024 6.61902 99.1024 6.61902L99.1603 6.47266C98.6633 6.62832 97.5869 7.09312 96.7521 7.48606C96.4794 7.6223 96.4879 7.87373 96.7721 8.06079ZM98.2726 8.27516L98.3704 8.10005L98.0584 8.25594C98.0584 8.25594 97.7369 8.42154 97.6592 8.1873C97.6592 8.1873 97.6985 7.97312 97.8248 8.00228C97.8248 8.00228 97.942 7.98305 97.9805 8.12941C97.9805 8.12941 98.0584 7.98223 97.9997 7.83669C97.9997 7.83669 97.8742 7.71015 97.7177 7.89519L97.5612 8.15794C97.5612 8.15794 97.4434 8.35289 97.62 8.40148L97.6792 8.41161L97.5906 8.65514L98.2726 8.27516ZM99.736 18.0463L100.038 17.7728L100.438 18.1633L100.794 17.742L100.32 17.3329L100.077 17.6657L99.5773 17.2256L99.271 17.6341L99.736 18.0463ZM99.4623 7.42735C99.4623 7.42735 99.5603 7.37876 99.6381 7.25245C99.6381 7.25245 99.716 7.06741 99.5895 6.96032L99.4532 6.87247L99.3753 6.99959L99.4725 7.08686C99.4725 7.08686 99.6381 7.24252 99.4431 7.31035C99.4431 7.31035 99.2089 7.36885 99.2482 7.18381C99.2475 6.97187 99.3253 6.79332 99.4824 6.64816C99.4824 6.64816 99.1024 6.8925 99.1411 7.33038C99.1411 7.33038 99.1411 7.61239 99.4623 7.42735Z" fill="#6D91B2"/>
</svg>
