<svg width="128" height="48" viewBox="0 0 128 48" fill="none" xmlns="http://www.w3.org/2000/svg">
<g id="Type=Bank, Name=Sohar, Color=Original">
<g id="Layer_1" clip-path="url(#clip0_4361_26296)">
<path id="Vector" d="M38.6613 6.05469C35.1485 6.3505 31.8815 7.97759 29.529 10.603C27.1764 13.2284 25.9161 16.6536 26.006 20.1777C26.0958 23.7018 27.5291 27.0583 30.0124 29.5604C32.4957 32.0625 35.8414 33.5209 39.3647 33.6373L38.6613 6.05469Z" fill="url(#paint0_linear_4361_26296)"/>
<path id="Vector_2" d="M40.7527 16.3906L40.0493 43.9991C43.6197 43.9491 47.0322 42.5191 49.5715 40.0087C52.1109 37.4983 53.58 34.1025 53.6709 30.5329C53.7618 26.9633 52.4676 23.4971 50.0594 20.8607C47.6511 18.2243 44.3159 16.6223 40.7527 16.3906Z" fill="url(#paint1_linear_4361_26296)"/>
<path id="Vector_3" d="M39.8408 6C39.4422 6 39.0506 6.0211 38.6685 6.05393L39.6321 44H40.0612L41.0178 6.05627C40.6286 6.0211 40.237 6 39.8408 6Z" fill="#F06E30"/>
<path id="Vector_4" d="M64.3659 20.7633C63.8221 20.43 63.2492 20.1467 62.6543 19.9169C61.503 19.4292 60.4175 18.979 60.4175 18.0411C60.4175 17.1033 61.3413 16.5757 62.251 16.5757C62.7263 16.5756 63.1945 16.6907 63.6156 16.911C63.8455 17.0284 64.1088 17.0634 64.3615 17.01C64.6141 16.9567 64.8408 16.8183 65.0036 16.6179L65.4726 16.0388L65.3928 15.9731C64.5028 15.2008 63.3637 14.7761 62.1853 14.7773C60.1408 14.7773 58.537 16.1841 58.537 17.9919C58.537 19.0845 59.0529 19.9802 60.0728 20.6507C60.5933 20.97 61.1428 21.2393 61.7141 21.455C62.9122 21.9497 64.0423 22.4163 64.0423 23.5652C64.0423 24.503 63.2123 25.2064 62.108 25.2064C60.8067 25.2064 59.8805 24.4092 59.3319 23.741L59.2592 23.6519L57.9556 24.9274L58.0165 25.0001C58.5189 25.6237 59.155 26.1266 59.8778 26.4715C60.6005 26.8165 61.3915 26.9947 62.1924 26.9931C64.3542 26.9931 65.9227 25.523 65.9227 23.4972C65.9321 22.3788 65.4046 21.4503 64.3659 20.7633Z" fill="black"/>
<path id="Vector_5" d="M71.4467 18.6251C70.6162 18.6182 69.8023 18.8577 69.1079 19.3134C68.4135 19.769 67.8699 20.4203 67.5456 21.1849C67.2214 21.9496 67.1312 22.7932 67.2864 23.6091C67.4416 24.425 67.8353 25.1765 68.4176 25.7687C68.9999 26.3609 69.7448 26.767 70.558 26.9359C71.3711 27.1048 72.2161 27.0287 72.9861 26.7173C73.756 26.4059 74.4164 25.8732 74.8836 25.1866C75.3508 24.4999 75.6039 23.6901 75.6108 22.8596V22.8174C75.6379 21.733 75.2333 20.6822 74.4858 19.8961C73.7384 19.1099 72.7093 18.6528 71.6249 18.6251H71.4467ZM71.4467 25.3074C70.0962 25.3074 69.0763 24.2406 69.0763 22.8221C69.0763 21.4036 70.0962 20.3368 71.4467 20.3368C72.7972 20.3368 73.8148 21.4106 73.8148 22.8174C73.8148 24.2242 72.7972 25.3074 71.4467 25.3074Z" fill="black"/>
<path id="Vector_6" d="M81.4348 18.6242C80.6403 18.6258 79.8679 18.885 79.2331 19.3627V16.3686C79.2063 15.939 79.0168 15.5357 78.7032 15.2408C78.3896 14.9459 77.9754 14.7816 77.545 14.7812H77.4395V26.8539H79.2355V21.3885C79.4953 21.0662 79.8227 20.8048 80.1946 20.6229C80.5666 20.441 80.9739 20.343 81.3879 20.3358C81.6829 20.3337 81.9747 20.3982 82.2414 20.5244C82.5081 20.6507 82.7429 20.8354 82.9283 21.065C83.1628 21.351 83.3715 21.7684 83.3715 22.8211V26.8539H85.1675V22.9055C85.1675 21.6066 84.933 20.7531 84.3773 20.0497C84.0285 19.6029 83.5818 19.2421 83.0717 18.995C82.5616 18.7478 82.0016 18.621 81.4348 18.6242Z" fill="black"/>
<path id="Vector_7" d="M102.378 18.6751C102.167 18.6403 101.953 18.6231 101.74 18.6235C101.308 18.6105 100.878 18.6891 100.479 18.854C100.08 19.0188 99.7201 19.2663 99.4233 19.5801C99.3025 19.2596 99.0866 18.9837 98.8046 18.7893C98.5226 18.5948 98.1879 18.4912 97.8454 18.4922H97.7422V26.8533H99.5382V21.5801C99.7461 21.2223 100.039 20.9215 100.391 20.7043C100.744 20.487 101.144 20.3602 101.557 20.3351C101.756 20.3291 101.955 20.3504 102.148 20.3984L102.263 20.4312L102.474 18.6915L102.378 18.6751Z" fill="black"/>
<path id="Vector_8" d="M93.4517 19.4629C92.763 18.9032 91.8982 18.6058 91.0109 18.6235C90.3185 18.6154 89.6367 18.7936 89.0367 19.1393C88.4057 19.5219 87.8836 20.0604 87.5208 20.703C87.1579 21.3457 86.9665 22.0708 86.9649 22.8088C86.9632 23.5468 87.1514 24.2728 87.5114 24.917C87.8713 25.5613 88.391 26.1021 89.0203 26.4875C89.638 26.8355 90.3348 27.0188 91.0438 27.0197C91.8806 27.03 92.6968 26.7601 93.3626 26.253V26.8533H95.1094V18.4688H95.0062C94.6795 18.4698 94.3598 18.5638 94.0845 18.7399C93.8092 18.9159 93.5897 19.1667 93.4517 19.4629ZM93.3134 21.3855V24.2577C93.0746 24.5779 92.7654 24.8389 92.4096 25.0206C92.0539 25.2024 91.6612 25.2999 91.2618 25.3058C90.9379 25.3104 90.6162 25.2512 90.3152 25.1316C90.0141 25.0119 89.7396 24.8341 89.5073 24.6083C89.275 24.3825 89.0894 24.1132 88.9612 23.8157C88.833 23.5182 88.7646 23.1983 88.7601 22.8744V22.8158C88.7373 22.1803 88.9677 21.5618 89.4008 21.0962C89.8339 20.6306 90.4341 20.356 91.0696 20.3328H91.1774C91.5898 20.3354 91.9963 20.4315 92.3663 20.6139C92.7362 20.7962 93.0601 21.06 93.3134 21.3855Z" fill="black"/>
<g id="international">
<path d="M58.9938 30.2216C58.9164 30.2216 58.8501 30.194 58.7948 30.1387C58.7395 30.0834 58.7119 30.0153 58.7119 29.9342C58.7119 29.8532 58.7395 29.7868 58.7948 29.7352C58.8501 29.68 58.9164 29.6523 58.9938 29.6523C59.0712 29.6523 59.1375 29.68 59.1928 29.7352C59.248 29.7868 59.2757 29.8532 59.2757 29.9342C59.2757 30.0153 59.248 30.0834 59.1928 30.1387C59.1375 30.194 59.0712 30.2216 58.9938 30.2216ZM59.1872 30.7909V33.8086H58.8003V30.7909H59.1872Z" fill="black"/>
<path d="M62.1968 30.7356C62.5579 30.7356 62.8526 30.848 63.0811 31.0728C63.3095 31.2939 63.4238 31.6163 63.4238 32.04V33.8086H63.0424V32.0842C63.0424 31.7563 62.9595 31.5057 62.7937 31.3325C62.6316 31.1594 62.4086 31.0728 62.1249 31.0728C61.8338 31.0728 61.6017 31.1649 61.4285 31.3491C61.2553 31.5334 61.1687 31.8042 61.1687 32.1616V33.8086H60.7819V30.7909H61.1687V31.3049C61.2646 31.1207 61.4027 30.9807 61.5833 30.8849C61.7638 30.7854 61.9683 30.7356 62.1968 30.7356Z" fill="black"/>
<path d="M65.5009 31.117V32.9906C65.5009 33.1749 65.5359 33.302 65.6059 33.372C65.6759 33.442 65.7993 33.477 65.9762 33.477H66.3299V33.8086H65.9154C65.6427 33.8086 65.4401 33.746 65.3074 33.6207C65.1748 33.4918 65.1085 33.2817 65.1085 32.9906V31.117H64.6884V30.7909H65.1085V30.0337H65.5009V30.7909H66.3299V31.117H65.5009Z" fill="black"/>
<path d="M70.4168 32.145C70.4168 32.2777 70.4131 32.379 70.4058 32.449H67.9021C67.9131 32.6775 67.9684 32.8727 68.0679 33.0349C68.1673 33.197 68.2982 33.3204 68.4603 33.4052C68.6224 33.4862 68.7993 33.5268 68.9909 33.5268C69.2414 33.5268 69.4515 33.466 69.6209 33.3444C69.7941 33.2228 69.9084 33.0588 69.9636 32.8525H70.3726C70.2989 33.1472 70.1405 33.3886 69.8973 33.5765C69.6578 33.7607 69.3557 33.8529 68.9909 33.8529C68.7072 33.8529 68.4529 33.7902 68.2281 33.6649C68.0034 33.536 67.8265 33.3554 67.6976 33.1233C67.5723 32.8875 67.5096 32.613 67.5096 32.2998C67.5096 31.9866 67.5723 31.7121 67.6976 31.4763C67.8228 31.2404 67.9979 31.0599 68.2226 30.9346C68.4474 30.8093 68.7035 30.7467 68.9909 30.7467C69.2783 30.7467 69.5288 30.8093 69.7425 30.9346C69.9599 31.0599 70.1257 31.2294 70.24 31.4431C70.3579 31.6531 70.4168 31.8871 70.4168 32.145ZM70.0244 32.134C70.0281 31.9092 69.982 31.7176 69.8862 31.5592C69.7941 31.4007 69.667 31.281 69.5049 31.1999C69.3428 31.1188 69.1659 31.0783 68.9743 31.0783C68.6869 31.0783 68.4419 31.1704 68.2392 31.3547C68.0365 31.5389 67.9242 31.7987 67.9021 32.134H70.0244Z" fill="black"/>
<path d="M72.2301 31.327C72.3148 31.1391 72.4438 30.9936 72.617 30.8904C72.7938 30.7872 73.0094 30.7356 73.2636 30.7356V31.1391H73.1586C72.8786 31.1391 72.6538 31.2146 72.4843 31.3657C72.3148 31.5168 72.2301 31.7692 72.2301 32.1229V33.8086H71.8432V30.7909H72.2301V31.327Z" fill="black"/>
<path d="M75.9791 30.7356C76.3402 30.7356 76.6349 30.848 76.8634 31.0728C77.0918 31.2939 77.2061 31.6163 77.2061 32.04V33.8086H76.8247V32.0842C76.8247 31.7563 76.7418 31.5057 76.576 31.3325C76.4139 31.1594 76.1909 31.0728 75.9072 31.0728C75.6161 31.0728 75.384 31.1649 75.2108 31.3491C75.0376 31.5334 74.951 31.8042 74.951 32.1616V33.8086H74.5642V30.7909H74.951V31.3049C75.0468 31.1207 75.185 30.9807 75.3656 30.8849C75.5461 30.7854 75.7506 30.7356 75.9791 30.7356Z" fill="black"/>
<path d="M78.6033 32.2942C78.6033 31.9847 78.6641 31.7139 78.7857 31.4818C78.911 31.246 79.0824 31.0654 79.2997 30.9401C79.5208 30.8112 79.7695 30.7467 80.0459 30.7467C80.3333 30.7467 80.5802 30.813 80.7865 30.9457C80.9965 31.0783 81.1476 31.2478 81.2397 31.4541V30.7909H81.6266V33.8086H81.2397V33.1399C81.1439 33.3462 80.991 33.5176 80.781 33.6539C80.5746 33.7865 80.3278 33.8529 80.0404 33.8529C79.7677 33.8529 79.5208 33.7884 79.2997 33.6594C79.0824 33.5305 78.911 33.3481 78.7857 33.1122C78.6641 32.8764 78.6033 32.6038 78.6033 32.2942ZM81.2397 32.2998C81.2397 32.0566 81.19 31.8429 81.0905 31.6586C80.991 31.4744 80.8547 31.3325 80.6815 31.2331C80.512 31.1336 80.3241 31.0838 80.1177 31.0838C79.904 31.0838 79.7124 31.1317 79.5429 31.2275C79.3734 31.3233 79.239 31.4634 79.1395 31.6476C79.0437 31.8281 78.9958 32.0437 78.9958 32.2942C78.9958 32.5411 79.0437 32.7585 79.1395 32.9464C79.239 33.1307 79.3734 33.2725 79.5429 33.372C79.7124 33.4678 79.904 33.5157 80.1177 33.5157C80.3241 33.5157 80.512 33.466 80.6815 33.3665C80.8547 33.267 80.991 33.1251 81.0905 32.9409C81.19 32.7567 81.2397 32.543 81.2397 32.2998Z" fill="black"/>
<path d="M83.7313 31.117V32.9906C83.7313 33.1749 83.7663 33.302 83.8363 33.372C83.9063 33.442 84.0298 33.477 84.2066 33.477H84.5604V33.8086H84.1458C83.8732 33.8086 83.6705 33.746 83.5379 33.6207C83.4052 33.4918 83.3389 33.2817 83.3389 32.9906V31.117H82.9188V30.7909H83.3389V30.0337H83.7313V30.7909H84.5604V31.117H83.7313Z" fill="black"/>
<path d="M86.1104 30.2216C86.033 30.2216 85.9667 30.194 85.9114 30.1387C85.8561 30.0834 85.8285 30.0153 85.8285 29.9342C85.8285 29.8532 85.8561 29.7868 85.9114 29.7352C85.9667 29.68 86.033 29.6523 86.1104 29.6523C86.1878 29.6523 86.2541 29.68 86.3094 29.7352C86.3646 29.7868 86.3923 29.8532 86.3923 29.9342C86.3923 30.0153 86.3646 30.0834 86.3094 30.1387C86.2541 30.194 86.1878 30.2216 86.1104 30.2216ZM86.3038 30.7909V33.8086H85.9169V30.7909H86.3038Z" fill="black"/>
<path d="M89.2194 33.8529C88.9357 33.8529 88.6796 33.7902 88.4512 33.6649C88.2264 33.536 88.0477 33.3554 87.915 33.1233C87.7861 32.8875 87.7216 32.613 87.7216 32.2998C87.7216 31.9866 87.7879 31.7139 87.9206 31.4818C88.0532 31.246 88.2338 31.0654 88.4622 30.9401C88.6907 30.8112 88.9467 30.7467 89.2305 30.7467C89.5142 30.7467 89.7703 30.8112 89.9987 30.9401C90.2308 31.0654 90.4114 31.246 90.5404 31.4818C90.673 31.7139 90.7393 31.9866 90.7393 32.2998C90.7393 32.6093 90.673 32.8819 90.5404 33.1178C90.4077 33.3536 90.2253 33.536 89.9932 33.6649C89.7611 33.7902 89.5031 33.8529 89.2194 33.8529ZM89.2194 33.5157C89.4184 33.5157 89.6026 33.4715 89.7721 33.3831C89.9416 33.2909 90.0779 33.1546 90.1811 32.9741C90.288 32.7898 90.3414 32.5651 90.3414 32.2998C90.3414 32.0345 90.2898 31.8116 90.1866 31.631C90.0835 31.4468 89.9471 31.3104 89.7776 31.222C89.6081 31.1299 89.4239 31.0838 89.2249 31.0838C89.026 31.0838 88.8417 31.1299 88.6722 31.222C88.5027 31.3104 88.3664 31.4468 88.2632 31.631C88.1638 31.8116 88.114 32.0345 88.114 32.2998C88.114 32.5651 88.1638 32.7898 88.2632 32.9741C88.3664 33.1546 88.5009 33.2909 88.6667 33.3831C88.8362 33.4715 89.0204 33.5157 89.2194 33.5157Z" fill="black"/>
<path d="M93.578 30.7356C93.9391 30.7356 94.2339 30.848 94.4623 31.0728C94.6908 31.2939 94.805 31.6163 94.805 32.04V33.8086H94.4236V32.0842C94.4236 31.7563 94.3407 31.5057 94.1749 31.3325C94.0128 31.1594 93.7899 31.0728 93.5062 31.0728C93.2151 31.0728 92.9829 31.1649 92.8097 31.3491C92.6366 31.5334 92.55 31.8042 92.55 32.1616V33.8086H92.1631V30.7909H92.55V31.3049C92.6458 31.1207 92.784 30.9807 92.9645 30.8849C93.1451 30.7854 93.3496 30.7356 93.578 30.7356Z" fill="black"/>
<path d="M96.2023 32.2942C96.2023 31.9847 96.2631 31.7139 96.3847 31.4818C96.51 31.246 96.6813 31.0654 96.8987 30.9401C97.1198 30.8112 97.3685 30.7467 97.6448 30.7467C97.9322 30.7467 98.1791 30.813 98.3855 30.9457C98.5955 31.0783 98.7465 31.2478 98.8387 31.4541V30.7909H99.2256V33.8086H98.8387V33.1399C98.7429 33.3462 98.59 33.5176 98.3799 33.6539C98.1736 33.7865 97.9267 33.8529 97.6393 33.8529C97.3666 33.8529 97.1198 33.7884 96.8987 33.6594C96.6813 33.5305 96.51 33.3481 96.3847 33.1122C96.2631 32.8764 96.2023 32.6038 96.2023 32.2942ZM98.8387 32.2998C98.8387 32.0566 98.7889 31.8429 98.6894 31.6586C98.5899 31.4744 98.4536 31.3325 98.2804 31.2331C98.1109 31.1336 97.923 31.0838 97.7167 31.0838C97.503 31.0838 97.3114 31.1317 97.1419 31.2275C96.9724 31.3233 96.8379 31.4634 96.7384 31.6476C96.6426 31.8281 96.5947 32.0437 96.5947 32.2942C96.5947 32.5411 96.6426 32.7585 96.7384 32.9464C96.8379 33.1307 96.9724 33.2725 97.1419 33.372C97.3114 33.4678 97.503 33.5157 97.7167 33.5157C97.923 33.5157 98.1109 33.466 98.2804 33.3665C98.4536 33.267 98.5899 33.1251 98.6894 32.9409C98.7889 32.7567 98.8387 32.543 98.8387 32.2998Z" fill="black"/>
<path d="M101.214 29.7187V33.8086H100.827V29.7187H101.214Z" fill="black"/>
</g>
</g>
</g>
<defs>
<linearGradient id="paint0_linear_4361_26296" x1="29.8782" y1="31.2106" x2="39.1021" y2="11.4334" gradientUnits="userSpaceOnUse">
<stop stop-color="#645959"/>
<stop offset="0.1" stop-color="#7B7272"/>
<stop offset="0.29" stop-color="#9E9797"/>
<stop offset="0.47" stop-color="#BAB4B4"/>
<stop offset="0.65" stop-color="#CDC8C8"/>
<stop offset="0.83" stop-color="#D9D5D5"/>
<stop offset="1" stop-color="#DDD9D9"/>
</linearGradient>
<linearGradient id="paint1_linear_4361_26296" x1="50.6167" y1="19.2464" x2="38.2416" y2="40.6767" gradientUnits="userSpaceOnUse">
<stop stop-color="#645959"/>
<stop offset="0.1" stop-color="#7B7272"/>
<stop offset="0.29" stop-color="#9E9797"/>
<stop offset="0.47" stop-color="#BAB4B4"/>
<stop offset="0.65" stop-color="#CDC8C8"/>
<stop offset="0.83" stop-color="#D9D5D5"/>
<stop offset="1" stop-color="#DDD9D9"/>
</linearGradient>
<clipPath id="clip0_4361_26296">
<rect width="76.7057" height="38" fill="white" transform="translate(26 6)"/>
</clipPath>
</defs>
</svg>
