<svg width="128" height="48" viewBox="0 0 128 48" fill="none" xmlns="http://www.w3.org/2000/svg">
<g clip-path="url(#clip0_4361_26302)">
<path d="M38.1039 40.3637L24.3411 31.4042C24.3411 31.4042 22.6152 30.4118 22.2201 28.5632C21.6651 25.9676 23.4945 23.7422 23.4945 23.7422L41.3562 35.3747C42.7341 36.2726 43.11 38.1098 42.2244 39.4955C41.3145 40.919 39.4449 41.2331 38.1033 40.3637H38.1039Z" fill="#6D91B2"/>
<path d="M25.0687 21.8225C25.0687 21.8225 22.9606 20.5496 22.9606 17.6054C22.9606 14.6714 25.0678 13.4141 25.0678 13.4141L32.5918 8.4899C33.2539 8.07033 34.0548 7.92871 34.8206 8.09578C35.5865 8.26285 36.2556 8.72513 36.6828 9.38235C37.11 10.0396 37.2609 10.8387 37.1027 11.6064C36.9445 12.3742 36.49 13.0486 35.8378 13.4834L29.4964 17.6126L40.3009 24.6494C40.3009 24.6494 42.2458 25.7636 42.6289 27.6446C43.1638 30.2687 41.3575 32.4308 41.3575 32.4308L25.0687 21.8225ZM25.0288 40.8389C25.735 40.8389 26.2378 40.6148 26.7283 40.2968L30.4012 37.9043L26.7283 35.5124C26.2333 35.1935 25.7137 34.9703 25.0288 34.9703C24.6399 34.9647 24.2538 35.0365 23.893 35.1815C23.5321 35.3265 23.2036 35.5417 22.9267 35.8147C22.6497 36.0878 22.4298 36.4131 22.2797 36.7719C22.1295 37.1307 22.0522 37.5157 22.0522 37.9046C22.0522 38.2935 22.1295 38.6785 22.2797 39.0373C22.4298 39.3961 22.6497 39.7214 22.9267 39.9945C23.2036 40.2675 23.5321 40.4827 23.893 40.6277C24.2538 40.7727 24.6399 40.8445 25.0288 40.8389Z" fill="#002A52"/>
<path d="M39.2294 14.6797C38.5229 14.6797 38.0201 14.9038 37.5296 15.2215L33.8564 17.6137L37.5296 20.0059C38.0246 20.3251 38.5445 20.5483 39.2294 20.5483C39.6148 20.5483 39.9963 20.4724 40.3524 20.3249C40.7084 20.1775 41.0318 19.9613 41.3043 19.6889C41.5768 19.4164 41.7929 19.0929 41.9404 18.7369C42.0878 18.3809 42.1637 17.9993 42.1637 17.614C42.1637 17.2286 42.0878 16.8471 41.9404 16.4911C41.7929 16.1351 41.5768 15.8116 41.3043 15.5391C41.0318 15.2666 40.7084 15.0505 40.3524 14.903C39.9963 14.7556 39.6148 14.6797 39.2294 14.6797Z" fill="#6D91B2"/>
<path d="M54.51 31.5248C55.2867 31.5248 56.0109 31.3142 56.5767 30.827V31.9196C55.9446 32.354 55.1943 32.5382 54.4044 32.5382C52.4154 32.5382 51.0342 31.1558 51.0342 29.168C51.0342 27.1931 52.4559 25.811 54.4308 25.811C55.2075 25.811 55.9314 26.0351 56.5107 26.4692V27.6671C55.9974 27.1145 55.2867 26.8247 54.4965 26.8247C53.1141 26.8247 52.14 27.7859 52.14 29.1677C52.14 30.5501 53.1276 31.5248 54.51 31.5248ZM58.8279 32.42H57.7614V23.8724L58.8279 24.5315V27.0356C59.3151 26.2853 60.0918 25.8116 61.0791 25.8116C62.7117 25.8116 63.5805 27.0092 63.5805 28.6022V32.42H62.5011V28.7864C62.5011 27.5225 61.9482 26.8514 60.8157 26.8514C59.6178 26.8514 58.827 27.878 58.827 29.1683L58.8279 32.42ZM70.2024 31.3133C69.663 32.0768 68.8335 32.5376 67.8198 32.5376C65.9241 32.5376 64.5681 31.1291 64.5681 29.207C64.5681 27.2462 65.9241 25.8104 67.8198 25.8104C68.8335 25.8104 69.663 26.2844 70.2024 27.0614V25.9289H71.2821V32.4191H70.2024V31.3133ZM65.6739 29.1938C65.6739 30.5366 66.6087 31.5239 67.9251 31.5239C69.2547 31.5239 70.2024 30.5366 70.2024 29.1938C70.2024 27.8246 69.2547 26.8241 67.9251 26.8241C66.6087 26.825 65.6739 27.8252 65.6739 29.1947V29.1938ZM74.0073 32.42H72.9408V25.9298H74.0073V27.3119C74.5206 26.3507 75.3501 25.8113 76.377 25.8113V27.0356C75.0867 26.8514 74.0073 27.7202 74.0073 29.3261V32.42ZM87.3039 29.5895H82.1826C82.3407 30.7613 83.2623 31.538 84.5523 31.538C85.3818 31.538 86.1849 31.301 86.8695 30.8138V31.8407C86.1717 32.3147 85.3818 32.5385 84.5523 32.5385C82.5117 32.5385 81.051 31.2221 81.051 29.2331C81.051 27.2846 82.2885 25.8104 84.2502 25.8104C86.1195 25.8104 87.3441 27.1925 87.3441 29.0489C87.3444 29.2298 87.3309 29.4107 87.3039 29.5895ZM82.1958 28.7213H86.2113C86.106 27.6152 85.4082 26.7992 84.2628 26.7992C83.0778 26.7986 82.3668 27.6281 82.1958 28.7207V28.7213ZM89.5815 32.42H88.515V25.9298H89.5815V27.3119C90.0948 26.3507 90.924 25.8113 91.9509 25.8113V27.0356C90.6612 26.8514 89.5815 27.7202 89.5815 29.3261V32.42ZM98.2836 29.5895H93.1626C93.3201 30.7613 94.242 31.538 95.532 31.538C96.3615 31.538 97.1646 31.301 97.8492 30.8138V31.8407C97.1514 32.3147 96.3615 32.5385 95.532 32.5385C93.4914 32.5385 92.0307 31.2221 92.0307 29.2331C92.0307 27.2846 93.2679 25.8104 95.2296 25.8104C97.0989 25.8104 98.3232 27.1925 98.3232 29.0489C98.3237 29.2298 98.3104 29.4105 98.2836 29.5895ZM93.1758 28.7213H97.1907C97.0854 27.6152 96.3876 26.7992 95.2425 26.7992C94.0578 26.7986 93.3474 27.6281 93.1758 28.7207V28.7213ZM104.685 31.3055C104.159 32.0825 103.316 32.5562 102.302 32.5562C100.406 32.5562 99.0504 31.1474 99.0504 29.2253C99.0504 27.2645 100.406 25.8287 102.302 25.8287C103.316 25.8287 104.159 26.3162 104.685 27.1058V23.8739L105.765 24.5333V32.4197H104.685V31.3055ZM100.156 29.2124C100.156 30.5552 101.091 31.5428 102.408 31.5428C103.737 31.5428 104.685 30.5552 104.685 29.2124C104.685 27.8432 103.737 26.8427 102.408 26.8427C101.091 26.8427 100.156 27.8426 100.156 29.2124ZM78.2403 30.2627C78.2403 31.1711 78.7932 31.5266 79.491 31.5266C80.033 31.5319 80.5628 31.366 81.0051 31.0526V32.0927C80.5569 32.4218 79.9386 32.5535 79.3989 32.5535C78.0165 32.5535 77.1738 31.9346 77.1738 30.1835V23.8709L78.2403 24.53V30.2627ZM79.9641 25.8449C79.8733 25.786 79.7719 25.7456 79.6656 25.7259C79.5592 25.7063 79.45 25.7078 79.3443 25.7303C79.2385 25.7528 79.1382 25.796 79.0491 25.8573C78.96 25.9186 78.8838 25.9968 78.825 26.0876C78.7661 26.1783 78.7257 26.2797 78.7061 26.3861C78.6864 26.4924 78.6879 26.6016 78.7104 26.7074C78.733 26.8132 78.7761 26.9135 78.8374 27.0026C78.8987 27.0917 78.9769 27.1678 79.0677 27.2267L79.0905 27.2411C79.2229 27.3259 79.3769 27.371 79.5342 27.371C79.6915 27.371 79.8454 27.3259 79.9779 27.2411L81.0384 26.561L79.9641 25.8449ZM53.2593 22.1654C54.0225 22.1654 54.5757 21.8363 54.5757 21.2438C54.5757 20.8883 54.3915 20.612 53.9034 20.4143L52.3629 19.7957C51.573 19.4534 51.1386 19.0058 51.1386 18.1631C51.1386 17.0309 52.047 16.3199 53.3634 16.3199C54.1266 16.3199 54.8376 16.5305 55.338 16.9124V18.0329C54.7458 17.5061 54.0213 17.2034 53.3772 17.2034C52.6923 17.2034 52.2051 17.5193 52.2051 18.0461C52.2051 18.4409 52.3896 18.6779 52.9032 18.8753L54.4437 19.4942C55.2729 19.8497 55.6551 20.3498 55.6551 21.0476C55.6551 22.2851 54.6543 23.0486 53.2461 23.0486C52.3899 23.0486 51.6132 22.8116 51.0474 22.3907V21.2306C51.7317 21.8756 52.4955 22.1654 53.2593 22.1654ZM57.6828 20.7566C57.6828 21.665 58.2354 22.0205 58.9335 22.0205C59.475 22.0253 60.0042 21.8595 60.4461 21.5465V22.5866C59.9979 22.9157 59.3793 23.0474 58.8396 23.0474C57.4572 23.0474 56.6151 22.4288 56.6151 20.6777V15.0194L57.6813 14.3594L57.6828 20.7566ZM66.411 21.8228C65.8713 22.5866 65.0418 23.0474 64.0281 23.0474C62.1324 23.0474 60.7764 21.6389 60.7764 19.7165C60.7764 17.7557 62.1324 16.3199 64.0281 16.3199C65.0418 16.3199 65.8713 16.7939 66.411 17.5709V16.4393H67.4907V22.9289H66.411V21.8228ZM61.8822 19.7036C61.8822 21.0464 62.817 22.0337 64.1334 22.0337C65.4633 22.0337 66.411 21.0464 66.411 19.7036C66.411 18.3344 65.4633 17.3336 64.1334 17.3336C62.817 17.3336 61.8822 18.3344 61.8822 19.7036ZM70.2156 22.9289H69.1491V16.4393H70.2156V17.5451C70.7028 16.7948 71.4795 16.3208 72.4668 16.3208C74.0994 16.3208 74.9682 17.519 74.9682 19.112V22.9298H73.8888V19.2965C73.8888 18.0326 73.3359 17.3612 72.2037 17.3612C71.0055 17.3612 70.2147 18.3881 70.2147 19.6784L70.2156 22.9289ZM81.5904 21.7967C81.0639 22.5737 80.2212 23.0477 79.2075 23.0477C77.3118 23.0477 75.9558 21.6389 75.9558 19.7165C75.9558 17.7557 77.3118 16.3199 79.2075 16.3199C80.2212 16.3199 81.0639 16.8071 81.5904 17.597V15.0185L82.6701 14.3594V22.9289H81.5904V21.7967ZM77.0616 19.7036C77.0616 21.0464 77.9964 22.0337 79.3128 22.0337C80.6427 22.0337 81.5904 21.0464 81.5904 19.7036C81.5904 18.3344 80.6427 17.3336 79.3128 17.3336C77.9973 17.3336 77.0616 18.3344 77.0616 19.7036ZM101.338 21.7967C100.812 22.5737 99.9693 23.0477 98.9556 23.0477C97.0596 23.0477 95.7036 21.6389 95.7036 19.7165C95.7036 17.7557 97.0596 16.3199 98.9556 16.3199C99.9693 16.3199 100.812 16.8071 101.338 17.597V15.0185L102.418 14.3594V22.9289H101.338V21.7967ZM96.8097 19.7036C96.8097 21.0464 97.7442 22.0337 99.0609 22.0337C100.39 22.0337 101.338 21.0464 101.338 19.7036C101.338 18.3344 100.39 17.3336 99.0609 17.3336C97.7451 17.3336 96.8097 18.3344 96.8097 19.7036ZM89.4633 21.8228C88.9236 22.5866 88.0941 23.0474 87.0804 23.0474C85.1847 23.0474 83.8287 21.6389 83.8287 19.7165C83.8287 17.7557 85.1847 16.3199 87.0804 16.3199C88.0941 16.3199 88.9236 16.7939 89.4633 17.5709V16.4393H90.543V22.9289H89.4633V21.8228ZM84.9345 19.7036C84.9345 21.0464 85.8693 22.0337 87.1857 22.0337C88.5153 22.0337 89.4633 21.0464 89.4633 19.7036C89.4633 18.3344 88.5153 17.3336 87.1857 17.3336C85.8684 17.3336 84.9345 18.3344 84.9345 19.7036ZM93.2679 22.9289H92.2014V16.4393H93.2679V17.8217C93.7812 16.8605 94.6107 16.3208 95.6376 16.3208V17.5451C94.3473 17.3609 93.2679 18.2297 93.2679 19.8359V22.9289ZM59.1858 17.8217C59.2996 17.8959 59.43 17.9408 59.5654 17.9524C59.7008 17.9641 59.8369 17.942 59.9617 17.8883C60.0865 17.8346 60.1961 17.7509 60.2807 17.6446C60.3653 17.5382 60.4223 17.4127 60.4467 17.279C60.4661 17.1722 60.4642 17.0625 60.4411 16.9565C60.4179 16.8504 60.3739 16.75 60.3117 16.661C60.2496 16.572 60.1706 16.4961 60.0792 16.4378L60.0564 16.4237C59.9236 16.3393 59.7695 16.2948 59.6122 16.2953C59.455 16.2958 59.3011 16.3414 59.169 16.4267L58.1091 17.1092L59.1858 17.8217Z" fill="#002A52"/>
</g>
<defs>
<clipPath id="clip0_4361_26302">
<rect width="84" height="33" fill="white" transform="translate(22 8)"/>
</clipPath>
</defs>
</svg>
