<svg width="128" height="48" viewBox="0 0 128 48" fill="none" xmlns="http://www.w3.org/2000/svg">
<rect x="47" y="7" width="34" height="34" rx="8" fill="#002A52"/>
<path d="M52.8159 30.2107V19.47C52.8159 18.6584 53.4171 18.0632 54.2369 18.0632C55.0567 18.0632 55.6579 18.6584 55.6579 19.47V30.2107C55.6579 31.0223 55.0567 31.6175 54.2369 31.6175C53.4171 31.6175 52.8159 31.0223 52.8159 30.2107ZM54.3462 32.2733C53.4559 32.2733 52.8159 32.9085 52.8159 33.8036C52.8159 34.6988 53.4559 35.334 54.3462 35.334C55.2366 35.334 55.8766 34.6988 55.8766 33.8036C55.8766 32.9085 55.2366 32.2733 54.3462 32.2733ZM73.9231 25.7042C73.2721 25.7042 72.6754 26.1655 72.6212 27.1694C72.5669 28.4717 71.6719 29.1229 70.7226 29.1229C69.4207 29.1229 68.824 28.1461 68.824 27.2507C68.824 26.1655 69.4478 25.1887 71.0209 25.1887H71.4549C73.8689 25.1887 75.3335 23.9406 75.3335 21.8514C75.3335 19.7894 73.9502 18.4871 71.6176 18.4871H65.1081C63.1282 18.4871 61.7449 19.7894 61.7449 21.8514V28.2546C61.7449 28.8244 61.4736 29.1229 61.0126 29.1229H60.7413C60.2802 29.1229 60.009 28.8244 60.009 28.2546V14.2273C60.009 13.4133 59.4123 12.8164 58.5987 12.8164C57.785 12.8164 57.1883 13.4133 57.1883 14.2273V28.4988C57.1883 29.5298 57.4594 30.3167 57.9477 30.8593C58.4901 31.4563 59.3309 31.8089 60.3887 31.8089H61.338C62.3959 31.8089 63.2638 31.402 63.8062 30.778C64.2944 30.2081 64.5657 29.4484 64.5657 28.4988V22.0685C64.5657 21.4987 64.7827 21.1731 65.3793 21.1731H71.6447C72.1601 21.1731 72.4042 21.3902 72.4042 21.8243C72.4042 22.2855 72.1601 22.5026 71.6176 22.5026H71.1023C67.5221 22.5026 65.8676 24.7003 65.8676 27.2507C65.8676 29.6112 67.4407 31.8089 70.2344 31.8089C71.2477 31.8089 72.1398 31.3998 72.7298 30.7402C72.8509 31.4647 73.3625 31.8361 73.9773 31.8361C74.6554 31.8361 75.225 31.3477 75.225 30.3981V27.1151C75.225 26.1655 74.574 25.7042 73.9231 25.7042Z" fill="white"/>
</svg>
