<svg width="128" height="48" viewBox="0 0 128 48" fill="none" xmlns="http://www.w3.org/2000/svg">
<path d="M98.5814 23.3355V23.231C100.648 22.2441 101.507 20.4444 101.507 18.4008C101.507 15.0452 98.8136 12.7578 94.3433 12.7578H83.0806V34.4474H94.9123C99.7657 34.4474 102.576 31.8232 102.576 28.3631C102.576 25.948 101.461 24.4038 98.5814 23.3355ZM94.7846 31.2311H86.7032V15.8812H93.9486C96.503 15.8812 97.757 16.752 97.757 18.8188C97.757 21.0481 95.8992 21.919 93.8324 21.919H88.0037C88.0037 23.6142 88.9326 25.1353 90.6626 25.1353H94.4827C96.8978 25.1353 98.8368 26.4473 98.8368 28.1541C98.8484 30.1629 97.1416 31.2311 94.7846 31.2311Z" fill="#002A52"/>
<path d="M68.4036 35.0771C66.6619 35.0771 65.0712 34.7868 63.6779 34.2063C62.2846 33.6257 61.1002 32.8246 60.1481 31.8144C59.196 30.8042 58.4529 29.5967 57.942 28.2266C57.4311 26.8565 57.1641 25.347 57.1641 23.7563C57.1641 22.1307 57.4311 20.5865 57.942 19.1931C58.4529 17.8114 59.196 16.5806 60.1481 15.5356C61.1002 14.5022 62.2846 13.6895 63.6663 13.0973C65.0596 12.5167 66.6387 12.2148 68.392 12.2148C69.646 12.2148 70.8419 12.389 71.9566 12.7373C73.0713 13.0857 74.0814 13.585 74.9523 14.2468C75.8231 14.897 76.5546 15.7214 77.1236 16.6851C77.6461 17.5676 77.9944 18.5893 78.1569 19.7272H74.2324C73.9886 18.7635 73.4428 17.7882 72.5256 16.9406C71.9914 16.4413 70.7839 15.4776 68.3804 15.4776C66.8593 15.4776 65.5705 15.8723 64.6184 16.4645C63.8172 16.9754 63.2251 17.5443 62.7026 18.2991C62.1801 19.0422 61.7969 19.8898 61.5647 20.8419C61.3324 21.7824 61.2163 22.7577 61.2163 23.7563C61.2163 24.7084 61.3324 25.8927 61.5647 26.7984C61.7969 27.7157 62.1801 28.5517 62.7026 29.2832C63.2251 30.0263 63.8985 30.6301 64.7461 31.0713C65.8143 31.6402 67.1844 31.8724 68.3804 31.8724C70.0292 31.8724 71.6896 31.3383 72.8623 30.3049C74.2324 29.109 74.1859 28.0176 74.8478 27.2745C75.5793 26.4501 76.9494 26.4965 77.6693 26.4965H78.3543C78.2034 27.7389 77.8899 28.8884 77.3906 29.8986C76.8681 30.99 76.1598 31.9305 75.289 32.6968C74.4298 33.4632 73.3964 34.0553 72.2353 34.4617C71.0974 34.8681 69.7969 35.0771 68.4036 35.0771Z" fill="#002A52"/>
<path d="M110.923 12.7734V34.4514C108.833 34.4514 106.929 33.2787 106.929 31.177V12.7734H110.923Z" fill="#002A52"/>
<path d="M32.4673 27.3087L23.6196 36.1796C24.5021 36.9459 25.5006 37.5962 26.534 38.1535L32.3047 32.3828V39.9068C32.8621 39.9764 33.4194 39.9997 33.9767 39.9997C34.5341 39.9997 35.0914 39.9764 35.6487 39.9068V32.3828L41.4195 38.1535C42.4645 37.5962 43.4398 36.9459 44.3338 36.1796L35.4862 27.3319C35.0914 26.9604 34.5573 26.7282 33.9767 26.7282C33.3846 26.7049 32.8505 26.9372 32.4673 27.3087Z" fill="#002A52"/>
<path d="M19.8229 16.5665L25.6866 22.4301H18.0697C18.0232 22.9642 18 23.4751 18 24.0092C18 24.5898 18.0232 25.1936 18.0929 25.7509H25.6749L19.881 31.5448C20.4383 32.5898 21.1118 33.5652 21.8781 34.436L30.7258 25.5883C31.0973 25.1936 31.3296 24.6595 31.3296 24.0789C31.3296 23.4984 31.0973 22.9642 30.7258 22.5695L21.7852 13.6289C21.0189 14.523 20.3687 15.5215 19.8229 16.5665Z" fill="#002A52"/>
<path d="M37.2048 22.5814C36.8333 22.9762 36.6011 23.5103 36.6011 24.0908C36.6011 24.6714 36.8333 25.2055 37.2048 25.6003L46.0525 34.4479C46.8188 33.5655 47.4923 32.5902 48.0496 31.5568L42.2557 25.7628H49.8493C49.919 25.1823 49.9422 24.6017 49.9422 24.0212C49.9422 23.4871 49.919 22.953 49.8726 22.4421H42.2557L48.1193 16.5785C47.562 15.5335 46.9117 14.5581 46.1454 13.6641L37.2048 22.5814Z" fill="#002A52"/>
<path d="M32.3053 8.09289V15.7794L26.4185 9.89261C25.3735 10.4499 24.3982 11.1234 23.5273 11.8897L32.4679 20.8303C32.8627 21.2018 33.3968 21.4341 33.9773 21.4341C34.5579 21.4341 35.092 21.2018 35.4868 20.8303L44.4273 11.8897C43.5449 11.1234 42.5696 10.4499 41.5362 9.89261L35.6493 15.7794V8.09289C35.092 8.04644 34.5347 8 33.9773 8C33.4084 8.02322 32.8511 8.04644 32.3053 8.09289Z" fill="#6D91B2"/>
</svg>
