<svg width="128" height="48" viewBox="0 0 128 48" fill="none" xmlns="http://www.w3.org/2000/svg">
<g clip-path="url(#clip0_4361_26305)">
<path d="M30.9926 15.1133H25.4893V32.9496H30.9926V15.1133Z" fill="#2E577C"/>
<path d="M24.1095 32.9496H18.6193L12.1177 15.1133H17.6079L24.1095 32.9496Z" fill="#6D91B2"/>
<path d="M39.5809 15.1133C35.4304 16.1329 32.3569 19.7329 32.3569 24.0378C32.3569 28.3301 35.4304 31.9427 39.5809 32.9622C39.5809 32.1315 39.5809 16.0825 39.5809 15.1133Z" fill="#002A52"/>
<path d="M53.3854 27.2868C53.0571 26.8966 52.6368 26.6071 52.1114 26.4308C52.5054 26.242 52.8338 25.9777 53.1096 25.6378C53.4642 25.1973 53.635 24.5931 53.635 23.8252V23.5357C53.635 22.5036 53.3329 21.7357 52.7287 21.2448C52.1377 20.7665 51.1394 20.5273 49.7866 20.5273H45.0713V32.9637H49.7866C51.1788 32.9637 52.2296 32.6868 52.9126 32.1455C53.6087 31.5917 53.9502 30.7357 53.9502 29.6029V29.3259C53.9765 28.4322 53.7795 27.7525 53.3854 27.2868ZM52.3872 23.8504C52.3872 24.5805 52.1902 25.1217 51.7962 25.449C51.4021 25.7763 50.7717 25.9525 49.9179 25.9525H46.3585V21.635H49.8129C50.7717 21.635 51.4547 21.7861 51.8356 22.0756C52.2033 22.3525 52.4004 22.8434 52.4004 23.5357V23.8504H52.3872ZM52.0326 31.3903C51.5991 31.7301 50.8505 31.9064 49.7997 31.9064H46.3453V27.1357H49.9311C50.9161 27.1357 51.6254 27.2994 52.0457 27.6392C52.4529 27.9665 52.663 28.5455 52.663 29.3511V29.628C52.6893 30.4714 52.466 31.0504 52.0326 31.3903Z" fill="#002A52"/>
<path d="M62.3831 25.6598C62.2386 25.2822 62.0022 24.9549 61.6738 24.7157C61.3586 24.4766 60.9383 24.3004 60.4392 24.1871C59.9532 24.0738 59.3359 24.0234 58.6266 24.0234C58.1932 24.0234 55.8421 24.0234 55.8421 24.0234V25.0934C55.8421 25.0934 58.1932 25.0934 58.6266 25.0934C59.1914 25.0934 59.6642 25.1311 60.032 25.2067C60.3866 25.2822 60.6624 25.3829 60.8595 25.5339C61.0565 25.685 61.1878 25.8864 61.2666 26.1381C61.3454 26.4025 61.3848 26.7423 61.3848 27.1325V27.8878C61.1616 27.699 60.8463 27.5479 60.4786 27.4346C59.9926 27.2836 59.3227 27.2081 58.5084 27.2081C57.2869 27.2081 56.3937 27.4346 55.8421 27.8752C55.2773 28.3283 55.0015 29.0458 55.0015 30.015V30.2542C55.0015 31.1983 55.2773 31.8906 55.8421 32.306C56.3937 32.7213 57.2869 32.9353 58.5215 32.9353H61.4111C61.884 32.9353 62.186 32.8598 62.3568 32.7088C62.5275 32.5577 62.6063 32.2808 62.6063 31.8654V27.0192C62.6063 26.5032 62.5275 26.0374 62.3831 25.6598ZM56.2098 30.0276C56.2098 29.3731 56.3806 28.9074 56.709 28.6556C57.0504 28.3913 57.6415 28.2654 58.4821 28.2654H58.7054C59.1388 28.2654 59.5329 28.2906 59.8744 28.3535C60.2027 28.4039 60.4917 28.5046 60.7018 28.6304C60.9251 28.7563 61.0827 28.9199 61.201 29.1339C61.3192 29.3479 61.3717 29.6248 61.3717 29.9647V31.878H58.4952C58.0355 31.878 57.6546 31.8402 57.3525 31.7773C57.0636 31.7143 56.8272 31.6136 56.6564 31.4752C56.4857 31.3367 56.3806 31.1857 56.3018 30.9843C56.2361 30.7829 56.1967 30.5311 56.1967 30.2416V30.0276H56.2098Z" fill="#002A52"/>
<path d="M71.5508 25.6976C71.4458 25.2822 71.2356 24.9423 70.9466 24.6528C70.6577 24.3759 70.2637 24.1493 69.7514 24.0109C69.2523 23.8724 68.6087 23.7969 67.8469 23.7969C67.072 23.7969 66.4284 23.8724 65.9424 24.0234C65.4433 24.1745 65.0361 24.3885 64.7472 24.678C64.4582 24.9549 64.248 25.3074 64.143 25.7227C64.0379 26.1255 63.9854 26.5787 63.9854 27.0696V32.9605H65.2331V27.1703C65.2331 26.7927 65.2594 26.4528 65.3119 26.1633C65.3645 25.8864 65.4696 25.6472 65.6403 25.471C65.8111 25.2822 66.0737 25.1437 66.4152 25.043C66.7699 24.9423 67.2558 24.892 67.86 24.892C68.4511 24.892 68.9371 24.9423 69.2917 25.043C69.6332 25.1437 69.8959 25.2822 70.0666 25.471C70.2374 25.6598 70.3556 25.8864 70.395 26.1633C70.4475 26.4528 70.4738 26.7927 70.4738 27.1829V32.9731H71.7216V27.0822C71.7216 26.5535 71.6559 26.1004 71.5508 25.6976Z" fill="#002A52"/>
<path d="M75.4122 28.039L80.5741 24.0614H78.8141L74.3352 27.5355V20.5117H73.0874V32.9481H74.3352V28.6306L79.3263 32.9481H81.0601L75.4122 28.039Z" fill="#002A52"/>
<path d="M90.7542 29.6502H85.7237L84.5153 32.9481H82.0854L86.919 20.5117H89.6903L94.5238 32.9481H91.9757L90.7542 29.6502ZM86.3804 27.7621H90.0975L88.2324 22.6893L86.3804 27.7621Z" fill="#002A52"/>
<path d="M95.562 20.5117H101.157C102.523 20.5117 103.508 20.7635 104.113 21.267C104.73 21.7705 105.032 22.5509 105.032 23.6082V23.7844C105.032 24.4264 104.901 24.9677 104.625 25.3956C104.349 25.8362 103.929 26.1635 103.338 26.3775C103.968 26.5537 104.48 26.8809 104.848 27.3467C105.229 27.8124 105.413 28.4544 105.413 29.26V29.5369C105.413 30.7327 105.032 31.6012 104.283 32.1425C103.535 32.6837 102.471 32.9481 101.105 32.9481H95.5488V20.5117H95.562ZM97.9787 22.4124V25.5593H100.737C101.433 25.5593 101.919 25.4334 102.195 25.1942C102.471 24.9551 102.615 24.5523 102.615 24.011V23.7844C102.615 23.2935 102.484 22.9411 102.221 22.7397C101.958 22.5257 101.525 22.425 100.895 22.425H97.9787V22.4124ZM97.9787 31.0474H101C101.722 31.0474 102.221 30.9341 102.51 30.6949C102.799 30.4558 102.944 30.0278 102.944 29.3984V29.1719C102.944 28.5173 102.786 28.0642 102.471 27.8124C102.155 27.5607 101.617 27.4348 100.868 27.4348H97.9656V31.0474H97.9787Z" fill="#002A52"/>
<path d="M112.452 22.5266C111.795 22.5266 111.27 22.5643 110.863 22.6524C110.456 22.7406 110.14 22.9168 109.904 23.1811C109.668 23.4455 109.523 23.8105 109.444 24.2762C109.365 24.742 109.326 25.3462 109.326 26.0888V27.3727C109.326 28.1028 109.365 28.707 109.457 29.1727C109.549 29.6385 109.707 30.0035 109.943 30.2678C110.18 30.5322 110.508 30.7084 110.915 30.7965C111.322 30.8846 111.848 30.935 112.491 30.935C112.715 30.935 112.938 30.935 113.161 30.935C113.385 30.935 113.634 30.935 113.91 30.935C114.186 30.935 114.475 30.935 114.803 30.9224C115.131 30.9224 115.092 30.9098 115.499 30.8972V32.9112C114.777 32.9364 114.173 32.949 113.674 32.949C113.174 32.949 112.754 32.949 112.426 32.949C111.349 32.949 110.469 32.8483 109.746 32.6469C109.024 32.4455 108.446 32.1308 108.013 31.6902C107.579 31.2497 107.264 30.6832 107.08 29.9657C106.896 29.2608 106.804 28.3797 106.804 27.3476V26.0762C106.804 25.0315 106.896 24.1503 107.093 23.4329C107.29 22.728 107.605 22.149 108.052 21.7084C108.499 21.2678 109.076 20.9657 109.786 20.7769C110.495 20.5881 111.375 20.5 112.4 20.5C112.807 20.5 113.28 20.5 113.792 20.5C114.304 20.5 114.685 20.5126 115.499 20.5378V22.5517C115.092 22.5392 114.501 22.5266 113.963 22.5266C113.411 22.5266 112.912 22.5266 112.452 22.5266Z" fill="#002A52"/>
</g>
<defs>
<clipPath id="clip0_4361_26305">
<rect width="103.5" height="18" fill="white" transform="translate(12 15)"/>
</clipPath>
</defs>
</svg>
