<svg width="128" height="48" viewBox="0 0 128 48" fill="none" xmlns="http://www.w3.org/2000/svg">
<g clip-path="url(#clip0_4361_26297)">
<path d="M43.7153 3.05469C43.7153 3.05469 58.876 9.01598 68.1431 25.7211H66.3005C66.314 25.7211 57.9953 11.1973 43.7153 3.05469ZM53.5786 25.7211C53.5786 25.7211 52.0747 20.1798 43.7153 16.0205C43.7153 16.0205 50.3947 20.1392 52.7792 25.6805L53.5786 25.7211ZM61.1115 25.7076C61.1115 25.7076 55.9089 15.2618 43.7831 9.72049C43.7831 9.72049 55.3263 16.9011 59.3773 25.7076H61.1115Z" fill="#6D91B2"/>
<path d="M68.1567 25.7211C68.1567 25.7211 69.6741 20.1798 78.0199 16.0205C78.0199 16.0205 71.3406 20.1392 68.956 25.6805L68.1567 25.7211ZM78.0199 3.05469C78.0199 3.05469 62.8593 9.01598 53.5786 25.7211H55.4212C55.4347 25.7211 63.7535 11.1973 78.0199 3.05469ZM62.2631 25.7211C66.3141 16.9147 77.8573 9.73404 77.8573 9.73404C65.7315 15.2753 60.5289 25.7211 60.5289 25.7211H62.2631Z" fill="#002A52"/>
<path d="M33.8931 41.3566C33.9473 41.343 34.0556 41.3295 34.2318 41.3295H34.2589C34.2995 41.343 34.3402 41.343 34.3537 41.343H34.3808C34.4079 41.343 34.4756 41.3566 34.5976 41.3566C34.8279 41.3701 35.004 41.3837 35.126 41.3837C35.275 41.3837 35.4105 41.3701 35.546 41.3566C35.5595 41.3566 35.5866 41.3566 35.5866 41.3566H35.6137C35.6273 41.3837 35.6273 41.3972 35.6273 41.4108V41.5462C35.5866 41.5598 35.5324 41.5733 35.4782 41.5869L35.3563 41.614C35.3156 41.6275 35.2479 41.6275 35.1802 41.6411L35.1666 41.6546V41.6953C35.2208 41.8172 35.3563 42.0204 35.546 42.2914C35.6002 42.3727 35.6544 42.454 35.695 42.5353C35.7086 42.5488 35.7627 42.6437 35.844 42.7927C35.8576 42.8062 35.8576 42.8198 35.8711 42.8469C35.8847 42.874 35.8982 42.9011 35.9253 42.9146C35.9524 42.9553 35.9795 42.9959 35.9795 43.0095C36.0202 43.0637 36.0473 43.1178 36.0744 43.1449L36.3589 42.752C36.4537 42.6301 36.5756 42.454 36.7247 42.2237L36.7382 42.2101L36.9686 41.8037C37.0092 41.7495 37.0227 41.7088 37.0227 41.6817C37.0227 41.6682 37.0227 41.6546 37.0092 41.6411C36.9821 41.6275 36.955 41.614 36.9415 41.614C36.9279 41.614 36.9008 41.6004 36.8331 41.6004C36.7924 41.5869 36.7653 41.5869 36.7247 41.5869C36.684 41.5869 36.6569 41.5733 36.6434 41.5733C36.6434 41.5462 36.6298 41.4785 36.6298 41.3701L37.1853 41.3972C37.1989 41.3972 37.226 41.3972 37.2531 41.4108H37.3886H37.4292C37.4834 41.3972 37.5647 41.3972 37.6595 41.3837C37.6866 41.3837 37.7137 41.3837 37.7408 41.3701V41.5733L37.7002 41.5869C37.5511 41.614 37.4427 41.6411 37.3886 41.6817C37.3073 41.7495 37.1989 41.8985 37.0634 42.1288L36.7111 42.6572C36.4944 42.9417 36.3589 43.1449 36.3047 43.2398C36.2911 43.2669 36.2776 43.294 36.264 43.3346V43.4159V43.6462V43.714C36.264 43.7546 36.2505 43.8088 36.2505 43.863L36.264 44.554C36.2776 44.5675 36.2776 44.5811 36.2911 44.5811C36.3182 44.5946 36.3724 44.5946 36.4673 44.6082C36.6434 44.6217 36.7382 44.6353 36.7518 44.6488C36.7653 44.6624 36.7789 44.6759 36.7789 44.703C36.7789 44.7166 36.7789 44.7437 36.7789 44.7707C36.7789 44.7843 36.7789 44.8114 36.7789 44.852H36.4673L36.1827 44.8249L35.9795 44.8114L35.6815 44.8249H35.4511C35.424 44.8249 35.3834 44.8249 35.3292 44.8385C35.2344 44.852 35.1666 44.8656 35.126 44.8656H34.9363C34.9363 44.8249 34.9363 44.7978 34.9363 44.7843C34.9363 44.7572 34.9363 44.7301 34.9363 44.6895L35.4376 44.5811C35.4647 44.5675 35.4782 44.5675 35.5053 44.554C35.5053 44.4727 35.5053 44.4185 35.5053 44.4049C35.5053 44.134 35.5053 43.9443 35.5053 43.8359C35.5053 43.7411 35.5053 43.6733 35.5053 43.6598V43.592C35.5053 43.4837 35.4511 43.3482 35.3292 43.1991C35.275 43.1314 35.2479 43.0907 35.2344 43.0772L34.706 42.2643L34.4621 41.8578C34.4486 41.8443 34.3944 41.763 34.2995 41.6411C34.2724 41.614 34.2318 41.5869 34.2047 41.5869C34.1911 41.5733 34.1098 41.5598 33.9608 41.5327C33.9473 41.5191 33.9473 41.5056 33.9473 41.492C33.9473 41.4785 33.9473 41.4649 33.9473 41.4514C33.8931 41.4108 33.8931 41.3837 33.8931 41.3566ZM39.5292 42.874C39.3124 42.6572 39.0279 42.5353 38.6486 42.5353C38.4724 42.5353 38.3234 42.5488 38.2015 42.5895C38.0795 42.6301 37.9576 42.6843 37.8356 42.7791C37.7544 42.8469 37.6731 42.9146 37.6053 43.0095C37.5376 43.1043 37.4834 43.2127 37.4427 43.3346C37.4021 43.4566 37.3886 43.5785 37.3886 43.7004C37.3886 43.9443 37.4292 44.134 37.5105 44.2966C37.5918 44.4591 37.7408 44.5946 37.9305 44.7301C38.1337 44.852 38.364 44.9198 38.6486 44.9198C38.906 44.9198 39.1227 44.8656 39.3124 44.7572C39.5021 44.6488 39.6511 44.4862 39.7731 44.2559C39.8408 44.1069 39.8815 43.9172 39.8815 43.6733C39.8815 43.5514 39.8544 43.4024 39.8002 43.2669C39.7324 43.1178 39.6511 42.9824 39.5292 42.874ZM38.0524 43.8088C38.0524 43.4837 38.066 43.2804 38.0931 43.1856C38.1337 43.0366 38.1879 42.9146 38.2827 42.8469C38.3776 42.7656 38.486 42.7249 38.6215 42.7249C38.7976 42.7249 38.9466 42.7927 39.055 42.9282C39.1634 43.0637 39.2176 43.294 39.2176 43.6327C39.2176 43.9037 39.204 44.0933 39.1769 44.2153C39.1363 44.3914 39.0686 44.5269 38.9873 44.6082C38.8924 44.6895 38.784 44.7301 38.6486 44.7301C38.5402 44.7301 38.4453 44.703 38.364 44.6624C38.2827 44.6217 38.2286 44.5675 38.1879 44.5133C38.1337 44.432 38.0931 44.3237 38.0795 44.2017C38.0795 44.1611 38.066 44.0391 38.0524 43.8088ZM40.2066 42.6572C40.2066 42.6978 40.1931 42.7249 40.1931 42.752C40.1931 42.7656 40.1931 42.7791 40.1931 42.7927C40.1931 42.8062 40.1931 42.8198 40.2066 42.8333C40.2337 42.8469 40.3015 42.874 40.4234 42.8875C40.4505 42.8875 40.4911 42.9011 40.5182 42.9146C40.5318 42.9417 40.5453 42.9688 40.5453 42.9959C40.5453 43.0501 40.5589 43.1449 40.5589 43.2804C40.5589 43.3617 40.5589 43.4972 40.5453 43.6733V43.7546C40.5453 44.0798 40.5453 44.2559 40.5453 44.283C40.5589 44.4185 40.586 44.5133 40.6266 44.5811C40.6808 44.6759 40.7621 44.7437 40.8705 44.8114C40.9789 44.8791 41.1144 44.9062 41.2498 44.9062C41.3718 44.9062 41.4937 44.8791 41.6021 44.8385C41.7105 44.7843 41.846 44.6895 42.0086 44.554C42.0492 44.5133 42.0763 44.4862 42.1034 44.4727V44.9198H42.2118C42.4421 44.8385 42.6589 44.7708 42.8486 44.7301C42.8892 44.7166 42.9569 44.7166 43.0518 44.7166C43.0518 44.6895 43.0653 44.6624 43.0653 44.6624C43.0653 44.6488 43.0653 44.6217 43.0518 44.554H43.0247L42.7808 44.5675C42.7673 44.5675 42.7537 44.554 42.7402 44.5404C42.7266 44.5133 42.7131 44.4862 42.7131 44.4456C42.7131 44.432 42.7131 44.3778 42.7266 44.283V44.1475V43.9443V43.4837V43.1585L42.7402 42.9011V42.6978C42.5776 42.6978 42.4421 42.6978 42.3202 42.6978H41.9002C41.8595 42.6978 41.8053 42.6978 41.7511 42.7114C41.7511 42.752 41.7376 42.7791 41.7376 42.8062C41.7376 42.8198 41.7376 42.8469 41.7511 42.8875C41.7647 42.9011 41.7647 42.9011 41.7782 42.9011L41.9544 42.9146C42.0357 42.9282 42.0898 42.9417 42.1305 42.9688V43.023V43.1178C42.1305 43.1314 42.1305 43.172 42.1305 43.2398C42.1305 43.3075 42.1305 43.3753 42.1305 43.4159C42.1305 43.4566 42.1305 43.5243 42.1305 43.592L42.1169 44.2695C42.1034 44.3237 42.0627 44.3778 42.0086 44.432C41.995 44.4456 41.9544 44.4862 41.8866 44.5269C41.8189 44.5675 41.7647 44.6082 41.7105 44.6217C41.6563 44.6353 41.5886 44.6488 41.5073 44.6488C41.426 44.6488 41.3447 44.6217 41.2905 44.5811C41.2363 44.5404 41.1821 44.4862 41.155 44.4049C41.1415 44.2966 41.1279 44.1611 41.1279 43.9714V43.6869V43.2804V43.1449L41.1415 42.874V42.6978H41.0873H40.2744C40.2473 42.6437 40.2202 42.6437 40.2066 42.6572ZM43.255 44.7166C43.255 44.7437 43.2415 44.7708 43.2415 44.7843C43.2415 44.7978 43.2415 44.8249 43.255 44.852C43.4311 44.8385 43.526 44.8385 43.5395 44.8385H43.5802C43.6886 44.8249 43.8105 44.8249 43.9324 44.8249L44.4473 44.852H44.7047C44.7182 44.8249 44.7182 44.7978 44.7182 44.7707C44.7182 44.7301 44.7047 44.7166 44.6911 44.6895C44.6776 44.6759 44.6234 44.6624 44.5421 44.6624C44.4608 44.6488 44.4066 44.6488 44.366 44.6353C44.3253 44.6217 44.2982 44.6082 44.2711 44.5811C44.244 44.5404 44.2305 44.4862 44.2169 44.4456C44.2169 43.9578 44.2034 43.6462 44.2034 43.5108V43.443C44.2034 43.3482 44.2305 43.2533 44.2847 43.1585C44.3118 43.1043 44.3524 43.0637 44.3931 43.0501H44.4066C44.4337 43.0501 44.4744 43.0637 44.5286 43.1043C44.6098 43.172 44.6911 43.1991 44.7724 43.1991C44.8673 43.1991 44.935 43.172 44.9892 43.0908C45.0434 43.023 45.0705 42.9417 45.0705 42.8604C45.0705 42.7791 45.0298 42.6978 44.9621 42.6301C44.8944 42.5624 44.8131 42.5353 44.7182 42.5353C44.6369 42.5353 44.5692 42.5624 44.515 42.603C44.4337 42.6707 44.3931 42.7114 44.366 42.7385C44.3253 42.7791 44.2711 42.8604 44.2034 42.9959C44.2034 42.8604 44.2034 42.7927 44.2034 42.7656C44.2034 42.7249 44.2034 42.6707 44.2034 42.603C44.2034 42.5759 44.2034 42.5488 44.2034 42.5353C44.2034 42.5082 44.2034 42.4675 44.1898 42.4269H44.0002C43.9731 42.454 43.946 42.4811 43.9189 42.5217C43.8647 42.603 43.7834 42.6708 43.675 42.752C43.5666 42.8198 43.4447 42.874 43.3092 42.8875L43.3227 42.9824C43.3363 43.0095 43.3498 43.0366 43.3905 43.0366C43.4718 43.0501 43.526 43.0772 43.5802 43.1043C43.6073 43.1314 43.6208 43.1449 43.6208 43.1856C43.6344 43.3482 43.6479 43.6598 43.6479 44.1069C43.6479 44.3508 43.6344 44.4998 43.6208 44.5404C43.5395 44.5946 43.4447 44.6353 43.3634 44.6488C43.3092 44.6759 43.2821 44.6895 43.255 44.7166ZM46.5879 41.5191C46.6421 41.5327 46.7369 41.5598 46.886 41.5869C46.9537 41.6004 47.0079 41.614 47.035 41.6546C47.0621 41.6817 47.0892 41.7224 47.1027 41.7766C47.1163 41.8037 47.1163 42.034 47.1298 42.4404L47.1569 43.3075L47.1705 44.0662C47.1705 44.1611 47.1705 44.2424 47.1705 44.2966C47.1705 44.3237 47.1705 44.3372 47.1705 44.3643C47.1705 44.4049 47.1569 44.4591 47.1434 44.5133C47.0621 44.5675 46.9673 44.6082 46.8453 44.6353L46.6827 44.6895C46.6827 44.7301 46.6827 44.7437 46.6827 44.7707C46.6827 44.7978 46.6827 44.8385 46.6963 44.8927C46.764 44.8927 46.8182 44.8791 46.8589 44.8791C47.0621 44.852 47.2789 44.8385 47.4957 44.8385C47.6989 44.8385 47.875 44.852 48.024 44.8656C48.1731 44.8791 48.2815 44.8927 48.3357 44.8927C48.3628 44.8927 48.3898 44.8927 48.444 44.8791C48.4576 44.8249 48.4576 44.7978 48.4576 44.7707C48.4576 44.7437 48.4576 44.7166 48.444 44.6624L47.9021 44.5946C47.8886 44.4998 47.8886 44.4185 47.8886 44.3508V43.9308V43.5785V43.3617C47.8886 43.3075 47.8886 43.2804 47.8886 43.2533L47.875 43.1449V43.0366L47.8615 41.7495C47.875 41.7224 47.875 41.7088 47.8886 41.6817C47.9427 41.6411 48.0376 41.6275 48.1731 41.6275C48.3221 41.6275 48.444 41.6546 48.566 41.7088C48.6473 41.7495 48.715 41.8308 48.7828 41.9391C48.8369 42.0475 48.8776 42.1966 48.8776 42.3727C48.8776 42.6166 48.8098 42.8062 48.6744 42.9146C48.566 42.9959 48.444 43.0366 48.2815 43.0366C48.2544 43.0366 48.2273 43.0366 48.1866 43.0366C48.146 43.0366 48.1053 43.0366 48.0647 43.023C48.0647 43.1178 48.0647 43.1856 48.0782 43.2398C48.1595 43.294 48.2544 43.3346 48.3492 43.3482C48.444 43.3753 48.5389 43.3888 48.6473 43.3888C48.9453 43.3888 49.2028 43.294 49.3924 43.0908C49.5957 42.9011 49.6905 42.6437 49.6905 42.3185C49.6905 42.1966 49.6498 42.0475 49.5821 41.912C49.5008 41.763 49.4195 41.6546 49.3111 41.5733C49.2028 41.492 49.0673 41.4378 48.8911 41.3972C48.7692 41.3701 48.6066 41.3566 48.3763 41.3566C48.3357 41.3566 48.2544 41.3566 48.1189 41.3701C47.8886 41.3837 47.7124 41.3837 47.604 41.3837H47.5227H47.2382L46.5879 41.343V41.5191ZM52.1834 44.3643L52.1021 44.4862C52.0886 44.4998 52.075 44.4998 52.0479 44.4998C52.0208 44.4998 51.9937 44.4862 51.9666 44.4591C51.9531 44.432 51.9395 44.3778 51.9395 44.2966V44.2153V43.8901V43.443C51.9395 43.172 51.926 42.9824 51.8853 42.874C51.8447 42.7656 51.7769 42.6843 51.6686 42.6301C51.5602 42.5759 51.4382 42.5488 51.2892 42.5488C51.0589 42.5488 50.8692 42.5759 50.7202 42.6301C50.6118 42.6708 50.4763 42.7385 50.3544 42.8333C50.2189 42.9282 50.124 43.0366 50.0563 43.1449C50.0157 43.2127 49.9886 43.3075 49.9886 43.4159C49.9886 43.4566 50.0021 43.4837 50.0292 43.5108C50.0834 43.5108 50.1647 43.4837 50.2595 43.443C50.2866 43.4295 50.3273 43.4159 50.4086 43.3753C50.4763 43.3482 50.5305 43.3211 50.5576 43.2804C50.5711 43.2669 50.5847 43.2262 50.5982 43.1449C50.6118 43.0366 50.6389 42.9553 50.666 42.9146C50.6931 42.8604 50.7608 42.8198 50.8286 42.7791C50.9098 42.752 50.9911 42.7249 51.0724 42.7249C51.1673 42.7249 51.2215 42.752 51.2621 42.8062C51.3163 42.9011 51.3569 43.0637 51.3569 43.3075C51.3569 43.3753 51.3569 43.443 51.3434 43.5108L50.666 43.7817C50.544 43.8359 50.4763 43.863 50.4628 43.8766C50.3273 43.9443 50.2324 44.012 50.1782 44.0798C50.124 44.134 50.0834 44.2017 50.0563 44.2695C50.0292 44.3372 50.0157 44.3914 50.0157 44.4456C50.0157 44.5675 50.0563 44.6759 50.1511 44.7572C50.246 44.8385 50.3815 44.8791 50.5711 44.8791C50.7744 44.8791 50.9505 44.8385 51.086 44.7707C51.2215 44.703 51.3298 44.5946 51.4111 44.4591C51.4789 44.6082 51.5466 44.7166 51.6279 44.7707C51.7092 44.8249 51.7905 44.8656 51.8989 44.8656C52.0073 44.8656 52.0886 44.8385 52.1563 44.7707C52.224 44.7166 52.2782 44.5946 52.3324 44.432V44.4185C52.3324 44.4049 52.3189 44.3914 52.3053 44.3778L52.2376 44.3372L52.1834 44.3643ZM51.3434 43.714C51.3569 43.7953 51.3569 43.8766 51.3569 43.9578C51.3569 44.1746 51.3434 44.2966 51.3299 44.3508C51.3163 44.3914 51.2621 44.4591 51.1673 44.5404C51.0995 44.5946 51.0047 44.6217 50.9098 44.6217C50.8421 44.6217 50.7879 44.5946 50.7473 44.5404C50.6931 44.4862 50.6795 44.432 50.6795 44.3508C50.6795 44.2695 50.6931 44.1882 50.7337 44.134C50.7879 44.0527 50.8692 43.9714 51.0047 43.8901C51.1266 43.7953 51.235 43.7411 51.3434 43.714ZM52.495 44.7166C52.495 44.7437 52.4815 44.7708 52.4815 44.7843C52.4815 44.7978 52.4815 44.8249 52.495 44.852C52.6711 44.8385 52.766 44.8385 52.7795 44.8385H52.8202C52.9286 44.8249 53.0505 44.8249 53.1724 44.8249L53.6873 44.852H53.9447C53.9582 44.8249 53.9582 44.7978 53.9582 44.7707C53.9582 44.7301 53.9447 44.7166 53.9311 44.6895C53.9176 44.6759 53.8634 44.6624 53.7821 44.6624C53.7008 44.6488 53.6466 44.6488 53.606 44.6353C53.5789 44.6217 53.5382 44.6082 53.5111 44.5811C53.484 44.5404 53.4705 44.4862 53.4569 44.4456C53.4569 43.9578 53.4434 43.6462 53.4434 43.5108V43.443C53.4434 43.3482 53.4705 43.2533 53.5247 43.1585C53.5518 43.1043 53.5924 43.0637 53.6331 43.0501H53.6466C53.6737 43.0501 53.7144 43.0637 53.7686 43.1043C53.8499 43.172 53.9311 43.1991 54.0124 43.1991C54.1073 43.1991 54.175 43.172 54.2292 43.0908C54.2834 43.023 54.3105 42.9417 54.3105 42.8604C54.3105 42.7791 54.2698 42.6978 54.2021 42.6301C54.1344 42.5624 54.0531 42.5353 53.9582 42.5353C53.8769 42.5353 53.8092 42.5624 53.755 42.603C53.6737 42.6707 53.6331 42.7114 53.606 42.7385C53.5653 42.7791 53.5111 42.8604 53.4434 42.9959C53.4434 42.8604 53.4434 42.7927 53.4434 42.7656C53.4434 42.7249 53.4434 42.6707 53.4434 42.603C53.4434 42.5759 53.4434 42.5488 53.4434 42.5353C53.4434 42.5082 53.4434 42.4675 53.4299 42.4269H53.2402C53.2131 42.454 53.186 42.4811 53.1589 42.5217C53.1047 42.603 53.0234 42.6708 52.915 42.752C52.8066 42.8198 52.6847 42.874 52.5492 42.8875L52.5628 42.9824C52.5763 43.0095 52.5898 43.0366 52.6305 43.0366C52.7118 43.0501 52.766 43.0772 52.8202 43.1043C52.8473 43.1314 52.8608 43.1449 52.8608 43.1856C52.8744 43.3482 52.8879 43.6598 52.8879 44.1069C52.8879 44.3508 52.8744 44.4998 52.8608 44.5404C52.7795 44.5946 52.6847 44.6353 52.6034 44.6488C52.5492 44.6759 52.5086 44.6895 52.495 44.7166ZM54.6357 42.7927C54.6357 42.8604 54.6357 42.9011 54.6357 42.9146C54.6357 42.9282 54.6357 42.9417 54.6492 42.9553L54.6898 42.9688H54.8795H54.9608V43.7411L54.9473 44.2153C54.9473 44.4456 55.0015 44.6082 55.1099 44.7166C55.2182 44.8249 55.3537 44.8791 55.5163 44.8791C55.6518 44.8791 55.7737 44.852 55.8821 44.7978C55.9905 44.7437 56.0853 44.6624 56.1531 44.5675L56.1395 44.5404C56.1124 44.4998 56.0718 44.4727 56.0311 44.432C56.004 44.4456 55.9905 44.4591 55.9769 44.4727C55.9228 44.5133 55.8821 44.5404 55.855 44.554C55.8279 44.5675 55.8008 44.5675 55.7466 44.5675C55.6924 44.5675 55.6518 44.554 55.6111 44.5404C55.584 44.4998 55.5569 44.4456 55.5434 44.3914C55.5299 44.3372 55.5299 44.2153 55.5299 44.012V42.9688L55.6653 42.9553H55.7195H55.855C55.8957 42.9688 55.9228 42.9688 55.9363 42.9688C55.9634 42.9688 56.0176 42.9688 56.0718 42.9553C56.0853 42.9011 56.0853 42.8469 56.0853 42.8062C56.0853 42.7656 56.0853 42.7249 56.0718 42.6707C55.9499 42.6707 55.8821 42.6707 55.8686 42.6707C55.706 42.6843 55.6247 42.6843 55.6111 42.6843H55.5434C55.5434 42.6572 55.5434 42.6301 55.5434 42.6166L55.5569 42.454C55.5569 42.3998 55.5569 42.332 55.5569 42.2372C55.5569 42.183 55.5434 42.1288 55.5299 42.0882H55.3808C55.2724 42.2778 55.164 42.4269 55.0692 42.5082C55.015 42.6166 54.8524 42.6978 54.6357 42.7927ZM56.3292 44.7166C56.3292 44.7572 56.3292 44.7843 56.3292 44.7978C56.3292 44.8114 56.3292 44.8385 56.3428 44.852C56.6137 44.8385 56.8305 44.8385 56.966 44.8385H57.264C57.3453 44.852 57.3995 44.852 57.4402 44.852C57.4808 44.852 57.5215 44.852 57.5757 44.852C57.5892 44.8114 57.5892 44.7708 57.5892 44.7572C57.5892 44.7437 57.5892 44.7166 57.5757 44.6895C57.4131 44.6488 57.3318 44.5946 57.3047 44.5675C57.2776 44.5269 57.264 44.3643 57.264 44.0662V43.9985L57.2505 43.5649V43.3888V43.2127V43.172C57.3724 43.0637 57.4808 42.9824 57.5892 42.9417C57.6976 42.8875 57.806 42.8604 57.9008 42.8604C58.0363 42.8604 58.1447 42.9282 58.2124 43.0637C58.2666 43.1585 58.2802 43.4024 58.2802 43.7817V44.0933C58.2802 44.1746 58.2802 44.2966 58.2802 44.4456C58.2802 44.5269 58.2666 44.5946 58.2531 44.6217C58.2531 44.6353 58.226 44.6488 58.1853 44.6624C58.1582 44.6759 58.1176 44.6759 58.0905 44.6759C57.9957 44.6895 57.9279 44.703 57.9008 44.703C57.9008 44.7437 57.9008 44.7708 57.9008 44.8114C57.9008 44.8249 57.9008 44.8385 57.9008 44.8656H57.9957L58.3479 44.8385H58.4699H58.6324L59.1608 44.8791C59.1608 44.8385 59.1608 44.8114 59.1608 44.7843C59.1608 44.7572 59.1473 44.7166 59.1337 44.703L58.9982 44.6759C58.917 44.6624 58.8628 44.6488 58.8492 44.6353C58.8357 44.6082 58.8221 44.5675 58.8221 44.5269L58.8357 43.6327C58.8357 43.294 58.8221 43.0772 58.7815 42.9688C58.7408 42.8604 58.6595 42.7656 58.524 42.6707C58.4021 42.5895 58.2395 42.5488 58.0769 42.5488C57.9279 42.5488 57.7789 42.5759 57.6163 42.6437C57.4944 42.6978 57.3589 42.7791 57.2099 42.9146C57.2099 42.8469 57.2099 42.8062 57.2099 42.7927C57.2099 42.7791 57.2099 42.752 57.2099 42.7249V42.4133L57.0608 42.4269C56.9795 42.5217 56.9253 42.5895 56.8711 42.6301C56.844 42.6437 56.8169 42.6708 56.8034 42.6843C56.7899 42.6978 56.7628 42.6978 56.7628 42.7114C56.7357 42.7249 56.6679 42.752 56.5731 42.7927C56.4511 42.8198 56.3699 42.8469 56.3563 42.8469C56.3428 42.8469 56.3157 42.8604 56.2886 42.8604V42.9959C56.4105 43.0366 56.4918 43.0637 56.546 43.1043C56.5866 43.1314 56.6002 43.1585 56.6137 43.1856C56.6273 43.2533 56.6408 43.3482 56.6408 43.4701V43.6462L56.6544 43.9308V44.1204V44.3508C56.6544 44.4727 56.6544 44.554 56.6408 44.5946C56.6273 44.6217 56.6137 44.6353 56.5866 44.6488C56.5731 44.6624 56.5189 44.6759 56.4105 44.6895C56.424 44.6759 56.3834 44.6895 56.3292 44.7166ZM59.5266 43.4024C59.4995 43.5243 59.486 43.6733 59.486 43.8359C59.486 43.9172 59.5131 44.0256 59.5537 44.1611C59.5944 44.2695 59.635 44.3643 59.7163 44.4727C59.784 44.5675 59.8653 44.6624 59.9737 44.7166C60.0686 44.7843 60.1769 44.8385 60.2989 44.8656C60.3937 44.8927 60.5021 44.9062 60.6511 44.9062C60.8679 44.9062 61.0576 44.8656 61.2202 44.7843C61.3963 44.703 61.5589 44.5811 61.7215 44.4049C61.6808 44.3643 61.6266 44.3237 61.5589 44.283C61.464 44.3508 61.3828 44.3914 61.315 44.432C61.2473 44.4591 61.166 44.4862 61.0847 44.4998C61.0305 44.5133 60.9492 44.5133 60.8002 44.5133L60.6376 44.4591C60.5699 44.432 60.4886 44.3914 60.4208 44.3372C60.3531 44.283 60.2989 44.2153 60.2447 44.134C60.204 44.0527 60.1634 43.9578 60.1363 43.8495C60.1092 43.7411 60.0957 43.6462 60.0957 43.5514C60.0957 43.5378 60.0957 43.5107 60.0957 43.4837H60.326C60.5157 43.4837 60.6105 43.4837 60.6241 43.4837C60.6647 43.4837 60.7324 43.4837 60.8408 43.4972C61.1253 43.5108 61.3015 43.5243 61.3828 43.5243H61.6808C61.6808 43.3888 61.6537 43.2669 61.6131 43.172C61.5724 43.0772 61.5182 42.9959 61.464 42.9146C61.3963 42.8469 61.315 42.7656 61.2202 42.6978C61.1524 42.6437 61.0576 42.6166 60.9628 42.5895C60.8544 42.5624 60.7189 42.5488 60.5563 42.5488C60.4886 42.5488 60.3802 42.5624 60.2718 42.603C60.177 42.6301 60.0821 42.6843 59.9602 42.7656C59.8518 42.8469 59.7299 42.9688 59.635 43.1178C59.6079 43.1585 59.5673 43.2533 59.5266 43.4024ZM61.0982 43.294C61.0711 43.294 61.0441 43.294 61.0305 43.294C61.0034 43.294 60.9763 43.294 60.9221 43.3075C60.8544 43.3075 60.8002 43.3211 60.7595 43.3211H60.1363C60.1499 43.1314 60.204 42.9959 60.2989 42.8875C60.3937 42.7791 60.5021 42.7249 60.6241 42.7249C60.7053 42.7249 60.7866 42.752 60.8679 42.8062C60.9492 42.8604 61.0034 42.9282 61.044 43.023C61.0847 43.0908 61.0982 43.1856 61.0982 43.294ZM62.006 44.7166C62.006 44.7437 61.9924 44.7708 61.9924 44.7843C61.9924 44.7978 61.9924 44.8249 62.006 44.852C62.1821 44.8385 62.277 44.8385 62.2905 44.8385H62.3311C62.4395 44.8249 62.5615 44.8249 62.6834 44.8249L63.1982 44.852H63.4557C63.4692 44.8249 63.4692 44.7978 63.4692 44.7707C63.4692 44.7301 63.4557 44.7166 63.4421 44.6895C63.4286 44.6759 63.3744 44.6624 63.2931 44.6624C63.2118 44.6488 63.1576 44.6488 63.117 44.6353C63.0899 44.6217 63.0492 44.6082 63.0221 44.5811C62.995 44.5404 62.9815 44.4862 62.9679 44.4456C62.9679 43.9578 62.9544 43.6462 62.9544 43.5108V43.443C62.9544 43.3482 62.9815 43.2533 63.0357 43.1585C63.0628 43.1043 63.1034 43.0637 63.144 43.0501H63.1576C63.1847 43.0501 63.2253 43.0637 63.2795 43.1043C63.3608 43.172 63.4421 43.1991 63.5234 43.1991C63.6182 43.1991 63.686 43.172 63.7402 43.0908C63.7944 43.023 63.8215 42.9417 63.8215 42.8604C63.8215 42.7791 63.7808 42.6978 63.7131 42.6301C63.6453 42.5624 63.5641 42.5353 63.4692 42.5353C63.3879 42.5353 63.3202 42.5624 63.266 42.603C63.1847 42.6707 63.1441 42.7114 63.117 42.7385C63.0763 42.7791 63.0221 42.8604 62.9544 42.9959C62.9544 42.8604 62.9544 42.7927 62.9544 42.7656C62.9544 42.7249 62.9544 42.6707 62.9544 42.603C62.9544 42.5759 62.9544 42.5488 62.9544 42.5353C62.9544 42.5082 62.9544 42.4675 62.9408 42.4269H62.7511C62.724 42.454 62.697 42.4811 62.6699 42.5217C62.6157 42.603 62.5344 42.6708 62.426 42.752C62.3176 42.8198 62.1957 42.874 62.0602 42.8875L62.0737 42.9824C62.0873 43.0095 62.1008 43.0366 62.1415 43.0366C62.2228 43.0501 62.277 43.0772 62.3311 43.1043C62.3582 43.1314 62.3718 43.1449 62.3718 43.1856C62.3853 43.3482 62.3989 43.6598 62.3989 44.1069C62.3989 44.3508 62.3853 44.4998 62.3718 44.5404C62.2905 44.5946 62.1957 44.6353 62.1144 44.6488C62.0602 44.6759 62.0331 44.6895 62.006 44.7166ZM65.366 44.8656C65.4066 44.8656 65.4879 44.8656 65.6099 44.8656C65.6234 44.8656 65.7047 44.852 65.8402 44.8385C65.935 44.8249 66.0299 44.8249 66.1247 44.8249C66.4905 44.8249 66.6937 44.8249 66.7344 44.8249L67.1137 44.852H67.195H67.2492C67.2492 44.8114 67.2628 44.7708 67.2628 44.7437C67.2628 44.7166 67.2628 44.6759 67.2492 44.6353L67.1815 44.6217C67.1137 44.6082 67.046 44.5946 66.9647 44.5811H66.9105C66.7886 44.554 66.7208 44.5404 66.7073 44.5133C66.6802 44.4727 66.6531 44.3914 66.6531 44.2424L66.6395 43.4295C66.6395 43.3346 66.6531 43.2398 66.6531 43.172C66.7479 43.1585 66.8157 43.1585 66.8834 43.1585C67.3441 43.1585 67.615 43.1856 67.6963 43.2262C67.7505 43.2533 67.7911 43.3346 67.8318 43.4701C67.8453 43.5378 67.8724 43.5785 67.886 43.6191C67.9402 43.6327 67.9808 43.6327 67.9944 43.6327C68.0215 43.6327 68.0486 43.6327 68.0757 43.6191C68.0757 43.5785 68.0757 43.5514 68.0757 43.5378C68.0757 43.294 68.0757 43.1585 68.0757 43.1314V43.0772C68.0757 43.0095 68.0892 42.9282 68.0892 42.8333L68.1028 42.3998C68.0486 42.3998 68.0079 42.3862 67.9808 42.3862C67.9673 42.3862 67.9537 42.3862 67.9266 42.3862C67.886 42.3862 67.8589 42.3862 67.8589 42.3862C67.8453 42.5624 67.8318 42.6708 67.8182 42.7114C67.8047 42.752 67.7641 42.7927 67.7234 42.8198C67.6963 42.8333 67.6421 42.8469 67.5337 42.8604C67.3847 42.874 67.2763 42.8875 67.195 42.8875H66.8699H66.6802C66.6666 42.8875 66.6531 42.874 66.6395 42.874C66.626 42.8333 66.626 42.7114 66.626 42.5217L66.6395 42.1559L66.626 41.8308C66.626 41.763 66.6395 41.7088 66.6666 41.6682C66.7073 41.6546 66.7344 41.6411 66.7479 41.6411C66.8428 41.6275 66.9647 41.614 67.1273 41.614L67.5066 41.6004C67.7505 41.6004 67.8995 41.614 67.9537 41.6546C68.0079 41.6953 68.0757 41.7901 68.1434 41.9798C68.1705 42.0475 68.1976 42.0882 68.2112 42.1017C68.2382 42.1153 68.2653 42.1288 68.2924 42.1288C68.3195 42.1288 68.3737 42.1288 68.4415 42.1153C68.455 42.0882 68.455 42.0475 68.455 41.9933L68.4144 41.4785C68.4144 41.4243 68.4008 41.3701 68.3873 41.3159C68.3602 41.3159 68.3195 41.3159 68.2924 41.3295C68.2518 41.3295 68.2247 41.3295 68.2112 41.3295L67.7234 41.343H67.615H67.5608H67.4253H67.3711C67.1408 41.3566 66.9241 41.3566 66.7073 41.3566C66.2873 41.3566 65.9621 41.343 65.7453 41.3295L65.3931 41.3159V41.5056L65.4608 41.5191C65.5286 41.5462 65.5828 41.5598 65.6234 41.5598C65.7724 41.5869 65.8537 41.614 65.8944 41.6411L65.9215 42.5488V43.0095L65.935 43.4024V43.6598L65.9486 44.283V44.2966C65.9486 44.3778 65.935 44.4456 65.9215 44.5133L65.8673 44.5404C65.7724 44.5675 65.6776 44.5811 65.5963 44.6082C65.5015 44.6217 65.4337 44.6353 65.3931 44.6488L65.366 44.8656ZM70.826 42.874C70.6092 42.6572 70.3247 42.5353 69.9453 42.5353C69.7692 42.5353 69.6202 42.5488 69.4982 42.5895C69.3763 42.6301 69.2544 42.6843 69.1324 42.7791C69.0511 42.8469 68.9699 42.9146 68.9021 43.0095C68.8344 43.1043 68.7802 43.2127 68.7395 43.3346C68.6989 43.4566 68.6853 43.5785 68.6853 43.7004C68.6853 43.9443 68.726 44.134 68.8073 44.2966C68.8886 44.4591 69.0376 44.5946 69.2273 44.7301C69.4305 44.852 69.6608 44.9198 69.9453 44.9198C70.2028 44.9198 70.4195 44.8656 70.6092 44.7572C70.7989 44.6488 70.9479 44.4862 71.0699 44.2559C71.1376 44.1069 71.1782 43.9172 71.1782 43.6733C71.1782 43.5514 71.1511 43.4024 71.097 43.2669C71.0292 43.1178 70.9344 42.9824 70.826 42.874ZM69.3357 43.8088C69.3357 43.4837 69.3492 43.2804 69.3763 43.1856C69.417 43.0366 69.4711 42.9146 69.566 42.8469C69.6608 42.7656 69.7692 42.7249 69.9047 42.7249C70.0808 42.7249 70.2299 42.7927 70.3382 42.9282C70.4466 43.0637 70.5008 43.294 70.5008 43.6327C70.5008 43.9037 70.4873 44.0933 70.4602 44.2153C70.4195 44.3914 70.3518 44.5269 70.2705 44.6082C70.1757 44.6895 70.0673 44.7301 69.9318 44.7301C69.8234 44.7301 69.7286 44.703 69.6473 44.6624C69.566 44.6217 69.5118 44.5675 69.4711 44.5133C69.417 44.432 69.3763 44.3237 69.3628 44.2017C69.3628 44.1611 69.3492 44.0391 69.3357 43.8088ZM71.4763 44.7166C71.4763 44.7437 71.4628 44.7708 71.4628 44.7843C71.4628 44.7978 71.4628 44.8249 71.4763 44.852C71.6524 44.8385 71.7473 44.8385 71.7608 44.8385H71.8015C71.9099 44.8249 72.0318 44.8249 72.1537 44.8249L72.6686 44.852H72.926C72.9395 44.8249 72.9395 44.7978 72.9395 44.7707C72.9395 44.7301 72.926 44.7166 72.9124 44.6895C72.8989 44.6759 72.8447 44.6624 72.7634 44.6624C72.6821 44.6488 72.6279 44.6488 72.5873 44.6353C72.5466 44.6217 72.5195 44.6082 72.4924 44.5811C72.4653 44.5404 72.4518 44.4862 72.4382 44.4456C72.4382 43.9578 72.4247 43.6462 72.4247 43.5108V43.443C72.4247 43.3482 72.4518 43.2533 72.506 43.1585C72.5331 43.1043 72.5737 43.0637 72.6144 43.0501H72.6279C72.655 43.0501 72.6957 43.0637 72.7499 43.1043C72.8312 43.172 72.9124 43.1991 72.9937 43.1991C73.0886 43.1991 73.1563 43.172 73.2105 43.0908C73.2647 43.023 73.2918 42.9417 73.2918 42.8604C73.2918 42.7791 73.2511 42.6978 73.1834 42.6301C73.1157 42.5624 73.0344 42.5353 72.9395 42.5353C72.8582 42.5353 72.7905 42.5624 72.7363 42.603C72.655 42.6707 72.6144 42.7114 72.5873 42.7385C72.5466 42.7791 72.4924 42.8604 72.4247 42.9959C72.4247 42.8604 72.4247 42.7927 72.4247 42.7656C72.4247 42.7249 72.4247 42.6707 72.4247 42.603C72.4247 42.5759 72.4247 42.5488 72.4247 42.5353C72.4247 42.5082 72.4247 42.4675 72.4112 42.4269H72.2215C72.1944 42.454 72.1673 42.4811 72.1402 42.5217C72.086 42.603 72.0047 42.6708 71.8963 42.752C71.7879 42.8198 71.666 42.874 71.5305 42.8875L71.5441 42.9824C71.5576 43.0095 71.5711 43.0366 71.6118 43.0366C71.6931 43.0501 71.7473 43.0772 71.8015 43.1043C71.8286 43.1314 71.8421 43.1449 71.8421 43.1856C71.8557 43.3482 71.8692 43.6598 71.8692 44.1069C71.8692 44.3508 71.8557 44.4998 71.8421 44.5404C71.7608 44.5946 71.666 44.6353 71.5847 44.6488C71.5305 44.6759 71.5034 44.6895 71.4763 44.7166ZM78.1828 41.5598C78.0608 41.4785 77.8982 41.4243 77.7086 41.3566C77.5189 41.3024 77.3157 41.2753 77.0853 41.2753C77.0041 41.2617 76.9499 41.2617 76.9092 41.2617C76.6247 41.2617 76.3537 41.3024 76.1099 41.3972C75.866 41.492 75.6628 41.614 75.5002 41.7766C75.3376 41.9391 75.2157 42.1153 75.1208 42.3049C74.9989 42.5759 74.9311 42.8469 74.9311 43.1178C74.9311 43.3617 74.9718 43.592 75.0531 43.8359C75.1073 43.9985 75.2021 44.1611 75.3241 44.3101C75.446 44.4591 75.595 44.5811 75.7576 44.6759C75.8795 44.7572 76.0421 44.8114 76.2182 44.852C76.3944 44.8927 76.6112 44.9062 76.855 44.9062C77.2073 44.9062 77.5053 44.8791 77.7763 44.8114C78.0337 44.7437 78.1963 44.6895 78.2505 44.6353C78.2641 44.6217 78.2776 44.5811 78.2776 44.5133C78.2776 44.4998 78.2776 44.4185 78.2912 44.283C78.2912 44.2424 78.2912 44.1204 78.2912 43.9037C78.2912 43.714 78.2912 43.6056 78.3047 43.5785C78.3047 43.5514 78.3182 43.5243 78.3318 43.5108C78.3453 43.4972 78.386 43.4837 78.4537 43.4566C78.5215 43.4295 78.5757 43.4024 78.6163 43.3888C78.6299 43.3617 78.6299 43.3346 78.6299 43.3211C78.6299 43.294 78.6299 43.2533 78.6299 43.1991C78.535 43.1991 78.4673 43.1856 78.4537 43.1991H78.2776H77.8441C77.7899 43.1991 77.7357 43.1991 77.6815 43.1991C77.5324 43.1856 77.3699 43.1856 77.1666 43.1856C77.1531 43.1856 77.126 43.1856 77.0989 43.1991C77.0853 43.2398 77.0853 43.2804 77.0853 43.3075C77.0853 43.3211 77.0853 43.3346 77.0853 43.3617C77.0989 43.3753 77.126 43.3888 77.1802 43.4024L77.4241 43.4701C77.4918 43.4837 77.5189 43.4972 77.5324 43.5108C77.546 43.5243 77.5595 43.5378 77.5731 43.5649C77.5731 43.6327 77.5866 43.7682 77.5866 43.9578C77.5866 44.1475 77.5731 44.2966 77.5595 44.4049C77.546 44.4591 77.5324 44.4998 77.5053 44.5404C77.4647 44.5811 77.4105 44.6082 77.3428 44.6217C77.2073 44.6488 77.0853 44.6624 76.9634 44.6624C76.7195 44.6624 76.5163 44.5946 76.3266 44.4591C76.1505 44.3237 76.015 44.134 75.9202 43.9037C75.8253 43.6733 75.7847 43.4159 75.7847 43.172C75.7847 42.6301 75.8931 42.2372 76.1234 41.9662C76.3537 41.6953 76.6247 41.5598 76.9228 41.5598C77.0853 41.5598 77.2208 41.5869 77.3428 41.6411C77.5053 41.7088 77.6408 41.8037 77.7492 41.8985C77.8034 41.9527 77.8983 42.0882 78.0337 42.2914C78.0879 42.3049 78.1557 42.3049 78.237 42.3185C78.2505 42.2779 78.2505 42.2508 78.2505 42.2237C78.2505 42.1559 78.237 42.034 78.2234 41.8849C78.2099 41.7224 78.1963 41.614 78.1828 41.5598ZM78.8331 44.7166C78.8331 44.7437 78.8195 44.7708 78.8195 44.7843C78.8195 44.7978 78.8195 44.8249 78.8331 44.852C79.0092 44.8385 79.1041 44.8385 79.1176 44.8385H79.1582C79.2666 44.8249 79.3886 44.8249 79.5105 44.8249L80.0253 44.852H80.2828C80.2963 44.8249 80.2963 44.7978 80.2963 44.7707C80.2963 44.7301 80.2828 44.7166 80.2692 44.6895C80.2557 44.6759 80.2015 44.6624 80.1202 44.6624C80.0389 44.6488 79.9847 44.6488 79.9441 44.6353C79.9034 44.6217 79.8763 44.6082 79.8492 44.5811C79.8221 44.5404 79.8086 44.4862 79.795 44.4456C79.795 43.9578 79.7815 43.6462 79.7815 43.5108V43.443C79.7815 43.3482 79.8086 43.2533 79.8628 43.1585C79.8899 43.1043 79.9305 43.0637 79.9712 43.0501H79.9847C80.0118 43.0501 80.0524 43.0637 80.1066 43.1043C80.1879 43.172 80.2692 43.1991 80.3505 43.1991C80.4453 43.1991 80.5131 43.172 80.5673 43.0908C80.6215 43.023 80.6486 42.9417 80.6486 42.8604C80.6486 42.7791 80.6079 42.6978 80.5402 42.6301C80.4724 42.5624 80.3912 42.5353 80.2963 42.5353C80.215 42.5353 80.1473 42.5624 80.0931 42.603C80.0118 42.6707 79.9712 42.7114 79.9441 42.7385C79.9034 42.7791 79.8492 42.8604 79.7815 42.9959C79.7815 42.8604 79.7815 42.7927 79.7815 42.7656C79.7815 42.7249 79.7815 42.6707 79.7815 42.603C79.7815 42.5759 79.7815 42.5488 79.7815 42.5353C79.7815 42.5082 79.7815 42.4675 79.7679 42.4269H79.5783C79.5512 42.454 79.5241 42.4811 79.497 42.5217C79.4428 42.603 79.3615 42.6708 79.2531 42.752C79.1447 42.8198 79.0228 42.874 78.8873 42.8875L78.9008 42.9824C78.9144 43.0095 78.9279 43.0366 78.9686 43.0366C79.0499 43.0501 79.1041 43.0772 79.1582 43.1043C79.1853 43.1314 79.1989 43.1449 79.1989 43.1856C79.2124 43.3482 79.226 43.6598 79.226 44.1069C79.226 44.3508 79.2124 44.4998 79.1989 44.5404C79.1176 44.5946 79.0228 44.6353 78.9415 44.6488C78.8873 44.6759 78.8602 44.6895 78.8331 44.7166ZM83.0466 42.874C82.8299 42.6572 82.5453 42.5353 82.166 42.5353C81.9899 42.5353 81.8408 42.5488 81.7189 42.5895C81.597 42.6301 81.475 42.6843 81.3531 42.7791C81.2718 42.8469 81.1905 42.9146 81.1228 43.0095C81.055 43.1043 81.0008 43.2127 80.9602 43.3346C80.9195 43.4566 80.906 43.5785 80.906 43.7004C80.906 43.9443 80.9466 44.134 81.0279 44.2966C81.1092 44.4591 81.2583 44.5946 81.4479 44.7301C81.6512 44.852 81.8815 44.9198 82.166 44.9198C82.4234 44.9198 82.6402 44.8656 82.8299 44.7572C83.0195 44.6488 83.1686 44.4862 83.2905 44.2559C83.3583 44.1069 83.3989 43.9172 83.3989 43.6733C83.3989 43.5514 83.3718 43.4024 83.3176 43.2669C83.2499 43.1178 83.155 42.9824 83.0466 42.874ZM81.5563 43.8088C81.5563 43.4837 81.5699 43.2804 81.597 43.1856C81.6376 43.0366 81.6918 42.9146 81.7866 42.8469C81.8815 42.7656 81.9899 42.7249 82.1253 42.7249C82.3015 42.7249 82.4505 42.7927 82.5589 42.9282C82.6673 43.0637 82.7215 43.294 82.7215 43.6327C82.7215 43.9037 82.7079 44.0933 82.6808 44.2153C82.6402 44.3914 82.5724 44.5269 82.4912 44.6082C82.3963 44.6895 82.2879 44.7301 82.1524 44.7301C82.0441 44.7301 81.9492 44.703 81.8679 44.6624C81.7866 44.6217 81.7324 44.5675 81.6918 44.5133C81.6376 44.432 81.597 44.3237 81.5834 44.2017C81.5834 44.1611 81.5699 44.0391 81.5563 43.8088ZM83.5073 42.6437C83.5073 42.6708 83.5073 42.6978 83.5073 42.7114C83.5073 42.7249 83.5073 42.752 83.5073 42.7927C83.5208 42.8062 83.5615 42.8198 83.6157 42.8198C83.6699 42.8198 83.7241 42.8469 83.7647 42.8875C83.7918 42.9011 83.8189 42.9417 83.846 42.9959L84.3066 43.9849L84.7266 44.8927H84.8757H84.9705C84.9976 44.8114 85.0383 44.7301 85.0789 44.6488C85.1195 44.5675 85.1737 44.4862 85.2144 44.3778L85.5395 43.7004L85.5666 43.6598C85.5802 43.7004 85.6073 43.7275 85.6208 43.7546L85.675 43.863L86.1357 44.8927H86.3389C86.3524 44.8656 86.366 44.8249 86.3931 44.7572C86.5557 44.3372 86.6776 44.0527 86.7453 43.9037L87.1654 42.9688C87.1789 42.9417 87.1924 42.9282 87.206 42.9146C87.2466 42.8875 87.3686 42.8469 87.5447 42.7927C87.5447 42.752 87.5447 42.7249 87.5447 42.7114V42.6301C87.5041 42.6301 87.4499 42.6301 87.3957 42.6437C87.2602 42.6572 87.1518 42.6707 87.0841 42.6707C87.057 42.6707 86.9757 42.6708 86.8266 42.6572C86.6776 42.6437 86.5963 42.6437 86.5828 42.6437C86.5692 42.6437 86.5421 42.6437 86.515 42.6437L86.5015 42.7791C86.5286 42.7927 86.5963 42.8062 86.6776 42.8062C86.7995 42.8469 86.8673 42.874 86.8808 42.874C86.9215 42.9011 86.935 42.9282 86.935 42.9417C86.935 43.023 86.8944 43.1585 86.8131 43.3346C86.7995 43.3617 86.7724 43.4295 86.7183 43.5649C86.7047 43.6056 86.6505 43.7275 86.5692 43.9172L86.4608 44.1475L86.366 43.9308L86.0815 43.294L86.0544 43.2398C86.0273 43.1856 85.9595 43.0501 85.8783 42.8198C85.9324 42.8062 86.0002 42.7927 86.0679 42.7791C86.1357 42.7656 86.1899 42.7656 86.2034 42.7656V42.6166H86.0679C86.0408 42.6166 85.9731 42.6166 85.8512 42.6301C85.7292 42.6301 85.6344 42.6437 85.5531 42.6437C85.3905 42.6437 85.2686 42.6437 85.1873 42.6301C85.1331 42.6301 85.0518 42.6166 84.9163 42.6166V42.7656C84.9705 42.7791 85.0383 42.8062 85.106 42.8198C85.1466 42.8333 85.1737 42.8333 85.2144 42.8469C85.2686 42.9417 85.3228 43.0366 85.377 43.1585L85.4989 43.4159C85.4176 43.6869 85.2821 43.9714 85.1195 44.2695C85.106 44.2424 85.0789 44.1882 85.0518 44.1069C84.9841 43.9985 84.9163 43.8359 84.8215 43.6327L84.5505 43.023C84.537 42.9824 84.5234 42.9282 84.5099 42.874C84.5099 42.8604 84.5234 42.8469 84.537 42.8333C84.5641 42.8198 84.6183 42.7927 84.6995 42.7791C84.7402 42.7791 84.7673 42.7656 84.7944 42.752C84.8079 42.7249 84.8079 42.7114 84.8079 42.6843C84.8079 42.6572 84.8079 42.6301 84.8079 42.603C84.7673 42.603 84.7266 42.603 84.7131 42.603C84.686 42.603 84.6047 42.603 84.4692 42.6166C84.3337 42.6301 84.2389 42.6301 84.1712 42.6301C84.0763 42.6301 83.9679 42.6301 83.8595 42.6166C83.7512 42.603 83.6834 42.603 83.6699 42.603H83.6292L83.5073 42.6437ZM87.6395 42.7927C87.6395 42.8604 87.6395 42.9011 87.6395 42.9146C87.6395 42.9282 87.6395 42.9417 87.6531 42.9553L87.6937 42.9688H87.8834H87.9647V43.7411L87.9512 44.2153C87.9512 44.4456 88.0054 44.6082 88.1137 44.7166C88.2221 44.8249 88.3576 44.8791 88.5202 44.8791C88.6557 44.8791 88.7776 44.852 88.886 44.7978C88.9944 44.7437 89.0892 44.6624 89.157 44.5675L89.1434 44.5404C89.1163 44.4998 89.0757 44.4727 89.035 44.432C89.0079 44.4456 88.9944 44.4591 88.9808 44.4727C88.9266 44.5133 88.886 44.5404 88.8589 44.554C88.8318 44.5675 88.8047 44.5675 88.7505 44.5675C88.6963 44.5675 88.6557 44.554 88.615 44.5404C88.5879 44.4998 88.5608 44.4456 88.5473 44.3914C88.5337 44.3372 88.5337 44.2153 88.5337 44.012V42.9688L88.6692 42.9553H88.7234H88.8589C88.8995 42.9688 88.9266 42.9688 88.9402 42.9688C88.9673 42.9688 89.0215 42.9688 89.0757 42.9553C89.0892 42.9011 89.0892 42.8469 89.0892 42.8062C89.0892 42.7656 89.0892 42.7249 89.0757 42.6707C88.9537 42.6707 88.886 42.6707 88.8725 42.6707C88.7099 42.6843 88.6286 42.6843 88.615 42.6843H88.5473C88.5473 42.6572 88.5473 42.6301 88.5473 42.6166L88.5608 42.454C88.5608 42.3998 88.5608 42.332 88.5608 42.2372C88.5608 42.183 88.5473 42.1288 88.5337 42.0882H88.3847C88.2763 42.2778 88.1679 42.4269 88.0731 42.5082C88.0053 42.6166 87.8563 42.6978 87.6395 42.7927ZM89.3195 44.7166C89.3331 44.7843 89.3602 44.8249 89.3737 44.852H89.6447L90.0241 44.8385C90.1189 44.8385 90.2137 44.8385 90.3357 44.852L90.6337 44.8656C90.6473 44.8249 90.6473 44.7978 90.6473 44.7707C90.6473 44.7572 90.6473 44.7166 90.6473 44.6759C90.6202 44.6624 90.5795 44.6624 90.5389 44.6624C90.4983 44.6624 90.4441 44.6624 90.3763 44.6488C90.3492 44.6353 90.3221 44.6082 90.3221 44.5946C90.3086 44.554 90.295 44.4591 90.295 44.3372C90.295 44.3237 90.295 44.2695 90.295 44.1882C90.295 44.0527 90.295 43.863 90.295 43.6056V43.1314C90.3763 43.0637 90.4576 42.9959 90.566 42.9417C90.6744 42.8875 90.7828 42.8604 90.9047 42.8604C90.9995 42.8604 91.0808 42.8875 91.1486 42.9282C91.2163 42.9688 91.257 43.023 91.2841 43.1043C91.3112 43.172 91.3112 43.3075 91.3112 43.5108V44.1746L91.2976 44.5675C91.2976 44.5811 91.2841 44.5946 91.2841 44.6353C91.2299 44.6488 91.1892 44.6488 91.1215 44.6624C91.0673 44.6624 91.0131 44.6759 90.9725 44.703C90.9589 44.7301 90.9589 44.7437 90.9589 44.7572V44.7978V44.8656C90.9724 44.8656 90.9995 44.8791 91.0131 44.8791C91.135 44.8791 91.2434 44.8791 91.3247 44.8791C91.4331 44.8656 91.5279 44.8656 91.5957 44.8656C91.7041 44.8656 91.826 44.8791 91.975 44.8927C92.0563 44.9062 92.1105 44.9062 92.1376 44.9062H92.2054C92.2054 44.8656 92.2054 44.8385 92.2054 44.8114V44.7843C92.2054 44.7708 92.1918 44.7437 92.1783 44.7166C92.1512 44.703 92.1105 44.703 92.0699 44.6895C91.9886 44.6759 91.9344 44.6624 91.9073 44.6488C91.8937 44.6488 91.8937 44.6353 91.8802 44.6217L91.8937 44.0662V43.6869V43.5108C91.8937 43.3075 91.8802 43.172 91.8666 43.1043C91.8395 42.9959 91.7989 42.9146 91.7447 42.8333C91.6905 42.7656 91.6092 42.6978 91.5144 42.6437C91.406 42.5895 91.2976 42.5759 91.1486 42.5759C90.9995 42.5759 90.8641 42.603 90.7286 42.6572C90.5931 42.7114 90.4441 42.8062 90.2815 42.9282V41.3024L90.1325 41.2888C90.1054 41.3024 90.0783 41.3159 90.0512 41.3295C89.9021 41.3972 89.7666 41.4378 89.6718 41.4649C89.6312 41.4785 89.5905 41.4785 89.5363 41.492L89.306 41.5462C89.306 41.5869 89.306 41.614 89.306 41.6411V41.6953C89.455 41.7224 89.5499 41.7495 89.5905 41.7766C89.6312 41.8037 89.6583 41.8443 89.6718 41.8849C89.6853 41.9662 89.6989 42.1695 89.6989 42.5082V42.5895L89.6854 43.5785V43.6191V43.7546V43.8088V44.0256L89.6718 44.2288V44.4185C89.6718 44.5133 89.6583 44.5811 89.6447 44.6082C89.6312 44.6217 89.5905 44.6353 89.5363 44.6488C89.4008 44.6624 89.3195 44.6759 89.2924 44.6759V44.7166H89.3195Z" fill="#002A52"/>
<path d="M37.2393 38.1024C37.3205 38.0482 37.4425 38.0075 37.578 37.994C37.8489 37.9669 37.998 37.9262 38.0386 37.872C38.1199 37.7772 38.1605 37.574 38.1605 37.2624V35.623L38.147 35.2301V34.065L38.1335 32.7237V32.4933C38.1335 32.1817 38.1064 31.9379 38.0522 31.7888C37.9167 31.7075 37.7676 31.6669 37.6186 31.6669C37.5238 31.6669 37.4425 31.6533 37.3612 31.6398C37.3476 31.545 37.3476 31.4772 37.3476 31.423C37.3476 31.3959 37.3476 31.3553 37.3612 31.3146C37.6728 31.274 37.9844 31.2062 38.3096 31.0843C38.6347 30.9624 38.8922 30.8404 39.0683 30.705H39.2309C39.2715 30.705 39.3122 30.705 39.3799 30.705C39.407 32.0462 39.4205 32.954 39.4205 33.4553C39.4205 33.6043 39.4205 33.7262 39.407 33.8075V33.8482L39.4205 33.9566V36.5172L39.4341 37.3572V37.4927C39.4341 37.6553 39.4612 37.7772 39.5154 37.845C39.556 37.8991 39.6644 37.9262 39.8135 37.9398C39.8947 37.9533 40.0573 37.9669 40.2876 37.994C40.3012 38.0753 40.3147 38.143 40.3147 38.1972C40.3147 38.2379 40.3147 38.292 40.3012 38.3598L39.8405 38.3327C39.5831 38.3191 39.258 38.3056 38.8786 38.3056H38.6618C38.4451 38.3056 38.1199 38.3191 37.6999 38.3598H37.2799L37.2393 38.1024ZM43.3631 38.3462C43.6206 38.3462 43.8915 38.3191 44.176 38.2785L44.4199 38.2379C45.3277 38.3056 45.8967 38.3327 46.1406 38.3327C46.1541 38.292 46.1541 38.2379 46.1541 38.1972C46.1541 38.143 46.1541 38.0482 46.1541 37.9127C45.9102 37.8721 45.7747 37.8585 45.7476 37.845C45.4902 37.8179 45.3277 37.7637 45.2328 37.6824C45.1786 37.6417 45.1515 37.574 45.1515 37.4656C45.1515 37.3979 45.1922 37.2488 45.2599 37.0456C45.5173 36.3275 45.6935 35.8669 45.7747 35.6772H47.9831L48.4438 36.8153L48.6741 37.3843C48.6877 37.4385 48.7012 37.4927 48.7012 37.5469C48.7012 37.6011 48.6877 37.6417 48.647 37.6824C48.6199 37.7095 48.498 37.7501 48.3083 37.8043L47.6715 37.9398C47.658 38.0617 47.658 38.1972 47.658 38.3327L47.9425 38.3191L48.9315 38.265C49.067 38.2514 49.2838 38.2514 49.5954 38.2514C49.8664 38.2514 50.178 38.265 50.5167 38.292C50.8554 38.3191 51.1806 38.3327 51.4651 38.3327C51.4651 38.2785 51.4651 38.2379 51.4651 38.2108C51.4651 38.143 51.4515 38.0482 51.438 37.9262C51.2618 37.8585 51.0857 37.8179 50.9367 37.7908C50.7741 37.7772 50.6657 37.7366 50.598 37.6688C50.5573 37.6417 50.5031 37.5469 50.4218 37.3843C50.2728 37.0862 50.178 36.8424 50.0967 36.6391C49.9612 36.2733 49.8528 36.0024 49.7715 35.8262C49.636 35.5282 49.487 35.1353 49.2973 34.6611C49.1212 34.1869 48.9044 33.6991 48.6877 33.1843L47.6851 30.7998L47.6309 30.6914H47.3735H46.9806L45.6122 34.2953L44.447 37.3572C44.3522 37.5333 44.2709 37.6417 44.2167 37.6959C44.1489 37.7366 43.9728 37.7908 43.6747 37.8585C43.4851 37.8991 43.3631 37.9262 43.2818 37.9398L43.2683 38.3327H43.3631V38.3462ZM46.818 32.8591C46.9399 33.103 47.0889 33.4417 47.2651 33.9024C47.4547 34.363 47.6038 34.7559 47.7122 35.1082H47.5631C47.4006 35.1082 46.8722 35.1082 45.9644 35.0946L46.818 32.8591ZM54.5406 38.0617C54.527 38.1159 54.527 38.1701 54.527 38.1972C54.527 38.2243 54.527 38.2785 54.5406 38.3462C54.9199 38.3327 55.1231 38.3191 55.1367 38.3191H55.2315C55.4618 38.2921 55.7057 38.2785 55.9902 38.2785L57.1012 38.3327H57.6431C57.6702 38.265 57.6838 38.2108 57.6838 38.1566C57.6838 38.0888 57.6702 38.0346 57.6296 37.994C57.5889 37.9533 57.4806 37.9398 57.3044 37.9262C57.1283 37.9127 57.0064 37.8856 56.9251 37.872C56.8438 37.8585 56.7896 37.8043 56.7083 37.7501C56.6406 37.6553 56.6135 37.5604 56.5999 37.4656C56.5864 36.4088 56.5864 35.745 56.5593 35.4604L56.5457 35.3114C56.5457 35.1082 56.5999 34.905 56.7083 34.7153C56.776 34.5933 56.8438 34.5256 56.9251 34.4985H56.9657C57.0335 34.4985 57.1148 34.5391 57.2231 34.6204C57.3993 34.7559 57.5754 34.8237 57.738 34.8237C57.9277 34.8237 58.0767 34.7559 58.1986 34.6069C58.307 34.4579 58.3748 34.2953 58.3748 34.1191C58.3748 33.943 58.2935 33.7804 58.1444 33.6314C57.9954 33.4959 57.8193 33.4282 57.616 33.4282C57.4535 33.4282 57.3044 33.4824 57.1689 33.5772C56.9928 33.7262 56.898 33.8211 56.8573 33.8617C56.7896 33.9566 56.6677 34.1327 56.5051 34.4037C56.5051 34.1191 56.5051 33.9701 56.5051 33.9159C56.5051 33.8211 56.5051 33.7127 56.5051 33.5772C56.5051 33.5095 56.5051 33.4688 56.5051 33.4146C56.5051 33.3604 56.4915 33.2791 56.478 33.1979L56.0715 33.2114C56.0309 33.2521 55.9767 33.3198 55.9089 33.4146C55.787 33.5772 55.6244 33.7398 55.3941 33.8888C55.1638 34.0514 54.9064 34.1462 54.6218 34.1869L54.6354 34.4037C54.6489 34.4714 54.7031 34.5121 54.7709 34.5256C54.9335 34.5662 55.0689 34.6069 55.1638 34.6611C55.218 34.7017 55.2451 34.7559 55.2586 34.8237C55.2993 35.1624 55.3264 35.8262 55.3264 36.8017C55.3264 37.3301 55.3128 37.6417 55.2722 37.7366C55.096 37.845 54.9064 37.9262 54.7167 37.9669C54.6489 37.9804 54.5812 38.0211 54.5406 38.0617Z" fill="#002A52"/>
<path d="M29.9636 31.342C29.9907 31.4504 30.0178 31.6807 30.0585 32.0058C30.0991 32.331 30.1127 32.5749 30.1127 32.7239C30.1127 32.7781 30.0991 32.8594 30.072 32.9407C29.9094 32.9407 29.7604 32.9271 29.652 32.9C29.354 32.4529 29.1507 32.1684 29.0288 32.0465C28.7985 31.8297 28.514 31.64 28.1617 31.491C27.9043 31.3826 27.6062 31.3284 27.2675 31.3284C26.6172 31.3284 26.0617 31.6129 25.5604 32.1955C25.0727 32.7781 24.8288 33.6317 24.8288 34.7833C24.8288 35.3252 24.9236 35.84 25.1133 36.3413C25.303 36.8426 25.5875 37.2491 25.9804 37.5336C26.3598 37.8181 26.8069 37.9671 27.3352 37.9671C27.5927 37.9671 27.8501 37.94 28.1346 37.8723C28.2836 37.8452 28.392 37.7775 28.4869 37.6826C28.5546 37.6149 28.5952 37.5336 28.6088 37.4117C28.6359 37.1949 28.6494 36.8697 28.6494 36.4633C28.6494 36.0568 28.6494 35.7858 28.6359 35.6368C28.6088 35.5826 28.5817 35.542 28.5546 35.5284C28.5275 35.5149 28.4462 35.4878 28.3243 35.4471L27.8094 35.3117C27.701 35.2846 27.6333 35.2575 27.6062 35.2168C27.5927 35.1626 27.5927 35.1355 27.5927 35.1084C27.5927 35.0542 27.6062 34.9729 27.6333 34.8781C27.701 34.851 27.7552 34.8375 27.7823 34.8375C28.2023 34.8375 28.5681 34.851 28.8798 34.8781C28.9881 34.8917 29.1101 34.8917 29.232 34.8917L30.1533 34.8781L30.5462 34.8646C30.5869 34.8646 30.7223 34.8646 30.9391 34.8781C30.9391 34.9729 30.9391 35.0678 30.9391 35.1355C30.9391 35.1762 30.9256 35.2304 30.8985 35.2846C30.8307 35.3252 30.7223 35.3794 30.5598 35.4336C30.3972 35.4878 30.3159 35.5284 30.2888 35.5555C30.2617 35.5826 30.2346 35.6368 30.221 35.7046C30.2075 35.7723 30.2075 36.0026 30.2075 36.3955C30.2075 36.8562 30.2075 37.1271 30.2075 37.2084C30.194 37.4929 30.1804 37.6555 30.1804 37.6962C30.1804 37.8452 30.1669 37.9265 30.1262 37.9671C30.0178 38.0755 29.6791 38.1975 29.1236 38.3329C28.5681 38.4684 27.9043 38.5362 27.1591 38.5362C26.6443 38.5362 26.1836 38.4955 25.8043 38.4142C25.4249 38.3329 25.0862 38.211 24.8152 38.0484C24.4494 37.8317 24.1378 37.5742 23.8804 37.2626C23.623 36.951 23.4333 36.6258 23.2978 36.26C23.1217 35.7452 23.0269 35.2439 23.0269 34.7291C23.0269 34.16 23.1623 33.591 23.4198 33.0084C23.6094 32.5884 23.8804 32.2091 24.2327 31.8704C24.5849 31.5317 25.0185 31.2607 25.5469 31.0575C26.0752 30.8542 26.6443 30.7594 27.2675 30.7594C27.3488 30.7594 27.4707 30.7729 27.6469 30.7865C28.121 30.7865 28.5546 30.8407 28.9746 30.9626C29.354 31.0304 29.6927 31.1794 29.9636 31.342ZM31.1559 33.6723C31.1423 33.7671 31.1423 33.8213 31.1288 33.862C31.1288 33.9026 31.1152 33.9297 31.1152 33.9568C31.1152 33.9975 31.1288 34.0246 31.1423 34.0381C31.2101 34.0788 31.3591 34.1194 31.603 34.16C31.6707 34.1736 31.7385 34.1871 31.7927 34.2142C31.8333 34.282 31.8469 34.3362 31.8469 34.3904C31.8604 34.4988 31.8604 34.702 31.8604 35.0136C31.8604 35.1897 31.8469 35.4742 31.8333 35.8536V36.0433C31.8333 36.7207 31.8333 37.1 31.8469 37.1813C31.874 37.4658 31.9281 37.6826 32.0094 37.8317C32.1178 38.0213 32.294 38.1839 32.5243 38.3194C32.7546 38.4549 33.0256 38.5226 33.3507 38.5226C33.6217 38.5226 33.8656 38.4684 34.1094 38.36C34.3533 38.2517 34.6378 38.0484 34.9901 37.7504C35.0849 37.6691 35.1527 37.6149 35.1933 37.5742V38.5226L35.4236 38.5362C35.9114 38.36 36.372 38.211 36.7785 38.1297C36.8733 38.1162 37.0088 38.1026 37.2256 38.0891C37.2391 38.0349 37.2391 37.9942 37.2391 37.9671C37.2391 37.9536 37.2391 37.8723 37.2256 37.7368L37.1578 37.7233L36.6294 37.7368C36.6023 37.7368 36.5617 37.7097 36.5346 37.6691C36.494 37.6284 36.4804 37.5471 36.4804 37.4523C36.4804 37.4252 36.494 37.3168 36.5075 37.1136V36.8155L36.521 36.3684V35.3794L36.5075 34.6884L36.5346 34.1329L36.521 33.6994C36.1688 33.7129 35.8843 33.7129 35.6404 33.7129L34.7462 33.6994C34.6514 33.6994 34.543 33.7129 34.421 33.7265C34.4075 33.8078 34.4075 33.8755 34.4075 33.9297C34.4075 33.9704 34.421 34.0246 34.4346 34.1058C34.4481 34.1194 34.4752 34.1329 34.5023 34.1465L34.8952 34.1736C35.0578 34.1871 35.1933 34.2278 35.2881 34.282L35.3017 34.4039V34.6207C35.3017 34.6342 35.3017 34.7291 35.3152 34.8781C35.3152 35.0271 35.3288 35.1626 35.3288 35.2575C35.3288 35.3523 35.3288 35.4742 35.3152 35.6233L35.2746 37.0594C35.234 37.1678 35.1527 37.2762 35.0443 37.3981C35.0036 37.4387 34.9223 37.5065 34.7733 37.6013C34.6378 37.6962 34.5023 37.7639 34.394 37.8046C34.2856 37.8452 34.1501 37.8587 33.974 37.8587C33.7843 37.8587 33.6352 37.8181 33.4998 37.7233C33.3643 37.642 33.2694 37.5065 33.2152 37.3439C33.1746 37.1136 33.1475 36.8155 33.1475 36.4226V35.8265V34.9594V34.6613L33.161 34.0923L33.1475 33.6994L33.0256 33.6858H31.2643C31.2372 33.6452 31.1965 33.6452 31.1559 33.6723ZM40.3688 38.36C40.9107 38.3465 41.2223 38.3329 41.3172 38.3329C41.4798 38.3194 41.7101 38.3058 42.0217 38.3058L42.3333 38.3329C42.7533 38.36 42.9701 38.3736 43.0107 38.3736H43.4307C43.4443 38.2923 43.4578 38.2381 43.4578 38.1975C43.4578 38.1704 43.4443 38.1162 43.4307 38.0213C43.3765 37.9942 43.3223 37.9807 43.2546 37.9807C42.9023 37.94 42.672 37.8723 42.5636 37.7504C42.4823 37.6826 42.4552 37.4658 42.4552 37.1136V36.6123L42.4417 35.9891V35.1355C42.4417 35.0542 42.4417 34.9052 42.4281 34.6884C42.4281 34.6342 42.4281 34.5936 42.4281 34.5665V34.282C42.5094 34.2684 42.5636 34.2549 42.6043 34.2549H42.6585C42.6991 34.2684 42.7533 34.2684 42.821 34.2684L43.2546 34.2549H43.3088C43.3494 34.2549 43.3901 34.2413 43.4307 34.2278C43.4443 34.16 43.4443 34.1194 43.4443 34.0923V33.9297L43.4578 33.8213C43.4578 33.7942 43.4307 33.7536 43.3765 33.6994C43.3088 33.6858 43.2546 33.6858 43.214 33.6858L42.523 33.6994H42.4146V33.5368V32.9C42.4146 32.3852 42.4281 32.0329 42.4688 31.8568C42.5094 31.6807 42.5636 31.5452 42.6585 31.4504C42.7533 31.3555 42.8481 31.3149 42.9701 31.3149C43.0649 31.3149 43.1462 31.342 43.214 31.3826C43.2817 31.4368 43.363 31.5452 43.4714 31.7349C43.5798 31.9246 43.6746 32.0329 43.7559 32.1007C43.8643 32.182 43.9862 32.2226 44.0946 32.2226C44.2436 32.2226 44.3927 32.1549 44.5146 32.0329C44.6365 31.911 44.7043 31.762 44.7043 31.6129C44.7043 31.491 44.6636 31.3555 44.5959 31.2065C44.5281 31.0575 44.3927 30.9491 44.203 30.8542C44.0133 30.7594 43.783 30.7188 43.4985 30.7188C43.2004 30.7188 42.9565 30.7594 42.7398 30.8542C42.523 30.9355 42.2927 31.0981 42.0352 31.3149L41.8862 31.4775C41.683 31.7213 41.5069 32.0465 41.3714 32.4529C41.2359 32.8594 41.1546 33.2929 41.141 33.7536C40.8023 33.7807 40.572 33.7942 40.4636 33.7942C40.4094 33.862 40.3823 33.9433 40.3823 34.0517C40.3823 34.1194 40.3823 34.2007 40.3823 34.3091C40.423 34.3226 40.4636 34.3226 40.4772 34.3226H40.843C40.9785 34.3362 41.0869 34.3362 41.1546 34.3362L41.1681 34.4446V35.5555L41.2088 36.5581V36.6123V36.6936V36.7613C41.2088 36.8291 41.2088 36.8697 41.2088 36.9104C41.2088 36.951 41.1952 37.1542 41.1817 37.5065V37.6284C41.1817 37.7097 41.1546 37.7639 41.114 37.8046C41.0869 37.8317 40.9649 37.8723 40.7617 37.94C40.5449 37.9942 40.4094 38.0484 40.3417 38.0755L40.3688 38.36ZM51.2752 38.36C51.8172 38.3465 52.1288 38.3329 52.2236 38.3329C52.3862 38.3194 52.6165 38.3058 52.9281 38.3058L53.2398 38.3329C53.6598 38.36 53.8765 38.3736 53.9172 38.3736H54.3372C54.3507 38.2923 54.3643 38.2381 54.3643 38.1975C54.3643 38.1704 54.3507 38.1162 54.3372 38.0213C54.283 37.9942 54.2288 37.9807 54.161 37.9807C53.8088 37.94 53.5785 37.8723 53.4701 37.7504C53.3888 37.6826 53.3617 37.4658 53.3617 37.1136V36.6123L53.3481 35.9891V35.1355C53.3481 35.0542 53.3481 34.9052 53.3346 34.6884C53.3346 34.6342 53.3346 34.5936 53.3346 34.5665V34.282C53.4159 34.2684 53.4701 34.2549 53.5107 34.2549H53.5649C53.6056 34.2684 53.6598 34.2684 53.7275 34.2684L54.161 34.2549H54.2152C54.2559 34.2549 54.2965 34.2413 54.3372 34.2278C54.3507 34.16 54.3507 34.1194 54.3507 34.0923V33.9297L54.3643 33.8213C54.3643 33.7942 54.3372 33.7536 54.283 33.6994C54.2152 33.6858 54.161 33.6858 54.1204 33.6858L53.4294 33.6994H53.321V33.5368V32.9C53.321 32.3852 53.3346 32.0329 53.3752 31.8568C53.4159 31.6807 53.4701 31.5452 53.5649 31.4504C53.6598 31.3555 53.7546 31.3149 53.8765 31.3149C53.9714 31.3149 54.0527 31.342 54.1204 31.3826C54.1881 31.4368 54.2694 31.5452 54.3778 31.7349C54.4862 31.9246 54.581 32.0329 54.6623 32.1007C54.7707 32.182 54.8927 32.2226 55.001 32.2226C55.1501 32.2226 55.2991 32.1549 55.421 32.0329C55.543 31.911 55.6107 31.762 55.6107 31.6129C55.6107 31.491 55.5701 31.3555 55.5023 31.2065C55.4346 31.0575 55.2991 30.9491 55.1094 30.8542C54.9198 30.7594 54.6894 30.7188 54.4049 30.7188C54.1069 30.7188 53.863 30.7594 53.6462 30.8542C53.4294 30.9355 53.1991 31.0981 52.9417 31.3149L52.7927 31.4775C52.5894 31.7213 52.4133 32.0465 52.2778 32.4529C52.1423 32.8594 52.061 33.2929 52.0475 33.7536C51.7088 33.7807 51.4785 33.7942 51.3701 33.7942C51.3159 33.862 51.2888 33.9433 51.2888 34.0517C51.2888 34.1194 51.2888 34.2007 51.2888 34.3091C51.3294 34.3226 51.3701 34.3226 51.3836 34.3226H51.7494C51.8849 34.3362 51.9933 34.3362 52.061 34.3362L52.0746 34.4446V35.5555L52.1152 36.5581V36.6123V36.6936V36.7613C52.1152 36.8291 52.1152 36.8697 52.1152 36.9104C52.1152 36.951 52.1017 37.1542 52.0881 37.5065V37.6284C52.0881 37.7097 52.061 37.7639 52.0204 37.8046C51.9933 37.8317 51.8714 37.8723 51.6681 37.94C51.4514 37.9942 51.3159 38.0484 51.2481 38.0755L51.2752 38.36ZM58.3475 38.36C58.4152 38.36 58.5372 38.3465 58.7133 38.3465C58.8894 38.3329 59.0791 38.3194 59.2688 38.3194C59.9327 38.3194 60.461 38.3329 60.8539 38.3465C60.9759 38.36 61.0572 38.36 61.1249 38.36C61.1791 38.36 61.2469 38.36 61.3552 38.36L61.3688 38.0349C61.301 38.0078 61.2198 37.9942 61.1249 37.9807C60.8539 37.94 60.6643 37.8994 60.5423 37.8587C60.5288 37.7233 60.5152 37.5742 60.5152 37.4117L60.5559 35.0407C60.5559 34.282 60.5423 33.6588 60.5288 33.171H60.1223C59.8785 33.4013 59.6617 33.5775 59.4585 33.6587C59.1604 33.8078 58.8081 33.8891 58.4152 33.9026V34.2278C58.6998 34.2413 58.8894 34.282 58.9978 34.3226C59.1062 34.3633 59.1875 34.4175 59.2281 34.4717C59.2552 34.5936 59.2688 34.7291 59.2688 34.8375L59.2552 35.7858L59.2688 36.0568L59.2552 36.3413C59.2688 36.5446 59.2688 36.6936 59.2688 36.7613C59.2688 36.8562 59.2688 36.9646 59.2552 37.0865C59.2552 37.2084 59.2417 37.2897 59.2417 37.3439V37.4117C59.2417 37.5878 59.2281 37.7097 59.1875 37.7639C59.1469 37.8181 59.0791 37.8588 58.9843 37.8858L58.3339 37.9671L58.3475 38.36ZM59.1604 31.4368C59.1604 31.6536 59.2417 31.8433 59.3907 32.0058C59.5533 32.1684 59.7159 32.2497 59.9056 32.2497C60.041 32.2497 60.1765 32.2091 60.2985 32.1278C60.4339 32.0465 60.5288 31.9381 60.583 31.8162C60.6372 31.6807 60.6778 31.5587 60.6778 31.4233C60.6778 31.2471 60.5965 31.0846 60.4475 30.9491C60.2985 30.8136 60.1088 30.7323 59.8785 30.7323C59.6617 30.7323 59.4991 30.8 59.3636 30.9355C59.2281 31.0575 59.1604 31.2336 59.1604 31.4368ZM66.2191 36.8426C66.1785 36.8833 66.0972 36.9781 65.9752 37.1136C65.8533 37.2491 65.772 37.3304 65.7314 37.3575C65.5688 37.4794 65.4333 37.5471 65.3385 37.5878C65.1894 37.642 64.9998 37.6691 64.783 37.6691C64.3359 37.6691 63.943 37.4794 63.5907 37.1C63.2385 36.7207 63.0623 36.2058 63.0623 35.5555C63.0623 35.0136 63.2114 34.5936 63.4959 34.282C63.7804 33.9704 64.1056 33.8213 64.4714 33.8213C64.6204 33.8213 64.7559 33.862 64.8643 33.9433C64.9727 34.0246 65.0675 34.16 65.1352 34.3362C65.2301 34.58 65.3385 34.7562 65.4739 34.8646C65.6094 34.9729 65.7585 35.0271 65.9075 35.0271C66.0972 35.0271 66.2327 34.9729 66.341 34.851C66.4494 34.7291 66.5036 34.5665 66.5036 34.3633C66.5036 34.16 66.3681 33.9433 66.1107 33.74C65.8533 33.5368 65.3791 33.4284 64.7152 33.4284C64.2275 33.4284 63.7939 33.5097 63.401 33.6723C63.0081 33.8349 62.6965 34.0652 62.4391 34.3497C62.1817 34.6342 62.0056 34.9323 61.8972 35.2439C61.7888 35.5691 61.7346 35.8536 61.7346 36.0975C61.7346 36.3007 61.7752 36.5581 61.8701 36.8562C61.9514 37.1542 62.0868 37.3981 62.263 37.6149C62.4933 37.8858 62.7914 38.1026 63.1707 38.2517C63.5501 38.4142 63.9294 38.4955 64.3223 38.4955C64.932 38.4955 65.4468 38.36 65.8533 38.0755C66.2598 37.791 66.5036 37.4523 66.612 37.0729C66.5578 37.0188 66.4901 36.9646 66.3952 36.9239C66.3275 36.8968 66.2868 36.8833 66.2191 36.8426ZM71.8552 37.3033L71.6791 37.5742C71.652 37.6013 71.6114 37.6149 71.5707 37.6149C71.503 37.6149 71.4488 37.5878 71.4081 37.52C71.3675 37.4658 71.3404 37.3439 71.3404 37.1813V37.0052L71.3269 36.3007L71.3404 35.3388C71.3404 34.7562 71.2998 34.3497 71.2049 34.1329C71.1236 33.9026 70.961 33.74 70.7443 33.6317C70.5275 33.5233 70.2565 33.4555 69.9449 33.4555C69.4707 33.4555 69.0643 33.5097 68.7256 33.6181C68.4817 33.6994 68.2243 33.8484 67.9398 34.0652C67.6552 34.282 67.452 34.4988 67.3165 34.7155C67.2217 34.8781 67.181 35.0678 67.181 35.2846C67.181 35.3658 67.2081 35.4336 67.2623 35.4878C67.3843 35.4878 67.5468 35.4336 67.7636 35.3388C67.8178 35.3117 67.9262 35.271 68.0752 35.2033C68.2243 35.1491 68.3327 35.0813 68.3869 35C68.4139 34.9729 68.441 34.8781 68.4681 34.702C68.5088 34.4717 68.5494 34.3091 68.6036 34.2142C68.6714 34.0923 68.7933 34.011 68.9559 33.9297C69.1185 33.862 69.2946 33.8213 69.4843 33.8213C69.6739 33.8213 69.8094 33.8755 69.8907 33.9975C70.0127 34.1871 70.0804 34.5394 70.0804 35.0678C70.0804 35.2168 70.0804 35.3658 70.0668 35.5149L68.6172 36.0975C68.3598 36.2058 68.2243 36.2736 68.1701 36.3007C67.8856 36.4497 67.6959 36.5987 67.5604 36.7207C67.4249 36.8426 67.3436 36.9781 67.2894 37.1136C67.2352 37.2491 67.2081 37.371 67.2081 37.5065C67.2081 37.7775 67.303 38.0078 67.4927 38.1704C67.6823 38.3329 67.9804 38.4278 68.3733 38.4278C68.8069 38.4278 69.1727 38.3465 69.4843 38.1975C69.7823 38.0484 70.0262 37.8317 70.1888 37.5336C70.3243 37.8452 70.4733 38.0755 70.6359 38.1975C70.7985 38.3194 71.0017 38.3871 71.2185 38.3871C71.4488 38.3871 71.6249 38.3194 71.7739 38.1975C71.923 38.0755 72.0449 37.8317 72.1398 37.4929V37.4658C72.1262 37.4252 72.1127 37.3981 72.072 37.371L71.9365 37.2897L71.8552 37.3033ZM70.0668 35.9213C70.0804 36.0975 70.0939 36.26 70.0939 36.4362C70.0939 36.8968 70.0804 37.1813 70.0398 37.2762C69.9991 37.371 69.8907 37.5065 69.6739 37.6691C69.5249 37.791 69.3352 37.8587 69.1185 37.8587C68.983 37.8587 68.8746 37.8046 68.7662 37.6962C68.6714 37.5878 68.6172 37.4523 68.6172 37.2897C68.6172 37.1 68.6578 36.951 68.7391 36.8155C68.8475 36.6394 69.0372 36.4633 69.3217 36.3007C69.5927 36.111 69.8365 35.9891 70.0668 35.9213ZM72.3023 38.062C72.3023 38.1568 72.3023 38.211 72.3023 38.2517C72.3023 38.2923 72.3159 38.3329 72.3294 38.3736C72.912 38.3465 73.3591 38.3329 73.6707 38.3329L74.2939 38.3465C74.4701 38.3736 74.592 38.3871 74.6733 38.3871C74.7546 38.3871 74.8494 38.3871 74.9714 38.3871C74.9985 38.2923 75.012 38.2246 75.012 38.1704C75.012 38.1433 75.012 38.0891 74.9985 38.0213C74.6598 37.9265 74.4701 37.8317 74.4159 37.7504C74.3617 37.6691 74.3346 37.3168 74.3346 36.68L74.3481 36.531L74.321 35.6097L74.3346 35.2168L74.321 34.851L74.3346 34.7562C74.5785 34.5258 74.8223 34.3633 75.0527 34.2549C75.283 34.1465 75.5133 34.0923 75.7301 34.0923C76.0281 34.0923 76.2449 34.2413 76.3939 34.5258C76.5023 34.7291 76.543 35.2304 76.543 36.0568V36.7342C76.543 36.9104 76.543 37.1542 76.543 37.4794C76.543 37.6691 76.5294 37.791 76.5023 37.8587C76.4888 37.8858 76.4481 37.9265 76.3668 37.9536C76.2991 37.9671 76.2314 37.9807 76.1772 37.9942C75.9604 38.0213 75.8249 38.0349 75.7707 38.0484C75.7572 38.1297 75.7572 38.1975 75.7572 38.2652C75.7572 38.2923 75.7572 38.3329 75.7572 38.3736H75.9604L76.7191 38.3194H76.9901L77.3288 38.3058L78.4669 38.3871C78.4669 38.3058 78.4669 38.2381 78.4669 38.1975C78.4669 38.1297 78.4533 38.062 78.4127 38.0078L78.1281 37.9536C77.952 37.9265 77.8436 37.8994 77.803 37.8723C77.7759 37.8181 77.7623 37.7368 77.7623 37.6555L77.7894 35.7587C77.7894 35.0407 77.7488 34.5665 77.6675 34.3362C77.5862 34.1058 77.3965 33.8891 77.1256 33.7129C76.8546 33.5368 76.5294 33.442 76.1772 33.442C75.8656 33.442 75.5404 33.5097 75.2017 33.6587C74.9443 33.7671 74.6462 33.9568 74.3346 34.2413C74.321 34.0923 74.321 34.011 74.321 33.9704C74.321 33.9297 74.321 33.8755 74.3346 33.8078L74.3481 33.1575L74.0365 33.1846C73.8739 33.3878 73.7385 33.5233 73.6165 33.6046C73.5623 33.6452 73.5081 33.6858 73.4539 33.7265C73.4133 33.7536 73.3862 33.7671 73.3591 33.7807C73.2914 33.8078 73.1559 33.862 72.9527 33.9433C72.6817 34.011 72.5327 34.0517 72.492 34.0517C72.4514 34.0517 72.4107 34.0652 72.3565 34.0787V34.3633C72.6139 34.431 72.8036 34.5123 72.912 34.5936C72.9933 34.6478 73.0475 34.7155 73.061 34.7697C73.1017 34.9187 73.1152 35.122 73.1152 35.3658V35.7317L73.1288 36.3413V36.7478V37.2491C73.1288 37.5065 73.1152 37.6826 73.0881 37.7639C73.0746 37.8181 73.0339 37.8588 72.9662 37.8858C72.9256 37.9129 72.8036 37.94 72.6004 37.9671C72.492 37.9807 72.3972 38.0213 72.3023 38.062Z" fill="#002A52"/>
<path d="M78.7383 38.4007L78.7518 37.94C78.8467 37.9129 78.9551 37.8994 79.0905 37.8723C79.3344 37.8317 79.5512 37.791 79.7002 37.7233C79.7544 37.6284 79.7951 37.5471 79.8086 37.4658C79.8357 37.2491 79.8493 36.9239 79.8493 36.5039L79.8357 34.0381C79.8357 33.7807 79.8222 33.1168 79.7951 32.0329C79.7815 31.7484 79.768 31.5587 79.7409 31.491C79.7273 31.4639 79.7138 31.4504 79.6867 31.4368C79.6189 31.3962 79.5105 31.3691 79.3344 31.3555C79.2667 31.3555 79.077 31.3284 78.7654 31.2878L78.7518 30.8813L80.0525 30.8542L81.9493 30.7865H82.1796C82.2202 30.7865 82.2744 30.7865 82.3151 30.7865C82.3557 30.7865 82.4505 30.7865 82.6267 30.7865H82.9925C83.2905 30.7865 83.6022 30.8271 83.9544 30.922C84.0763 30.9491 84.2389 31.0168 84.4286 31.1117C84.6318 31.2065 84.7944 31.342 84.9434 31.491C85.0925 31.64 85.2009 31.8162 85.2686 32.0058C85.3363 32.1955 85.377 32.3987 85.377 32.602C85.377 32.8323 85.3228 33.0491 85.2144 33.2388C85.106 33.4284 84.957 33.6046 84.7402 33.7536C84.6318 33.8349 84.388 33.9568 83.9951 34.1329C84.5776 34.2684 85.0247 34.4988 85.3228 34.851C85.6344 35.2033 85.7834 35.5962 85.7834 36.0162C85.7834 36.2736 85.7292 36.531 85.6344 36.8155C85.5667 37.0188 85.4447 37.222 85.2822 37.3981C85.0654 37.6284 84.8351 37.8046 84.5776 37.9265C84.3338 38.0484 83.9951 38.1433 83.5615 38.2246C83.3447 38.2652 83.0196 38.2787 82.5725 38.2787L81.5834 38.2517C81.1634 38.2517 80.6757 38.2652 80.0931 38.3058C79.9305 38.36 79.4834 38.3736 78.7383 38.4007ZM81.4344 33.9975C81.5834 34.0246 81.7731 34.0381 81.9763 34.0381C82.5589 34.0381 82.9925 33.9297 83.2905 33.7129C83.5886 33.4962 83.7376 33.1304 83.7376 32.602C83.7376 32.2362 83.6022 31.9246 83.3176 31.6807C83.0331 31.4368 82.6131 31.3149 82.0441 31.3149C81.8815 31.3149 81.6647 31.342 81.3938 31.3826C81.3938 31.4775 81.3938 31.5994 81.4073 31.762C81.4209 32.0871 81.4344 32.5478 81.4344 33.1439V33.6317C81.4344 33.6994 81.4344 33.8349 81.4344 33.9975ZM81.5022 37.6962C81.7596 37.8046 81.9899 37.8587 82.2067 37.8587C82.6402 37.8587 83.006 37.791 83.277 37.6555C83.5615 37.52 83.7647 37.3304 83.8867 37.1C84.0086 36.8562 84.0763 36.5581 84.0763 36.2058C84.0763 35.84 84.0086 35.542 83.8731 35.3117C83.6834 35 83.4396 34.7968 83.1686 34.6884C82.8976 34.58 82.4776 34.5258 81.9357 34.5258C81.6918 34.5258 81.5292 34.5394 81.4344 34.58V35.2981V36.1517L81.448 37.4794C81.448 37.5336 81.4751 37.6149 81.5022 37.6962ZM91.4738 37.2626L91.6093 37.3439C91.6499 37.371 91.6634 37.3981 91.677 37.4388V37.4658C91.5822 37.8046 91.4602 38.0484 91.3112 38.1704C91.1622 38.3058 90.9725 38.36 90.7557 38.36C90.5254 38.36 90.3357 38.2923 90.1731 38.1704C90.0105 38.0484 89.8615 37.8181 89.726 37.5065C89.5634 37.8046 89.3196 38.0213 89.0215 38.1704C88.7234 38.3194 88.3576 38.4007 87.9105 38.4007C87.5041 38.4007 87.206 38.3194 87.0299 38.1433C86.8402 37.9807 86.7454 37.7504 86.7454 37.4794C86.7454 37.3575 86.7725 37.222 86.8267 37.0865C86.8809 36.951 86.9757 36.8291 87.0976 36.6936C87.2196 36.5581 87.4228 36.4226 87.7073 36.2736C87.748 36.2465 87.897 36.1788 88.1544 36.0704L89.6041 35.4878C89.6176 35.3387 89.6176 35.1897 89.6176 35.0407C89.6176 34.5258 89.5499 34.16 89.428 33.9704C89.3467 33.8484 89.2112 33.7942 89.0215 33.7942C88.8318 33.7942 88.6557 33.8349 88.4931 33.9026C88.3305 33.9704 88.2086 34.0652 88.1409 34.1871C88.0867 34.2684 88.046 34.431 88.0054 34.6749C87.9783 34.851 87.9512 34.9458 87.9241 34.9729C87.8699 35.0407 87.7615 35.1084 87.6125 35.1762C87.4634 35.2304 87.3551 35.2846 87.3009 35.3117C87.0976 35.4065 86.9215 35.4607 86.7996 35.4607C86.7454 35.42 86.7183 35.3523 86.7183 35.2575C86.7183 35.0407 86.7589 34.851 86.8538 34.6884C86.9892 34.4581 87.206 34.2413 87.477 34.0381C87.7615 33.8349 88.0189 33.6858 88.2628 33.591C88.6015 33.4826 88.9944 33.4284 89.4822 33.4284C89.7938 33.4284 90.0512 33.4826 90.2815 33.6046C90.4983 33.7129 90.6609 33.8891 90.7422 34.1058C90.8234 34.3362 90.8776 34.7291 90.8776 35.3117L90.8641 36.2736L90.8776 36.9781V37.1542C90.8776 37.3168 90.9047 37.4252 90.9454 37.4929C90.986 37.5471 91.0402 37.5878 91.108 37.5878C91.1486 37.5878 91.1892 37.5742 91.2163 37.5471L91.3925 37.2762L91.4738 37.2626ZM89.577 35.9213C89.3602 35.9891 89.1028 36.111 88.8318 36.2871C88.5609 36.4633 88.3576 36.6258 88.2492 36.802C88.168 36.9239 88.1273 37.0865 88.1273 37.2762C88.1273 37.4388 88.1815 37.5742 88.2763 37.6826C88.3712 37.791 88.4931 37.8452 88.6286 37.8452C88.8454 37.8452 89.0351 37.7775 89.1841 37.6555C89.3873 37.4929 89.5093 37.3575 89.5499 37.2626C89.5905 37.1678 89.6041 36.8833 89.6041 36.4226C89.6041 36.26 89.5905 36.0975 89.577 35.9213ZM91.8125 38.062C91.8125 38.1568 91.8125 38.211 91.8125 38.2517C91.8125 38.2923 91.826 38.3329 91.8396 38.3736C92.4221 38.3465 92.8692 38.3329 93.1809 38.3329L93.8041 38.3465C93.9802 38.3736 94.1022 38.3871 94.1834 38.3871C94.2647 38.3871 94.3596 38.3871 94.4815 38.3871C94.5086 38.2923 94.5222 38.2246 94.5222 38.1704C94.5222 38.1433 94.5222 38.0891 94.5086 38.0213C94.1699 37.9265 93.9802 37.8317 93.926 37.7504C93.8718 37.6691 93.8447 37.3168 93.8447 36.68L93.8583 36.531L93.8312 35.6097L93.8447 35.2168L93.8312 34.851L93.8447 34.7562C94.0886 34.5258 94.3325 34.3633 94.5628 34.2549C94.7931 34.1465 95.0234 34.0923 95.2402 34.0923C95.5383 34.0923 95.7551 34.2413 95.9041 34.5258C96.0125 34.7291 96.0531 35.2304 96.0531 36.0568V36.7342C96.0531 36.9104 96.0531 37.1542 96.0531 37.4794C96.0531 37.6691 96.0396 37.791 96.0125 37.8587C95.9989 37.8858 95.9583 37.9265 95.877 37.9536C95.8093 37.9671 95.7415 37.9807 95.6873 37.9942C95.4705 38.0213 95.3351 38.0349 95.2809 38.0484C95.2673 38.1297 95.2673 38.1975 95.2673 38.2652C95.2673 38.2923 95.2673 38.3329 95.2673 38.3736H95.4705L96.2292 38.3194H96.5002L96.8389 38.3058L97.977 38.3871C97.977 38.3058 97.977 38.2381 97.977 38.1975C97.977 38.1297 97.9634 38.062 97.9228 38.0078L97.6383 37.9536C97.4622 37.9265 97.3538 37.8994 97.3131 37.8723C97.286 37.8181 97.2725 37.7368 97.2725 37.6555L97.2996 35.7587C97.2996 35.0407 97.2589 34.5665 97.1776 34.3362C97.0963 34.1058 96.9067 33.8891 96.6357 33.7129C96.3647 33.5368 96.0396 33.442 95.6873 33.442C95.3757 33.442 95.0505 33.5097 94.7118 33.6587C94.4544 33.7671 94.1563 33.9568 93.8447 34.2413C93.8312 34.0923 93.8312 34.011 93.8312 33.9704C93.8312 33.9297 93.8312 33.8755 93.8447 33.8078L93.8583 33.1575L93.5467 33.1846C93.3841 33.3878 93.2486 33.5233 93.1267 33.6046C93.0725 33.6452 93.0183 33.6858 92.9641 33.7265C92.9234 33.7536 92.8963 33.7671 92.8693 33.7807C92.8015 33.8078 92.666 33.862 92.4628 33.9433C92.1918 34.011 92.0428 34.0517 92.0022 34.0517C91.9615 34.0517 91.9209 34.0652 91.8667 34.0787V34.3633C92.1241 34.431 92.3138 34.5123 92.4222 34.5936C92.5034 34.6478 92.5576 34.7155 92.5712 34.7697C92.6118 34.9187 92.6254 35.122 92.6254 35.3658V35.7317L92.6389 36.3413V36.7478V37.2491C92.6389 37.5065 92.6254 37.6826 92.5983 37.7639C92.5847 37.8181 92.5441 37.8588 92.4763 37.8858C92.4357 37.9129 92.3138 37.94 92.1105 37.9671C92.0021 37.9807 91.9073 38.0213 91.8125 38.062ZM98.0718 38.0213C98.0718 38.0891 98.0718 38.1433 98.0718 38.1839C98.0718 38.2381 98.0854 38.2923 98.0989 38.36L98.4376 38.3465H98.5867L99.088 38.3058H99.4131C99.5486 38.3058 99.6299 38.3058 99.6705 38.3058C99.7383 38.3058 99.8196 38.3058 99.9415 38.3194C100.145 38.3329 100.429 38.3465 100.782 38.36L100.822 38.3465C100.836 38.3058 100.836 38.2652 100.836 38.2517L100.822 38.1433V37.9942C100.782 37.9807 100.727 37.9807 100.687 37.9671C100.511 37.9536 100.375 37.9265 100.321 37.8994C100.28 37.8858 100.212 37.8452 100.145 37.8046V37.5878C100.131 37.4929 100.131 37.4252 100.131 37.3981V36.1923L100.443 36.0162L101.947 37.6149C102.028 37.7097 102.109 37.8046 102.163 37.8994C102.082 37.9129 102.014 37.9129 101.947 37.9265C101.784 37.94 101.662 37.9671 101.554 37.9942C101.54 38.0484 101.527 38.1026 101.527 38.1297V38.2246C101.54 38.2517 101.54 38.3058 101.54 38.36C102.109 38.3465 102.787 38.3329 103.6 38.3329C103.694 38.3329 103.789 38.3465 103.911 38.36C104.114 38.3736 104.25 38.3871 104.291 38.3871C104.291 38.3194 104.291 38.2788 104.291 38.2517C104.291 38.2381 104.291 38.1704 104.291 38.062C104.047 37.9536 103.898 37.8723 103.816 37.8181L103.274 37.2762L102.326 36.3278L101.892 35.8942L101.743 35.7587C101.649 35.6639 101.54 35.5691 101.459 35.4742C102.218 34.9594 102.76 34.6071 103.085 34.431C103.22 34.3633 103.41 34.282 103.654 34.2007L104.114 34.0517C104.128 33.9839 104.142 33.9297 104.142 33.8891C104.142 33.8755 104.142 33.8349 104.142 33.7942C104.02 33.7807 103.925 33.7807 103.871 33.7807C103.816 33.7807 103.667 33.7942 103.41 33.8078C103.166 33.8213 102.976 33.8349 102.841 33.8349C102.678 33.8349 102.516 33.8349 102.34 33.8213C102.177 33.8078 102.082 33.8078 102.042 33.8078H101.608C101.594 33.8891 101.594 33.9433 101.594 33.9839C101.594 34.011 101.594 34.0517 101.594 34.1058C101.798 34.1871 101.974 34.2549 102.123 34.282C102.177 34.2955 102.245 34.3226 102.299 34.3497C102.245 34.4039 102.177 34.4717 102.055 34.5529C101.798 34.7562 101.567 34.9323 101.351 35.0678C100.741 35.4742 100.348 35.7317 100.145 35.84V35.0136L100.158 34.1465C100.158 33.9026 100.158 33.7536 100.158 33.6723C100.172 33.442 100.172 33.32 100.172 33.3065L100.158 30.7323L99.9144 30.7188C99.7654 30.7865 99.5893 30.8407 99.3996 30.8949C98.6951 31.0846 98.2751 31.1929 98.126 31.2471C98.1125 31.3284 98.1125 31.3962 98.1125 31.4368C98.1125 31.4639 98.1125 31.5046 98.1125 31.5587C98.3428 31.5858 98.5054 31.6129 98.5731 31.64C98.6409 31.6671 98.7222 31.7078 98.8034 31.7755C98.8305 31.8568 98.8441 31.9246 98.8441 31.9652C98.8712 32.1413 98.8847 32.4258 98.8847 32.8188V34.4852V34.7291V35.0542L98.8441 37.5065C98.8305 37.6826 98.817 37.8046 98.7899 37.8858C98.7493 37.8994 98.6273 37.9265 98.397 37.94C98.3699 37.9536 98.3157 37.9536 98.248 37.9671C98.2209 37.9671 98.1531 37.9807 98.0718 38.0213Z" fill="#002A52"/>
</g>
<defs>
<clipPath id="clip0_4361_26297">
<rect width="81.2903" height="42" fill="white" transform="translate(23 3)"/>
</clipPath>
</defs>
</svg>
