<?xml version="1.0" encoding="utf-8"?>
<!-- Generator: Adobe Illustrator 25.4.1, SVG Export Plug-In . SVG Version: 6.00 Build 0)  -->
<svg version="1.1" id="Layer_1" xmlns="http://www.w3.org/2000/svg" xmlns:xlink="http://www.w3.org/1999/xlink" x="0px" y="0px"
	 width="128px" height="48px" viewBox="0 0 128 48" style="enable-background:new 0 0 128 48;" xml:space="preserve">
<style type="text/css">
	.st0{fill:#CEB872;}
	.st1{fill:#BFA943;}
	.st2{fill:#DCCD98;}
	.st3{fill:#809FC0;}
	.st4{fill:#12759B;}
	.st5{fill:#A5BBCD;}
	.st6{fill:#FFFFFF;filter:url(#Adobe_OpacityMaskFilter);}
	.st7{mask:url(#mask0_4361_26290_00000016042621811872730220000005519105835805152698_);}
	.st8{fill:#CFBB72;}
	.st9{fill:#DFD09B;}
	.st10{fill:#B49D31;}
	.st11{fill:none;stroke:#B09C34;stroke-width:0.29;stroke-miterlimit:3.86;}
	.st12{fill:none;stroke:#C5A901;stroke-width:0.29;stroke-miterlimit:3.86;}
	.st13{fill:#00578B;}
</style>
<g>
	<path class="st0" d="M90.1,12.3c-2.5,2.5-2.5,6.6,0,9.2c2.5,2.5,6.6,2.5,9.2,0c2.5-2.5,2.5-6.6,0-9.2C96.7,9.8,92.6,9.8,90.1,12.3z
		 M89.5,11.8c2.8-2.8,7.4-2.8,10.2,0c2.8,2.8,2.8,7.4,0,10.2c-2.8,2.8-7.4,2.8-10.2,0C86.7,19.2,86.7,14.6,89.5,11.8"/>
	<path class="st1" d="M91.1,13.4c-1.9,1.9-1.9,5.1,0,7.1c1.9,2,5.1,2,7.1,0c2-2,2-5.1,0-7.1C96.2,11.4,93.1,11.4,91.1,13.4z
		 M90.1,12.3c2.5-2.5,6.6-2.5,9.2,0c2.5,2.5,2.5,6.6,0,9.2c-2.5,2.5-6.6,2.5-9.2,0C87.5,19,87.5,14.8,90.1,12.3z"/>
	<path class="st2" d="M91.5,13.8c-1.7,1.7-1.7,4.5,0,6.2c1.7,1.7,4.5,1.7,6.2,0c1.7-1.7,1.7-4.5,0-6.2C96,12.1,93.2,12.1,91.5,13.8z
		 M91.1,13.4c1.9-2,5.1-2,7.1,0c2,1.9,2,5.1,0,7.1c-1.9,1.9-5.1,1.9-7.1,0C89.2,18.5,89.2,15.3,91.1,13.4z"/>
	<path class="st3" d="M95.7,18c-2.5,2.5-6.6,2.5-9.2,0c-2.5-2.5-2.5-6.6,0-9.2c2.5-2.5,6.6-2.5,9.2,0C98.3,11.3,98.3,15.4,95.7,18z
		 M96.2,18.5c2.8-2.8,2.8-7.4,0-10.2c-2.8-2.8-7.4-2.8-10.2,0c-2.8,2.8-2.8,7.4,0,10.2C88.8,21.3,93.4,21.3,96.2,18.5z"/>
	<path class="st4" d="M94.7,16.9c-1.9,1.9-5.1,1.9-7.1,0c-1.9-1.9-1.9-5.1,0-7.1c1.9-2,5.1-2,7.1,0C96.6,11.8,96.6,15,94.7,16.9z
		 M95.7,18c2.5-2.5,2.5-6.6,0-9.2c-2.5-2.5-6.6-2.5-9.2,0c-2.5,2.5-2.5,6.6,0,9.2C89.1,20.5,93.2,20.5,95.7,18z"/>
	<path class="st5" d="M94.2,16.5c-1.7,1.7-4.5,1.7-6.2,0c-1.7-1.7-1.7-4.5,0-6.2c1.7-1.7,4.5-1.7,6.2,0C96,12,96,14.8,94.2,16.5z
		 M94.7,16.9c2-1.9,2-5.1,0-7.1c-1.9-2-5.1-2-7.1,0c-1.9,1.9-1.9,5.1,0,7.1C89.6,18.9,92.7,18.9,94.7,16.9z"/>
	<defs>
		<filter id="Adobe_OpacityMaskFilter" filterUnits="userSpaceOnUse" x="87.4" y="9.7" width="14.5" height="14.5">
			<feColorMatrix  type="matrix" values="1 0 0 0 0  0 1 0 0 0  0 0 1 0 0  0 0 0 1 0"/>
		</filter>
	</defs>
	
		<mask maskUnits="userSpaceOnUse" x="87.4" y="9.7" width="14.5" height="14.5" id="mask0_4361_26290_00000016042621811872730220000005519105835805152698_">
		<path class="st6" d="M95.2,5.8l-4.9,4.9l6.4,6.4l4.9-4.9L95.2,5.8z"/>
	</mask>
	<g class="st7">
		<path class="st8" d="M90.1,12.3c-2.5,2.5-2.5,6.6,0,9.2c2.5,2.5,6.6,2.5,9.2,0c2.5-2.5,2.5-6.6,0-9.2C96.7,9.8,92.6,9.8,90.1,12.3
			z M89.5,11.8c2.8-2.8,7.4-2.8,10.2,0c2.8,2.8,2.8,7.4,0,10.2c-2.8,2.8-7.4,2.8-10.2,0C86.7,19.2,86.7,14.6,89.5,11.8"/>
		<path class="st1" d="M91.1,13.4c-1.9,1.9-1.9,5.1,0,7.1c1.9,2,5.1,2,7.1,0c2-2,2-5.1,0-7.1C96.2,11.4,93.1,11.4,91.1,13.4z
			 M90.1,12.3c2.5-2.5,6.6-2.5,9.2,0c2.5,2.5,2.5,6.6,0,9.2c-2.5,2.5-6.6,2.5-9.2,0C87.5,18.9,87.5,14.8,90.1,12.3z"/>
		<path class="st9" d="M91.5,13.8c-1.7,1.7-1.7,4.5,0,6.2c1.7,1.7,4.5,1.7,6.2,0c1.7-1.7,1.7-4.5,0-6.2C96,12.1,93.2,12.1,91.5,13.8
			z M91.1,13.4c1.9-2,5.1-2,7.1,0c2,1.9,2,5.1,0,7.1c-1.9,1.9-5.1,1.9-7.1,0C89.2,18.5,89.2,15.3,91.1,13.4z"/>
	</g>
	<path class="st10" d="M53.4,18.4h0.8l0.1,0.3c0,0,0.1,0,0.1,3.5c0,0.6-0.2,1.1-0.5,1.5c-0.4,0.4-0.9,0.6-1.5,0.6h-1.6v-1h1.7
		c0.3,0,0.5-0.1,0.7-0.3c0.2-0.2,0.3-0.5,0.3-0.8L53.4,18.4L53.4,18.4z"/>
	<path class="st11" d="M53.4,18.4h0.8l0.1,0.3c0,0,0.1,0,0.1,3.5c0,0.6-0.2,1.1-0.5,1.5c-0.4,0.4-0.9,0.6-1.5,0.6h-1.6v-1h1.7
		c0.3,0,0.5-0.1,0.7-0.3c0.2-0.2,0.3-0.5,0.3-0.8L53.4,18.4L53.4,18.4z"/>
	<path class="st10" d="M51.7,20.1h1v2.4c0,0.4-0.2,0.7-0.4,0.9c-0.1,0.1-0.2,0.1-0.2,0.2c-0.1,0-0.4,0.1-0.4,0.1L51.7,20.1
		L51.7,20.1z"/>
	<path class="st11" d="M51.7,20.1h1v2.4c0,0.4-0.2,0.7-0.4,0.9c-0.1,0.1-0.2,0.1-0.2,0.2c-0.1,0-0.4,0.1-0.4,0.1L51.7,20.1
		L51.7,20.1z"/>
	<path class="st10" d="M56.3,18.4h-1v5.9h1V18.4z"/>
	<path class="st11" d="M56.3,18.4h-1v5.9h1V18.4z"/>
	<path class="st10" d="M51.8,18.6c0.1-0.1,0.3-0.2,0.5-0.2h0.7v0.4h-0.7c-0.1,0-0.1,0-0.2,0.1C52,19,52,19,52,19.1
		c0,0.1,0,0.2,0.1,0.2c0,0.1,0.1,0.1,0.2,0.1l0.8,0v0.4h-1.3l-0.1,0c-0.1,0-0.2-0.1-0.2-0.1c0,0,0-0.1-0.1-0.1l-0.1-0.2h0.4l0-0.1
		c0-0.1,0-0.1,0-0.2C51.6,18.9,51.7,18.8,51.8,18.6"/>
	<path class="st11" d="M51.8,18.6c0.1-0.1,0.3-0.2,0.5-0.2h0.7v0.4h-0.7c-0.1,0-0.1,0-0.2,0.1C52,19,52,19,52,19.1
		c0,0.1,0,0.2,0.1,0.2c0,0.1,0.1,0.1,0.2,0.1l0.8,0v0.4h-1.3l-0.1,0c-0.1,0-0.2-0.1-0.2-0.1c0,0,0-0.1-0.1-0.1l-0.1-0.2h0.4l0-0.1
		c0-0.1,0-0.1,0-0.2C51.6,18.9,51.7,18.8,51.8,18.6L51.8,18.6z"/>
	<path class="st10" d="M73.2,22.3c0,0.6-0.2,1.1-0.6,1.5c-0.4,0.4-0.9,0.5-1.4,0.5h-1.2c-0.4,0-0.7-0.2-0.9-0.4
		c-0.1-0.1-0.1-0.2-0.2-0.3c0-0.1-0.1-0.4-0.1-0.4h2.3c0.3,0,0.6-0.1,0.8-0.3c0.2-0.2,0.3-0.4,0.3-0.7v-1.4h1L73.2,22.3L73.2,22.3z"
		/>
	<path class="st11" d="M73.2,22.3c0,0.6-0.2,1.1-0.6,1.5c-0.4,0.4-0.9,0.5-1.4,0.5h-1.2c-0.4,0-0.7-0.2-0.9-0.4
		c-0.1-0.1-0.1-0.2-0.2-0.3c0-0.1-0.1-0.4-0.1-0.4h2.3c0.3,0,0.6-0.1,0.8-0.3c0.2-0.2,0.3-0.4,0.3-0.7v-1.4h1L73.2,22.3L73.2,22.3z"
		/>
	<path class="st10" d="M72.5,25.5c0,0.4-0.3,0.7-0.7,0.7c-0.4,0-0.7-0.3-0.7-0.7s0.3-0.7,0.7-0.7C72.2,24.8,72.5,25.1,72.5,25.5z"/>
	<path class="st11" d="M72.5,25.5c0,0.4-0.3,0.7-0.7,0.7c-0.4,0-0.7-0.3-0.7-0.7s0.3-0.7,0.7-0.7C72.2,24.8,72.5,25.1,72.5,25.5z"/>
	<path class="st10" d="M65.4,23.8c-0.4,0.3-0.8,0.5-1.4,0.5h-4.3c-0.6,0-1.1-0.2-1.5-0.7c-0.4-0.4-0.5-0.9-0.5-1.5
		c0-0.6,0.2-1.1,0.5-1.5c0.4-0.4,0.9-0.6,1.5-0.6h1.2v1h-1.2c-0.3,0-0.5,0.1-0.7,0.3c-0.2,0.2-0.3,0.5-0.3,0.8
		c0,0.3,0.1,0.6,0.3,0.8c0.2,0.2,0.4,0.4,0.7,0.4H64c0.3,0,0.5-0.1,0.7-0.3c0.2-0.2,0.3-0.5,0.3-0.8v-3.8h0.8l0.1,0.3
		c0,0,0.1,0,0.1,3.5c0,0.4-0.1,0.8-0.3,1.2h1.7c0.3,0,0.6-0.1,0.8-0.3c0.2-0.2,0.3-0.4,0.3-0.7v-1.4h1v1.4c0,0.6-0.2,1.1-0.6,1.5
		c-0.4,0.4-0.9,0.5-1.5,0.5h-1.2C65.8,24.4,65.5,24.1,65.4,23.8"/>
	<path class="st11" d="M65.4,23.8c-0.4,0.3-0.8,0.5-1.4,0.5h-4.3c-0.6,0-1.1-0.2-1.5-0.7c-0.4-0.4-0.5-0.9-0.5-1.5
		c0-0.6,0.2-1.1,0.5-1.5c0.4-0.4,0.9-0.6,1.5-0.6h1.2v1h-1.2c-0.3,0-0.5,0.1-0.7,0.3c-0.2,0.2-0.3,0.5-0.3,0.8
		c0,0.3,0.1,0.6,0.3,0.8c0.2,0.2,0.4,0.4,0.7,0.4H64c0.3,0,0.5-0.1,0.7-0.3c0.2-0.2,0.3-0.5,0.3-0.8v-3.8h0.8l0.1,0.3
		c0,0,0.1,0,0.1,3.5c0,0.4-0.1,0.8-0.3,1.2h1.7c0.3,0,0.6-0.1,0.8-0.3c0.2-0.2,0.3-0.4,0.3-0.7v-1.4h1v1.4c0,0.6-0.2,1.1-0.6,1.5
		c-0.4,0.4-0.9,0.5-1.5,0.5h-1.2C65.8,24.4,65.5,24.1,65.4,23.8L65.4,23.8z"/>
	<path class="st10" d="M44.2,20.5V20H48c0.6,0,1.1,0.2,1.5,0.7c0.4,0.4,0.5,0.9,0.5,1.5c0,0.6-0.2,1.1-0.5,1.5
		c-0.4,0.4-0.9,0.6-1.5,0.6h-6.3c-0.5,0-0.8-0.3-1-0.5c-0.4,0.3-0.8,0.5-1.4,0.5h-1.7v-2.7c0-0.3-0.1-0.5-0.4-0.7
		c-0.3-0.2-0.5-0.3-0.8-0.3c-0.3,0-0.6,0.1-0.8,0.3c-0.2,0.2-0.3,0.4-0.3,0.7v2.7h-7.2c-0.6,0-1.1-0.2-1.5-0.6
		c-0.4-0.4-0.5-0.9-0.5-1.5s0.2-1.1,0.5-1.5c0.4-0.4,0.9-0.7,1.5-0.7h2.6v1h-2.6c-0.3,0-0.5,0.1-0.7,0.4c-0.2,0.3-0.3,0.5-0.3,0.8
		c0,0.3,0.1,0.6,0.3,0.8c0.2,0.2,0.4,0.3,0.7,0.3h6.2v-1.7c0-0.6,0.2-1.1,0.6-1.5c0.4-0.4,0.9-0.5,1.5-0.5c0.6,0,1.1,0.2,1.5,0.5
		c0.4,0.4,0.7,0.9,0.7,1.5v1.7h0.7c0.3,0,0.5-0.1,0.7-0.3c0.2-0.2,0.3-0.5,0.3-0.8l0-3.8h0.8l0.1,0.3c0,0,0.1,0,0.1,3.5
		c0,0.4-0.1,0.8-0.3,1.2h1.8c-0.2-0.3-0.3-0.6-0.3-1c0-0.5,0.1-0.9,0.4-1.2C43.4,20.7,43.8,20.5,44.2,20.5 M45.9,22
		c0-0.2-0.1-0.4-0.2-0.5c-0.2-0.1-0.4-0.2-0.6-0.2h-0.4c-0.3,0-0.6,0.1-0.8,0.3c-0.2,0.2-0.3,0.4-0.3,0.7c0,0.3,0.1,0.6,0.3,0.7
		c0.2,0.2,0.5,0.3,0.8,0.3h1.2L45.9,22L45.9,22z M46.3,21c0.2,0.2,0.3,0.4,0.4,0.7c0,0.1,0,0.2,0,0.3c0,0,0,0.1,0,0.1v1.3H48
		c0.3,0,0.5-0.1,0.7-0.3c0.2-0.2,0.3-0.5,0.3-0.8c0-0.3-0.1-0.6-0.3-0.8C48.5,21.1,48.3,21,48,21H46.3z"/>
	<path class="st12" d="M44.2,20.5V20H48c0.6,0,1.1,0.2,1.5,0.7c0.4,0.4,0.5,0.9,0.5,1.5c0,0.6-0.2,1.1-0.5,1.5
		c-0.4,0.4-0.9,0.6-1.5,0.6h-6.3c-0.5,0-0.8-0.3-1-0.5c-0.4,0.3-0.8,0.5-1.4,0.5h-1.7v-2.7c0-0.3-0.1-0.5-0.4-0.7
		c-0.3-0.2-0.5-0.3-0.8-0.3c-0.3,0-0.6,0.1-0.8,0.3c-0.2,0.2-0.3,0.4-0.3,0.7v2.7h-7.2c-0.6,0-1.1-0.2-1.5-0.6
		c-0.4-0.4-0.5-0.9-0.5-1.5s0.2-1.1,0.5-1.5c0.4-0.4,0.9-0.7,1.5-0.7h2.6v1h-2.6c-0.3,0-0.5,0.1-0.7,0.4c-0.2,0.3-0.3,0.5-0.3,0.8
		c0,0.3,0.1,0.6,0.3,0.8c0.2,0.2,0.4,0.3,0.7,0.3h6.2v-1.7c0-0.6,0.2-1.1,0.6-1.5c0.4-0.4,0.9-0.5,1.5-0.5c0.6,0,1.1,0.2,1.5,0.5
		c0.4,0.4,0.7,0.9,0.7,1.5v1.7h0.7c0.3,0,0.5-0.1,0.7-0.3c0.2-0.2,0.3-0.5,0.3-0.8l0-3.8h0.8l0.1,0.3c0,0,0.1,0,0.1,3.5
		c0,0.4-0.1,0.8-0.3,1.2h1.8c-0.2-0.3-0.3-0.6-0.3-1c0-0.5,0.1-0.9,0.4-1.2C43.4,20.7,43.8,20.5,44.2,20.5L44.2,20.5z M45.9,22
		c0-0.2-0.1-0.4-0.2-0.5c-0.2-0.1-0.4-0.2-0.6-0.2h-0.4c-0.3,0-0.6,0.1-0.8,0.3c-0.2,0.2-0.3,0.4-0.3,0.7c0,0.3,0.1,0.6,0.3,0.7
		c0.2,0.2,0.5,0.3,0.8,0.3h1.2L45.9,22L45.9,22z M46.3,21c0.2,0.2,0.3,0.4,0.4,0.7c0,0.1,0,0.2,0,0.3c0,0,0,0.1,0,0.1v1.3H48
		c0.3,0,0.5-0.1,0.7-0.3c0.2-0.2,0.3-0.5,0.3-0.8c0-0.3-0.1-0.6-0.3-0.8C48.5,21.1,48.3,21,48,21H46.3z"/>
	<path class="st10" d="M66.8,21c0-0.4,0.3-0.7,0.7-0.7s0.7,0.3,0.7,0.7c0,0.4-0.3,0.7-0.7,0.7C67.1,21.7,66.8,21.4,66.8,21z"/>
	<path class="st11" d="M66.8,21c0-0.4,0.3-0.7,0.7-0.7s0.7,0.3,0.7,0.7c0,0.4-0.3,0.7-0.7,0.7C67.1,21.7,66.8,21.4,66.8,21z"/>
	<path class="st10" d="M75.5,18.4h0.8l0.1,0.3c0,0,0.1,0,0.1,3.5c0,0.6-0.2,1.1-0.5,1.5c-0.4,0.4-0.9,0.6-1.5,0.6h-1.6v-1h1.7
		c0.3,0,0.5-0.1,0.7-0.3c0.2-0.2,0.3-0.5,0.3-0.8L75.5,18.4L75.5,18.4z"/>
	<path class="st11" d="M75.5,18.4h0.8l0.1,0.3c0,0,0.1,0,0.1,3.5c0,0.6-0.2,1.1-0.5,1.5c-0.4,0.4-0.9,0.6-1.5,0.6h-1.6v-1h1.7
		c0.3,0,0.5-0.1,0.7-0.3c0.2-0.2,0.3-0.5,0.3-0.8L75.5,18.4L75.5,18.4z"/>
	<path class="st10" d="M78.5,18.4h-1v5.9h1V18.4z"/>
	<path class="st11" d="M78.5,18.4h-1v5.9h1V18.4z"/>
	<path class="st10" d="M62,20.2c0.1-0.1,0.3-0.2,0.5-0.2h0.7v0.4h-0.7c-0.1,0-0.1,0-0.2,0.1c-0.1,0.1-0.1,0.1-0.1,0.2
		c0,0.1,0,0.2,0.1,0.2c0,0.1,0.1,0.1,0.2,0.1h0.8v0.4h-1.4c-0.1,0-0.2-0.1-0.2-0.1c0,0,0,0-0.1-0.1L61.5,21h0.4l0-0.1
		c0-0.1,0-0.1,0-0.2C61.8,20.5,61.9,20.3,62,20.2"/>
	<path class="st11" d="M62,20.2c0.1-0.1,0.3-0.2,0.5-0.2h0.7v0.4h-0.7c-0.1,0-0.1,0-0.2,0.1c-0.1,0.1-0.1,0.1-0.1,0.2
		c0,0.1,0,0.2,0.1,0.2c0,0.1,0.1,0.1,0.2,0.1h0.8v0.4h-1.4c-0.1,0-0.2-0.1-0.2-0.1c0,0,0,0-0.1-0.1L61.5,21h0.4l0-0.1
		c0-0.1,0-0.1,0-0.2C61.8,20.5,61.9,20.3,62,20.2L62,20.2z"/>
	<path class="st10" d="M33.7,25.5c0,0.4-0.3,0.7-0.7,0.7c-0.4,0-0.7-0.3-0.7-0.7s0.3-0.7,0.7-0.7C33.5,24.8,33.7,25.1,33.7,25.5z"/>
	<path class="st11" d="M33.7,25.5c0,0.4-0.3,0.7-0.7,0.7c-0.4,0-0.7-0.3-0.7-0.7s0.3-0.7,0.7-0.7C33.5,24.8,33.7,25.1,33.7,25.5z"/>
	<path class="st10" d="M32.1,25.5c0,0.4-0.3,0.7-0.7,0.7s-0.7-0.3-0.7-0.7s0.3-0.7,0.7-0.7S32.1,25.1,32.1,25.5z"/>
	<path class="st11" d="M32.1,25.5c0,0.4-0.3,0.7-0.7,0.7s-0.7-0.3-0.7-0.7s0.3-0.7,0.7-0.7S32.1,25.1,32.1,25.5z"/>
	<path class="st13" d="M35.2,39.6c-0.6,0.4-0.8,0.5-1,0.5c-0.3,0-0.4-0.2-0.4-0.6v-3.8c0-1.8-1.4-2.6-3.6-2.6c-1.3,0-2.6,0.4-3.6,1
		v2.2c0.8-0.9,2-1.4,3.1-1.4c1.2,0,1.5,0.6,1.5,1.4c-3.5,1.1-5,1.5-5,3.5c0,1.1,1,2.1,2.4,2.1c0.9,0,1.7-0.3,2.8-1
		c0.2,0.7,0.6,1,1.5,1c0.7,0,1.8-0.3,2.5-0.8L35.2,39.6L35.2,39.6z M31.1,39.6c-0.4,0.4-1,0.6-1.5,0.6c-0.5,0-0.9-0.4-0.9-0.9
		c0-0.8,0.7-1.2,2.3-1.8L31.1,39.6L31.1,39.6z"/>
	<path class="st13" d="M38.7,29.2H36v12.4h2.6v-5.4c0.6-0.9,1.2-1.3,1.8-1.3c0.8,0,1.4,0.6,1.4,1.8v4.8h2.6v-5.4
		c0-2.3-1.6-3.2-3.1-3.2c-1,0-1.9,0.4-2.7,1.4h0L38.7,29.2L38.7,29.2z"/>
	<path class="st13" d="M49,29.2h-2.6v12.4H49V29.2z"/>
	<path class="st13" d="M53.6,33.3h-2.7v8.4h2.7V33.3z M52.3,29.1c-0.8,0-1.5,0.7-1.5,1.5c0,0.8,0.7,1.5,1.5,1.5
		c0.8,0,1.5-0.7,1.5-1.5C53.7,29.7,53.1,29.1,52.3,29.1z"/>
	<path class="st13" d="M58.1,29.2h-2.6v12.4h2.6V41c0.7,0.5,1.5,0.8,2.4,0.8c2.3,0,3.9-1.8,3.9-4.4s-1.7-4.3-4.1-4.3
		c-0.8,0-1.3,0.2-2.2,0.6V29.2L58.1,29.2z M58.1,35.5c0.6-0.4,1-0.6,1.5-0.6c1.1,0,2.1,0.8,2.1,2.5c0,1.8-0.8,2.7-2,2.7
		c-0.5,0-1-0.2-1.6-0.7L58.1,35.5L58.1,35.5z"/>
	<path class="st13" d="M74.4,39.6c-0.6,0.4-0.8,0.5-1,0.5c-0.3,0-0.4-0.2-0.4-0.6v-3.8c0-1.8-1.4-2.6-3.6-2.6c-1.3,0-2.5,0.4-3.6,1
		v2.2c0.8-0.9,2-1.4,3.1-1.4c1.1,0,1.5,0.6,1.5,1.4c-3.5,1.1-5,1.5-5,3.5c0,1.1,1,2.1,2.4,2.1c0.9,0,1.8-0.3,2.8-1
		c0.2,0.7,0.6,1,1.5,1c0.7,0,1.7-0.3,2.5-0.8V39.6z M70.3,39.6c-0.4,0.4-1,0.6-1.5,0.6S68,39.9,68,39.4c0-0.8,0.8-1.2,2.3-1.8V39.6z
		"/>
	<path class="st13" d="M77.8,33.3h-2.6v8.4h2.6v-5.4c0.7-1,1.2-1.4,1.8-1.4c0.7,0,1.3,0.5,1.3,1.7v5.1h2.6v-5.4
		c0-2.5-1.7-3.2-3.1-3.2c-1.1,0-1.9,0.4-2.7,1.4V33.3L77.8,33.3z"/>
	<path class="st13" d="M88.2,29.2h-2.7v12.4h2.7v-4.1h0l3.3,4.1h3.2l-3.4-4.3l3.3-4.2h-3.1l-3.3,4.2h0V29.2z"/>
</g>
</svg>
