<?xml version="1.0" encoding="utf-8"?>
<!-- Generator: Adobe Illustrator 25.4.1, SVG Export Plug-In . SVG Version: 6.00 Build 0)  -->
<svg version="1.1" id="Layer_1" xmlns="http://www.w3.org/2000/svg" xmlns:xlink="http://www.w3.org/1999/xlink" x="0px" y="0px"
	 width="128px" height="48px" viewBox="0 0 128 48" style="enable-background:new 0 0 128 48;" xml:space="preserve">
<style type="text/css">
	.st0{clip-path:url(#SVGID_00000096031706296636225190000006940785550496323200_);}
	.st1{fill:#FFFFFF;filter:url(#Adobe_OpacityMaskFilter);}
	.st2{mask:url(#mask0_4361_26292_00000073684482388111431570000000346616622010850741_);}
	.st3{fill:#61B214;}
</style>
<g>
	<defs>
		<rect id="SVGID_1_" x="18" y="8" width="92.5" height="32"/>
	</defs>
	<clipPath id="SVGID_00000005249263494443270140000013280896185922781835_">
		<use xlink:href="#SVGID_1_"  style="overflow:visible;"/>
	</clipPath>
	<g style="clip-path:url(#SVGID_00000005249263494443270140000013280896185922781835_);">
		<defs>
			<filter id="Adobe_OpacityMaskFilter" filterUnits="userSpaceOnUse" x="18" y="8" width="92.5" height="32">
				<feColorMatrix  type="matrix" values="1 0 0 0 0  0 1 0 0 0  0 0 1 0 0  0 0 0 1 0"/>
			</filter>
		</defs>
		
			<mask maskUnits="userSpaceOnUse" x="18" y="8" width="92.5" height="32" id="mask0_4361_26292_00000073684482388111431570000000346616622010850741_">
			<path class="st1" d="M110.5,8H18v32h92.5V8z"/>
		</mask>
		<g class="st2">
			<path class="st3" d="M22.9,32.1c0.9-0.4,1.4-1,1.4-1.8c0-1.2-1.1-2-3.1-2H18c0.5,0.4,0.6,0.9,0.6,1.6v6c0,0.7,0,1,0,1.6H21
				c2.7,0,4.1-1.2,4.1-2.9C25.1,33.4,24.4,32.5,22.9,32.1z M20.1,29.2c0.4-0.1,0.7-0.1,1-0.1c1.1,0,1.7,0.5,1.7,1.4
				c0,0.9-0.7,1.5-1.9,1.5c-0.2,0-0.5,0-0.8-0.1V29.2z M21.3,36.5c-0.3,0-0.7,0-1.2-0.1v-3.5c0.5-0.1,0.9-0.1,1.2-0.1
				c1.4,0,2.4,0.8,2.4,1.9C23.6,35.8,22.8,36.5,21.3,36.5z M31.2,34.9v-1.6c0-1-0.1-1.6-0.8-2.1c-0.4-0.3-1-0.5-1.7-0.5
				c-0.3,0-1.3,0.1-2.1,0.3l0,1.2c0.7-0.3,1.3-0.5,1.8-0.5c0.9,0,1.5,0.4,1.5,0.9c0,0.5-0.4,0.7-1.5,0.9c-1,0.2-1.8,0.3-2.3,0.8
				c-0.3,0.3-0.5,0.7-0.5,1.2c0,1.1,0.8,1.9,2.3,2c0.6,0,2.3-0.2,2.8-0.3c0.3,0.1,0.6,0.1,1,0.1l0.6-0.9
				C31.2,36.5,31.2,36.1,31.2,34.9z M28.6,36.7c-0.9,0-1.5-0.5-1.5-1.1c0-0.8,0.9-1,2.9-1.5v1.9c0,0.2,0,0.4,0.1,0.5
				C29.6,36.5,28.9,36.7,28.6,36.7z M79.5,34.9v-1.6c0-1-0.1-1.6-0.8-2.1c-0.4-0.3-1-0.5-1.7-0.5c-0.3,0-1.3,0.1-2.1,0.3l0,1.2
				c0.7-0.3,1.3-0.5,1.8-0.5c0.9,0,1.5,0.4,1.5,0.9c0,0.5-0.4,0.7-1.5,0.9c-1,0.2-1.8,0.3-2.3,0.8c-0.3,0.3-0.5,0.7-0.5,1.2
				c0,1.1,0.8,1.9,2.3,2c0.6,0,2.3-0.2,2.8-0.3c0.3,0.1,0.6,0.1,1,0.1l0.6-0.9C79.5,36.5,79.5,36.1,79.5,34.9z M77,36.7
				c-0.9,0-1.5-0.5-1.5-1.1c0-0.8,0.9-1,2.9-1.5v1.9c0,0.2,0,0.4,0.1,0.5C77.9,36.5,77.2,36.7,77,36.7z M38.9,36.3v-3
				c0-1.4-1-2.4-2.5-2.4c-0.8,0-1.5,0.3-2.1,1l0-0.9c-0.6,0-1.1,0-1.6,0h-0.2c0.3,0.3,0.5,0.7,0.5,1.2v4c0,0.5,0,0.8,0,1.2h1.8
				c-0.3-0.3-0.5-0.7-0.5-1.2v-2.4c0-1.3,0.4-1.9,1.7-1.9c1.2,0,1.6,0.7,1.6,2v2.3c0,0.5,0,0.8,0,1.2h1.8
				C39,37.2,38.9,36.8,38.9,36.3z M45.2,36.5l-2.3-2.7l2.3-2.7h-2c0.1,0.2,0.2,0.3,0.2,0.5c0,0.2-0.1,0.5-0.4,0.8l-1.4,1.5v-5.7
				c-0.7,0-1.2,0-1.6,0h-0.1c0.3,0.3,0.5,0.7,0.5,1.2v6.9c0,0.5,0,0.8,0,1.2H42c-0.3-0.3-0.5-0.7-0.5-1.2v-2.4l2.2,2.8
				c0.4,0.5,0.7,0.8,1.2,0.8h1.3C45.7,37,45.3,36.6,45.2,36.5z M53.7,29.3c-1.1-0.9-2.3-1.1-3.8-1.1h-3.3c0.5,0.4,0.5,0.9,0.5,1.6v6
				c0,0.7,0,1.1,0,1.6h2.3c2.1,0,3.6-0.4,4.6-1.5c0.8-0.9,1.2-2,1.2-3.2C55.4,31.3,54.8,30.2,53.7,29.3z M50.2,36.5
				c-0.4,0-0.9,0-1.5,0v-7.3h1.4c2.3,0,3.7,1.5,3.7,3.6C53.9,35,52.3,36.5,50.2,36.5z M62.1,36.3v-3c0-1.4-1-2.4-2.5-2.4
				c-0.8,0-1.5,0.3-2.1,1v-3.8c-0.7,0-1.2,0-1.6,0h-0.1c0.3,0.3,0.5,0.7,0.5,1.2v6.9c0,0.5,0,0.9,0,1.2H58c-0.3-0.3-0.5-0.7-0.5-1.2
				v-2.4c0-1.3,0.4-1.9,1.7-1.9c1.2,0,1.6,0.7,1.6,2v2.3c0,0.5,0,0.9,0,1.2h1.8C62.2,37.2,62.1,36.8,62.1,36.3z M66.7,30.8
				c-1,0-2,0.4-2.7,1c-0.7,0.7-1.1,1.5-1.1,2.5c0,0.9,0.4,1.7,1,2.4c0.7,0.7,1.5,1,2.6,1c1,0,2-0.4,2.7-1c0.7-0.7,1.1-1.5,1.1-2.5
				c0-0.9-0.4-1.7-1-2.4C68.5,31.1,67.7,30.8,66.7,30.8z M66.6,36.8c-1.3,0-2.3-1.1-2.3-2.7c0-1.3,0.9-2.3,2.2-2.3
				c1.3,0,2.3,1.1,2.3,2.6C68.8,35.8,67.9,36.8,66.6,36.8z M70.1,31L70.1,31C70,31,70,31,70.1,31z M72.3,36.3V32H74V31h-1.7v-0.8
				c0-0.9,0.2-1.2,0.9-1.3c0.2,0,0.4,0,0.7,0l0-0.8c-0.3,0-0.2,0-0.5,0c-2.7,0-2.4,1.1-2.4,3c0,0-0.8,0-1,0c0.8,0.1,1,1,1,1v4.3
				c0,0.5,0,0.9,0,1.2h1.8C72.5,37.2,72.3,36.8,72.3,36.3z M84.2,30.9c-0.7,0-1.2,0.3-1.6,1l0-0.9c-0.6,0-1.2,0-1.6,0h-0.2
				c0.3,0.3,0.5,0.7,0.5,1.2v4c0,0.5,0,0.8,0,1.2h1.8c-0.3-0.3-0.5-0.7-0.5-1.2v-2.4c0-1.2,0.5-1.8,1.5-1.8c0.3,0,0.5,0.1,0.7,0.2
				V31C84.6,30.9,84.4,30.9,84.2,30.9z"/>
			<path class="st3" d="M65.5,19.5h2.4L67.6,19h-0.8c-0.3,0-0.5-0.1-0.5-0.4c0-0.3,0.2-0.4,0.4-0.4h0.6v-0.6h-0.7
				c-0.6,0-0.9,0.5-0.9,1c0,0.1,0,0.3,0.1,0.5l-0.3,0V19.5z M80,16.8c0.4,0,0.7-0.3,0.7-0.7c0-0.4-0.3-0.7-0.7-0.7
				c-0.6,0-0.7,0.4-0.7,0.7C79.4,16.5,79.6,16.8,80,16.8z M76.2,16.8v-0.6v-1h-1.8v0c0.4,0.1,0.5,0.5,0.5,1.3h0v4.1
				c0,0.4-0.4,1.3-1.9,1.3l-13.4,0c-0.7,0-1.4-0.5-1.4-1.2c0-0.6,0.5-1.3,1.2-1.3c0,0,0.9-0.1,1.1,0.5h0v-1.3l-1.1,0
				c-1.2,0-2.2,1-2.2,2.1c0,1.2,1,2.1,2.2,2.1l11.5,0c2.7,0,3.4-0.1,4.2-0.8c0.2-0.2,0.3-0.3,0.4-0.5c0,0,0,0,0.1-0.1
				c0.2,0.3,0.7,1.5,2.3,1.4c1.2-0.1,1.7-0.4,2.1-0.8c0.3,0.4,1.2,0.9,2.2,0.8c2,0,2.6-1.1,2.6-1.8v-2.5v-1.3H83v0
				c0.4,0.1,0.5,0.5,0.5,1.4v2.1c0,0.3-0.2,1.1-1.3,1.1c-1.2,0.1-1.6-0.7-1.6-1v-0.3h0v-0.5c0,0,0-1.4,0-1.4h0v-1.1h-1.8v0
				c0.4,0.1,0.5,0.4,0.5,1.1h0c0,0.1,0,1.6,0,1.7l0,0.3c0,0.3-0.2,1.1-1.5,1.1c0,0-1.6,0.1-1.7-2L76.2,16.8L76.2,16.8z M81.9,24.2
				c0,0.3,0.3,0.6,0.7,0.6c0.4,0,0.7-0.3,0.7-0.7c0-0.4-0.3-0.7-0.7-0.7C82.1,23.5,81.9,23.9,81.9,24.2z M76.2,16.1v0.2v0.3V16.1z
				 M35.2,15.4c-0.4,0-0.6,0.2-0.7,0.4c0,0.1,0,0.2,0,0.3c0,0.3,0.3,0.6,0.7,0.6c0.4,0,0.7-0.3,0.7-0.7
				C35.9,15.6,35.6,15.4,35.2,15.4z M50.6,17.2c0,0.3,0.3,0.6,0.7,0.6c0.4,0,0.7-0.3,0.7-0.7c0-0.4-0.3-0.7-0.7-0.7
				C50.7,16.5,50.6,17,50.6,17.2z M21.2,21.4c0,0,0-1.7,0-1.8h0v-1.1h-1.8v0c0.4,0.1,0.5,0.4,0.5,1.1c0,0.1,0,2.3,0,2.3
				c0,1.4-0.8,2.5-1.7,2.5v0.2C19.8,24.5,21.2,23.3,21.2,21.4z M52.9,22.9c0,0,2.2,0.4,2.1-2.1c0-1.4-0.9-2.4-2.4-2.4l-4.4,0
				c0,0,0,0-0.1,0l-0.1,0v-3.2h-1.8v0c0.4,0.1,0.5,0.4,0.5,1.1v2.1c0,0.1,0,2.6,0,3.5H37v-3.4c0-0.8,0.1-1.2,0.5-1.3v-0.1h-2.8
				c-1.3,0-2.3,1-2.3,2.2c0,1.2,1,2.2,2.3,2.2c0.5,0,0.8-0.2,1.1-0.3V22h-12l0-0.6v-4.7c0-0.1,0-0.3,0-0.4h0l0-1.1h-1.8v0
				c0.4,0.1,0.5,0.4,0.5,1.1c0,0.1,0,0.2,0,0.4l0,4.8c0,0.9-0.1,1.3-0.5,1.4v0.1L52.9,22.9L52.9,22.9z M35.9,19.4
				c0,0.6-0.5,1.1-1.1,1.1c-0.6,0-1.1-0.5-1.1-1.1c0-0.6,0.5-1.1,1.1-1.1l1.1,0V19.4z M48,19.7h3.8c1.6-0.2,2.1,0.5,2.1,1.1
				c0,0.6-0.1,1.1-1.1,1.2H48V19.7z"/>
			<path class="st3" d="M91.4,40c2.2,0.3,20.4-3.8,18.3-14.9c-1-4.3-5.6-5.6-6.4-5.6c1.3-6.9-1.3-11.5-1.3-11.5s1.5,7.6-1,11.4
				c-2.6-0.1-8.5,2.2-8.5,2.2s6.5-0.9,7.6-0.6c-2.6,4.3-10.2,6.7-10.2,6.7s-0.7,3.7,1.7,3.5c1.5-0.5,3.6-1.6,4.7-2.3
				c5.8-3.6,6.4-7.5,6.5-7.2c0.2,0.3,3.8,1.7,2.4,6.2c-2.4,7.1-15.6,8.6-15.6,8.6S89.1,39.7,91.4,40z"/>
			<path class="st3" d="M108.2,15.2c1.3,0,2.3-1,2.3-2.3c0-1.3-1.1-2.3-2.3-2.3c-1.3,0-2.3,1-2.3,2.3
				C105.9,14.1,106.9,15.2,108.2,15.2z"/>
		</g>
	</g>
</g>
</svg>
