<svg width="128" height="48" viewBox="0 0 128 48" fill="none" xmlns="http://www.w3.org/2000/svg">
<path fill-rule="evenodd" clip-rule="evenodd" d="M110.629 36.8207H112.615V33.1147H112.645L115.195 36.8207H117.715L114.513 32.5964L117.359 29.1872H115.016L112.645 32.2406H112.615V25.7033H110.629V36.8207ZM10.8888 31.2916C11.5553 30.7875 12.401 30.4615 13.245 30.4615C14.4164 30.4615 14.9645 30.8769 14.9645 32.1073H13.8685C13.0385 32.1073 12.0594 32.181 11.3033 32.5516C10.5538 32.9194 10.0087 33.5793 10 34.704V34.7441C10.0082 36.1882 11.3232 36.9988 12.6671 36.9988C13.5715 36.9988 14.5648 36.5245 15.0243 35.679H15.0541C15.0689 35.9168 15.0689 36.4209 15.1427 36.8207H16.8922C16.8474 36.2278 16.8182 35.694 16.8034 35.1162C16.7884 34.5531 16.7736 33.9743 16.7736 33.2035V32.2259C16.7736 29.9724 15.8093 29.0082 13.483 29.0082C12.6381 29.0082 11.6001 29.2311 10.829 29.5869L10.8888 31.2916ZM101.842 36.8207H103.827V33.0847C103.827 32.1073 104.139 30.5509 105.577 30.5509C106.852 30.5509 106.867 31.8105 106.867 32.7448V36.8207H108.853V32.0029C108.853 30.284 108.067 29.009 106.259 29.009C105.221 29.009 104.377 29.3497 103.753 30.2235H103.724V29.1872H101.842V36.8207ZM94.3141 31.2916C94.9808 30.7875 95.8263 30.4615 96.6711 30.4615C97.8419 30.4615 98.3907 30.8769 98.3907 32.1073H97.2938C96.4638 32.1073 95.4856 32.181 94.7286 32.5516C93.9734 32.9223 93.4245 33.5896 93.4245 34.7306C93.4245 36.1832 94.7437 36.9988 96.0926 36.9988C96.9971 36.9988 97.991 36.5245 98.4496 35.679H98.4794C98.4945 35.9168 98.4945 36.4209 98.5682 36.8207H100.318C100.273 36.2278 100.244 35.694 100.229 35.1162C100.214 34.5531 100.199 33.9743 100.199 33.2035V32.2259C100.199 29.9724 99.2355 29.0082 96.9083 29.0082C96.0626 29.0082 95.0254 29.2311 94.2545 29.5869L94.3141 31.2916ZM95.3222 34.612C95.3222 33.4413 96.6414 33.2922 97.531 33.2922H98.3907C98.3907 33.8857 98.3019 34.4338 97.9753 34.864C97.6638 35.2793 97.1901 35.5457 96.5824 35.5457C95.8703 35.5457 95.3222 35.2645 95.3222 34.612ZM87.1723 32.9815C87.1723 31.9145 87.6764 30.5507 88.9508 30.5507C90.2408 30.5507 90.5965 31.9585 90.5965 32.9815C90.5965 34.0337 90.2258 35.4571 88.921 35.4571C87.6018 35.4571 87.1723 34.0635 87.1723 32.9815ZM85.171 36.8202H87.0977V35.8866H87.1277C87.7056 36.7025 88.6249 36.9993 89.4697 36.9993C91.8111 36.9993 92.6718 35.0718 92.6718 32.9815C92.6718 30.8765 91.8111 29.0086 89.4697 29.0086C88.4325 29.0086 87.7354 29.4381 87.1873 30.1652H87.1575V25.7031H85.171V36.8202ZM74.5211 32.9815C74.5211 31.9585 74.8768 30.5507 76.1659 30.5507C77.4412 30.5507 77.9453 31.9145 77.9453 32.9815C77.9453 34.0635 77.5149 35.4571 76.196 35.4571C74.8918 35.4571 74.5211 34.0337 74.5211 32.9815ZM78.0191 36.8202H79.9466V25.7031H77.9594V30.0756H77.9303C77.3376 29.3493 76.6411 29.0086 75.6479 29.0086C73.3057 29.0086 72.4458 30.8765 72.4458 32.9815C72.4458 35.0718 73.3057 36.9993 75.6479 36.9993C76.5813 36.9993 77.3964 36.7025 77.9893 35.9612H78.0191V36.8202ZM66.4158 32.255C66.5046 31.2326 67.0675 30.4615 68.1793 30.4615C69.2911 30.4615 69.7356 31.2916 69.7952 32.255H66.4158ZM71.1292 34.7754C70.3887 35.1899 69.5581 35.5457 68.5946 35.5457C67.3651 35.5457 66.5046 34.8492 66.4158 33.6188H71.6929C71.6929 30.9509 70.892 29.009 68.0607 29.009C65.6895 29.009 64.5181 30.8323 64.5181 33.0409C64.5181 35.5457 65.9863 36.9988 68.5059 36.9988C69.5731 36.9988 70.4038 36.7909 71.1292 36.3905V34.7754ZM60.208 34.523C60.208 36.0352 61.0677 36.9986 62.6246 36.9986C63.2167 36.9986 63.6762 36.939 64.0916 36.8204L64.0326 35.25C63.8252 35.3827 63.4836 35.4573 63.1281 35.4573C62.3718 35.4573 62.1945 34.8488 62.1945 34.1971V30.6395H63.9588V29.187H62.1945V27.0223L60.208 27.6598V29.187H58.7405V30.6395H60.208V34.523ZM55.7941 36.8204H57.7806V29.187H55.7941V36.8204ZM55.7941 27.7934H57.7806V25.8963H55.7941V27.7934ZM47.0068 36.8207H48.9926V33.0847C48.9926 32.1073 49.3044 30.5509 50.7419 30.5509C52.0171 30.5509 52.0319 31.8105 52.0319 32.7448V36.8207H54.0184V32.0029C54.0184 30.284 53.2325 29.009 51.4242 29.009C50.3862 29.009 49.5413 29.3497 48.9189 30.2235H48.8897V29.1872H47.0068V36.8207ZM45.275 29.1868H43.2894V32.9225C43.2894 33.9001 42.9776 35.4571 41.5401 35.4571C40.2649 35.4571 40.2501 34.1969 40.2501 33.2633V29.1868H38.2636V34.0046C38.2636 35.7241 39.0495 36.9993 40.8578 36.9993C41.8956 36.9993 42.7555 36.5241 43.3632 35.7837H43.3923V36.8202H45.275V29.1868ZM31.0093 36.8204H32.9958V29.187H31.0093V36.8204ZM31.0093 27.7934H32.9958V25.8963H31.0093V27.7934ZM27.2034 36.8204H29.1892V25.7031H27.2034V36.8204ZM18.416 36.8207H20.4025V33.0847C20.4025 32.1073 20.7134 30.5509 22.1518 30.5509C23.4268 30.5509 23.4409 31.8105 23.4409 32.7448V36.8207H25.4274V32.0029C25.4274 30.284 24.6415 29.009 22.8332 29.009C21.796 29.009 20.9355 29.4831 20.4323 30.2235H20.4025V25.7033H18.416V36.8207ZM11.8969 34.612C11.8969 33.4413 13.216 33.2922 14.1048 33.2922H14.9645C14.9645 33.8857 14.8759 34.4338 14.55 34.864C14.2382 35.2793 13.7647 35.5457 13.1571 35.5457C12.4449 35.5457 11.8969 35.2645 11.8969 34.612Z" fill="#004265"/>
<path fill-rule="evenodd" clip-rule="evenodd" d="M14.0339 21.9148C15.0927 21.3906 16.1865 20.9478 17.1954 20.3021C17.6021 20.1831 16.9502 21.4287 14.4879 22.0537C14.3689 22.0839 14.0339 22.1254 14.0339 21.9148ZM16.426 17.787C16.9016 17.8383 17.3558 17.9227 17.7727 18.0746C17.1703 18.3433 15.7061 18.8049 15.1204 18.417C15.4283 17.9875 15.913 17.8168 16.426 17.787ZM21.2654 15.9182C21.6778 15.7529 24.8961 14.0962 24.9327 14.3494C24.9969 14.7933 24.3611 15.074 24.0295 15.1919C23.6873 15.3137 21.5247 16.1139 21.2497 15.9787L21.2654 15.9182ZM22.3049 17.4572C22.5232 17.2232 22.6852 16.9144 22.9967 16.7683C23.2778 16.8041 23.5076 16.9548 23.7374 17.1046C24.0358 17.1795 24.2011 16.3803 24.5224 16.5177C24.8454 16.7161 25.2271 16.8064 25.5059 17.0717C25.4841 17.2492 24.909 17.9085 24.7052 17.8413C24.4159 17.7459 24.1297 17.4587 23.8209 17.4566C23.0863 18.2625 23.221 18.0882 22.2743 17.6117C22.2102 17.5639 22.2973 17.5109 22.3049 17.4572ZM33.0851 14.8609C33.1591 14.7478 33.2472 14.4481 33.3759 14.6341C33.4349 14.7191 34.488 19.4441 33.6875 19.8903C33.601 19.903 33.6308 19.8092 33.5875 19.7681C33.5875 18.4354 32.928 16.0148 32.8836 15.5678C32.9149 15.3188 33.032 15.104 33.0851 14.8609ZM35.8716 18.7345C36.0327 18.4661 36.1869 18.1769 36.4129 17.9501C36.6389 18.0476 36.6097 17.8472 36.4831 18.1664C36.3117 18.5982 34.9864 20.3551 37.4457 20.9531C37.72 20.9821 37.9566 21.1051 38.2533 21.0947C38.9151 21.0433 39.8547 20.7829 40.3389 20.3357C39.8646 20.096 38.5983 20.1651 38.3144 19.9679C38.2159 19.8994 38.5577 19.149 38.6761 19.0814C38.9511 18.9239 40.9684 18.6827 40.7274 17.3917C40.6281 16.8601 40.1369 15.4206 40.4693 14.9212C40.6365 14.8011 40.6171 14.5857 40.7342 14.4247L41.4009 17.9637C42.1614 20.4545 48.6799 19.2869 49.0282 19.0106C49.0777 18.9713 49.2599 16.7749 49.5719 16.4655C49.939 16.1013 49.8152 16.0452 50.7268 16.4752C51.3943 16.892 52.1996 17.2693 52.597 17.9941C53.0802 18.6263 52.7854 19.9905 52.5053 20.044C52.1011 20.0672 51.7784 19.8487 51.3742 19.8457C50.8327 19.7734 50.2483 19.8159 49.7367 19.6973C49.7158 19.6504 49.6577 19.6563 49.6217 19.6696C47.8894 20.3881 42.1259 21.4082 41.1003 19.2357C40.9578 18.9717 40.9251 18.6616 40.834 18.3708L39.9587 19.3283L39.9578 19.361C40.6598 19.6229 41.587 19.1554 40.9369 20.4348C40.2672 21.144 39.453 21.677 38.5418 21.8992C37.0246 22.3399 34.9982 21.6802 35.4429 19.7764C35.5405 19.4065 35.7456 19.0844 35.8716 18.7345ZM37.2831 15.1987C37.7644 14.9093 37.2675 15.55 37.4598 15.6117C37.7769 15.655 37.8746 15.2911 38.128 15.1919C38.2354 15.315 38.0958 15.5424 38.2899 15.6117C38.5433 15.479 38.4165 15.1674 38.6708 15.0279C39.054 15.1725 38.0671 16.695 37.8171 16.0197C37.8171 15.9987 37.7955 15.9852 37.7813 15.9719C37.5478 16.0776 37.265 16.413 37.0215 16.1203C36.7226 15.7612 37.0244 15.4957 37.2831 15.1987ZM44.5617 14.9683C44.8249 14.7464 46.641 14.4811 46.7429 14.8914C46.9031 15.5369 44.511 16.7523 44.455 16.3365C44.4364 16.1983 47.4514 15.1106 44.1874 15.646C43.7837 15.7121 44.4867 15.0573 44.5617 14.9683ZM49.9342 17.892C50.0716 17.8717 50.698 18.1152 50.6091 18.3088C50.3728 18.8225 49.7482 18.5874 49.4533 18.3192C49.5061 18.1106 49.7314 17.951 49.9342 17.892ZM51.2466 17.9964C51.6492 18.2023 52.0796 18.5363 52.3062 18.9292L50.9297 18.695C51.0259 18.4602 51.1802 18.2463 51.2466 17.9964ZM52.8185 15.0488C53.6659 14.5515 56.5981 16.9303 56.8429 17.0241L59.2216 14.312C59.5455 14.1442 59.5537 17.5508 59.5662 17.7271C59.7116 19.766 59.0959 20.7887 59.1134 20.4891C59.1491 19.8778 59.0409 16.1512 58.8562 15.5843C58.5085 15.7417 57.5805 17.126 57.2791 17.4663C57.4645 17.825 58.366 18.9277 57.675 19.9643C57.1857 20.6984 54.95 21.5346 55.8959 18.736C55.9538 18.5646 56.3745 17.9389 56.28 17.7817C55.5924 17.2701 54.8817 16.8129 54.0982 16.5162C54.0176 16.617 54.0445 16.7922 53.8855 16.8318C53.3212 16.948 53.1026 16.4268 52.7439 16.1545C52.6418 16.0144 52.7469 15.2325 52.8185 15.0488ZM56.0891 14.3807C57.3736 13.7622 57.2102 15.0406 56.7475 14.8586C56.6767 14.8108 56.7207 14.6901 56.6057 14.6751C56.4685 14.6811 56.2664 14.6052 56.1794 14.7318C56.441 15.3215 57.7386 14.706 57.7511 14.8937C57.7687 15.16 56.1411 15.7986 55.9756 15.655C55.9765 15.5468 56.0644 15.4604 56.08 15.3522C55.5505 15.1125 55.6551 14.6781 56.0891 14.3807ZM56.4835 18.4915C56.5924 18.4044 56.5723 18.256 56.7027 18.1896C57.0398 18.449 57.303 18.7882 57.5028 19.1268C57.5729 19.3414 56.203 19.8747 56.136 19.3587C56.1248 19.0142 56.3865 18.7876 56.4835 18.4915ZM61.3662 18.1395C61.4831 18.1059 61.5201 19.101 61.9538 19.3454C62.4937 19.5921 63.0403 19.8531 63.7188 19.7369C64.2778 19.6728 66.979 19.4452 66.7477 18.5139C66.5687 17.569 66.4554 16.5967 66.2764 15.658C66.1493 15.3177 66.4123 14.7635 66.5903 14.4671C66.7255 14.4462 67.2409 17.8599 67.292 18.2014C67.3248 18.6206 67.682 18.974 68.0481 19.2126C68.9244 19.6754 71.9872 19.5699 73.0158 19.0575C73.336 18.0666 73.9257 17.6187 73.499 19.0755C73.8807 19.2065 74.2895 19.4997 74.7317 19.308C75.2265 19.0478 74.6708 17.9673 74.6898 17.5475C74.6945 17.4435 74.958 16.6058 75.0515 16.7616C75.4157 17.3691 75.2798 19.3596 76.261 19.4012C76.4639 19.3961 76.6875 19.3909 76.7972 19.2239L76.3453 15.8339C76.2193 15.245 75.8866 15.5335 76.5175 14.3792C76.6723 14.0962 76.708 14.832 77.132 15.0182C77.4679 15.1657 77.7012 14.97 77.5681 15.453C77.422 15.702 77.3683 16.0516 77.035 16.1568C76.7543 16.7356 78.1206 20.2552 76.0925 20.4788C75.6397 20.5287 75.1597 20.0309 75.1037 19.6346C74.5507 19.8559 74.8612 20.8434 73.3193 19.8024C72.8513 19.4864 73.8357 19.9848 71.1694 20.405C70.0927 20.5747 67.5852 20.7252 67.0191 19.6764C66.9483 19.5206 66.9065 19.3454 66.8572 19.1829C65.9726 20.4794 64.638 20.6728 63.0961 20.751C62.0749 20.8028 60.9177 20.3071 61.1119 19.1425C61.1648 18.7994 61.2119 18.4424 61.3662 18.1395ZM62.6704 17.6177C62.8264 17.5897 64.2948 17.1708 64.228 17.0569C64.0227 16.7071 62.0768 17.5494 62.8799 16.1159C63.5355 14.9453 65.0714 14.3289 65.1445 14.7722C65.1736 14.9497 64.6372 15.9188 64.3922 15.7026C64.3421 15.6489 64.3938 15.5483 64.307 15.52C63.8126 15.4555 63.0223 15.9072 63.9618 16.1315C64.0434 16.1509 66.0113 15.8316 64.4554 17.376C63.8114 18.0152 61.8513 17.9339 62.1789 17.6474C62.3394 17.5743 62.4973 17.6371 62.6704 17.6177ZM69.3918 17.5378C69.949 16.9613 69.9498 16.5056 70.7594 17.1852C71.1709 17.5306 71.2821 17.6037 70.3597 18.2604C70.0111 18.1697 69.682 17.8032 69.362 17.6318L69.3918 17.5378ZM70.1517 15.8108C71.3119 15.227 72.5431 14.7916 73.6966 14.1875C74.3721 14.6694 70.0859 16.3141 69.8744 16.1793L70.1517 15.8108ZM73.5922 21.531C73.8323 21.29 73.9441 20.9673 74.27 20.7941C74.4322 20.7643 75.1701 21.2177 75.0225 21.4204C74.3144 22.3938 74.3846 22.1387 73.5765 21.6115L73.5922 21.531ZM79.0826 14.8586C79.3675 14.3477 79.3347 16.0178 79.3935 16.4058C79.4167 17.0531 79.4755 17.6401 79.5197 18.2746C79.6374 18.8353 79.6598 19.5369 79.2445 19.9717C79.0454 19.9015 78.8363 16.7872 78.8232 16.4274C78.8135 15.8683 78.8262 15.315 79.0826 14.8586ZM10.3808 18.1023C10.527 17.8244 10.5936 18.4661 10.6365 18.5153C11.1631 19.1196 13.3051 18.6382 13.7587 18.1292C14.0121 17.8449 13.3007 16.2154 13.2599 15.866C13.2449 15.7375 13.4159 14.5388 13.6088 14.8704C13.9248 15.4137 14.0113 17.8573 14.6803 18.3192C15.0798 17.8842 15.2952 16.0565 18.1656 16.9852C18.9418 17.3424 19.8128 17.6191 20.7598 17.4581C20.8466 17.5447 20.5349 18.2708 20.3981 18.3253C20.0225 18.475 18.8151 18.3955 18.5615 18.6272C18.5674 18.7622 18.7331 18.8375 18.8187 18.9463C19.8705 19.8778 25.6277 19.2067 27.265 18.88C28.3212 18.6692 27.7435 18.1178 28.3656 17.7495C28.8312 17.4739 27.7805 18.863 28.9659 19.1641C29.4281 19.2813 29.611 18.8802 29.8667 18.6115C29.8213 17.7825 29.698 16.1583 29.3776 15.3769C29.2859 15.1532 29.5632 14.4414 29.7632 14.2672C29.9346 14.4173 30.0912 14.6274 30.2924 14.7772C30.4499 14.9205 30.7898 14.8288 30.8234 15.0852C30.7198 15.3946 30.6222 15.7108 30.3603 15.9442C30.2747 15.9309 30.1658 15.9503 30.165 16.0374C30.3214 18.6269 30.0961 18.175 31.8122 18.9776C32.3571 19.2323 32.0682 19.3441 31.9769 19.8696C31.8868 20.3875 31.2269 19.8804 31.0031 19.7741L29.8883 19.4006C27.994 21.0822 28.4235 19.0901 27.9242 19.4118C27.1453 19.9138 26.4117 20.0167 25.5135 20.167C23.8027 20.4532 21.0058 20.5614 19.3258 20.3334C18.7995 20.2207 18.2185 19.8383 18.1149 19.305L18.1559 18.8197C18.0496 18.7193 15.471 19.8214 14.5693 19.4714C14.043 19.267 14.158 18.7459 13.9354 18.569C13.2028 19.8831 10.3434 20.2852 10.2533 19.3348C10.1563 18.9159 10.2681 18.4855 10.3808 18.1023Z" fill="#BD9E55"/>
<path fill-rule="evenodd" clip-rule="evenodd" d="M97.4889 14.4204L97.9761 13.9446L97.5922 13.5829L98.0385 13.22L97.6546 12.8164L97.2205 13.1686L97.5717 13.5615L97.1164 14.0169L97.4889 14.4204ZM98.2956 16.5734C98.3883 16.5848 98.4906 16.5134 98.4906 16.5134C98.5522 16.4375 98.524 16.3198 98.524 16.3198C98.4246 16.1097 98.1265 16.2402 98.1265 16.2402C97.9542 16.3069 97.7819 16.408 97.6104 16.5431L97.7068 16.3465C97.9086 16.058 97.8806 15.7734 97.8806 15.7734C97.8548 15.6453 97.741 15.7152 97.741 15.7152C97.539 15.7431 97.5528 15.8905 97.5528 15.8905C97.4958 16.0187 97.6135 16.1688 97.6135 16.1688C97.47 16.5491 97.4162 16.7403 97.4511 16.7433C97.7122 16.565 98.008 16.3874 98.134 16.3564L98.2282 16.3571L98.2766 16.3837L98.2904 16.4482L98.2829 16.5089L98.2956 16.5734ZM96.7051 7.16977C96.7051 7.16977 96.9851 7.62127 97.1854 7.45585C97.1854 7.45585 97.2256 7.35799 97.1514 7.20397C97.077 7.04931 96.9966 6.9551 97.0314 7.11684C97.0314 7.11684 97.1058 7.267 97.0368 7.28441C97.0368 7.28441 96.917 7.34141 96.7855 7.14094C96.6535 6.94154 96.4706 6.48381 96.5048 6.74106L96.7051 7.16977ZM98.1316 11.0558L98.2144 11.1954C98.3966 11.1203 98.6765 11.1948 99.0538 11.4185C98.8139 11.0657 98.5066 10.945 98.1316 11.0558ZM96.168 10.0687C96.2764 10.0573 96.4252 9.99428 96.3568 9.93728C96.3568 9.93728 96.3568 9.90845 96.4252 9.91985C96.4934 9.93125 96.7111 9.95406 96.8197 9.99429C96.8197 9.99429 97.014 10.0285 96.9107 9.93125C96.8083 9.83404 96.7225 9.66259 96.3962 9.42276C96.3962 9.42276 96.2878 9.28552 96.4592 9.3023C96.4592 9.3023 96.6255 9.2681 96.5511 9.18764C96.4766 9.10785 96.4934 9.07903 96.4138 9.09645C96.3334 9.11408 96.1959 9.09645 96.1905 9.14806C96.1845 9.19904 96.1626 9.35995 96.3106 9.46835C96.4592 9.57698 96.6877 9.78864 96.6877 9.78864C96.6877 9.78864 96.482 9.73703 96.3454 9.72563C96.2082 9.71423 95.9447 9.74305 95.9273 9.83942C95.9107 9.93728 96.0593 10.0799 96.168 10.0687ZM95.2247 9.23389C95.3043 9.02224 95.4758 8.75894 95.5676 8.62752C95.6595 8.4963 95.642 8.76496 95.642 8.76496C95.642 8.76496 95.6298 9.17689 95.6078 9.31348C95.5844 9.45094 95.6246 9.46835 95.6246 9.46835C96.0647 8.77099 95.6988 8.30208 95.5904 8.09643C95.4818 7.88993 95.3506 8.022 95.3506 8.022C95.3506 8.022 95.1267 8.33004 95.0191 8.53051C94.9098 8.73076 94.984 8.82175 94.984 8.82175L95.2247 9.23389ZM97.5717 9.23479C97.3964 9.24532 97.3547 9.05861 97.3547 9.05861C97.2818 8.86135 97.3334 8.62389 97.3334 8.62389C97.3334 8.34532 97.675 8.45911 97.675 8.45911C97.7842 8.49784 97.8851 8.56989 97.9761 8.67616C98.049 8.79984 98.0073 9.02742 98.0073 9.02742C97.9034 9.28619 97.5717 9.23479 97.5717 9.23479ZM98.8565 8.20036C98.8565 8.20036 99.0742 8.17992 99.1472 8.26187C99.1472 8.26187 99.1168 8.39695 98.9194 8.53118C98.9194 8.53118 98.6288 8.7794 98.2874 8.92438L97.9761 8.39695L98.8565 8.20036ZM94.7853 10.2696L96.5253 11.0255C96.7135 11.3671 96.7795 11.7979 96.7225 12.3193L97.0953 12.6616C97.3235 12.6198 97.5513 12.2056 97.8828 11.7706C98.0802 11.543 98.225 11.7913 98.225 11.7913C98.3594 12.0165 98.4633 12.371 98.5461 12.9203C98.7266 13.8044 98.5567 14.3583 98.0695 14.7627C97.3334 15.3213 96.6096 15.1673 96.1944 14.6588C96.4349 15.0155 96.784 15.2643 97.2409 15.4039C98.194 15.5285 99.0598 14.8576 99.0643 13.9242C99.0643 13.0432 98.8677 12.3049 98.4732 11.7085C98.3108 11.5325 98.1932 11.4293 98.1211 11.3981C97.8699 11.2114 97.6597 11.2038 97.4889 11.3776L97.168 11.7814L97.1058 11.8534C97.055 11.6145 96.9335 11.3488 96.7438 11.0567L97.2205 11.0984C97.8329 11.0984 98.1917 10.6325 98.2973 9.70133C98.2661 9.57701 98.4003 9.51462 98.4003 9.51462L99.3126 8.91363C99.5507 8.68605 99.4165 8.45911 99.4165 8.45911L99.0742 7.87942C98.9049 7.67765 98.6113 7.65699 98.194 7.81724C97.7554 7.9605 97.5132 8.00546 97.4685 7.95147L97.6234 7.70325L96.7332 8.05473L97.0133 8.46902C97.0026 8.67616 97.1475 8.96611 97.1475 8.96611C97.2061 9.11776 97.3343 9.31136 97.5307 9.54581C97.6339 9.67014 97.841 9.70133 97.841 9.70133C97.8002 9.96097 97.706 10.2075 97.4481 10.477C97.1286 10.7067 96.7657 10.7274 96.3598 10.5398L95.6973 10.2279L94.7853 9.84546L94.4947 9.74243C94.3596 9.71124 94.4119 9.85622 94.4119 9.85622L94.7853 10.2696ZM108.098 13.8621C107.305 13.7429 106.532 13.5979 105.778 13.4265C105.527 13.3961 105.402 13.2269 105.405 12.9203C105.436 12.5385 105.689 12.3695 106.161 12.4127C105.977 12.2722 105.752 12.166 105.447 12.009C105.218 11.9264 105.215 11.4869 105.363 11.3359C105.417 11.2509 105.618 11.2023 105.964 11.1909C105.871 10.9943 105.333 10.8805 105.333 10.8805C105.024 10.7949 104.816 10.6635 104.711 10.4875C104.611 10.1795 104.705 9.90332 104.99 9.65961C105.405 9.27716 105.933 8.97601 105.933 8.97601C106.996 8.23003 107.669 7.58881 108.043 7.14096L107.517 7.28981L104.549 9.57076C103.098 9.66411 101.998 9.05861 101.789 8.42814C101.604 7.86414 101.787 7.44081 102.4 7.27305L102.327 7.25261C101.728 7.41652 101.41 7.78844 101.313 8.25197C101.225 8.94547 101.754 9.46299 102.897 9.80459C103.581 10.0003 103.918 10.0033 104.441 9.79403C104.234 9.95946 104.094 10.2249 104.151 10.5398C104.203 10.8085 104.545 11.0255 105.083 11.0877C104.921 11.1417 104.8 11.2623 104.741 11.4088C104.641 11.7495 104.855 12.0014 105.385 12.1638C105.53 12.1851 105.488 12.2572 105.488 12.2572C105.011 12.2563 104.807 12.4947 104.876 12.972C104.953 13.2232 105.229 13.4508 105.705 13.6549C106.058 13.815 106.959 14.0086 108.409 14.2346C108.638 14.2757 108.429 14.4001 108.429 14.4001L108.119 14.4426L108.129 14.4934L109.756 14.4205L109.331 14.038L108.098 13.8621ZM98.9088 10.2591L98.7942 10.1249C98.7647 10.0193 98.8094 9.9784 98.9293 10.0003C98.9293 10.0003 99.0848 9.93882 98.94 9.82503C98.94 9.82503 98.6804 9.74243 98.6182 9.9487C98.6182 9.9487 98.587 10.0315 98.7017 10.1558L99.1781 10.653C98.8965 10.5869 98.6926 10.58 98.5666 10.6325C98.5666 10.6325 98.3177 10.6119 98.4003 10.7676C98.4003 10.7676 98.4216 10.8601 98.587 10.9117C98.587 10.9117 98.8041 10.8601 98.8253 10.7356C99.0461 10.731 99.2328 10.7584 99.3853 10.8184L98.9088 10.2591ZM108.668 16.0148L108.554 15.9944L108.45 15.9223L107.28 15.2802L105.809 14.5033C105.388 14.3015 105.052 14.0942 104.804 13.8825L104.669 13.7375C104.576 13.6033 104.586 13.6859 104.586 13.6859L104.99 14.2968C105.374 14.7006 106.431 15.2385 107.643 15.8602C107.892 16.0361 107.643 16.0353 107.643 16.0353L107.332 16.0559C107.767 16.2531 108.545 16.3351 108.803 16.5627H108.875L108.73 16.1082L108.668 16.0148ZM105.916 18.7141C105.789 18.7202 105.682 18.689 105.595 18.6208C105.595 18.6208 105.699 18.4242 105.947 18.4659C105.947 18.4659 106.154 18.4347 106.238 18.5281C106.281 18.5775 106.216 18.7043 105.916 18.7141ZM101.478 18.6851C100.649 18.903 100.038 18.9553 99.9136 18.8408C99.9787 18.4053 99.9925 18.1843 99.997 18.0334L100.038 17.8673C100.131 17.5347 100.577 17.3497 101.136 17.5257C101.355 17.5924 101.704 17.7965 102.183 18.1372L102.545 18.3233L101.478 18.6851ZM104.809 16.2691L104.696 16.2585L104.613 16.2478L104.561 16.2168L104.582 16.134L104.633 16.0718L104.706 16.0202H104.778L104.841 16.0415L104.882 16.1135L104.902 16.1961L104.923 16.2895L104.809 16.2691ZM105.861 17.9097C105.861 17.9097 105.456 17.9712 105.27 18.2921C105.27 18.2921 104.985 17.918 104.656 17.4681C104.831 17.1069 104.915 16.7343 104.975 16.496L105.089 16.5173L105.151 16.5582L105.192 16.6098L105.234 16.5894V16.496L105.213 16.3822L105.099 16.3207L104.985 16.2895C104.985 15.989 104.85 15.8761 104.85 15.8761C104.778 15.7614 104.644 15.8965 104.644 15.8965L104.571 15.958L104.489 16.134C104.406 16.4648 104.778 16.4444 104.778 16.4444C104.944 16.4132 104.861 16.6621 104.861 16.6621C104.825 16.823 104.774 17.1349 104.638 17.4422C104.36 17.0613 104.053 16.6296 103.861 16.3252L103.727 16.1385L103.696 16.0772V16.0256H103.768L103.881 16.0869L104.006 16.1082L104.12 16.0976L103.747 15.7356L103.592 15.621L103.312 15.4147L103.063 15.2592L103.042 15.7773L103.136 15.8707L103.26 15.9527L103.436 16.2009L103.809 16.7911L104.171 17.3291L104.462 17.7845L104.473 17.7997C104.404 17.9415 104.328 18.0955 104.244 18.2609C104.331 18.1033 104.41 17.9537 104.482 17.8133L105.021 18.5713C105.021 18.5713 104.772 18.8619 104.7 19.048C104.7 19.048 104.285 19.6178 103.872 19.1717L103.778 19.0585C103.709 18.9729 103.795 18.7817 103.818 18.7019C103.84 18.6214 103.818 18.6049 103.818 18.6049C103.675 18.5076 103.393 18.9675 103.393 18.9675L103.32 19.1018C103.142 19.4593 102.944 19.6976 102.638 19.7826C102.099 19.8069 101.86 19.5403 101.924 18.9856L101.91 18.984C102.037 18.9333 102.163 18.878 102.286 18.8195C102.65 18.6466 103.064 18.5676 103.529 18.582C103.892 18.1981 103.84 18.0849 103.84 18.0849C103.187 18.1054 102.276 17.5568 102.276 17.5568L101.954 17.3497L101.612 17.1432C101.178 16.8739 100.763 17.009 100.763 17.009C100.162 17.2471 99.9658 17.619 99.9658 17.619C99.8094 17.8072 99.7094 18.1183 99.6647 18.5508L99.6335 18.7474C99.3111 18.7573 99.1061 18.5614 98.9998 18.0729C99.0142 18.0705 99.0295 18.0675 99.043 18.0645L99.4369 17.7223C99.8512 17.3602 99.9136 16.9883 99.6539 16.3873C99.4681 16.0604 99.3786 15.6809 99.3853 15.2484L99.6647 15.4555L99.3853 14.7521L99.3642 14.6375L99.3126 14.5858L98.9505 14.9487V15.3523C98.9323 15.747 99.0331 16.3146 99.2502 16.7698C99.4059 17.1636 99.3951 17.5362 99.3951 17.5362C99.4066 17.7724 99.0751 17.7965 98.4003 17.6085C97.1802 17.3482 96.4199 17.1273 96.1215 16.9466C95.5889 16.5764 95.9144 15.9223 97.0746 15.611L97.0854 15.5489C96.2643 15.728 95.7285 16.0255 95.4788 16.439C95.2923 16.8533 95.2923 17.2366 95.8318 17.443C95.9425 17.5121 96.4607 17.6638 97.3859 17.8991C98.0869 18.0744 98.5543 18.1426 98.9664 18.078L98.9505 18.1054C98.5771 18.9552 98.8565 19.5031 100.463 19.3992C100.936 19.3127 101.386 19.186 101.815 19.0213L101.789 19.0684C101.612 19.7429 101.726 20.174 102.131 20.3622C102.606 20.501 102.978 20.3181 103.25 19.8135L103.519 19.3992C103.519 19.3992 103.674 19.1617 103.727 19.3788C103.822 19.7924 104.089 20.0518 104.555 19.8856C104.794 19.7513 104.859 19.6246 105.021 19.3992L105.323 18.9759C105.55 19.2854 105.843 19.3809 106.088 19.3271C106.088 19.3271 106.431 19.2845 106.41 18.7163L106.347 18.2299C106.347 18.2299 106.285 17.8163 105.861 17.9097ZM108.062 15.1953C108.079 15.2697 108.162 15.3699 108.498 15.4792L108.476 15.4246C108.476 15.4246 108.016 15.206 108.341 15.1733C108.341 15.1733 108.465 15.1301 108.655 15.2174L109.269 15.4792C108.957 15.2607 108.621 15.1082 108.441 15.0535C108.441 15.0535 108.095 14.9449 108.062 15.1953ZM104.573 11.9096L104.029 11.7949L103.875 12.3725L104.441 12.5289L104.573 11.9096ZM99.5909 19.7264L99.5182 19.737L99.3945 19.9024L101.042 19.8402C101.178 19.7787 101.198 19.6541 101.198 19.6541L100.751 19.6649L99.5909 19.7264ZM96.3286 14.6375C96.3286 14.6375 96.6702 14.5345 96.3598 14.2034C96.3598 14.2034 95.7687 13.6967 95.5928 13.8104L95.6139 13.872C95.6139 13.872 95.9257 14.2658 95.6246 14.3067C95.6246 14.3067 95.365 14.3067 95.1479 14.152C94.5289 13.6723 94.1273 13.3308 93.9459 13.1268C93.9459 13.1268 93.7904 13.0752 93.842 13.22L94.0083 13.3961C94.2464 13.6442 94.7231 14.1307 95.4583 14.5132C95.4583 14.5132 95.7597 14.7006 96.3286 14.6375ZM95.4994 15.6962C95.4583 15.8001 95.6868 15.7788 95.6868 15.7788C95.9873 15.6552 95.8318 15.3964 95.8318 15.3964C95.7489 15.2721 95.3445 15.3129 95.3445 15.3129L94.9924 15.3235C95.1768 15.2196 95.3566 15.0679 95.5304 14.8683C95.6549 14.7134 95.4067 14.7339 95.4067 14.7339H95.22C95.0129 14.7134 95.0752 14.8888 95.0752 14.8888C95.1161 15.0025 94.9924 15.1163 94.9924 15.1163L94.651 15.303C94.4536 15.3859 94.7853 15.4375 94.7853 15.4375L95.4788 15.4267C95.7066 15.4168 95.4994 15.6962 95.4994 15.6962ZM107 16.8641L105.197 15.3835C105.197 15.3835 105.001 15.2484 105.094 15.1658L105.447 15.1559L105.415 15.083L104.99 14.8864L104.079 14.5345L104.224 15.0421L104.266 15.0938L104.348 15.083L104.482 15.1658L104.731 15.3729L105.571 16.0976L106.181 16.6152L106.834 17.1327C106.834 17.1327 107.632 17.7746 107.726 18.0441C107.742 17.6722 107.487 17.2792 107 16.8641ZM97.9716 18.6032L98.1682 18.5418C98.2925 18.4377 98.1265 18.3239 98.1265 18.3239C97.9716 18.1897 97.7539 18.2413 97.7539 18.2413C97.6089 18.2413 97.5876 18.3551 97.5876 18.3551C97.8002 18.3339 97.9245 18.3756 97.9611 18.4795L97.92 18.5107C97.7227 18.5107 97.536 18.5935 97.536 18.5935C97.3039 18.6625 97.2871 18.966 97.4738 19.0594C97.7797 19.2528 98.1316 19.2975 98.5302 19.1936C98.0688 19.1132 97.7819 19.0129 97.6705 18.8931C97.4526 18.6025 97.9716 18.6032 97.9716 18.6032ZM94.2671 12.6093C94.4635 12.5583 94.4742 12.4643 94.4742 12.4643L94.3602 12.4127C94.2671 12.3293 94.4635 12.3299 94.4635 12.3299C94.5577 12.3079 94.7057 12.3179 94.9098 12.3611L94.9401 12.3056L94.9098 12.4127L94.9408 12.5061L95.0236 12.6093L95.0849 12.6928L95.1578 12.7238L95.2308 12.7033L95.189 12.6093L95.1062 12.5274C95.1479 12.3095 95.3028 12.3611 95.3028 12.3611C95.2512 12.4643 95.3028 12.8066 95.3028 12.8066C95.4271 13.0956 95.5616 13.1473 96.1011 13.1578C96.6141 13.1525 96.9662 13.2148 97.1574 13.3437L97.1787 13.2923C96.847 12.9401 95.9251 12.9924 95.9251 12.9924C95.3346 12.9408 95.5304 12.4848 95.5304 12.4848C95.6442 12.0189 95.4271 12.0711 95.4271 12.0711L95.3134 12.081L95.1783 12.1228L95.0752 12.1638L94.9582 12.2617C94.8696 12.0675 94.4635 11.9156 94.4635 11.9156C94.1948 11.7814 94.1122 11.5841 94.2981 11.543L94.3701 11.4914C94.3701 11.254 94.1114 11.3155 94.1114 11.3155C93.7799 11.5217 94.1114 11.8018 94.1114 11.8018L94.2875 11.9573L94.5887 12.1638H94.2359C93.9036 12.1335 93.8732 12.3611 93.8732 12.3611C93.9246 12.6607 94.2671 12.6093 94.2671 12.6093ZM107.819 8.83103V8.87275C108.128 9.29393 108.466 9.53894 108.834 9.60798C108.967 9.63165 109.088 9.63832 109.197 9.62841C109.197 9.62841 109.218 9.1625 108.845 8.71724C108.845 8.71724 108.72 8.65572 108.368 8.614C108.585 8.96309 108.678 9.23628 108.648 9.43202L107.819 8.83103ZM106.483 6.98846C106.503 6.89897 106.773 6.81251 107.27 6.68881C106.773 6.68881 106.472 6.81251 106.306 6.98846C106.13 7.25411 106.233 7.32015 106.607 7.26852L106.67 7.17517H106.41C106.389 7.05084 106.483 6.98846 106.483 6.98846ZM106.036 5.82906L106.141 5.85035C106.347 5.90198 106.171 6.10912 106.171 6.10912L105.996 6.16073L105.923 5.91251C105.932 5.88132 105.97 5.85401 106.036 5.82906ZM103.219 7.99321L103.809 6.45349C104.191 6.55373 104.871 6.51114 105.85 6.3268L105.954 6.57502L106.109 6.52341L106.036 6.20248C106.317 6.18182 106.431 6.05749 106.452 5.83959C106.391 5.69849 106.232 5.66815 105.974 5.74624C105.974 5.74624 105.757 5.80776 105.767 5.99511L105.829 6.2442C105.291 6.36401 104.756 6.44985 103.811 6.4505L103.934 6.12956C103.934 6.12956 103.974 5.90111 104.099 6.01577L104.203 6.25389L104.361 4.91679C104.361 4.91679 104.079 5.07405 103.923 5.36379C103.819 5.55286 103.678 5.85938 103.498 6.28507C103.001 7.78607 102.649 8.59356 102.4 8.79984C102.836 8.60474 103.109 8.33543 103.219 7.99321ZM107.717 12.4355C107.636 12.3611 107.352 12.3686 106.93 12.3731L107.323 12.1144C107.551 11.9285 107.635 11.7526 107.635 11.7526C107.334 11.6485 107.271 11.773 107.271 11.773C107.168 11.7631 107.23 12.0113 107.23 12.0113L106.805 12.2905L106.702 12.3527V12.4043L107.531 12.4673C107.695 12.4499 107.769 12.6532 107.582 12.8285C107.945 12.9014 107.935 12.4673 107.717 12.4355ZM100.076 16.0391L100.459 15.5937L100.573 15.4495L100.635 15.4381L100.707 15.47L100.728 15.5315L100.738 15.6044L100.79 15.6248L100.821 15.6044L100.863 15.5216L100.873 15.4183L100.852 15.3144C100.686 15.1385 100.542 15.3766 100.542 15.3766L100.159 15.832C100.204 15.5549 100.201 15.3198 100.169 15.149C100.055 14.932 99.9211 15.1596 99.9211 15.1596C99.8058 15.2318 99.8998 15.3349 99.8998 15.3349L99.9514 15.3661L100.014 15.4183L100.065 15.4495L100.076 15.5216L100.035 15.9875L100.076 16.0391ZM106.1 9.89257L106.059 10.4413L106.613 10.5428L106.702 9.913L106.1 9.89257ZM108.917 13.4994C108.419 11.6577 107.98 10.3578 107.664 9.61788C107.477 9.10185 107.221 9.00183 106.896 9.31823C106.896 9.31823 107.021 9.44258 107.135 9.35911C107.135 9.35911 107.227 9.15283 107.352 9.32878C107.829 10.1658 108.378 12.009 108.803 13.4787L108.917 13.4994ZM105.083 7.25799L105.323 7.26852C105.323 7.26852 105.736 7.07128 105.809 7.08117C105.809 7.08117 105.529 6.96802 105.074 7.1031C105.074 7.1031 104.576 7.2268 104.451 7.47566C104.451 7.47566 104.4 7.65097 104.586 7.71313L104.876 7.87942C104.876 7.87942 104.98 7.99321 104.834 8.04482C104.627 8.1085 104.262 8.05321 103.654 7.87942L103.644 7.93103C104.02 8.23519 104.358 8.32854 104.659 8.21111L105.477 7.79595L105.063 7.50599C105.063 7.50599 104.876 7.33068 105.083 7.25799ZM109.185 10.719L108.76 10.9982L108.667 11.0498V11.1021L109.486 11.175C109.649 11.1582 109.724 11.3608 109.538 11.537C109.9 11.6097 109.889 11.175 109.672 11.1432C109.59 11.0687 109.307 11.0763 108.884 11.0817L109.278 10.8222C109.506 10.637 109.589 10.4609 109.589 10.4609C109.29 10.3578 109.227 10.4815 109.227 10.4815C109.123 10.4708 109.185 10.719 109.185 10.719ZM100.783 8.48945L100.918 8.63442C100.918 8.63442 101.137 8.81059 101.002 8.99645C101.002 8.99645 100.815 9.21412 100.515 9.42127C100.515 9.42127 100.193 9.56625 100.142 9.28704C100.114 9.02376 100.262 8.71037 100.587 8.34532L100.783 8.48945ZM97.5285 6.53546C97.5687 6.55224 97.6135 6.54686 97.6135 6.54686C98.3594 7.355 99.7268 7.93103 99.7268 7.93103L100.379 8.26187C100.1 8.56237 100.059 8.90374 100.059 8.90374C99.9977 9.26511 99.9871 9.54497 100.028 9.74243C100.153 10.1558 100.515 9.95945 100.515 9.95945C100.96 9.78415 101.136 9.29759 101.136 9.29759C101.172 9.0898 101.186 8.85533 101.178 8.59356C101.126 8.21111 100.815 7.99321 100.815 7.99321C101.54 7.13344 102.328 6.22291 102.991 5.19837L103.12 4.56641C102.85 5.02155 102.321 5.72516 101.553 6.66451L100.604 7.78756C100.439 7.62214 99.5713 7.32015 99.5713 7.32015C98.9497 7.07191 98.4117 6.66839 98.4117 6.66839L98.2874 6.55438L98.7116 6.52341C98.7116 6.52341 98.2775 6.22055 97.8942 6.10074C97.5111 5.9807 97.3631 5.86023 97.3745 5.97467C97.3859 6.08933 97.4595 6.455 97.4595 6.455C97.4595 6.455 97.4889 6.51804 97.5285 6.53546ZM101.385 15.5915L101.375 15.9533C101.375 15.9533 101.219 16.0983 101.157 15.9329L101.168 15.8503L101.199 15.5087H101.116L101.105 15.6324V15.7365L101.084 15.892L101.074 16.037C101.074 16.1895 101.147 16.2273 101.292 16.1499L101.344 16.0877L101.405 16.14L101.489 16.2024L101.581 16.1811L101.633 16.1295L101.675 16.037L101.685 15.5498L101.612 15.6324L101.602 15.9436C101.602 15.9436 101.561 16.0673 101.447 15.9746L101.468 15.5708L101.385 15.5915ZM102.229 15.6195L102.406 15.5777L102.561 15.5261L102.665 15.4951L102.737 15.4328V15.4018L102.582 15.4435L102.354 15.4951L102.22 15.5369L102.075 15.5678H101.94L101.898 15.6924L102.075 15.6507L102.229 15.6195ZM109.471 13.4394C109.212 13.4598 109.284 13.0881 109.284 13.0881C109.396 13.038 109.53 13.069 109.689 13.1806L109.471 13.4394ZM109.658 13.0881L109.491 13.0053C109.243 12.9219 109.139 13.0053 109.139 13.0053C109.067 13.2088 109.126 13.3673 109.316 13.4811C109.502 13.6153 109.617 13.5123 109.617 13.5123L109.793 13.3256L109.824 13.3157L109.927 13.2845L109.658 13.0881ZM99.0127 6.25389L99.0022 6.02717C98.7843 5.85099 99.0848 5.757 99.0848 5.757C99.9863 5.27044 101.489 4.72192 101.489 4.72192L101.55 4.56641C101.022 4.7318 99.8785 5.22568 98.9914 5.64321C98.7017 5.78797 98.7107 6.05513 99.0127 6.25389ZM100.607 6.48167L100.711 6.29561L100.379 6.46125C100.379 6.46125 100.038 6.6372 99.9553 6.38831C99.9553 6.38831 99.997 6.16073 100.131 6.19172C100.131 6.19172 100.256 6.17129 100.297 6.3268C100.297 6.3268 100.379 6.17042 100.317 6.01577C100.317 6.01577 100.184 5.88132 100.017 6.07793L99.8512 6.35712C99.8512 6.35712 99.726 6.56427 99.9136 6.6159L99.9766 6.62665L99.8824 6.88542L100.607 6.48167ZM102.162 16.8641L102.483 16.5734L102.908 16.9884L103.286 16.5408L102.783 16.106L102.525 16.4596L101.993 15.992L101.668 16.4261L102.162 16.8641ZM101.871 5.58082C101.871 5.58082 101.975 5.52919 102.058 5.39499C102.058 5.39499 102.141 5.19837 102.006 5.08458L101.862 4.99123L101.779 5.1263L101.882 5.21903C101.882 5.21903 102.058 5.38443 101.851 5.4565C101.851 5.4565 101.602 5.51866 101.644 5.32205C101.643 5.09685 101.726 4.90713 101.893 4.75289C101.893 4.75289 101.489 5.01251 101.53 5.47778C101.53 5.47778 101.53 5.77744 101.871 5.58082Z" fill="#BD9E55"/>
</svg>
