<svg width="128" height="48" viewBox="0 0 128 48" fill="none" xmlns="http://www.w3.org/2000/svg">
<path d="M89.9333 12.4713C87.3993 15.0031 87.3993 19.1103 89.9333 21.6454C92.4608 24.175 96.5615 24.175 99.0998 21.6454C101.631 19.1157 101.631 15.0031 99.0998 12.4713C96.5626 9.94055 92.4608 9.94055 89.9333 12.4713ZM89.4013 11.9447C92.2233 9.11738 96.8001 9.11738 99.6264 11.9447C102.448 14.7678 102.448 19.3489 99.6264 22.1762C96.799 24.9982 92.2233 24.9982 89.4013 22.1698C86.5804 19.35 86.5804 14.7688 89.4013 11.9458" fill="#6D91B2"/>
<path d="M90.9869 13.5368C89.0375 15.4841 89.0375 18.6424 90.9869 20.5917C92.9331 22.5433 96.0935 22.5433 98.0397 20.5971C99.9912 18.6424 99.9912 15.4841 98.0397 13.5379C96.0935 11.5853 92.9331 11.5842 90.9869 13.5368ZM89.9327 12.4762C92.4602 9.94544 96.561 9.94544 99.0971 12.4762C101.629 15.008 101.629 19.1206 99.0971 21.6502C96.561 24.1799 92.4602 24.1799 89.9327 21.6502C87.3987 19.1163 87.3987 15.008 89.9327 12.4762Z" fill="#6D91B2"/>
<path d="M91.4044 13.9491C89.685 15.6599 89.685 18.4518 91.4044 20.1744C93.1184 21.8842 95.9049 21.8842 97.6232 20.1744C99.3426 18.4507 99.3426 15.6599 97.6232 13.9491C95.9049 12.2212 93.1195 12.2212 91.4044 13.9491ZM90.9874 13.5311C92.9336 11.5764 96.094 11.5796 98.0402 13.5322C99.9917 15.4773 99.9917 18.6367 98.0402 20.5914C96.094 22.5375 92.9336 22.5375 90.9874 20.586C89.038 18.6367 89.038 15.4783 90.9874 13.5311Z" fill="#6D91B2"/>
<path d="M95.5932 18.1414C93.0646 20.6711 88.9509 20.6711 86.4299 18.1414C83.8991 15.6096 83.8991 11.5046 86.4299 8.96846C88.9509 6.43557 93.0646 6.43557 95.5932 8.96846C98.1261 11.5046 98.1261 15.6096 95.5932 18.1414ZM96.1208 18.6691C98.9439 15.8504 98.9439 11.2682 96.1208 8.44834C93.2967 5.61241 88.7177 5.61241 85.8958 8.43974C83.0738 11.2682 83.0738 15.8418 85.8958 18.6691C88.7177 21.4921 93.2956 21.4921 96.1208 18.6691Z" fill="#002A52"/>
<path d="M94.5384 17.0901C92.5944 19.0374 89.4339 19.0374 87.4846 17.0901C85.5363 15.1418 85.5363 11.9857 87.4846 10.0374C89.4339 8.08693 92.5944 8.08693 94.5384 10.0374C96.491 11.9857 96.491 15.1418 94.5384 17.0901ZM95.5926 18.1508C98.1255 15.619 98.1255 11.5139 95.5926 8.97779C93.0651 6.4449 88.9504 6.4449 86.4293 8.97779C83.8986 11.5139 83.8986 15.619 86.4293 18.1508C88.9504 20.6805 93.0651 20.6805 95.5926 18.1508Z" fill="#002A52"/>
<path d="M94.1202 16.6665C92.3997 18.3838 89.6122 18.3838 87.8992 16.6665C86.1798 14.9493 86.1798 12.1595 87.8992 10.4369C89.6122 8.72181 92.3997 8.72181 94.1202 10.4369C95.8417 12.1595 95.8417 14.9493 94.1202 16.6665ZM94.5382 17.0781C96.4908 15.1319 96.4908 11.9736 94.5382 10.0253C92.5942 8.07489 89.4338 8.07489 87.4855 10.0253C85.5361 11.9736 85.5361 15.1319 87.4855 17.0781C89.4338 19.0232 92.5942 19.0232 94.5382 17.0781Z" fill="#002A52"/>
<mask id="mask0_4361_26289" style="mask-type:luminance" maskUnits="userSpaceOnUse" x="90" y="6" width="12" height="12">
<path d="M95.0962 6L90.2056 10.8917L96.6168 17.304L101.511 12.4144L95.0962 6Z" fill="white"/>
</mask>
<g mask="url(#mask0_4361_26289)">
<path d="M89.9323 12.4674C87.3983 14.9992 87.3983 19.1064 89.9323 21.6414C92.4598 24.1711 96.5606 24.1711 99.0988 21.6414C101.63 19.1118 101.63 14.9992 99.0988 12.4674C96.5616 9.93664 92.4598 9.93664 89.9323 12.4674ZM89.4003 11.9408C92.2223 9.11348 96.7991 9.11348 99.6254 11.9408C102.447 14.7639 102.447 19.345 99.6254 22.1723C96.7981 24.9943 92.2223 24.9943 89.4003 22.1659C86.5794 19.3461 86.5794 14.7649 89.4003 11.9419" fill="#6D91B2"/>
<path d="M90.9874 13.5212C89.038 15.4684 89.038 18.6267 90.9874 20.5761C92.9335 22.5276 96.094 22.5276 98.0402 20.5815C99.9917 18.6267 99.9917 15.4684 98.0402 13.5223C96.094 11.5697 92.9335 11.5686 90.9874 13.5212ZM89.9332 12.4606C92.4607 9.92981 96.5615 9.92981 99.0976 12.4606C101.629 14.9924 101.629 19.105 99.0976 21.6346C96.5615 24.1643 92.4607 24.1643 89.9332 21.6346C87.3992 19.1007 87.3992 14.9924 89.9332 12.4606Z" fill="#6D91B2"/>
<path d="M91.4034 13.9452C89.684 15.656 89.684 18.4479 91.4034 20.1705C93.1174 21.8803 95.9039 21.8803 97.6222 20.1705C99.3416 18.4468 99.3416 15.656 97.6222 13.9452C95.9039 12.2172 93.1185 12.2172 91.4034 13.9452ZM90.9864 13.5272C92.9326 11.5725 96.0931 11.5757 98.0392 13.5283C99.9907 15.4734 99.9907 18.6328 98.0392 20.5875C96.0931 22.5336 92.9326 22.5336 90.9864 20.5821C89.0371 18.6328 89.0371 15.4744 90.9864 13.5272Z" fill="#6D91B2"/>
</g>
<path d="M53.3184 18.5753H54.1319L54.2426 18.8912C54.2426 18.8912 54.3135 18.8912 54.3135 22.3558C54.3049 22.963 54.1319 23.4799 53.7708 23.8829C53.4033 24.303 52.9036 24.5115 52.2921 24.5115H50.6479V23.5143H52.3061C52.6048 23.5143 52.8423 23.4036 53.0261 23.1768C53.2163 22.9469 53.3076 22.6685 53.3076 22.3397L53.3173 18.5742L53.3184 18.5753Z" fill="#6D91B2"/>
<path d="M53.3184 18.5753H54.1319L54.2426 18.8912C54.2426 18.8912 54.3135 18.8912 54.3135 22.3558C54.3049 22.963 54.1319 23.4799 53.7708 23.8829C53.4033 24.303 52.9036 24.5115 52.2921 24.5115H50.6479V23.5143H52.3061C52.6048 23.5143 52.8423 23.4036 53.0261 23.1768C53.2163 22.9469 53.3076 22.6685 53.3076 22.3397L53.3173 18.5742L53.3184 18.5753Z" stroke="#6D91B2" stroke-width="0.29" stroke-miterlimit="3.86"/>
<path d="M51.5587 20.2812H52.5645V22.6691C52.5645 23.0806 52.3679 23.3633 52.1777 23.5309C52.0906 23.6158 51.9993 23.6738 51.9284 23.7115C51.8531 23.7491 51.5651 23.8554 51.5651 23.8554L51.5576 20.2812H51.5587Z" fill="#6D91B2"/>
<path d="M51.5587 20.2812H52.5645V22.6691C52.5645 23.0806 52.3679 23.3633 52.1777 23.5309C52.0906 23.6158 51.9993 23.6738 51.9284 23.7115C51.8531 23.7491 51.5651 23.8554 51.5651 23.8554L51.5576 20.2812H51.5587Z" stroke="#6D91B2" stroke-width="0.29" stroke-miterlimit="3.86"/>
<path d="M56.2032 18.5703H55.2017V24.513H56.2032V18.5703Z" fill="#6D91B2"/>
<path d="M56.2032 18.5703H55.2017V24.513H56.2032V18.5703Z" stroke="#6D91B2" stroke-width="0.29" stroke-miterlimit="3.86"/>
<path d="M51.6607 18.7805C51.7768 18.6441 51.9358 18.5742 52.1185 18.5742H52.7719V18.9439H52.1185C52.0519 18.9439 51.996 18.9729 51.9401 19.0417C51.8971 19.1115 51.8681 19.19 51.8681 19.2641C51.8681 19.3576 51.8971 19.4307 51.9401 19.4973C51.9885 19.5607 52.0487 19.5822 52.1271 19.5822L52.9062 19.5908V19.9497H51.5898L51.5371 19.9465C51.4232 19.9347 51.3469 19.8681 51.2997 19.8154C51.2792 19.7885 51.262 19.7617 51.2459 19.7434L51.1836 19.5833H51.549L51.5178 19.4769C51.5006 19.4103 51.4952 19.3447 51.4952 19.2663C51.4952 19.0857 51.5511 18.9245 51.6618 18.7838" fill="#6D91B2"/>
<path d="M51.6607 18.7805C51.7768 18.6441 51.9358 18.5742 52.1185 18.5742H52.7719V18.9439H52.1185C52.0519 18.9439 51.996 18.9729 51.9401 19.0417C51.8971 19.1115 51.8681 19.19 51.8681 19.2641C51.8681 19.3576 51.8971 19.4307 51.9401 19.4973C51.9885 19.5607 52.0487 19.5822 52.1271 19.5822L52.9062 19.5908V19.9497H51.5898L51.5371 19.9465C51.4232 19.9347 51.3469 19.8681 51.2997 19.8154C51.2792 19.7885 51.262 19.7617 51.2459 19.7434L51.1836 19.5833H51.549L51.5178 19.4769C51.5006 19.4103 51.4952 19.3447 51.4952 19.2663C51.4952 19.0857 51.5511 18.9245 51.6618 18.7838L51.6607 18.7805Z" stroke="#6D91B2" stroke-width="0.29" stroke-miterlimit="3.86"/>
<path d="M73.0805 22.4989C73.0805 23.0974 72.8752 23.6025 72.4454 23.9732C72.0585 24.3236 71.5696 24.4955 71.0011 24.5138H69.819C69.4128 24.5138 69.1345 24.3236 68.9636 24.1398C68.8809 24.042 68.8175 23.9528 68.7831 23.8841C68.739 23.8088 68.6348 23.5155 68.6348 23.5155H70.9259C71.2526 23.5122 71.5255 23.4209 71.7565 23.2328C71.9736 23.0544 72.0865 22.8105 72.0865 22.5053V21.1094H73.0826V22.4989H73.0805Z" fill="#6D91B2"/>
<path d="M73.0805 22.4989C73.0805 23.0974 72.8752 23.6025 72.4454 23.9732C72.0585 24.3236 71.5696 24.4955 71.0011 24.5138H69.819C69.4128 24.5138 69.1345 24.3236 68.9636 24.1398C68.8809 24.042 68.8175 23.9528 68.7831 23.8841C68.739 23.8088 68.6348 23.5155 68.6348 23.5155H70.9259C71.2526 23.5122 71.5255 23.4209 71.7565 23.2328C71.9736 23.0544 72.0865 22.8105 72.0865 22.5053V21.1094H73.0826V22.4989H73.0805Z" stroke="#6D91B2" stroke-width="0.29" stroke-miterlimit="3.86"/>
<path d="M72.3427 25.6446C72.3427 26.0024 72.0536 26.3012 71.6861 26.3012C71.3186 26.3012 71.0273 26.0014 71.0273 25.6446C71.0273 25.2878 71.3164 24.9805 71.6861 24.9805C72.0558 24.9805 72.3427 25.2803 72.3427 25.6446Z" fill="#6D91B2"/>
<path d="M72.3427 25.6446C72.3427 26.0024 72.0536 26.3012 71.6861 26.3012C71.3186 26.3012 71.0273 26.0014 71.0273 25.6446C71.0273 25.2878 71.3164 24.9805 71.6861 24.9805C72.0558 24.9805 72.3427 25.2803 72.3427 25.6446Z" stroke="#6D91B2" stroke-width="0.29" stroke-miterlimit="3.86"/>
<path d="M65.2611 24.0032C64.9022 24.3482 64.4401 24.5137 63.8974 24.5137H59.5806C58.9885 24.5137 58.4985 24.2966 58.1288 23.8571C57.772 23.4261 57.6001 22.9114 57.6001 22.3182C57.6001 21.725 57.772 21.1952 58.1299 20.7783C58.5028 20.3581 59.0057 20.1496 59.6161 20.1496H60.7767V21.1436H59.6043C59.2959 21.1436 59.0627 21.2608 58.8778 21.4886C58.6876 21.7186 58.5909 21.9958 58.5909 22.3171C58.5909 22.6384 58.6876 22.8953 58.8853 23.1586C59.0756 23.4036 59.3109 23.5143 59.5796 23.5143H63.9071C64.2123 23.5143 64.4433 23.4036 64.6271 23.1768C64.8226 22.9469 64.9161 22.6685 64.9161 22.3397V18.5742H65.7415L65.8425 18.8902C65.8425 18.8902 65.9155 18.8902 65.9155 22.3547C65.9155 22.7943 65.8167 23.1811 65.6383 23.5132H67.3244C67.6468 23.51 67.9229 23.4176 68.1518 23.2306C68.3678 23.0522 68.4796 22.8082 68.4796 22.503V21.1071H69.4768V22.4966C69.4768 23.0952 69.2748 23.5949 68.8503 23.9656C68.4527 24.3213 67.967 24.4933 67.3985 24.5115H66.2186C65.7146 24.5115 65.4126 24.2332 65.2622 24.0011" fill="#6D91B2"/>
<path d="M65.2611 24.0032C64.9022 24.3482 64.4401 24.5137 63.8974 24.5137H59.5806C58.9885 24.5137 58.4985 24.2966 58.1288 23.8571C57.772 23.4261 57.6001 22.9114 57.6001 22.3182C57.6001 21.725 57.772 21.1952 58.1299 20.7783C58.5028 20.3581 59.0057 20.1496 59.6161 20.1496H60.7767V21.1436H59.6043C59.2959 21.1436 59.0627 21.2608 58.8778 21.4886C58.6876 21.7186 58.5909 21.9958 58.5909 22.3171C58.5909 22.6384 58.6876 22.8953 58.8853 23.1586C59.0756 23.4036 59.3109 23.5143 59.5796 23.5143H63.9071C64.2123 23.5143 64.4433 23.4036 64.6271 23.1768C64.8226 22.9469 64.9161 22.6685 64.9161 22.3397V18.5742H65.7415L65.8425 18.8902C65.8425 18.8902 65.9155 18.8902 65.9155 22.3547C65.9155 22.7943 65.8167 23.1811 65.6383 23.5132H67.3244C67.6468 23.51 67.9229 23.4176 68.1518 23.2306C68.3678 23.0522 68.4796 22.8082 68.4796 22.503V21.1071H69.4768V22.4966C69.4768 23.0952 69.2748 23.5949 68.8503 23.9656C68.4527 24.3213 67.967 24.4933 67.3985 24.5115H66.2186C65.7146 24.5115 65.4126 24.2332 65.2622 24.0011L65.2611 24.0032Z" stroke="#6D91B2" stroke-width="0.29" stroke-miterlimit="3.86"/>
<path d="M44.0537 20.6676V20.1485H47.9051C48.4951 20.1485 48.9851 20.3645 49.3559 20.8084C49.7116 21.2371 49.89 21.7487 49.89 22.3386C49.89 22.9286 49.7116 23.4713 49.3559 23.8818C48.983 24.302 48.479 24.5104 47.8697 24.5104H41.6078C41.1006 24.5104 40.8008 24.2181 40.6439 24C40.285 24.3439 39.8272 24.5104 39.2759 24.5104H37.5683V21.8271C37.5683 21.5477 37.4544 21.3199 37.203 21.1243C36.944 20.9362 36.671 20.8406 36.368 20.8406C36.0381 20.8406 35.763 20.9362 35.5373 21.12C35.3116 21.3081 35.1977 21.5413 35.1977 21.8475V24.5104H28.0149C27.4067 24.5104 26.8984 24.3009 26.5352 23.8818C26.1741 23.4724 26 22.949 26 22.3386C26 21.7282 26.1741 21.2371 26.5352 20.8084C26.893 20.3645 27.3906 20.1485 27.9891 20.1485H30.5467V21.1426H27.9891C27.714 21.1426 27.4841 21.2597 27.2831 21.5101C27.0886 21.7691 26.9919 22.042 26.9919 22.3397C26.9919 22.6685 27.0918 22.9436 27.2831 23.1768C27.4626 23.4025 27.6968 23.5153 28.0063 23.5153H34.194V21.8604C34.194 21.2457 34.4014 20.745 34.8248 20.3721C35.2385 20.0217 35.7533 19.8391 36.3658 19.8391C36.9784 19.8391 37.4781 20.0207 37.9025 20.3721C38.3442 20.7428 38.5645 21.2296 38.5645 21.8282V23.5153H39.2877C39.5929 23.5153 39.8261 23.4025 40.012 23.1768C40.2022 22.9469 40.2914 22.6685 40.2914 22.3397L40.2947 18.5742H41.1146L41.2274 18.8837C41.2274 18.8837 41.2984 18.8902 41.2984 22.3547C41.2919 22.7943 41.1973 23.1811 41.0093 23.5153H42.8018C42.6309 23.2316 42.5374 22.8878 42.5374 22.503C42.5374 22.0517 42.6803 21.639 42.9672 21.2694C43.266 20.9072 43.6228 20.6977 44.0526 20.6676M45.7387 22.2C45.7387 21.9819 45.6635 21.8271 45.5087 21.6982C45.3443 21.5692 45.1552 21.5004 44.9241 21.5004H44.5652C44.2654 21.509 44.0086 21.5971 43.7786 21.7895C43.5561 21.9786 43.4433 22.215 43.4433 22.502C43.4433 22.8254 43.5561 23.0597 43.7721 23.2413C43.9871 23.4165 44.2503 23.5067 44.5856 23.5067H45.7376V22.1989L45.7387 22.2ZM46.1428 21.1426C46.3405 21.3349 46.4684 21.5692 46.5243 21.8432C46.5511 21.9281 46.5543 22.0184 46.5619 22.1205C46.5619 22.1452 46.5705 22.1785 46.5705 22.2161V23.5153H47.8751C48.1835 23.5153 48.4156 23.4025 48.6004 23.1768C48.7906 22.9469 48.8884 22.6685 48.8884 22.3397C48.8884 22.042 48.7949 21.7616 48.6004 21.5101C48.4048 21.2597 48.1792 21.1426 47.9041 21.1426H46.1428Z" fill="#6D91B2"/>
<path d="M44.0537 20.6676V20.1485H47.9051C48.4951 20.1485 48.9851 20.3645 49.3559 20.8084C49.7116 21.2371 49.89 21.7487 49.89 22.3386C49.89 22.9286 49.7116 23.4713 49.3559 23.8818C48.983 24.302 48.479 24.5104 47.8697 24.5104H41.6078C41.1006 24.5104 40.8008 24.2181 40.6439 24C40.285 24.3439 39.8272 24.5104 39.2759 24.5104H37.5683V21.8271C37.5683 21.5477 37.4544 21.3199 37.203 21.1243C36.944 20.9362 36.671 20.8406 36.368 20.8406C36.0381 20.8406 35.763 20.9362 35.5373 21.12C35.3116 21.3081 35.1977 21.5413 35.1977 21.8475V24.5104H28.0149C27.4067 24.5104 26.8984 24.3009 26.5352 23.8818C26.1741 23.4724 26 22.949 26 22.3386C26 21.7282 26.1741 21.2371 26.5352 20.8084C26.893 20.3645 27.3906 20.1485 27.9891 20.1485H30.5467V21.1426H27.9891C27.714 21.1426 27.4841 21.2597 27.2831 21.5101C27.0886 21.7691 26.9919 22.042 26.9919 22.3397C26.9919 22.6685 27.0918 22.9436 27.2831 23.1768C27.4626 23.4025 27.6968 23.5153 28.0063 23.5153H34.194V21.8604C34.194 21.2457 34.4014 20.745 34.8248 20.3721C35.2385 20.0217 35.7533 19.8391 36.3658 19.8391C36.9784 19.8391 37.4781 20.0207 37.9025 20.3721C38.3442 20.7428 38.5645 21.2296 38.5645 21.8282V23.5153H39.2877C39.5929 23.5153 39.8261 23.4025 40.012 23.1768C40.2022 22.9469 40.2914 22.6685 40.2914 22.3397L40.2947 18.5742H41.1146L41.2274 18.8837C41.2274 18.8837 41.2984 18.8902 41.2984 22.3547C41.2919 22.7943 41.1973 23.1811 41.0093 23.5153H42.8018C42.6309 23.2316 42.5374 22.8878 42.5374 22.503C42.5374 22.0517 42.6803 21.639 42.9672 21.2694C43.266 20.9072 43.6228 20.6977 44.0526 20.6676H44.0537ZM45.7398 22.2C45.7398 21.9819 45.6646 21.8271 45.5098 21.6982C45.3454 21.5692 45.1563 21.5004 44.9252 21.5004H44.5663C44.2665 21.509 44.0096 21.5971 43.7797 21.7895C43.5572 21.9786 43.4444 22.215 43.4444 22.502C43.4444 22.8254 43.5572 23.0597 43.7732 23.2413C43.9881 23.4165 44.2514 23.5067 44.5867 23.5067H45.7387V22.1989L45.7398 22.2ZM46.1438 21.1426C46.3416 21.3349 46.4694 21.5692 46.5253 21.8432C46.5522 21.9281 46.5554 22.0184 46.5629 22.1205C46.5629 22.1452 46.5715 22.1785 46.5715 22.2161V23.5153H47.8761C48.1845 23.5153 48.4167 23.4025 48.6015 23.1768C48.7917 22.9469 48.8895 22.6685 48.8895 22.3397C48.8895 22.042 48.796 21.7616 48.6015 21.5101C48.4059 21.2597 48.1802 21.1426 47.9051 21.1426H46.1438Z" stroke="#6D91B2" stroke-width="0.29" stroke-miterlimit="3.86"/>
<path d="M66.6631 21.1882C66.6631 20.8293 66.9608 20.5273 67.3272 20.5273C67.6936 20.5273 67.9849 20.8293 67.9849 21.1882C67.9849 21.5472 67.6926 21.8524 67.3272 21.8524C66.9618 21.8524 66.6631 21.5525 66.6631 21.1882Z" fill="#6D91B2"/>
<path d="M66.6631 21.1882C66.6631 20.8293 66.9608 20.5273 67.3272 20.5273C67.6936 20.5273 67.9849 20.8293 67.9849 21.1882C67.9849 21.5472 67.6926 21.8524 67.3272 21.8524C66.9618 21.8524 66.6631 21.5525 66.6631 21.1882Z" stroke="#6D91B2" stroke-width="0.29" stroke-miterlimit="3.86"/>
<path d="M75.401 18.5753H76.2252L76.3295 18.8912C76.3295 18.8912 76.4026 18.8912 76.4026 22.3558C76.3983 22.963 76.222 23.4799 75.8674 23.8829C75.4988 24.303 74.9916 24.5115 74.3801 24.5115H72.7402V23.5143H74.3941C74.6993 23.5143 74.9303 23.4036 75.1184 23.1768C75.3064 22.9469 75.4053 22.6685 75.4053 22.3483L75.401 18.5742V18.5753Z" fill="#6D91B2"/>
<path d="M75.401 18.5753H76.2252L76.3295 18.8912C76.3295 18.8912 76.4026 18.8912 76.4026 22.3558C76.3983 22.963 76.222 23.4799 75.8674 23.8829C75.4988 24.303 74.9916 24.5115 74.3801 24.5115H72.7402V23.5143H74.3941C74.6993 23.5143 74.9303 23.4036 75.1184 23.1768C75.3064 22.9469 75.4053 22.6685 75.4053 22.3483L75.401 18.5742V18.5753Z" stroke="#6D91B2" stroke-width="0.29" stroke-miterlimit="3.86"/>
<path d="M78.3652 18.5703H77.3647V24.513H78.3652V18.5703Z" fill="#6D91B2"/>
<path d="M78.3652 18.5703H77.3647V24.513H78.3652V18.5703Z" stroke="#6D91B2" stroke-width="0.29" stroke-miterlimit="3.86"/>
<path d="M61.8469 20.3548C61.9651 20.2183 62.1187 20.1484 62.3089 20.1484H62.9591V20.516H62.3089C62.2391 20.516 62.1757 20.5439 62.1295 20.6137C62.0693 20.6814 62.0467 20.7599 62.0467 20.8405C62.0467 20.9351 62.079 21.0135 62.1295 21.064C62.1757 21.1253 62.2326 21.1554 62.3186 21.1554H63.0945V21.5261H61.7265C61.6061 21.5078 61.5309 21.4412 61.4847 21.3886C61.46 21.3638 61.4439 21.3391 61.4299 21.3155L61.3687 21.1554H61.7319L61.7007 21.0457C61.69 20.9845 61.6792 20.9146 61.6792 20.8416C61.6792 20.6567 61.7362 20.488 61.8469 20.3558" fill="#6D91B2"/>
<path d="M61.8469 20.3548C61.9651 20.2183 62.1187 20.1484 62.3089 20.1484H62.9591V20.516H62.3089C62.2391 20.516 62.1757 20.5439 62.1295 20.6137C62.0693 20.6814 62.0467 20.7599 62.0467 20.8405C62.0467 20.9351 62.079 21.0135 62.1295 21.064C62.1757 21.1253 62.2326 21.1554 62.3186 21.1554H63.0945V21.5261H61.7265C61.6061 21.5078 61.5309 21.4412 61.4847 21.3886C61.46 21.3638 61.4439 21.3391 61.4299 21.3155L61.3687 21.1554H61.7319L61.7007 21.0457C61.69 20.9845 61.6792 20.9146 61.6792 20.8416C61.6792 20.6567 61.7362 20.488 61.8469 20.3558V20.3548Z" stroke="#6D91B2" stroke-width="0.29" stroke-miterlimit="3.86"/>
<path d="M33.6151 25.6446C33.6151 26.0089 33.3175 26.3012 32.9564 26.3012C32.5953 26.3012 32.2891 26.0014 32.2891 25.6446C32.2891 25.2878 32.591 24.9805 32.9564 24.9805C33.3218 24.9805 33.6151 25.2749 33.6151 25.6446Z" fill="#6D91B2"/>
<path d="M33.6151 25.6446C33.6151 26.0089 33.3175 26.3012 32.9564 26.3012C32.5953 26.3012 32.2891 26.0014 32.2891 25.6446C32.2891 25.2878 32.591 24.9805 32.9564 24.9805C33.3218 24.9805 33.6151 25.2749 33.6151 25.6446Z" stroke="#6D91B2" stroke-width="0.29" stroke-miterlimit="3.86"/>
<path d="M31.9548 25.6446C31.9548 26.0089 31.6582 26.3012 31.2939 26.3012C30.9296 26.3012 30.6309 26.0014 30.6309 25.6446C30.6309 25.2878 30.9296 24.9805 31.2939 24.9805C31.6582 24.9805 31.9548 25.2749 31.9548 25.6446Z" fill="#6D91B2"/>
<path d="M31.9548 25.6446C31.9548 26.0089 31.6582 26.3012 31.2939 26.3012C30.9296 26.3012 30.6309 26.0014 30.6309 25.6446C30.6309 25.2878 30.9296 24.9805 31.2939 24.9805C31.6582 24.9805 31.9548 25.2749 31.9548 25.6446Z" stroke="#6D91B2" stroke-width="0.29" stroke-miterlimit="3.86"/>
<path d="M35.0858 39.7522C34.4657 40.1906 34.2712 40.2282 34.0853 40.2282C33.8102 40.2282 33.649 40.0627 33.649 39.6447V35.8126C33.649 33.9707 32.2047 33.2539 30.0855 33.2539C28.7584 33.2539 27.5333 33.6064 26.4404 34.2845V36.4348C27.2743 35.574 28.4865 35.027 29.5418 35.027C30.6927 35.027 31.0559 35.6439 31.0011 36.4348C27.4763 37.5266 26.002 37.9296 26.002 39.937C26.002 40.9987 27.0003 41.9992 28.3554 41.9992C29.2667 41.9992 30.1049 41.7434 31.1311 41.0482C31.3095 41.7262 31.7297 41.9992 32.6087 41.9992C33.318 41.9992 34.3615 41.6671 35.0879 41.233V39.7522H35.0858ZM31 39.7865C30.5659 40.1917 30.0307 40.426 29.5407 40.426C29.0507 40.426 28.6788 40.0316 28.6788 39.5308C28.6788 38.7012 29.4279 38.3304 30.999 37.7652V39.7865H31Z" fill="#002A52"/>
<path d="M38.5271 29.3917H35.8813V41.8391H38.5271V36.4692C39.1482 35.5762 39.6791 35.1882 40.2938 35.1882C41.1137 35.1882 41.6639 35.7803 41.6639 37.0334V41.838H44.3129V36.4681C44.3129 34.1856 42.7557 33.2528 41.2287 33.2528C40.1863 33.2528 39.333 33.6956 38.5636 34.6617H38.526V29.3906L38.5271 29.3917Z" fill="#002A52"/>
<path d="M48.846 29.3945H46.1992V41.8419H48.846V29.3945Z" fill="#002A52"/>
<path d="M53.4604 33.423H50.8083V41.8416H53.4604V33.423ZM52.1257 29.2266C51.323 29.2266 50.6621 29.881 50.6621 30.6881C50.6621 31.4951 51.323 32.1463 52.1257 32.1463C52.9285 32.1463 53.5905 31.4865 53.5905 30.6881C53.5905 29.8896 52.9339 29.2266 52.1257 29.2266Z" fill="#002A52"/>
<path d="M57.9792 29.3945H55.3335V41.8419H57.9792V41.2004C58.7067 41.7291 59.4901 42.002 60.3316 42.002C62.6345 42.002 64.254 40.1934 64.254 37.6068C64.254 35.0202 62.5754 33.2578 60.1467 33.2578C59.3289 33.2578 58.8207 33.4093 57.9792 33.8972V29.3956V29.3945ZM57.9792 35.6145C58.5971 35.1739 59.0001 35.0299 59.5106 35.0299C60.6078 35.0299 61.5728 35.7832 61.5728 37.5638C61.5728 39.3445 60.7894 40.231 59.5417 40.231C59.0162 40.231 58.538 40.0129 57.9781 39.5218V35.6145H57.9792Z" fill="#002A52"/>
<path d="M74.2693 39.7522C73.6504 40.1906 73.4494 40.2282 73.2667 40.2282C72.997 40.2282 72.8294 40.0627 72.8294 39.6447V35.8126C72.8294 33.9707 71.384 33.2539 69.2659 33.2539C67.9355 33.2539 66.7169 33.6064 65.6208 34.2845V36.4348C66.4622 35.574 67.6636 35.027 68.7232 35.027C69.8709 35.027 70.2406 35.6439 70.1858 36.4348C66.6578 37.5266 65.1855 37.9296 65.1855 39.937C65.1855 40.9987 66.1828 41.9992 67.539 41.9992C68.446 41.9992 69.2906 41.7434 70.3115 41.0482C70.491 41.7262 70.9111 41.9992 71.7913 41.9992C72.4962 41.9992 73.5397 41.6671 74.2693 41.233V39.7522ZM70.1847 39.7865C69.7452 40.1917 69.2175 40.426 68.7221 40.426C68.2267 40.426 67.8603 40.0316 67.8603 39.5308C67.8603 38.7012 68.6125 38.3304 70.1847 37.7652V39.7865Z" fill="#002A52"/>
<path d="M77.6697 33.4194H75.0239V41.838H77.6697V36.4176C78.3649 35.3709 78.8571 35.027 79.5126 35.027C80.2606 35.027 80.8269 35.5203 80.8269 36.7088V41.838H83.4705V36.4853C83.4705 34.0051 81.7264 33.2539 80.4089 33.2539C79.3332 33.2539 78.5079 33.659 77.6697 34.6208V33.4183V33.4194Z" fill="#002A52"/>
<path d="M88.029 29.3945H85.3779V41.8419H88.029V37.6949H88.0666L91.3303 41.8419H94.5789L91.1497 37.5864L94.4349 33.4222H91.3303L88.0666 37.5864H88.029V29.3945Z" fill="#002A52"/>
</svg>
