<?xml version="1.0" encoding="utf-8"?>
<!-- Generator: Adobe Illustrator 25.4.1, SVG Export Plug-In . SVG Version: 6.00 Build 0)  -->
<svg version="1.1" id="Layer_1" xmlns="http://www.w3.org/2000/svg" xmlns:xlink="http://www.w3.org/1999/xlink" x="0px" y="0px"
	 width="128px" height="48px" viewBox="0 0 128 48" style="enable-background:new 0 0 128 48;" xml:space="preserve">
<style type="text/css">
	.st0{clip-path:url(#SVGID_00000129183324519380277750000017234339531543374220_);}
	.st1{fill:#38D200;}
	.st2{fill:#0473EA;}
	.st3{fill:#525355;}
</style>
<g>
	<defs>
		<rect id="SVGID_1_" x="22" y="8" width="84" height="33"/>
	</defs>
	<clipPath id="SVGID_00000135652008034391822580000011494307066403028158_">
		<use xlink:href="#SVGID_1_"  style="overflow:visible;"/>
	</clipPath>
	<g style="clip-path:url(#SVGID_00000135652008034391822580000011494307066403028158_);">
		<path class="st1" d="M38.1,40.4l-13.8-9c0,0-1.7-1-2.1-2.8c-0.6-2.6,1.3-4.8,1.3-4.8l17.9,11.6c1.4,0.9,1.8,2.7,0.9,4.1
			C41.3,40.9,39.4,41.2,38.1,40.4L38.1,40.4z"/>
		<path class="st2" d="M25.1,21.8c0,0-2.1-1.3-2.1-4.2c0-2.9,2.1-4.2,2.1-4.2l7.5-4.9c0.7-0.4,1.5-0.6,2.2-0.4
			c0.8,0.2,1.4,0.6,1.9,1.3c0.4,0.7,0.6,1.5,0.4,2.2c-0.2,0.8-0.6,1.4-1.3,1.9l-6.3,4.1l10.8,7c0,0,1.9,1.1,2.3,3
			c0.5,2.6-1.3,4.8-1.3,4.8L25.1,21.8z M25,40.8c0.7,0,1.2-0.2,1.7-0.5l3.7-2.4l-3.7-2.4c-0.5-0.3-1-0.5-1.7-0.5
			c-0.4,0-0.8,0.1-1.1,0.2c-0.4,0.1-0.7,0.4-1,0.6c-0.3,0.3-0.5,0.6-0.6,1c-0.2,0.4-0.2,0.7-0.2,1.1c0,0.4,0.1,0.8,0.2,1.1
			c0.2,0.4,0.4,0.7,0.6,1c0.3,0.3,0.6,0.5,1,0.6C24.3,40.8,24.6,40.8,25,40.8z"/>
		<path class="st1" d="M39.2,14.7c-0.7,0-1.2,0.2-1.7,0.5l-3.7,2.4l3.7,2.4c0.5,0.3,1,0.5,1.7,0.5c0.4,0,0.8-0.1,1.1-0.2
			c0.4-0.1,0.7-0.4,1-0.6c0.3-0.3,0.5-0.6,0.6-1c0.1-0.4,0.2-0.7,0.2-1.1c0-0.4-0.1-0.8-0.2-1.1c-0.1-0.4-0.4-0.7-0.6-1
			c-0.3-0.3-0.6-0.5-1-0.6C40,14.8,39.6,14.7,39.2,14.7z"/>
		<path class="st3" d="M54.5,31.5c0.8,0,1.5-0.2,2.1-0.7v1.1c-0.6,0.4-1.4,0.6-2.2,0.6c-2,0-3.4-1.4-3.4-3.4c0-2,1.4-3.4,3.4-3.4
			c0.8,0,1.5,0.2,2.1,0.7v1.2c-0.5-0.6-1.2-0.8-2-0.8c-1.4,0-2.4,1-2.4,2.3C52.1,30.6,53.1,31.5,54.5,31.5z M58.8,32.4h-1.1v-8.5
			l1.1,0.7V27c0.5-0.8,1.3-1.2,2.3-1.2c1.6,0,2.5,1.2,2.5,2.8v3.8h-1.1v-3.6c0-1.3-0.6-1.9-1.7-1.9c-1.2,0-2,1-2,2.3L58.8,32.4z
			 M70.2,31.3c-0.5,0.8-1.4,1.2-2.4,1.2c-1.9,0-3.3-1.4-3.3-3.3c0-2,1.4-3.4,3.3-3.4c1,0,1.8,0.5,2.4,1.3v-1.1h1.1v6.5h-1.1V31.3z
			 M65.7,29.2c0,1.3,0.9,2.3,2.3,2.3c1.3,0,2.3-1,2.3-2.3c0-1.4-0.9-2.4-2.3-2.4C66.6,26.8,65.7,27.8,65.7,29.2L65.7,29.2z M74,32.4
			h-1.1v-6.5H74v1.4c0.5-1,1.3-1.5,2.4-1.5V27c-1.3-0.2-2.4,0.7-2.4,2.3V32.4z M87.3,29.6h-5.1c0.2,1.2,1.1,1.9,2.4,1.9
			c0.8,0,1.6-0.2,2.3-0.7v1c-0.7,0.5-1.5,0.7-2.3,0.7c-2,0-3.5-1.3-3.5-3.3c0-1.9,1.2-3.4,3.2-3.4c1.9,0,3.1,1.4,3.1,3.2
			C87.3,29.2,87.3,29.4,87.3,29.6z M82.2,28.7h4c-0.1-1.1-0.8-1.9-1.9-1.9C83.1,26.8,82.4,27.6,82.2,28.7L82.2,28.7z M89.6,32.4
			h-1.1v-6.5h1.1v1.4c0.5-1,1.3-1.5,2.4-1.5V27c-1.3-0.2-2.4,0.7-2.4,2.3V32.4z M98.3,29.6h-5.1c0.2,1.2,1.1,1.9,2.4,1.9
			c0.8,0,1.6-0.2,2.3-0.7v1c-0.7,0.5-1.5,0.7-2.3,0.7c-2,0-3.5-1.3-3.5-3.3c0-1.9,1.2-3.4,3.2-3.4c1.9,0,3.1,1.4,3.1,3.2
			C98.3,29.2,98.3,29.4,98.3,29.6z M93.2,28.7h4c-0.1-1.1-0.8-1.9-1.9-1.9C94.1,26.8,93.3,27.6,93.2,28.7L93.2,28.7z M104.7,31.3
			c-0.5,0.8-1.4,1.3-2.4,1.3c-1.9,0-3.3-1.4-3.3-3.3c0-2,1.4-3.4,3.3-3.4c1,0,1.9,0.5,2.4,1.3v-3.2l1.1,0.7v7.9h-1.1V31.3z
			 M100.2,29.2c0,1.3,0.9,2.3,2.3,2.3c1.3,0,2.3-1,2.3-2.3c0-1.4-0.9-2.4-2.3-2.4C101.1,26.8,100.2,27.8,100.2,29.2z M78.2,30.3
			c0,0.9,0.6,1.3,1.3,1.3c0.5,0,1.1-0.2,1.5-0.5v1c-0.4,0.3-1.1,0.5-1.6,0.5c-1.4,0-2.2-0.6-2.2-2.4v-6.3l1.1,0.7V30.3z M80,25.8
			c-0.1-0.1-0.2-0.1-0.3-0.1c-0.1,0-0.2,0-0.3,0c-0.1,0-0.2,0.1-0.3,0.1c-0.1,0.1-0.2,0.1-0.2,0.2c-0.1,0.1-0.1,0.2-0.1,0.3
			c0,0.1,0,0.2,0,0.3c0,0.1,0.1,0.2,0.1,0.3c0.1,0.1,0.1,0.2,0.2,0.2l0,0c0.1,0.1,0.3,0.1,0.4,0.1c0.2,0,0.3,0,0.4-0.1l1.1-0.7
			L80,25.8z M53.3,22.2c0.8,0,1.3-0.3,1.3-0.9c0-0.4-0.2-0.6-0.7-0.8l-1.5-0.6c-0.8-0.3-1.2-0.8-1.2-1.6c0-1.1,0.9-1.8,2.2-1.8
			c0.8,0,1.5,0.2,2,0.6V18c-0.6-0.5-1.3-0.8-2-0.8c-0.7,0-1.2,0.3-1.2,0.8c0,0.4,0.2,0.6,0.7,0.8l1.5,0.6c0.8,0.4,1.2,0.9,1.2,1.6
			c0,1.2-1,2-2.4,2c-0.9,0-1.6-0.2-2.2-0.7v-1.2C51.7,21.9,52.5,22.2,53.3,22.2z M57.7,20.8c0,0.9,0.6,1.3,1.3,1.3
			c0.5,0,1.1-0.2,1.5-0.5v1C60,22.9,59.4,23,58.8,23c-1.4,0-2.2-0.6-2.2-2.4V15l1.1-0.7L57.7,20.8z M66.4,21.8
			C65.9,22.6,65,23,64,23c-1.9,0-3.3-1.4-3.3-3.3c0-2,1.4-3.4,3.3-3.4c1,0,1.8,0.5,2.4,1.3v-1.1h1.1v6.5h-1.1V21.8z M61.9,19.7
			c0,1.3,0.9,2.3,2.3,2.3c1.3,0,2.3-1,2.3-2.3c0-1.4-0.9-2.4-2.3-2.4C62.8,17.3,61.9,18.3,61.9,19.7z M70.2,22.9h-1.1v-6.5h1.1v1.1
			c0.5-0.8,1.3-1.2,2.3-1.2c1.6,0,2.5,1.2,2.5,2.8v3.8h-1.1v-3.6c0-1.3-0.6-1.9-1.7-1.9c-1.2,0-2,1-2,2.3L70.2,22.9z M81.6,21.8
			c-0.5,0.8-1.4,1.3-2.4,1.3c-1.9,0-3.3-1.4-3.3-3.3c0-2,1.4-3.4,3.3-3.4c1,0,1.9,0.5,2.4,1.3V15l1.1-0.7v8.6h-1.1V21.8z M77.1,19.7
			c0,1.3,0.9,2.3,2.3,2.3c1.3,0,2.3-1,2.3-2.3c0-1.4-0.9-2.4-2.3-2.4C78,17.3,77.1,18.3,77.1,19.7z M101.3,21.8
			C100.8,22.6,100,23,99,23c-1.9,0-3.3-1.4-3.3-3.3c0-2,1.4-3.4,3.3-3.4c1,0,1.9,0.5,2.4,1.3V15l1.1-0.7v8.6h-1.1V21.8z M96.8,19.7
			c0,1.3,0.9,2.3,2.3,2.3c1.3,0,2.3-1,2.3-2.3c0-1.4-0.9-2.4-2.3-2.4C97.7,17.3,96.8,18.3,96.8,19.7z M89.5,21.8
			c-0.5,0.8-1.4,1.2-2.4,1.2c-1.9,0-3.3-1.4-3.3-3.3c0-2,1.4-3.4,3.3-3.4c1,0,1.8,0.5,2.4,1.3v-1.1h1.1v6.5h-1.1V21.8z M84.9,19.7
			c0,1.3,0.9,2.3,2.3,2.3c1.3,0,2.3-1,2.3-2.3c0-1.4-0.9-2.4-2.3-2.4C85.9,17.3,84.9,18.3,84.9,19.7z M93.3,22.9h-1.1v-6.5h1.1v1.4
			c0.5-1,1.3-1.5,2.4-1.5v1.2c-1.3-0.2-2.4,0.7-2.4,2.3V22.9z M59.2,17.8c0.1,0.1,0.2,0.1,0.4,0.1c0.1,0,0.3,0,0.4-0.1
			c0.1-0.1,0.2-0.1,0.3-0.2c0.1-0.1,0.1-0.2,0.2-0.4c0-0.1,0-0.2,0-0.3c0-0.1-0.1-0.2-0.1-0.3c-0.1-0.1-0.1-0.2-0.2-0.2l0,0
			c-0.1-0.1-0.3-0.1-0.4-0.1c-0.2,0-0.3,0-0.4,0.1l-1.1,0.7L59.2,17.8z"/>
	</g>
</g>
</svg>
