<?xml version="1.0" encoding="utf-8"?>
<!-- Generator: Adobe Illustrator 25.4.1, SVG Export Plug-In . SVG Version: 6.00 Build 0)  -->
<svg version="1.1" id="Layer_1" xmlns="http://www.w3.org/2000/svg" xmlns:xlink="http://www.w3.org/1999/xlink" x="0px" y="0px"
	 width="128px" height="48px" viewBox="0 0 128 48" style="enable-background:new 0 0 128 48;" xml:space="preserve">
<style type="text/css">
	.st0{clip-path:url(#SVGID_00000058584947042542161420000000688262350824082319_);}
	.st1{fill:#071689;}
	.st2{fill-rule:evenodd;clip-rule:evenodd;fill:#071689;}
</style>
<g>
	<defs>
		<rect id="SVGID_1_" x="7" y="11" width="114.9" height="26"/>
	</defs>
	<clipPath id="SVGID_00000044136065346416822950000012010350124125779877_">
		<use xlink:href="#SVGID_1_"  style="overflow:visible;"/>
	</clipPath>
	<g style="clip-path:url(#SVGID_00000044136065346416822950000012010350124125779877_);">
		<path class="st1" d="M64.9,16.2h-0.5v4.7c0,0.3,0.2,0.5,0.5,0.5c0.3,0,0.5-0.2,0.5-0.5v-4.2C65.4,16.4,65.2,16.2,64.9,16.2z"/>
		<path class="st1" d="M61.6,21.4c1,0,1.5-0.5,1.5-1.5v-0.1v-3.1c0-0.3-0.1-0.4-0.4-0.4h-0.1h-0.4h-0.1v3.7c0,0.3-0.2,0.5-0.6,0.5
			h-1.2v-3.7c0-0.3-0.1-0.4-0.4-0.4H60h-0.4h-0.1v0.5v3.7h-0.9c-0.2,0-0.2,0.2-0.2,0.5c0,0.3,0.1,0.5,0.2,0.5L61.6,21.4L61.6,21.4z"
			/>
		<path class="st1" d="M77.4,22.3c0,0.3,0.2,0.5,0.5,0.5h0.4c0.9,0,1.4-0.4,1.5-1.3V19v-0.7c0-0.3-0.1-0.4-0.4-0.4h-0.5h-0.1v0.5
			v0.1v2.9c0,0.3-0.2,0.5-0.5,0.5h-0.4C77.5,21.8,77.4,21.9,77.4,22.3z"/>
		<path class="st1" d="M95.1,21.4c0.5,0,0.7-0.2,0.7-0.5v-3.7v-0.5v-0.1c0-0.3-0.1-0.4-0.4-0.4h-0.4h-0.1v0.5v3.7H93v-2.6
			c0-0.3-0.1-0.4-0.4-0.4h-0.5H92v3.1h-1.3v-2.6c0-0.3-0.1-0.4-0.4-0.4h-0.5h-0.1v3.1h-1.2v-2.6c0-0.3-0.1-0.4-0.4-0.4h-0.5h-0.1
			v3.1h-5.1h-0.1c-0.4,0-0.6-0.2-0.6-0.5v-3.3c0-0.2-0.1-0.4-0.4-0.4c-0.1,0-0.1,0-0.1,0c-0.1,0-0.1,0-0.1,0h-0.3h-0.1v3.7
			c0,1,0.5,1.5,1.5,1.5h-0.1h12.9V21.4z"/>
		<path class="st2" d="M76.9,21.3H70c-1,0-1.5-0.5-1.5-1.5v-1.1c0-1,0.5-1.5,1.5-1.5h1.7c0.3,0,0.5,0.2,0.5,0.5v2.6h1.7
			c-0.1-0.1-0.1-0.3-0.1-0.5v-1.1c0-1,0.5-1.5,1.5-1.5h0.7c1,0,1.5,0.5,1.5,1.5v2.1C77.4,21.2,77.2,21.4,76.9,21.3L76.9,21.3z
			 M71.1,18.3H70c-0.3,0-0.5,0.2-0.5,0.5v1.1c0,0.3,0.2,0.5,0.5,0.5h1.2V18.3z M74.7,19.9c0,0.3,0.2,0.5,0.5,0.5h1.2v-1.6
			c0-0.3-0.2-0.5-0.5-0.5h-0.7c-0.3,0-0.5,0.2-0.5,0.5V19.9z"/>
		<path class="st1" d="M97.4,21.4c0.3,0,0.5-0.2,0.5-0.5v-4.2c0-0.3-0.2-0.5-0.5-0.5H97v4.7C97,21.2,97.1,21.4,97.4,21.4z"/>
		<path class="st2" d="M102.5,21.4c-1,0-1.5-0.6-1.5-1.5v-2.4h0.6c0.2,0,0.4,0.1,0.4,0.4v2c0,0.3,0.2,0.5,0.5,0.5h1.6
			c-0.1-0.1-0.1-0.3-0.1-0.5v-1.1c0-1,0.5-1.5,1.5-1.5h0.7c1,0,1.5,0.5,1.5,1.5v2.6H102.5z M106.7,18.8c0-0.3-0.2-0.5-0.5-0.5h-0.7
			c-0.3,0-0.5,0.2-0.5,0.5v1.1c0,0.3,0.1,0.5,0.4,0.5h1.2V18.8z"/>
		<path class="st1" d="M32.7,22.8c0.1,0.1,0.2,0.1,0.2,0.1c0.1,0,0.2,0,0.2-0.1c0.1-0.1,0.2-0.1,0.2-0.2c0.1-0.1,0.1-0.2,0.1-0.2
			c0-0.1,0-0.2-0.1-0.2c-0.1-0.1-0.1-0.2-0.2-0.2c-0.1-0.1-0.2-0.1-0.2-0.1c-0.1,0-0.2,0-0.2,0.1c-0.1,0.1-0.2,0.1-0.2,0.2
			c-0.1,0.1-0.1,0.2-0.1,0.2c0,0.1,0,0.2,0.1,0.2C32.5,22.7,32.6,22.8,32.7,22.8z"/>
		<path class="st1" d="M34.6,21.9c-0.1-0.1-0.2-0.1-0.2-0.1c-0.1,0-0.2,0-0.2,0.1c-0.1,0.1-0.2,0.1-0.2,0.2
			c-0.1,0.1-0.1,0.2-0.1,0.2c0,0.1,0,0.2,0.1,0.2c0.1,0.1,0.1,0.1,0.2,0.2c0.1,0.1,0.2,0.1,0.2,0.1c0.1,0,0.2,0,0.2-0.1
			c0.1-0.1,0.2-0.1,0.2-0.2c0.1-0.1,0.1-0.2,0.1-0.2c0-0.1,0-0.2-0.1-0.2C34.8,22,34.7,21.9,34.6,21.9z"/>
		<path class="st2" d="M110.2,21.5c-0.2,0.9-0.7,1.3-1.6,1.3h-0.4c-0.3,0-0.5-0.2-0.5-0.5s0.2-0.5,0.5-0.5h0.4
			c0.3,0,0.5-0.1,0.5-0.5v-3.9h0.5c0.3,0,0.5,0.2,0.5,0.5v2.6c0.1,0,1.2,0,1.2,0V17h0.5c0.1,0,0.2,0,0.2,0.1c0.1,0,0.1,0,0.1,0
			c0.1,0.1,0.1,0.2,0.1,0.4v0.1c0.1-0.1,0.2-0.1,0.4-0.1h2.6c1,0,1.5,0.4,1.5,1.4v1.6h1.6v-1.6c0-1,0.5-1.5,1.5-1.5h0.7
			c1,0,1.5,0.5,1.5,1.5V20c0,1-0.5,1.4-1.5,1.4h-0.2L110.2,21.5z M119.2,20.4h1.2c0.3,0,0.5-0.1,0.5-0.5v-1.1c0-0.3-0.2-0.5-0.5-0.5
			h-0.7c-0.3,0-0.5,0.2-0.5,0.5V20.4z M112.1,20.3h3.5v-1.6c0-0.3-0.2-0.5-0.5-0.5h-3V20.3z"/>
		<path class="st2" d="M43.3,18.6v1.1c0,0.9-0.4,1.5-1.2,1.5h-4.6c-0.3,0-0.5-0.2-0.5-0.5v-2.1c0-0.3-0.2-0.5-0.5-0.5h-0.7v2.6
			c0,0.4-0.2,0.6-0.5,0.6h-2.7c-0.9,0-1.5-0.5-1.5-1.4V18h0.5c0.3,0,0.4,0.1,0.4,0.4v1.4c0,0.3,0.1,0.5,0.5,0.5h2.2v-2.6
			c0-0.3,0.2-0.5,0.5-0.5h1.2c1,0,1.5,0.6,1.5,1.5v1.6h1.7v-1.6c0-1,0.5-1.5,1.5-1.5h0.7C42.8,17.3,43.3,17.8,43.3,18.6z M42.2,18.8
			c0-0.3-0.2-0.5-0.5-0.5h-0.7c-0.3,0-0.5,0.2-0.5,0.5v1.6h1.2c0.3,0,0.5-0.1,0.5-0.5V18.8z"/>
		<path class="st1" d="M57,17.3h-0.5h-0.1v2.6c0,0.4-0.2,0.5-0.5,0.5h-0.8v-2.6c0-0.3-0.1-0.4-0.4-0.4h-0.5h-0.1v3.1h-1.2v-2.6
			c0-0.3-0.1-0.4-0.4-0.4h-0.5h-0.1v3.1h-3.5c0-0.1,0.1-0.2,0.1-0.3v-3.5c0-0.3-0.1-0.4-0.4-0.4h-0.1h-0.4h-0.1v3.8
			c0,0.3-0.2,0.4-0.5,0.4h0.1h-0.9v-3.8c0-0.3-0.1-0.4-0.4-0.4h-0.1h-0.4h-0.1v4.2h-1.2c-0.2,0-0.2,0.2-0.2,0.5
			c0,0.3,0.1,0.5,0.2,0.5h11.1h0.8c1,0,1.5-0.5,1.5-1.5v-1.6v-0.1v-0.4C57.5,17.5,57.3,17.3,57,17.3z"/>
		<path class="st1" d="M69.3,16.8c0.1,0.1,0.2,0.1,0.2,0.1c0.1,0,0.2,0,0.2-0.1c0.1-0.1,0.2-0.1,0.2-0.2c0.1-0.1,0.1-0.2,0.1-0.3
			c0-0.1,0-0.2-0.1-0.2C70,16,70,15.9,69.9,15.9c-0.1-0.1-0.2-0.1-0.2-0.1c-0.1,0-0.2,0-0.2,0.1s-0.1,0.1-0.2,0.2
			c-0.1,0.1-0.1,0.2-0.1,0.2c0,0.1,0,0.2,0.1,0.2C69.2,16.7,69.3,16.8,69.3,16.8z"/>
		<path class="st1" d="M71.2,15.9c-0.1-0.1-0.2-0.1-0.2-0.1c-0.1,0-0.2,0-0.2,0.1c-0.1,0.1-0.2,0.1-0.2,0.2
			c-0.1,0.1-0.1,0.2-0.1,0.2s0,0.2,0.1,0.2c0.1,0.1,0.1,0.1,0.2,0.2c0.1,0.1,0.2,0.1,0.2,0.1c0.1,0,0.2,0,0.2-0.1
			c0.1-0.1,0.2-0.1,0.2-0.2c0.1-0.1,0.1-0.2,0.1-0.2c0-0.1,0-0.2-0.1-0.2C71.4,16,71.4,15.9,71.2,15.9z"/>
		<path class="st1" d="M74.6,16.8c0.1,0.1,0.2,0.1,0.2,0.1c0.1,0,0.2,0,0.2-0.1c0.1-0.1,0.2-0.1,0.2-0.2c0.1-0.1,0.1-0.2,0.1-0.2
			c0-0.1,0-0.2-0.1-0.2c-0.1-0.1-0.1-0.2-0.2-0.2c-0.1-0.1-0.2-0.1-0.2-0.1c-0.1,0-0.2,0-0.2,0.1c-0.1-0.1-0.2,0.1-0.2,0.1
			c-0.1,0.1-0.1,0.2-0.1,0.2c0,0.1,0,0.2,0.1,0.2C74.4,16.7,74.5,16.7,74.6,16.8z"/>
		<path class="st1" d="M76.5,15.9c-0.1-0.1-0.2-0.1-0.2-0.1c-0.1,0-0.2,0-0.2,0.1c-0.1,0.1-0.2,0.1-0.2,0.2
			c-0.1,0.1-0.1,0.2-0.1,0.2s0,0.2,0.1,0.2c0.1,0.1,0.1,0.1,0.2,0.2c0.1,0.1,0.2,0.1,0.2,0.1c0.1,0,0.2,0,0.2-0.1
			c0.1-0.1,0.2-0.1,0.2-0.2c0.1-0.1,0.1-0.2,0.1-0.2c0-0.1,0-0.2-0.1-0.2C76.6,16,76.6,15.9,76.5,15.9z"/>
		<path class="st1" d="M89.1,16.8c0.1,0.1,0.2,0.1,0.2,0.1c0.1,0,0.2,0,0.2-0.1c0.1-0.1,0.2-0.1,0.2-0.2c0.1-0.1,0.1-0.2,0.1-0.2
			c0-0.1,0-0.2-0.1-0.2c0-0.1-0.1-0.2-0.2-0.2c-0.1-0.1-0.2-0.1-0.2-0.1c-0.1,0-0.2,0-0.2,0.1C89,16,88.9,16,88.9,16.1
			c-0.1,0.1-0.1,0.2-0.1,0.2c0,0.1,0,0.2,0.1,0.2C88.9,16.7,88.9,16.8,89.1,16.8z"/>
		<path class="st1" d="M91,15.9c-0.1-0.1-0.2-0.1-0.2-0.1s-0.2,0-0.2,0.1c-0.1,0.1-0.2,0.1-0.2,0.2c-0.1,0.1-0.1,0.2-0.1,0.2
			s0,0.2,0.1,0.2c0.1,0.1,0.1,0.1,0.2,0.2c0.1,0.1,0.2,0.1,0.2,0.1s0.2,0,0.2-0.1c0.1-0.1,0.2-0.1,0.2-0.2c0.1-0.1,0.1-0.2,0.1-0.2
			c0-0.1,0-0.2-0.1-0.2C91.1,16,91,15.9,91,15.9z"/>
		<path class="st1" d="M90.2,14.7c-0.1-0.1-0.2-0.1-0.2-0.1c-0.1,0-0.2,0-0.2,0.1c-0.1,0.1-0.2,0.1-0.2,0.2
			c-0.1,0.1-0.1,0.2-0.1,0.2c0,0.1,0,0.2,0.1,0.2c0.1,0.1,0.1,0.1,0.2,0.2c0.1,0.1,0.2,0.1,0.2,0.1c0.1,0,0.2,0,0.2-0.1
			c0.1-0.1,0.2-0.1,0.2-0.2c0.1-0.1,0.1-0.2,0.1-0.2c0-0.1,0-0.2-0.1-0.2C90.4,14.8,90.3,14.7,90.2,14.7z"/>
		<path class="st1" d="M106.1,15.9c-0.1-0.1-0.2-0.1-0.2-0.1c-0.1,0-0.2,0-0.2,0.1c-0.1,0.1-0.2,0.1-0.2,0.2
			c-0.1,0.1-0.1,0.2-0.1,0.2s0,0.2,0.1,0.2c0.1,0.1,0.1,0.1,0.2,0.2c0.1,0.1,0.2,0.1,0.2,0.1c0.1,0,0.2,0,0.2-0.1
			c0.1-0.1,0.2-0.1,0.2-0.2c0.1-0.1,0.1-0.2,0.1-0.2c0-0.1,0-0.2-0.1-0.2C106.3,16,106.2,15.9,106.1,15.9z"/>
		<path class="st1" d="M60.3,22.4h-0.6c-0.1,0-0.1,0-0.1,0v-0.3c0-0.1,0-0.1,0-0.1h0.4c0.1,0,0.2-0.1,0.2-0.2s-0.1-0.2-0.2-0.2h-0.4
			c-0.2,0-0.4,0.1-0.4,0.4v0.2c0,0,0,0,0,0.1c-0.1,0-0.2,0.1-0.2,0.2c0,0.1,0.1,0.2,0.2,0.2h1c0.1,0,0.2-0.1,0.2-0.2
			C60.5,22.4,60.5,22.4,60.3,22.4z"/>
		<path class="st1" d="M69,26.6h-0.5v4.7c0,0.3,0.2,0.5,0.5,0.5c0.4,0,0.5-0.2,0.5-0.5v-4.2C69.5,26.8,69.3,26.6,69,26.6z"/>
		<path class="st1" d="M92.9,26.6h-0.6v4.7c0,0.3,0.2,0.5,0.6,0.5c0.4,0,0.5-0.2,0.5-0.5V27C93.3,26.8,93.2,26.6,92.9,26.6z"/>
		<path class="st1" d="M33.9,29l-1.3-0.5c-0.3-0.1-0.4-0.2-0.4-0.5v-0.1c0-0.3,0.2-0.4,0.6-0.4h1.6c0.1,0,0.1-0.1,0.1-0.1v-0.6
			c0-0.1-0.1-0.1-0.1-0.1c-0.6-0.1-0.9-0.1-1.4-0.1c-1.2,0-1.9,0.3-1.9,1.3v0.1c0,0.8,0.2,1.2,0.8,1.3l1.3,0.5
			c0.4,0.1,0.5,0.2,0.5,0.6v0.1c0,0.3-0.2,0.4-0.6,0.4h-1.9c-0.1,0-0.1,0.1-0.1,0.1v0.5c0,0.1,0,0.1,0.1,0.1
			c0.6,0.1,1.2,0.1,1.7,0.1c1.2,0,2-0.3,2-1.3v-0.2C34.9,29.5,34.6,29.2,33.9,29z"/>
		<path class="st2" d="M45.7,31.7c0.1,0.1,0,0.1-0.1,0.1h-0.9c-0.1,0-0.1-0.1-0.1-0.1l-0.4-1.4h-1.8l-0.4,1.4
			c-0.1,0.1-0.1,0.1-0.1,0.1h-0.9c-0.1,0-0.1-0.1-0.1-0.1l1.2-4.3c0.2-0.7,0.3-0.8,1.1-0.8c0.9,0,1,0.1,1.2,0.8L45.7,31.7z
			 M44.1,29.4l-0.5-1.8c-0.1-0.1-0.1-0.2-0.2-0.2c-0.1,0-0.1,0-0.2,0.2l-0.5,1.8H44.1z"/>
		<path class="st2" d="M50.8,31.7c0.1,0.1,0.1,0.1-0.1,0.1h-0.9c-0.1,0-0.2,0-0.2-0.1L48.6,30H48v1.8c0,0.1-0.1,0.1-0.1,0.1H47
			c-0.1,0-0.1-0.1-0.1-0.1v-5.2h1.9c1.5,0,2,0.4,2,1.7c0,1-0.2,1.5-1,1.6L50.8,31.7z M49.6,28.3c0-0.7-0.2-0.9-1-0.9h-0.7v1.7h0.7
			C49.4,29.1,49.6,29,49.6,28.3z"/>
		<path class="st2" d="M59.9,31.7c0.1,0.1,0,0.1-0.1,0.1H59c-0.1,0-0.1-0.1-0.1-0.1l-0.4-1.4h-1.8l-0.4,1.4
			c-0.1,0.1-0.1,0.1-0.1,0.1h-0.9c-0.1,0-0.1-0.1-0.1-0.1l1.2-4.3c0.2-0.7,0.3-0.8,1.1-0.8c0.9,0,1,0.1,1.2,0.8L59.9,31.7z
			 M58.4,29.4l-0.5-1.8c-0.1-0.1-0.1-0.2-0.2-0.2c-0.1,0-0.1,0-0.2,0.2L57,29.4H58.4z"/>
		<path class="st1" d="M73.4,29l-1.3-0.5c-0.3-0.1-0.4-0.2-0.4-0.5v-0.1c0-0.3,0.2-0.4,0.6-0.4h1.6c0.1,0,0.1-0.1,0.1-0.1v-0.6
			c0-0.1-0.1-0.1-0.1-0.1c-0.6-0.1-0.9-0.1-1.4-0.1c-1.2,0-1.9,0.3-1.9,1.3v0.1c0,0.8,0.2,1.2,0.8,1.3l1.3,0.5
			c0.4,0.1,0.5,0.2,0.5,0.6v0.1c0,0.3-0.2,0.4-0.6,0.4h-1.9c-0.1,0-0.1,0.1-0.1,0.1v0.5c0,0.1,0,0.1,0.1,0.1
			c0.6,0.1,1.2,0.1,1.6,0.1c1.2,0,2-0.3,2-1.3v-0.2C74.3,29.5,74,29.2,73.4,29z"/>
		<path class="st1" d="M78.6,30.9h-2.2v-3.3V27c0-0.3-0.2-0.4-0.6-0.5h-0.6v1v4.1c0,0.1,0.1,0.1,0.1,0.1h3.2c0.1,0,0.1-0.1,0.1-0.1
			v-0.7C78.6,30.9,78.6,30.9,78.6,30.9z"/>
		<path class="st2" d="M84.1,31.7c0.1,0.1,0,0.1-0.1,0.1h-0.9c-0.1,0-0.1-0.1-0.1-0.1l-0.4-1.4h-1.8l-0.4,1.4
			c-0.1,0.1-0.1,0.1-0.1,0.1h-0.9c-0.1,0-0.1-0.1-0.1-0.1l1.2-4.3c0.2-0.7,0.3-0.8,1.1-0.8c0.9,0,1,0.1,1.2,0.8L84.1,31.7z
			 M82.5,29.4L82,27.6c-0.1-0.1-0.1-0.2-0.2-0.2c-0.1,0-0.1,0-0.2,0.2l-0.5,1.8H82.5z"/>
		<path class="st1" d="M90.5,26.6h-0.8c-0.2,0-0.3,0.1-0.4,0.2L88,30.3l-1.3-3.4c-0.1-0.2-0.2-0.2-0.4-0.2h-0.8
			c-0.1,0-0.1,0.1-0.1,0.1l-0.5,5c0,0.1,0.1,0.1,0.1,0.1H86c0.1,0,0.1-0.1,0.1-0.1l0.3-3.2l1.2,3.2c0.1,0.1,0.1,0.1,0.1,0.1h0.6
			c0.1,0,0.1-0.1,0.1-0.1l1.2-3.2l0.3,3.2c0,0.1,0.1,0.1,0.1,0.1H91c0.1,0,0.1-0.1,0.1-0.1l-0.5-5C90.6,26.7,90.6,26.6,90.5,26.6z"
			/>
		<path class="st1" d="M97.7,26.6c-0.3-0.1-0.7-0.1-1.3-0.1c-1.7,0-2,0.6-2,2.6c0,2,0.2,2.6,2,2.6c0.6,0,1-0.1,1.3-0.1
			c0.1,0,0.2-0.1,0.2-0.2v-0.6c0-0.1-0.1-0.1-0.1-0.1h-1.4c-0.9,0-0.9-0.4-0.9-1.7c0-1.3,0-1.7,0.9-1.7h1.4c0.1,0,0.1-0.1,0.1-0.1
			v-0.5C97.9,26.7,97.9,26.7,97.7,26.6z"/>
		<path class="st2" d="M105.2,30.4c0,1.1-0.6,1.4-1.8,1.4c-0.6,0-1.5,0-2.1-0.1c-0.1-0.1-0.1-0.1-0.1-0.1v-5c0-0.1,0.1-0.1,0.1-0.1
			c0.6-0.1,1.3-0.1,1.9-0.1c1.3,0,1.9,0.4,1.9,1.5c0,0.7-0.2,1.1-0.8,1.2C104.9,29.2,105.1,29.7,105.2,30.4z M102.2,28.8h0.7
			c0.7,0,1-0.1,1-0.7c0-0.6-0.3-0.7-0.9-0.7h-0.8V28.8z M104,30.2c0-0.6-0.2-0.7-0.8-0.7h-1v1.3h1C103.7,30.9,104,30.8,104,30.2z"/>
		<path class="st2" d="M110.6,31.7c0.1,0.1,0,0.1-0.1,0.1h-0.9c-0.1,0-0.1-0.1-0.1-0.1l-0.4-1.4h-1.8l-0.4,1.4
			c-0.1,0.1-0.1,0.1-0.1,0.1h-0.9c-0.1,0-0.1-0.1-0.1-0.1l1.2-4.3c0.2-0.7,0.3-0.8,1.1-0.8c0.9,0,1,0.1,1.2,0.8L110.6,31.7z
			 M109,29.4l-0.5-1.8c-0.1-0.1-0.1-0.2-0.2-0.2c-0.1,0-0.1,0-0.2,0.2l-0.5,1.8H109z"/>
		<path class="st1" d="M116.1,26.6h-0.9c-0.1,0-0.1,0.1-0.1,0.1v3.2l-2.1-3.1c-0.1-0.2-0.1-0.2-0.4-0.2H112c-0.1,0-0.1,0.1-0.1,0.1
			v5c0,0.1,0.1,0.1,0.1,0.1h0.9c0.1,0,0.1-0.1,0.1-0.1v-3.3l2.2,3.2c0.1,0.1,0.2,0.2,0.4,0.2h0.6c0.1,0,0.1-0.1,0.1-0.1v-5
			C116.2,26.7,116.2,26.6,116.1,26.6z"/>
		<path class="st1" d="M121.7,31.6l-2-2.6l1.8-2.3c0.1-0.1,0.1-0.1-0.1-0.1h-1c-0.1,0-0.1,0-0.1,0.1l-1.7,2.2v-1.3V27
			c0-0.3-0.2-0.4-0.6-0.5h-0.6v0.9v3.3v0.5c0,0.3,0.2,0.5,0.6,0.5c0.4,0,0.5-0.2,0.5-0.5v-0.5v-1.6l1.8,2.5c0,0.1,0.1,0.1,0.1,0.1h1
			C121.8,31.8,121.8,31.7,121.7,31.6z"/>
		<path class="st1" d="M39.8,26.6h-0.6v1.7v0.4h-2.3v-0.4v-1.3c0-0.3-0.2-0.4-0.6-0.5h-0.6v1.7v2.5v0.4c0,0.3,0.2,0.5,0.6,0.5
			c0.4,0,0.5-0.2,0.5-0.5v-0.4v-1.2h2.3v1.2v0.4c0,0.3,0.2,0.5,0.6,0.5c0.4,0,0.5-0.2,0.5-0.5v-0.4v-2.5V27
			C40.3,26.8,40.1,26.6,39.8,26.6z"/>
		<path class="st1" d="M54,26.6h-0.6V28v1.3c0,0.4,0,0.8-0.1,1c-0.1,0.1-0.1,0.2-0.2,0.3c-0.1,0.1-0.1,0.1-0.1,0.1
			c-0.2,0.1-0.5,0.2-0.6,0.2h-0.6c-0.1,0-0.1,0.1-0.1,0.1v0.6c0,0.1,0.1,0.1,0.2,0.2c0.1,0,0.2,0.1,0.4,0.1c0.4,0.1,1.3,0.1,1.8-0.6
			c0.3-0.4,0.4-1,0.4-2v-0.4v-1.8C54.5,26.8,54.3,26.6,54,26.6z"/>
		<path class="st1" d="M64.9,26.6h-0.6v1.7v0.4h-2.3v-0.4v-1.2c0-0.3-0.2-0.5-0.6-0.5H61v4.4v0.4c0,0.3,0.2,0.5,0.6,0.5
			c0.4,0,0.6-0.2,0.6-0.5V31v-1.2h1.2h1v1.3v0.3c0,0.3,0.2,0.5,0.6,0.5c0.4,0,0.5-0.2,0.5-0.5V31v-2.5v-1.2
			C65.4,26.8,65.2,26.6,64.9,26.6z"/>
		<path class="st1" d="M17.4,14.2c0,0-0.9,0.7-1.1,1.4c-0.2,0.7-0.3,0.9,0.1,2c0.4,1.1,1.9,5.4,1.9,5.4s0.5,1-0.4,1.7
			c0,0-0.6,0.4-0.4,0.4c0.1-0.1,1.8-0.4,1.3-2c-0.2-0.7-2.1-6-2.1-6s-0.6-1.3,0.8-2.6L17.4,14.2z"/>
		<path class="st1" d="M19.2,24c0,0,0.7-0.6,0.5-1.5c-0.2-0.9-2.1-6.1-2.1-6.1s-0.6-1.2-0.1-2.2c0,0-0.7,0.6-0.6,1.4
			c0.1,0.9,0.6,2,0.9,2.7c0.2,0.7,1.5,4.3,1.5,4.3s0.2,0.7,0.1,1C19.2,23.9,19.1,24.1,19.2,24z"/>
		<path class="st1" d="M16.4,17.1c0,0-0.4,0.6,0,1.7c0.4,1.2,1.5,4.2,1.5,4.2s0.5,1.2-0.1,1.8l-0.2,0.1c0,0,0.4-0.5,0.1-1.2
			c-0.2-0.7-1.6-4.3-1.6-4.3s-0.4-1.1-0.2-1.8L16.4,17.1z"/>
		<path class="st1" d="M18.5,25.3v-0.2c0,0-0.1-0.1-0.1-0.1c-0.1,0.1-0.2,0.2-0.1,0.4c0.1,0.1,0.1,0.1,0.1,0.1l-0.1,0.1v0.1
			c0,0,0.1,0,0.1-0.1c0.1-0.1,0.2-0.2,0.2-0.2v-0.2C18.6,25.2,18.5,25.3,18.5,25.3c-0.1,0.1-0.2,0.1-0.3,0.1c0-0.1,0.1-0.1,0.1-0.1
			C18.4,25.3,18.5,25.3,18.5,25.3z"/>
		<path class="st1" d="M20.4,25l-0.1,0.5l0.5,0.1l0.1-0.5L20.4,25z"/>
		<path class="st1" d="M19.9,25.4l-0.1,0.5l0.5,0.1l0.1-0.5L19.9,25.4z"/>
		<path class="st1" d="M19.4,25.8l-0.1,0.5l0.5,0.1l0.1-0.5L19.4,25.8z"/>
		<path class="st1" d="M20.8,34.2c0,0-0.8-0.6-0.7-3.4h0.2c0,0-0.2,2.1,0.4,3.2L20.8,34.2z"/>
		<path class="st1" d="M21.3,25.6c0,0,0-0.2-0.7-2.2c-0.2-0.4-3.2-9.2-3.2-9.2s-0.4-1,0.6-2.1c0.2-0.2,0.9-0.9,1.2-1l0.1,0.3
			c0,0-1.6,1-1.4,2.4c0.1,0.9,0.4,1.3,0.4,1.3l3.2,9.1c0,0,0.4,1,0.2,1.8c-0.1,0.6-0.6,0.6-0.6,0.6s0.1,0.6-0.6,0.7
			c0,0-0.1,0.6-0.6,0.5c0,0,0,0.6-0.7,0.6c-0.7,0.1-1-0.6-1.2-1.2c-0.2-0.6-2.6-6.9-2.6-6.9s-0.9-1.9,0.9-3.2l0.1,0.3
			c0,0-0.8,0.8-0.8,1.3c0,0.6,0.1,1,0.2,1.5c0.2,0.5,2.6,7,2.6,7s0.2,0.8,0.9,0.6c0.6-0.2,0.4-0.9,0.4-1c0-0.1,0.1,0,0.1,0.1
			c0,0.1,0.1,0.4,0.1,0.4s0.4,0,0.4-0.5c0-0.5,0.1-0.4,0.1-0.4c0.1,0.1,0.1,0.4,0.1,0.4s0.4,0.1,0.4-0.5c-0.1-0.4,0-0.4,0.1-0.4
			l0.1,0.2C20.8,25.9,21.2,26,21.3,25.6z"/>
		<path class="st2" d="M20,24.6c0,0,0,0.6-0.3,0.6c-0.3,0.1-0.4-0.2-0.5-0.4c0,0-0.1,0-0.1,0.2c0,0.2,0.2,1.8-1,2
			c-0.9,0.3-1.4-0.9-1.4-0.9s0.1,1-0.2,1.5c-0.4,0.5-0.9,0.5-1.2,0.2c0,0-0.2,0.4-1,0.6c0,0-0.1,0.1,0.1-0.1
			c0.2-0.2,0.5-0.4,0.7-0.7c0,0-0.3-0.5-0.2-1.5c0.1-1,0.3-1.4,0.3-1.6c0.1-0.2,0.1-0.2,0.1-0.2c0.1,0,0.1,0.1,0.1,0.2
			c0,0.1,0.5,1,0.6,1.5c0,0.6-0.1,1.2-0.2,1.4c0,0,0.7,0.1,1-0.7c0,0,0.1-0.3,0-0.6c-0.1-0.3-0.8-2.1-0.8-2.1s0-0.2,0-0.4
			c0-0.1-0.1-0.4,0-0.4c0-0.1,0-0.1,0.1,0.1c0,0.1,0.6,1.6,1,2.5c0.5,0.9,1.2,0.7,1.6,0.2c0.3-0.4,0.4-1,0.4-1.3
			c0-0.3,0.1-0.7,0.2-0.7c0.1,0,0.1,0.1,0.1,0.2c0.1,0.1,0.1,0.4,0.4,0.3c0.2-0.1,0.2-0.4,0.2-0.4s-0.1-0.4,0-0.6
			c0.1-0.1,0.1,0.3,0.1,0.3s0,0.1,0.1-0.1c0.1-0.1,0.2-0.3,0.1-0.6c0,0-0.1-0.2,0-0.2c0.1,0,0.2,0.6,0.2,0.9
			C20.4,24.4,20.2,24.5,20,24.6z M15.7,26.2c0-0.3-0.5-1-0.5-1S15,25.6,15,26.6c0,0,0,0.3,0.3,0.7C15.3,27.3,15.8,26.6,15.7,26.2z"
			/>
		<path class="st1" d="M9.6,31C9.6,31,9.6,30.9,9.6,31c0.1-0.1,0.1,0,0.1,0.1c0,0.1,0.2,1.3,1.1,1.7c0,0,0.4,0.2,0.6-0.1
			c0.2-0.2,0.2-0.6,0.2-0.8c0-0.1,0.1-0.8,0.4-1.2c0.4-0.4,0.6-0.3,0.6-0.2s0.2,0.6,0.7,0.7c0.5,0.2,1.7,0.2,2.4-1.3
			c0.1-0.1,0.1-0.2,0-0.2c-0.1-0.1-0.2-0.1-0.2-0.1s0.1,0.2-0.1,0.3c-0.1,0.1-0.5,0.3-0.7-0.1c0,0-0.1-0.2-0.1-0.6
			c0-0.3,0.2-0.6,0.4-0.6c0.2,0,0.7,0.2,0.8,0.9c0.1,0.7-0.6,1.6-1.3,2c-0.7,0.4-1.6,0.2-2-0.3c0,0-0.1-0.2-0.1-0.3
			c0,0,0-0.1-0.1,0.1c-0.1,0.1-0.4,0.3-0.5,0.9c-0.1,0.6-0.1,1.3-0.7,1.3c-0.7-0.1-1.2-1-1.4-1.7C9.8,31.6,9.6,31.2,9.6,31z"/>
		<path class="st1" d="M14.1,32.6C14.1,32.6,14.1,32.5,14.1,32.6c0.1-0.1,1.5-0.4,2.1-1.8c0.2-0.6,0.4-1.5,0.5-2.1
			c0.1-0.6,0.2-1.1,0.5-1.2c0,0,0.1,0,0.1,0.2c0.1,0.2,0.2,0.5,0.1,0.5c-0.1,0-0.1-0.1-0.2-0.1c-0.1-0.1-0.3,0.3-0.3,0.6
			c-0.1,0.2,0,1.8-0.4,2.6C16.2,32.1,15.3,32.5,14.1,32.6z"/>
		<path class="st1" d="M18,30.6c0,0,0,0.2-0.2,0.4c-0.2,0.1-0.5,0-0.6-0.2c0-0.2-0.2-0.7,0.1-0.9c0.2-0.2,0.7-0.2,0.9,0.2
			c0.2,0.4,0.1,1.3-0.2,1.6c-0.2,0.3-1,1.6-3.4,1.9c-0.6,0.1-2-0.3-1.8-1.6c0.1-0.5,0.2-1,0.5-1.3c0,0,0.1-0.1,0.1,0.1
			c0,0.1-0.6,1.1-0.2,1.7c0.4,0.6,1.2,1,2.9,0.2c1.6-0.7,2-1.8,2-1.8C18.2,30.7,18,30.6,18,30.6z"/>
		<path class="st1" d="M13.6,27.4c0.2-0.2,0.7-0.6,0.8-1c0.1-0.4,0.1-0.7-0.1-0.8c-0.2-0.1-0.6,0.3-0.7,0.4c-0.1,0.1,0,0.7,0,0.7
			s-0.2,0.1-0.3,0.2c-0.1,0.1-0.5,0.4-0.6,0.8c-0.1,0.4,0,0.7,0.1,0.8c0.1,0.1,0.6,0,0.7-0.1c0.2-0.1,0.2,0.1,0.2,0.1
			s-0.6,0.9-2,1.1C10.7,29.8,9,30.2,7,29c0,0,1,1.8,4.4,1.2c1.5-0.2,2.2-1.2,2.3-1.3c0.1-0.2,0.2-0.7,0.1-0.9
			c-0.1-0.2-0.4-0.2-0.7-0.1c-0.2,0.1-0.3,0-0.3,0C12.9,27.9,13.3,27.6,13.6,27.4z"/>
		<path class="st1" d="M13.2,29.8l0.6,0.3l-0.2,0.5L13,30.3L13.2,29.8z"/>
		<path class="st1" d="M14.1,29.7l0.6,0.3l-0.2,0.5l-0.6-0.3L14.1,29.7z"/>
		<path class="st1" d="M17.6,28.7l0.5,0.3L18,29.5l-0.6-0.3L17.6,28.7z"/>
		<path class="st1" d="M19.4,31.9c0,0,0-0.2,0.1-0.2c0.1,0-0.1,0.4,0,1c0.1,0.6,0.1,2.3,2.3,3.4c0,0,0.6,0.4,2.4,0.7
			c0,0,0.1,0,0.1,0.1c-0.1,0.1-1.6,0.1-2.8-0.3c-1.2-0.4-2.1-1.5-2.1-3.1C19.4,33.4,19.3,33,19.4,31.9z"/>
		<path class="st1" d="M25.9,29.9c-0.7-1.5-2.1-2.8-3.1-3.5c0,0.4,0.1,0.7,0.7,1.2c0.6,0.5,1.8,1.9,2.1,2.6c0.1,0.1,0.1,0.5,0.1,0.6
			c-0.1-0.1-0.1-0.9-1.1-0.6c0.7,0.2,1.1,0.9,1.2,1.3C25.9,31.1,25.9,30.3,25.9,29.9z"/>
		<path class="st1" d="M21.4,31.5c-0.3,0.3-0.6,0.7-0.9,1.4c-0.3,0.8,0.4,1.4,0.4,1.3c0.1-2.3,2.3-3.3,3.3-2.9
			c0.2,0.1,0.8,0.3,0.4,0.9c0,0,0.7,0.4,1.1-0.4C25.8,31.5,23.7,29.7,21.4,31.5z"/>
		<path class="st1" d="M19.1,11l0.1,0.3c0,0-0.7,0.5-0.6,1.5c0,0,0,0.4,0.2,1c0.2,0.7,3.4,9.7,3.4,9.7s0.6,1.5,0.2,2.5
			c-0.2,0.7-0.3,1.1-1.2,2c-0.9,0.9-2.5,1-2.5,1s-0.6,0.1-0.2,0c0.4-0.1,3.4-1.3,3.8-3.5c0-0.1-0.1-0.6-0.1-0.7
			c-0.1-0.1-3.9-11.1-3.9-11.1S17.5,12.1,19.1,11z"/>
		<path class="st2" d="M23.2,28.8c0,0.1-0.1,0.6-0.1,0.6c-0.1,0.1-0.2-0.1-0.4-0.1c-0.2,0.1-0.4,0.1-0.7,0.7c-0.4,0.6-0.8,1-1.5,1.2
			c-0.1,0-0.2,0-0.3,0c0-0.1-0.1-0.1-0.1-0.1c-0.3-0.2-0.4-0.7-0.4-0.7v-0.1h-0.1c0,0-0.5,0.3-0.5,0.7v0.2c0,0.5,0,1.5-0.6,2
			c-0.7,0.5-2.1,0.5-2.3,0.5c0.4-0.1,1.7-0.5,2.2-1.1c0.3-0.3,0.5-0.8,0.6-1.4v-0.2c0-0.2,0-0.4,0.1-0.6c0.1-0.1,0.2-0.5,0.8-0.8
			c0.1,0,0.1,0,0.1,0c0,0.1,0,0.1,0,0.1c-0.1,0.1,0,0.5,0.1,0.6c0.1,0.1,0.1,0.2,0.2,0.2h0.1c0-0.1,0-0.3,0-0.4
			c0.1-1,0.6-1.7,1.3-1.7c0,0,0.1,0,0.1,0.1c0.1,0,0.1,0.1,0.1,0.1c0,0.2,0,0.4,0,0.5c0,0.3-0.1,0.6-0.1,0.9c0.2-0.2,0.6-0.9,0.7-1
			c0.1-0.1,0.2-0.3,0.2-0.3s0-0.1,0-0.2c0,0,0-0.2,0.1-0.3c0,0,0.1,0,0.1,0.1s0.1,0.1,0.1,0.2C22.9,28.6,23.2,28.7,23.2,28.8z
			 M20.4,30.6L20.4,30.6C20.4,30.6,20.4,30.6,20.4,30.6c0.1,0,0.2-0.1,0.2-0.1c0.6-0.3,0.9-0.9,0.9-1.2v-0.1c0,0-0.2-0.1-0.7,0.4
			C20.5,29.8,20.4,30.1,20.4,30.6z"/>
	</g>
</g>
</svg>
