<svg width="128" height="48" viewBox="0 0 128 48" fill="none" xmlns="http://www.w3.org/2000/svg">
<g clip-path="url(#clip0_4361_26292)">
<mask id="mask0_4361_26292" style="mask-type:luminance" maskUnits="userSpaceOnUse" x="18" y="5" width="93" height="32">
<path d="M110.541 5H18V37H110.541V5Z" fill="white"/>
</mask>
<g mask="url(#mask0_4361_26292)">
<path d="M22.8902 29.0822C23.8233 28.6356 24.2959 28.039 24.2959 27.2882C24.2959 26.0711 23.2026 25.2531 21.212 25.2531H18C18.5126 25.6878 18.5567 26.1738 18.5567 26.8693V32.8283C18.5567 33.5198 18.5487 33.8676 18.5487 34.4564H21.0278C23.6832 34.4564 25.129 33.2867 25.129 31.552C25.133 30.3467 24.368 29.4892 22.8902 29.0822ZM20.0626 26.2292C20.4471 26.1501 20.7715 26.1106 21.0438 26.1106C22.1292 26.1106 22.742 26.6401 22.742 27.4937C22.742 28.4026 22.0611 28.9597 20.8276 28.9597C20.5873 28.9597 20.3389 28.9439 20.0626 28.9044V26.2292ZM21.2961 33.4724C21.0198 33.4724 20.5993 33.429 20.0626 33.3736V29.9081C20.5632 29.8291 20.9637 29.7895 21.2561 29.7895C22.6899 29.7895 23.6071 30.6194 23.6071 31.7021C23.6031 32.777 22.77 33.4724 21.2961 33.4724ZM31.2166 31.9353V30.3704C31.2166 29.3944 31.1325 28.7424 30.4517 28.2523C30.0191 27.9441 29.4624 27.7901 28.7936 27.7901C28.4732 27.7901 27.4519 27.8572 26.687 28.0785L26.6829 29.2718C27.3918 28.9281 27.9766 28.77 28.4451 28.77C29.3943 28.77 29.951 29.1534 29.951 29.6947C29.951 30.1847 29.5065 30.3585 28.4252 30.6036C27.4198 30.8367 26.6709 30.9276 26.1703 31.4215C25.8659 31.7337 25.7017 32.1408 25.7017 32.5873C25.7017 33.7293 26.5227 34.4959 28.0206 34.6105C28.6254 34.6579 30.3516 34.401 30.8362 34.3102C31.1005 34.3971 31.4289 34.4366 31.8334 34.4366L32.4022 33.5633C31.2406 33.4843 31.2166 33.1049 31.2166 31.9353ZM28.6374 33.6621C27.6962 33.6621 27.1155 33.1879 27.1155 32.5319C27.1155 31.6903 28.0326 31.5006 29.967 30.9829V32.8994C29.967 33.0971 29.983 33.2749 30.0191 33.429C29.6146 33.5198 28.8977 33.6621 28.6374 33.6621ZM79.5215 31.9353V30.3704C79.5215 29.3944 79.4374 28.7424 78.7565 28.2523C78.328 27.9441 77.7673 27.7901 77.1024 27.7901C76.786 27.7901 75.7567 27.8572 74.9917 28.0785L74.9838 29.2718C75.6926 28.9281 76.2774 28.77 76.75 28.77C77.6951 28.77 78.2518 29.1534 78.2518 29.6947C78.2518 30.1847 77.8073 30.3585 76.7219 30.6036C75.7167 30.8367 74.9677 30.9276 74.4671 31.4215C74.1587 31.7337 73.9945 32.1408 73.9945 32.5873C73.9945 33.7293 74.8195 34.4959 76.3134 34.6105C76.9182 34.6579 78.6444 34.401 79.129 34.3102C79.3933 34.3971 79.7217 34.4366 80.1263 34.4366L80.6949 33.5633C79.5495 33.4843 79.5215 33.1049 79.5215 31.9353ZM76.9502 33.6621C76.005 33.6621 75.4203 33.1879 75.4203 32.5319C75.4203 31.6903 76.3375 31.5006 78.2719 30.9829V32.8994C78.2719 33.0971 78.2879 33.2749 78.324 33.429C77.9274 33.5198 77.2026 33.6621 76.9502 33.6621ZM38.8903 33.2512V30.2242C38.8903 28.7858 37.845 27.8612 36.4152 27.8612C35.6182 27.8612 34.9573 28.2049 34.2845 28.8925L34.2925 28.0074C33.6837 28.0074 33.1711 28.0113 32.7105 28.0113H32.5584C32.9068 28.3117 33.0309 28.687 33.0309 29.2323V33.2551C33.0309 33.8004 33.0349 34.0691 33.0349 34.4642H34.7851C34.4407 34.1639 34.3165 33.8004 34.3165 33.2551V30.8525C34.3165 29.5327 34.7291 28.932 35.9666 28.932C37.1361 28.932 37.5967 29.5841 37.5967 30.9434V33.2512C37.5967 33.7965 37.6007 34.0494 37.6007 34.4603H39.3589C39.0145 34.16 38.8903 33.7965 38.8903 33.2512ZM45.2223 33.4724L42.9314 30.734L45.2143 28.0074H43.1837C43.3078 28.1852 43.38 28.3472 43.38 28.4855C43.38 28.6475 43.2358 28.9479 42.9314 29.3035L41.5416 30.8486V25.1583C40.8208 25.1583 40.3562 25.1543 39.9075 25.1543H39.7834C40.1319 25.4507 40.256 25.8222 40.256 26.3635V33.2472C40.256 33.7925 40.256 34.0375 40.256 34.4564H42.0102C41.6618 34.1561 41.5416 33.7925 41.5416 33.2472V30.8841L43.7044 33.666C44.0809 34.1718 44.3732 34.4564 44.8739 34.4564H46.2075C45.6789 33.9466 45.3344 33.6225 45.2223 33.4724ZM53.741 26.3279C52.6276 25.4547 51.4742 25.2531 49.9562 25.2531H46.6761C47.1927 25.6878 47.2168 26.1738 47.2168 26.8693V32.8283C47.2168 33.5198 47.2088 33.9783 47.2088 34.4564H49.5117C51.6264 34.4564 53.0722 34.0929 54.1575 32.935C54.9745 32.0696 55.3951 30.979 55.3951 29.7184C55.3951 28.3077 54.8224 27.1656 53.741 26.3279ZM50.2366 33.4922C49.8602 33.4922 49.3555 33.5198 48.7067 33.5198V26.2173H50.1365C52.4314 26.2173 53.8652 27.6992 53.8652 29.833C53.8652 31.9748 52.3232 33.4922 50.2366 33.4922ZM62.1035 33.2512V30.2242C62.1035 28.7858 61.0582 27.8612 59.6285 27.8612C58.8314 27.8612 58.1666 28.2049 57.4978 28.8925V25.1346C56.7688 25.1346 56.2842 25.1583 55.8957 25.1583H55.7716C56.116 25.4547 56.2481 25.826 56.2481 26.3675V33.2512C56.2481 33.7965 56.2642 34.16 56.2642 34.4603H57.9984C57.654 34.16 57.5258 33.7965 57.5258 33.2512V30.8486C57.5258 29.5287 57.9423 28.9281 59.1798 28.9281C60.3493 28.9281 60.8099 29.5801 60.8099 30.9395V33.2472C60.8099 33.7925 60.7979 34.1047 60.7979 34.4564H62.5802C62.2277 34.16 62.1035 33.7965 62.1035 33.2512ZM66.6653 27.7901C65.648 27.7901 64.6787 28.1694 63.9899 28.7937C63.273 29.4616 62.8845 30.327 62.8845 31.3109C62.8845 32.196 63.257 33.0496 63.9299 33.7016C64.6227 34.3813 65.4437 34.6816 66.485 34.6816C67.4983 34.6816 68.4756 34.3141 69.1564 33.6937C69.8774 33.0259 70.2538 32.1565 70.2538 31.1765C70.2538 30.2795 69.8894 29.4378 69.2245 28.7898C68.5276 28.1022 67.6946 27.7901 66.6653 27.7901ZM66.6372 33.7451C65.2875 33.7451 64.3424 32.6702 64.3424 31.0343C64.3424 29.7342 65.2475 28.7424 66.5131 28.7424C67.8347 28.7424 68.808 29.8291 68.808 31.3504C68.808 32.7651 67.9029 33.7451 66.6372 33.7451ZM70.0816 27.9836H70.0776C70.0255 27.9836 70.0336 27.9836 70.0816 27.9836ZM72.3364 33.2512V28.9479H74.0105V28.0113H72.3364V27.1815C72.3364 26.2726 72.5327 25.9683 73.2816 25.8774C73.4499 25.8577 73.6741 25.8577 73.9905 25.8577L73.9865 25.02C73.7262 24.9923 73.7542 24.9805 73.5179 24.9805C70.8105 24.9805 71.1149 26.0909 71.1149 27.9955C71.0749 27.9955 70.2658 27.9876 70.0816 27.9836C70.9266 28.1299 71.0589 28.9439 71.0589 28.9439V33.2472C71.0589 33.7925 71.0187 34.1047 71.0187 34.4564H72.809C72.4605 34.16 72.3364 33.7965 72.3364 33.2512ZM84.2274 27.873C83.5625 27.873 83.062 28.201 82.6574 28.8885L82.6614 27.9995C82.0367 27.9995 81.4999 28.0074 81.0434 28.0074H80.8912C81.2396 28.3077 81.3638 28.6831 81.3638 29.2284V33.2512C81.3638 33.7965 81.3558 34.077 81.3558 34.4603H83.114C82.7656 34.16 82.6414 33.7965 82.6414 33.2512V30.8486C82.6414 29.6394 83.1701 28.9992 84.1112 28.9992C84.3796 28.9992 84.5878 29.0663 84.7961 29.2166V27.9441C84.5918 27.9047 84.4116 27.873 84.2274 27.873Z" fill="#61B214"/>
<path d="M65.5199 16.4904H67.8748L67.6145 15.9451H66.7815C66.441 15.9451 66.2488 15.8344 66.2488 15.5579C66.2488 15.305 66.4371 15.1192 66.6854 15.1192H67.3062V14.5107H66.5852C65.9885 14.5107 65.6561 14.9849 65.6561 15.467C65.6561 15.6052 65.7001 15.7989 65.7922 15.953L65.5199 15.9609V16.4904ZM80.0382 13.8152C80.4627 13.8152 80.7511 13.5188 80.7511 13.1197C80.7511 12.7483 80.4628 12.4677 80.0982 12.4677C79.5375 12.4677 79.3734 12.8945 79.3734 13.1711C79.3734 13.5188 79.6457 13.8152 80.0382 13.8152ZM76.1934 13.8428V13.2343V12.2227H74.395V12.2425C74.8036 12.3373 74.9038 12.7562 74.9157 13.5544H74.9117V17.6759C74.9038 18.1106 74.4832 18.9364 73.0454 18.9641L59.6806 18.9443C58.9716 18.9443 58.2307 18.4188 58.2307 17.7115C58.2307 17.0831 58.7474 16.4588 59.3962 16.4588C59.3962 16.4588 60.2733 16.3521 60.5216 16.9448H60.5377V15.6645L59.4202 15.6685C58.1907 15.6645 57.2094 16.6209 57.2094 17.7945C57.2094 18.976 58.1867 19.9283 59.3882 19.9283L70.9307 19.9441C73.6221 19.9441 74.331 19.8295 75.1079 19.1854C75.3002 19.0234 75.4203 18.8416 75.5565 18.648C75.5565 18.648 75.5846 18.6124 75.6286 18.561C75.8009 18.8416 76.3335 20.0271 77.9555 19.9362C79.1251 19.869 79.6577 19.5568 80.0222 19.1182C80.3706 19.4976 81.2558 19.9718 82.2129 19.9362C84.2075 19.9244 84.7681 18.8654 84.7962 18.1066V15.5974V14.2894H83.0019V14.3092C83.4305 14.4079 83.5186 14.8545 83.5186 15.7278V17.826C83.5186 18.1026 83.3504 18.9325 82.245 18.9601C81.0235 19.0471 80.695 18.2252 80.663 17.9367V17.6838H80.667V17.2254C80.671 17.1977 80.671 15.8029 80.671 15.7792H80.667V14.7043H78.8727V14.724C79.2292 14.811 79.3533 15.1469 79.3813 15.7792H79.3773C79.3813 15.8898 79.3854 17.3795 79.3854 17.5178L79.3894 17.83C79.3894 18.1066 79.2091 18.972 77.9035 18.972C77.9035 18.972 76.3415 19.0984 76.1973 16.9685V13.8428H76.1934ZM81.9486 21.1691C81.9486 21.5169 82.2209 21.8053 82.6174 21.8053C83.038 21.8053 83.3263 21.5129 83.3263 21.1137C83.3263 20.7384 83.038 20.4578 82.6695 20.4578C82.1088 20.4617 81.9486 20.8885 81.9486 21.1691ZM76.1973 13.0525V13.2383V13.5465V13.0525ZM35.2257 12.3452C34.8252 12.3452 34.625 12.5665 34.5489 12.7917C34.5168 12.8787 34.5049 12.9735 34.5049 13.0525C34.5049 13.4003 34.7772 13.6927 35.1737 13.6927C35.5982 13.6927 35.8826 13.4003 35.8826 13.0012C35.8826 12.6218 35.5942 12.3452 35.2257 12.3452ZM50.5731 14.242C50.5731 14.5897 50.8494 14.8821 51.2419 14.8821C51.6624 14.8821 51.9508 14.5936 51.9508 14.1906C51.9508 13.8191 51.6665 13.5346 51.298 13.5346C50.7373 13.5346 50.5731 13.9654 50.5731 14.242ZM21.18 18.3635C21.18 18.3635 21.1961 16.6643 21.2001 16.5497H21.1881V15.4828H19.3938V15.4985C19.7543 15.5855 19.8784 15.9175 19.9064 16.5497C19.9145 16.6643 19.9064 18.814 19.9064 18.814C19.9064 20.201 19.1455 21.339 18.1763 21.339V21.4932C19.8384 21.4932 21.18 20.3432 21.18 18.3635ZM52.8679 19.9283C52.8679 19.9283 55.0787 20.3037 54.9786 17.8102C54.9786 16.4469 54.0334 15.3919 52.5595 15.3919L48.1581 15.3959C48.1581 15.3959 48.1581 15.3998 48.0739 15.3959L48.0019 15.4037V12.2188H46.2075V12.2346C46.568 12.3215 46.6922 12.6574 46.7162 13.2896V15.4037C46.7202 15.5065 46.7202 18.0197 46.7202 18.9483H37.016V15.5816C37.016 14.7359 37.1162 14.3605 37.5367 14.2578V14.1787H34.7011C33.4275 14.1787 32.3942 15.1824 32.3942 16.4232C32.3942 17.6641 33.4275 18.6559 34.7011 18.6559C35.1697 18.6559 35.5462 18.4859 35.8505 18.3081V18.9483H23.8354L23.8634 18.3753V13.665C23.8634 13.5267 23.8674 13.4042 23.8714 13.2896H23.8634L23.8594 12.2188H22.0652V12.2346C22.4256 12.3215 22.5458 12.6574 22.5778 13.2896C22.5818 13.4042 22.5858 13.5267 22.5858 13.665L22.5498 18.4899C22.5498 19.3633 22.4617 19.7544 22.0331 19.8493V19.9323H52.8679V19.9283ZM35.8586 16.3917C35.8465 16.9804 35.3579 17.4546 34.7532 17.4546C34.1444 17.4546 33.6478 16.9685 33.6478 16.3758C33.6478 15.7792 34.1444 15.297 34.7532 15.297L35.8586 15.2931V16.3917ZM47.9978 16.6524H51.8186C53.4527 16.4667 53.9374 17.1582 53.9374 17.7707C53.9374 18.3832 53.8011 18.8969 52.8679 18.9523H47.9978V16.6524Z" fill="#61B214"/>
<path d="M91.3645 36.9842C93.6114 37.2884 111.754 33.1946 109.635 22.1064C108.618 17.8546 103.996 16.507 103.199 16.507C104.461 9.5957 101.906 5 101.906 5C101.906 5 103.388 12.6384 100.933 16.3806C98.3173 16.3055 92.4058 18.6014 92.4058 18.6014C92.4058 18.6014 98.918 17.7123 100.027 18.0244C97.4201 22.3356 89.8506 24.7422 89.8506 24.7422C89.8506 24.7422 89.1538 28.4527 91.5047 28.2472C93.0146 27.7533 95.1252 26.6745 96.2266 25.9829C102.014 22.3514 102.595 18.4908 102.727 18.7595C102.887 19.0598 106.552 20.4626 105.106 24.9516C102.671 32.0723 89.5542 33.5621 89.5542 33.5621C89.5542 33.5621 89.1177 36.6839 91.3645 36.9842Z" fill="#61B214"/>
<path d="M108.197 12.1697C109.487 12.1697 110.54 11.1423 110.54 9.88172C110.54 8.61721 109.487 7.59375 108.197 7.59375C106.904 7.59375 105.854 8.61721 105.854 9.88172C105.854 11.1423 106.904 12.1697 108.197 12.1697Z" fill="#61B214"/>
</g>
</g>
<defs>
<clipPath id="clip0_4361_26292">
<rect width="92.5405" height="32" fill="white" transform="translate(18 5)"/>
</clipPath>
</defs>
</svg>
