<svg width="128" height="48" viewBox="0 0 128 48" fill="none" xmlns="http://www.w3.org/2000/svg">
<g clip-path="url(#clip0_4361_26318)">
<path d="M38.1039 42.3637L24.3411 33.4042C24.3411 33.4042 22.6152 32.4118 22.2201 30.5632C21.6651 27.9676 23.4945 25.7422 23.4945 25.7422L41.3562 37.3747C42.7341 38.2726 43.11 40.1098 42.2244 41.4955C41.3145 42.919 39.4449 43.2331 38.1033 42.3637H38.1039Z" fill="#38D200"/>
<path d="M25.0687 23.8225C25.0687 23.8225 22.9606 22.5496 22.9606 19.6054C22.9606 16.6714 25.0678 15.4141 25.0678 15.4141L32.5918 10.4899C33.2539 10.0703 34.0548 9.92871 34.8206 10.0958C35.5865 10.2629 36.2556 10.7251 36.6828 11.3823C37.11 12.0396 37.2609 12.8387 37.1027 13.6064C36.9445 14.3742 36.49 15.0486 35.8378 15.4834L29.4964 19.6126L40.3009 26.6494C40.3009 26.6494 42.2458 27.7636 42.6289 29.6446C43.1638 32.2687 41.3575 34.4308 41.3575 34.4308L25.0687 23.8225ZM25.0288 42.8389C25.735 42.8389 26.2378 42.6148 26.7283 42.2968L30.4012 39.9043L26.7283 37.5124C26.2333 37.1935 25.7137 36.9703 25.0288 36.9703C24.6399 36.9647 24.2538 37.0365 23.893 37.1815C23.5321 37.3265 23.2036 37.5417 22.9267 37.8147C22.6497 38.0878 22.4298 38.4131 22.2797 38.7719C22.1295 39.1307 22.0522 39.5157 22.0522 39.9046C22.0522 40.2935 22.1295 40.6785 22.2797 41.0373C22.4298 41.3961 22.6497 41.7214 22.9267 41.9945C23.2036 42.2675 23.5321 42.4827 23.893 42.6277C24.2538 42.7727 24.6399 42.8445 25.0288 42.8389Z" fill="#0473EA"/>
<path d="M39.2294 16.6797C38.5229 16.6797 38.0201 16.9038 37.5296 17.2215L33.8564 19.6137L37.5296 22.0059C38.0246 22.3251 38.5445 22.5483 39.2294 22.5483C39.6148 22.5483 39.9963 22.4724 40.3524 22.3249C40.7084 22.1775 41.0318 21.9613 41.3043 21.6889C41.5768 21.4164 41.7929 21.0929 41.9404 20.7369C42.0878 20.3809 42.1637 19.9993 42.1637 19.614C42.1637 19.2286 42.0878 18.8471 41.9404 18.4911C41.7929 18.1351 41.5768 17.8116 41.3043 17.5391C41.0318 17.2666 40.7084 17.0505 40.3524 16.903C39.9963 16.7556 39.6148 16.6797 39.2294 16.6797Z" fill="#38D200"/>
<path d="M54.51 33.5248C55.2867 33.5248 56.0109 33.3142 56.5767 32.827V33.9196C55.9446 34.354 55.1943 34.5382 54.4044 34.5382C52.4154 34.5382 51.0342 33.1558 51.0342 31.168C51.0342 29.1931 52.4559 27.811 54.4308 27.811C55.2075 27.811 55.9314 28.0351 56.5107 28.4692V29.6671C55.9974 29.1145 55.2867 28.8247 54.4965 28.8247C53.1141 28.8247 52.14 29.7859 52.14 31.1677C52.14 32.5501 53.1276 33.5248 54.51 33.5248ZM58.8279 34.42H57.7614V25.8724L58.8279 26.5315V29.0356C59.3151 28.2853 60.0918 27.8116 61.0791 27.8116C62.7117 27.8116 63.5805 29.0092 63.5805 30.6022V34.42H62.5011V30.7864C62.5011 29.5225 61.9482 28.8514 60.8157 28.8514C59.6178 28.8514 58.827 29.878 58.827 31.1683L58.8279 34.42ZM70.2024 33.3133C69.663 34.0768 68.8335 34.5376 67.8198 34.5376C65.9241 34.5376 64.5681 33.1291 64.5681 31.207C64.5681 29.2462 65.9241 27.8104 67.8198 27.8104C68.8335 27.8104 69.663 28.2844 70.2024 29.0614V27.9289H71.2821V34.4191H70.2024V33.3133ZM65.6739 31.1938C65.6739 32.5366 66.6087 33.5239 67.9251 33.5239C69.2547 33.5239 70.2024 32.5366 70.2024 31.1938C70.2024 29.8246 69.2547 28.8241 67.9251 28.8241C66.6087 28.825 65.6739 29.8252 65.6739 31.1947V31.1938ZM74.0073 34.42H72.9408V27.9298H74.0073V29.3119C74.5206 28.3507 75.3501 27.8113 76.377 27.8113V29.0356C75.0867 28.8514 74.0073 29.7202 74.0073 31.3261V34.42ZM87.3039 31.5895H82.1826C82.3407 32.7613 83.2623 33.538 84.5523 33.538C85.3818 33.538 86.1849 33.301 86.8695 32.8138V33.8407C86.1717 34.3147 85.3818 34.5385 84.5523 34.5385C82.5117 34.5385 81.051 33.2221 81.051 31.2331C81.051 29.2846 82.2885 27.8104 84.2502 27.8104C86.1195 27.8104 87.3441 29.1925 87.3441 31.0489C87.3444 31.2298 87.3309 31.4107 87.3039 31.5895ZM82.1958 30.7213H86.2113C86.106 29.6152 85.4082 28.7992 84.2628 28.7992C83.0778 28.7986 82.3668 29.6281 82.1958 30.7207V30.7213ZM89.5815 34.42H88.515V27.9298H89.5815V29.3119C90.0948 28.3507 90.924 27.8113 91.9509 27.8113V29.0356C90.6612 28.8514 89.5815 29.7202 89.5815 31.3261V34.42ZM98.2836 31.5895H93.1626C93.3201 32.7613 94.242 33.538 95.532 33.538C96.3615 33.538 97.1646 33.301 97.8492 32.8138V33.8407C97.1514 34.3147 96.3615 34.5385 95.532 34.5385C93.4914 34.5385 92.0307 33.2221 92.0307 31.2331C92.0307 29.2846 93.2679 27.8104 95.2296 27.8104C97.0989 27.8104 98.3232 29.1925 98.3232 31.0489C98.3237 31.2298 98.3104 31.4105 98.2836 31.5895ZM93.1758 30.7213H97.1907C97.0854 29.6152 96.3876 28.7992 95.2425 28.7992C94.0578 28.7986 93.3474 29.6281 93.1758 30.7207V30.7213ZM104.685 33.3055C104.159 34.0825 103.316 34.5562 102.302 34.5562C100.406 34.5562 99.0504 33.1474 99.0504 31.2253C99.0504 29.2645 100.406 27.8287 102.302 27.8287C103.316 27.8287 104.159 28.3162 104.685 29.1058V25.8739L105.765 26.5333V34.4197H104.685V33.3055ZM100.156 31.2124C100.156 32.5552 101.091 33.5428 102.408 33.5428C103.737 33.5428 104.685 32.5552 104.685 31.2124C104.685 29.8432 103.737 28.8427 102.408 28.8427C101.091 28.8427 100.156 29.8426 100.156 31.2124ZM78.2403 32.2627C78.2403 33.1711 78.7932 33.5266 79.491 33.5266C80.033 33.5319 80.5628 33.366 81.0051 33.0526V34.0927C80.5569 34.4218 79.9386 34.5535 79.3989 34.5535C78.0165 34.5535 77.1738 33.9346 77.1738 32.1835V25.8709L78.2403 26.53V32.2627ZM79.9641 27.8449C79.8733 27.786 79.7719 27.7456 79.6656 27.7259C79.5592 27.7063 79.45 27.7078 79.3443 27.7303C79.2385 27.7528 79.1382 27.796 79.0491 27.8573C78.96 27.9186 78.8838 27.9968 78.825 28.0876C78.7661 28.1783 78.7257 28.2797 78.7061 28.3861C78.6864 28.4924 78.6879 28.6016 78.7104 28.7074C78.733 28.8132 78.7761 28.9135 78.8374 29.0026C78.8987 29.0917 78.9769 29.1678 79.0677 29.2267L79.0905 29.2411C79.2229 29.3259 79.3769 29.371 79.5342 29.371C79.6915 29.371 79.8454 29.3259 79.9779 29.2411L81.0384 28.561L79.9641 27.8449ZM53.2593 24.1654C54.0225 24.1654 54.5757 23.8363 54.5757 23.2438C54.5757 22.8883 54.3915 22.612 53.9034 22.4143L52.3629 21.7957C51.573 21.4534 51.1386 21.0058 51.1386 20.1631C51.1386 19.0309 52.047 18.3199 53.3634 18.3199C54.1266 18.3199 54.8376 18.5305 55.338 18.9124V20.0329C54.7458 19.5061 54.0213 19.2034 53.3772 19.2034C52.6923 19.2034 52.2051 19.5193 52.2051 20.0461C52.2051 20.4409 52.3896 20.6779 52.9032 20.8753L54.4437 21.4942C55.2729 21.8497 55.6551 22.3498 55.6551 23.0476C55.6551 24.2851 54.6543 25.0486 53.2461 25.0486C52.3899 25.0486 51.6132 24.8116 51.0474 24.3907V23.2306C51.7317 23.8756 52.4955 24.1654 53.2593 24.1654ZM57.6828 22.7566C57.6828 23.665 58.2354 24.0205 58.9335 24.0205C59.475 24.0253 60.0042 23.8595 60.4461 23.5465V24.5866C59.9979 24.9157 59.3793 25.0474 58.8396 25.0474C57.4572 25.0474 56.6151 24.4288 56.6151 22.6777V17.0194L57.6813 16.3594L57.6828 22.7566ZM66.411 23.8228C65.8713 24.5866 65.0418 25.0474 64.0281 25.0474C62.1324 25.0474 60.7764 23.6389 60.7764 21.7165C60.7764 19.7557 62.1324 18.3199 64.0281 18.3199C65.0418 18.3199 65.8713 18.7939 66.411 19.5709V18.4393H67.4907V24.9289H66.411V23.8228ZM61.8822 21.7036C61.8822 23.0464 62.817 24.0337 64.1334 24.0337C65.4633 24.0337 66.411 23.0464 66.411 21.7036C66.411 20.3344 65.4633 19.3336 64.1334 19.3336C62.817 19.3336 61.8822 20.3344 61.8822 21.7036ZM70.2156 24.9289H69.1491V18.4393H70.2156V19.5451C70.7028 18.7948 71.4795 18.3208 72.4668 18.3208C74.0994 18.3208 74.9682 19.519 74.9682 21.112V24.9298H73.8888V21.2965C73.8888 20.0326 73.3359 19.3612 72.2037 19.3612C71.0055 19.3612 70.2147 20.3881 70.2147 21.6784L70.2156 24.9289ZM81.5904 23.7967C81.0639 24.5737 80.2212 25.0477 79.2075 25.0477C77.3118 25.0477 75.9558 23.6389 75.9558 21.7165C75.9558 19.7557 77.3118 18.3199 79.2075 18.3199C80.2212 18.3199 81.0639 18.8071 81.5904 19.597V17.0185L82.6701 16.3594V24.9289H81.5904V23.7967ZM77.0616 21.7036C77.0616 23.0464 77.9964 24.0337 79.3128 24.0337C80.6427 24.0337 81.5904 23.0464 81.5904 21.7036C81.5904 20.3344 80.6427 19.3336 79.3128 19.3336C77.9973 19.3336 77.0616 20.3344 77.0616 21.7036ZM101.338 23.7967C100.812 24.5737 99.9693 25.0477 98.9556 25.0477C97.0596 25.0477 95.7036 23.6389 95.7036 21.7165C95.7036 19.7557 97.0596 18.3199 98.9556 18.3199C99.9693 18.3199 100.812 18.8071 101.338 19.597V17.0185L102.418 16.3594V24.9289H101.338V23.7967ZM96.8097 21.7036C96.8097 23.0464 97.7442 24.0337 99.0609 24.0337C100.39 24.0337 101.338 23.0464 101.338 21.7036C101.338 20.3344 100.39 19.3336 99.0609 19.3336C97.7451 19.3336 96.8097 20.3344 96.8097 21.7036ZM89.4633 23.8228C88.9236 24.5866 88.0941 25.0474 87.0804 25.0474C85.1847 25.0474 83.8287 23.6389 83.8287 21.7165C83.8287 19.7557 85.1847 18.3199 87.0804 18.3199C88.0941 18.3199 88.9236 18.7939 89.4633 19.5709V18.4393H90.543V24.9289H89.4633V23.8228ZM84.9345 21.7036C84.9345 23.0464 85.8693 24.0337 87.1857 24.0337C88.5153 24.0337 89.4633 23.0464 89.4633 21.7036C89.4633 20.3344 88.5153 19.3336 87.1857 19.3336C85.8684 19.3336 84.9345 20.3344 84.9345 21.7036ZM93.2679 24.9289H92.2014V18.4393H93.2679V19.8217C93.7812 18.8605 94.6107 18.3208 95.6376 18.3208V19.5451C94.3473 19.3609 93.2679 20.2297 93.2679 21.8359V24.9289ZM59.1858 19.8217C59.2996 19.8959 59.43 19.9408 59.5654 19.9524C59.7008 19.9641 59.8369 19.942 59.9617 19.8883C60.0865 19.8346 60.1961 19.7509 60.2807 19.6446C60.3653 19.5382 60.4223 19.4127 60.4467 19.279C60.4661 19.1722 60.4642 19.0625 60.4411 18.9565C60.4179 18.8504 60.3739 18.75 60.3117 18.661C60.2496 18.572 60.1706 18.4961 60.0792 18.4378L60.0564 18.4237C59.9236 18.3393 59.7695 18.2948 59.6122 18.2953C59.455 18.2958 59.3011 18.3414 59.169 18.4267L58.1091 19.1092L59.1858 19.8217Z" fill="#525355"/>
</g>
<defs>
<clipPath id="clip0_4361_26318">
<rect width="84" height="33" fill="white" transform="translate(22 10)"/>
</clipPath>
</defs>
</svg>
