<?xml version="1.0" encoding="utf-8"?>
<!-- Generator: Adobe Illustrator 25.4.1, SVG Export Plug-In . SVG Version: 6.00 Build 0)  -->
<svg version="1.1" id="Layer_1" xmlns="http://www.w3.org/2000/svg" xmlns:xlink="http://www.w3.org/1999/xlink" x="0px" y="0px"
	 width="128px" height="48px" viewBox="0 0 128 48" style="enable-background:new 0 0 128 48;" xml:space="preserve">
<style type="text/css">
	.st0{clip-path:url(#SVGID_00000073688373430345440270000008642481605712461714_);}
	.st1{fill:url(#Vector_00000134244528886979894260000017331951414551189122_);}
	.st2{fill:url(#Vector_2_00000090284261926930209960000007888156038962049928_);}
	.st3{fill:#F06E30;}
</style>
<g id="Type_x3D_Bank_x2C__Name_x3D_Sohar_x2C__Color_x3D_Original">
	<g>
		<defs>
			<rect id="SVGID_1_" x="26" y="5" width="76.7" height="38"/>
		</defs>
		<clipPath id="SVGID_00000022542804902211456080000006745316342294884246_">
			<use xlink:href="#SVGID_1_"  style="overflow:visible;"/>
		</clipPath>
		
			<g id="Layer_1_00000145050725154303237070000010840539083125811901_" style="clip-path:url(#SVGID_00000022542804902211456080000006745316342294884246_);">
			
				<linearGradient id="Vector_00000073722688581391430880000009109228850204298371_" gradientUnits="userSpaceOnUse" x1="29.8792" y1="17.6788" x2="39.1031" y2="37.456" gradientTransform="matrix(1 0 0 -1 0 47.8898)">
				<stop  offset="0" style="stop-color:#645959"/>
				<stop  offset="0.1" style="stop-color:#7B7272"/>
				<stop  offset="0.29" style="stop-color:#9E9797"/>
				<stop  offset="0.47" style="stop-color:#BAB4B4"/>
				<stop  offset="0.65" style="stop-color:#CDC8C8"/>
				<stop  offset="0.83" style="stop-color:#D9D5D5"/>
				<stop  offset="1" style="stop-color:#DDD9D9"/>
			</linearGradient>
			
				<path id="Vector_00000088822803067566639160000017606927136446693528_" style="fill:url(#Vector_00000073722688581391430880000009109228850204298371_);" d="
				M38.7,5.1c-3.5,0.3-6.8,1.9-9.1,4.5c-2.4,2.6-3.6,6.1-3.5,9.6c0.1,3.5,1.5,6.9,4,9.4s5.8,4,9.4,4.1L38.7,5.1z"/>
			
				<linearGradient id="Vector_2_00000170259415517810108680000011728597829254448554_" gradientUnits="userSpaceOnUse" x1="50.6161" y1="29.6438" x2="38.241" y2="8.2135" gradientTransform="matrix(1 0 0 -1 0 47.8898)">
				<stop  offset="0" style="stop-color:#645959"/>
				<stop  offset="0.1" style="stop-color:#7B7272"/>
				<stop  offset="0.29" style="stop-color:#9E9797"/>
				<stop  offset="0.47" style="stop-color:#BAB4B4"/>
				<stop  offset="0.65" style="stop-color:#CDC8C8"/>
				<stop  offset="0.83" style="stop-color:#D9D5D5"/>
				<stop  offset="1" style="stop-color:#DDD9D9"/>
			</linearGradient>
			
				<path id="Vector_2_00000011020601151920265080000011152935411187512453_" style="fill:url(#Vector_2_00000170259415517810108680000011728597829254448554_);" d="
				M40.8,15.4L40,43c3.6,0,7-1.5,9.5-4c2.5-2.5,4-5.9,4.1-9.5c0.1-3.6-1.2-7-3.6-9.7C47.7,17.2,44.3,15.6,40.8,15.4z"/>
			<path id="Vector_3_00000108287895051577512980000017310916026470113697_" class="st3" d="M39.8,5c-0.4,0-0.8,0-1.2,0.1l1,37.9
				h0.4l1-37.9C40.6,5,40.2,5,39.8,5z"/>
			<path id="Vector_4_00000122709247419892688310000013916602430523488412_" d="M64.4,19.8c-0.5-0.3-1.1-0.6-1.7-0.8
				c-1.2-0.5-2.2-0.9-2.2-1.9c0-0.9,0.9-1.5,1.8-1.5c0.5,0,0.9,0.1,1.4,0.3c0.2,0.1,0.5,0.2,0.7,0.1c0.3-0.1,0.5-0.2,0.6-0.4
				l0.5-0.6L65.4,15c-0.9-0.8-2-1.2-3.2-1.2c-2,0-3.6,1.4-3.6,3.2c0,1.1,0.5,2,1.5,2.7c0.5,0.3,1.1,0.6,1.6,0.8
				c1.2,0.5,2.3,1,2.3,2.1c0,0.9-0.8,1.6-1.9,1.6c-1.3,0-2.2-0.8-2.8-1.5l-0.1-0.1L58,23.9L58,24c0.5,0.6,1.1,1.1,1.9,1.5
				c0.7,0.3,1.5,0.5,2.3,0.5c2.2,0,3.7-1.5,3.7-3.5C65.9,21.4,65.4,20.5,64.4,19.8z"/>
			<path id="Vector_5_00000104679221274969469580000016085284641324665263_" d="M71.4,17.6c-0.8,0-1.6,0.2-2.3,0.7
				c-0.7,0.5-1.2,1.1-1.6,1.9c-0.3,0.8-0.4,1.6-0.3,2.4c0.2,0.8,0.5,1.6,1.1,2.2c0.6,0.6,1.3,1,2.1,1.2c0.8,0.2,1.7,0.1,2.4-0.2
				c0.8-0.3,1.4-0.8,1.9-1.5c0.5-0.7,0.7-1.5,0.7-2.3v0c0-1.1-0.4-2.1-1.1-2.9c-0.7-0.8-1.8-1.2-2.9-1.3H71.4z M71.4,24.3
				c-1.4,0-2.4-1.1-2.4-2.5c0-1.4,1-2.5,2.4-2.5s2.4,1.1,2.4,2.5S72.8,24.3,71.4,24.3z"/>
			<path id="Vector_6_00000036963797712503936060000013955111291817916085_" d="M81.4,17.6c-0.8,0-1.6,0.3-2.2,0.7v-3
				c0-0.4-0.2-0.8-0.5-1.1s-0.7-0.5-1.2-0.5h-0.1v12.1h1.8v-5.5c0.3-0.3,0.6-0.6,1-0.8c0.4-0.2,0.8-0.3,1.2-0.3
				c0.3,0,0.6,0.1,0.9,0.2c0.3,0.1,0.5,0.3,0.7,0.5c0.2,0.3,0.4,0.7,0.4,1.8v4h1.8v-3.9c0-1.3-0.2-2.2-0.8-2.9
				c-0.3-0.4-0.8-0.8-1.3-1.1C82.6,17.7,82,17.6,81.4,17.6z"/>
			<path id="Vector_7_00000178924594645085780410000006391455340840887959_" d="M102.4,17.7c-0.2,0-0.4-0.1-0.6-0.1
				c-0.4,0-0.9,0.1-1.3,0.2c-0.4,0.2-0.8,0.4-1.1,0.7c-0.1-0.3-0.3-0.6-0.6-0.8c-0.3-0.2-0.6-0.3-1-0.3h-0.1v8.4h1.8v-5.3
				c0.2-0.4,0.5-0.7,0.9-0.9c0.4-0.2,0.8-0.3,1.2-0.4c0.2,0,0.4,0,0.6,0.1l0.1,0L102.4,17.7L102.4,17.7z"/>
			<path id="Vector_8_00000114753131518349295780000000996594184438713255_" d="M93.5,18.5c-0.7-0.6-1.6-0.9-2.4-0.8
				c-0.7,0-1.4,0.2-2,0.5c-0.6,0.4-1.2,0.9-1.5,1.6c-0.4,0.6-0.6,1.4-0.6,2.1c0,0.7,0.2,1.5,0.5,2.1c0.4,0.6,0.9,1.2,1.5,1.6
				c0.6,0.3,1.3,0.5,2,0.5c0.8,0,1.7-0.3,2.3-0.8v0.6h1.7v-8.4H95c-0.3,0-0.6,0.1-0.9,0.3C93.8,17.9,93.6,18.2,93.5,18.5z
				 M93.3,20.4v2.9c-0.2,0.3-0.5,0.6-0.9,0.8c-0.4,0.2-0.7,0.3-1.1,0.3c-0.3,0-0.6-0.1-0.9-0.2c-0.3-0.1-0.6-0.3-0.8-0.5
				c-0.2-0.2-0.4-0.5-0.5-0.8c-0.1-0.3-0.2-0.6-0.2-0.9v-0.1c0-0.6,0.2-1.3,0.6-1.7c0.4-0.5,1-0.7,1.7-0.8h0.1
				c0.4,0,0.8,0.1,1.2,0.3C92.7,19.8,93.1,20.1,93.3,20.4z"/>
			<g id="international_00000125602102817731378300000006417038781511123073_">
				<path d="M59,29.2c-0.1,0-0.1,0-0.2-0.1s-0.1-0.1-0.1-0.2c0-0.1,0-0.1,0.1-0.2c0.1-0.1,0.1-0.1,0.2-0.1s0.1,0,0.2,0.1
					c0.1,0.1,0.1,0.1,0.1,0.2c0,0.1,0,0.1-0.1,0.2C59.1,29.2,59.1,29.2,59,29.2z M59.2,29.8v3h-0.4v-3H59.2z"/>
				<path d="M62.2,29.7c0.4,0,0.7,0.1,0.9,0.3c0.2,0.2,0.3,0.5,0.3,1v1.8H63v-1.7c0-0.3-0.1-0.6-0.2-0.8c-0.2-0.2-0.4-0.3-0.7-0.3
					c-0.3,0-0.5,0.1-0.7,0.3c-0.2,0.2-0.3,0.5-0.3,0.8v1.6h-0.4v-3h0.4v0.5c0.1-0.2,0.2-0.3,0.4-0.4C61.8,29.8,62,29.7,62.2,29.7z"
					/>
				<path d="M65.5,30.1V32c0,0.2,0,0.3,0.1,0.4c0.1,0.1,0.2,0.1,0.4,0.1h0.4v0.3h-0.4c-0.3,0-0.5-0.1-0.6-0.2
					c-0.1-0.1-0.2-0.3-0.2-0.6v-1.9h-0.4v-0.3h0.4V29h0.4v0.8h0.8v0.3H65.5z"/>
				<path d="M70.4,31.1c0,0.1,0,0.2,0,0.3h-2.5c0,0.2,0.1,0.4,0.2,0.6c0.1,0.2,0.2,0.3,0.4,0.4c0.2,0.1,0.3,0.1,0.5,0.1
					c0.3,0,0.5-0.1,0.6-0.2c0.2-0.1,0.3-0.3,0.3-0.5h0.4c-0.1,0.3-0.2,0.5-0.5,0.7c-0.2,0.2-0.5,0.3-0.9,0.3c-0.3,0-0.5-0.1-0.8-0.2
					c-0.2-0.1-0.4-0.3-0.5-0.5c-0.1-0.2-0.2-0.5-0.2-0.8c0-0.3,0.1-0.6,0.2-0.8c0.1-0.2,0.3-0.4,0.5-0.5c0.2-0.1,0.5-0.2,0.8-0.2
					s0.5,0.1,0.8,0.2c0.2,0.1,0.4,0.3,0.5,0.5C70.4,30.7,70.4,30.9,70.4,31.1z M70,31.1c0-0.2,0-0.4-0.1-0.6
					c-0.1-0.2-0.2-0.3-0.4-0.4s-0.3-0.1-0.5-0.1c-0.3,0-0.5,0.1-0.7,0.3c-0.2,0.2-0.3,0.4-0.3,0.8H70z"/>
				<path d="M72.2,30.3c0.1-0.2,0.2-0.3,0.4-0.4c0.2-0.1,0.4-0.2,0.6-0.2v0.4h-0.1c-0.3,0-0.5,0.1-0.7,0.2s-0.3,0.4-0.3,0.8v1.7
					h-0.4v-3h0.4V30.3z"/>
				<path d="M76,29.7c0.4,0,0.7,0.1,0.9,0.3c0.2,0.2,0.3,0.5,0.3,1v1.8h-0.4v-1.7c0-0.3-0.1-0.6-0.2-0.8c-0.2-0.2-0.4-0.3-0.7-0.3
					c-0.3,0-0.5,0.1-0.7,0.3C75,30.5,75,30.8,75,31.2v1.6h-0.4v-3H75v0.5c0.1-0.2,0.2-0.3,0.4-0.4C75.5,29.8,75.8,29.7,76,29.7z"/>
				<path d="M78.6,31.3c0-0.3,0.1-0.6,0.2-0.8c0.1-0.2,0.3-0.4,0.5-0.5c0.2-0.1,0.5-0.2,0.7-0.2c0.3,0,0.5,0.1,0.7,0.2
					c0.2,0.1,0.4,0.3,0.5,0.5v-0.7h0.4v3h-0.4v-0.7c-0.1,0.2-0.2,0.4-0.5,0.5c-0.2,0.1-0.5,0.2-0.7,0.2c-0.3,0-0.5-0.1-0.7-0.2
					c-0.2-0.1-0.4-0.3-0.5-0.5C78.7,31.9,78.6,31.6,78.6,31.3z M81.2,31.3c0-0.2,0-0.5-0.1-0.6c-0.1-0.2-0.2-0.3-0.4-0.4
					c-0.2-0.1-0.4-0.1-0.6-0.1c-0.2,0-0.4,0-0.6,0.1c-0.2,0.1-0.3,0.2-0.4,0.4C79,30.8,79,31,79,31.3c0,0.2,0,0.5,0.1,0.7
					c0.1,0.2,0.2,0.3,0.4,0.4c0.2,0.1,0.4,0.1,0.6,0.1c0.2,0,0.4,0,0.6-0.1c0.2-0.1,0.3-0.2,0.4-0.4S81.2,31.5,81.2,31.3z"/>
				<path d="M83.7,30.1V32c0,0.2,0,0.3,0.1,0.4c0.1,0.1,0.2,0.1,0.4,0.1h0.4v0.3h-0.4c-0.3,0-0.5-0.1-0.6-0.2
					c-0.1-0.1-0.2-0.3-0.2-0.6v-1.9h-0.4v-0.3h0.4V29h0.4v0.8h0.8v0.3H83.7z"/>
				<path d="M86.1,29.2c-0.1,0-0.1,0-0.2-0.1s-0.1-0.1-0.1-0.2c0-0.1,0-0.1,0.1-0.2c0.1-0.1,0.1-0.1,0.2-0.1s0.1,0,0.2,0.1
					c0.1,0.1,0.1,0.1,0.1,0.2c0,0.1,0,0.1-0.1,0.2C86.3,29.2,86.2,29.2,86.1,29.2z M86.3,29.8v3h-0.4v-3H86.3z"/>
				<path d="M89.2,32.9c-0.3,0-0.5-0.1-0.8-0.2c-0.2-0.1-0.4-0.3-0.5-0.5c-0.1-0.2-0.2-0.5-0.2-0.8c0-0.3,0.1-0.6,0.2-0.8
					c0.1-0.2,0.3-0.4,0.5-0.5c0.2-0.1,0.5-0.2,0.8-0.2c0.3,0,0.5,0.1,0.8,0.2c0.2,0.1,0.4,0.3,0.5,0.5c0.1,0.2,0.2,0.5,0.2,0.8
					c0,0.3-0.1,0.6-0.2,0.8c-0.1,0.2-0.3,0.4-0.5,0.5C89.8,32.8,89.5,32.9,89.2,32.9z M89.2,32.5c0.2,0,0.4,0,0.6-0.1
					c0.2-0.1,0.3-0.2,0.4-0.4c0.1-0.2,0.2-0.4,0.2-0.7s-0.1-0.5-0.2-0.7c-0.1-0.2-0.2-0.3-0.4-0.4c-0.2-0.1-0.4-0.1-0.6-0.1
					c-0.2,0-0.4,0-0.6,0.1c-0.2,0.1-0.3,0.2-0.4,0.4c-0.1,0.2-0.1,0.4-0.1,0.7s0,0.5,0.1,0.7c0.1,0.2,0.2,0.3,0.4,0.4
					C88.8,32.5,89,32.5,89.2,32.5z"/>
				<path d="M93.6,29.7c0.4,0,0.7,0.1,0.9,0.3c0.2,0.2,0.3,0.5,0.3,1v1.8h-0.4v-1.7c0-0.3-0.1-0.6-0.2-0.8c-0.2-0.2-0.4-0.3-0.7-0.3
					c-0.3,0-0.5,0.1-0.7,0.3c-0.2,0.2-0.3,0.5-0.3,0.8v1.6h-0.4v-3h0.4v0.5c0.1-0.2,0.2-0.3,0.4-0.4C93.1,29.8,93.3,29.7,93.6,29.7z
					"/>
				<path d="M96.2,31.3c0-0.3,0.1-0.6,0.2-0.8c0.1-0.2,0.3-0.4,0.5-0.5c0.2-0.1,0.5-0.2,0.7-0.2c0.3,0,0.5,0.1,0.7,0.2
					c0.2,0.1,0.4,0.3,0.5,0.5v-0.7h0.4v3h-0.4v-0.7c-0.1,0.2-0.2,0.4-0.5,0.5c-0.2,0.1-0.5,0.2-0.7,0.2c-0.3,0-0.5-0.1-0.7-0.2
					c-0.2-0.1-0.4-0.3-0.5-0.5C96.3,31.9,96.2,31.6,96.2,31.3z M98.8,31.3c0-0.2,0-0.5-0.1-0.6c-0.1-0.2-0.2-0.3-0.4-0.4
					c-0.2-0.1-0.4-0.1-0.6-0.1c-0.2,0-0.4,0-0.6,0.1c-0.2,0.1-0.3,0.2-0.4,0.4c-0.1,0.2-0.1,0.4-0.1,0.6c0,0.2,0,0.5,0.1,0.7
					c0.1,0.2,0.2,0.3,0.4,0.4c0.2,0.1,0.4,0.1,0.6,0.1c0.2,0,0.4,0,0.6-0.1c0.2-0.1,0.3-0.2,0.4-0.4S98.8,31.5,98.8,31.3z"/>
				<path d="M101.2,28.7v4.1h-0.4v-4.1H101.2z"/>
			</g>
		</g>
	</g>
</g>
</svg>
