<svg width="128" height="48" viewBox="0 0 128 48" fill="none" xmlns="http://www.w3.org/2000/svg">
<g id="Type=Bank, Name=Sohar, Color=Mono">
<g id="Layer_1" clip-path="url(#clip0_4361_26330)">
<path id="Vector" d="M38.6613 5.05469C35.1485 5.3505 31.8815 6.97759 29.529 9.60299C27.1764 12.2284 25.9161 15.6536 26.006 19.1777C26.0958 22.7018 27.5291 26.0583 30.0124 28.5604C32.4957 31.0625 35.8414 32.5209 39.3647 32.6373L38.6613 5.05469Z" fill="#002A52"/>
<path id="Vector_2" d="M40.7527 15.3906L40.0493 42.9991C43.6197 42.9491 47.0322 41.5191 49.5715 39.0087C52.1109 36.4983 53.58 33.1025 53.6709 29.5329C53.7618 25.9633 52.4676 22.4971 50.0594 19.8607C47.6511 17.2243 44.3159 15.6223 40.7527 15.3906Z" fill="#002A52"/>
<path id="Vector_3" d="M39.8408 5C39.4422 5 39.0506 5.0211 38.6685 5.05393L39.6321 43H40.0612L41.0178 5.05627C40.6286 5.0211 40.237 5 39.8408 5Z" fill="#6D91B2"/>
<path id="Vector_4" d="M64.3659 19.7633C63.8221 19.43 63.2492 19.1467 62.6543 18.9169C61.503 18.4292 60.4175 17.979 60.4175 17.0411C60.4175 16.1033 61.3413 15.5757 62.251 15.5757C62.7263 15.5756 63.1945 15.6907 63.6156 15.911C63.8455 16.0284 64.1088 16.0634 64.3615 16.01C64.6141 15.9567 64.8408 15.8183 65.0036 15.6179L65.4726 15.0388L65.3928 14.9731C64.5028 14.2008 63.3637 13.7761 62.1853 13.7773C60.1408 13.7773 58.537 15.1841 58.537 16.9919C58.537 18.0845 59.0529 18.9802 60.0728 19.6507C60.5933 19.97 61.1428 20.2393 61.7141 20.455C62.9122 20.9497 64.0423 21.4163 64.0423 22.5652C64.0423 23.503 63.2123 24.2064 62.108 24.2064C60.8067 24.2064 59.8805 23.4092 59.3319 22.741L59.2592 22.6519L57.9556 23.9274L58.0165 24.0001C58.5189 24.6237 59.155 25.1266 59.8778 25.4715C60.6005 25.8165 61.3915 25.9947 62.1924 25.9931C64.3542 25.9931 65.9227 24.523 65.9227 22.4972C65.9321 21.3788 65.4046 20.4503 64.3659 19.7633Z" fill="#002A52"/>
<path id="Vector_5" d="M71.4467 17.6251C70.6162 17.6182 69.8023 17.8577 69.1079 18.3134C68.4135 18.769 67.8699 19.4203 67.5456 20.1849C67.2214 20.9496 67.1312 21.7932 67.2864 22.6091C67.4416 23.425 67.8353 24.1765 68.4176 24.7687C68.9999 25.3609 69.7448 25.767 70.558 25.9359C71.3711 26.1048 72.2161 26.0287 72.9861 25.7173C73.756 25.4059 74.4164 24.8732 74.8836 24.1866C75.3508 23.4999 75.6039 22.6901 75.6108 21.8596V21.8174C75.6379 20.733 75.2333 19.6822 74.4858 18.8961C73.7384 18.1099 72.7093 17.6528 71.6249 17.6251H71.4467ZM71.4467 24.3074C70.0962 24.3074 69.0763 23.2406 69.0763 21.8221C69.0763 20.4036 70.0962 19.3368 71.4467 19.3368C72.7972 19.3368 73.8148 20.4106 73.8148 21.8174C73.8148 23.2242 72.7972 24.3074 71.4467 24.3074Z" fill="#002A52"/>
<path id="Vector_6" d="M81.4348 17.6242C80.6403 17.6258 79.8679 17.885 79.2331 18.3627V15.3686C79.2063 14.939 79.0168 14.5357 78.7032 14.2408C78.3896 13.9459 77.9754 13.7816 77.545 13.7812H77.4395V25.8539H79.2355V20.3885C79.4953 20.0662 79.8227 19.8048 80.1946 19.6229C80.5666 19.441 80.9739 19.343 81.3879 19.3358C81.6829 19.3337 81.9747 19.3982 82.2414 19.5244C82.5081 19.6507 82.7429 19.8354 82.9283 20.065C83.1628 20.351 83.3715 20.7684 83.3715 21.8211V25.8539H85.1675V21.9055C85.1675 20.6066 84.933 19.7531 84.3773 19.0497C84.0285 18.6029 83.5818 18.2421 83.0717 17.995C82.5616 17.7478 82.0016 17.621 81.4348 17.6242Z" fill="#002A52"/>
<path id="Vector_7" d="M102.378 17.6751C102.167 17.6403 101.953 17.6231 101.74 17.6235C101.308 17.6105 100.878 17.6891 100.479 17.854C100.08 18.0188 99.7201 18.2663 99.4233 18.5801C99.3025 18.2596 99.0866 17.9837 98.8046 17.7893C98.5226 17.5948 98.1879 17.4912 97.8454 17.4922H97.7422V25.8533H99.5382V20.5801C99.7461 20.2223 100.039 19.9215 100.391 19.7043C100.744 19.487 101.144 19.3602 101.557 19.3351C101.756 19.3291 101.955 19.3504 102.148 19.3984L102.263 19.4312L102.474 17.6915L102.378 17.6751Z" fill="#002A52"/>
<path id="Vector_8" d="M93.4517 18.4629C92.763 17.9032 91.8982 17.6058 91.0109 17.6235C90.3185 17.6154 89.6367 17.7936 89.0367 18.1393C88.4057 18.5219 87.8836 19.0604 87.5208 19.703C87.1579 20.3457 86.9665 21.0708 86.9649 21.8088C86.9632 22.5468 87.1514 23.2728 87.5114 23.917C87.8713 24.5613 88.391 25.1021 89.0203 25.4875C89.638 25.8355 90.3348 26.0188 91.0438 26.0197C91.8806 26.03 92.6968 25.7601 93.3626 25.253V25.8533H95.1094V17.4688H95.0062C94.6795 17.4698 94.3598 17.5638 94.0845 17.7399C93.8092 17.9159 93.5897 18.1667 93.4517 18.4629ZM93.3134 20.3855V23.2577C93.0746 23.5779 92.7654 23.8389 92.4096 24.0206C92.0539 24.2024 91.6612 24.2999 91.2618 24.3058C90.9379 24.3104 90.6162 24.2512 90.3152 24.1316C90.0141 24.0119 89.7396 23.8341 89.5073 23.6083C89.275 23.3825 89.0894 23.1132 88.9612 22.8157C88.833 22.5182 88.7646 22.1983 88.7601 21.8744V21.8158C88.7373 21.1803 88.9677 20.5618 89.4008 20.0962C89.8339 19.6306 90.4341 19.356 91.0696 19.3328H91.1774C91.5898 19.3354 91.9963 19.4315 92.3663 19.6139C92.7362 19.7962 93.0601 20.06 93.3134 20.3855Z" fill="#002A52"/>
<g id="international">
<path d="M58.9938 29.2216C58.9164 29.2216 58.8501 29.194 58.7948 29.1387C58.7395 29.0834 58.7119 29.0153 58.7119 28.9342C58.7119 28.8532 58.7395 28.7868 58.7948 28.7352C58.8501 28.68 58.9164 28.6523 58.9938 28.6523C59.0712 28.6523 59.1375 28.68 59.1928 28.7352C59.248 28.7868 59.2757 28.8532 59.2757 28.9342C59.2757 29.0153 59.248 29.0834 59.1928 29.1387C59.1375 29.194 59.0712 29.2216 58.9938 29.2216ZM59.1872 29.7909V32.8086H58.8003V29.7909H59.1872Z" fill="#002A52"/>
<path d="M62.1968 29.7356C62.5579 29.7356 62.8526 29.848 63.0811 30.0728C63.3095 30.2939 63.4238 30.6163 63.4238 31.04V32.8086H63.0424V31.0842C63.0424 30.7563 62.9595 30.5057 62.7937 30.3325C62.6316 30.1594 62.4086 30.0728 62.1249 30.0728C61.8338 30.0728 61.6017 30.1649 61.4285 30.3491C61.2553 30.5334 61.1687 30.8042 61.1687 31.1616V32.8086H60.7819V29.7909H61.1687V30.3049C61.2646 30.1207 61.4027 29.9807 61.5833 29.8849C61.7638 29.7854 61.9683 29.7356 62.1968 29.7356Z" fill="#002A52"/>
<path d="M65.5009 30.117V31.9906C65.5009 32.1749 65.5359 32.302 65.6059 32.372C65.6759 32.442 65.7993 32.477 65.9762 32.477H66.3299V32.8086H65.9154C65.6427 32.8086 65.4401 32.746 65.3074 32.6207C65.1748 32.4918 65.1085 32.2817 65.1085 31.9906V30.117H64.6884V29.7909H65.1085V29.0337H65.5009V29.7909H66.3299V30.117H65.5009Z" fill="#002A52"/>
<path d="M70.4168 31.145C70.4168 31.2777 70.4131 31.379 70.4058 31.449H67.9021C67.9131 31.6775 67.9684 31.8727 68.0679 32.0349C68.1673 32.197 68.2982 32.3204 68.4603 32.4052C68.6224 32.4862 68.7993 32.5268 68.9909 32.5268C69.2414 32.5268 69.4515 32.466 69.6209 32.3444C69.7941 32.2228 69.9084 32.0588 69.9636 31.8525H70.3726C70.2989 32.1472 70.1405 32.3886 69.8973 32.5765C69.6578 32.7607 69.3557 32.8529 68.9909 32.8529C68.7072 32.8529 68.4529 32.7902 68.2281 32.6649C68.0034 32.536 67.8265 32.3554 67.6976 32.1233C67.5723 31.8875 67.5096 31.613 67.5096 31.2998C67.5096 30.9866 67.5723 30.7121 67.6976 30.4763C67.8228 30.2404 67.9979 30.0599 68.2226 29.9346C68.4474 29.8093 68.7035 29.7467 68.9909 29.7467C69.2783 29.7467 69.5288 29.8093 69.7425 29.9346C69.9599 30.0599 70.1257 30.2294 70.24 30.4431C70.3579 30.6531 70.4168 30.8871 70.4168 31.145ZM70.0244 31.134C70.0281 30.9092 69.982 30.7176 69.8862 30.5592C69.7941 30.4007 69.667 30.281 69.5049 30.1999C69.3428 30.1188 69.1659 30.0783 68.9743 30.0783C68.6869 30.0783 68.4419 30.1704 68.2392 30.3547C68.0365 30.5389 67.9242 30.7987 67.9021 31.134H70.0244Z" fill="#002A52"/>
<path d="M72.2301 30.327C72.3148 30.1391 72.4438 29.9936 72.617 29.8904C72.7938 29.7872 73.0094 29.7356 73.2636 29.7356V30.1391H73.1586C72.8786 30.1391 72.6538 30.2146 72.4843 30.3657C72.3148 30.5168 72.2301 30.7692 72.2301 31.1229V32.8086H71.8432V29.7909H72.2301V30.327Z" fill="#002A52"/>
<path d="M75.9791 29.7356C76.3402 29.7356 76.6349 29.848 76.8634 30.0728C77.0918 30.2939 77.2061 30.6163 77.2061 31.04V32.8086H76.8247V31.0842C76.8247 30.7563 76.7418 30.5057 76.576 30.3325C76.4139 30.1594 76.1909 30.0728 75.9072 30.0728C75.6161 30.0728 75.384 30.1649 75.2108 30.3491C75.0376 30.5334 74.951 30.8042 74.951 31.1616V32.8086H74.5642V29.7909H74.951V30.3049C75.0468 30.1207 75.185 29.9807 75.3656 29.8849C75.5461 29.7854 75.7506 29.7356 75.9791 29.7356Z" fill="#002A52"/>
<path d="M78.6033 31.2942C78.6033 30.9847 78.6641 30.7139 78.7857 30.4818C78.911 30.246 79.0824 30.0654 79.2997 29.9401C79.5208 29.8112 79.7695 29.7467 80.0459 29.7467C80.3333 29.7467 80.5802 29.813 80.7865 29.9457C80.9965 30.0783 81.1476 30.2478 81.2397 30.4541V29.7909H81.6266V32.8086H81.2397V32.1399C81.1439 32.3462 80.991 32.5176 80.781 32.6539C80.5746 32.7865 80.3278 32.8529 80.0404 32.8529C79.7677 32.8529 79.5208 32.7884 79.2997 32.6594C79.0824 32.5305 78.911 32.3481 78.7857 32.1122C78.6641 31.8764 78.6033 31.6038 78.6033 31.2942ZM81.2397 31.2998C81.2397 31.0566 81.19 30.8429 81.0905 30.6586C80.991 30.4744 80.8547 30.3325 80.6815 30.2331C80.512 30.1336 80.3241 30.0838 80.1177 30.0838C79.904 30.0838 79.7124 30.1317 79.5429 30.2275C79.3734 30.3233 79.239 30.4634 79.1395 30.6476C79.0437 30.8281 78.9958 31.0437 78.9958 31.2942C78.9958 31.5411 79.0437 31.7585 79.1395 31.9464C79.239 32.1307 79.3734 32.2725 79.5429 32.372C79.7124 32.4678 79.904 32.5157 80.1177 32.5157C80.3241 32.5157 80.512 32.466 80.6815 32.3665C80.8547 32.267 80.991 32.1251 81.0905 31.9409C81.19 31.7567 81.2397 31.543 81.2397 31.2998Z" fill="#002A52"/>
<path d="M83.7313 30.117V31.9906C83.7313 32.1749 83.7663 32.302 83.8363 32.372C83.9063 32.442 84.0298 32.477 84.2066 32.477H84.5604V32.8086H84.1458C83.8732 32.8086 83.6705 32.746 83.5379 32.6207C83.4052 32.4918 83.3389 32.2817 83.3389 31.9906V30.117H82.9188V29.7909H83.3389V29.0337H83.7313V29.7909H84.5604V30.117H83.7313Z" fill="#002A52"/>
<path d="M86.1104 29.2216C86.033 29.2216 85.9667 29.194 85.9114 29.1387C85.8561 29.0834 85.8285 29.0153 85.8285 28.9342C85.8285 28.8532 85.8561 28.7868 85.9114 28.7352C85.9667 28.68 86.033 28.6523 86.1104 28.6523C86.1878 28.6523 86.2541 28.68 86.3094 28.7352C86.3646 28.7868 86.3923 28.8532 86.3923 28.9342C86.3923 29.0153 86.3646 29.0834 86.3094 29.1387C86.2541 29.194 86.1878 29.2216 86.1104 29.2216ZM86.3038 29.7909V32.8086H85.9169V29.7909H86.3038Z" fill="#002A52"/>
<path d="M89.2194 32.8529C88.9357 32.8529 88.6796 32.7902 88.4512 32.6649C88.2264 32.536 88.0477 32.3554 87.915 32.1233C87.7861 31.8875 87.7216 31.613 87.7216 31.2998C87.7216 30.9866 87.7879 30.7139 87.9206 30.4818C88.0532 30.246 88.2338 30.0654 88.4622 29.9401C88.6907 29.8112 88.9467 29.7467 89.2305 29.7467C89.5142 29.7467 89.7703 29.8112 89.9987 29.9401C90.2308 30.0654 90.4114 30.246 90.5404 30.4818C90.673 30.7139 90.7393 30.9866 90.7393 31.2998C90.7393 31.6093 90.673 31.8819 90.5404 32.1178C90.4077 32.3536 90.2253 32.536 89.9932 32.6649C89.7611 32.7902 89.5031 32.8529 89.2194 32.8529ZM89.2194 32.5157C89.4184 32.5157 89.6026 32.4715 89.7721 32.3831C89.9416 32.2909 90.0779 32.1546 90.1811 31.9741C90.288 31.7898 90.3414 31.5651 90.3414 31.2998C90.3414 31.0345 90.2898 30.8116 90.1866 30.631C90.0835 30.4468 89.9471 30.3104 89.7776 30.222C89.6081 30.1299 89.4239 30.0838 89.2249 30.0838C89.026 30.0838 88.8417 30.1299 88.6722 30.222C88.5027 30.3104 88.3664 30.4468 88.2632 30.631C88.1638 30.8116 88.114 31.0345 88.114 31.2998C88.114 31.5651 88.1638 31.7898 88.2632 31.9741C88.3664 32.1546 88.5009 32.2909 88.6667 32.3831C88.8362 32.4715 89.0204 32.5157 89.2194 32.5157Z" fill="#002A52"/>
<path d="M93.578 29.7356C93.9391 29.7356 94.2339 29.848 94.4623 30.0728C94.6908 30.2939 94.805 30.6163 94.805 31.04V32.8086H94.4236V31.0842C94.4236 30.7563 94.3407 30.5057 94.1749 30.3325C94.0128 30.1594 93.7899 30.0728 93.5062 30.0728C93.2151 30.0728 92.9829 30.1649 92.8097 30.3491C92.6366 30.5334 92.55 30.8042 92.55 31.1616V32.8086H92.1631V29.7909H92.55V30.3049C92.6458 30.1207 92.784 29.9807 92.9645 29.8849C93.1451 29.7854 93.3496 29.7356 93.578 29.7356Z" fill="#002A52"/>
<path d="M96.2023 31.2942C96.2023 30.9847 96.2631 30.7139 96.3847 30.4818C96.51 30.246 96.6813 30.0654 96.8987 29.9401C97.1198 29.8112 97.3685 29.7467 97.6448 29.7467C97.9322 29.7467 98.1791 29.813 98.3855 29.9457C98.5955 30.0783 98.7465 30.2478 98.8387 30.4541V29.7909H99.2256V32.8086H98.8387V32.1399C98.7429 32.3462 98.59 32.5176 98.3799 32.6539C98.1736 32.7865 97.9267 32.8529 97.6393 32.8529C97.3666 32.8529 97.1198 32.7884 96.8987 32.6594C96.6813 32.5305 96.51 32.3481 96.3847 32.1122C96.2631 31.8764 96.2023 31.6038 96.2023 31.2942ZM98.8387 31.2998C98.8387 31.0566 98.7889 30.8429 98.6894 30.6586C98.5899 30.4744 98.4536 30.3325 98.2804 30.2331C98.1109 30.1336 97.923 30.0838 97.7167 30.0838C97.503 30.0838 97.3114 30.1317 97.1419 30.2275C96.9724 30.3233 96.8379 30.4634 96.7384 30.6476C96.6426 30.8281 96.5947 31.0437 96.5947 31.2942C96.5947 31.5411 96.6426 31.7585 96.7384 31.9464C96.8379 32.1307 96.9724 32.2725 97.1419 32.372C97.3114 32.4678 97.503 32.5157 97.7167 32.5157C97.923 32.5157 98.1109 32.466 98.2804 32.3665C98.4536 32.267 98.5899 32.1251 98.6894 31.9409C98.7889 31.7567 98.8387 31.543 98.8387 31.2998Z" fill="#002A52"/>
<path d="M101.214 28.7187V32.8086H100.827V28.7187H101.214Z" fill="#002A52"/>
</g>
</g>
</g>
<defs>
<clipPath id="clip0_4361_26330">
<rect width="76.7057" height="38" fill="white" transform="translate(26 5)"/>
</clipPath>
</defs>
</svg>
