<svg width="128" height="48" viewBox="0 0 128 48" fill="none" xmlns="http://www.w3.org/2000/svg">
<g clip-path="url(#clip0_4361_26299)">
<path d="M64.9302 16.1992H64.4385V20.9075C64.4385 21.213 64.6247 21.3992 64.9302 21.3992C65.2356 21.3992 65.4219 21.213 65.4219 20.9075V16.6835C65.4219 16.378 65.2356 16.1992 64.9302 16.1992Z" fill="#002A52"/>
<path d="M61.6226 21.3982C62.6059 21.3982 63.0976 20.909 63.0976 19.9306V19.8039V16.6825C63.0976 16.377 62.971 16.2578 62.6655 16.2578H62.6059H62.2334H62.1738V19.9306C62.1738 20.236 61.995 20.4148 61.6226 20.4148H60.4604V16.6825C60.4604 16.377 60.3412 16.2578 60.0357 16.2578H59.9687H59.544H59.4844V16.7495V20.4744H58.5607C58.3819 20.4744 58.3223 20.6607 58.3223 20.9661C58.3223 21.2716 58.3819 21.4578 58.5607 21.4578H61.6226V21.3982Z" fill="#002A52"/>
<path d="M77.4233 22.258C77.4233 22.5634 77.6021 22.7422 77.9076 22.7422H78.2801C79.1964 22.7422 79.6881 22.3176 79.7477 21.4012V19.0098V18.2797C79.7477 17.9743 79.621 17.8477 79.3156 17.8477H78.8314H78.7643V18.3393V18.3989V21.2746C78.7643 21.58 78.5855 21.7663 78.2801 21.7663H77.9076C77.5425 21.7663 77.4233 21.8855 77.4233 22.258Z" fill="#002A52"/>
<path d="M95.1171 21.3992C95.6013 21.3992 95.7876 21.213 95.7876 20.9075V17.1751V16.6835V16.6239C95.7876 16.3184 95.6683 16.1992 95.3555 16.1992H94.9308H94.8712V16.6835V20.4158H92.9715V17.786C92.9715 17.4806 92.8523 17.3614 92.5394 17.3614H92.0552H91.9881V20.4754H90.7067V17.8456C90.7067 17.5402 90.5801 17.421 90.2747 17.421H89.7904H89.7234V20.5425H88.5612V17.9127C88.5612 17.6072 88.442 17.4806 88.1365 17.4806H87.6449H87.5853V20.6021H82.4374H82.3778C82.0128 20.6021 81.8265 20.4158 81.8265 20.1104V16.8101C81.8265 16.5643 81.7073 16.378 81.4615 16.378C81.4019 16.378 81.4019 16.378 81.3423 16.378C81.2752 16.378 81.2752 16.378 81.2156 16.378H80.9102H80.8506V20.1104C80.8506 21.0888 81.3398 21.578 82.3182 21.578H82.2586H95.1171V21.3992Z" fill="#002A52"/>
<path fill-rule="evenodd" clip-rule="evenodd" d="M76.8724 21.3312H70.0111C69.0327 21.3312 68.5435 20.8419 68.5435 19.8635V18.7684C68.5435 17.79 69.0327 17.3008 70.0111 17.3008H71.6649C71.9704 17.3008 72.1566 17.4796 72.1566 17.785V20.3552H73.8105C73.7435 20.236 73.7435 20.0498 73.7435 19.8635V18.7684C73.7435 17.79 74.2351 17.3008 75.2185 17.3008H75.889C76.8674 17.3008 77.3566 17.79 77.3566 18.7684V20.9065C77.3566 21.212 77.1778 21.3982 76.8724 21.3982V21.3312ZM71.1137 18.3289H69.9515C69.646 18.3289 69.4598 18.5151 69.4598 18.8206V19.9231C69.4598 20.2286 69.646 20.4074 69.9515 20.4074H71.1137V18.3289ZM74.7268 19.9231C74.7268 20.2286 74.9131 20.4148 75.2185 20.4148H76.3807V18.8206C76.3807 18.5151 76.1945 18.3289 75.889 18.3289H75.2185C74.9131 18.3289 74.7268 18.5151 74.7268 18.8206V19.9231Z" fill="#002A52"/>
<path d="M97.4414 21.3992C97.7468 21.3992 97.9331 21.213 97.9331 20.9075V16.6835C97.9331 16.378 97.7468 16.1992 97.4414 16.1992H96.9497V20.9075C96.9497 21.213 97.0764 21.3992 97.4414 21.3992Z" fill="#002A52"/>
<path fill-rule="evenodd" clip-rule="evenodd" d="M102.522 21.3982C101.546 21.3982 101.054 20.8469 101.054 19.8635V17.4796H101.605C101.851 17.4796 102.03 17.6062 102.03 17.9117V19.8635C102.03 20.169 102.216 20.3552 102.522 20.3552H104.116C104.049 20.236 104.049 20.0498 104.049 19.8635V18.7684C104.049 17.79 104.541 17.3008 105.524 17.3008H106.195C107.173 17.3008 107.662 17.79 107.662 18.7684V21.3982H102.522ZM106.686 18.828C106.686 18.5226 106.5 18.3363 106.195 18.3363H105.524C105.219 18.3363 105.032 18.5226 105.032 18.828V19.9306C105.032 20.236 105.159 20.4148 105.465 20.4148H106.686V18.828Z" fill="#002A52"/>
<path d="M32.6648 22.7991C32.7244 22.8662 32.851 22.8662 32.9106 22.8662C33.0298 22.8662 33.0969 22.8662 33.1565 22.7991C33.2161 22.7395 33.3427 22.6799 33.3427 22.6203C33.4023 22.5607 33.4023 22.4341 33.4023 22.3745C33.4023 22.3149 33.4023 22.1883 33.3427 22.1287C33.2757 22.0691 33.2161 21.9424 33.1565 21.9424C33.0969 21.8828 32.9702 21.8828 32.9106 21.8828C32.7914 21.8828 32.7244 21.8828 32.6648 21.9424C32.6052 22.0095 32.486 22.0691 32.486 22.1287C32.4189 22.1883 32.4189 22.3149 32.4189 22.3745C32.4189 22.4341 32.4189 22.5607 32.486 22.6203C32.5456 22.6799 32.6052 22.7991 32.6648 22.7991Z" fill="#002A52"/>
<path d="M34.5647 21.8838C34.5051 21.8242 34.3784 21.8242 34.3188 21.8242C34.1996 21.8242 34.1326 21.8242 34.073 21.8838C34.0134 21.9434 33.8942 22.0105 33.8942 22.0701C33.8271 22.1297 33.8271 22.2563 33.8271 22.3159C33.8271 22.3755 33.8271 22.4947 33.8942 22.5618C33.9538 22.6214 34.0134 22.681 34.073 22.7406C34.1326 22.8002 34.2592 22.8001 34.3188 22.8001C34.3784 22.8001 34.5051 22.8002 34.5647 22.7406C34.6243 22.681 34.7509 22.6214 34.7509 22.5618C34.8105 22.4947 34.8105 22.3755 34.8105 22.3159C34.8105 22.2563 34.8105 22.1297 34.7509 22.0701C34.7509 22.0105 34.6888 21.9484 34.5647 21.8838Z" fill="#002A52"/>
<path fill-rule="evenodd" clip-rule="evenodd" d="M110.233 21.4586C109.994 22.3749 109.503 22.7995 108.586 22.7995H108.214C107.908 22.7995 107.729 22.6207 107.729 22.3153C107.729 22.0098 107.908 21.8236 108.214 21.8236H108.586C108.892 21.8236 109.07 21.7044 109.07 21.3319V17.4207H109.562C109.868 17.4207 110.054 17.607 110.054 17.9124V20.4752C110.173 20.4752 111.276 20.4752 111.276 20.4752V16.9961H111.767C111.827 16.9961 111.954 16.9961 112.013 17.0557C112.073 17.0557 112.073 17.0557 112.073 17.0557C112.132 17.1153 112.192 17.2345 112.192 17.4207V17.4803C112.259 17.4207 112.378 17.3611 112.564 17.3611H115.135C116.111 17.3611 116.602 17.7858 116.602 18.7692V20.4156H118.197V18.8288C118.197 17.8503 118.686 17.3611 119.664 17.3611H120.335C121.318 17.3611 121.81 17.8503 121.81 18.8288V19.9909C121.81 20.9669 121.318 21.399 120.335 21.399H120.096L110.233 21.4586ZM119.165 20.4156H120.335C120.64 20.4156 120.819 20.2964 120.819 19.9239V18.8288C120.819 18.5233 120.64 18.3371 120.335 18.3371H119.657C119.351 18.3371 119.165 18.5233 119.165 18.8288V20.4156ZM112.125 20.3485H115.619V18.7617C115.619 18.4563 115.433 18.27 115.127 18.27H112.125V20.3485Z" fill="#002A52"/>
<path fill-rule="evenodd" clip-rule="evenodd" d="M43.2586 18.6424V19.745C43.2586 20.6613 42.8265 21.2126 42.0368 21.2722H37.4403C37.1348 21.2722 36.9486 21.0934 36.9486 20.7805V18.702C36.9486 18.3966 36.7698 18.2178 36.4643 18.2178H35.7864V20.7805C35.7864 21.153 35.6076 21.3318 35.3022 21.3318H32.6053C31.689 21.3318 31.1377 20.8476 31.1377 19.9312V18.0315H31.6219C31.9348 18.0315 32.054 18.1507 32.054 18.4636V19.8642C32.054 20.1696 32.1732 20.3559 32.5457 20.3559H34.7509V17.7261C34.7509 17.4206 34.9297 17.2344 35.2351 17.2344H36.3973C37.3807 17.2344 37.8724 17.7857 37.8724 18.769V20.3559H39.5858V18.769C39.5858 17.7906 40.075 17.3014 41.0535 17.3014H41.7239C42.7669 17.3014 43.2586 17.7857 43.2586 18.6424ZM42.2156 18.769C42.2156 18.4636 42.0368 18.2774 41.7239 18.2774H41.0535C40.748 18.2774 40.5618 18.4636 40.5618 18.769V20.4155H41.7239C42.0368 20.4155 42.2156 20.2963 42.2156 19.9312V18.769Z" fill="#002A52"/>
<path d="M57.0333 17.3008H56.5416H56.4821V19.8635C56.4821 20.236 56.2958 20.3552 55.9904 20.3552H55.1932V17.7254C55.1932 17.42 55.074 17.3008 54.7686 17.3008H54.2769H54.2173V20.4148H53.0551V17.785C53.0551 17.4796 52.9285 17.3604 52.623 17.3604H52.1388H52.0717V20.4744H48.5852C48.5852 20.3552 48.6448 20.2956 48.6448 20.169V16.6825C48.6448 16.377 48.5256 16.2578 48.2202 16.2578H48.1531H47.7881H47.7285V20.0498C47.7285 20.3552 47.5422 20.4744 47.2368 20.4744H47.2964H46.4396V16.6825C46.4396 16.377 46.3204 16.2578 46.015 16.2578H45.948H45.5233H45.4637V20.4744H44.2345C44.0557 20.4744 43.9961 20.6607 43.9961 20.9661C43.9961 21.2716 44.0557 21.4578 44.2345 21.4578H55.3199H56.117C57.0929 21.4578 57.5846 20.9661 57.5846 19.9306V18.3363V18.2767V17.8446C57.458 17.4796 57.3388 17.3008 57.0333 17.3008Z" fill="#002A52"/>
<path d="M69.3405 16.8119C69.4001 16.8715 69.5193 16.8715 69.5864 16.8715C69.7056 16.8715 69.7652 16.8715 69.8322 16.8119C69.8918 16.7523 70.011 16.6852 70.011 16.6256C70.1377 16.5064 70.1377 16.4468 70.1377 16.3202C70.1377 16.2606 70.1377 16.1414 70.0706 16.0743C70.011 16.0147 69.9514 15.8955 69.8918 15.8955C69.8322 15.8359 69.7056 15.8359 69.646 15.8359C69.5193 15.8359 69.4597 15.8359 69.4001 15.8955C69.3405 15.9551 69.2785 16.0147 69.2139 16.0743C69.1543 16.1414 69.1543 16.2606 69.1543 16.3202C69.1543 16.4468 69.1543 16.5064 69.2139 16.566C69.2139 16.6852 69.2809 16.7523 69.3405 16.8119Z" fill="#002A52"/>
<path d="M71.24 15.8955C71.1729 15.8359 71.0537 15.8359 70.9941 15.8359C70.9271 15.8359 70.8079 15.8359 70.7483 15.8955C70.6887 15.9551 70.562 16.0147 70.562 16.0743C70.5024 16.1414 70.5024 16.2606 70.5024 16.3202C70.5024 16.3798 70.5024 16.5064 70.562 16.566C70.6216 16.6256 70.6837 16.6877 70.7483 16.7523C70.8079 16.8119 70.9271 16.8119 70.9941 16.8119C71.0537 16.8119 71.1729 16.8119 71.24 16.7523C71.2996 16.6852 71.4188 16.6256 71.4188 16.566C71.4784 16.5064 71.4784 16.3798 71.4784 16.3202C71.4784 16.201 71.4784 16.1414 71.4188 16.0743C71.4188 16.0147 71.3592 15.8955 71.24 15.8955Z" fill="#002A52"/>
<path d="M74.6077 16.8109C74.6673 16.8705 74.7865 16.8705 74.8461 16.8705C74.9131 16.8705 75.0323 16.8705 75.0919 16.8109C75.159 16.7513 75.2781 16.6842 75.2781 16.6246C75.3377 16.565 75.3377 16.4458 75.3377 16.3788C75.3377 16.3192 75.3377 16.2 75.2781 16.1404C75.2185 16.0733 75.159 15.9541 75.0919 15.9541C75.0323 15.8945 74.9131 15.8945 74.8461 15.8945C74.7269 15.8945 74.6673 15.8945 74.6077 15.9541C74.5406 15.8945 74.4214 16.0137 74.4214 16.0733C74.3618 16.1404 74.3618 16.2596 74.3618 16.3192C74.3618 16.4458 74.3618 16.5054 74.4214 16.565C74.4214 16.6842 74.5406 16.7513 74.6077 16.8109Z" fill="#002A52"/>
<path d="M76.4996 15.8955C76.44 15.8359 76.3208 15.8359 76.2538 15.8359C76.1942 15.8359 76.075 15.8359 76.0154 15.8955C75.9483 15.9551 75.8291 16.0147 75.8291 16.0743C75.7695 16.1414 75.7695 16.2606 75.7695 16.3202C75.7695 16.3798 75.7695 16.5064 75.8291 16.566C75.8887 16.6256 75.9508 16.6877 76.0154 16.7523C76.075 16.8119 76.1942 16.8119 76.2538 16.8119C76.3208 16.8119 76.44 16.8119 76.4996 16.7523C76.5667 16.6852 76.6859 16.6256 76.6859 16.566C76.7455 16.5064 76.7455 16.3798 76.7455 16.3202C76.7455 16.201 76.7455 16.1414 76.6859 16.0743C76.6263 16.0147 76.5667 15.8955 76.4996 15.8955Z" fill="#002A52"/>
<path d="M89.0525 16.8119C89.1121 16.8715 89.2387 16.8715 89.2983 16.8715C89.3579 16.8715 89.4846 16.8715 89.5442 16.8119C89.6038 16.7523 89.723 16.6852 89.723 16.6256C89.79 16.566 89.79 16.4468 89.79 16.3798C89.79 16.3202 89.79 16.201 89.723 16.1414C89.723 16.0147 89.6634 15.8955 89.5442 15.8955C89.4846 15.8359 89.3579 15.8359 89.2983 15.8359C89.1717 15.8359 89.1121 15.8359 89.0525 15.8955C88.9929 15.9551 88.9308 16.0147 88.8662 16.0743C88.8066 16.1414 88.8066 16.2606 88.8066 16.3202C88.8066 16.4468 88.8066 16.5064 88.8662 16.566C88.8662 16.6852 88.9333 16.7523 89.0525 16.8119Z" fill="#002A52"/>
<path d="M90.9524 15.8955C90.8928 15.8359 90.7661 15.8359 90.7065 15.8359C90.6469 15.8359 90.5203 15.8359 90.4607 15.8955C90.4011 15.9551 90.2744 16.0147 90.2744 16.0743C90.2148 16.1414 90.2148 16.2606 90.2148 16.3202C90.2148 16.3798 90.2148 16.5064 90.2744 16.566C90.339 16.6256 90.4011 16.6877 90.4607 16.7523C90.5203 16.8119 90.6469 16.8119 90.7065 16.8119C90.7661 16.8119 90.8928 16.8119 90.9524 16.7523C91.012 16.6852 91.1312 16.6256 91.1312 16.566C91.1982 16.5064 91.1982 16.3798 91.1982 16.3202C91.1982 16.201 91.1982 16.1414 91.1312 16.0743C91.0716 16.0147 91.012 15.8955 90.9524 15.8955Z" fill="#002A52"/>
<path d="M90.215 14.6725C90.1554 14.6055 90.0362 14.6055 89.9691 14.6055C89.9095 14.6055 89.7903 14.6055 89.7233 14.6725C89.6637 14.7321 89.5445 14.7917 89.5445 14.8513C89.4849 14.9109 89.4849 15.0376 89.4849 15.0972C89.4849 15.2164 89.4849 15.2834 89.5445 15.343C89.6041 15.4026 89.6637 15.4622 89.7233 15.5218C89.7903 15.5888 89.9095 15.5888 89.9691 15.5888C90.0362 15.5888 90.1554 15.5888 90.215 15.5218C90.2746 15.4622 90.4012 15.4026 90.4012 15.343C90.4608 15.2834 90.4608 15.1568 90.4608 15.0972C90.4608 15.0376 90.4608 14.9109 90.4012 14.8513C90.4012 14.7917 90.3391 14.7321 90.215 14.6725Z" fill="#002A52"/>
<path d="M106.135 15.8955C106.075 15.8359 105.949 15.8359 105.889 15.8359C105.83 15.8359 105.703 15.8359 105.643 15.8955C105.584 15.9551 105.457 16.0147 105.457 16.0743C105.397 16.1414 105.397 16.2606 105.397 16.3202C105.397 16.3798 105.397 16.5064 105.457 16.566C105.522 16.6256 105.584 16.6877 105.643 16.7523C105.703 16.8119 105.83 16.8119 105.889 16.8119C105.949 16.8119 106.075 16.8119 106.135 16.7523C106.195 16.6852 106.321 16.6256 106.321 16.566C106.381 16.5064 106.381 16.3798 106.381 16.3202C106.381 16.201 106.381 16.1414 106.321 16.0743C106.321 16.0147 106.195 15.8955 106.135 15.8955Z" fill="#002A52"/>
<path d="M60.3409 22.3743H59.7896C59.73 22.3743 59.73 22.3743 59.73 22.3743V22.0688C59.73 22.0092 59.73 22.0092 59.73 22.0092H60.095C60.2192 22.0092 60.2813 21.9471 60.2813 21.823C60.2813 21.6988 60.2192 21.6367 60.095 21.6367H59.73C59.4842 21.6367 59.3575 21.7634 59.3575 22.0688V22.3147C59.3575 22.3147 59.3575 22.3147 59.3575 22.3743C59.2383 22.3743 59.1787 22.4363 59.1787 22.5605C59.1787 22.6797 59.2383 22.7393 59.3575 22.7393H60.3409C60.4601 22.7393 60.5197 22.6797 60.5197 22.5605C60.5197 22.4363 60.4601 22.3743 60.3409 22.3743Z" fill="#002A52"/>
<path d="M68.9677 26.5938H68.4238V31.3021C68.4238 31.615 68.6026 31.7937 68.9677 31.7937C69.3402 31.7937 69.4594 31.615 69.4594 31.3021V27.0854C69.519 26.8396 69.3402 26.5938 68.9677 26.5938Z" fill="#002A52"/>
<path d="M92.8521 26.5938H92.3008V31.3021C92.3008 31.615 92.4796 31.7937 92.8521 31.7937C93.2171 31.7937 93.3363 31.615 93.3363 31.3021V27.0258C93.3363 26.78 93.1575 26.5938 92.8521 26.5938Z" fill="#002A52"/>
<path d="M33.8938 28.9823L32.605 28.4906C32.2995 28.3639 32.1729 28.2447 32.1729 27.9989V27.8797C32.1729 27.5742 32.3591 27.4476 32.7912 27.4476H34.378C34.4376 27.4476 34.5047 27.388 34.5047 27.3284V26.7771C34.5047 26.7175 34.4376 26.6579 34.378 26.6579C33.8268 26.5312 33.5213 26.5312 32.97 26.5312C31.7482 26.5312 31.0703 26.8367 31.0703 27.8201V27.9393C31.0703 28.7364 31.3162 29.1015 31.8674 29.2877L33.2159 29.7719C33.5809 29.8986 33.7076 30.0178 33.7076 30.3232V30.3828C33.7076 30.6883 33.5213 30.8149 33.0967 30.8149H31.197C31.1374 30.8149 31.0703 30.8745 31.0703 30.9341V31.4258C31.0703 31.4854 31.0703 31.545 31.197 31.545C31.8078 31.6716 32.3591 31.6717 32.8508 31.6717C34.013 31.6717 34.8101 31.3662 34.8101 30.3828V30.204C34.8697 29.5261 34.5643 29.2206 33.8938 28.9823Z" fill="#002A52"/>
<path fill-rule="evenodd" clip-rule="evenodd" d="M45.7094 31.7342C45.769 31.8533 45.7094 31.8533 45.6423 31.8533H44.7856C44.726 31.8533 44.726 31.7937 44.726 31.7342L44.3609 30.3261H42.5208L42.1558 31.7342C42.0962 31.8533 42.0962 31.8533 42.0366 31.8533H41.1724C41.1128 31.8533 41.1128 31.7937 41.1128 31.7342L42.342 27.3909C42.5208 26.6608 42.6475 26.5938 43.4446 26.5938C44.3013 26.5938 44.4205 26.6608 44.6068 27.3909L45.7094 31.7342ZM44.1151 29.4098L43.6234 27.6367C43.5638 27.5175 43.5638 27.4505 43.4446 27.4505C43.318 27.4505 43.318 27.4505 43.2584 27.6367L42.7667 29.4098H44.1151Z" fill="#002A52"/>
<path fill-rule="evenodd" clip-rule="evenodd" d="M50.8498 31.6717C50.9094 31.7312 50.9094 31.7908 50.7902 31.7908H49.9335C49.8068 31.7908 49.7472 31.7908 49.6876 31.6717L48.585 29.9582H47.9742V31.7312C47.9742 31.8504 47.9071 31.8504 47.8475 31.8504H46.9908C46.8716 31.8504 46.8716 31.7908 46.8716 31.7312V26.5312H48.7713C50.2389 26.5312 50.7232 26.8963 50.7232 28.2447C50.7232 29.2877 50.4848 29.7123 49.6876 29.8315L50.8498 31.6717ZM49.6206 28.3118C49.6206 27.6413 49.3822 27.455 48.585 27.455H47.8475V29.1089H48.585C49.4418 29.1089 49.6206 28.9823 49.6206 28.3118Z" fill="#002A52"/>
<path fill-rule="evenodd" clip-rule="evenodd" d="M59.9089 31.7342C59.9685 31.8533 59.9089 31.8533 59.8493 31.8533H58.9926C58.933 31.8533 58.933 31.7937 58.933 31.7342L58.5605 30.3261H56.7278L56.3628 31.7342C56.2958 31.8533 56.2958 31.8533 56.2362 31.8533H55.3794C55.3198 31.8533 55.3198 31.7937 55.3198 31.7342L56.5416 27.3909C56.7278 26.6608 56.847 26.5938 57.6442 26.5938C58.5009 26.5938 58.6276 26.6608 58.8064 27.3909L59.9089 31.7342ZM58.3817 29.4098L57.89 27.6367C57.8304 27.5175 57.8304 27.4505 57.7038 27.4505C57.5846 27.4505 57.5846 27.4505 57.525 27.6367L57.0333 29.4098H58.3817Z" fill="#002A52"/>
<path d="M73.3781 28.9823L72.0967 28.4906C71.7912 28.3639 71.6646 28.2447 71.6646 27.9989V27.8797C71.6646 27.5742 71.8508 27.4476 72.2755 27.4476H73.8697C73.9293 27.4476 73.9889 27.388 73.9889 27.3284V26.7771C73.9889 26.7175 73.9293 26.6579 73.8697 26.6579C73.3185 26.5312 73.013 26.5312 72.4617 26.5312C71.2399 26.5312 70.562 26.8367 70.562 27.8201V27.9393C70.562 28.7364 70.8079 29.1015 71.3591 29.2877L72.7076 29.7719C73.0726 29.8986 73.1993 30.0178 73.1993 30.3232V30.3828C73.1993 30.6883 73.013 30.8149 72.5809 30.8149H70.6887C70.6216 30.8149 70.562 30.8745 70.562 30.9341V31.4258C70.562 31.4854 70.562 31.545 70.6887 31.545C71.2995 31.6716 71.8508 31.6717 72.3351 31.6717C73.5047 31.6717 74.2944 31.3662 74.2944 30.3828V30.204C74.2944 29.5261 73.9889 29.2206 73.3781 28.9823Z" fill="#002A52"/>
<path d="M78.5856 30.8745H76.3804V27.5742V27.0229C76.3804 26.7175 76.1942 26.5908 75.8291 26.5312H75.2778V27.5146V31.6121C75.2778 31.6717 75.3374 31.7312 75.397 31.7312H78.5856C78.6452 31.7312 78.7048 31.6717 78.7048 31.6121V30.8745C78.6452 30.9341 78.6452 30.8745 78.5856 30.8745Z" fill="#002A52"/>
<path fill-rule="evenodd" clip-rule="evenodd" d="M84.0911 31.7342C84.1581 31.8533 84.0911 31.8533 84.0315 31.8533H83.1747C83.1151 31.8533 83.1151 31.7937 83.1151 31.7342L82.7501 30.3261H80.91L80.5449 31.7342C80.4779 31.8533 80.4779 31.8533 80.4183 31.8533H79.5616C79.502 31.8533 79.502 31.7937 79.502 31.7342L80.7237 27.3909C80.91 26.6608 81.0292 26.5938 81.8263 26.5938C82.683 26.5938 82.8097 26.6608 82.9885 27.3909L84.0911 31.7342ZM82.5042 29.4098L82.0126 27.6367C81.953 27.5175 81.953 27.4505 81.8263 27.4505C81.7071 27.4505 81.7071 27.4505 81.6475 27.6367L81.1558 29.4098H82.5042Z" fill="#002A52"/>
<path d="M90.4605 26.5938H89.6634C89.4175 26.5938 89.3579 26.6608 89.2983 26.8396L88.0095 30.2665L86.7281 26.8396C86.6685 26.6608 86.5419 26.5938 86.3556 26.5938H85.5659C85.4989 26.5938 85.4989 26.6608 85.4989 26.7204L85.0146 31.7342C85.0146 31.7937 85.0743 31.8533 85.1339 31.8533H85.9906C86.0502 31.8533 86.1172 31.7937 86.1172 31.7342L86.4227 28.4935L87.6445 31.7342C87.7041 31.7937 87.704 31.8533 87.7636 31.8533H88.382C88.4416 31.8533 88.5012 31.7937 88.5012 31.7342L89.723 28.4935L90.0359 31.7342C90.0359 31.7937 90.0955 31.8533 90.155 31.8533H91.0118C91.0714 31.8533 91.131 31.7937 91.131 31.7342L90.6467 26.7204C90.5797 26.6608 90.5797 26.5938 90.4605 26.5938Z" fill="#002A52"/>
<path d="M97.7467 26.5919C97.4413 26.5323 97.0092 26.4727 96.3983 26.4727C94.6848 26.4727 94.3794 27.0835 94.3794 29.1025C94.3794 31.1214 94.6252 31.7323 96.3983 31.7323C97.0092 31.7323 97.3817 31.6727 97.7467 31.6131C97.8709 31.6131 97.933 31.551 97.933 31.4268V30.8755C97.933 30.8159 97.8659 30.7563 97.8063 30.7563H96.3983C95.482 30.7563 95.482 30.3242 95.482 29.0429C95.482 27.754 95.482 27.3294 96.3983 27.3294H97.8063C97.8659 27.3294 97.933 27.2698 97.933 27.2027V26.6589C97.933 26.7185 97.8659 26.6589 97.7467 26.5919Z" fill="#002A52"/>
<path fill-rule="evenodd" clip-rule="evenodd" d="M105.152 30.3838C105.152 31.4864 104.601 31.7919 103.319 31.7919C102.709 31.7919 101.852 31.7919 101.233 31.7323C101.114 31.6727 101.114 31.6727 101.114 31.6131V26.6589C101.114 26.5323 101.174 26.5323 101.233 26.5323C101.852 26.4727 102.582 26.4727 103.133 26.4727C104.482 26.4727 105.033 26.8377 105.033 27.9403C105.033 28.6704 104.787 29.0429 104.236 29.1621C104.914 29.2217 105.092 29.6537 105.152 30.3838ZM102.157 28.797H102.828C103.565 28.797 103.871 28.6704 103.871 28.1265C103.871 27.5752 103.565 27.4486 102.954 27.4486H102.157V28.797ZM103.99 30.205C103.99 29.6537 103.744 29.5345 103.193 29.5345H102.157V30.8755H103.193C103.744 30.8755 103.99 30.7563 103.99 30.205Z" fill="#002A52"/>
<path fill-rule="evenodd" clip-rule="evenodd" d="M110.605 31.7342C110.665 31.8533 110.605 31.8533 110.546 31.8533H109.689C109.622 31.8533 109.622 31.7937 109.622 31.7342L109.257 30.3261H107.417L107.052 31.7342C106.992 31.8533 106.992 31.8533 106.933 31.8533H106.076C106.009 31.8533 106.009 31.7937 106.009 31.7342L107.238 27.3909C107.417 26.6608 107.543 26.5938 108.341 26.5938C109.197 26.5938 109.317 26.6608 109.503 27.3909L110.605 31.7342ZM109.011 29.4098L108.519 27.6367C108.46 27.5175 108.46 27.4505 108.341 27.4505C108.214 27.4505 108.214 27.4505 108.154 27.6367L107.663 29.4098H109.011Z" fill="#002A52"/>
<path d="M116.111 26.5938H115.254C115.194 26.5938 115.135 26.6608 115.135 26.7204V29.9015L113.056 26.8396C112.93 26.6608 112.93 26.5938 112.624 26.5938H111.954C111.887 26.5938 111.827 26.6608 111.827 26.7204V31.7342C111.827 31.7937 111.887 31.8533 111.954 31.8533H112.811C112.87 31.8533 112.93 31.7937 112.93 31.7342V28.4339L115.135 31.6746C115.254 31.7938 115.321 31.8533 115.5 31.8533H116.111C116.178 31.8533 116.237 31.7937 116.237 31.7342V26.7204C116.237 26.6608 116.178 26.5938 116.111 26.5938Z" fill="#002A52"/>
<path d="M121.742 31.6121L119.783 28.9823L121.564 26.7175C121.623 26.6579 121.623 26.5908 121.504 26.5908H120.521C120.461 26.5908 120.401 26.5908 120.401 26.6579L118.688 28.8556V27.5146V27.0229C118.688 26.7175 118.502 26.5908 118.137 26.5312H117.585V27.4476V30.7553V31.2396C117.585 31.545 117.764 31.7312 118.137 31.7312C118.502 31.7312 118.621 31.545 118.621 31.2396V30.7553V29.161L120.461 31.6717C120.461 31.7312 120.521 31.7312 120.58 31.7312H121.564C121.81 31.7908 121.81 31.7313 121.742 31.6121Z" fill="#002A52"/>
<path d="M39.7643 26.5938H39.213V28.3072V28.7393H36.9483V28.3668V27.0854C36.9483 26.78 36.7695 26.6608 36.397 26.5938H35.8457V28.3072V30.8178V31.2425C35.8457 31.5479 36.0319 31.7341 36.397 31.7341C36.7695 31.7341 36.8887 31.5479 36.8887 31.2425V30.8178V29.596H39.1534V30.8178V31.2425C39.1534 31.5479 39.3397 31.7341 39.7047 31.7341C40.0772 31.7341 40.1964 31.5479 40.1964 31.2425V30.8178V28.3072V27.0258C40.3156 26.78 40.1368 26.5938 39.7643 26.5938Z" fill="#002A52"/>
<path d="M53.9713 26.5938H53.42V28.0018V29.2906C53.42 29.7152 53.42 30.0803 53.3008 30.3261C53.2338 30.4528 53.1742 30.572 53.1146 30.6316C53.055 30.6912 53.055 30.6912 52.9954 30.7582C52.8091 30.8774 52.5037 30.937 52.377 30.937H51.8257C51.7661 30.937 51.7065 30.9966 51.7065 31.0637V31.615C51.7065 31.7342 51.7661 31.7342 51.8928 31.7937C52.012 31.7937 52.1386 31.8533 52.2578 31.8533C52.6229 31.9204 53.5467 31.9204 54.0309 31.3021C54.3363 30.8774 54.4034 30.2665 54.4034 29.3502V28.9181V27.0854C54.463 26.78 54.2767 26.5938 53.9713 26.5938Z" fill="#002A52"/>
<path d="M64.8703 26.5938H64.319V28.3072V28.7393H62.0542V28.3668V27.145C62.0542 26.8396 61.868 26.6608 61.5029 26.6608H60.9517V31.0637V31.4287C60.9517 31.7342 61.1379 31.9204 61.5029 31.9204C61.868 31.9204 62.0542 31.7342 62.0542 31.4287V30.9966V29.7748H63.276H64.319V31.1233V31.4287C64.319 31.7342 64.5052 31.9204 64.8703 31.9204C65.2353 31.9204 65.362 31.7342 65.362 31.4287V30.9966V28.4935V27.2717C65.4216 26.8396 65.2353 26.5938 64.8703 26.5938Z" fill="#002A52"/>
<path d="M17.4224 14.1797C17.4224 14.1797 16.5656 14.9098 16.3198 15.5877C16.0739 16.2582 16.0143 16.504 16.439 17.6066C16.8711 18.7017 18.3387 22.9854 18.3387 22.9854C18.3387 22.9854 18.8304 24.0284 17.9736 24.6393C17.9736 24.6393 17.4224 25.0639 17.5416 25.0043C17.6682 24.9447 19.3817 24.5722 18.8304 23.045C18.5845 22.3149 16.6848 17.0553 16.6848 17.0553C16.6848 17.0553 16.1335 15.7069 17.482 14.4255L17.4224 14.1797Z" fill="#002A52"/>
<path d="M19.1953 23.9613C19.1953 23.9613 19.9328 23.3505 19.687 22.4937C19.4411 21.637 17.6084 16.3774 17.6084 16.3774C17.6084 16.3774 17.0572 15.1556 17.5414 14.1797C17.5414 14.1797 16.8709 14.731 16.9305 15.5877C16.9901 16.4444 17.5414 17.5396 17.7872 18.2771C18.0331 19.0072 19.2549 22.5608 19.2549 22.5608C19.2549 22.5608 19.4411 23.2313 19.3219 23.5367C19.1953 23.9017 19.0761 24.088 19.1953 23.9613Z" fill="#002A52"/>
<path d="M16.3792 17.1172C16.3792 17.1172 15.9545 17.6685 16.3792 18.8307C16.8113 19.9928 17.8468 22.9877 17.8468 22.9877C17.8468 22.9877 18.3385 24.1499 17.7872 24.8203L17.6084 24.947C17.6084 24.947 17.9734 24.4553 17.7276 23.7252C17.4817 22.9877 16.1333 19.4415 16.1333 19.4415C16.1333 19.4415 15.7087 18.339 15.9545 17.6089L16.3792 17.1172Z" fill="#002A52"/>
<path d="M18.4652 25.3123V25.126C18.4652 25.126 18.3982 25.0664 18.3386 25.0664C18.279 25.126 18.1523 25.2527 18.2194 25.4314C18.279 25.5581 18.3386 25.5581 18.3386 25.5581L18.279 25.6177V25.7369C18.279 25.7369 18.3386 25.7369 18.3982 25.6177C18.5248 25.4985 18.644 25.3718 18.644 25.3718V25.1931C18.644 25.1931 18.4652 25.3123 18.3982 25.3718C18.3386 25.4314 18.2194 25.4314 18.1523 25.3718C18.1523 25.3123 18.2194 25.2527 18.279 25.2527C18.3982 25.2527 18.4652 25.3123 18.4652 25.3123Z" fill="#002A52"/>
<path d="M20.4245 25.0039L20.3574 25.4956L20.8491 25.5552L20.9087 25.0635L20.4245 25.0039Z" fill="#002A52"/>
<path d="M19.9328 25.4297L19.8062 25.9214L20.2978 25.981L20.3574 25.4967L19.9328 25.4297Z" fill="#002A52"/>
<path d="M19.3815 25.8047L19.2549 26.2889L19.7466 26.356L19.8062 25.8643L19.3815 25.8047Z" fill="#002A52"/>
<path d="M20.8491 34.1773C20.8491 34.1773 20.052 33.5664 20.1116 30.7578H20.3574C20.3574 30.7578 20.1116 32.8363 20.7895 33.9314L20.8491 34.1773Z" fill="#002A52"/>
<path d="M21.2815 25.6166C21.2815 25.6166 21.2815 25.4304 20.544 23.4115C20.3578 22.9868 17.2959 14.1811 17.2959 14.1811C17.2959 14.1811 16.8712 13.2052 17.9142 12.043C18.093 11.8567 18.7709 11.1192 19.0764 11L19.136 11.3054C19.136 11.3054 17.5417 12.3484 17.728 13.6894C17.8472 14.5461 18.093 14.9782 18.093 14.9782L21.2815 24.0298C21.2815 24.0298 21.7062 25.0653 21.5199 25.8625C21.4603 26.4138 20.909 26.4734 20.909 26.4734C20.909 26.4734 21.0357 27.0842 20.3578 27.1438C20.3578 27.1438 20.2982 27.6951 19.8065 27.6355C19.8065 27.6355 19.8065 28.1868 19.136 28.2464C18.4655 28.3656 18.1526 27.6355 17.9142 27.0246C17.6684 26.4138 15.3366 20.1112 15.3366 20.1112C15.3366 20.1112 14.4202 18.2189 16.2603 16.8705L16.3199 17.1759C16.3199 17.1759 15.5228 17.9731 15.5228 18.5244C15.5228 19.0756 15.5824 19.5003 15.7686 19.992C15.9549 20.4762 18.3388 27.0246 18.3388 27.0246C18.3388 27.0246 18.5847 27.8218 19.1956 27.5759C19.8065 27.3897 19.6277 26.6596 19.6277 26.5925C19.6277 26.533 19.6873 26.5925 19.7469 26.6596C19.7469 26.7192 19.8065 27.0246 19.8065 27.0246C19.8065 27.0246 20.2386 27.0246 20.2386 26.533C20.2386 26.0413 20.2982 26.1083 20.2982 26.1679C20.3578 26.2275 20.3578 26.533 20.3578 26.533C20.3578 26.533 20.7898 26.5925 20.7302 26.0413C20.6632 25.6166 20.7302 25.6762 20.7898 25.6762L20.8494 25.8625C20.8494 25.8625 21.1549 25.9817 21.2815 25.6166Z" fill="#002A52"/>
<path fill-rule="evenodd" clip-rule="evenodd" d="M19.9925 24.6401C19.9925 24.6401 19.9925 25.1914 19.6871 25.251C19.3816 25.3106 19.255 25.0052 19.1954 24.886C19.1954 24.886 19.1358 24.886 19.1358 25.0648C19.1358 25.251 19.322 26.8378 18.1524 27.0837C17.2957 27.3891 16.7444 26.1674 16.7444 26.1674C16.7444 26.1674 16.871 27.2029 16.506 27.6946C16.1335 28.1863 15.6493 28.1863 15.2768 27.8808C15.2768 27.8808 15.0309 28.2459 14.3008 28.4917C14.3008 28.4917 14.1742 28.5513 14.3604 28.3651C14.5467 28.1863 14.8521 27.9404 15.0309 27.635C15.0309 27.635 14.7255 27.1433 14.7851 26.1674C14.9117 25.1914 15.098 24.7593 15.098 24.5731C15.1576 24.3943 15.1576 24.3347 15.2172 24.3347C15.2768 24.3347 15.2768 24.4539 15.3364 24.5731C15.3364 24.6997 15.8281 25.5565 15.8877 26.1078C15.8877 26.6591 15.7685 27.2699 15.6493 27.5158C15.6493 27.5158 16.3794 27.635 16.6252 26.8378C16.6252 26.8378 16.6848 26.5324 16.6252 26.227C16.5656 25.9215 15.8281 24.1484 15.8281 24.1484C15.8281 24.1484 15.8281 23.9026 15.8281 23.7834C15.8281 23.6568 15.7685 23.3513 15.8281 23.3513C15.8281 23.2917 15.8281 23.2917 15.8877 23.4109C15.8877 23.478 16.439 25.0052 16.9306 25.8619C17.4223 26.7186 18.1524 26.5324 18.5249 26.1078C18.8304 25.6757 18.89 25.1244 18.89 24.8189C18.89 24.5135 19.0166 24.0888 19.0762 24.0888C19.1954 24.0888 19.1954 24.208 19.1954 24.2676C19.255 24.3347 19.3221 24.6997 19.5604 24.5731C19.8063 24.5135 19.8063 24.208 19.8063 24.1484C19.8063 24.0888 19.6871 23.7238 19.8063 23.5972C19.9329 23.478 19.9329 23.9026 19.9329 23.9026C19.9329 23.9026 19.9329 24.0293 20.0521 23.843C20.1788 23.7238 20.2384 23.5376 20.1788 23.2917C20.1788 23.2917 20.1117 23.1055 20.1788 23.1055C20.2384 23.1055 20.4246 23.6568 20.4246 24.0293C20.3576 24.3943 20.2384 24.5135 19.9925 24.6401ZM15.7089 26.1674C15.7089 25.8619 15.2172 25.1914 15.2172 25.1914C15.2172 25.1914 15.0309 25.5565 15.0309 26.592C15.0309 26.592 15.0309 26.8974 15.3364 27.2699C15.3364 27.2699 15.7685 26.592 15.7089 26.1674Z" fill="#002A52"/>
<path d="M9.64453 30.9956C9.64453 30.9956 9.64453 30.936 9.70413 30.936C9.77118 30.936 9.77118 30.9956 9.77118 31.1222C9.77118 31.1818 9.94998 32.4036 10.8738 32.8357C10.8738 32.8357 11.2388 33.0145 11.4846 32.7761C11.6634 32.5303 11.6634 32.1578 11.7305 31.979C11.7305 31.8523 11.7901 31.1818 12.0955 30.7572C12.4606 30.3251 12.7064 30.4517 12.7064 30.5113C12.7064 30.5709 12.8927 31.1222 13.3769 31.2414C13.8686 31.4277 15.0308 31.4277 15.7683 29.9601C15.8279 29.9005 15.8875 29.7738 15.7683 29.7142C15.6491 29.6546 15.5821 29.6546 15.5821 29.6546C15.5821 29.6546 15.6491 29.8334 15.5225 29.9601C15.4033 30.0793 15.0308 30.2655 14.852 29.9005C14.852 29.9005 14.7849 29.7142 14.7849 29.3492C14.7849 29.0437 15.0308 28.7383 15.217 28.7383C15.4629 28.7383 15.9546 28.9171 16.0142 29.6546C16.0738 30.3847 15.4629 31.301 14.7253 31.6735C13.9952 32.0386 13.1385 31.8523 12.766 31.3681C12.766 31.3681 12.6468 31.1222 12.6468 31.0626C12.6468 31.0626 12.6468 30.9956 12.5202 31.1222C12.401 31.2414 12.0955 31.4277 12.0359 31.979C11.9689 32.5899 11.9689 33.3199 11.2984 33.2603C10.6279 33.2007 10.0766 32.2248 9.89038 31.5469C9.77118 31.6139 9.64453 31.2414 9.64453 30.9956Z" fill="#002A52"/>
<path d="M14.1147 32.588C14.1147 32.588 14.1147 32.5284 14.1743 32.5284C14.2414 32.5284 15.5824 32.2229 16.2603 30.8149C16.5062 30.2636 16.6849 29.3473 16.7445 28.7364C16.8116 28.1255 16.9308 27.6338 17.2362 27.5742C17.2362 27.5742 17.2958 27.5742 17.3629 27.8201C17.4225 28.0585 17.5417 28.3043 17.4821 28.3639C17.4225 28.3639 17.3629 28.3043 17.2958 28.2447C17.2362 28.1851 16.9904 28.5501 16.9904 28.796C16.9308 29.0418 16.9904 30.6287 16.5657 31.3662C16.1933 32.0963 15.2769 32.5284 14.1147 32.588Z" fill="#002A52"/>
<path d="M17.9736 30.6298C17.9736 30.6298 17.9736 30.8757 17.7874 30.9948C17.5415 31.1215 17.2957 30.9949 17.2361 30.8161C17.2361 30.6298 17.0573 30.0785 17.2957 29.8997C17.5415 29.7135 17.9736 29.6539 18.2195 30.0785C18.4653 30.5106 18.2791 31.3673 18.0332 31.6728C17.847 31.9782 16.9902 33.3192 14.6659 33.5651C14.1146 33.6246 12.7066 33.2596 12.8928 31.9186C12.9524 31.4269 13.1387 30.9353 13.3771 30.5702C13.3771 30.5702 13.4441 30.5106 13.4441 30.6298C13.4441 30.6894 12.8928 31.7324 13.2579 32.3433C13.69 32.9542 14.4796 33.3192 16.1335 32.5891C17.7278 31.8516 18.0928 30.8161 18.0928 30.7565C18.1524 30.6894 17.9736 30.6298 17.9736 30.6298Z" fill="#002A52"/>
<path d="M13.5636 27.39C13.8094 27.1441 14.2415 26.7791 14.3607 26.3544C14.4799 25.9224 14.4203 25.6169 14.2415 25.5573C14.0553 25.4977 13.6902 25.8628 13.5636 25.982C13.4444 26.1086 13.5636 26.7195 13.5636 26.7195C13.5636 26.7195 13.3773 26.8387 13.2581 26.9653C13.1389 27.0845 12.7664 27.3304 12.6472 27.755C12.5206 28.1275 12.6472 28.433 12.7664 28.5522C12.8931 28.6713 13.3177 28.5522 13.4444 28.4926C13.6232 28.433 13.6902 28.5522 13.6902 28.5522C13.6902 28.5522 13.0719 29.4089 11.6638 29.6547C10.7475 29.8335 8.97445 30.206 7.01514 29.0438C7.01514 29.0438 8.05067 30.8169 11.418 30.2656C12.9527 30.0198 13.6232 29.1034 13.7498 28.9172C13.869 28.6713 13.9957 28.2467 13.8094 28.0009C13.6902 27.755 13.3773 27.8221 13.1389 27.8817C12.8931 27.9413 12.8335 27.8817 12.8335 27.8817C12.8931 27.8817 13.2581 27.6358 13.5636 27.39Z" fill="#002A52"/>
<path d="M13.1985 29.832L13.7498 30.1449L13.5039 30.6292L12.9526 30.3237L13.1985 29.832Z" fill="#002A52"/>
<path d="M14.055 29.6562L14.6062 29.9617L14.3604 30.4534L13.7495 30.1479L14.055 29.6562Z" fill="#002A52"/>
<path d="M17.6086 28.7383L18.1525 29.0437L17.9737 29.528L17.3628 29.2225L17.6086 28.7383Z" fill="#002A52"/>
<path d="M19.4412 31.9182C19.4412 31.9182 19.4412 31.6724 19.5604 31.732C19.6274 31.732 19.5008 32.1566 19.5604 32.775C19.6274 33.3858 19.6274 35.0919 21.8922 36.1348C21.8922 36.1348 22.4435 36.4999 24.2762 36.8724C24.2762 36.8724 24.4028 36.8724 24.3358 36.932C24.2762 36.9916 22.6893 37.0512 21.5197 36.6265C20.3575 36.254 19.4412 35.0919 19.3816 33.5646C19.3816 33.4454 19.322 32.9537 19.4412 31.9182Z" fill="#002A52"/>
<path d="M25.8705 29.9016C25.1329 28.3669 23.792 27.1452 22.8086 26.3555C22.8086 26.7205 22.9278 27.026 23.4791 27.5772C24.0974 28.0615 25.2596 29.4695 25.6246 30.207C25.6842 30.3262 25.6842 30.6913 25.6842 30.8179C25.6246 30.7583 25.6246 29.9612 24.5817 30.2666C25.2596 30.4529 25.6842 31.183 25.8109 31.6151C25.8705 31.0638 25.9301 30.2666 25.8705 29.9016Z" fill="#002A52"/>
<path d="M21.4003 31.5461C21.0949 31.8515 20.7895 32.224 20.5436 32.9541C20.2382 33.7512 20.9087 34.3621 20.9087 34.2429C21.0353 31.9782 23.1734 30.9352 24.2164 31.3002C24.4622 31.4269 25.0135 31.6131 24.5814 32.157C24.5814 32.157 25.319 32.589 25.684 31.7323C25.8107 31.5461 23.6651 29.7134 21.4003 31.5461Z" fill="#002A52"/>
<path d="M19.0763 11L19.1359 11.3054C19.1359 11.3054 18.4655 11.7971 18.5846 12.8327C18.5846 12.8327 18.5846 13.2648 18.8305 13.8756C19.0763 14.5461 22.1978 23.5381 22.1978 23.5381C22.1978 23.5381 22.7491 25.0057 22.4437 26.0413C22.2574 26.7192 22.1382 27.1438 21.2815 28.0006C20.4248 28.8573 18.7709 29.0436 18.7709 29.0436C18.7709 29.0436 18.1526 29.1628 18.525 29.0436C18.8901 28.9169 21.952 27.6951 22.317 25.4974C22.317 25.3708 22.2574 24.9461 22.1978 24.8195C22.1382 24.7003 18.2792 13.6894 18.2792 13.6894C18.2792 13.6894 17.5417 12.1026 19.0763 11Z" fill="#002A52"/>
<path fill-rule="evenodd" clip-rule="evenodd" d="M23.1734 28.7974C23.1734 28.857 23.1138 29.4083 23.0542 29.4083C22.9946 29.4679 22.868 29.2891 22.6222 29.3487C22.3838 29.4083 22.2571 29.4679 21.8921 30.0788C21.5196 30.63 21.0949 31.0621 20.3574 31.2409C20.2978 31.2409 20.1786 31.2409 20.052 31.2409C20.052 31.1813 19.9924 31.1813 19.9924 31.1813C19.6869 30.9951 19.6273 30.5108 19.6273 30.5108V30.4513H19.5603C19.5603 30.4513 19.0164 30.7567 19.0164 31.1813V31.4272C19.0164 31.9189 19.0164 32.9544 18.3981 33.3865C17.668 33.8707 16.26 33.8707 16.0737 33.8707C16.5058 33.7515 17.7276 33.3865 18.2789 32.7756C18.5843 32.4627 18.7706 31.9785 18.8302 31.3676V31.1217C18.8302 30.9355 18.8302 30.6896 18.8898 30.5705C18.9494 30.4513 19.076 30.0788 19.6869 29.7733C19.7465 29.7733 19.7465 29.7733 19.7465 29.7733C19.7465 29.8329 19.7465 29.8329 19.7465 29.8329C19.6869 29.9596 19.7465 30.3246 19.8061 30.3842C19.8732 30.4513 19.8732 30.5704 20.052 30.63H20.1116C20.1116 30.5109 20.1116 30.3246 20.1116 30.265C20.2382 29.222 20.6628 28.6111 21.4004 28.5515C21.4004 28.5515 21.46 28.5515 21.5196 28.6111C21.5866 28.6111 21.5866 28.6707 21.5866 28.7378C21.5866 28.9166 21.5866 29.1028 21.5866 29.222C21.5866 29.5275 21.5196 29.8329 21.46 30.0788C21.6462 29.9 22.0113 29.222 22.1379 29.1028C22.2571 28.9836 22.3838 28.7974 22.3838 28.7974C22.3838 28.7974 22.3838 28.7378 22.3838 28.5515C22.3838 28.5515 22.3838 28.3653 22.503 28.2461C22.503 28.2461 22.5626 28.2461 22.5626 28.3057C22.5626 28.3653 22.6222 28.4323 22.6892 28.4919C22.868 28.5515 23.2405 28.6707 23.1734 28.7974ZM20.3574 30.5705V30.63C20.4244 30.5704 20.4244 30.5705 20.4244 30.5705C20.484 30.5705 20.5436 30.5108 20.5436 30.5108C21.0949 30.2054 21.4004 29.5945 21.4004 29.3487V29.2891C21.4004 29.2891 21.1545 29.222 20.7299 29.7137C20.5436 29.8329 20.4244 30.1458 20.3574 30.5705Z" fill="#002A52"/>
</g>
<defs>
<clipPath id="clip0_4361_26299">
<rect width="114.877" height="26" fill="white" transform="translate(7 11)"/>
</clipPath>
</defs>
</svg>
