<svg width="128" height="48" viewBox="0 0 128 48" fill="none" xmlns="http://www.w3.org/2000/svg">
<path fill-rule="evenodd" clip-rule="evenodd" d="M28.1216 10.04C28.0955 10.0834 26.1068 14.577 23.106 21.3732C22.0581 23.7464 21.1188 25.8659 21.0187 26.0833C20.3478 27.5396 19.9348 29.5264 20.0085 30.9427C20.109 32.8732 20.7829 34.4143 22.0787 35.6767C23.1972 36.7664 24.596 37.4875 26.3315 37.8692L26.8875 37.9915L32.3477 37.9988C35.3508 38.0028 37.736 37.9966 37.6481 37.9851C35.0091 37.64 32.6361 35.7221 31.6903 33.1702C31.3641 32.29 31.2626 31.6839 31.2626 30.6155C31.2626 29.5829 31.3612 28.96 31.649 28.1757C31.7317 27.9501 32.8193 25.4763 34.0658 22.6783C35.3123 19.8803 37.0799 15.913 37.9938 13.8621C38.9076 11.8112 39.6677 10.1032 39.6828 10.0666C39.7048 10.0136 38.5331 10 33.928 10C30.7477 10 28.1348 10.018 28.1216 10.04ZM38.5825 17.7639C38.5449 17.8446 37.6633 19.8164 36.6234 22.1456C35.5834 24.4748 34.529 26.836 34.2801 27.3927C33.437 29.2784 33.3316 29.6809 33.3744 30.85C33.4063 31.7214 33.5045 32.1281 33.8689 32.8991C34.5469 34.3335 35.7965 35.3581 37.399 35.7938C38.0164 35.9616 39.2778 35.9595 39.9387 35.7895C40.8785 35.5478 41.7617 35.0452 42.4343 34.3693C42.9757 33.8252 43.3226 33.2607 43.8737 32.0272C44.3625 30.9331 45.424 28.5647 46.5718 26.0077C48.0482 22.7187 48.382 21.9676 48.382 21.9348C48.382 21.9154 48.1805 21.9668 47.9343 22.0492C46.5083 22.5262 44.8434 22.5235 43.3767 22.0419C42.2709 21.6788 41.3468 21.1213 40.5052 20.3095C39.8527 19.6801 39.3996 19.07 39.0005 18.2835C38.8221 17.9319 38.6705 17.6382 38.6635 17.6307C38.6566 17.6233 38.6201 17.6832 38.5825 17.7639Z" fill="#6B47F5"/>
<path d="M106.234 22.2514V16.364V10.4766L107.312 10.4909L108.391 10.5054L108.405 16.3784L108.418 22.2514H107.326H106.234Z" fill="#3E3A5F"/>
<path d="M60.709 12.4169C60.8399 12.1358 61.0745 11.919 61.3535 11.8215C61.9143 11.6254 62.5219 11.8751 62.7891 12.4113C63.0191 12.8727 62.9417 13.3405 62.5747 13.708C62.3059 13.9772 62.0515 14.0668 61.6405 14.0371C61.2206 14.0067 60.9272 13.8059 60.7275 13.412C60.5458 13.0537 60.5407 12.7784 60.709 12.4169Z" fill="#3E3A5F"/>
<path d="M63.618 13.3449C63.3607 12.7468 63.6934 11.9915 64.2932 11.8114C64.8885 11.6327 65.4851 11.8916 65.7348 12.4371C66.0719 13.1732 65.5962 13.9792 64.7902 14.0375C64.2267 14.0782 63.8336 13.846 63.618 13.3449Z" fill="#3E3A5F"/>
<path d="M85.9726 12.0927C86.0955 11.9696 86.2758 11.8459 86.3732 11.8179C87.3029 11.55 88.1588 12.3286 87.9103 13.2163C87.6659 14.089 86.4746 14.3475 85.9015 13.6522C85.504 13.1701 85.533 12.5328 85.9726 12.0927Z" fill="#3E3A5F"/>
<path d="M88.4989 12.5376C88.5686 12.2865 88.9516 11.8896 89.1965 11.8147C89.2939 11.7849 89.5242 11.769 89.7083 11.7795C89.9681 11.7943 90.0911 11.8318 90.2577 11.9472C91.1437 12.5612 90.7875 13.9603 89.7257 14.0371C89.3437 14.0647 89.0799 13.9842 88.8279 13.763C88.4847 13.4617 88.3655 13.0178 88.4989 12.5376Z" fill="#3E3A5F"/>
<path d="M59.6072 34.1933C59.4953 33.7956 59.4917 33.6852 59.4748 30.1487L59.4575 26.5131H60.7385H62.0193V29.8481C62.0193 33.5374 62.0239 33.5954 62.3554 34.0927C62.5428 34.3737 62.8896 34.6225 63.2179 34.7115C63.5253 34.7949 64.2475 34.7831 64.5533 34.6898C64.9815 34.559 65.2864 34.2962 65.4904 33.8818L65.6683 33.5205L65.6831 30.0167L65.6979 26.5131H67.0016H68.3052L68.3048 29.7226C68.3045 31.5082 68.2807 33.1448 68.251 33.4115C68.0284 35.4111 66.7349 36.7604 64.7288 37.0858C63.0017 37.3659 61.3309 36.857 60.422 35.7741C60.0762 35.3621 59.7678 34.7637 59.6072 34.1933Z" fill="#3E3A5F"/>
<path d="M85.0853 28.64V27.6298V26.6196H86.3638H87.6423V27.6304V28.6411L88.4813 28.6558L89.3203 28.6705V29.7359V30.8013L88.4813 30.816L87.6423 30.8307L87.6431 32.6271C87.6437 33.9558 87.6612 34.4584 87.7104 34.5568C87.8313 34.7987 88.083 34.8763 88.7476 34.8764L89.3469 34.8765V35.9746V37.0728L88.2682 37.0477C87.1057 37.0206 86.7263 36.9475 86.2229 36.6533C85.912 36.4716 85.5272 36.0424 85.3727 35.705C85.1169 35.1462 85.0872 34.841 85.0862 32.7609L85.0853 30.8318L84.5659 30.8165L84.0465 30.8013V29.7359V28.6705L84.5659 28.6553L85.0853 28.64Z" fill="#3E3A5F"/>
<path d="M80.2627 29.5571C79.6947 28.7804 80.0329 27.7763 80.9759 27.4394C81.2106 27.3555 81.7366 27.3458 82.0051 27.4204C82.1128 27.4503 82.3166 27.552 82.4579 27.6465C83.1964 28.14 83.2214 29.2934 82.5051 29.8208C81.8265 30.3203 80.7263 30.1909 80.2627 29.5571Z" fill="#3E3A5F"/>
<path d="M72.9849 29.4284C73.3332 29.0961 73.8163 28.8305 74.3247 28.6916C74.5377 28.6334 74.8677 28.5958 75.1818 28.5938C76.8672 28.5832 78.0284 29.5464 78.347 31.2188C78.411 31.5549 78.4265 32.1654 78.4265 34.3485V37.0605H77.148H75.8696V34.5652C75.8696 32.2215 75.8632 32.0513 75.7647 31.7649C75.6205 31.3458 75.391 31.0754 75.0283 30.8973C74.7676 30.7693 74.6596 30.748 74.2715 30.748C73.6881 30.748 73.2936 30.9219 73.0193 31.2998C72.6841 31.7615 72.6734 31.8641 72.6734 34.6003V37.0605H71.3949H70.1164V32.8512V28.6419L71.3816 28.6562L72.6467 28.6705L72.6621 29.1961L72.6774 29.7217L72.9849 29.4284Z" fill="#3E3A5F"/>
<path d="M80.2377 37.0605V33.9176V30.7747H81.5162H82.7947V33.9176V37.0605H81.5162H80.2377Z" fill="#3E3A5F"/>
<path fill-rule="evenodd" clip-rule="evenodd" d="M61.9289 14.7962C61.3044 14.9196 60.5939 15.3174 60.0768 15.8332C59.64 16.2688 59.3568 16.7278 59.157 17.324C59.0304 17.7015 59.014 17.8321 59.0132 18.4693C59.0122 19.2927 59.0766 19.5725 59.421 20.2403C60.1224 21.6001 61.7034 22.4161 63.2245 22.2033C64.6964 21.9974 65.8656 21.0113 66.3518 19.5657C66.4533 19.2639 66.4621 19.0873 66.4805 16.991L66.5003 14.7404L64.3264 14.7462C63.1308 14.7494 62.0519 14.7719 61.9289 14.7962ZM64.2036 19.0692C64.2954 18.8238 64.31 18.654 64.31 17.828V16.8712L63.4443 16.8747C62.5272 16.8786 62.2244 16.9285 61.8991 17.1295C61.2981 17.501 61.0135 18.3298 61.2531 19.0111C61.3889 19.3974 61.836 19.8451 62.2211 19.9805C63.0003 20.2545 63.9179 19.8326 64.2036 19.0692Z" fill="#3E3A5F"/>
<path fill-rule="evenodd" clip-rule="evenodd" d="M101.694 14.9135L101.679 19.3482L101.546 19.6146C101.36 19.9868 101.18 20.0673 100.534 20.0669C100.131 20.0667 99.997 20.0465 99.8781 19.9681C99.576 19.769 99.5512 19.6851 99.5134 18.7356C99.4731 17.726 99.4046 17.4117 99.0835 16.7646C98.9052 16.4053 98.7648 16.2183 98.4037 15.859C97.901 15.3587 97.5428 15.124 96.9557 14.91C96.5975 14.7795 96.4986 14.7676 95.766 14.7673C94.8833 14.7669 94.6797 14.8115 94.0347 15.1463C93.295 15.5301 92.7707 16.0652 92.3855 16.8292C92.1028 17.39 91.9925 17.9152 92.0206 18.5657C92.0459 19.1493 92.1524 19.4518 92.4678 19.8367L92.6568 20.0674H91.2927C89.6924 20.0674 89.6113 20.0476 89.3925 19.603C89.2674 19.3491 89.267 19.3406 89.2506 17.0443L89.2342 14.7404H88.174H87.1138L87.0984 17.0709L87.0829 19.4015L86.9495 19.6412C86.7269 20.041 86.6262 20.0672 85.3117 20.0673L84.1797 20.0674V19.4259C84.1797 18.1297 83.8094 17.1156 83.0066 16.2137C82.5092 15.6548 81.6687 15.1463 80.8237 14.8927C80.4433 14.7786 80.3202 14.7719 78.2534 14.7534L76.0826 14.7339V15.7984V16.863L78.0137 16.8851C79.5401 16.9026 80.0006 16.9243 80.2111 16.9882C81.4615 17.3685 82.0398 18.2334 82.0472 19.7344L82.0489 20.0674H78.1135H74.1781L74.1506 18.962C74.1205 17.7532 74.0699 17.4851 73.7424 16.799C73.2789 15.8278 72.3037 15.0504 71.2566 14.8174C70.7168 14.6973 69.6959 14.7333 69.2629 14.8878C69.0149 14.9761 68.4279 15.2477 68.3667 15.3023C68.3511 15.3163 69.1441 17.1228 69.194 17.1867C69.2037 17.1992 69.3639 17.1468 69.55 17.0704C70.5168 16.6734 71.3491 16.9273 71.7678 17.747L71.9542 18.112L71.9726 19.0897L71.991 20.0674H69.8018H67.6127V21.1594V22.2514L77.0282 22.2505C86.2606 22.2496 86.8176 22.2571 87.2719 22.0448C87.3175 22.0235 87.3622 21.9999 87.4145 21.9739C87.5493 21.9068 87.7754 21.7479 87.917 21.6208L88.1745 21.3896L88.4278 21.613C88.7568 21.9032 89.1146 22.0818 89.553 22.1747C90.0738 22.2851 95.8193 22.2853 96.396 22.175C97.0449 22.0508 97.7188 21.7166 98.1452 21.3074L98.3403 21.1202L98.4731 21.3307C98.669 21.6409 99.0654 21.9659 99.4071 22.0965C99.8372 22.2608 100.828 22.2986 101.443 22.1742C102.595 21.941 103.436 21.1347 103.731 19.9824C103.832 19.5884 103.836 19.3777 103.836 15.0248V10.4787H102.773H101.709L101.694 14.9135ZM97.1817 17.8075C97.0205 17.4799 96.7351 17.1907 96.4248 17.0405C95.8168 16.7461 95.0605 16.8945 94.6063 17.3973C94.3068 17.7288 94.2316 17.9164 94.2054 18.3972C94.1846 18.7783 94.198 18.8661 94.3151 19.1164C94.4784 19.4653 94.7573 19.7538 95.0895 19.9175C95.4399 20.0901 96.0917 20.0909 96.417 19.9191C97.0123 19.6048 97.3108 19.1207 97.3108 18.4693C97.3108 18.1542 97.2835 18.0143 97.1817 17.8075Z" fill="#3E3A5F"/>
<path fill-rule="evenodd" clip-rule="evenodd" d="M105.807 27.8554V29.7837L105.488 29.4601C104.89 28.8553 104.159 28.5675 103.224 28.5697C102.544 28.5713 102.119 28.6683 101.599 28.941C100.892 29.3119 100.403 29.8227 100.024 30.5882C99.6433 31.3573 99.5588 31.7598 99.5545 32.8256C99.5511 33.6515 99.5634 33.7767 99.694 34.248C100.204 36.0891 101.509 37.1691 103.219 37.1663C104.166 37.1647 104.862 36.8955 105.444 36.3047L105.807 35.9366V36.4986V37.0605H107.086H108.364V31.4938V25.9271H107.086H105.807V27.8554ZM105.792 32.719C105.74 31.899 105.383 31.2862 104.784 30.9915C104.413 30.8085 103.905 30.7415 103.556 30.8294C102.643 31.0592 102.072 31.9448 102.147 33.012C102.232 34.2229 103.023 34.9947 104.1 34.9176C105.178 34.8405 105.869 33.9424 105.792 32.719Z" fill="#3E3A5F"/>
<path fill-rule="evenodd" clip-rule="evenodd" d="M93.9548 28.5732C92.117 28.8026 90.8675 29.8677 90.4037 31.6004C90.2363 32.226 90.2372 33.4905 90.4055 34.1307C90.595 34.8511 90.8962 35.4039 91.3732 35.9069C92.1881 36.7661 93.1791 37.1671 94.4875 37.1671C96.0141 37.1671 97.2726 36.5284 98.0064 35.3812C98.179 35.1115 98.4561 34.4713 98.4561 34.3425C98.4561 34.31 97.9513 34.2905 97.1109 34.2905H95.7657L95.5794 34.541C95.2262 35.0157 94.5593 35.2023 93.8977 35.0116C93.6458 34.939 93.5267 34.8639 93.3093 34.6406C93.0451 34.3693 92.9285 34.1289 92.8356 33.6646L92.801 33.4914H95.7074H98.6139L98.6489 33.3518C98.7047 33.1296 98.6294 31.9001 98.5368 31.5204C98.4903 31.33 98.3433 30.9493 98.2099 30.6746C98.01 30.2623 97.8915 30.0993 97.5327 29.7423C97.2934 29.5044 96.9594 29.2286 96.7903 29.1295C96.0458 28.6928 94.8603 28.4602 93.9548 28.5732ZM96.0306 31.8268C95.952 31.3548 95.6681 30.9852 95.2162 30.7664C95.0405 30.6813 94.8504 30.6431 94.5429 30.6309C94.0522 30.6116 93.7158 30.7152 93.3859 30.9874C93.1756 31.1608 92.8627 31.7238 92.8627 31.9285V32.0532H94.4655H96.0683L96.0306 31.8268Z" fill="#3E3A5F"/>
<circle cx="45.5856" cy="15.3536" r="5.35365" fill="#B1B4E0"/>
</svg>
