<svg width="128" height="48" viewBox="0 0 128 48" fill="none" xmlns="http://www.w3.org/2000/svg">
<mask id="mask0_4361_26323" style="mask-type:luminance" maskUnits="userSpaceOnUse" x="12" y="5" width="104" height="38">
<path d="M115.517 5H12V43H115.517V5Z" fill="white"/>
</mask>
<g mask="url(#mask0_4361_26323)">
<path d="M70.3755 38.6623L70.6376 38.2692C70.8342 38.0071 70.8342 37.8761 70.8342 37.483V30.4727H68.1479L68.3445 30.8658V39.9071H76.4031V38.4002L76.0755 38.5968L70.3755 38.6623Z" fill="#14141F"/>
<path d="M115.191 39.1865C114.536 38.1382 113.684 36.8933 113.16 36.1727C114.47 35.6485 115.125 34.7968 115.125 33.6175C115.125 31.5864 113.618 30.4727 111.129 30.4727H106.084L106.281 30.8658V39.9071H108.77V36.6313H110.801C111.325 37.483 111.981 38.5968 112.439 39.383C113.029 40.4313 113.487 40.4968 115.584 39.383L115.191 39.1865ZM110.212 35.2554H108.705V32.9623C108.705 32.5692 108.639 32.3727 108.508 32.1761L108.246 31.783H109.949C111.784 31.783 112.505 32.3071 112.505 33.552C112.505 34.6002 111.915 35.2554 110.212 35.2554Z" fill="#14141F"/>
<path d="M77.8445 30.8766V39.918H80.3342V36.118H82.8893C83.61 36.118 83.61 35.9214 83.8066 34.8076L83.479 34.8731L80.3342 34.9387V32.9076C80.3342 32.5145 80.2686 32.318 80.1376 32.1214L79.8755 31.7283H85.379L85.7066 31.9249V30.418H77.6479L77.8445 30.8766Z" fill="#14141F"/>
<path d="M64.9371 30.8658V36.1071C64.9371 37.9416 64.2164 38.7278 62.2509 38.7278C60.1544 38.7278 59.4992 37.8761 59.4992 35.9761V30.4727H56.813L57.0095 30.8658V36.5002C57.0095 38.9244 58.844 40.0382 61.8578 40.0382C65.3302 40.0382 66.2475 38.3347 66.2475 36.1071V30.4727H64.6751L64.9371 30.8658Z" fill="#14141F"/>
<path d="M101.628 30.8658V39.9071H104.118V30.4727H101.432L101.628 30.8658Z" fill="#14141F"/>
<path d="M96.1888 30.8815C95.7301 29.8987 95.2715 29.8332 93.2405 30.7505L93.5026 30.947L93.6991 31.4056L89.7681 39.9884H91.275L92.3888 37.4987H96.4508L97.237 39.2022C97.7612 40.316 98.2198 40.5125 100.447 39.4642L100.12 39.2022L96.1888 30.8815ZM92.9129 36.1884L94.3543 32.978L95.7957 36.1884H92.9129Z" fill="#14141F"/>
<path d="M52.5555 35.776V37.1519C52.5555 37.545 52.621 37.7415 52.752 37.9381L52.8831 38.1346C52.2279 38.3967 51.5727 38.5277 50.852 38.5277C48.821 38.5277 47.1831 37.1519 47.1831 34.4657C47.1831 32.6312 47.9693 31.6484 49.8693 31.6484C51.5727 31.6484 52.9486 31.976 54.652 32.5001L54.7175 30.7967C53.9968 30.5346 51.7037 30.207 50.5899 30.207C46.921 30.207 44.3003 31.5829 44.3003 35.1208C44.3003 38.5932 47.1175 39.9036 50.3934 39.9036C52.1624 39.9036 54.3244 39.2484 54.9796 38.9208V35.1863H52.2279L52.5555 35.776Z" fill="#14141F"/>
<path d="M96.9095 18.2157C97.0406 17.8881 97.1716 17.6261 97.3026 17.364C97.1061 17.2329 96.844 17.1019 96.3199 16.8398V17.0364C96.1888 17.364 96.0578 17.6261 95.9268 17.8881C96.1888 18.0847 96.5164 18.2812 96.9095 18.4123V18.2157Z" fill="#A18F63"/>
<path d="M83.8739 18.4305C84.0049 18.103 84.1359 17.8409 84.267 17.5788C84.0704 17.4478 83.8084 17.3168 83.2842 17.0547V17.2512C83.1532 17.5788 83.0221 17.8409 82.8911 18.103C83.1532 18.2995 83.4808 18.4961 83.8739 18.6271V18.4305Z" fill="#A18F63"/>
<path d="M106.607 22.8745C107.131 22.8745 107.393 22.6124 107.655 22.1538C107.917 22.7435 108.114 22.8745 108.703 22.8745H113.093C114.403 22.8745 115.19 21.6297 115.19 20.5159C115.19 19.4021 114.338 18.6159 113.486 18.6159C112.634 18.6159 112.045 19.0745 111.39 19.7952C111.455 19.6642 111.455 19.5331 111.455 19.2711L111.652 16.1918L111.783 15.9297L110.603 16.4538C110.276 16.5849 110.276 16.7159 110.276 17.0435L110.603 20.6469L110.014 21.4987C109.686 21.4987 109.096 21.4987 108.769 21.4987C107.983 21.4987 108.114 20.9745 108.179 20.6469L108.31 19.9918L107.852 19.8607C107.393 20.909 107.131 21.4987 106.345 21.4987H105.755C105.165 21.4987 104.903 21.1055 104.248 20.0573L104.183 19.8607L103.265 20.5814C103.724 21.1055 104.314 21.8262 104.576 22.2193C103.79 23.6607 101.824 24.578 100.841 24.578L101.824 25.4952C102.021 25.6918 102.217 25.7573 102.414 25.7573C103.134 25.7573 104.838 24.3159 105.165 22.5469C105.428 22.809 105.69 22.809 106.083 22.809L106.607 22.8745ZM113.159 20.0573C113.617 20.0573 114.207 20.3849 114.338 21.04C114.207 21.4331 113.617 21.5642 113.028 21.6297C112.438 21.6297 111.979 21.6952 110.734 21.6952C111.521 20.778 112.372 20.0573 113.159 20.0573Z" fill="#A18F63"/>
<path d="M108.114 23.793V23.9895C107.983 24.3171 107.852 24.5792 107.721 24.8412C107.983 25.0378 108.311 25.2343 108.704 25.3654V25.1688C108.835 24.8412 108.966 24.5792 109.097 24.3171C108.9 24.1861 108.638 24.055 108.114 23.793Z" fill="#A18F63"/>
<path d="M87.6079 17.1216C87.6079 17.3182 88.1321 20.2664 88.2631 21.3802C88.0666 21.5768 87.87 21.5768 87.5424 21.5768H86.3631C85.7735 21.5768 85.4459 21.6423 85.1838 20.9871C85.3148 20.9216 85.3804 20.9216 85.5114 20.9216H85.839L86.3631 19.7423H85.5114C84.5286 19.7423 83.8079 19.0216 82.5631 19.0216C82.301 19.0216 82.17 19.0216 81.9079 19.0871L81.1217 20.463L81.6459 20.2009C81.7769 20.2009 81.8424 20.2009 82.039 20.2009C83.2183 20.2009 83.8735 20.594 84.2666 20.7251C83.939 20.9871 83.6769 21.1837 83.3493 21.3802C82.8907 21.6423 82.039 21.5768 80.8597 21.5768C80.401 21.5768 80.2045 21.5768 80.0079 21.4457C80.0079 21.3147 80.0735 21.1837 80.0735 21.0526L80.2045 16.2699L80.3355 16.0078L79.2217 16.532C78.8941 16.663 78.8941 16.794 78.8941 17.0561C78.8941 17.2526 79.3528 20.2664 79.4838 21.3802C79.2873 21.5768 79.1562 21.5768 78.7631 21.5768H77.7148C76.9942 21.5768 76.9286 21.2492 77.3217 20.0699L76.8631 19.9388C76.2079 21.3147 76.0769 21.5768 75.2907 21.5768H73.8493C73.4562 21.5768 73.1286 21.5113 72.9321 21.0526H73.4562L73.9804 19.8733H73.0631C72.1459 19.8733 70.5735 19.1526 69.5907 19.1526C69.4597 19.1526 69.3286 19.1526 69.1321 19.2182L68.3459 20.594L68.87 20.332C69.0011 20.332 69.0666 20.332 69.2631 20.332C69.8528 20.332 70.3769 20.3975 70.77 20.5285C69.1976 21.2492 68.2148 22.7561 68.2148 24.394C68.2148 26.3595 69.8528 27.3423 71.3597 27.3423C72.1459 27.3423 72.9321 27.0802 73.1286 26.8182C73.2597 26.6216 73.4562 26.3595 73.8493 25.7044C73.3907 25.9664 72.2769 26.0975 71.7528 26.0975C70.3769 26.0975 68.9355 25.5733 68.87 23.8699C69.0666 22.494 70.77 21.3147 72.4735 21.1182C72.9976 22.8871 73.3907 22.9526 74.1114 22.9526H75.5528C76.0769 22.9526 76.339 22.6251 76.601 22.1009C76.8631 22.6906 77.0597 22.9526 77.5838 22.9526H78.8286C79.0907 22.9526 79.2217 22.8871 79.3528 22.8216C79.4838 22.6906 79.6148 22.494 79.7459 22.232C80.139 22.8871 80.4666 22.9526 81.0562 22.9526H82.3666C82.8907 22.9526 83.2838 22.8216 83.8735 22.232C84.2666 21.8388 84.5286 21.5113 84.7907 21.3802C85.1838 22.5595 85.3804 23.0182 86.0355 23.0182H87.6735C87.9355 23.0182 88.0666 22.9526 88.1976 22.8871C88.4597 22.6251 88.9183 21.9699 88.9183 21.2492L88.9838 16.4664L89.1148 16.2044L88.001 16.7285C87.6735 16.794 87.6079 16.9251 87.6079 17.1216Z" fill="#A18F63"/>
<path d="M70.4424 24.06C70.7045 24.2565 71.032 24.4531 71.4251 24.5841V24.3876C71.5562 24.06 71.6872 23.7979 71.8182 23.5359C71.6217 23.4048 71.3596 23.2738 70.8355 23.0117V23.2083C70.7045 23.4703 70.5734 23.7979 70.4424 24.06Z" fill="#A18F63"/>
<path d="M96.4525 23.7982C98.418 23.7982 99.2697 22.6844 99.4007 21.4396C99.4662 20.7844 99.2697 19.6051 99.0076 18.6878L99.0731 18.4258L98.1559 19.0154C97.8283 19.212 97.8283 19.2775 97.8283 19.343C97.8283 19.6051 98.3525 20.3913 98.7456 21.5706C98.3525 22.0292 97.4352 22.4223 96.4525 22.4223C95.6007 22.4223 94.8145 22.0947 94.8145 21.3085C94.8145 20.9154 94.88 20.3913 95.1421 19.8016L94.6835 19.6051C94.2249 20.3913 94.0283 21.0465 94.0283 21.5706C94.0938 22.881 94.8145 23.7982 96.4525 23.7982Z" fill="#A18F63"/>
<path d="M76.6656 23.9895C76.5345 24.3171 76.4035 24.5792 76.2725 24.8412C76.5345 25.0378 76.8621 25.2343 77.2552 25.3654V25.1688C77.3863 24.8412 77.5173 24.5792 77.6483 24.3171C77.4518 24.1861 77.1897 24.055 76.6656 23.793V23.9895Z" fill="#A18F63"/>
<path d="M106.608 23.6016V23.7981C106.477 24.1257 106.346 24.3878 106.215 24.6498C106.477 24.8464 106.804 25.0429 107.198 25.174V24.9774C107.329 24.6498 107.46 24.3878 107.591 24.1257C107.394 24.0602 107.132 23.8636 106.608 23.6016Z" fill="#A18F63"/>
<path d="M90.6198 22.6034L90.5543 23.062C91.0784 22.4724 91.2095 22.3413 91.275 21.6862L91.406 16.3793L91.5371 16.1172L90.3577 16.6413C90.0302 16.7724 89.9646 16.9034 90.0302 17.231L90.6198 22.6034Z" fill="#A18F63"/>
<path d="M101.037 23.062C101.561 22.4724 101.692 22.3413 101.758 21.6862L101.889 16.3793L102.02 16.1172L100.841 16.6413C100.513 16.7724 100.448 16.9034 100.513 17.231L101.103 22.6034L101.037 23.062Z" fill="#A18F63"/>
<path d="M76.142 24.1843C75.9454 24.0533 75.6834 23.9222 75.1592 23.6602V23.8567C75.0282 24.1843 74.8971 24.4464 74.7661 24.7084C75.0282 24.905 75.3558 25.1015 75.7489 25.2326V25.036C75.8799 24.7084 76.0109 24.4464 76.142 24.1843Z" fill="#A18F63"/>
<path d="M37.6175 21.1092C42.4657 19.1437 45.0864 16.9161 45.152 13.3782C45.152 12.6575 45.0209 11.8713 44.7588 11.0195C44.6933 12.1333 43.1864 13.5092 41.0899 14.885C38.4692 16.5885 34.7347 18.7506 32.1795 20.1264C28.052 22.4195 27.1347 24.8437 26.8071 26.4816C27.7899 25.3678 33.4244 22.8126 37.6175 21.1092ZM44.5623 12.0678L44.7588 12.2644C44.7588 12.3299 44.7588 12.3954 44.7588 12.3954L44.4968 12.1988C44.4968 12.1333 44.5623 12.0678 44.5623 12.0678ZM44.2347 12.5264L44.6933 12.985C44.6933 13.0506 44.6933 13.0506 44.6278 13.1161L44.1692 12.6575C44.1692 12.5919 44.2347 12.5919 44.2347 12.5264ZM43.8416 12.985L44.4313 13.5747C44.4313 13.6402 44.4313 13.6402 44.3657 13.7057L43.7106 13.0506C43.7761 12.985 43.8416 12.985 43.8416 12.985ZM43.4485 13.3782L44.1692 14.0988C44.1692 14.1644 44.1037 14.1644 44.1037 14.2299L43.3175 13.4437C43.383 13.3782 43.4485 13.3782 43.4485 13.3782ZM43.0554 13.7057L43.9071 14.5575L43.8416 14.623L42.9899 13.7713C42.9899 13.7713 42.9899 13.7713 43.0554 13.7057ZM42.5968 14.0988L43.514 15.0161L43.4485 15.0816L42.4657 14.1644C42.5313 14.1644 42.5313 14.0988 42.5968 14.0988ZM42.1382 14.4264L43.1864 15.4747L43.1209 15.5402L42.0726 14.4919C42.0726 14.4919 42.0726 14.4264 42.1382 14.4264ZM41.6795 14.754L42.7933 15.8678L42.7278 15.9333L41.5485 14.8195C41.614 14.8195 41.614 14.8195 41.6795 14.754ZM41.1554 15.0816L42.3347 16.2609L42.2692 16.3264L41.0899 15.1471L41.1554 15.0816ZM40.6968 15.4092L41.8761 16.654L41.8106 16.7195L40.5657 15.4747C40.6313 15.4747 40.6968 15.4092 40.6968 15.4092ZM40.2382 15.7368L41.483 16.9816L41.4175 17.0471L40.1726 15.8023C40.1726 15.7368 40.1726 15.7368 40.2382 15.7368ZM39.714 15.9988L40.9588 17.3092L40.8933 17.3747L39.583 16.0644C39.6485 16.0644 39.6485 16.0644 39.714 15.9988ZM39.1899 16.3264L40.5002 17.6368C40.5002 17.6368 40.4347 17.7023 40.3692 17.7023L39.0588 16.3919C39.1244 16.3264 39.1899 16.3264 39.1899 16.3264ZM38.7313 16.654L40.0416 17.9644L39.9106 18.0299L38.6002 16.7195C38.6657 16.654 38.6657 16.654 38.7313 16.654ZM38.2071 16.9161L39.5175 18.2264C39.452 18.2264 39.452 18.2919 39.3864 18.2919L38.0761 16.9816C38.1416 16.9816 38.2071 16.9161 38.2071 16.9161ZM37.7485 17.2437L39.0588 18.554C38.9933 18.554 38.9933 18.6195 38.9278 18.6195L37.6175 17.3092C37.683 17.2437 37.683 17.2437 37.7485 17.2437ZM37.2244 17.5057L38.5347 18.8161C38.4692 18.8161 38.4692 18.8816 38.4037 18.8816L37.0933 17.5713C37.1588 17.5713 37.1588 17.5057 37.2244 17.5057ZM36.7002 17.8333L37.9451 19.1437C37.8795 19.1437 37.8795 19.2092 37.814 19.2092L36.5692 17.8988C36.6347 17.8333 36.7002 17.8333 36.7002 17.8333ZM36.2416 18.0954L37.4864 19.3402C37.4209 19.3402 37.4209 19.4057 37.3554 19.4057L36.1106 18.1609C36.1106 18.1609 36.1761 18.0954 36.2416 18.0954ZM35.7175 18.423L36.9623 19.6678C36.8968 19.6678 36.8968 19.7333 36.8313 19.7333L35.5864 18.4885C35.652 18.423 35.652 18.423 35.7175 18.423ZM35.1933 18.685L36.3726 19.8644C36.3071 19.8644 36.3071 19.9299 36.2416 19.9299L35.0623 18.7506C35.1278 18.7506 35.1278 18.685 35.1933 18.685ZM34.6692 18.9471L35.8485 20.1264C35.783 20.1264 35.783 20.1919 35.7175 20.1919L34.6037 19.0126C34.6037 19.0126 34.6692 19.0126 34.6692 18.9471ZM34.1451 19.2747L35.2589 20.3885C35.1933 20.3885 35.1933 20.454 35.1278 20.454L34.014 19.3402C34.0795 19.2747 34.1451 19.2747 34.1451 19.2747ZM33.6864 19.5368L34.7347 20.585C34.6692 20.585 34.6692 20.6506 34.6037 20.6506L33.5554 19.6023C33.5554 19.6023 33.6209 19.6023 33.6864 19.5368ZM33.1623 19.8644L34.2106 20.9126C34.1451 20.9126 34.1451 20.9782 34.0795 20.9782L33.0313 19.9299C33.0968 19.8644 33.0968 19.8644 33.1623 19.8644ZM32.6382 20.1264L33.6209 21.1747C33.5554 21.1747 33.5554 21.2402 33.4899 21.2402L32.5071 20.1919C32.5726 20.1919 32.5726 20.1264 32.6382 20.1264ZM32.114 20.3885L33.0968 21.3713C33.0313 21.3713 33.0313 21.4368 32.9657 21.4368L31.983 20.454C32.0485 20.454 32.114 20.454 32.114 20.3885ZM31.5899 20.7161L32.5726 21.6988C32.5071 21.6988 32.5071 21.7644 32.4416 21.7644L31.4589 20.7816C31.5244 20.7161 31.5899 20.7161 31.5899 20.7161ZM31.1313 21.0437L32.114 22.0264C32.0485 22.0264 32.0485 22.0919 31.983 22.0919L31.0002 21.1092C31.0657 21.0437 31.0657 21.0437 31.1313 21.0437ZM30.6726 21.3713L31.5899 22.2885C31.5244 22.2885 31.5244 22.354 31.4589 22.354L30.5416 21.4368C30.6071 21.3713 30.6071 21.3713 30.6726 21.3713ZM30.214 21.6988L31.1313 22.6161C31.0657 22.6161 31.0002 22.6816 31.0002 22.6816L30.083 21.7644C30.1485 21.7644 30.1485 21.6988 30.214 21.6988ZM29.7554 22.0264L30.6071 22.8782C30.6071 22.8782 30.5416 22.9437 30.4761 22.9437L29.6899 22.1575C29.6899 22.0919 29.6899 22.0919 29.7554 22.0264ZM29.2968 22.4195L30.083 23.2713L30.0175 23.3368L29.2313 22.5506C29.2968 22.485 29.2968 22.4851 29.2968 22.4195ZM28.9037 22.8126L29.6244 23.5988L29.5589 23.6644L28.8382 22.9437C28.9037 22.8782 28.9037 22.8782 28.9037 22.8126ZM28.5761 23.2713L29.2313 23.9264L29.1657 23.9919L28.5106 23.3368C28.5106 23.3368 28.5106 23.2713 28.5761 23.2713ZM28.183 23.7299L28.7726 24.3195L28.7071 24.3851L28.183 23.7954V23.7299ZM27.9209 24.1885L28.3795 24.6471L28.314 24.7126L27.8554 24.254C27.8554 24.254 27.8554 24.254 27.9209 24.1885ZM27.5933 24.7126L27.9209 25.0402L27.8554 25.1057L27.5278 24.7782C27.5933 24.7782 27.5933 24.7782 27.5933 24.7126ZM27.3968 25.3023L27.5933 25.4988L27.5278 25.5644L27.3968 25.4333C27.3313 25.3678 27.3313 25.3023 27.3968 25.3023Z" fill="#A18F63"/>
<path d="M35.783 39.0709C35.1934 38.7433 33.0968 37.564 33.0968 37.564L35.2589 38.0226C36.2417 38.2192 36.8313 38.5468 36.7658 38.8088C36.8313 38.6778 36.8313 38.4812 36.8313 38.4157C36.8313 35.9916 33.0968 36.1226 33.0968 36.1226L33.9486 35.9261C34.9313 35.7295 35.521 35.795 35.5865 35.9916C35.5865 35.8606 35.5865 35.664 35.521 35.5985C35.2589 34.6812 34.6692 34.3537 32.8348 33.895L30.2796 33.3054C31.0658 34.1571 31.3934 36.4502 30.4761 37.4985C30.4761 37.2364 30.3451 37.0399 30.2141 36.9088C30.083 37.4985 29.6899 38.2847 28.9037 38.1537C28.9037 38.0881 28.9692 37.9571 28.7727 37.7606C28.3141 37.3019 26.8072 35.9916 26.283 35.4675C26.283 35.664 26.2175 35.7295 26.152 35.9916C26.021 36.5812 25.5623 36.8433 25.1692 36.8433C24.7761 36.8433 24.4486 36.4502 24.3175 36.3192C24.5796 36.5157 25.0382 36.5813 25.1037 36.5813C25.1037 36.4502 25.2348 36.3192 25.3003 36.2537C25.4313 36.1226 25.6279 36.0571 25.6934 35.795C25.7589 35.4675 25.4968 35.3364 25.3003 35.3364C24.9072 35.4019 24.383 35.533 24.3175 35.533C24.1865 35.533 24.121 35.533 24.0555 35.4675C23.9899 35.4019 23.9244 35.4019 23.8589 35.4019C23.5968 35.4019 23.5313 35.664 23.5313 35.664C23.4658 35.2709 23.6623 35.0088 23.9899 34.9433C24.0554 34.9433 25.4968 34.8778 25.8899 34.8778C26.152 34.8778 26.3486 34.8778 26.5451 35.0088C26.8727 35.2709 27.6589 35.795 27.7899 35.9261C28.1175 35.2709 27.9865 33.9606 27.6589 33.6985C25.3003 33.2399 22.6796 33.633 21.1072 32.7812C20.9106 32.9123 20.2555 33.2399 20.0589 33.3054C19.9279 33.3709 19.7968 33.4364 19.7313 33.4364C19.6658 33.4364 19.6003 33.5019 19.6003 33.5019C19.6658 33.5019 20.1244 33.8295 20.7141 33.1744C20.7141 33.1744 21.8279 33.764 22.5486 33.9606C22.352 34.5502 20.8451 35.7295 19.8623 36.6468C18.2899 38.1537 16.5865 42.3468 15.0796 42.8709C15.3417 42.9364 15.6037 42.9364 15.7348 42.9364C17.7658 42.9364 18.8141 41.0364 19.1417 40.5123C18.552 41.9537 18.0279 42.7399 17.7003 42.6744C18.0279 42.8054 18.421 42.8054 18.7486 42.8054C20.1244 42.8054 21.1072 41.9537 21.1072 41.9537L19.9279 41.2985C19.9279 41.2985 21.4348 41.9537 22.7451 41.9537C24.0555 41.9537 24.3175 41.4295 24.3175 41.4295L22.8106 40.5778C23.0727 40.7088 23.9244 41.0364 24.6451 41.1019C26.5451 41.1019 27.4623 39.333 27.5934 38.3502C27.4623 38.5468 26.9382 39.3985 26.152 39.333C26.2175 39.2019 26.283 39.0054 26.152 38.8744C26.152 38.8744 26.152 38.8744 26.0865 38.8744C25.9554 38.8088 25.0382 37.8261 24.383 37.3019C24.3175 37.4985 24.3175 37.564 24.252 37.8261C24.121 38.3502 23.7279 38.5468 23.4003 38.4812C22.9417 38.4812 22.6796 38.0881 22.6141 37.9571C22.8106 38.1537 23.0072 38.2847 23.1382 38.2847C23.2692 38.1537 23.3348 38.0881 23.4658 38.0226C23.5313 38.0226 23.6623 37.9571 23.7279 37.8916C23.7279 37.8916 24.0555 37.564 24.0555 37.2364C24.0555 37.0399 23.9899 36.9744 23.8589 36.9088C23.6623 36.7778 23.4658 36.7778 23.2037 36.7778C22.8106 36.7778 22.6796 36.7778 22.5486 36.6468C22.483 36.5812 22.4175 36.5157 22.352 36.5157C22.1555 36.5157 22.0899 36.6468 22.0899 36.6468C22.0899 36.3192 22.2865 36.1881 22.5486 36.1881C22.6141 36.1881 22.6141 36.1881 22.6796 36.1881C22.8106 36.2537 24.121 36.5813 24.383 36.7123C24.5141 36.7778 25.9554 37.9571 25.9554 37.9571C26.2175 37.7606 26.4796 36.9744 26.4796 36.5813C26.6106 36.5157 26.8072 36.5812 27.0692 36.7778C27.3313 36.9744 28.2486 37.8261 28.3141 37.8916C28.1175 39.2675 28.9692 42.0192 30.3451 42.0192C30.5417 42.0192 30.6727 41.9537 30.7382 41.9537C30.6072 41.8881 30.5417 41.7571 30.4761 41.5606L30.2796 40.5778C30.2796 40.5778 30.5417 40.9709 31.6554 42.1502C32.2451 42.8054 32.7692 42.9364 33.0968 42.9364C33.4899 42.9364 33.6865 42.8054 33.752 42.7399C33.5554 42.7399 33.4244 42.6088 33.1623 42.2157L32.1141 40.8399C33.752 42.3468 34.8658 42.6744 35.5865 42.6744C36.1761 42.6744 36.4382 42.4778 36.4382 42.4778L33.0313 39.3985L37.0934 41.6916C37.421 40.3157 36.3727 39.3985 35.783 39.0709ZM36.7003 38.1537L36.5692 38.2847C36.5037 38.2847 36.5037 38.2192 36.4382 38.2192L36.6348 38.0226C36.6348 38.0226 36.7003 38.0881 36.7003 38.1537ZM36.4382 37.4985C36.4382 37.564 36.5037 37.564 36.5037 37.6295L36.0451 38.0881V38.0226L36.4382 37.4985ZM35.521 38.7433L35.1279 39.2019L35.0623 39.1364L35.521 38.7433ZM35.0623 38.4157C35.1279 38.4157 35.1279 38.4812 35.1934 38.4812L34.8658 38.8088L34.8003 38.7433L35.0623 38.4157ZM35.0623 38.5468C35.1279 38.5468 35.1279 38.5468 35.1934 38.6123L34.9313 38.8744C34.9313 38.8744 34.8658 38.8088 34.8003 38.8088L35.0623 38.5468ZM34.5382 38.3502C34.6037 38.3502 34.6037 38.3502 34.6692 38.3502L34.4727 38.5468C34.4072 38.5468 34.4072 38.4812 34.3417 38.4812L34.5382 38.3502ZM33.9486 38.2847C34.0141 38.2847 34.0141 38.2847 34.0796 38.2847L34.0141 38.4157C33.9486 38.4157 33.9486 38.4157 33.883 38.3502L33.9486 38.2847ZM35.0623 37.1709C35.0623 37.2364 35.1279 37.2364 35.1279 37.3019L34.8658 37.564C34.8003 37.564 34.7348 37.564 34.6692 37.564L35.0623 37.1709ZM34.8003 36.8433L34.3417 37.3019C34.3417 37.2364 34.2761 37.2364 34.2761 37.1709L34.7348 36.7123C34.8003 36.7778 34.8003 36.8433 34.8003 36.8433ZM34.3417 36.5157C34.4072 36.5157 34.4072 36.5813 34.4727 36.5813L34.0796 36.9744L34.0141 36.9088L34.3417 36.5157ZM34.3417 36.6468C34.4072 36.6468 34.4072 36.6468 34.4727 36.7123L34.2106 36.9744L34.1451 36.9088L34.3417 36.6468ZM33.8175 36.4502C33.883 36.4502 33.883 36.4502 33.9486 36.5157L33.8175 36.6468L33.752 36.5813L33.8175 36.4502ZM24.7106 36.3847C24.7761 36.3847 25.8244 36.7778 26.4141 37.0399C26.152 37.0399 25.8899 37.0399 25.6279 37.0399C25.4968 37.0399 25.3658 37.0399 25.2348 37.0399C25.0382 37.0399 24.8417 36.9744 24.8417 36.9744C24.5796 36.9088 24.6451 36.7778 24.383 36.7778C24.121 36.7123 23.9899 36.9744 23.9899 36.9744C24.0554 36.5812 24.383 36.3192 24.7106 36.3847ZM16.1934 44.9019C16.1934 44.8364 16.1934 44.7709 16.2589 44.7709L16.3244 44.8364C16.3244 44.9019 16.2589 44.9019 16.1934 44.9019ZM16.783 44.6399L16.5865 44.4433L16.652 44.3778L16.8486 44.5744C16.8486 44.6399 16.783 44.6399 16.783 44.6399ZM17.2417 44.3123L16.9796 44.0502L17.0451 43.9847L17.3727 44.3123C17.2417 44.2468 17.2417 44.3123 17.2417 44.3123ZM17.6348 43.9192L17.2417 43.5261L17.3072 43.4606L17.7003 43.8537L17.6348 43.9192ZM17.9623 43.4606L17.5692 43.0675C17.5692 43.0675 17.6348 43.0019 17.6348 42.9364L18.0279 43.3295C18.0279 43.395 18.0279 43.4606 17.9623 43.4606ZM18.2899 43.0019L17.8968 42.6088C17.8968 42.6088 17.9623 42.5433 17.9623 42.4778L18.421 42.9364C18.3555 42.9364 18.3555 43.0019 18.2899 43.0019ZM18.6175 42.5433L18.1589 42.0847C18.1589 42.0192 18.2244 42.0192 18.2244 41.9537L18.683 42.4123C18.683 42.4778 18.683 42.4778 18.6175 42.5433ZM18.9451 42.0192L18.4865 41.5606C18.4865 41.5606 18.552 41.495 18.552 41.4295L19.0106 41.8881C19.0106 41.9537 18.9451 42.0192 18.9451 42.0192ZM19.3382 41.4295C19.3382 41.495 19.2727 41.495 19.2727 41.5606L18.8141 41.1019C18.8141 41.0364 18.8796 41.0364 18.8796 40.9709L19.3382 41.4295ZM19.5348 41.0364L19.1417 40.6433C19.1417 40.6433 19.2072 40.5778 19.2072 40.5123L19.6003 40.9054C19.6003 40.9709 19.6003 40.9709 19.5348 41.0364ZM19.8623 40.5123L19.4692 40.1192L19.5348 40.0537L19.9279 40.4468C19.8623 40.4468 19.8623 40.5123 19.8623 40.5123ZM20.1244 39.9881L19.7968 39.6606L19.8623 39.595L20.1899 39.9226L20.1244 39.9881ZM20.3865 39.464L20.1244 39.2019L20.1899 39.1364L20.3865 39.333C20.452 39.3985 20.452 39.464 20.3865 39.464ZM20.6486 38.9399L20.5175 38.8088L20.583 38.7433L20.6486 38.8088C20.7141 38.8744 20.7141 38.8744 20.6486 38.9399ZM22.6796 39.2019C22.7451 39.2019 23.2692 39.2019 23.5313 39.2019C23.7279 39.2019 24.1865 39.2019 24.1865 39.5295C24.1865 39.595 24.1865 39.6606 24.1865 39.7261C24.121 39.595 23.9899 39.5295 23.8589 39.5295C23.7279 39.5295 23.1382 39.7261 22.9417 39.7261C22.8106 39.7261 22.7451 39.6606 22.6141 39.6606C22.352 39.6606 22.2865 39.8571 22.2865 39.8571C22.1555 39.464 22.4175 39.2019 22.6796 39.2019ZM29.1658 42.7399C29.1658 42.6744 29.1658 42.6744 29.1003 42.6088L29.1658 42.5433C29.1658 42.6088 29.2313 42.6088 29.2313 42.6744L29.1658 42.7399ZM24.9072 36.8433C24.9072 36.7778 24.8417 36.7778 24.8417 36.7123L24.9727 36.5813L25.0382 36.6468L24.9072 36.8433ZM25.2348 37.2364L25.1692 37.1709L25.3658 36.9744L25.4313 37.0399L25.2348 37.2364ZM25.5623 37.6295L25.4968 37.564L25.8244 37.2364C25.8899 37.2364 25.8899 37.3019 25.9554 37.3019L25.5623 37.6295ZM26.0865 37.6295C26.0865 37.695 26.0865 37.695 26.152 37.7606H26.0865C26.021 37.7606 26.021 37.7606 25.9554 37.7606L26.0865 37.6295ZM27.3968 37.8261L27.3313 37.7606L27.3968 37.695L27.4623 37.7606L27.3968 37.8261ZM28.7072 38.4157L28.7727 38.4812L28.5761 38.6778C28.5106 38.6778 28.5106 38.6778 28.4451 38.6778L28.7072 38.4157ZM28.2486 38.1537C28.3141 38.1537 28.3141 38.1537 28.3796 38.1537L28.052 38.4812C28.052 38.4812 27.9865 38.4157 27.921 38.4157L28.2486 38.1537ZM27.7899 37.9571C27.8555 37.9571 27.8554 38.0226 27.921 38.0226L27.7244 38.2192L27.6589 38.1537L27.7899 37.9571ZM31.5899 38.2847L31.6554 38.3502L31.5244 38.4812C31.4589 38.4812 31.3934 38.4812 31.3279 38.4812L31.5899 38.2847ZM31.1968 37.9571L31.2623 38.0226L30.8037 38.4812C30.7382 38.4812 30.7382 38.4812 30.6727 38.4812L31.1968 37.9571ZM30.5417 37.9571C30.6072 37.9571 30.6727 37.9571 30.6727 37.9571L30.3451 38.3502C30.2796 38.3502 30.2796 38.3502 30.2141 38.2847L30.5417 37.9571ZM29.952 37.8916C30.0175 37.8916 30.0175 37.8916 30.083 37.8916L29.8865 38.0881C29.821 38.0881 29.821 38.0226 29.7555 38.0226L29.952 37.8916ZM29.3623 37.695C29.4279 37.695 29.4279 37.695 29.4934 37.7606L29.3623 37.8916C29.3623 37.8916 29.2968 37.8261 29.2313 37.8261L29.3623 37.695ZM30.4761 34.7468L30.4106 34.6812L30.4761 34.6157C30.5417 34.6157 30.5417 34.6812 30.6072 34.6812L30.4761 34.7468ZM30.8692 35.0088L30.8037 34.9433L30.9348 34.8123C31.0003 34.8123 31.0003 34.8778 31.0658 34.8778L30.8692 35.0088ZM31.2623 35.3364C31.1968 35.2709 31.1968 35.3364 31.2623 35.3364C31.1968 35.2709 31.1968 35.2709 31.1968 35.2709L31.3934 35.0744C31.4589 35.0744 31.4589 35.1399 31.5244 35.1399L31.2623 35.3364ZM31.5244 35.5985L31.7865 35.3364L31.852 35.4019L31.5899 35.664C31.5244 35.664 31.5244 35.5985 31.5244 35.5985ZM31.7865 35.9916L32.1141 35.664L32.1796 35.7295L31.852 36.1226C31.852 36.0571 31.7865 36.0571 31.7865 35.9916ZM32.6382 37.3675L32.5072 37.3019L32.6382 37.1709C32.6382 37.2364 32.6382 37.3019 32.6382 37.3675ZM32.6382 36.6468L32.1796 37.1054H32.1141H32.0486C32.0486 37.1054 32.0486 37.1054 32.0486 37.0399L32.5727 36.5157C32.6382 36.5812 32.6382 36.6468 32.6382 36.6468ZM32.5072 36.1226L32.0486 36.5813C32.0486 36.5157 32.0486 36.5157 31.983 36.4502L32.3761 35.9916C32.4417 36.0571 32.4417 36.1226 32.5072 36.1226Z" fill="#A18F63"/>
<path d="M19.1412 33.0886L19.2068 32.6955C19.2068 32.6955 19.5999 32.5644 19.9274 32.5644C20.255 32.4989 20.4516 32.9575 20.4516 32.9575C20.4516 32.9575 21.1723 32.892 21.3688 32.4334C21.3688 32.3024 20.1895 32.3679 19.9274 32.3679C19.6654 32.3679 19.5999 32.1713 19.2068 31.8438C19.2068 31.8438 18.6826 32.0403 18.6826 32.5644C18.6826 32.9575 19.0757 33.0886 19.1412 33.0886Z" fill="#A18F63"/>
<path d="M30.7392 20.4534C32.2461 19.4051 35.653 17.4396 39.3875 15.212C42.2702 13.5085 45.2185 10.7568 45.284 7.61199C45.284 6.76026 45.0875 5.84302 44.5633 4.92578C44.5633 4.92578 44.4978 5.58095 44.4323 5.64647C44.3668 5.71199 43.515 6.76026 42.2047 8.00509C40.9599 9.1844 34.4737 14.4258 33.5564 15.343C30.4771 18.2258 28.9702 21.8947 28.9702 21.8947C28.9702 21.8947 29.2323 21.5016 30.7392 20.4534ZM44.6288 5.64647L44.6944 5.71199C44.6944 5.77751 44.6944 5.84302 44.6944 5.90854L44.5633 5.77751C44.5633 5.77751 44.5633 5.71199 44.6288 5.64647ZM44.2357 6.10509L44.7599 6.62923C44.7599 6.69475 44.7599 6.76026 44.7599 6.76026L44.2357 6.23613C44.2357 6.17061 44.2357 6.17061 44.2357 6.10509ZM43.9081 6.56371L44.6288 7.2844C44.6288 7.34992 44.6288 7.34992 44.5633 7.41544L43.7771 6.62923C43.8426 6.62923 43.8426 6.56371 43.9081 6.56371ZM43.515 6.95682L44.4323 7.87406C44.4323 7.93957 44.3668 7.93957 44.3668 8.00509L43.4495 7.08785C43.4495 7.02233 43.515 7.02233 43.515 6.95682ZM43.1219 7.41544L44.1047 8.39819C44.1047 8.46371 44.1047 8.46371 44.1047 8.52923L43.0564 7.48095C43.0564 7.41544 43.0564 7.41544 43.1219 7.41544ZM42.7288 7.80854L43.8426 8.92233L43.7771 8.98785L42.6633 7.87406C42.6633 7.80854 42.6633 7.80854 42.7288 7.80854ZM42.2702 8.20164L43.4495 9.38095L43.384 9.44647L42.2047 8.26716C42.2702 8.20164 42.2702 8.20164 42.2702 8.20164ZM41.8771 8.52923L43.1219 9.77406L43.0564 9.83957L41.8116 8.59475C41.8116 8.59475 41.8771 8.59475 41.8771 8.52923ZM41.4185 8.92233L42.6633 10.2327L42.5978 10.2982L41.2875 8.98785C41.353 8.98785 41.4185 8.92233 41.4185 8.92233ZM41.0254 9.31544L42.3357 10.6258L42.2702 10.6913L40.9599 9.38095C40.9599 9.31544 40.9599 9.31544 41.0254 9.31544ZM40.5668 9.64302L41.8771 10.9534L41.8116 11.0189L40.5012 9.64302C40.5012 9.70854 40.5668 9.70854 40.5668 9.64302ZM40.1081 10.0361L41.4185 11.412L41.353 11.4775L40.0426 10.1016C40.1081 10.0361 40.1081 10.0361 40.1081 10.0361ZM39.715 10.3637L41.0254 11.7396L40.9599 11.8051L39.6495 10.4292C39.6495 10.4292 39.6495 10.4292 39.715 10.3637ZM39.2564 10.7568L40.5668 12.1327L40.5012 12.1982L39.1909 10.8223L39.2564 10.7568ZM38.7978 11.0844L40.1081 12.3947L40.0426 12.4603L38.7323 11.1499C38.7978 11.1499 38.7978 11.1499 38.7978 11.0844ZM38.4047 11.4775L39.715 12.7879L39.6495 12.8534L38.3392 11.543C38.3392 11.543 38.3392 11.4775 38.4047 11.4775ZM37.9461 11.8051L39.2564 13.1154L39.1909 13.181L37.8806 11.8706C37.8806 11.8706 37.9461 11.8706 37.9461 11.8051ZM37.4875 12.1982L38.7323 13.443L38.6668 13.5085L37.4219 12.2637C37.4875 12.2637 37.4875 12.1982 37.4875 12.1982ZM37.0944 12.5258L38.3392 13.7706C38.3392 13.7706 38.2737 13.8361 38.2081 13.8361L36.9633 12.5913C37.0288 12.5913 37.0288 12.5913 37.0944 12.5258ZM36.6357 12.9189L37.815 14.0982C37.815 14.0982 37.7495 14.1637 37.684 14.1637L36.5047 12.9844C36.5702 12.9844 36.6357 12.9189 36.6357 12.9189ZM36.1771 13.2465L37.3564 14.4258L37.2909 14.4913L36.1771 13.312C36.1771 13.312 36.1771 13.312 36.1771 13.2465ZM35.784 13.6396L36.8978 14.7534L36.8323 14.8189L35.7185 13.7051C35.7185 13.7051 35.7185 13.6396 35.784 13.6396ZM35.3254 14.0327L36.4392 15.1465L36.3737 15.212L35.2599 14.0982C35.2599 14.0327 35.3254 14.0327 35.3254 14.0327ZM34.9323 14.3603L35.9806 15.4085L35.915 15.4741L34.8668 14.4258C34.8668 14.4258 34.8668 14.4258 34.9323 14.3603ZM34.4737 14.7534L35.5219 15.8016L35.4564 15.8672L34.4081 14.8189L34.4737 14.7534ZM34.015 15.1465L34.9978 16.1947L34.9323 16.2603L33.9495 15.2775C33.9495 15.1465 34.015 15.1465 34.015 15.1465ZM33.6219 15.4741L34.6047 16.4568L34.5392 16.5223L33.5564 15.5396C33.5564 15.5396 33.6219 15.5396 33.6219 15.4741ZM33.2288 15.8672L34.1461 16.7844L34.0806 16.8499L33.1633 15.9327C33.1633 15.9327 33.1633 15.9327 33.2288 15.8672ZM32.8357 16.3258L33.753 17.243L33.6875 17.3085L32.8357 16.4568C32.7702 16.3258 32.7702 16.3258 32.8357 16.3258ZM32.4426 16.7189L33.2944 17.5706L33.2288 17.6361L32.3771 16.7844L32.4426 16.7189ZM32.0495 17.1775L32.8357 17.9637L32.7702 18.0292L32.0495 17.3085C32.0495 17.243 32.0495 17.1775 32.0495 17.1775ZM31.7219 17.5706L32.3771 18.2258L32.3116 18.2913L31.6564 17.6361C31.6564 17.6361 31.7219 17.6361 31.7219 17.5706ZM31.3944 18.0292L31.984 18.6189L31.9185 18.6844L31.3288 18.0947C31.3288 18.0947 31.3288 18.0947 31.3944 18.0292ZM31.0668 18.5534L31.5909 19.0775L31.5254 19.143L31.0012 18.6189C31.0012 18.6189 31.0012 18.5534 31.0668 18.5534ZM30.7392 19.012L31.1323 19.4051L31.0668 19.4706L30.6737 19.0775C30.6737 19.0775 30.6737 19.012 30.7392 19.012ZM30.4116 19.5361L30.7392 19.8637L30.6737 19.9292L30.3461 19.6016L30.4116 19.5361ZM30.084 19.9947L30.2806 20.1913L30.215 20.2568L30.0185 20.0603C30.084 20.0603 30.084 20.0603 30.084 19.9947ZM29.8219 20.5189L29.953 20.6499L29.8875 20.7154L29.7564 20.5844L29.8219 20.5189Z" fill="#A18F63"/>
<path d="M16.3241 41.1587C17.0448 40.0449 18.2897 38.0794 18.4207 37.8828C17.7 38.7345 14.2276 41.0276 12.4586 41.5518C12.3276 41.5518 12.0655 41.5518 12 41.4863C12 41.4863 12.131 42.7966 13.769 42.7966C14.7517 42.7966 15.6034 42.1414 16.3241 41.1587ZM16.3241 39.7173L16.3897 39.7828L16.3241 39.8483L16.2586 39.7828C16.2586 39.7173 16.3241 39.7173 16.3241 39.7173ZM12.7862 41.8794L12.5897 41.6828C12.6552 41.6828 12.6552 41.6828 12.7207 41.6173L12.9828 41.8794C12.9172 41.8794 12.8517 41.8794 12.7862 41.8794ZM13.5724 41.8794L13.1793 41.4863C13.2448 41.4863 13.2448 41.4863 13.3103 41.4207L13.7034 41.8138C13.6379 41.8138 13.5724 41.8138 13.5724 41.8794ZM14.1621 41.6173L13.7034 41.1587C13.769 41.1587 13.769 41.0932 13.8345 41.0932L14.2931 41.5518C14.2276 41.6173 14.1621 41.6173 14.1621 41.6173ZM14.6207 41.3552L14.2276 40.9621C14.2931 40.9621 14.2931 40.8966 14.3586 40.8966L14.7517 41.2897C14.6862 41.2897 14.6862 41.3552 14.6207 41.3552ZM15.0793 40.9621L14.7517 40.6345C14.8172 40.6345 14.8172 40.569 14.8828 40.569L15.2103 40.8966C15.1448 40.9621 15.0793 40.9621 15.0793 40.9621ZM15.4724 40.6345L15.2759 40.3725C15.3414 40.3725 15.3414 40.307 15.4069 40.307L15.6034 40.5035C15.5379 40.569 15.5379 40.569 15.4724 40.6345ZM15.8655 39.9794L15.9966 40.1104L15.931 40.1759L15.8 40.0449C15.8 40.0449 15.8 40.0449 15.8655 39.9794Z" fill="#A18F63"/>
<path d="M26.8719 27.268C26.8719 27.268 26.2168 28.9059 25.9547 29.3645C25.6926 29.8232 25.234 30.1508 24.8409 30.1508C24.4478 30.0852 23.9237 30.0197 23.3995 30.0197C22.4168 29.9542 21.2375 30.0852 20.7133 30.4128C20.3202 30.6094 19.665 31.4611 19.665 31.4611C20.0581 31.7232 20.5168 31.4611 20.5168 31.4611C20.5168 31.4611 20.3202 31.2645 20.3202 31.1335C20.3202 31.068 20.3857 31.0025 20.5168 30.937C20.5823 31.199 20.8443 31.3956 21.1064 31.3956C21.3685 31.3956 21.6306 31.1335 21.6961 30.8714C21.7616 30.6749 21.6961 30.5439 21.6306 30.4128C21.9581 30.4128 22.2202 30.6094 22.2202 30.7404C22.2202 30.8714 21.7616 31.5921 21.1719 31.6577C21.2375 31.9852 21.9581 32.0508 21.8926 32.2473C21.8926 32.3128 21.8271 32.3783 21.7616 32.5094C21.6306 32.5749 22.2202 32.7714 22.6133 32.7714C23.9237 32.837 24.3168 32.3128 24.7754 31.7232C24.9064 31.5921 25.0375 31.5266 25.234 31.5266C25.5616 31.5266 27.9202 32.968 30.4099 33.0335C32.703 33.099 34.4719 31.9197 34.7995 30.6094C34.4719 30.7404 33.6202 31.0025 32.7685 31.0025C30.4099 30.937 29.4926 29.8232 29.4926 29.8232C29.4926 29.8232 30.7375 30.3473 32.3099 30.3473C36.1099 30.4128 36.765 27.3335 37.0271 26.2852C36.503 26.6128 34.734 27.7921 31.2616 27.7266C30.2133 27.7266 29.5581 27.5301 28.9685 27.268C30.2133 27.268 31.5892 27.2025 32.703 26.9404C36.8306 26.0887 39.5168 24.1887 40.1064 21.1094C37.1581 22.4197 32.8995 23.7956 30.6064 24.9749C28.1823 26.0887 27.134 26.6128 26.8719 27.268ZM25.8892 30.4128L25.5616 30.0852L25.6271 30.0197L25.9547 30.3473C26.0202 30.3473 25.9547 30.4128 25.8892 30.4128ZM26.4133 30.1508L25.9547 29.6921C25.9547 29.6921 26.0202 29.6266 26.0202 29.5611L26.4788 30.0197C26.4788 30.0852 26.4788 30.0852 26.4133 30.1508ZM26.7409 29.6266L26.2823 29.1025C26.2823 29.037 26.3478 29.037 26.3478 28.9714L26.8064 29.4301C26.8064 29.5611 26.7409 29.6266 26.7409 29.6266ZM27.003 29.037L26.4788 28.5783C26.4788 28.5128 26.4788 28.5128 26.5444 28.4473L27.003 28.9059C27.003 28.9714 27.003 29.037 27.003 29.037ZM27.134 28.4473L26.7409 28.0542C26.7409 27.9887 26.7409 27.9887 26.8064 27.9232L27.1995 28.3163C27.134 28.3163 27.134 28.3818 27.134 28.4473ZM27.265 27.7266L27.003 27.4645C27.003 27.399 27.003 27.399 27.003 27.399L27.1995 27.5956C27.265 27.5956 27.265 27.6611 27.265 27.7266ZM27.3961 27.0714L27.265 26.9404L27.3306 26.8749L27.4616 27.0059C27.4616 27.0714 27.4616 27.0714 27.3961 27.0714ZM28.1168 26.9404H28.0512L27.7237 26.6128C27.7237 26.6128 27.7892 26.5473 27.8547 26.5473L28.1168 26.9404ZM28.7064 26.8094L28.1823 26.2852C28.2478 26.2852 28.2478 26.2197 28.3133 26.2197L28.8375 26.7439C28.7719 26.8094 28.7719 26.8094 28.7064 26.8094ZM29.3616 26.6783L28.7064 26.0232C28.7719 26.0232 28.7719 25.9577 28.8375 25.9577L29.4926 26.6128C29.4271 26.6128 29.4271 26.6128 29.3616 26.6783ZM30.0168 26.4818L29.2306 25.6956C29.2961 25.6956 29.2961 25.6301 29.3616 25.6301L30.1478 26.4163C30.0823 26.4818 30.0168 26.4818 30.0168 26.4818ZM30.6064 26.2852L29.7547 25.4335C29.8202 25.4335 29.8202 25.368 29.8857 25.368L30.7375 26.2852C30.7375 26.2852 30.6719 26.2852 30.6064 26.2852ZM31.2616 26.1542L30.2788 25.1714C30.3444 25.1714 30.3444 25.1059 30.4099 25.1059L31.3926 26.0887C31.3271 26.0887 31.2616 26.1542 31.2616 26.1542ZM39.4513 21.437C39.4513 21.5025 39.4512 21.5025 39.3857 21.568L39.3202 21.5025C39.3857 21.437 39.4513 21.437 39.4513 21.437ZM38.9271 21.6335L39.1237 21.8301L39.0581 21.8956L38.7961 21.6335C38.8616 21.699 38.8616 21.6335 38.9271 21.6335ZM38.3375 21.8956L38.7306 22.2887L38.665 22.3542L38.2064 21.8956C38.2719 21.8956 38.3375 21.8956 38.3375 21.8956ZM37.7478 22.0921L38.3375 22.6818L38.2719 22.7473L37.6168 22.0921C37.6823 22.1577 37.7478 22.0921 37.7478 22.0921ZM37.2237 22.3542L37.9444 23.1404L37.8788 23.2059L37.0926 22.4197C37.0926 22.3542 37.1581 22.3542 37.2237 22.3542ZM36.634 22.5508L37.4857 23.468L37.4202 23.5335L36.503 22.6163C36.503 22.5508 36.5685 22.5508 36.634 22.5508ZM35.9788 22.8128C35.9788 22.7473 36.0444 22.7473 35.9788 22.8128L37.0271 23.7956C36.9616 23.7956 36.9616 23.8611 36.8961 23.8611L35.9133 22.8783C35.9133 22.8128 35.9788 22.8128 35.9788 22.8128ZM35.4547 23.0094L36.503 24.0577C36.4375 24.0577 36.4375 24.1232 36.3719 24.1232L35.3237 23.0749C35.3892 23.0094 35.3892 23.0094 35.4547 23.0094ZM34.865 23.2059L35.9788 24.3197C35.9133 24.3197 35.9133 24.3852 35.8478 24.3852L34.734 23.2714C34.7995 23.2059 34.865 23.2059 34.865 23.2059ZM34.2754 23.4025L35.3892 24.5818C35.3237 24.5818 35.3237 24.6473 35.2581 24.6473L34.0788 23.468C34.2099 23.468 34.2754 23.468 34.2754 23.4025ZM33.7512 23.6645L34.9306 24.8439C34.865 24.8439 34.865 24.8439 34.7995 24.9094L33.6202 23.6645C33.6202 23.6645 33.6857 23.6645 33.7512 23.6645ZM33.1616 23.8611L34.3409 25.0404C34.2754 25.0404 34.2754 25.0404 34.2099 25.1059L33.0306 23.9266C33.0961 23.9266 33.0961 23.8611 33.1616 23.8611ZM32.5719 24.1232L33.7512 25.3025C33.6857 25.3025 33.6857 25.3025 33.6202 25.368L32.4409 24.1887C32.5064 24.1232 32.5719 24.1232 32.5719 24.1232ZM32.0478 24.3197L33.1616 25.499C33.0961 25.499 33.0961 25.499 33.0306 25.5645L31.9168 24.4508C31.9823 24.3852 31.9823 24.3852 32.0478 24.3197ZM31.4581 24.5818L32.5719 25.6956C32.5064 25.6956 32.5064 25.6956 32.4409 25.7611L31.3926 24.6473L31.4581 24.5818ZM30.934 24.8439L31.9823 25.8921C31.9168 25.8921 31.9168 25.8921 31.8512 25.9577L30.803 24.9094C30.8685 24.9094 30.8685 24.8439 30.934 24.8439Z" fill="#A18F63"/>
</g>
</svg>
