<svg width="128" height="48" viewBox="0 0 128 48" fill="none" xmlns="http://www.w3.org/2000/svg">
<rect width="98.1538" height="32" transform="translate(15 8)" fill="#002A52"/>
<path d="M19.9229 29.2305H30.6305L30.0152 30.092H19.9229V29.2305Z" fill="white"/>
<path d="M108.231 30.092H95.123L95.8 29.2305H108.292V30.092H108.231Z" fill="white"/>
<path d="M19.9229 27.6328H31.8613L31.1844 28.4944H19.9229L19.9229 27.6328Z" fill="white"/>
<path d="M19.9229 26.0312H33.0921L32.4152 26.8928H19.9229L19.9229 26.0312Z" fill="white"/>
<path d="M108.23 28.4944H96.3535L97.0304 27.6328H108.292V28.4944H108.23Z" fill="white"/>
<path d="M98.1999 26.0312H108.231V26.8928H97.5229L98.1999 26.0312Z" fill="white"/>
<path d="M31.4922 30.0927L37.1537 22.5234H44.1691C44.9691 22.5234 44.9691 22.8311 44.5383 23.3234C44.1691 23.8157 43.4922 24.7388 43.123 25.2311C42.9383 25.5388 42.5691 25.9696 43.7383 25.9696H53.1537C52.4153 27.0773 49.8307 30.1542 45.2768 30.1542C41.5845 30.0927 31.4922 30.0927 31.4922 30.0927Z" fill="white"/>
<path d="M63.9226 26.0312L60.8457 30.1543H52.7842L55.8611 26.0312H63.9226Z" fill="white"/>
<path d="M75.6766 26.0312L72.5996 30.1543H64.4766L67.5535 26.0312H75.6766Z" fill="white"/>
<path d="M78.3229 26.0312C78.3229 26.0312 77.7075 26.8312 77.4613 27.2005C76.4152 28.5543 77.3383 30.1543 80.6613 30.1543H93.7075L96.7844 26.0312H78.3229Z" fill="white"/>
<path d="M35.4919 17.8467L32.6611 21.6005H48.0457C48.8457 21.6005 48.8457 21.9082 48.415 22.4005C48.0457 22.8928 47.3688 23.8159 46.9996 24.3082C46.815 24.5544 46.4457 25.0467 47.615 25.0467H53.8919C53.8919 25.0467 54.9381 23.6928 55.7381 22.5236C56.9073 20.9852 55.8611 17.7852 51.7381 17.7852C48.0457 17.8467 35.4919 17.8467 35.4919 17.8467Z" fill="white"/>
<path d="M76.3535 25.0477H56.5381L61.9535 17.8477H70.0765L66.9996 21.9707H70.6304L73.7073 17.8477H81.8304L76.3535 25.0477Z" fill="white"/>
<path d="M93.0308 17.8477L87.6154 25.0477H79L84.4154 17.8477H93.0308Z" fill="white"/>
</svg>
