<svg width="128" height="48" viewBox="0 0 128 48" fill="none" xmlns="http://www.w3.org/2000/svg">
<g clip-path="url(#clip0_4361_26327)">
<path d="M33.3293 7.59316C23.7745 8.93156 16.494 11.6668 10.162 15.4956L10.0633 15.8487L10.4164 15.9473C15.46 13.6843 19.3139 12.6339 21.731 12.0777C28.8957 10.3177 35.8435 9.9751 42.2433 10.1511C56.554 10.5447 68.7177 14.6152 77.8861 17.6249C81.3258 18.698 84.3234 19.67 86.8865 20.2742C88.0371 20.4838 91.135 17.8114 90.2511 17.6092C78.9445 14.7186 63.8589 6.92055 43.5757 6.98541C40.2845 6.98385 36.8994 7.15762 33.3293 7.59316Z" fill="#002A52"/>
<path d="M117.127 12.6555C117.105 12.5988 117.045 12.5726 116.992 12.5938C112.219 14.5025 107.783 14.9344 102.711 14.5723C93.9217 13.9451 87.1042 10.3108 83.047 9.23872C81.8433 8.92042 78.402 11.4376 79.0894 11.642C84.849 13.3553 92.7854 18.1517 104.197 17.1593C109.909 16.6375 113.016 15.0467 117.076 12.808C117.128 12.7799 117.15 12.7126 117.127 12.6555Z" fill="#002A52"/>
<path d="M95.6301 18.7118C94.7629 18.5743 93.9508 18.3253 93.3439 18.2907C92.4288 18.2384 90.0778 20.9338 90.7164 21.1909C91.0359 21.3199 92.4053 21.5657 93.05 21.6098C93.8874 21.6668 96.4447 18.841 95.6301 18.7118Z" fill="#002A52"/>
<path d="M11.4881 37.2847L13.6182 34.7468C13.657 34.6913 13.6708 34.6441 13.6598 34.605C13.6487 34.5663 13.6069 34.5469 13.5351 34.5469H13.0442L11.0722 36.8019C10.9887 36.8965 10.925 36.9783 10.8804 37.0475C10.8362 37.1168 10.814 37.1959 10.814 37.2847C10.814 37.3789 10.835 37.455 10.8766 37.5133C10.9179 37.5715 10.9776 37.6371 11.0551 37.7089L13.3688 40.089H13.9261C14.0151 40.089 14.0619 40.0694 14.0679 40.0305C14.0732 39.9917 14.054 39.9501 14.0094 39.9058C14.0036 39.9004 13.1632 39.0266 11.4881 37.2847Z" fill="#002A52"/>
<path d="M10.2193 34.584C10.1884 34.609 10.1733 34.6549 10.1733 34.7216V40.0888H10.8058V34.5469H10.3481C10.2923 34.5469 10.2494 34.5593 10.2193 34.584Z" fill="#002A52"/>
<path d="M15.4617 35.937C15.5781 35.937 15.6765 35.8995 15.757 35.8245C15.8372 35.7497 15.8776 35.6487 15.8776 35.5208C15.8776 35.3935 15.8372 35.2934 15.757 35.2213C15.6765 35.1492 15.5781 35.1133 15.4617 35.1133C15.3504 35.1133 15.2532 35.1492 15.1699 35.2213C15.0872 35.2934 15.0454 35.3935 15.0454 35.5208C15.0454 35.6487 15.0872 35.7497 15.1699 35.8245C15.2532 35.8995 15.3504 35.937 15.4617 35.937Z" fill="#002A52"/>
<path d="M16.152 39.4649H16.0395C15.9984 39.4649 15.9589 39.4595 15.923 39.4482C15.8871 39.4373 15.8566 39.4181 15.8317 39.3902C15.8066 39.3623 15.794 39.3181 15.794 39.2571V36.6357C15.794 36.5582 15.7804 36.5094 15.7527 36.4902C15.7249 36.4706 15.6777 36.4609 15.611 36.4609H15.145V39.2819C15.145 39.4373 15.166 39.5659 15.2076 39.6689C15.2493 39.7715 15.3018 39.8548 15.3657 39.9183C15.4292 39.9822 15.4988 40.0267 15.5735 40.0514C15.6485 40.0764 15.7219 40.0889 15.794 40.0889H16.2933V39.623C16.2933 39.5729 16.2822 39.5345 16.2603 39.5065C16.2383 39.4787 16.202 39.4649 16.152 39.4649Z" fill="#002A52"/>
<path d="M20.3891 37.1637C20.3614 37.0835 20.3255 37.0044 20.281 36.9267C20.2367 36.8489 20.1728 36.7726 20.0899 36.6978C20.0065 36.6228 19.8929 36.5648 19.7483 36.523C19.6041 36.4814 19.3853 36.4609 19.0913 36.4609C18.8194 36.4609 18.5763 36.483 18.3632 36.5273C18.1493 36.5715 17.9578 36.6228 17.7888 36.6811C17.6194 36.7396 17.4657 36.8074 17.3271 36.8851V40.0888H17.7929C17.8649 40.0888 17.9162 40.0708 17.9469 40.0346C17.9774 39.9987 17.9928 39.9529 17.9928 39.8973V37.1682C18.1033 37.1237 18.2535 37.0807 18.4419 37.039C18.6305 36.9972 18.8027 36.9764 18.958 36.9764C19.0798 36.9764 19.1939 36.9836 19.299 36.9972C19.4045 37.0111 19.496 37.0432 19.5736 37.0929C19.6516 37.1429 19.7137 37.2138 19.7609 37.3051C19.8081 37.3965 19.8318 37.5203 19.8318 37.6758V40.0888H20.3144C20.3699 40.0888 20.4102 40.0708 20.4352 40.0346C20.4599 39.9987 20.4725 39.9529 20.4725 39.8973V37.7422C20.4725 37.6367 20.4657 37.5341 20.4519 37.4343C20.4379 37.3344 20.4169 37.2443 20.3891 37.1637Z" fill="#002A52"/>
<path d="M24.2736 39.3737C24.196 39.4015 24.085 39.4333 23.9407 39.4694C23.7966 39.5054 23.6082 39.5235 23.3748 39.5235C23.1586 39.5235 22.9768 39.493 22.8299 39.432C22.6828 39.3712 22.5663 39.2836 22.4804 39.1701C22.3944 39.0563 22.3332 38.9216 22.2974 38.7664C22.2615 38.6108 22.2432 38.436 22.2432 38.2421C22.2432 37.7759 22.339 37.4433 22.5301 37.2436C22.7215 37.0439 23.0226 36.9438 23.4331 36.9438C23.6161 36.9438 23.7704 36.9579 23.8948 36.9854C24.0198 37.0134 24.1463 37.0493 24.2736 37.0936V39.3737ZM23.9407 36.4611C23.7464 36.417 23.5386 36.3945 23.3167 36.3945C23.0615 36.3945 22.8408 36.4281 22.6551 36.4945C22.4692 36.5612 22.3112 36.6497 22.1809 36.7607C22.0505 36.872 21.9437 36.9951 21.8606 37.1311C21.7772 37.2669 21.7133 37.4029 21.6692 37.5389C21.6245 37.6746 21.5944 37.8066 21.5777 37.934C21.5608 38.0619 21.5527 38.1671 21.5527 38.2502C21.5527 38.6499 21.6109 38.9691 21.7275 39.2072C21.8439 39.4458 21.9895 39.6303 22.1642 39.7604C22.339 39.8912 22.5301 39.977 22.7386 40.0186C22.9463 40.0602 23.1419 40.0808 23.3251 40.0808C23.5582 40.0808 23.7493 40.0631 23.8993 40.0268C24.0491 39.9909 24.1738 39.9534 24.2736 39.9147V40.2142C24.2736 40.3417 24.2626 40.4623 24.2402 40.5762C24.2181 40.6896 24.1684 40.791 24.0907 40.8802C24.0132 40.9686 23.8993 41.0379 23.7493 41.088C23.5994 41.1377 23.3997 41.1626 23.1503 41.1626C23.0172 41.1626 22.8963 41.1572 22.7883 41.1463C22.6802 41.1351 22.583 41.1201 22.4971 41.1005C22.4107 41.081 22.332 41.0601 22.2602 41.0379L22.1683 41.4542C22.1459 41.5484 22.1585 41.6094 22.2058 41.6372C22.2527 41.6648 22.3279 41.6928 22.4303 41.7203C22.5329 41.7482 22.6497 41.7687 22.7798 41.7829C22.9101 41.7967 23.031 41.8033 23.1419 41.8033C23.7355 41.8033 24.181 41.6702 24.4776 41.4041C24.7745 41.1377 24.9225 40.7106 24.9225 40.1225V36.8273C24.7783 36.7441 24.6276 36.6732 24.4691 36.615C24.311 36.5567 24.1347 36.5058 23.9407 36.4611Z" fill="#002A52"/>
<path d="M27.9126 40.0893H28.3617C28.4229 40.0893 28.4672 40.0791 28.5013 40.0518C28.5352 40.0282 28.5523 39.9804 28.5523 39.9056V37.4866H30.3828C30.4439 37.4866 30.4917 37.4764 30.5222 37.4593C30.5563 37.4423 30.5733 37.3981 30.5733 37.3265V36.8606H28.5523V35.1558H31.2298C31.3082 35.1558 31.3592 35.139 31.3796 35.1083C31.4035 35.0776 31.4136 35.0335 31.4136 34.9721V34.5469H27.9126V40.0893Z" fill="#002A52"/>
<path d="M34.3469 39.4489C34.2527 39.4932 34.1334 39.5278 33.9893 39.5528C33.845 39.5777 33.6536 39.5903 33.4151 39.5903C33.1322 39.5903 32.9088 39.5402 32.7452 39.4403C32.5814 39.3405 32.4995 39.2103 32.4995 39.0493C32.4995 38.8887 32.583 38.7746 32.7493 38.7082C32.9158 38.6415 33.1015 38.5984 33.3069 38.5792C33.5119 38.5597 33.6703 38.5442 33.781 38.5335C33.8922 38.5222 33.9933 38.5127 34.0849 38.5042C34.1766 38.496 34.2638 38.4892 34.3469 38.4834V39.4489ZM34.5175 36.6486C34.3761 36.5569 34.2125 36.4918 34.0266 36.453C33.8406 36.4144 33.6425 36.3945 33.4316 36.3945C33.2373 36.3945 33.0685 36.4046 32.9241 36.4238C32.7794 36.4437 32.6481 36.467 32.5288 36.4947C32.4095 36.5226 32.2943 36.5557 32.1834 36.5944V37.0606C32.1834 37.1716 32.2444 37.2075 32.3666 37.1688C32.4884 37.1354 32.6425 37.1008 32.8286 37.0645C33.0143 37.0286 33.2153 37.0107 33.4316 37.0107C33.6035 37.0107 33.7492 37.0259 33.8686 37.0564C33.9877 37.0869 34.0837 37.1273 34.1555 37.177C34.2276 37.2271 34.2789 37.2825 34.3098 37.3435C34.3401 37.4047 34.3552 37.4627 34.3552 37.5183V37.8511C34.2663 37.8622 34.1391 37.8757 33.9726 37.8927C33.8059 37.9094 33.5302 37.9415 33.1444 37.9884C32.759 38.0357 32.4511 38.1436 32.2209 38.3128C31.9903 38.4822 31.8755 38.714 31.8755 39.0077C31.8755 39.2241 31.9202 39.4114 32.0086 39.5695C32.0971 39.7275 32.2126 39.8526 32.354 39.9439C32.4958 40.0354 32.6506 40.102 32.82 40.1438C32.9892 40.1854 33.1905 40.2059 33.4234 40.2059C33.6728 40.2059 33.8935 40.1867 34.0849 40.1476C34.276 40.1088 34.444 40.0633 34.5884 40.0107C34.7323 39.9578 34.8628 39.8953 34.9796 39.8234V37.6014C34.9796 37.3681 34.9379 37.1741 34.8545 37.0189C34.7714 36.8637 34.6593 36.7399 34.5175 36.6486Z" fill="#002A52"/>
<path d="M37.9598 36.4599C37.7879 36.4599 37.6132 36.4804 37.4355 36.5222C37.2582 36.5638 37.0889 36.6264 36.9279 36.7093V34.7791C36.9279 34.6348 36.8533 34.5625 36.7035 34.5625H36.2705V40.0879H36.7699C36.8253 40.0879 36.8657 40.0729 36.8904 40.0423C36.9154 40.0118 36.9279 39.9632 36.9279 39.8968V37.1839C37.2164 37.0452 37.5606 36.9756 37.9598 36.9756C38.4478 36.9756 38.6922 37.1895 38.6922 37.6165V40.0879H39.1831C39.2382 40.0879 39.28 40.0729 39.3078 40.0423C39.3358 40.0118 39.3495 39.9632 39.3495 39.8968V37.6332C39.3495 37.2559 39.2398 36.9663 39.0209 36.7635C38.8015 36.5609 38.4478 36.4599 37.9598 36.4599Z" fill="#002A52"/>
<path d="M43.1814 39.4639C43.1035 39.4919 42.997 39.5249 42.8611 39.5636C42.7248 39.6028 42.5349 39.622 42.2909 39.622C42.0469 39.622 41.8485 39.5873 41.6958 39.5181C41.5434 39.4484 41.4255 39.353 41.3425 39.2308C41.259 39.109 41.202 38.9645 41.1715 38.7982C41.1413 38.6317 41.1259 38.4516 41.1259 38.2572C41.1259 37.9908 41.1589 37.7744 41.2257 37.6083C41.2921 37.4417 41.3784 37.3129 41.4839 37.2212C41.589 37.1297 41.7028 37.066 41.8249 37.0298C41.9468 36.9939 42.0661 36.9756 42.1829 36.9756C42.3047 36.9756 42.4131 36.9801 42.5071 36.988C42.6013 36.9968 42.6864 37.0106 42.761 37.0298C42.836 37.0493 42.9069 37.073 42.9733 37.1007C43.04 37.1285 43.1089 37.1586 43.1814 37.192V39.4639ZM43.5726 34.5625H43.1814V36.6347C43.0205 36.5735 42.8498 36.5295 42.6693 36.5016C42.4894 36.4737 42.3101 36.4599 42.1325 36.4599C41.7499 36.4599 41.4492 36.5295 41.2298 36.6677C41.0105 36.8066 40.8456 36.9717 40.7348 37.1627C40.6235 37.3545 40.5546 37.5528 40.527 37.7579C40.499 37.9632 40.4854 38.1297 40.4854 38.2572C40.4854 38.5183 40.5103 38.7636 40.56 38.9938C40.6097 39.224 40.6989 39.4264 40.8261 39.6011C40.954 39.7759 41.1453 39.9106 41.4004 40.0045C41.6557 40.0989 41.9443 40.1462 42.2662 40.1462C42.499 40.1462 42.7097 40.1267 42.8983 40.0879C43.0868 40.0492 43.2507 40.0045 43.3892 39.9548C43.5501 39.8993 43.6971 39.8355 43.83 39.7637V34.8288C43.83 34.7286 43.8124 34.6597 43.7762 34.6206C43.74 34.5819 43.6723 34.5625 43.5726 34.5625Z" fill="#002A52"/>
<path d="M49.8487 34.5186C49.6544 34.4881 49.4242 34.4727 49.1579 34.4727C48.7031 34.4727 48.3284 34.5464 48.0347 34.6934C47.7405 34.8405 47.5006 35.0454 47.3149 35.3088C47.1288 35.5725 47 35.8763 46.9278 36.2201C46.8557 36.5644 46.8198 36.9274 46.8198 37.3103C46.8198 37.7039 46.8557 38.073 46.9278 38.4172C47 38.7609 47.1288 39.0645 47.3149 39.3281C47.5006 39.5917 47.7405 39.7973 48.0347 39.9441C48.3284 40.091 48.7031 40.1644 49.1579 40.1644C49.4412 40.1644 49.6781 40.149 49.8695 40.1188C50.061 40.0885 50.2203 40.0535 50.3481 40.0148C50.4923 39.9704 50.6141 39.9179 50.7141 39.8567V39.4157C50.7141 39.2935 50.6558 39.2465 50.5393 39.2743C50.4618 39.2906 50.3868 39.3145 50.3149 39.3448C50.2426 39.3753 50.1595 39.4045 50.0651 39.4323C49.9705 39.4603 49.8584 39.4837 49.7281 39.5032C49.5977 39.5224 49.438 39.5321 49.2494 39.5321C48.6283 39.5321 48.1748 39.3365 47.8892 38.9454C47.6034 38.5544 47.4604 37.9873 47.4604 37.2439C47.4604 36.9164 47.4909 36.6224 47.5519 36.3618C47.6131 36.1008 47.7101 35.8792 47.8433 35.696C47.9768 35.5126 48.1427 35.3658 48.3426 35.2551C48.5423 35.1439 48.7835 35.0884 49.0666 35.0884C49.4716 35.0884 49.7891 35.1247 50.0193 35.1968C50.2492 35.2686 50.4284 35.3269 50.556 35.3716C50.6615 35.4046 50.7141 35.3687 50.7141 35.2632V34.7556C50.6089 34.7059 50.4868 34.6612 50.3481 34.6225C50.2092 34.5837 50.043 34.5487 49.8487 34.5186Z" fill="#002A52"/>
<path d="M54.065 39.4489C53.9708 39.4932 53.8515 39.5278 53.7074 39.5528C53.5631 39.5777 53.3717 39.5903 53.1332 39.5903C52.8503 39.5903 52.6269 39.5402 52.4632 39.4403C52.2994 39.3405 52.2176 39.2103 52.2176 39.0493C52.2176 38.8887 52.301 38.7746 52.4674 38.7082C52.6339 38.6415 52.8196 38.5984 53.025 38.5792C53.2299 38.5597 53.3884 38.5442 53.4991 38.5335C53.6103 38.5222 53.7113 38.5127 53.803 38.5042C53.8947 38.496 53.9819 38.4892 54.065 38.4834V39.4489ZM54.2356 36.6486C54.0942 36.5569 53.9306 36.4918 53.7447 36.453C53.5586 36.4144 53.3606 36.3945 53.1497 36.3945C52.9554 36.3945 52.7866 36.4046 52.6421 36.4238C52.4975 36.4437 52.3662 36.467 52.2469 36.4947C52.1275 36.5226 52.0124 36.5557 51.9015 36.5944V37.0606C51.9015 37.1716 51.9625 37.2075 52.0847 37.1688C52.2065 37.1354 52.3606 37.1008 52.5467 37.0645C52.7324 37.0286 52.9333 37.0107 53.1497 37.0107C53.3216 37.0107 53.4673 37.0259 53.5866 37.0564C53.7058 37.0869 53.8018 37.1273 53.8735 37.177C53.9457 37.2271 53.997 37.2825 54.0278 37.3435C54.0582 37.4047 54.0732 37.4627 54.0732 37.5183V37.8511C53.9844 37.8622 53.8572 37.8757 53.6907 37.8927C53.524 37.9094 53.2482 37.9415 52.8625 37.9884C52.4771 38.0357 52.1692 38.1436 51.939 38.3128C51.7084 38.4822 51.5938 38.714 51.5938 39.0077C51.5938 39.2241 51.6382 39.4114 51.7267 39.5695C51.8152 39.7275 51.9307 39.8526 52.0721 39.9439C52.2138 40.0354 52.3687 40.102 52.5381 40.1438C52.7073 40.1854 52.9088 40.2059 53.1415 40.2059C53.3909 40.2059 53.6116 40.1867 53.803 40.1476C53.9941 40.1088 54.1622 40.0633 54.3065 40.0107C54.4504 39.9578 54.5808 39.8953 54.6976 39.8234V37.6014C54.6976 37.3681 54.656 37.1741 54.5726 37.0189C54.4895 36.8637 54.3774 36.7399 54.2356 36.6486Z" fill="#002A52"/>
<path d="M58.3031 36.5065C58.2697 36.5374 58.2534 36.5856 58.2534 36.6524V39.3235C58.1145 39.3956 57.9732 39.4482 57.8285 39.4816C57.6843 39.5146 57.4903 39.5316 57.2463 39.5316C56.991 39.5316 56.787 39.4665 56.6346 39.3361C56.4818 39.2054 56.4057 39.0321 56.4057 38.8159V36.4609H55.9148C55.8593 36.4609 55.8193 36.4764 55.7942 36.5065C55.7693 36.5374 55.7563 36.5856 55.7563 36.6524V38.7992C55.7563 38.9544 55.7818 39.1116 55.8317 39.2693C55.8814 39.4274 55.9632 39.5716 56.0772 39.7019C56.1906 39.8327 56.3436 39.9395 56.5347 40.0222C56.7261 40.1056 56.9633 40.1472 57.2463 40.1472C57.5124 40.1472 57.7471 40.1268 57.9495 40.0852C58.1517 40.0434 58.3308 39.9933 58.4861 39.935C58.6413 39.8767 58.7799 39.8062 58.902 39.7231V36.4609H58.4282C58.3778 36.4609 58.3361 36.4764 58.3031 36.5065Z" fill="#002A52"/>
<path d="M62.5659 38.2109C62.455 38.1192 62.3077 38.0483 62.1251 37.9986C61.9415 37.9489 61.7101 37.9127 61.4302 37.8906C61.1499 37.8684 60.9401 37.8321 60.802 37.7822C60.6627 37.7325 60.5935 37.627 60.5935 37.4659C60.5935 37.4105 60.5992 37.3538 60.6102 37.2951C60.6215 37.237 60.6549 37.1844 60.7103 37.1374C60.7654 37.0902 60.8501 37.0531 60.9642 37.0251C61.0778 36.9973 61.2342 36.9834 61.4339 36.9834C61.6672 36.9834 61.8653 36.9958 62.0291 37.0209C62.1927 37.0455 62.3135 37.0723 62.3912 37.0997C62.4629 37.1277 62.5159 37.1248 62.5492 37.0915C62.5826 37.0581 62.6047 37.0165 62.616 36.9668L62.6743 36.6172C62.5797 36.5839 62.4758 36.5534 62.3619 36.5255C62.2485 36.4979 62.1177 36.4746 61.9708 36.455C61.824 36.4356 61.6591 36.4258 61.4757 36.4258C61.1928 36.4258 60.9543 36.4563 60.7604 36.5175C60.5657 36.5785 60.4092 36.6617 60.2899 36.7669C60.1706 36.8724 60.0859 36.9901 60.0362 37.1203C59.9861 37.2511 59.9616 37.38 59.9616 37.5077C59.9558 37.6295 59.9725 37.7462 60.0113 37.8569C60.05 37.9681 60.1238 38.0654 60.2316 38.1483C60.34 38.2313 60.4855 38.301 60.6685 38.3564C60.8517 38.4118 61.0639 38.4508 61.3051 38.4729C61.5466 38.4953 61.7226 38.5217 61.8339 38.5518C61.9444 38.5825 62.0291 38.6198 62.0876 38.6643C62.1455 38.7088 62.1818 38.7614 62.1956 38.8224C62.2094 38.8836 62.2164 38.9526 62.2164 39.0305C62.2164 39.108 62.2026 39.1776 62.1748 39.2383C62.1468 39.2995 62.0971 39.352 62.025 39.3964C61.9528 39.4409 61.8531 39.4755 61.7255 39.5006C61.5976 39.5254 61.4339 39.5381 61.2342 39.5381C60.9848 39.5381 60.7711 39.523 60.5935 39.4922C60.4162 39.4618 60.272 39.4326 60.1609 39.405C60.1164 39.3938 60.0846 39.3938 60.0654 39.405C60.0455 39.4163 60.0305 39.4326 60.0195 39.4547C60.0084 39.4769 60.0028 39.5047 60.0028 39.5381V39.954C60.1083 39.9931 60.2203 40.0261 60.34 40.054C60.4589 40.0819 60.591 40.1037 60.7352 40.1203C60.8793 40.137 61.0403 40.1455 61.2179 40.1455C61.5283 40.1455 61.7863 40.1133 61.9919 40.0495C62.1968 39.9861 62.3632 39.9014 62.4909 39.7959C62.6185 39.6908 62.7102 39.5711 62.7656 39.438C62.8212 39.305 62.8491 39.1662 62.8491 39.0221C62.8491 38.8778 62.8291 38.7294 62.7907 38.5767C62.7516 38.4244 62.6766 38.3022 62.5659 38.2109Z" fill="#002A52"/>
<path d="M66.1831 38.0257C66.0555 38.0867 65.8282 38.117 65.5007 38.117H64.4775C64.4775 37.9781 64.4951 37.8371 64.5313 37.6929C64.5674 37.5486 64.6269 37.418 64.7104 37.3017C64.7936 37.1853 64.9031 37.0909 65.0389 37.0186C65.1745 36.9466 65.3427 36.9104 65.5424 36.9104C65.7919 36.9104 65.9929 36.9755 66.1459 37.106C66.2983 37.2366 66.3749 37.4208 66.3749 37.6591C66.3749 37.8427 66.3107 37.9645 66.1831 38.0257ZM66.4743 36.6777C66.3302 36.5775 66.175 36.5058 66.0083 36.4613C65.8418 36.4166 65.6866 36.3945 65.5424 36.3945C65.4035 36.3945 65.2375 36.4166 65.0432 36.4613C64.8489 36.5058 64.6616 36.5984 64.4814 36.7397C64.3011 36.8813 64.147 37.0851 64.0196 37.3514C63.8916 37.6179 63.8281 37.9756 63.8281 38.4249C63.8281 38.7965 63.8907 39.0947 64.0154 39.3195C64.1401 39.544 64.2928 39.7175 64.473 39.8397C64.6533 39.9619 64.8446 40.0437 65.0473 40.0853C65.2497 40.127 65.4315 40.1476 65.5924 40.1476C65.7363 40.1476 65.8766 40.1363 66.0128 40.1144C66.1485 40.092 66.2703 40.0658 66.3787 40.0349C66.4867 40.0048 66.5906 39.9676 66.6907 39.9231V39.5485C66.6907 39.4817 66.6686 39.4417 66.6243 39.4275C66.5798 39.4139 66.5326 39.4153 66.4829 39.432C66.4384 39.4485 66.3912 39.4638 66.3412 39.4776C66.2915 39.4914 66.2332 39.5056 66.1664 39.5194C66.1 39.5331 66.0221 39.5456 65.9337 39.5566C65.8449 39.5677 65.7394 39.5732 65.6172 39.5732C65.3231 39.5732 65.0678 39.5081 64.8521 39.3778C64.6355 39.2474 64.5134 39.0213 64.4855 38.6994H65.7672C65.9445 38.6994 66.1084 38.6817 66.2577 38.6453C66.4079 38.6094 66.5367 38.55 66.6448 38.4665C66.7531 38.3833 66.8362 38.2765 66.8947 38.1463C66.9526 38.016 66.9819 37.8538 66.9819 37.6591C66.9819 37.4264 66.9335 37.2296 66.8362 37.0685C66.7391 36.9079 66.6186 36.7774 66.4743 36.6777Z" fill="#002A52"/>
<path d="M73.2695 36.4609H72.737L71.7057 39.4652C71.7057 39.4652 71.1241 37.7711 70.8685 37.0261H70.1746L69.3374 39.4652L68.3061 36.4609H67.7735C67.6955 36.4609 67.6526 36.4764 67.6445 36.5069C67.6363 36.5376 67.6429 36.5831 67.6653 36.6441L68.7634 39.6233C68.8243 39.7618 68.8824 39.8661 68.9382 39.935C68.9933 40.0046 69.0519 40.0572 69.1129 40.0934C69.1738 40.1293 69.254 40.1476 69.3374 40.1476C69.4207 40.1476 69.5009 40.1293 69.5619 40.0934C69.6227 40.0572 69.6814 40.0046 69.7366 39.935C69.7924 39.8661 69.8504 39.7618 69.9114 39.6233L70.5214 37.9676L71.1317 39.6233C71.1927 39.7618 71.2506 39.8661 71.3064 39.935C71.3617 40.0046 71.4204 40.0572 71.4812 40.0934C71.5422 40.1293 71.6222 40.1476 71.7057 40.1476C71.7891 40.1476 71.8693 40.1293 71.9301 40.0934C71.9911 40.0572 72.0498 40.0046 72.1049 39.935C72.1607 39.8661 72.2188 39.7618 72.2796 39.6233L73.3775 36.6441C73.4 36.5831 73.4068 36.5376 73.3985 36.5069C73.3905 36.4764 73.3474 36.4609 73.2695 36.4609Z" fill="#002A52"/>
<path d="M76.4533 39.4489C76.3591 39.4932 76.2398 39.5278 76.0958 39.5528C75.9515 39.5777 75.76 39.5903 75.5216 39.5903C75.2386 39.5903 75.0152 39.5402 74.8516 39.4403C74.6878 39.3405 74.606 39.2103 74.606 39.0493C74.606 38.8887 74.6894 38.7746 74.8557 38.7082C75.0222 38.6415 75.208 38.5984 75.4134 38.5792C75.6183 38.5597 75.7767 38.5442 75.8874 38.5335C75.9987 38.5222 76.0997 38.5127 76.1914 38.5042C76.2831 38.496 76.3703 38.4892 76.4533 38.4834V39.4489ZM76.624 36.6486C76.4826 36.5569 76.319 36.4918 76.1331 36.453C75.947 36.4144 75.7489 36.3945 75.5381 36.3945C75.3438 36.3945 75.1749 36.4046 75.0305 36.4238C74.8859 36.4437 74.7545 36.467 74.6352 36.4947C74.5159 36.5226 74.4007 36.5557 74.2898 36.5944V37.0606C74.2898 37.1716 74.3508 37.2075 74.473 37.1688C74.5949 37.1354 74.749 37.1008 74.935 37.0645C75.1208 37.0286 75.3217 37.0107 75.5381 37.0107C75.71 37.0107 75.8557 37.0259 75.975 37.0564C76.0941 37.0869 76.1901 37.1273 76.2619 37.177C76.334 37.2271 76.3853 37.2825 76.4162 37.3435C76.4465 37.4047 76.4616 37.4627 76.4616 37.5183V37.8511C76.3728 37.8622 76.2456 37.8757 76.0791 37.8927C75.9124 37.9094 75.6366 37.9415 75.2508 37.9884C74.8654 38.0357 74.5575 38.1436 74.3273 38.3128C74.0968 38.4822 73.9819 38.714 73.9819 39.0077C73.9819 39.2241 74.0266 39.4114 74.1151 39.5695C74.2035 39.7275 74.3191 39.8526 74.4605 39.9439C74.6022 40.0354 74.7571 40.102 74.9264 40.1438C75.0956 40.1854 75.2969 40.2059 75.5298 40.2059C75.7792 40.2059 75.9999 40.1867 76.1914 40.1476C76.3825 40.1088 76.5504 40.0633 76.6949 40.0107C76.8388 39.9578 76.9692 39.8953 77.086 39.8234V37.6014C77.086 37.3681 77.0444 37.1741 76.9609 37.0189C76.8779 36.8637 76.7657 36.7399 76.624 36.6486Z" fill="#002A52"/>
<path d="M81.7478 36.4609H81.1405L80.0336 39.6233L78.7105 36.4609H78.1616C78.0892 36.4609 78.049 36.4776 78.0411 36.511C78.0323 36.5444 78.0366 36.5806 78.0533 36.6194C78.0587 36.6303 78.0936 36.7078 78.1573 36.8521C78.2209 36.9963 78.2998 37.1767 78.3944 37.3931C78.4886 37.6096 78.5925 37.8497 78.7064 38.1129C78.82 38.3763 78.9296 38.6302 79.0351 38.8742C79.1402 39.1186 79.2361 39.3402 79.3224 39.5399C79.4079 39.7396 79.4707 39.8869 79.5097 39.9811C79.5536 40.0532 79.6094 40.0891 79.6756 40.0891H79.8755C79.7533 40.4054 79.6649 40.6121 79.6094 40.7094C79.5536 40.8059 79.5023 40.8879 79.4555 40.9547C79.4079 41.021 79.3512 41.0849 79.2845 41.1461C79.2181 41.2069 79.1419 41.257 79.0563 41.2959C78.97 41.3347 78.8689 41.3539 78.7523 41.3539C78.6526 41.3539 78.5566 41.3458 78.4652 41.3289C78.3736 41.3123 78.2998 41.2984 78.2445 41.2875L78.145 41.7117C78.1337 41.773 78.1376 41.8199 78.1573 41.8534C78.1764 41.8864 78.225 41.9141 78.303 41.9365C78.4302 41.9645 78.5663 41.9783 78.7105 41.9783C78.9712 41.9783 79.1916 41.9392 79.3721 41.8615C79.5522 41.784 79.7119 41.6618 79.8504 41.4956C79.9893 41.3289 80.1183 41.114 80.2376 40.8508C80.3567 40.5872 80.4832 40.2691 80.6162 39.8978C80.7326 39.5761 80.9212 39.0739 81.1819 38.3916C81.4428 37.7092 81.6161 37.2542 81.7023 37.0268C81.7878 36.7995 81.8392 36.6635 81.8562 36.6194C81.8729 36.558 81.8729 36.5164 81.8562 36.4943C81.8392 36.4724 81.8033 36.4609 81.7478 36.4609Z" fill="#002A52"/>
<path d="M85.1399 38.0403L86.0717 35.3773L87.004 38.0403H85.1399ZM86.4794 34.8278C86.4517 34.7451 86.4212 34.6786 86.388 34.6285C86.355 34.5784 86.3116 34.5356 86.259 34.4995C86.2064 34.4636 86.1436 34.4453 86.0717 34.4453C85.9996 34.4453 85.9359 34.4636 85.8804 34.4995C85.8248 34.5356 85.7832 34.5784 85.7555 34.6285C85.7281 34.6786 85.7001 34.7451 85.6727 34.8278L83.7585 39.904C83.7419 39.9485 83.7374 39.9903 83.746 40.029C83.7544 40.0678 83.7973 40.0874 83.875 40.0874H84.4075L84.9151 38.6726H87.2371L87.7447 40.0874H88.2523C88.33 40.0874 88.3766 40.0678 88.3933 40.029C88.4103 39.9903 88.4103 39.9485 88.3933 39.904L86.4794 34.8278Z" fill="#002A52"/>
<path d="M91.9437 36.5065C91.9104 36.5374 91.894 36.5856 91.894 36.6524V39.3235C91.7552 39.3956 91.6138 39.4482 91.4692 39.4816C91.3249 39.5146 91.1309 39.5316 90.8869 39.5316C90.6316 39.5316 90.4276 39.4665 90.2753 39.3361C90.1224 39.2054 90.0463 39.0321 90.0463 38.8159V36.4609H89.5554C89.5 36.4609 89.46 36.4764 89.4348 36.5065C89.4099 36.5374 89.397 36.5856 89.397 36.6524V38.7992C89.397 38.9544 89.4225 39.1116 89.4725 39.2693C89.522 39.4274 89.6039 39.5716 89.7178 39.7019C89.8312 39.8327 89.9842 39.9395 90.1753 40.0222C90.3668 40.1056 90.604 40.1472 90.8869 40.1472C91.153 40.1472 91.3877 40.1268 91.5901 40.0852C91.7923 40.0434 91.9714 39.9933 92.1268 39.935C92.282 39.8767 92.4205 39.8062 92.5427 39.7231V36.4609H92.0688C92.0184 36.4609 91.9768 36.4764 91.9437 36.5065Z" fill="#002A52"/>
<path d="M95.5051 39.4985C95.4717 39.5042 95.4024 39.5151 95.2969 39.5318C95.1914 39.5485 95.0997 39.5568 95.0222 39.5568C94.7726 39.5568 94.6007 39.5205 94.5066 39.4488C94.412 39.3766 94.3623 39.2403 94.3564 39.0409V37.0934H95.3132C95.3687 37.0934 95.4105 37.0784 95.4383 37.0477C95.4659 37.0175 95.4801 36.9662 95.4801 36.8941V36.4611H94.3564V35.4459C94.3564 35.3905 94.3485 35.3517 94.3318 35.3295C94.3147 35.3074 94.2968 35.2936 94.2776 35.2879C94.258 35.2825 94.2342 35.285 94.2067 35.2965L93.7158 35.421V39.0992C93.7158 39.2932 93.7517 39.4568 93.8242 39.5901C93.896 39.7233 93.9864 39.8313 94.0944 39.9147C94.2028 39.998 94.3232 40.0574 94.4565 40.0933C94.5896 40.1295 94.7197 40.1474 94.8473 40.1474C95.0581 40.1474 95.2345 40.1324 95.3762 40.1019C95.5173 40.0715 95.6048 40.0423 95.6382 40.0143V39.6316C95.6382 39.5709 95.6269 39.5306 95.6048 39.511C95.5824 39.4916 95.5494 39.4875 95.5051 39.4985Z" fill="#002A52"/>
<path d="M98.2557 36.4599C98.0838 36.4599 97.9091 36.4804 97.7314 36.5222C97.5541 36.5638 97.3848 36.6264 97.2238 36.7093V34.7791C97.2238 34.6348 97.149 34.5625 96.9994 34.5625H96.5664V40.0879H97.0657C97.1212 40.0879 97.1616 40.0729 97.1863 40.0423C97.2113 40.0118 97.2238 39.9632 97.2238 39.8968V37.1839C97.5123 37.0452 97.8565 36.9756 98.2557 36.9756C98.7437 36.9756 98.9881 37.1895 98.9881 37.6165V40.0879H99.479C99.5341 40.0879 99.5759 40.0729 99.6037 40.0423C99.6317 40.0118 99.6454 39.9632 99.6454 39.8968V37.6332C99.6454 37.2559 99.5357 36.9663 99.3168 36.7635C99.0974 36.5609 98.7437 36.4599 98.2557 36.4599Z" fill="#002A52"/>
<path d="M103.291 38.8412C103.264 39.0073 103.211 39.1478 103.133 39.2612C103.056 39.3752 102.947 39.4624 102.809 39.5232C102.67 39.5845 102.493 39.6176 102.276 39.6233C102.043 39.6124 101.857 39.5749 101.719 39.5108C101.58 39.4473 101.474 39.3572 101.402 39.2404C101.33 39.1236 101.283 38.9838 101.261 38.82C101.239 38.6566 101.227 38.4721 101.227 38.2668C101.227 38.0395 101.243 37.8411 101.274 37.6717C101.304 37.5027 101.359 37.3627 101.44 37.2516C101.52 37.1408 101.627 37.0573 101.76 37.0019C101.893 36.9464 102.065 36.9185 102.276 36.9185C102.509 36.9185 102.695 36.9534 102.833 37.0231C102.972 37.092 103.079 37.1863 103.154 37.3055C103.229 37.4252 103.277 37.5678 103.299 37.7343C103.322 37.9006 103.333 38.0783 103.333 38.2668C103.333 38.483 103.319 38.6745 103.291 38.8412ZM102.276 36.3945C101.96 36.3945 101.694 36.4388 101.477 36.5277C101.261 36.6165 101.086 36.7428 100.953 36.9063C100.82 37.0699 100.724 37.2667 100.666 37.4969C100.608 37.7275 100.579 37.9841 100.579 38.2668C100.579 38.8771 100.71 39.3418 100.974 39.6604C101.237 39.9795 101.671 40.139 102.276 40.139C102.592 40.128 102.858 40.0796 103.075 39.9933C103.291 39.9077 103.466 39.7855 103.599 39.6274C103.732 39.4694 103.828 39.2767 103.886 39.049C103.944 38.8216 103.974 38.5609 103.974 38.2668C103.974 37.6566 103.842 37.1921 103.579 36.8731C103.315 36.5542 102.881 36.3945 102.276 36.3945Z" fill="#002A52"/>
<path d="M107.499 36.6108C107.443 36.5887 107.364 36.5648 107.261 36.5399C107.158 36.5151 107.038 36.4956 106.899 36.4816C106.761 36.4678 106.617 36.4609 106.467 36.4609C106.211 36.4609 105.99 36.4956 105.801 36.5648C105.612 36.6344 105.457 36.72 105.335 36.823C105.213 36.9257 105.121 37.0392 105.06 37.1639C104.999 37.289 104.969 37.4096 104.969 37.5258V40.0889H105.41C105.487 40.0889 105.544 40.0735 105.58 40.0434C105.617 40.013 105.634 39.9642 105.634 39.8975V37.6509C105.634 37.5954 105.647 37.5355 105.672 37.472C105.697 37.4083 105.743 37.3486 105.809 37.2928C105.876 37.2377 105.966 37.1905 106.08 37.1514C106.193 37.113 106.339 37.0931 106.516 37.0931C106.672 37.0931 106.811 37.1017 106.933 37.1184C107.055 37.1347 107.16 37.1514 107.249 37.1684C107.338 37.1851 107.415 37.2014 107.482 37.2181C107.51 37.1347 107.54 37.0405 107.573 36.9353C107.601 36.8519 107.609 36.7826 107.598 36.7272C107.587 36.6718 107.554 36.6328 107.499 36.6108Z" fill="#002A52"/>
<path d="M108.786 35.937C108.902 35.937 109.001 35.8995 109.081 35.8245C109.161 35.7497 109.202 35.6487 109.202 35.5208C109.202 35.3935 109.161 35.2934 109.081 35.2213C109.001 35.1492 108.902 35.1133 108.786 35.1133C108.675 35.1133 108.577 35.1492 108.494 35.2213C108.411 35.2934 108.37 35.3935 108.37 35.5208C108.37 35.6487 108.411 35.7497 108.494 35.8245C108.577 35.8995 108.675 35.937 108.786 35.937Z" fill="#002A52"/>
<path d="M109.476 39.4649H109.364C109.323 39.4649 109.283 39.4595 109.247 39.4482C109.211 39.4373 109.181 39.4181 109.156 39.3902C109.131 39.3623 109.118 39.3181 109.118 39.2571V36.6357C109.118 36.5582 109.105 36.5094 109.077 36.4902C109.049 36.4706 109.002 36.4609 108.935 36.4609H108.469V39.2819C108.469 39.4373 108.49 39.5659 108.532 39.6689C108.573 39.7715 108.626 39.8548 108.69 39.9183C108.753 39.9822 108.823 40.0267 108.898 40.0514C108.973 40.0764 109.046 40.0889 109.118 40.0889H109.618V39.623C109.618 39.5729 109.606 39.5345 109.585 39.5065C109.562 39.4787 109.526 39.4649 109.476 39.4649Z" fill="#002A52"/>
<path d="M112.238 39.4985C112.205 39.5042 112.136 39.5151 112.03 39.5318C111.925 39.5485 111.833 39.5568 111.756 39.5568C111.506 39.5568 111.334 39.5205 111.24 39.4488C111.145 39.3766 111.096 39.2403 111.09 39.0409V37.0934H112.047C112.102 37.0934 112.144 37.0784 112.172 37.0477C112.199 37.0175 112.214 36.9662 112.214 36.8941V36.4611H111.09V35.4459C111.09 35.3905 111.082 35.3517 111.065 35.3295C111.048 35.3074 111.03 35.2936 111.011 35.2879C110.991 35.2825 110.968 35.285 110.94 35.2965L110.449 35.421V39.0992C110.449 39.2932 110.485 39.4568 110.558 39.5901C110.629 39.7233 110.72 39.8313 110.828 39.9147C110.936 39.998 111.057 40.0574 111.19 40.0933C111.323 40.1295 111.453 40.1474 111.581 40.1474C111.792 40.1474 111.968 40.1324 112.11 40.1019C112.251 40.0715 112.338 40.0423 112.372 40.0143V39.6316C112.372 39.5709 112.36 39.5306 112.338 39.511C112.316 39.4916 112.283 39.4875 112.238 39.4985Z" fill="#002A52"/>
<path d="M116.908 36.4609H116.301L115.194 39.6233L113.871 36.4609H113.322C113.249 36.4609 113.209 36.4776 113.201 36.511C113.192 36.5444 113.197 36.5806 113.213 36.6194C113.219 36.6303 113.254 36.7078 113.318 36.8521C113.381 36.9963 113.46 37.1767 113.555 37.3931C113.649 37.6096 113.753 37.8497 113.867 38.1129C113.98 38.3763 114.09 38.6302 114.195 38.8742C114.3 39.1186 114.396 39.3402 114.483 39.5399C114.568 39.7396 114.631 39.8869 114.67 39.9811C114.714 40.0532 114.769 40.0891 114.836 40.0891H115.036C114.914 40.4054 114.825 40.6121 114.769 40.7094C114.714 40.8059 114.663 40.8879 114.616 40.9547C114.568 41.021 114.511 41.0849 114.445 41.1461C114.378 41.2069 114.302 41.257 114.216 41.2959C114.13 41.3347 114.029 41.3539 113.912 41.3539C113.813 41.3539 113.717 41.3458 113.625 41.3289C113.534 41.3123 113.46 41.2984 113.405 41.2875L113.305 41.7117C113.294 41.773 113.298 41.8199 113.318 41.8534C113.337 41.8864 113.385 41.9141 113.463 41.9365C113.59 41.9645 113.726 41.9783 113.871 41.9783C114.131 41.9783 114.352 41.9392 114.532 41.8615C114.712 41.784 114.872 41.6618 115.011 41.4956C115.149 41.3289 115.278 41.114 115.398 40.8508C115.517 40.5872 115.643 40.2691 115.776 39.8978C115.893 39.5761 116.081 39.0739 116.342 38.3916C116.603 37.7092 116.776 37.2542 116.862 37.0268C116.948 36.7995 116.999 36.6635 117.016 36.6194C117.033 36.558 117.033 36.5164 117.016 36.4943C116.999 36.4724 116.963 36.4609 116.908 36.4609Z" fill="#002A52"/>
<path d="M19.2928 30.7798H18.0945V28.6493C18.4495 28.7107 18.7381 28.8424 18.96 29.0448C19.1816 29.2474 19.2928 29.554 19.2928 29.9643V30.7798ZM17.5119 30.2889C17.5119 30.4386 17.491 30.5579 17.4496 30.6467C17.408 30.7353 17.2983 30.7798 17.1211 30.7798H16.8381C16.766 30.7798 16.6922 30.7603 16.6172 30.7215C16.5426 30.6826 16.4762 30.6246 16.4175 30.5468C16.3598 30.4691 16.3122 30.3733 16.276 30.2597C16.2397 30.1459 16.2221 30.0173 16.2221 29.8727C16.2221 29.6283 16.2595 29.4262 16.3345 29.2649C16.4095 29.1044 16.5065 28.9755 16.6259 28.8783C16.7452 28.7814 16.8821 28.715 17.038 28.6786C17.1928 28.6427 17.3509 28.6276 17.5119 28.633V30.2889ZM24.0719 29.648C24.0218 29.676 23.9581 29.7009 23.8804 29.7228C23.8029 29.7453 23.71 29.7636 23.6018 29.7772C23.4937 29.791 23.362 29.7978 23.2061 29.7978C23.0897 29.7978 22.98 29.7865 22.8778 29.7645C22.7751 29.7426 22.6847 29.7022 22.6072 29.6439C22.5299 29.5856 22.4687 29.5079 22.4244 29.4112C22.3797 29.3139 22.3576 29.1901 22.3576 29.0407C22.3576 28.7241 22.4382 28.5072 22.5991 28.3875C22.7601 28.2679 22.982 28.2083 23.2648 28.2083C23.4309 28.2083 23.5727 28.2225 23.6893 28.2499C23.8054 28.2783 23.933 28.3138 24.0719 28.3583V29.648ZM24.2884 27.7802C24.1438 27.733 23.9917 27.6926 23.8307 27.6591C23.6694 27.6262 23.5113 27.6094 23.3561 27.6094C23.0567 27.6094 22.8044 27.6413 22.5991 27.7052C22.3939 27.7691 22.2272 27.8604 22.0996 27.9797C21.9719 28.099 21.8793 28.2433 21.8208 28.4123C21.7625 28.5815 21.7336 28.7746 21.7336 28.9904C21.7336 29.2068 21.7587 29.4015 21.8084 29.5734C21.8581 29.7453 21.9414 29.8908 22.0578 30.0101C22.1746 30.1294 22.3271 30.2211 22.5157 30.285C22.7043 30.3487 22.9372 30.3801 23.2151 30.3801C23.392 30.3801 23.5617 30.3625 23.7223 30.3262C23.8833 30.29 24.0107 30.2471 24.1052 30.1971C24.1052 30.4247 24.0164 30.5789 23.8388 30.6591C23.6611 30.7396 23.4338 30.7797 23.1564 30.7797H20.6436V30.78H19.885C19.8893 30.7296 19.8918 30.6795 19.8918 30.6298V30.0558C19.8918 29.673 19.8392 29.3496 19.7337 29.0864C19.6286 28.8225 19.4717 28.6118 19.2636 28.4538C19.0558 28.2957 18.7975 28.1819 18.4896 28.1128C18.182 28.0432 17.8255 28.0086 17.4202 28.0086C17.265 28.0086 17.0999 28.0158 16.9253 28.0296C16.7504 28.0432 16.5769 28.0613 16.4053 28.0838C16.2331 28.1058 16.0668 28.1322 15.9056 28.1625C15.7451 28.1934 15.6037 28.2252 15.4811 28.2585L15.5728 28.5829C15.5895 28.6443 15.6171 28.6884 15.6562 28.7157C15.695 28.7437 15.7476 28.7494 15.8143 28.7328L16.1057 28.6493C15.9613 28.7494 15.8436 28.8991 15.7517 29.099C15.6604 29.2987 15.6146 29.5398 15.6146 29.823C15.6146 29.9891 15.6282 30.1337 15.6562 30.2555C15.6839 30.3774 15.7201 30.4816 15.7646 30.5676C15.8089 30.6535 15.8615 30.7244 15.9227 30.7798H14.5757V30.7797H14.4092C14.2479 30.7797 14.1139 30.7658 14.0055 30.7384C13.8971 30.7108 13.8046 30.6786 13.7269 30.6428C13.649 30.6061 13.5855 30.5608 13.5352 30.5051V30.006C13.5352 29.8007 13.5076 29.6064 13.4525 29.4234C13.3967 29.2402 13.2982 29.0724 13.1572 28.9199C13.0154 28.7676 12.8256 28.6341 12.5866 28.5207C12.3482 28.4067 12.1054 28.3206 11.8587 28.2628C11.6116 28.2042 11.4117 28.1599 11.2598 28.1294C11.1069 28.099 10.9334 28.0644 10.7396 28.0255L10.656 28.4001C10.623 28.5496 10.7093 28.6441 10.9144 28.6825C11.0247 28.705 11.1501 28.7313 11.2887 28.7618C11.4272 28.7922 11.5852 28.8275 11.7629 28.8661C11.9409 28.9048 12.1083 28.9545 12.2663 29.0157C12.4248 29.0767 12.552 29.1546 12.6496 29.2488C12.7463 29.3432 12.8168 29.4621 12.8615 29.6064C12.9058 29.7506 12.9282 29.9342 12.9282 30.1554V30.7797H10.3314C10.2263 30.7797 10.1733 30.8351 10.1733 30.9462V31.4041H12.7113C12.9448 31.4041 13.1197 31.3736 13.236 31.3125C13.3521 31.251 13.433 31.1658 13.4775 31.0545C13.6106 31.1821 13.7671 31.2722 13.9472 31.3251C14.1275 31.3777 14.2817 31.4041 14.4092 31.4041H14.5757L20.6436 31.4039L23.1731 31.4041C23.478 31.4041 23.7308 31.3666 23.9305 31.2914C24.1304 31.2167 24.2884 31.1166 24.4051 30.9923C24.5211 30.8672 24.603 30.723 24.6503 30.5593C24.6972 30.3955 24.7212 30.2252 24.7212 30.0476V27.9334C24.5766 27.8787 24.4327 27.827 24.2884 27.7802Z" fill="#002A52"/>
<path d="M23.4397 26.9259C23.5562 26.9259 23.6545 26.8859 23.7354 26.8054C23.8156 26.7252 23.856 26.6261 23.856 26.5097C23.856 26.3936 23.8156 26.2949 23.7354 26.2143C23.6545 26.1343 23.5562 26.0938 23.4397 26.0938C23.3233 26.0938 23.2246 26.1343 23.1444 26.2143C23.0636 26.2949 23.0234 26.3936 23.0234 26.5097C23.0234 26.6261 23.0636 26.7252 23.1444 26.8054C23.2246 26.8859 23.3233 26.9259 23.4397 26.9259Z" fill="#002A52"/>
<path d="M59.2283 31.8789C59.1118 31.8789 59.0131 31.9187 58.9326 31.9995C58.8522 32.0797 58.812 32.1784 58.812 32.2948C58.812 32.4113 58.8522 32.5096 58.9326 32.5905C59.0131 32.6705 59.1118 32.7111 59.2283 32.7111C59.3447 32.7111 59.4431 32.6705 59.5236 32.5905C59.604 32.5096 59.6442 32.4113 59.6442 32.2948C59.6442 32.1784 59.604 32.0797 59.5236 31.9995C59.4431 31.9187 59.3447 31.8789 59.2283 31.8789Z" fill="#002A52"/>
<path d="M63.0852 26.4027C63.0437 26.4472 63.0233 26.5028 63.0233 26.5694V29.9892C63.0233 30.2446 62.9492 30.4401 62.8024 30.5761C62.6551 30.7121 62.4233 30.78 62.1075 30.78H62.0077L61.8497 30.7798C61.6885 30.7798 61.5527 30.7656 61.442 30.7382C61.3308 30.7109 61.2366 30.6788 61.1585 30.6429C61.081 30.6063 61.0175 30.5636 60.9678 30.5133V29.9227C60.9678 29.6123 60.9353 29.3458 60.872 29.1235C60.8081 28.9019 60.7038 28.7201 60.5596 28.5788C60.4153 28.4374 60.2296 28.3347 60.0023 28.2709C59.7746 28.2072 59.4972 28.1751 59.1698 28.1751C58.9424 28.1751 58.7289 28.1876 58.5292 28.2126C58.3293 28.2379 58.145 28.2655 57.976 28.2956C57.8063 28.3267 57.6473 28.3609 57.4973 28.3999L57.5973 28.8244C57.6139 28.9299 57.6916 28.9629 57.8305 28.9242C57.9635 28.8911 58.1492 28.8562 58.388 28.8203C58.6263 28.7842 58.873 28.7661 59.1281 28.7661C59.417 28.7661 59.6431 28.7964 59.8067 28.8578C59.9702 28.919 60.0891 29.0058 60.1645 29.1197C60.2393 29.2333 60.2851 29.372 60.3021 29.5356C60.3181 29.6995 60.327 29.8839 60.327 30.0893V30.7798H56.9843L56.7186 30.78C56.5578 30.78 56.4233 30.7674 56.3151 30.7425C56.2071 30.7175 56.1141 30.6874 56.0363 30.6508C55.9586 30.6149 55.8947 30.5718 55.845 30.5218V28.2457H55.4208C55.3596 28.2457 55.3055 28.2698 55.2583 28.3166C55.2111 28.364 55.1877 28.4209 55.1877 28.4873V30.1722C55.1877 30.3551 55.1415 30.5026 55.0501 30.6133C54.9588 30.7245 54.7964 30.78 54.5637 30.78H54.5303C54.4578 30.78 54.3819 30.7787 54.3014 30.7758C54.2208 30.773 54.1376 30.7617 54.052 30.7425C53.9657 30.7229 53.8813 30.6895 53.7983 30.6427C53.7148 30.5955 53.637 30.5302 53.5648 30.4471V28.3414H53.1486C53.0877 28.3414 53.0339 28.3651 52.9867 28.4123C52.9395 28.4593 52.9159 28.5135 52.9159 28.5745V30.2638C52.9159 30.3804 52.8911 30.4733 52.841 30.5424C52.7912 30.6122 52.7289 30.6632 52.6539 30.6965C52.5789 30.7299 52.4958 30.7523 52.4043 30.7633C52.3126 30.7746 52.2279 30.78 52.1504 30.78C51.9891 30.78 51.856 30.7674 51.7508 30.7425C51.6453 30.7175 51.554 30.6874 51.4763 30.6508C51.3981 30.6149 51.3349 30.5718 51.2849 30.5218V28.5904H50.8688C50.8081 28.5904 50.7536 28.6141 50.7064 28.6613C50.6594 28.7085 50.6355 28.7627 50.6355 28.8235V30.1554C50.6355 30.3332 50.5927 30.4818 50.5071 30.6011C50.4211 30.72 50.2639 30.78 50.0366 30.78H50.0025L49.0645 30.7798C48.926 30.7798 48.8054 30.7685 48.7028 30.7464C48.5998 30.7245 48.5126 30.6992 48.4404 30.6716C48.3685 30.6441 48.3129 30.6149 48.2739 30.5842C48.2352 30.5537 48.2104 30.5331 48.1993 30.5219V28.3665H47.783C47.7218 28.3665 47.6676 28.3902 47.6208 28.4374C47.5733 28.4844 47.5499 28.5414 47.5499 28.6078V31.8472C47.5499 32.0632 47.5112 32.2216 47.4335 32.3214C47.356 32.4213 47.2175 32.471 47.0176 32.471C46.9564 32.471 46.8688 32.4558 46.7551 32.4253C46.6415 32.3952 46.5263 32.3548 46.4097 32.3047L46.3182 32.6959C46.2965 32.7793 46.3115 32.836 46.3641 32.8661C46.417 32.8966 46.4822 32.9261 46.5597 32.9537C46.8037 33.0205 47.0269 33.0519 47.2295 33.0493C47.4322 33.0466 47.6054 33.0034 47.7496 32.9203C47.8939 32.8373 48.005 32.7126 48.0828 32.5459C48.1602 32.3797 48.1993 32.1662 48.1993 31.9051V31.1212C48.3265 31.2206 48.474 31.2928 48.6401 31.3374C48.8066 31.3816 48.9477 31.404 49.0645 31.404H50.2114C50.45 31.404 50.6497 31.3636 50.8103 31.2834C50.9714 31.2025 51.0852 31.1071 51.1519 30.9963C51.2187 31.0683 51.2946 31.1304 51.3809 31.1833C51.4661 31.2362 51.5556 31.2793 51.647 31.3125C51.7386 31.3453 51.8285 31.3697 51.9174 31.3832C52.0062 31.3972 52.0866 31.404 52.1587 31.404C52.1969 31.404 52.4926 31.4203 52.7705 31.3206C52.895 31.2766 52.9977 31.228 53.0781 31.1751C53.1586 31.1225 53.2207 31.0728 53.2654 31.0249C53.3095 30.9784 53.3404 30.9434 53.3567 30.9213C53.3738 30.9434 53.408 30.9813 53.461 31.0338C53.5135 31.0866 53.5882 31.1408 53.6858 31.1962C53.7828 31.251 53.9005 31.2998 54.0394 31.3414C54.1779 31.3832 54.3414 31.404 54.5303 31.404H54.7634C55.0072 31.404 55.2098 31.3622 55.3704 31.2793C55.5315 31.1962 55.6453 31.099 55.712 30.9877C55.7729 31.0602 55.8477 31.1225 55.9369 31.1751C56.0253 31.228 56.1154 31.2709 56.2071 31.3039C56.2988 31.3373 56.3903 31.3622 56.4816 31.3789C56.5733 31.3959 56.6522 31.404 56.7186 31.404H56.9843L60.2517 31.4042C60.4403 31.4042 60.5858 31.3766 60.6891 31.3207C60.7914 31.2653 60.8646 31.179 60.9091 31.0626C61.0424 31.1851 61.1989 31.2719 61.3796 31.3252C61.6815 31.4135 61.8581 31.4042 62.0077 31.4042L62.1075 31.404C62.4183 31.404 62.6747 31.3656 62.8771 31.2876C63.0798 31.2097 63.2391 31.0992 63.3558 30.9545C63.4722 30.8101 63.5544 30.6357 63.6012 30.4303C63.6486 30.2254 63.6721 29.9921 63.6721 29.7314V26.3359H63.2391C63.1781 26.3359 63.1268 26.3582 63.0852 26.4027Z" fill="#002A52"/>
<path d="M88.3225 27.3986C88.4386 27.3986 88.5371 27.3582 88.6175 27.278C88.6977 27.1974 88.7381 27.0988 88.7381 26.9823C88.7381 26.8662 88.6977 26.7675 88.6175 26.687C88.5371 26.607 88.4386 26.5664 88.3225 26.5664C88.2057 26.5664 88.107 26.607 88.0268 26.687C87.9464 26.7675 87.9062 26.8662 87.9062 26.9823C87.9062 27.0988 87.9464 27.1974 88.0268 27.278C88.107 27.3582 88.2057 27.3986 88.3225 27.3986Z" fill="#002A52"/>
<path d="M89.3875 27.3986C89.5039 27.3986 89.6026 27.3582 89.6828 27.278C89.7634 27.1974 89.8037 27.0988 89.8037 26.9823C89.8037 26.8662 89.7634 26.7675 89.6828 26.687C89.6026 26.607 89.5039 26.5664 89.3875 26.5664C89.2707 26.5664 89.1723 26.607 89.0921 26.687C89.0116 26.7675 88.9712 26.8662 88.9712 26.9823C88.9712 27.0988 89.0116 27.1974 89.0921 27.278C89.1723 27.3582 89.2707 27.3986 89.3875 27.3986Z" fill="#002A52"/>
<path d="M89.4704 30.5209C89.415 30.5821 89.3495 30.6362 89.2749 30.6834C89.1999 30.7306 89.1096 30.7706 89.0041 30.804C88.8986 30.8374 88.7682 30.8537 88.6133 30.8537C88.3192 30.8537 88.0916 30.7649 87.931 30.5873C87.77 30.4102 87.6895 30.1188 87.6895 29.7138C87.6895 29.4976 87.7142 29.3212 87.7645 29.1854C87.8145 29.0494 87.8834 28.9414 87.9726 28.8612C88.0609 28.7806 88.1651 28.7264 88.2843 28.6988C88.4032 28.671 88.5328 28.6572 88.6711 28.6572C88.7653 28.6572 88.8862 28.6624 89.033 28.6739C89.18 28.6848 89.3258 28.7097 89.4704 28.7485V30.5209ZM103.827 28.4363C103.78 28.4838 103.756 28.5405 103.756 28.6069V29.9049C103.756 30.194 103.698 30.4116 103.582 30.5586C103.465 30.7057 103.24 30.7791 102.907 30.7791C102.774 30.7791 102.633 30.7595 102.483 30.7208C102.333 30.682 102.197 30.5905 102.075 30.4462V28.53H101.651C101.59 28.53 101.536 28.554 101.489 28.6008C101.442 28.6482 101.418 28.702 101.418 28.763V30.2548C101.418 30.3712 101.393 30.4642 101.343 30.5334C101.293 30.6027 101.231 30.6553 101.156 30.6915C101.081 30.7281 101.001 30.7516 100.915 30.7624C100.829 30.7737 100.746 30.7791 100.669 30.7791C100.508 30.7791 100.374 30.7667 100.266 30.7416C100.157 30.7166 100.064 30.6865 99.9866 30.6499C99.9087 30.614 99.8452 30.5709 99.7955 30.5211V28.706H99.3792C99.3182 28.706 99.2641 28.73 99.2167 28.7769C99.1699 28.8242 99.1462 28.8782 99.1462 28.9391V30.1715C99.1462 30.3492 99.099 30.495 99.0048 30.6083C98.9104 30.722 98.7466 30.7791 98.5137 30.7791H97.9618C97.8008 30.7791 97.6664 30.7667 97.5584 30.7416C97.4502 30.7166 97.3569 30.6865 97.2794 30.6499C97.2017 30.614 97.138 30.5709 97.0883 30.5211V28.3654H96.6638C96.6028 28.3654 96.5486 28.3895 96.5014 28.4363C96.4544 28.4838 96.4306 28.5405 96.4306 28.6069V30.1715C96.4306 30.3542 96.3848 30.5017 96.2933 30.6124C96.202 30.7236 96.0398 30.7791 95.8069 30.7791H95.7737C95.7012 30.7791 95.6248 30.7778 95.5446 30.7749C95.4642 30.7721 95.3807 30.7608 95.2952 30.7416C95.2088 30.722 95.1243 30.6886 95.0413 30.6418C94.9578 30.5948 94.8803 30.5293 94.8078 30.4462V28.53H94.3919C94.3309 28.53 94.2767 28.554 94.2299 28.6008C94.1825 28.6482 94.159 28.702 94.159 28.763V30.2629C94.159 30.3795 94.1341 30.4726 94.084 30.5415C94.0343 30.6115 93.9719 30.6624 93.8971 30.6958C93.8221 30.729 93.739 30.7516 93.6473 30.7624C93.556 30.7737 93.4709 30.7791 93.3936 30.7791C93.2323 30.7791 93.0993 30.7667 92.9942 30.7416C92.8887 30.7166 92.7968 30.6865 92.7197 30.6499C92.6414 30.614 92.5779 30.5709 92.5282 30.5211V28.706H92.1116C92.0511 28.706 91.9969 28.73 91.9494 28.7769C91.9026 28.8242 91.8789 28.8782 91.8789 28.9391V30.1545C91.8789 30.3325 91.8358 30.4809 91.7499 30.6002C91.6643 30.7191 91.5073 30.7791 91.2796 30.7791H90.469C90.3744 30.7791 90.2926 30.7527 90.2233 30.6998C90.1537 30.6472 90.1194 30.5654 90.1194 30.4545V28.2827C89.9752 28.244 89.8252 28.2106 89.6701 28.1826C89.5144 28.1548 89.3454 28.13 89.1626 28.108C88.9792 28.0857 88.7906 28.0742 88.5963 28.0742C88.3081 28.0742 88.065 28.1158 87.8684 28.1993C87.6712 28.2827 87.5102 28.3977 87.3859 28.5447C87.2612 28.6918 87.1707 28.8637 87.1151 29.0609C87.0597 29.2575 87.0322 29.4702 87.0322 29.6971C87.0322 30.0691 87.0789 30.3702 87.174 30.6C87.2678 30.8304 87.3884 31.0093 87.5355 31.1365C87.6825 31.2644 87.8447 31.3504 88.0223 31.395C88.1998 31.439 88.3747 31.4614 88.5466 31.4614C88.7075 31.4614 88.8504 31.4435 88.9754 31.4072C89.0998 31.3714 89.2081 31.3295 89.2995 31.2825C89.3915 31.2353 89.466 31.1856 89.5246 31.1327C89.5824 31.0798 89.6285 31.0371 89.6615 31.0037C89.6782 31.0371 89.7059 31.076 89.7446 31.1202C89.7837 31.1648 89.8325 31.2074 89.8905 31.2492C89.9488 31.2908 90.0139 31.327 90.0861 31.3575C90.158 31.3877 90.2387 31.4031 90.3272 31.4031H91.4545C91.6928 31.4031 91.8927 31.3627 92.0536 31.2825C92.2146 31.2018 92.3283 31.1062 92.3951 30.9956C92.4615 31.0674 92.5377 31.1297 92.6237 31.1824C92.7094 31.2353 92.7988 31.2784 92.8903 31.3118C92.9816 31.3444 93.0713 31.3688 93.1605 31.3823C93.249 31.3963 93.3299 31.4031 93.402 31.4031H93.568C93.7399 31.3922 93.8885 31.3647 94.0135 31.3197C94.1382 31.2759 94.2408 31.2271 94.3212 31.1742C94.4018 31.1216 94.4641 31.0719 94.5085 31.0242C94.5529 30.9775 94.5835 30.9427 94.6001 30.9205C94.6169 30.9427 94.6514 30.9806 94.7041 31.0331C94.7567 31.0857 94.8315 31.1399 94.9289 31.1953C95.0258 31.2502 95.1439 31.2989 95.2824 31.3407C95.4209 31.3823 95.5847 31.4031 95.7737 31.4031H96.0068C96.2501 31.4031 96.4528 31.3615 96.6138 31.2784C96.7747 31.1953 96.8885 31.0981 96.9552 30.9868C97.0162 31.0593 97.0908 31.1216 97.1797 31.1742C97.2685 31.2271 97.3586 31.27 97.4502 31.303C97.5417 31.3364 97.6334 31.3615 97.7248 31.3782C97.8163 31.395 97.895 31.4031 97.9618 31.4031H98.7051C98.9547 31.4031 99.16 31.3627 99.3209 31.2825C99.4815 31.2018 99.5956 31.1062 99.662 30.9956C99.7288 31.0674 99.8048 31.1297 99.891 31.1824C99.9769 31.2353 100.066 31.2784 100.157 31.3118C100.249 31.3444 100.339 31.3688 100.428 31.3823C100.516 31.3963 100.594 31.4031 100.661 31.4031H100.835C101.008 31.3922 101.156 31.3647 101.281 31.3197C101.405 31.2759 101.508 31.2271 101.589 31.1742C101.669 31.1216 101.73 31.0719 101.772 31.0242C101.813 30.9775 101.842 30.9427 101.859 30.9205C101.876 30.9427 101.91 30.9806 101.963 31.0331C102.016 31.0857 102.086 31.1399 102.175 31.1953C102.264 31.2502 102.369 31.2989 102.492 31.3407C102.613 31.3823 102.752 31.4031 102.907 31.4031C103.207 31.4031 103.455 31.3672 103.652 31.2947C103.849 31.223 104.003 31.1203 104.114 30.9868C104.225 30.8539 104.303 30.6944 104.347 30.5085C104.392 30.3228 104.414 30.1159 104.414 29.8886V28.3654H103.989C103.928 28.3654 103.874 28.3895 103.827 28.4363Z" fill="#002A52"/>
<path d="M107.46 27.3664C107.46 27.3384 107.451 27.3106 107.435 27.2829C107.418 27.2555 107.387 27.2413 107.343 27.2413H106.918C106.875 27.2413 106.826 27.2372 106.773 27.2291C106.72 27.2205 106.675 27.2054 106.636 27.1832C106.597 27.1611 106.561 27.132 106.528 27.0958C106.494 27.0597 106.478 27.003 106.478 26.9252C106.478 26.8697 106.507 26.8096 106.565 26.7459C106.623 26.6828 106.741 26.6503 106.918 26.6503C107.013 26.6503 107.101 26.6576 107.181 26.6715C107.261 26.6853 107.307 26.6921 107.318 26.6921C107.351 26.6978 107.381 26.6878 107.406 26.6628C107.43 26.6381 107.449 26.6035 107.46 26.559L107.501 26.3178C107.446 26.3065 107.389 26.2941 107.331 26.2803C107.272 26.2665 107.207 26.2552 107.135 26.2469C107.063 26.2387 106.988 26.2344 106.91 26.2344C106.799 26.2344 106.694 26.2457 106.594 26.2674C106.494 26.2898 106.405 26.3288 106.328 26.3842C106.25 26.4396 106.189 26.513 106.145 26.6047C106.1 26.6962 106.078 26.8005 106.078 26.9167C106.078 27.0055 106.087 27.0736 106.103 27.1207C106.12 27.1676 106.142 27.2079 106.169 27.2413H106.103C106.064 27.2413 106.03 27.2567 105.999 27.2872C105.968 27.3176 105.954 27.3635 105.954 27.4243V27.6409H107.46V27.3664Z" fill="#002A52"/>
<path d="M112.062 30.7713H111.866C111.866 30.7713 110.452 30.8101 110.331 30.7713C110.303 30.7107 110.278 30.637 110.256 30.551C110.234 30.4651 110.215 30.3651 110.201 30.2516C110.188 30.1378 110.181 30.0084 110.181 29.8645C110.181 29.7314 110.204 29.601 110.251 29.4734C110.298 29.3456 110.372 29.2331 110.472 29.1362C110.572 29.0395 110.697 28.9602 110.847 28.899C110.996 28.8384 111.176 28.8074 111.387 28.8074C111.543 28.8074 111.675 28.8185 111.783 28.8407C111.891 28.8632 111.984 28.88 112.062 28.891V30.7713ZM107.817 30.7798H106.952C106.675 30.7798 106.447 30.7021 106.27 30.5469C106.092 30.3913 106.003 30.1444 106.003 29.8062C106.003 29.601 106.037 29.4274 106.103 29.2857C106.17 29.1447 106.261 29.0334 106.378 28.9532C106.494 28.873 106.623 28.816 106.765 28.7826C106.906 28.7492 107.049 28.7356 107.194 28.7413C107.371 28.7413 107.579 28.7718 107.817 28.8326V30.7798ZM113.559 31.404H113.717C114.006 31.3983 114.246 31.3552 114.437 31.2748C114.629 31.1943 114.78 31.0821 114.89 30.938C115.002 30.7934 115.079 30.6187 115.124 30.4138C115.168 30.2083 115.191 29.981 115.191 29.7314V26.3359H114.758C114.697 26.3359 114.645 26.3582 114.604 26.4027C114.562 26.4472 114.541 26.5024 114.541 26.5694V29.9892C114.541 30.2442 114.468 30.4401 114.321 30.5761C114.174 30.7118 113.942 30.7796 113.626 30.7796H113.559C113.415 30.7796 113.29 30.7672 113.185 30.7421C113.079 30.7175 112.992 30.6895 112.923 30.6588C112.853 30.6287 112.799 30.5995 112.761 30.5718C112.721 30.5444 112.699 30.5245 112.694 30.5132V28.3914C112.55 28.3529 112.408 28.3181 112.269 28.2876C112.131 28.2571 111.984 28.2292 111.828 28.2041C111.673 28.1795 111.523 28.1666 111.379 28.1666C111.091 28.1666 110.833 28.2057 110.605 28.2834C110.378 28.3609 110.183 28.4718 110.023 28.6163C109.862 28.7605 109.738 28.934 109.652 29.1362C109.566 29.339 109.524 29.5622 109.524 29.8062C109.524 30.0283 109.54 30.2266 109.573 30.4014C109.607 30.5761 109.64 30.7021 109.673 30.7796H108.874L108.467 30.7798V28.3914C108.345 28.353 108.217 28.3181 108.084 28.2876C107.951 28.2571 107.805 28.2292 107.647 28.2041C107.489 28.1795 107.321 28.1666 107.143 28.1666C106.877 28.1666 106.632 28.2012 106.407 28.2709C106.182 28.3401 105.99 28.4456 105.829 28.587C105.668 28.7284 105.544 28.906 105.459 29.1197C105.372 29.3336 105.329 29.5757 105.329 29.8478C105.329 30.1864 105.385 30.4565 105.496 30.6588C105.606 30.8618 105.741 31.017 105.899 31.125C106.058 31.2335 106.225 31.3069 106.403 31.3453C106.581 31.3844 106.747 31.404 106.902 31.404H107.843C107.843 31.5481 107.84 31.4559 107.834 31.6057C107.829 31.7553 107.799 31.8913 107.747 32.0132C107.694 32.1353 107.603 32.2367 107.472 32.3169C107.342 32.3973 107.152 32.4377 106.902 32.4377C106.797 32.4377 106.693 32.4307 106.59 32.4172C106.488 32.403 106.391 32.3862 106.299 32.3672C106.207 32.3472 106.12 32.3271 106.037 32.3047L105.945 32.7039C105.923 32.7818 105.941 32.8383 105.999 32.8748C106.058 32.9108 106.12 32.9374 106.187 32.9537C106.297 32.9813 106.421 33.005 106.557 33.0242C106.693 33.0438 106.811 33.0538 106.911 33.0538C107.161 33.0538 107.382 33.0271 107.576 32.9745C107.771 32.9219 107.934 32.8258 108.067 32.6876C108.2 32.5484 108.3 32.3627 108.367 32.1296C108.433 31.8969 108.467 31.8395 108.467 31.4788V31.404H112.062C112.29 31.404 112.55 31.2183 112.611 31.0459C112.677 31.1071 112.752 31.1596 112.836 31.2043C112.919 31.2484 113.003 31.2859 113.089 31.3164C113.175 31.3473 113.26 31.3694 113.343 31.3828C113.426 31.397 113.498 31.404 113.559 31.404Z" fill="#002A52"/>
<path d="M116.605 26.3359C116.543 26.3359 116.489 26.358 116.442 26.4027C116.395 26.4472 116.372 26.5023 116.372 26.569V31.404H116.796C116.868 31.404 116.925 31.3816 116.967 31.3373C117.008 31.2928 117.029 31.2375 117.029 31.1709V26.3359H116.605Z" fill="#002A52"/>
<path d="M67.2678 27.3986C67.3843 27.3986 67.4824 27.3582 67.5628 27.278C67.6434 27.1974 67.6834 27.0988 67.6834 26.9823C67.6834 26.8662 67.6434 26.7675 67.5628 26.687C67.4824 26.607 67.3843 26.5664 67.2678 26.5664C67.151 26.5664 67.0527 26.607 66.9721 26.687C66.8918 26.7675 66.8516 26.8662 66.8516 26.9823C66.8516 27.0988 66.8918 27.1974 66.9721 27.278C67.0527 27.3582 67.151 27.3986 67.2678 27.3986Z" fill="#002A52"/>
<path d="M68.333 27.3986C68.4494 27.3986 68.5477 27.3582 68.6279 27.278C68.7088 27.1974 68.7489 27.0988 68.7489 26.9823C68.7489 26.8662 68.7088 26.7675 68.6279 26.687C68.5477 26.607 68.4494 26.5664 68.333 26.5664C68.2161 26.5664 68.1178 26.607 68.0373 26.687C67.9569 26.7675 67.9165 26.8662 67.9165 26.9823C67.9165 27.0988 67.9569 27.1974 68.0373 27.278C68.1178 27.3582 68.2161 27.3986 68.333 27.3986Z" fill="#002A52"/>
<path d="M78.8913 30.8295C78.8913 30.8295 78.8551 30.8022 78.7997 30.7301L77.7181 29.4901C77.7181 29.407 77.7457 29.3153 77.8012 29.2154C77.857 29.1156 77.9357 29.0212 78.0384 28.9328C78.1406 28.8436 78.2673 28.769 78.4171 28.7076C78.5666 28.6471 78.7358 28.6163 78.9247 28.6163C79.1133 28.6163 79.278 28.6443 79.4198 28.6997C79.561 28.7548 79.6801 28.8273 79.7777 28.9157C79.8744 29.0045 79.948 29.1002 79.9977 29.2028C80.0483 29.3058 80.073 29.4013 80.073 29.4901L78.9994 30.7301C78.9439 30.7907 78.8913 30.8295 78.8913 30.8295ZM82.2486 26.4027C82.2073 26.4474 82.1867 26.5028 82.1867 26.5694V29.9892C82.1867 30.2446 82.1126 30.4401 81.9658 30.5761C81.8187 30.7121 81.587 30.78 81.2713 30.78H81.2463V30.7798H79.7147L80.705 29.6232C80.705 29.3512 80.6565 29.1172 80.5598 28.9197C80.4626 28.723 80.3309 28.5608 80.1647 28.4332C79.9977 28.3055 79.8079 28.2122 79.5942 28.1546C79.3806 28.0959 79.1574 28.067 78.9247 28.067C78.6916 28.067 78.464 28.099 78.2424 28.1625C78.0201 28.2264 77.8245 28.322 77.6555 28.4499C77.4859 28.5775 77.349 28.7385 77.2435 28.9328C77.138 29.1267 77.0854 29.3568 77.0854 29.6232L78.0843 30.7798H76.5985C76.2823 30.7798 76.0505 30.713 75.9034 30.5799C75.7566 30.4469 75.683 30.253 75.683 29.9977V26.5696C75.683 26.5028 75.659 26.4474 75.6125 26.4027C75.5648 26.3582 75.5108 26.3361 75.4503 26.3361H75.0337V29.7395C75.0337 29.9952 75.0572 30.2254 75.1046 30.4303C75.1514 30.6357 75.2336 30.8103 75.3498 30.9545C75.4666 31.0992 75.626 31.2097 75.8287 31.2874C76.0046 31.3554 76.2254 31.4022 76.4818 31.4022H76.5674L81.2463 31.4042V31.404H81.2713C81.5817 31.404 81.8382 31.3656 82.0405 31.2876C82.2432 31.2097 82.4025 31.0992 82.5193 30.9545C82.6356 30.8101 82.7178 30.6357 82.7646 30.4303C82.812 30.2254 82.8355 29.9921 82.8355 29.7314V26.3359H82.4025C82.3415 26.3359 82.2904 26.3582 82.2486 26.4027Z" fill="#002A52"/>
<path d="M84.6127 31.3373C84.6544 31.2928 84.675 31.2375 84.675 31.1707V26.3359H84.251C84.1898 26.3359 84.1353 26.358 84.0885 26.4027C84.0409 26.4472 84.0176 26.5023 84.0176 26.569V31.404H84.4421C84.5142 31.404 84.5713 31.3816 84.6127 31.3373Z" fill="#002A52"/>
<path d="M73.4262 30.7667H71.6953C71.6677 30.706 71.6424 30.6323 71.6203 30.5464C71.5981 30.4602 71.5799 30.3605 71.5661 30.2469C71.5523 30.1328 71.5453 30.0038 71.5453 29.8599C71.5453 29.7267 71.5686 29.5963 71.616 29.4687C71.6628 29.341 71.7366 29.2285 71.8367 29.1316C71.9365 29.0349 72.0612 28.9556 72.2112 28.894C72.361 28.8334 72.5411 28.8027 72.7519 28.8027C72.9073 28.8027 73.0392 28.8138 73.1476 28.8361C73.2552 28.8585 73.3484 28.8752 73.4262 28.8859V30.7667ZM68.4159 30.5207C68.3603 30.5821 68.2954 30.6362 68.2202 30.6834C68.1452 30.7304 68.0551 30.7706 67.9496 30.804C67.8441 30.8372 67.7137 30.8535 67.5586 30.8535C67.2647 30.8535 67.0374 30.7649 66.8763 30.5871C66.7153 30.4102 66.635 30.1186 66.635 29.7136C66.635 29.4976 66.6595 29.3212 66.71 29.1852C66.76 29.0492 66.8289 28.9412 66.9181 28.861C67.0065 28.7806 67.1104 28.7264 67.2298 28.6988C67.3491 28.6708 67.4783 28.6572 67.6168 28.6572C67.711 28.6572 67.8319 28.6622 67.9789 28.6739C68.1256 28.6846 68.2715 28.7097 68.4159 28.7485V30.5207ZM74.0585 30.5085V28.3868C73.9139 28.348 73.7729 28.3134 73.634 28.2829C73.4955 28.2524 73.3484 28.2246 73.1932 28.1995C73.038 28.1745 72.8878 28.162 72.7435 28.162C72.4554 28.162 72.1972 28.2007 71.9698 28.2788C71.7425 28.3563 71.5482 28.4672 71.3874 28.6112C71.2261 28.7559 71.103 28.9294 71.0167 29.1316C70.9308 29.334 70.8882 29.5575 70.8882 29.8012C70.8882 30.0233 70.9046 30.2219 70.9379 30.3964C70.9713 30.5715 71.0045 30.6971 71.0375 30.7751L69.4144 30.7789C69.3197 30.7789 69.2381 30.7527 69.1688 30.6998C69.0992 30.6472 69.0649 30.5654 69.0649 30.4545V28.2825C68.9205 28.2438 68.7705 28.2104 68.6156 28.1826C68.4601 28.1546 68.2911 28.13 68.108 28.1078C67.9247 28.0857 67.7361 28.0742 67.5421 28.0742C67.2534 28.0742 67.0107 28.1158 66.8138 28.1993C66.6167 28.2825 66.4557 28.3977 66.3312 28.5445C66.2065 28.6918 66.1161 28.8635 66.0606 29.0609C66.0054 29.2574 65.9775 29.47 65.9775 29.6969C65.9775 30.0689 66.0247 30.37 66.1193 30.6C66.2133 30.8302 66.3337 31.0091 66.481 31.1365C66.6278 31.2644 66.7902 31.3504 66.9678 31.3949C67.1451 31.4388 67.3202 31.4612 67.4923 31.4612C67.653 31.4612 67.7957 31.4433 67.9207 31.4071C68.0452 31.3712 68.1536 31.3295 68.2453 31.2824C68.337 31.2352 68.4116 31.1855 68.4701 31.1325C68.5281 31.0796 68.574 31.0371 68.6072 31.0037C68.6237 31.0371 68.6512 31.0758 68.6903 31.1202C68.729 31.1647 68.7778 31.2074 68.836 31.249C68.8943 31.2906 68.9594 31.3269 69.0315 31.3574C69.1033 31.3875 69.1841 31.4029 69.2727 31.4029L73.4262 31.3993C73.6548 31.3993 73.9179 31.3166 73.9993 31.0941C74.0644 30.9156 74.0585 30.8456 74.0585 30.5085Z" fill="#002A52"/>
<path d="M31.3645 28.6086C31.3645 28.5809 31.3561 28.5535 31.3396 28.5251C31.3225 28.4977 31.2924 28.4835 31.2481 28.4835H30.8239C30.779 28.4835 30.7306 28.4794 30.678 28.4713C30.6254 28.4627 30.5795 28.448 30.5408 28.4255C30.5016 28.4033 30.4659 28.3742 30.4327 28.3382C30.3994 28.3021 30.3827 28.2452 30.3827 28.1674C30.3827 28.1123 30.4121 28.0525 30.4699 27.9886C30.5286 27.9249 30.6463 27.8925 30.8239 27.8925C30.9181 27.8925 31.0051 27.8998 31.0859 27.9136C31.1661 27.9278 31.2118 27.9343 31.2231 27.9343C31.2565 27.9404 31.2856 27.93 31.3103 27.9054C31.3353 27.8803 31.3536 27.846 31.3645 27.8011L31.4061 27.56C31.3507 27.5491 31.294 27.5367 31.2357 27.5225C31.1772 27.5087 31.112 27.4976 31.0399 27.4891C30.9678 27.4809 30.8931 27.4766 30.8153 27.4766C30.7042 27.4766 30.5991 27.4879 30.4989 27.5103C30.3994 27.5324 30.3106 27.5713 30.2329 27.6267C30.155 27.6818 30.094 27.7552 30.0498 27.8471C30.0055 27.9384 29.9835 28.0427 29.9835 28.1589C29.9835 28.2481 29.9914 28.3157 30.008 28.3629C30.0251 28.4101 30.047 28.4501 30.0748 28.4835H30.008C29.9693 28.4835 29.9347 28.4989 29.9042 28.5291C29.8738 28.5601 29.8584 28.606 29.8584 28.6665V28.8831H31.3645V28.6086Z" fill="#002A52"/>
<path d="M44.2032 26.4027C44.156 26.4472 44.1323 26.5024 44.1323 26.569V31.404H44.5568C44.629 31.404 44.6864 31.3816 44.7275 31.3373C44.7695 31.2928 44.7901 31.2377 44.7901 31.1709V26.3359H44.3658C44.3046 26.3359 44.2504 26.3582 44.2032 26.4027Z" fill="#002A52"/>
<path d="M39.8226 30.7713H39.627C39.627 30.7713 38.2135 30.8101 38.0917 30.7713C38.064 30.7107 38.0387 30.637 38.0167 30.551C37.9944 30.4651 37.9765 30.3651 37.9625 30.2516C37.9486 30.1378 37.9417 30.0084 37.9417 29.8645C37.9417 29.7314 37.9653 29.601 38.0125 29.4734C38.0595 29.3456 38.1331 29.2331 38.233 29.1362C38.3328 29.0395 38.4575 28.9602 38.6077 28.899C38.7573 28.8384 38.9376 28.8074 39.1483 28.8074C39.3037 28.8074 39.4356 28.8185 39.5439 28.8407C39.6519 28.8632 39.7447 28.88 39.8226 28.891V30.7713ZM40.8503 31.3164C40.9363 31.3473 41.0206 31.3694 41.1039 31.3828C41.1869 31.397 41.2589 31.404 41.3204 31.404H41.4785C41.7667 31.3983 42.0069 31.3552 42.1984 31.2748C42.3898 31.1943 42.5409 31.0821 42.6514 30.938C42.7626 30.7934 42.84 30.6187 42.8848 30.4138C42.9292 30.2083 42.9516 29.981 42.9516 29.7314V26.3359H42.5186C42.4578 26.3359 42.4065 26.3582 42.3647 26.4027C42.3231 26.4472 42.3019 26.5024 42.3019 26.5694V29.9892C42.3019 30.2442 42.2289 30.4401 42.0819 30.5761C41.9348 30.7118 41.703 30.7796 41.3868 30.7796H41.3204C41.1762 30.7796 41.0511 30.7672 40.9458 30.7421C40.8403 30.7175 40.7529 30.6895 40.6838 30.6588C40.6142 30.6287 40.5604 30.5995 40.5213 30.5718C40.4825 30.5444 40.4601 30.5245 40.4549 30.5132V28.3914C40.3106 28.3529 40.1692 28.3181 40.0303 28.2876C39.8918 28.2571 39.7447 28.2292 39.5895 28.2041C39.4343 28.1795 39.2841 28.1666 39.1402 28.1666C38.8517 28.1666 38.5939 28.2057 38.3662 28.2834C38.1388 28.3609 37.9445 28.4718 37.7838 28.6163C37.6228 28.7605 37.4994 28.934 37.4131 29.1362C37.3271 29.339 37.2846 29.5622 37.2846 29.8062C37.2846 30.0283 37.3009 30.2266 37.3343 30.4014C37.3677 30.5761 37.4009 30.7021 37.4342 30.7796H36.8179C36.657 30.7796 36.5228 30.7656 36.4151 30.7383C36.3067 30.7107 36.214 30.6788 36.1357 30.6427C36.0582 30.6063 35.9943 30.5636 35.9446 30.5132V26.3359H35.5038C35.4424 26.3359 35.3925 26.3582 35.3536 26.4027C35.3149 26.4472 35.2957 26.5028 35.2957 26.5694V30.1724C35.2957 30.3551 35.2481 30.5026 35.1539 30.6133C35.0595 30.7245 34.8961 30.7798 34.6634 30.7798H34.5263C33.9035 30.7798 33.6613 30.5221 33.6525 30.5133V26.3361H33.2199C33.1585 26.3361 33.1072 26.3582 33.0656 26.4029C33.0243 26.447 33.0031 26.5024 33.0031 26.5692V30.1722C33.0031 30.3553 32.9563 30.5027 32.8619 30.6131C32.7677 30.7243 32.6039 30.7798 32.3705 30.7798H30.1406C29.9854 30.7798 28.7647 30.7644 28.6153 30.734C28.4653 30.7039 28.3325 30.6497 28.2155 30.572C28.0991 30.4938 28.0047 30.3845 27.9329 30.2431C27.8608 30.1016 27.8245 29.9198 27.8245 29.6978C27.8245 29.5593 27.8314 29.4472 27.8454 29.3609C27.8592 29.2753 27.8771 29.1849 27.8995 29.0907C27.9162 28.9963 27.9134 28.9308 27.8913 28.8949C27.8689 28.859 27.827 28.83 27.7666 28.8075C27.7332 28.7962 27.5972 28.7523 27.3589 28.6748C27.3195 28.769 27.2864 28.8671 27.259 28.9701C27.231 29.0725 27.2089 29.1902 27.1922 29.3234C27.1756 29.4567 27.1675 29.6036 27.1675 29.7646C27.1675 29.9862 27.2046 30.1972 27.2791 30.3972C27.3544 30.5971 27.4696 30.7715 27.625 30.9212C27.78 31.0706 27.9785 31.1891 28.22 31.275C28.4611 31.3609 28.8605 31.4038 29.188 31.4038H32.5705C33.2943 31.4038 33.5305 30.9933 33.519 30.9793C33.8681 31.4038 34.3788 31.4038 34.5629 31.4038L34.8544 31.404C35.1042 31.404 35.3091 31.3608 35.4701 31.2748C35.631 31.1892 35.7449 31.0907 35.8115 30.9791C36.1497 31.3769 36.6107 31.404 36.8181 31.404H39.8226C40.0515 31.404 40.3106 31.2183 40.3718 31.0459C40.4382 31.1071 40.513 31.1596 40.5963 31.2043C40.6793 31.2484 40.7644 31.2859 40.8503 31.3164Z" fill="#002A52"/>
</g>
<defs>
<clipPath id="clip0_4361_26327">
<rect width="107.139" height="36" fill="white" transform="translate(10 6)"/>
</clipPath>
</defs>
</svg>
