<svg width="128" height="48" viewBox="0 0 128 48" fill="none" xmlns="http://www.w3.org/2000/svg">
<g clip-path="url(#clip0_4361_26325)">
<path d="M57.4578 10V15.8878H63.2146V10H57.4578ZM63.2146 15.8878V21.4705H68.9715V15.8878H63.2146ZM63.2146 21.4705H57.4578V31.3706C57.4578 33.3768 58.0685 34.9909 59.1584 36.1246C60.3798 37.346 62.168 38 64.3923 38C66.6603 38 68.2737 37.3022 68.9715 36.6916V31.9813C68.4484 32.374 67.4017 32.8533 66.0495 32.8533C65.09 32.8533 64.3922 32.6353 63.8686 32.1556C63.4326 31.7196 63.2146 30.9785 63.2146 29.9752V21.4705ZM45.0278 15.2338C42.3675 15.2338 40.1433 16.1058 38.6168 17.5014C37.3084 18.7227 36.5669 20.38 36.5669 22.2121C36.5669 23.8256 37.0905 25.1778 38.1372 26.2244C39.1838 27.2711 40.7103 28.056 42.7164 28.5358L46.0311 29.3211C47.6885 29.7133 48.43 30.324 48.43 31.4144C48.43 32.7662 47.2087 33.5511 45.2025 33.5511C43.7631 33.5511 42.5856 33.0718 41.844 32.2864C41.3209 31.7633 41.0153 31.0655 40.972 30.2802L36 31.3706C36.1309 32.8533 36.8286 34.1622 37.8754 35.2084C39.5327 36.9533 42.1929 38 45.2025 38C48.1244 38 50.5233 37.0842 52.0931 35.5578C53.2711 34.3798 53.9689 32.81 53.9689 30.9785C53.9689 29.3211 53.3582 27.838 52.224 26.7042C51.0903 25.5699 49.4762 24.7413 47.4267 24.3492L44.0683 23.6947C42.6728 23.4329 41.8878 22.7351 41.8878 21.7755C41.8878 20.5109 43.1086 19.6389 45.0716 19.6389C46.2924 19.6389 47.3396 20.0311 48.0374 20.7289C48.4734 21.2086 48.7784 21.8193 48.866 22.5171L53.707 21.4267C53.5762 20.0311 52.9218 18.8103 51.9189 17.8069C50.3487 16.2366 47.9064 15.2338 45.0278 15.2338ZM81.8375 15.2338C78.7413 15.2338 75.9497 16.4113 73.9435 18.4175C71.9372 20.4676 70.7164 23.3019 70.7164 26.6166C70.7164 29.9313 71.9811 32.7663 74.0311 34.8162C76.0368 36.8225 78.8721 38 82.0122 38C85.2397 38 87.7258 36.8225 89.4264 35.1652C90.7786 33.8567 91.6073 32.3302 92.0432 30.76L86.9404 29.0593C86.7224 29.8442 86.2864 30.6729 85.5881 31.3269C84.7594 32.1123 83.6257 32.6791 82.0122 32.6791C80.5294 32.6791 79.1335 32.1122 78.1306 31.1089C77.1273 30.0622 76.5171 28.5357 76.5171 26.6166C76.5171 24.6542 77.1273 23.1711 78.1306 22.1249C79.1335 21.1215 80.4857 20.5984 81.9684 20.5984C83.5386 20.5984 84.6291 21.1215 85.4139 21.9065C86.0684 22.5609 86.4606 23.3896 86.7224 24.2182L91.9123 22.4733C91.5197 20.9469 90.6911 19.4204 89.4702 18.1557C87.7257 16.4551 85.1959 15.2338 81.8375 15.2338Z" fill="#002A52"/>
</g>
<defs>
<clipPath id="clip0_4361_26325">
<rect width="56.0432" height="28" fill="white" transform="translate(36 10)"/>
</clipPath>
</defs>
</svg>
