<svg width="128" height="48" viewBox="0 0 128 48" fill="none" xmlns="http://www.w3.org/2000/svg">
<g clip-path="url(#clip0_4361_26321)">
<path d="M22.0502 44.2984H19.4087V43.9066H20.1701V37.3017H19.4701V36.9102H24.1491C25.142 36.9102 26.4838 36.9305 26.497 36.9299L26.5003 36.9376L26.7651 39.236H26.4156L26.3874 39.139C25.9665 37.7119 25.67 37.3019 24.1491 37.3019H21.399V40.5267H23.0149C24.3835 40.5267 24.7812 40.4016 24.7812 39.5198V39.3781H25.1294V42.0227H24.7812V41.8828C24.7812 41.2549 24.3939 40.9186 23.0149 40.9186H21.399V43.9069H22.0502L22.0502 44.2984Z" fill="#002A52"/>
<path d="M31.1779 38.452C29.3486 38.452 28.2998 39.4831 28.2998 41.282C28.2998 43.0842 29.3218 44.0769 31.1779 44.0769C33.0392 44.0769 34.0638 43.0842 34.0638 41.282C34.0638 39.4831 33.0124 38.452 31.1779 38.452ZM31.1779 44.4302C28.5035 44.4302 27.0596 42.8083 27.0596 41.282C27.0596 39.2883 29.154 38.0977 31.1779 38.0977C33.853 38.0977 35.2963 39.7383 35.2963 41.282C35.2963 43.3268 33.1747 44.4302 31.1779 44.4302Z" fill="#002A52"/>
<path d="M39.5911 44.4329C38.087 44.4329 36.2936 43.898 36.2936 41.3474V38.589H35.6748V38.2344H38.1119V38.589H37.4375V41.3474C37.4375 43.7245 38.7867 44.0795 39.5911 44.0795C40.8517 44.0795 42.1986 43.3621 42.1986 41.3474V38.589H41.5882V38.2344H43.0754V38.589H42.5138V41.3474C42.5138 43.6254 40.94 44.4329 39.5911 44.4329Z" fill="#002A52"/>
<path d="M45.3919 41.2511H47.5772C48.6215 41.2511 49.1084 40.8292 49.1084 39.9244C49.1084 39.0132 48.624 38.589 47.5852 38.589H45.3919V41.2511ZM47.6405 41.6048H45.3919V43.9451H45.9512V44.2995H43.5962V43.9451H44.2955V38.589H43.5962V38.2344H47.5852C48.269 38.2344 50.3486 38.2344 50.3486 39.9244C50.3486 40.6916 49.9199 41.2191 49.1048 41.4559C49.1048 41.4559 48.6447 41.6048 47.6405 41.6048Z" fill="#002A52"/>
<path d="M62.2601 37.6096L62.4228 39.4115L62.0943 39.4022L61.9986 39.0999C61.5395 37.7438 60.5905 37.1643 59.0936 37.1643C57.6131 37.1643 56.7299 37.5846 56.7299 38.2875C56.7299 39.0534 57.9555 39.3635 59.2527 39.691C60.8547 40.0948 62.6685 40.5531 62.6685 42.073C62.6685 43.6616 61.4483 44.4676 59.0406 44.4676C59.0406 44.4676 57.2682 44.4049 55.8951 43.8858L55.4961 41.7435H55.7987L55.919 42.0678C56.4107 43.2876 57.6361 44.0761 59.0406 44.0761C60.0784 44.0761 61.8188 43.8878 61.8188 42.6267C61.8188 41.7242 60.521 41.4095 59.1473 41.0761C57.5407 40.6863 55.8799 40.2824 55.8799 38.8418C55.8799 37.5264 57.0509 36.7734 59.0936 36.7734C59.7157 36.7734 60.0871 36.8477 60.6817 37.0144C60.6817 37.0144 61.705 37.3134 62.2601 37.6096Z" fill="#002A52"/>
<path d="M69.9381 44.3492L69.9083 44.3484C69.898 44.3475 68.8576 44.2993 68.283 44.2993H63.7524V43.9446H64.4278V38.5887H63.7524V38.234H68.1395C68.692 38.234 69.263 38.234 69.3917 38.1884L69.7237 38.1484L69.9216 39.8501L69.6552 39.864L69.6274 39.7771C69.2653 38.6523 68.7121 38.588 68.1395 38.588H65.5232V40.9639H66.9921C68.0393 40.9639 68.3881 40.8264 68.3881 40.0746V39.9425H68.7034V42.2734H68.3881V42.1423C68.3881 41.5783 68.0483 41.3179 66.9921 41.3179H65.5232V43.9438H68.2831C69.2902 43.9438 69.5252 43.6276 69.8679 42.8278L69.897 42.7441H70.2255L69.9381 44.3492Z" fill="#002A52"/>
<path d="M72.7641 41.9492H76.189L74.4799 38.8588L72.7641 41.9492ZM76.6698 44.2995V43.9448H77.2967L76.3836 42.3029H72.5611L71.6413 43.9448H72.2704V44.2995H70.7334V43.9448H71.2678L74.2549 38.5887H73.724V38.2344H75.351L75.3862 38.2967L78.5065 43.9448H79.0998V44.2973L76.6698 44.2995Z" fill="#002A52"/>
<path d="M90.5349 38.0977C88.5103 38.0977 86.4165 39.2887 86.4165 41.282C86.4165 42.8087 87.8604 44.4302 90.5349 44.4302C92.5313 44.4302 94.6532 43.3268 94.6532 41.282C94.6532 39.7383 93.2093 38.0977 90.5349 38.0977ZM90.5349 44.0772C88.6794 44.0772 87.6561 43.0842 87.6561 41.282C87.6561 39.4831 88.7056 38.452 90.5349 38.452C92.3687 38.452 93.4208 39.4831 93.4208 41.282C93.4208 43.0842 92.3955 44.0772 90.5349 44.0772Z" fill="#002A52"/>
<path d="M95.1641 38.2344V38.5894H95.6387L95.9067 38.8407V43.9455H95.1886V44.2998H96.8663V43.9455H96.2213V39.134L101.948 44.5321L102.015 44.5944V38.5894H102.558V38.235H101.038V38.5894H101.7V42.7997L96.8821 38.245L96.8702 38.2344H95.1641Z" fill="#002A52"/>
<path d="M51.058 44.0888C50.1352 44.0549 50.035 43.709 49.8051 43.249L48.9665 41.4297H47.7266L49.2756 44.4387H51.0615L51.058 44.0888Z" fill="#002A52"/>
<path d="M85.2041 38.8635L85.337 40.3358L85.0683 40.3281L84.9901 40.0807C84.6157 38.9727 83.8401 38.4995 82.6163 38.4995C81.4068 38.4995 80.6848 38.8425 80.6848 39.4169C80.6848 40.0432 81.6868 40.2961 82.7469 40.5639C84.0557 40.8944 85.5378 41.2681 85.5378 42.5105C85.5378 43.8094 84.541 44.4674 82.5736 44.4674C82.5736 44.4674 81.1252 44.416 80.0027 43.9919L79.6768 42.2411H79.9241L80.0221 42.5066C80.4243 43.5032 81.4256 44.1473 82.5736 44.1473C83.421 44.1473 84.8436 43.9931 84.8436 42.9627C84.8436 42.2256 83.7832 41.9681 82.6603 41.6958C81.3473 41.3773 79.9904 41.0478 79.9904 39.8701C79.9904 38.7957 80.947 38.1797 82.6163 38.1797C83.1249 38.1797 83.4278 38.2403 83.9141 38.3767C83.9141 38.3767 84.7502 38.6215 85.2041 38.8635Z" fill="#002A52"/>
<path d="M108.729 38.8635L108.862 40.3358L108.594 40.3281L108.515 40.0807C108.141 38.9727 107.365 38.4995 106.142 38.4995C104.932 38.4995 104.21 38.8425 104.21 39.4169C104.21 40.0432 105.212 40.2961 106.272 40.5639C107.581 40.8944 109.064 41.2681 109.064 42.5105C109.064 43.8094 108.066 44.4674 106.098 44.4674C106.098 44.4674 104.65 44.416 103.528 43.9919L103.202 42.2411H103.449L103.547 42.5066C103.95 43.5032 104.951 44.1473 106.098 44.1473C106.946 44.1473 108.369 43.9931 108.369 42.9627C108.369 42.2256 107.308 41.9681 106.186 41.6958C104.873 41.3773 103.516 41.0478 103.516 39.8701C103.516 38.7957 104.472 38.1797 106.142 38.1797C106.65 38.1797 106.954 38.2403 107.439 38.3767C107.439 38.3767 108.276 38.6215 108.729 38.8635Z" fill="#002A52"/>
<path d="M73.8606 20.6836C73.3433 20.8961 73.0155 21.274 73.1419 21.9178C73.7636 21.7095 73.9295 21.2386 73.8606 20.6836Z" fill="#002A52"/>
<path d="M71.7788 21.0625C71.8787 21.6123 72.1781 22.0131 72.8331 22.0238C72.7614 21.3719 72.3356 21.1106 71.7788 21.0625Z" fill="#002A52"/>
<path d="M72.8306 23.7065C72.8031 23.0585 72.3702 22.7971 71.7817 22.7461C71.8474 23.2949 72.1371 23.6932 72.8306 23.7065Z" fill="#002A52"/>
<path d="M70.9357 15.0742C70.3786 15.1233 69.9531 15.3846 69.8813 16.0355C70.5354 16.0263 70.8364 15.625 70.9357 15.0742Z" fill="#002A52"/>
<path d="M68.4141 14.5898C68.514 15.1409 68.8143 15.5411 69.4684 15.5515C69.3966 14.9015 68.9708 14.6389 68.4141 14.5898Z" fill="#002A52"/>
<path d="M68.2656 12.5863C68.9203 12.5755 69.2191 12.1761 69.3199 11.625C68.7629 11.6732 68.3374 11.9357 68.2656 12.5863Z" fill="#002A52"/>
<path d="M68.7777 10.168C68.2646 10.3889 67.942 10.7714 68.0781 11.4123C68.6953 11.1955 68.855 10.721 68.7777 10.168Z" fill="#002A52"/>
<path d="M66.9365 10.6367C66.9559 11.1933 67.1955 11.6306 67.8386 11.7334C67.8609 11.0831 67.4777 10.7634 66.9365 10.6367Z" fill="#002A52"/>
<path d="M66.6978 9.06781C67.3496 9.057 67.6499 8.65786 67.7505 8.10938C67.1937 8.15724 66.7702 8.41854 66.6978 9.06781Z" fill="#002A52"/>
<path d="M67.2453 6.78906C66.7613 7.06106 66.4813 7.47294 66.6837 8.0938C67.2715 7.81633 67.3805 7.32917 67.2453 6.78906Z" fill="#002A52"/>
<path d="M66.5114 8.56154C66.5331 7.91128 66.1506 7.59148 65.6094 7.46484C65.6288 8.02142 65.8683 8.45881 66.5114 8.56154Z" fill="#002A52"/>
<path d="M66.1558 9.50432C66.0849 8.85633 65.6608 8.59598 65.106 8.54688C65.2068 9.0957 65.5046 9.49367 66.1558 9.50432Z" fill="#002A52"/>
<path d="M64.4134 10.7824C64.6016 10.6632 66.6216 9.48192 66.6216 9.48192C66.6264 9.47884 66.634 9.4742 66.6337 9.45737L66.5405 8.74219H66.5092C66.5092 8.74219 66.5367 9.04293 66.5286 9.16342C66.5196 9.301 66.5011 9.34883 66.397 9.41699L64.1587 10.5702C64.1619 10.7436 64.1649 10.9187 64.1684 11.0964C64.1985 10.9946 64.2656 10.8761 64.4134 10.7824Z" fill="#002A52"/>
<path d="M63.9175 4.40605C63.8457 3.75741 63.4212 3.49702 62.8677 3.44922C62.9673 3.99643 63.2657 4.39507 63.9175 4.40605Z" fill="#002A52"/>
<path d="M63.9019 5.46785C63.8307 4.8205 63.4062 4.55952 62.8521 4.51172C62.9523 5.05925 63.2507 5.45751 63.9019 5.46785Z" fill="#002A52"/>
<path d="M63.8856 6.51929C63.8145 5.87129 63.3899 5.61128 62.8364 5.5625C62.936 6.10938 63.2344 6.50959 63.8856 6.51929Z" fill="#002A52"/>
<path d="M63.8696 7.57727C63.7979 6.93056 63.374 6.6702 62.8198 6.62109C62.9201 7.16927 63.2185 7.56757 63.8696 7.57727Z" fill="#002A52"/>
<path d="M63.8535 8.64104C63.7821 7.99305 63.3579 7.73268 62.8047 7.68359C62.9039 8.23208 63.2027 8.6294 63.8535 8.64104Z" fill="#002A52"/>
<path d="M63.8385 9.69573C63.7668 9.04773 63.3422 8.78738 62.7881 8.73828C62.888 9.28711 63.1867 9.68475 63.8385 9.69573Z" fill="#002A52"/>
<path d="M62.4308 7.28516C61.8999 7.45765 61.5456 7.80813 61.6222 8.45645C62.2546 8.29913 62.4577 7.84237 62.4308 7.28516Z" fill="#002A52"/>
<path d="M61.6416 9.23479C62.2931 9.22398 62.5912 8.82585 62.6911 8.27734C62.1372 8.32645 61.7131 8.5868 61.6416 9.23479Z" fill="#002A52"/>
<path d="M61.3864 8.57705C61.4785 7.93132 61.1319 7.57181 60.6062 7.38672C60.5658 7.94362 60.7566 8.40488 61.3864 8.57705Z" fill="#002A52"/>
<path d="M61.2505 9.30736C61.179 8.65809 60.7542 8.39611 60.1987 8.34766C60.2993 8.89744 60.5974 9.29574 61.2505 9.30736Z" fill="#002A52"/>
<path d="M62.8029 12.2812C62.2468 12.3297 61.8203 12.5914 61.7485 13.2432C62.4032 13.2324 62.7036 12.8317 62.8029 12.2812Z" fill="#002A52"/>
<path d="M60.9746 12.8441C61.6293 12.8349 61.9287 12.4339 62.0293 11.8828C61.4732 11.9319 61.047 12.1936 60.9746 12.8441Z" fill="#002A52"/>
<path d="M63.5779 12.6797C63.0209 12.7279 62.5947 12.9904 62.5229 13.641C63.177 13.6302 63.4777 13.2308 63.5779 12.6797Z" fill="#002A52"/>
<path d="M62.1934 11.5916C62.8458 11.5823 63.1452 11.1816 63.2454 10.6328C62.69 10.6816 62.2648 10.9413 62.1934 11.5916Z" fill="#002A52"/>
<path d="M61.4531 11.1616C62.1059 11.1508 62.4053 10.7516 62.5058 10.2031C61.9497 10.251 61.5249 10.5126 61.4531 11.1616Z" fill="#002A52"/>
<path d="M60.7002 10.7253C61.353 10.7145 61.6517 10.3161 61.7516 9.76562C61.1968 9.81411 60.7713 10.0757 60.7002 10.7253Z" fill="#002A52"/>
<path d="M61.2521 11.4688C60.6956 11.5158 60.2689 11.7786 60.1978 12.4294C60.8518 12.4186 61.1522 12.0189 61.2521 11.4688Z" fill="#002A52"/>
<path d="M60.0037 11.4062C60.0842 10.7563 59.7305 10.4033 59.2002 10.2266C59.1698 10.7841 59.369 11.2438 60.0037 11.4062Z" fill="#002A52"/>
<path d="M59.8016 12.391C59.7295 11.7401 59.303 11.4788 58.7466 11.4297C58.8462 11.9804 59.1469 12.3813 59.8016 12.391Z" fill="#002A52"/>
<path d="M60.3567 15.707C59.8 15.7552 59.3745 16.0165 59.3027 16.6674C59.9568 16.6565 60.2568 16.2568 60.3567 15.707Z" fill="#002A52"/>
<path d="M58.5513 16.2387C59.2057 16.2278 59.5057 15.8281 59.6056 15.2773C59.0488 15.3264 58.623 15.5878 58.5513 16.2387Z" fill="#002A52"/>
<path d="M61.1285 16.1055C60.5715 16.1546 60.146 16.4159 60.0742 17.0668C60.7283 17.056 61.0286 16.6562 61.1285 16.1055Z" fill="#002A52"/>
<path d="M61.903 16.5078C61.3472 16.5569 60.9204 16.8183 60.8486 17.4692C61.5027 17.4584 61.8027 17.0586 61.903 16.5078Z" fill="#002A52"/>
<path d="M62.6757 16.9062C62.119 16.9554 61.6932 17.2167 61.6211 17.8676C62.2758 17.8568 62.5758 17.456 62.6757 16.9062Z" fill="#002A52"/>
<path d="M63.4528 17.3008C62.8963 17.3499 62.4699 17.6125 62.3984 18.2624C63.0525 18.2516 63.3525 17.8525 63.4528 17.3008Z" fill="#002A52"/>
<path d="M62.3442 15.7269C62.999 15.7146 63.2996 15.3164 63.3992 14.7656C62.8428 14.8147 62.4167 15.076 62.3442 15.7269Z" fill="#002A52"/>
<path d="M61.5938 15.2894C62.2485 15.2786 62.5478 14.8792 62.6484 14.3281C62.0917 14.3772 61.6659 14.6388 61.5938 15.2894Z" fill="#002A52"/>
<path d="M60.8521 14.8507C61.5061 14.8399 61.8065 14.4404 61.9064 13.8906C61.3499 13.9385 60.9232 14.2001 60.8521 14.8507Z" fill="#002A52"/>
<path d="M60.1108 14.4144C60.7649 14.4036 61.0646 14.0039 61.1652 13.4531C60.6084 13.5022 60.182 13.7635 60.1108 14.4144Z" fill="#002A52"/>
<path d="M59.3652 13.9731C60.0193 13.9607 60.3193 13.5625 60.4196 13.0117C59.8631 13.0596 59.4377 13.3209 59.3652 13.9731Z" fill="#002A52"/>
<path d="M59.5833 14.2969C59.0262 14.3454 58.6007 14.6073 58.5283 15.2582C59.1824 15.2474 59.4824 14.8476 59.5833 14.2969Z" fill="#002A52"/>
<path d="M58.401 14.722C58.5604 14.0872 58.252 13.6935 57.7473 13.4531C57.65 14.0039 57.7913 14.4845 58.401 14.722Z" fill="#002A52"/>
<path d="M58.2252 15.5629C58.1535 14.9127 57.7273 14.6507 57.1709 14.6016C57.2711 15.1523 57.5712 15.5526 58.2252 15.5629Z" fill="#002A52"/>
<path d="M58.0807 16.5241C58.0096 15.8719 57.5828 15.6106 57.0264 15.5625C57.1263 16.1123 57.426 16.5125 58.0807 16.5241Z" fill="#002A52"/>
<path d="M59.9009 19.1999C60.5549 19.1876 60.8553 18.7894 60.9552 18.2383C60.3991 18.2865 59.9727 18.549 59.9009 19.1999Z" fill="#002A52"/>
<path d="M59.9009 20.7035C60.5549 20.6927 60.8553 20.2933 60.9552 19.7422C60.3991 19.7904 59.9733 20.0529 59.9009 20.7035Z" fill="#002A52"/>
<path d="M59.1621 18.767C59.8168 18.7562 60.1175 18.3554 60.2171 17.8047C59.6607 17.8535 59.2345 18.1161 59.1621 18.767Z" fill="#002A52"/>
<path d="M58.4263 18.3324C59.081 18.3216 59.3804 17.9209 59.4812 17.3711C58.9235 17.419 58.498 17.6805 58.4263 18.3324Z" fill="#002A52"/>
<path d="M57.6855 17.8989C58.3403 17.888 58.64 17.4873 58.7399 16.9375C58.1835 16.9857 57.7573 17.247 57.6855 17.8989Z" fill="#002A52"/>
<path d="M72.9737 21.9986C72.9737 21.9986 73.0723 23.0769 73.0445 23.5098C73.0116 24.0011 72.9466 24.1736 72.5725 24.4168L64.4793 28.5864C64.4657 27.7924 64.4496 26.8834 64.4321 25.8946L64.4329 25.6339C64.4232 25.0909 64.5717 24.7993 65.2131 24.3929C65.7692 24.0398 71.7437 20.5456 71.7437 20.5456C71.7573 20.5379 71.7796 20.5217 71.7783 20.4737L71.5025 18.3569H71.4107C71.4107 18.3569 71.4922 19.2482 71.4683 19.6048C71.4421 20.0108 71.3878 20.1536 71.0793 20.3539L64.3948 23.7973C64.3767 22.7727 64.3576 21.6948 64.3379 20.5929L64.332 20.2938C64.343 19.9514 64.4649 19.7469 64.8978 19.4729C65.3133 19.2094 69.7763 16.5987 69.7763 16.5987C69.7867 16.5925 69.8035 16.5803 69.8019 16.5451L69.5959 14.9642H69.5277C69.5277 14.9642 69.5885 15.6293 69.571 15.8958C69.551 16.1991 69.5105 16.3057 69.28 16.4553L64.3097 19.0162C64.2874 17.7774 64.2654 16.5257 64.2431 15.2976C64.2774 15.1231 64.3776 14.8964 64.6508 14.7232C64.9479 14.5349 68.1426 12.6659 68.1426 12.6659C68.1497 12.6612 68.162 12.6519 68.1607 12.6277L68.0136 11.4955H67.9645C67.9645 11.4955 68.0078 11.9723 67.9955 12.1629C67.981 12.38 67.9525 12.4559 67.7873 12.5631L64.227 14.3985C64.206 13.2579 64.1866 12.1467 64.1678 11.0975C64.1641 10.9205 64.1616 10.7448 64.1581 10.5713C64.0844 6.48216 64.0297 3.44503 64.0297 3.44503C64.0297 3.42557 64.0155 3.41016 63.9955 3.41016C63.9767 3.41016 63.9625 3.42557 63.9625 3.44503C63.9625 3.44503 63.9095 6.4786 63.8383 10.5646L61.6126 9.41811C61.5089 9.34955 61.4904 9.30153 61.4814 9.16454C61.4733 9.04379 61.5001 8.74269 61.5001 8.74269H61.4694L61.3763 9.45816C61.376 9.47468 61.3837 9.48042 61.3883 9.48304C61.3883 9.48304 63.4084 10.6644 63.5966 10.7835C63.7272 10.8663 63.7944 10.9686 63.829 11.061L63.8298 11.0623C63.8117 12.1199 63.7923 13.2408 63.7716 14.3921L60.2223 12.5638C60.0565 12.4561 60.0286 12.3803 60.0144 12.1629C60.0018 11.9723 60.0451 11.4961 60.0451 11.4961H59.996L59.8482 12.6277C59.8472 12.6532 59.8598 12.662 59.8673 12.6665C59.8673 12.6665 63.0616 14.5348 63.3587 14.7232C63.6093 14.8814 63.7141 15.0847 63.7568 15.252C63.7351 16.4943 63.7131 17.7625 63.6914 19.0162L58.7204 16.4559C58.4899 16.3056 58.4495 16.1994 58.4295 15.8964C58.4123 15.63 58.4728 14.9642 58.4728 14.9642H58.4039L58.1986 16.5454C58.1968 16.5809 58.2137 16.5929 58.2242 16.5993C58.2242 16.5993 62.6865 19.2093 63.1026 19.4729C63.5481 19.7549 63.6645 19.9639 63.6684 20.3263L63.6632 20.6455C63.6444 21.7286 63.626 22.7862 63.6085 23.7944L56.9308 20.3538C56.6224 20.1535 56.5674 20.0107 56.5412 19.6047C56.518 19.2481 56.5988 18.3575 56.5988 18.3575H56.5066L56.2312 20.4736C56.2299 20.5212 56.2516 20.5376 56.2658 20.5456C56.2658 20.5456 62.2403 24.0404 62.797 24.3931C63.4385 24.7992 63.5856 25.0909 63.5772 25.6339V25.6385C63.5585 26.7265 63.5413 27.7221 63.5264 28.5842L55.4368 24.4168C55.0634 24.1736 54.9978 24.0011 54.9658 23.5098C54.9373 23.0776 55.0359 21.9987 55.0359 21.9987H54.9241L54.591 24.5619C54.5881 24.6193 54.6156 24.6394 54.6321 24.6491C54.6321 24.6491 61.8682 28.8817 62.5416 29.3088C63.3279 29.8069 63.4864 29.8418 63.4864 30.7537C63.4864 30.7957 63.4712 31.8513 63.4712 31.8901C63.4712 32.6847 62.8421 32.7061 62.8421 32.7061L62.8441 32.8624H65.1625L65.1642 32.7061C65.1642 32.7061 64.5354 32.6847 64.5354 31.8901C64.5354 31.8513 64.5227 30.8335 64.5227 30.7537C64.5227 29.8418 64.6812 29.8066 65.4678 29.3088C66.1416 28.8811 73.3783 24.6491 73.3783 24.6491C73.3948 24.6399 73.4216 24.6195 73.4193 24.5619L73.085 21.9987L72.9737 21.9986Z" fill="#002A52"/>
<path d="M61.4253 20.1097C62.0797 20.0989 62.3797 19.6992 62.4803 19.1484C61.9229 19.1963 61.4964 19.4588 61.4253 20.1097Z" fill="#002A52"/>
<path d="M63.2164 19.6289C62.6594 19.6768 62.2336 19.9393 62.1621 20.5902C62.8162 20.5794 63.1162 20.1797 63.2164 19.6289Z" fill="#002A52"/>
<path d="M67.1544 17.4524C67.6672 17.0447 67.6614 16.544 67.404 16.0469C66.9925 16.4258 66.815 16.8929 67.1544 17.4524Z" fill="#002A52"/>
<path d="M66.0943 16.7422C65.6831 17.1214 65.5052 17.5882 65.845 18.1477C66.3578 17.74 66.352 17.2393 66.0943 16.7422Z" fill="#002A52"/>
<path d="M64.7041 14.8086C64.8043 15.3597 65.1037 15.7586 65.7591 15.7702C65.6866 15.1193 65.2605 14.8577 64.7041 14.8086Z" fill="#002A52"/>
<path d="M68.4632 19.1179C68.3907 18.467 67.9653 18.2054 67.4092 18.1562C67.5091 18.7073 67.8085 19.1063 68.4632 19.1179Z" fill="#002A52"/>
<path d="M67.142 19.8324C67.0696 19.1815 66.6442 18.9202 66.0884 18.8711C66.1886 19.4219 66.488 19.8211 67.142 19.8324Z" fill="#002A52"/>
<path d="M70.8458 25.1202C70.7737 24.468 70.3463 24.2053 69.7896 24.1562C69.8895 24.7083 70.1895 25.1098 70.8458 25.1202Z" fill="#002A52"/>
<path d="M69.3302 25.819C69.2584 25.1672 68.8307 24.9046 68.2739 24.8555C68.3732 25.4075 68.6739 25.8087 69.3302 25.819Z" fill="#002A52"/>
<path d="M67.5713 23.2227C67.6718 23.7741 67.9716 24.1736 68.6256 24.184C68.5538 23.5344 68.128 23.2718 67.5713 23.2227Z" fill="#002A52"/>
<path d="M66.5745 27.2214C66.5027 26.5695 66.075 26.3069 65.5186 26.2578C65.6181 26.8099 65.9182 27.2114 66.5745 27.2214Z" fill="#002A52"/>
<path d="M72.4079 25.5859C72.3029 26.2265 72.6737 26.5706 73.2382 26.7395C73.2854 26.1894 73.0846 25.74 72.4079 25.5859Z" fill="#002A52"/>
<path d="M70.9556 26.6406C70.9834 27.2938 71.4195 27.5571 72.0102 27.6078C71.9459 27.0557 71.6546 26.6539 70.9556 26.6406Z" fill="#002A52"/>
<path d="M68.736 28.783C69.3455 28.5301 69.4774 28.0439 69.3684 27.4922C68.8654 27.7435 68.5631 28.146 68.736 28.783Z" fill="#002A52"/>
<path d="M71.332 18.8793C71.2599 18.229 70.8341 17.9671 70.2773 17.918C70.3779 18.4687 70.6779 18.8689 71.332 18.8793Z" fill="#002A52"/>
<path d="M71.2887 19.8402C71.2176 19.1883 70.7911 18.927 70.2344 18.8789C70.3343 19.4287 70.634 19.8289 71.2887 19.8402Z" fill="#002A52"/>
<path d="M71.8633 20.4851C72.5173 20.4743 72.8167 20.0745 72.9179 19.5234C72.3605 19.5716 71.9347 19.8329 71.8633 20.4851Z" fill="#002A52"/>
<path d="M72.7581 17.918C72.2004 17.9661 71.7746 18.2274 71.7031 18.8796C72.3569 18.8673 72.6572 18.4691 72.7581 17.918Z" fill="#002A52"/>
</g>
<defs>
<clipPath id="clip0_4361_26321">
<rect width="90.4719" height="42" fill="white" transform="translate(19 3)"/>
</clipPath>
</defs>
</svg>
