<svg width="128" height="48" viewBox="0 0 128 48" fill="none" xmlns="http://www.w3.org/2000/svg">
<path d="M72.4914 29.7061C73.8065 30.1794 76.8517 28.0341 77.4453 27.5997L77.5345 27.5376L77.872 26.1721L77.3134 26.3971C76.7974 26.6065 76.103 26.7229 75.9595 26.5639C75.8974 26.5018 75.878 26.2264 76.2039 25.6173L81.6272 16.1673L81.7979 15.9151C81.9569 15.7018 82.116 15.4845 81.9686 15.2518C81.8212 15.019 81.5147 15.0461 81.2121 15.0927L78.7604 15.4224L78.6828 15.5466C78.6401 15.6125 74.3185 22.51 71.6961 24.5544C70.7767 25.2682 70.4198 25.3923 70.2957 25.4156C70.2957 25.1596 70.5866 24.4419 71.1491 23.6389L74.3069 18.5841L74.7065 17.9207C74.8345 17.7112 75.397 16.5668 75.397 15.6901C75.397 15.372 75.3233 15.0927 75.1293 14.9065C74.5591 14.3595 73.4767 14.9841 73.1237 15.1936L69.9194 17.1022L69.9582 18.4871L70.3461 18.4289C70.3461 18.4289 70.8155 18.363 70.8659 18.3591C70.8582 18.5763 70.509 19.1544 70.3655 19.3794L70.1987 19.6625L70.1211 19.7983C68.1776 23.1733 65.9702 27.3553 65.9702 28.9574C65.9702 29.0932 65.9896 29.2135 66.0206 29.3104C66.04 29.3609 66.1409 29.5975 66.3853 29.7023C67.8672 30.288 70.8931 27.6346 72.5496 26.0208C72.2276 26.8665 71.9017 27.879 71.9017 28.6354C71.9017 28.8682 71.9327 29.0699 72.0026 29.2406C72.0414 29.3376 72.1965 29.6014 72.4875 29.7061" fill="#002A52"/>
<path d="M107.755 29.6938C109.074 30.167 112.115 28.0218 112.708 27.5873L112.798 27.5252L113.139 26.1636L112.577 26.3886C112.061 26.5942 111.37 26.7106 111.223 26.5554C111.161 26.4894 111.141 26.2179 111.471 25.6088L116.89 16.1588L117.069 15.9066C117.224 15.6972 117.387 15.476 117.24 15.2433C117.092 15.0144 116.782 15.0415 116.479 15.0881L114.027 15.4178L113.946 15.542C113.903 15.6118 109.586 22.5054 106.963 24.5498C106.044 25.2636 105.683 25.3877 105.563 25.411C105.563 25.155 105.858 24.4373 106.416 23.6304L109.574 18.5756L109.974 17.9161C110.102 17.7066 110.668 16.5622 110.668 15.6894C110.668 15.3713 110.59 15.092 110.396 14.9019C109.83 14.3549 108.748 14.9834 108.395 15.189C108.387 15.189 105.19 17.0937 105.19 17.0937L105.225 18.4786L105.617 18.4243C105.617 18.4243 106.083 18.3584 106.133 18.3506C106.133 18.5679 105.772 19.1459 105.633 19.3786L105.466 19.6541L105.388 19.7898C103.445 23.161 101.237 27.3468 101.237 28.9489C101.237 29.0847 101.253 29.205 101.288 29.302C101.307 29.3524 101.408 29.589 101.652 29.6938C103.138 30.2834 106.164 27.63 107.817 26.0162C107.491 26.8619 107.173 27.8744 107.173 28.6308C107.173 28.8597 107.204 29.0653 107.274 29.2321C107.312 29.3291 107.468 29.5968 107.755 29.6977" fill="#002A52"/>
<path d="M97.7847 14.9465C97.7847 14.9465 102.746 12.3357 100.353 10.2409C98.7428 8.82882 95.0497 13.5538 94.3359 15.6254C92.8657 19.9353 89.2812 23.6013 89.2812 23.6013C89.2812 23.6013 93.0829 28.722 95.6549 28.4388C98.2269 28.1556 98.8437 25.5061 98.8437 25.5061H101.416C101.416 25.5061 98.417 30.4406 93.3777 31.0923C90.0338 31.5229 86.2475 26.8328 86.2475 26.8328C86.2475 26.8328 83.8152 28.5707 82.4458 29.1526C81.476 29.56 80.1337 29.6647 79.2958 29.2923C78.966 29.1449 78.7139 28.8888 78.6557 28.5901C78.6091 28.3341 78.613 28.0393 78.679 27.7716C79.5285 24.4858 85.4794 24.1948 85.4794 24.1948C85.4794 24.1948 88.1988 16.9793 91.698 13.0224C95.5036 8.72408 100.659 6.70295 102.634 8.91029C104.605 11.1176 103.111 13.7207 101.42 14.9426C99.0028 16.7 97.7885 14.9426 97.7885 14.9426" fill="#002A52"/>
<path d="M62.5524 14.9385C62.5524 14.9385 67.5218 12.3277 65.1205 10.2329C63.5106 8.8208 59.8136 13.5458 59.1037 15.6174C57.6334 19.9273 54.0489 23.5933 54.0489 23.5933C54.0489 23.5933 57.8546 28.714 60.4266 28.4308C62.9985 28.1515 63.6154 25.498 63.6154 25.498H66.1874C66.1874 25.498 63.1886 30.4325 58.1494 31.0843C54.8093 31.5149 51.0153 26.8209 51.0153 26.8209C51.0153 26.8209 48.583 28.5627 47.2097 29.1446C46.2476 29.5519 44.9015 29.6528 44.0674 29.2843C43.7377 29.1369 43.4816 28.8808 43.4273 28.586C43.3808 28.33 43.3847 28.0351 43.4545 27.7674C44.3002 24.4817 50.2511 24.1907 50.2511 24.1907C50.2511 24.1907 52.9705 16.9752 56.4696 13.0182C60.2714 8.71994 65.4348 6.70269 67.4055 8.90227C69.3762 11.1096 67.8749 13.7126 66.1912 14.9346C63.7744 16.692 62.5563 14.9346 62.5563 14.9346" fill="#002A52"/>
<path d="M11.4033 10.3829C11.4033 10.3829 13.3585 10.2665 16.6521 9.16094C20.8572 7.74886 30.6875 6.1467 33.7483 14.4291C35.719 19.7709 31.7155 25.1981 31.603 27.0796C31.4672 29.2403 31.7426 30.2296 31.7426 30.2296L28.6819 31.0792C28.6819 31.0792 27.9642 28.9572 28.4025 26.649C28.9728 23.6425 31.7349 19.6002 31.4517 16.873C31.1685 14.142 30.1172 9.72344 24.3952 8.31136C21.5167 7.60145 18.3706 10.7553 16.0818 11.5079C13.7969 12.2644 12.1675 12.8269 12.1675 12.8269L11.4072 10.3829H11.4033Z" fill="#002A52"/>
<path d="M16.6406 9.13606C13.3936 10.2261 11.419 10.3542 11.3996 10.358H11.3608L12.1483 12.868L16.0859 11.5412C16.8617 11.2852 17.7307 10.7615 18.6501 10.2029C20.4462 9.11666 22.4829 7.87915 24.3799 8.34855C28.6355 9.39597 30.9359 12.1891 31.417 16.8792C31.5799 18.4736 30.6877 20.5452 29.8264 22.5508C29.2252 23.9551 28.6006 25.4021 28.3639 26.6474C27.9333 28.9323 28.6394 31.0698 28.6471 31.0892L28.6549 31.1125L31.77 30.2512V30.228C31.77 30.228 31.4247 28.9905 31.6187 27.1012C31.6885 26.3719 32.0415 25.5029 32.5071 24.4012C33.5584 21.9146 35.1528 18.1555 33.7679 14.4197C30.2415 4.87267 18.0216 8.66666 16.6367 9.13606M16.6561 9.19424C18.0333 8.7326 30.2066 4.95026 33.7174 14.443C34.0937 15.471 34.2489 16.5029 34.2489 17.5115C34.2489 20.134 33.2053 22.5896 32.4489 24.3779C31.9795 25.4874 31.5954 26.6318 31.4713 27.3224C31.2928 28.2844 31.6963 30.0767 31.704 30.2086C31.6575 30.2202 28.7558 31.0271 28.6976 31.0465C28.651 30.903 28.2864 29.7198 28.2864 28.2068C28.2864 27.718 28.329 27.1905 28.426 26.6629C28.6588 25.4254 29.2833 23.9784 29.8846 22.5779C30.6799 20.7275 31.4984 18.8227 31.4984 17.2749C31.4984 17.1352 31.4946 16.9995 31.479 16.8714C30.9941 12.1464 28.6743 9.34166 24.3954 8.2826C22.4751 7.80932 20.4268 9.05071 18.6191 10.1447C17.6997 10.7033 16.8385 11.227 16.0665 11.4792C16.0665 11.4792 12.4936 12.6856 12.1833 12.7865C12.1677 12.7283 11.4656 10.4783 11.4384 10.4124C11.6402 10.3968 13.5604 10.2339 16.66 9.19037" fill="#002A52"/>
<path d="M12.5518 14.0475C12.5518 14.0475 16.9354 12.0729 20.2794 10.1915C24.1393 8.01904 34.9743 5.58282 38.0351 13.8652C40.0097 19.2031 37.1351 24.2346 36.6114 26.3722C36.1614 28.1993 36.6579 29.076 36.6579 29.076L33.5971 29.9256C33.5971 29.9256 33.1161 29.0528 33.5544 26.7484C34.1247 23.742 36.0333 21.6704 36.0333 16.7786C36.0333 14.0359 33.9967 9.33026 28.2049 8.22077C24.7678 7.56128 22.0212 9.97034 20.1824 11.5104C17.6065 13.679 13.025 16.3092 13.025 16.3092L12.5518 14.0475Z" fill="#002A52"/>
<path d="M27.6149 8.10499C26.5132 8.00025 25.4929 8.21749 24.5464 8.58602C22.8007 9.00111 21.2761 9.59853 20.2636 10.1688C16.9623 12.027 12.5825 14.0016 12.5399 14.021L12.5127 14.0326L13.0015 16.3563L13.0403 16.3369C13.0868 16.3098 17.6528 13.6796 20.2015 11.5343L20.3451 11.4102C21.4352 10.4908 22.8705 9.30758 24.5658 8.64421C25.5278 8.41533 26.552 8.24077 27.6072 8.16318C27.8011 8.18258 27.999 8.20973 28.1968 8.24852C33.9227 9.3425 35.9943 13.9473 35.9943 16.7792C35.9943 19.902 35.2068 21.9076 34.5085 23.6766C34.105 24.693 33.721 25.659 33.5193 26.7452C33.3835 27.4706 33.3331 28.0525 33.3331 28.5103C33.3331 29.4995 33.5542 29.9185 33.5697 29.9417L33.5813 29.9611L36.7042 29.096L36.6887 29.065C36.6887 29.065 36.2038 28.1728 36.646 26.3805C36.7546 25.946 36.9602 25.3796 37.2007 24.724C38.1706 22.09 39.6408 18.1098 38.0658 13.858C37.1387 11.3442 35.4279 9.62181 32.98 8.73732C31.2809 8.12439 29.4188 7.97697 27.6188 8.10499M27.1921 8.14378C26.4395 8.21361 25.6947 8.32611 24.9886 8.4774C25.683 8.2524 26.4162 8.12438 27.1921 8.14378ZM20.2985 10.2153C21.2179 9.69939 22.5718 9.15241 24.1313 8.74508C22.6028 9.43172 21.311 10.5179 20.3101 11.3636L20.1627 11.4878C17.7149 13.5438 13.4127 16.0499 13.048 16.2593C13.0286 16.1818 12.5942 14.1102 12.5864 14.0636C12.8269 13.955 17.0709 12.0347 20.2985 10.2153ZM32.9568 8.78775C35.3852 9.66836 37.0844 11.3791 38.0077 13.8736C38.5042 15.2158 38.6982 16.5309 38.6982 17.7839C38.6982 20.4878 37.8059 22.9085 37.1464 24.6969C36.8982 25.3564 36.6926 25.9227 36.5878 26.365C36.4443 26.9391 36.3938 27.424 36.3938 27.812C36.3938 28.5723 36.5723 28.9641 36.6188 29.0572C36.5529 29.0766 33.6667 29.8758 33.6162 29.8874C33.5697 29.7904 33.399 29.3637 33.399 28.4909C33.399 28.0331 33.4494 27.4628 33.5813 26.749C33.7869 25.6667 34.171 24.7046 34.5667 23.6883C35.2688 21.9154 36.0602 19.9059 36.0602 16.7714C36.0602 13.9201 33.9693 9.28431 28.2085 8.1787C28.1192 8.16318 28.0339 8.15542 27.9447 8.14378C29.6361 8.05844 31.3662 8.21361 32.9568 8.78387" fill="#002A52"/>
<path d="M21.6334 20.8945H16.5747C16.5902 21.0381 16.6057 21.1777 16.6251 21.3174H22.0019C21.8661 21.1894 21.7342 21.0497 21.6295 20.8945" fill="#002A52"/>
<path d="M25.2373 21.3174H29.1748C29.1942 21.1777 29.2136 21.0342 29.2253 20.8945H25.6097C25.505 21.0536 25.377 21.1932 25.2373 21.3174Z" fill="#002A52"/>
<path d="M17.5446 23.7431H28.2593C28.3524 23.6073 28.4378 23.4638 28.5193 23.3125H17.2925C17.3701 23.4638 17.4593 23.6034 17.5446 23.7431Z" fill="#002A52"/>
<path d="M18.1689 24.5556H27.6345C27.7547 24.4199 27.875 24.2763 27.9875 24.1289H17.812C17.9206 24.2763 18.0448 24.4199 18.1689 24.5556Z" fill="#002A52"/>
<path d="M23.6194 21.9514C23.247 21.9514 22.894 21.8583 22.5759 21.7031H16.6909C16.722 21.8467 16.7607 21.9902 16.8034 22.1299H29C29.0388 21.9902 29.0815 21.8467 29.1087 21.7031H24.6668C24.3526 21.8583 23.9996 21.9514 23.6233 21.9514" fill="#002A52"/>
<path d="M17.0984 22.9345H28.6976C28.7636 22.7949 28.8179 22.6513 28.8683 22.5078H16.9277C16.9782 22.6513 17.0364 22.7949 17.0945 22.9345" fill="#002A52"/>
<path d="M19.0497 25.3642H26.7501C26.9286 25.2323 27.0993 25.0849 27.2583 24.9336H18.5376C18.6967 25.0849 18.8712 25.2284 19.0497 25.3642Z" fill="#002A52"/>
<path d="M22.8977 26.6517C23.2702 26.6517 23.6348 26.6168 23.9878 26.5586H21.8115C22.1645 26.6168 22.5253 26.6517 22.8939 26.6517" fill="#002A52"/>
<path d="M20.4619 26.1728H25.3382C25.6331 26.0525 25.9124 25.9051 26.1801 25.7422H19.6201C19.8917 25.9051 20.171 26.0487 20.4619 26.1728Z" fill="#002A52"/>
<path d="M18.7666 15.6572H27.0373C26.855 15.5059 26.6727 15.3624 26.4748 15.2344H19.3252C19.1313 15.3663 18.9451 15.5059 18.7666 15.6572Z" fill="#002A52"/>
<path d="M17.9634 16.4658H27.8363C27.7121 16.3184 27.5841 16.1748 27.4522 16.0391H18.3513C18.2155 16.1787 18.0875 16.3184 17.9634 16.4658Z" fill="#002A52"/>
<path d="M25.8154 20.5087H29.2447C29.2447 20.4699 29.2447 20.435 29.2447 20.3962C29.2447 20.2876 29.237 20.1829 29.2253 20.0781H25.9473C25.9163 20.2255 25.8697 20.3691 25.8115 20.5049" fill="#002A52"/>
<path d="M21.2918 20.082H16.5668C16.5629 20.1868 16.5513 20.2915 16.5513 20.4001C16.5513 20.4351 16.5551 20.4738 16.5551 20.5126H21.4276C21.3655 20.3769 21.3228 20.2333 21.2918 20.0859" fill="#002A52"/>
<path d="M17.5097 17.2744H23.4141C23.48 17.2666 23.5499 17.255 23.6197 17.255C23.6895 17.255 23.7593 17.2705 23.833 17.2744H28.3951C28.3098 17.1308 28.2244 16.9873 28.1275 16.8477H17.7891C17.7503 16.9563 17.5408 17.1968 17.5059 17.2744" fill="#002A52"/>
<path d="M19.9771 14.8447H25.8232C25.4896 14.674 25.1404 14.5266 24.7758 14.418H21.0284C20.6637 14.5305 20.3146 14.674 19.9809 14.8447" fill="#002A52"/>
<path d="M21.2378 19.6032C21.2378 19.4907 21.2572 19.3821 21.2727 19.2734H16.6563C16.6291 19.417 16.6097 19.5566 16.5903 19.7002H21.2494C21.2494 19.6652 21.2378 19.6342 21.2378 19.6032Z" fill="#002A52"/>
<path d="M26.0052 19.6032C26.0052 19.6381 25.9935 19.6652 25.9935 19.7002H29.2095C29.194 19.5566 29.1707 19.417 29.1435 19.2734H25.9741C25.9896 19.3821 26.0052 19.4907 26.0052 19.6032Z" fill="#002A52"/>
<path d="M21.5516 18.4648H16.8654C16.8149 18.6045 16.78 18.748 16.7451 18.8916H21.3654C21.4158 18.7442 21.474 18.6045 21.5516 18.4648Z" fill="#002A52"/>
<path d="M25.881 18.8916H29.0543C29.0194 18.748 28.9806 18.6045 28.9341 18.4648H25.6948C25.7724 18.6006 25.8345 18.7403 25.881 18.8916Z" fill="#002A52"/>
<path d="M25.4274 18.083H28.7985C28.7404 17.9394 28.6705 17.7959 28.6007 17.6562H24.958C25.1365 17.7726 25.2916 17.9239 25.4274 18.083Z" fill="#002A52"/>
<path d="M22.2888 17.6602H17.3466C17.2767 17.7998 17.1759 17.9395 17.1177 18.0869H21.8155C21.9552 17.9278 22.1104 17.7765 22.2888 17.6602Z" fill="#002A52"/>
<path d="M23.1502 15.9373C23.1502 15.9373 26.273 14.2692 24.7678 12.9231C23.7515 12.0231 21.4277 15.049 20.9816 16.3757C20.0545 19.1339 17.8006 21.4809 17.8006 21.4809C17.8006 21.4809 20.198 24.7667 21.8118 24.5844C23.4295 24.402 23.8174 22.7029 23.8174 22.7029H25.4351C25.4351 22.7029 23.5497 25.8645 20.3803 26.2796C18.2738 26.555 15.8958 23.5486 15.8958 23.5486C15.8958 23.5486 14.3596 24.5882 13.4984 24.9606C12.6372 25.3331 11.1941 25.302 11.1165 24.6736C10.8294 22.2296 15.407 21.8611 15.407 21.8611C15.407 21.8611 17.1178 17.2369 19.3213 14.7037C21.7109 11.9494 24.9579 10.6576 26.1954 12.0696C27.4368 13.4817 26.4903 15.1498 25.4312 15.9334C23.9105 17.0623 23.1463 15.9334 23.1463 15.9334" fill="#002A52"/>
<path d="M24.7483 11.3985C23.1423 11.3985 20.9311 12.7058 19.2436 14.6416C17.1914 17.0041 15.5466 21.2209 15.3332 21.7679C14.9026 21.8106 12.4315 22.1015 11.4267 23.3158C11.1397 23.6533 11 24.0412 11 24.4563C11 24.5378 11 24.6115 11.0116 24.689C11.031 24.8636 11.1435 25.011 11.3259 25.1196C11.8108 25.3912 12.8272 25.364 13.5371 25.0576C14.3013 24.7278 15.5505 23.8977 15.8724 23.6882C16.2526 24.1498 18.4095 26.6442 20.388 26.3804C23.5729 25.9615 25.5009 22.7843 25.5203 22.7533L25.6057 22.602H23.732L23.7164 22.6796C23.7164 22.6796 23.3208 24.3127 21.7962 24.4834C20.3763 24.6386 18.266 21.9308 17.9324 21.4886C18.2776 21.1123 20.2367 18.9205 21.0746 16.4067C21.416 15.3981 23.0026 13.1752 24.1121 12.8881C24.3527 12.8222 24.5427 12.861 24.6979 12.9967C24.985 13.2528 25.1052 13.5243 25.0665 13.8308C24.9423 14.8511 23.119 15.8403 23.0996 15.8481L23.0026 15.8985L23.0647 15.9916C23.0647 15.9916 23.3634 16.4222 23.9298 16.5192C24.4147 16.6006 24.9384 16.43 25.4971 16.0187C26.0945 15.5765 26.7772 14.758 26.8781 13.7959C26.9479 13.1442 26.7462 12.5429 26.2807 12.0075C25.9238 11.6041 25.4001 11.3907 24.7483 11.3946M11.419 24.9528C11.291 24.8753 11.2289 24.7821 11.2017 24.6774C11.097 24.2623 11.2871 23.8007 11.5858 23.4438C12.6138 22.2063 15.3875 21.9658 15.4224 21.9658L15.4845 21.958L15.5039 21.8959C15.5233 21.8533 17.2341 17.2601 19.3987 14.7735C21.0513 12.8765 23.2005 11.6002 24.7522 11.5963C25.3458 11.5963 25.8074 11.7786 26.1255 12.1394C26.5561 12.6282 26.7423 13.1791 26.6764 13.7765C26.5794 14.6726 25.9393 15.4407 25.3768 15.8558C24.8686 16.236 24.4031 16.3912 23.9764 16.3213C23.635 16.2631 23.4177 16.0731 23.313 15.9683C23.7281 15.7278 25.1596 14.8355 25.2798 13.858C25.2876 13.8153 25.2876 13.7726 25.2876 13.7299C25.2876 13.408 25.1402 13.1131 24.8453 12.8493C24.6397 12.6631 24.3759 12.6127 24.0695 12.6942C22.8552 13.0084 21.2376 15.3127 20.8923 16.3446C19.9845 19.0485 17.7578 21.3916 17.7345 21.4149L17.6763 21.477L17.7229 21.5468C17.8237 21.6826 20.1707 24.8753 21.8311 24.6852C23.2975 24.5222 23.7979 23.1451 23.9027 22.8076H25.2565C24.8376 23.436 23.0608 25.8334 20.3725 26.1865C18.3513 26.4541 16.0043 23.5252 15.9811 23.4981L15.9229 23.4205L15.8414 23.4709C15.8414 23.4709 14.3091 24.5106 13.4673 24.8753C12.8194 25.1584 11.9078 25.2515 11.4267 24.9567" fill="white"/>
<path d="M21.924 19.1387C22.1257 18.3357 22.8589 17.7344 23.7395 17.7344C24.0537 17.7344 24.3485 17.812 24.6085 17.9477C24.7559 18.0214 24.6395 18.2426 24.496 18.165C24.2671 18.0486 24.0149 17.9827 23.7434 17.9827C22.9869 17.9827 22.3468 18.5025 22.1761 19.2008C22.1335 19.3559 21.8891 19.2977 21.9317 19.1387M21.8774 19.7594C21.8774 19.6702 21.8852 19.5848 21.8929 19.4995C21.9162 19.3365 22.1645 19.3715 22.1412 19.5344C22.1296 19.6081 22.1257 19.6857 22.1257 19.7594C22.1257 19.9262 21.8735 19.9262 21.8735 19.7594" fill="#002A52"/>
<path d="M25.435 20.1607C25.1674 20.8629 24.4768 21.3594 23.6777 21.3594C23.5031 21.3594 23.3363 21.34 23.1811 21.2973C23.0221 21.2508 23.088 21.0142 23.2471 21.0607C23.3829 21.0995 23.5264 21.115 23.6777 21.115C24.3721 21.115 24.9695 20.6805 25.1984 20.0754C25.2605 19.9202 25.4971 20.0094 25.4389 20.1607M25.5553 19.5167C25.5553 19.637 25.5398 19.7572 25.5165 19.8698C25.4855 20.0327 25.2372 19.9861 25.2721 19.8232C25.2876 19.7262 25.3031 19.6215 25.3031 19.5167C25.3031 19.3538 25.5553 19.3538 25.5553 19.5167Z" fill="#002A52"/>
<path d="M11.3959 36.9766V38.1365H12.8118V36.9766H13.1804V39.8822H12.8118V38.4507H11.3959V39.8822H11.0273V36.9766H11.3959Z" fill="#002A52"/>
<path d="M13.6421 36.9766H14.1309L14.8059 38.2063L15.477 36.9766H15.9425L14.9882 38.5671V39.8822H14.5886V38.5671L13.646 36.9766H13.6421Z" fill="#002A52"/>
<path d="M16.9199 36.9766C16.9742 36.9766 17.0518 36.9843 17.1488 36.9882C17.2458 36.9921 17.3427 37.0076 17.4436 37.0348C17.5949 37.0774 17.7384 37.1589 17.8626 37.2753C17.9906 37.3955 18.0527 37.5817 18.0527 37.8378C18.0527 38.1248 17.9712 38.3266 17.8083 38.4429C17.6453 38.5593 17.4669 38.633 17.2768 38.6563C17.2302 38.6563 17.1837 38.6641 17.1371 38.668C17.0906 38.668 17.044 38.6718 17.0014 38.6718H16.9664C16.9664 38.6718 16.9432 38.6718 16.9315 38.668H16.8927C16.8927 38.668 16.8617 38.668 16.8423 38.668C16.8268 38.668 16.8113 38.668 16.7919 38.668V39.8822H16.4233V36.9766H16.9121H16.9199ZM16.7958 38.3576C16.7958 38.3576 16.8229 38.3615 16.8345 38.3615H16.8733C16.8733 38.3615 16.9005 38.3654 16.9121 38.3654H16.9471C17.1876 38.3654 17.3738 38.3227 17.4979 38.2412C17.6221 38.1598 17.688 38.0123 17.688 37.799C17.688 37.605 17.6143 37.477 17.4669 37.4188C17.3195 37.3567 17.1604 37.3257 16.982 37.3179C16.9509 37.3179 16.9199 37.3141 16.8889 37.3141H16.7958V38.3576Z" fill="#002A52"/>
<path d="M20.1203 36.9765V37.314H18.9255V38.086H20.0893V38.4158H18.9255V39.5175H20.1203V39.8783H18.5298V36.9727H20.1203V36.9765Z" fill="#002A52"/>
<path d="M21.6642 36.9765C21.8736 36.9921 22.0405 37.0619 22.1724 37.1821C22.3004 37.3024 22.3857 37.4343 22.4284 37.574C22.4361 37.6089 22.4439 37.6438 22.4517 37.6748C22.4555 37.7058 22.4594 37.7408 22.4594 37.7718C22.4594 38.0317 22.3857 38.2334 22.2422 38.3731C22.0986 38.5128 21.9241 38.5981 21.7262 38.633L22.6805 39.8783H22.215L21.3538 38.6602H21.2025V39.8783H20.834V36.9727H21.6642V36.9765ZM21.1986 38.3886C21.478 38.3886 21.6991 38.3576 21.8542 38.2877C22.0094 38.2179 22.0909 38.0821 22.0909 37.8843V37.83C22.0909 37.702 22.0366 37.5856 21.928 37.477C21.8193 37.3683 21.6098 37.314 21.2995 37.314H21.2025V38.3886H21.1986Z" fill="#002A52"/>
<path d="M25.5088 36.8438L26.1256 39.8851H25.7182L25.3846 37.9571L24.4924 39.9201L23.6001 37.9882L23.2626 39.889H22.9019L23.4799 36.8476L24.4924 39.183L25.5049 36.8476L25.5088 36.8438Z" fill="#002A52"/>
<path d="M29.1945 39.8772H28.7988L28.4613 39.1518H27.1385L26.801 39.8772H26.4053L27.7863 36.8164L29.1945 39.8772ZM27.2626 38.8104H28.3061L27.7863 37.6466L27.2626 38.8104Z" fill="#002A52"/>
<path d="M30.482 36.9765C30.6915 36.9921 30.8583 37.0619 30.9902 37.1821C31.1182 37.3024 31.2036 37.4343 31.2463 37.574C31.254 37.6089 31.2618 37.6438 31.2695 37.6748C31.2734 37.7058 31.2773 37.7408 31.2773 37.7718C31.2773 38.0317 31.2036 38.2334 31.0601 38.3731C30.9165 38.5128 30.7419 38.5981 30.5441 38.633L31.4984 39.8783H31.0329L30.1717 38.6602H30.0204V39.8783H29.6519V36.9727H30.482V36.9765ZM30.0165 38.3886C30.2958 38.3886 30.5169 38.3576 30.6721 38.2877C30.8273 38.2179 30.9088 38.0821 30.9088 37.8843V37.83C30.9088 37.702 30.8544 37.5856 30.7458 37.477C30.6372 37.3683 30.4277 37.314 30.1174 37.314H30.0204V38.3886H30.0165Z" fill="#002A52"/>
<path d="M32.3095 36.9766V38.2645L33.5664 36.9766H34.0319L32.744 38.2917L34.0901 39.8822H33.5664L32.4647 38.536L32.3095 38.6873V39.8822H31.9487V36.9766H32.3095Z" fill="#002A52"/>
<path d="M36.1306 36.9765V37.314H34.9357V38.086H36.0995V38.4158H34.9357V39.5175H36.1306V39.8783H34.54V36.9727H36.1306V36.9765Z" fill="#002A52"/>
<path d="M36.5532 37.3141V36.9766H38.33V37.3141H37.6588V39.8822H37.2515V37.3141H36.5532Z" fill="#002A52"/>
<path d="M40.0911 37.3949C40.0639 37.3639 40.0406 37.3406 40.0135 37.3212C39.9592 37.2824 39.9048 37.2553 39.8544 37.2436C39.804 37.232 39.7574 37.2281 39.7148 37.2281C39.5635 37.2281 39.4432 37.2708 39.3501 37.3561C39.257 37.4415 39.2104 37.5346 39.2104 37.6393C39.2104 37.6471 39.2104 37.6587 39.2104 37.6703C39.2104 37.6781 39.2104 37.6897 39.2104 37.7014C39.2221 37.7557 39.2531 37.81 39.2997 37.8643C39.3462 37.9186 39.4083 37.9613 39.4898 37.9962C39.5363 38.0195 39.6023 38.0505 39.6954 38.0854C39.7885 38.1242 39.8816 38.1669 39.9786 38.2212C40.0911 38.2794 40.1997 38.3453 40.3005 38.4229C40.4014 38.4966 40.4674 38.5781 40.5023 38.6673C40.51 38.6906 40.5139 38.7139 40.5178 38.7372C40.5217 38.7604 40.5294 38.7837 40.5333 38.807C40.5411 38.838 40.5449 38.8729 40.5488 38.904C40.5488 38.935 40.5527 38.966 40.5527 38.9971C40.5527 39.2492 40.4635 39.4704 40.2889 39.6604C40.1143 39.8505 39.901 39.9475 39.6488 39.9475H39.61C39.3811 39.9475 39.1755 39.866 38.9932 39.6992C38.8109 39.5324 38.7178 39.3423 38.7178 39.1329L39.0553 39.0359C39.0863 39.2298 39.1523 39.3772 39.2609 39.4704C39.3695 39.5635 39.4859 39.6139 39.61 39.6178H39.6566C39.6566 39.6178 39.6721 39.6178 39.6837 39.6139C39.7962 39.6061 39.901 39.5596 39.998 39.4742C40.0949 39.3928 40.1609 39.2764 40.1958 39.1329C40.1958 39.1135 40.1997 39.0941 40.1997 39.0747V39.0203C40.1997 38.8807 40.1492 38.7682 40.0523 38.6829C39.9514 38.5975 39.8428 38.5238 39.7225 38.4695C39.707 38.4617 39.6876 38.454 39.6721 38.4462C39.6527 38.4385 39.6372 38.4307 39.6178 38.4229C39.6061 38.4229 39.5984 38.4152 39.5867 38.4113C39.5751 38.4074 39.5635 38.4035 39.5557 38.3997C39.3811 38.3298 39.2182 38.2406 39.0708 38.132C38.9234 38.0272 38.8497 37.8566 38.8497 37.6277C38.8497 37.585 38.8574 37.5384 38.8729 37.4841C38.8885 37.4337 38.9079 37.3794 38.935 37.3212C38.9932 37.2126 39.0824 37.1156 39.1988 37.0225C39.3152 36.9294 39.4665 36.8867 39.6527 36.8867C39.804 36.8867 39.932 36.9061 40.0329 36.941C40.1337 36.9759 40.2268 37.0419 40.3199 37.1311C40.3471 37.1583 40.3704 37.1854 40.3975 37.2165C40.4247 37.2475 40.448 37.2824 40.4751 37.3212L40.1648 37.4958C40.1376 37.457 40.1143 37.4221 40.0872 37.391L40.0911 37.3949Z" fill="#002A52"/>
<path d="M44.7425 37.3949C44.7153 37.3639 44.692 37.3406 44.6649 37.3212C44.6106 37.2824 44.5562 37.2553 44.5058 37.2436C44.4554 37.232 44.4088 37.2281 44.3662 37.2281C44.2149 37.2281 44.0946 37.2708 44.0015 37.3561C43.9084 37.4415 43.8618 37.5346 43.8618 37.6393C43.8618 37.6471 43.8618 37.6587 43.8618 37.6703C43.8618 37.6781 43.8618 37.6897 43.8618 37.7014C43.8735 37.7557 43.9045 37.81 43.9511 37.8643C43.9976 37.9186 44.0597 37.9613 44.1412 37.9962C44.1877 38.0195 44.2537 38.0505 44.3468 38.0854C44.4399 38.1242 44.533 38.1669 44.63 38.2212C44.7425 38.2794 44.8511 38.3453 44.9519 38.4229C45.0528 38.4966 45.1187 38.5781 45.1537 38.6673C45.1614 38.6906 45.1653 38.7139 45.1692 38.7372C45.1731 38.7604 45.1808 38.7837 45.1847 38.807C45.1925 38.838 45.1963 38.8729 45.2002 38.904C45.2002 38.935 45.2041 38.966 45.2041 38.9971C45.2041 39.2492 45.1187 39.4704 44.9442 39.6604C44.7696 39.8505 44.5562 39.9475 44.3041 39.9475H44.2653C44.0364 39.9475 43.8308 39.866 43.6485 39.6992C43.4662 39.5324 43.373 39.3423 43.373 39.1329L43.7105 39.0359C43.7416 39.2298 43.8075 39.3772 43.9162 39.4704C44.0248 39.5635 44.1412 39.6139 44.2653 39.6178H44.3118C44.3118 39.6178 44.3274 39.6178 44.339 39.6139C44.4515 39.6061 44.5562 39.5596 44.6532 39.4742C44.7502 39.3928 44.8162 39.2764 44.8511 39.1329C44.8511 39.1135 44.855 39.0941 44.855 39.0747V39.0203C44.855 38.8807 44.8045 38.7682 44.7075 38.6829C44.6067 38.5975 44.4981 38.5238 44.3778 38.4695C44.3623 38.4617 44.3429 38.454 44.3274 38.4462C44.308 38.4385 44.2925 38.4307 44.2731 38.4229C44.2614 38.4229 44.2537 38.4152 44.242 38.4113C44.2304 38.4074 44.2187 38.4035 44.211 38.3997C44.0364 38.3298 43.8735 38.2406 43.7261 38.132C43.5787 38.0272 43.5049 37.8566 43.5049 37.6277C43.5049 37.585 43.5127 37.5384 43.5282 37.4841C43.5437 37.4337 43.5631 37.3794 43.5903 37.3212C43.6485 37.2126 43.7377 37.1156 43.8541 37.0225C43.9705 36.9294 44.1218 36.8867 44.308 36.8867C44.4593 36.8867 44.5873 36.9061 44.6881 36.941C44.789 36.9759 44.8821 37.0419 44.9752 37.1311C45.0024 37.1583 45.0256 37.1854 45.0528 37.2165C45.08 37.2475 45.1032 37.2824 45.1304 37.3212L44.8239 37.4958C44.7968 37.457 44.7735 37.4221 44.7463 37.391L44.7425 37.3949Z" fill="#002A52"/>
<path d="M47.9121 36.9766V38.8115C47.9121 39.1412 47.8113 39.4128 47.6096 39.6261C47.4078 39.8395 47.1479 39.9481 46.8298 39.9481H46.7755C46.4846 39.9248 46.2673 39.8434 46.1199 39.7037C45.9725 39.5641 45.8716 39.4089 45.8134 39.2421C45.7901 39.18 45.7708 39.118 45.7591 39.0559C45.7475 38.9938 45.7397 38.9356 45.7358 38.8813V36.9766H46.1044V38.7184C46.1044 38.7417 46.1044 38.7649 46.1044 38.7843C46.1044 38.8037 46.1044 38.827 46.1044 38.8503C46.1238 39.0326 46.1858 39.2033 46.2945 39.3585C46.3992 39.5136 46.5738 39.599 46.8104 39.6145C47.0238 39.6145 47.1983 39.5408 47.338 39.3934C47.4777 39.246 47.5475 39.0365 47.5475 38.7572V36.9766H47.916H47.9121Z" fill="#002A52"/>
<path d="M49.0639 36.9766C49.1182 36.9766 49.1958 36.9843 49.2928 36.9882C49.3898 36.9921 49.4868 37.0076 49.5876 37.0348C49.7428 37.0774 49.8824 37.1589 50.0066 37.2753C50.1346 37.3955 50.1967 37.5817 50.1967 37.8378C50.1967 38.1248 50.1152 38.3266 49.9523 38.4429C49.7893 38.5593 49.6109 38.633 49.4169 38.6563C49.3704 38.6563 49.3238 38.6641 49.2773 38.668C49.2307 38.668 49.1842 38.6718 49.1415 38.6718H49.1066C49.1066 38.6718 49.0833 38.6718 49.0717 38.668H49.0329C49.0329 38.668 49.0018 38.668 48.9824 38.668C48.9669 38.668 48.9514 38.668 48.932 38.668V39.8822H48.5635V36.9766H49.0523H49.0639ZM48.9398 38.3576C48.9398 38.3576 48.9669 38.3615 48.9786 38.3615H49.0174C49.0174 38.3615 49.0445 38.3654 49.0562 38.3654H49.0911C49.3316 38.3654 49.5178 38.3227 49.6419 38.2412C49.7661 38.1559 49.832 38.0123 49.832 37.799C49.832 37.605 49.7583 37.477 49.6109 37.4188C49.4635 37.3567 49.3044 37.3257 49.126 37.3179C49.0949 37.3179 49.0639 37.3141 49.0329 37.3141H48.9398V38.3576Z" fill="#002A52"/>
<path d="M52.2648 36.9765V37.314H51.07V38.086H52.2338V38.4158H51.07V39.5175H52.2648V39.8783H50.6743V36.9727H52.2648V36.9765Z" fill="#002A52"/>
<path d="M53.8087 36.9765C54.0182 36.9921 54.185 37.0619 54.3169 37.1821C54.4449 37.3024 54.5302 37.4343 54.5729 37.574C54.5807 37.6089 54.5884 37.6438 54.5962 37.6748C54.6001 37.7058 54.6039 37.7408 54.6039 37.7718C54.6039 38.0317 54.5302 38.2334 54.3867 38.3731C54.2432 38.5128 54.0686 38.5981 53.8708 38.633L54.8251 39.8783H54.3596L53.4983 38.6602H53.3471V39.8783H52.9785V36.9727H53.8087V36.9765ZM53.3432 38.3886C53.6225 38.3886 53.8436 38.3576 53.9988 38.2877C54.1539 38.2179 54.2354 38.0821 54.2354 37.8843V37.83C54.2354 37.702 54.1811 37.5856 54.0725 37.477C53.9639 37.3683 53.7544 37.314 53.444 37.314H53.3471V38.3886H53.3432Z" fill="#002A52"/>
<path d="M57.6533 36.8438L58.2701 39.8851H57.8628L57.5292 37.9571L56.6369 39.9201L55.7447 37.9882L55.4072 39.889H55.0464L55.6244 36.8476L56.6369 39.183L57.6494 36.8476L57.6533 36.8438Z" fill="#002A52"/>
<path d="M61.3385 39.8772H60.9429L60.6054 39.1518H59.2825L58.945 39.8772H58.5493L59.9304 36.8164L61.3385 39.8772ZM59.4066 38.8104H60.4502L59.9304 37.6466L59.4066 38.8104Z" fill="#002A52"/>
<path d="M62.6266 36.9765C62.836 36.9921 63.0029 37.0619 63.1348 37.1821C63.2628 37.3024 63.3481 37.4343 63.3908 37.574C63.4024 37.6089 63.4063 37.6438 63.4141 37.6748C63.4179 37.7058 63.4218 37.7408 63.4218 37.7718C63.4218 38.0317 63.3481 38.2334 63.2046 38.3731C63.0611 38.5128 62.8865 38.5981 62.6886 38.633L63.6429 39.8783H63.1774L62.3162 38.6602H62.1649V39.8783H61.7964V36.9727H62.6266V36.9765ZM62.161 38.3886C62.4404 38.3886 62.6615 38.3576 62.8167 38.2877C62.9718 38.2179 63.0533 38.0821 63.0533 37.8843V37.83C63.0533 37.702 62.999 37.5856 62.8904 37.477C62.7817 37.3683 62.5723 37.314 62.2619 37.314H62.1649V38.3886H62.161Z" fill="#002A52"/>
<path d="M64.4535 36.9766V38.2645L65.7105 36.9766H66.176L64.888 38.2917L66.2342 39.8822H65.7105L64.6087 38.536L64.4535 38.6873V39.8822H64.0928V36.9766H64.4535Z" fill="#002A52"/>
<path d="M68.2746 36.9765V37.314H67.0798V38.086H68.2436V38.4158H67.0798V39.5175H68.2746V39.8783H66.6841V36.9727H68.2746V36.9765Z" fill="#002A52"/>
<path d="M68.6978 37.3141V36.9766H70.4745V37.3141H69.8034V39.8822H69.396V37.3141H68.6978Z" fill="#002A52"/>
<path d="M72.2356 37.3949C72.2085 37.3639 72.1852 37.3406 72.158 37.3212C72.1037 37.2824 72.0494 37.2553 71.999 37.2436C71.9485 37.232 71.902 37.2281 71.8593 37.2281C71.708 37.2281 71.5878 37.2708 71.4947 37.3561C71.4016 37.4415 71.355 37.5346 71.355 37.6393C71.355 37.6471 71.355 37.6587 71.355 37.6703C71.355 37.6781 71.355 37.6897 71.355 37.7014C71.3666 37.7557 71.3977 37.81 71.4442 37.8643C71.4908 37.9186 71.5529 37.9613 71.6343 37.9962C71.6809 38.0195 71.7468 38.0505 71.8399 38.0854C71.933 38.1242 72.0261 38.1669 72.1231 38.2212C72.2356 38.2794 72.3442 38.3453 72.4451 38.4229C72.546 38.4966 72.6119 38.5781 72.6468 38.6673C72.6546 38.6906 72.6585 38.7139 72.6623 38.7372C72.6662 38.7604 72.674 38.7837 72.6779 38.807C72.6856 38.838 72.6895 38.8729 72.6934 38.904C72.6934 38.935 72.6972 38.966 72.6972 38.9971C72.6972 39.2492 72.6119 39.4704 72.4373 39.6604C72.2628 39.8505 72.0494 39.9475 71.7972 39.9475H71.7585C71.5296 39.9475 71.324 39.866 71.1416 39.6992C70.9593 39.5324 70.8662 39.3423 70.8662 39.1329L71.2037 39.0359C71.2347 39.2298 71.3007 39.3772 71.4093 39.4704C71.5179 39.5635 71.6343 39.6139 71.7585 39.6178H71.805C71.805 39.6178 71.8205 39.6178 71.8322 39.6139C71.9447 39.6061 72.0455 39.5596 72.1464 39.4742C72.2434 39.3928 72.3093 39.2764 72.3442 39.1329C72.3442 39.1135 72.3481 39.0941 72.3481 39.0747V39.0203C72.3481 38.8807 72.2977 38.7682 72.1968 38.6829C72.096 38.5975 71.9873 38.5238 71.8671 38.4695C71.8516 38.4617 71.8322 38.454 71.8166 38.4462C71.7972 38.4385 71.7817 38.4307 71.7585 38.4229C71.7468 38.4229 71.7391 38.4152 71.7274 38.4113C71.7158 38.4074 71.7041 38.4035 71.6964 38.3997C71.5218 38.3298 71.3589 38.2406 71.2115 38.132C71.0641 38.0272 70.9903 37.8566 70.9903 37.6277C70.9903 37.585 70.9981 37.5384 71.0136 37.4841C71.0291 37.4337 71.0485 37.3794 71.0757 37.3212C71.1339 37.2126 71.2231 37.1156 71.3395 37.0225C71.4559 36.9294 71.6072 36.8867 71.7934 36.8867C71.9485 36.8867 72.0727 36.9061 72.1735 36.941C72.2744 36.9759 72.3675 37.0419 72.4606 37.1311C72.4878 37.1583 72.511 37.1854 72.5382 37.2165C72.5654 37.2475 72.5886 37.2824 72.6158 37.3212L72.3093 37.4958C72.2822 37.457 72.2589 37.4221 72.2317 37.391L72.2356 37.3949Z" fill="#002A52"/>
<path d="M76.1651 36.9766C76.7005 36.9766 77.1233 37.0813 77.4298 37.2869C77.7363 37.4886 77.8992 37.8572 77.9108 38.3964C77.9108 38.4274 77.9108 38.4623 77.9108 38.4934C77.9108 38.5244 77.907 38.5593 77.9031 38.5904C77.8721 38.9123 77.7363 39.2111 77.4996 39.4865C77.263 39.758 76.8789 39.8977 76.3514 39.8977H75.6182V36.9804H76.1651V36.9766ZM76.01 39.5486H76.4173C76.6966 39.5486 76.9177 39.4826 77.0768 39.3468C77.2358 39.2072 77.3483 39.0559 77.4182 38.8929C77.4531 38.8037 77.4802 38.7184 77.4958 38.6369C77.5113 38.5554 77.519 38.4817 77.519 38.4197C77.519 38.3886 77.519 38.3537 77.519 38.3227C77.519 38.2916 77.5152 38.2606 77.5074 38.2257C77.4764 37.9891 77.3677 37.7757 77.1854 37.5779C77.0031 37.3839 76.716 37.283 76.3242 37.283H76.0177V39.5447L76.01 39.5486Z" fill="#002A52"/>
<path d="M80.0134 36.9765V37.314H78.8185V38.086H79.9823V38.4158H78.8185V39.5175H80.0134V39.8783H78.4229V36.9727H80.0134V36.9765Z" fill="#002A52"/>
<path d="M81.2119 36.9766C81.2662 36.9766 81.3438 36.9843 81.4408 36.9882C81.5378 36.9921 81.6348 37.0076 81.7356 37.0348C81.8908 37.0774 82.0305 37.1589 82.1546 37.2753C82.2826 37.3955 82.3447 37.5817 82.3447 37.8378C82.3447 38.1248 82.2632 38.3266 82.1003 38.4429C81.9373 38.5593 81.7589 38.633 81.5688 38.6563C81.5223 38.6563 81.4757 38.6641 81.4292 38.668C81.3826 38.668 81.3361 38.6718 81.2934 38.6718H81.2585C81.2585 38.6718 81.2352 38.6718 81.2236 38.668H81.1848C81.1848 38.668 81.1537 38.668 81.1343 38.668C81.1188 38.668 81.1033 38.668 81.0878 38.668V39.8822H80.7192V36.9766H81.208H81.2119ZM81.0917 38.3576C81.0917 38.3576 81.1188 38.3615 81.1304 38.3615H81.1692C81.1692 38.3615 81.1964 38.3654 81.208 38.3654H81.243C81.4835 38.3654 81.6697 38.3227 81.7938 38.2412C81.918 38.1559 81.9839 38.0123 81.9839 37.799C81.9839 37.605 81.9102 37.477 81.7628 37.4188C81.6154 37.3567 81.4563 37.3257 81.2779 37.3179C81.2468 37.3179 81.2158 37.3141 81.1848 37.3141H81.0917V38.3576Z" fill="#002A52"/>
<path d="M85.34 39.8772H84.9443L84.6068 39.1518H83.284L82.9465 39.8772H82.5508L83.9318 36.8164L85.34 39.8772ZM83.4081 38.8104H84.4517L83.9318 37.6466L83.4081 38.8104Z" fill="#002A52"/>
<path d="M86.6236 36.9765C86.8331 36.9921 86.9999 37.0619 87.1318 37.1821C87.2598 37.3024 87.3452 37.4343 87.3879 37.574C87.3956 37.6089 87.4034 37.6438 87.4111 37.6748C87.415 37.7058 87.4189 37.7408 87.4189 37.7718C87.4189 38.0317 87.3452 38.2334 87.2017 38.3731C87.0581 38.5128 86.8835 38.5981 86.6857 38.633L87.64 39.8783H87.1745L86.3133 38.6602H86.162V39.8783H85.7935V36.9727H86.6236V36.9765ZM86.1581 38.3886C86.4374 38.3886 86.6585 38.3576 86.8137 38.2877C86.9689 38.2179 87.0504 38.0821 87.0504 37.8843V37.83C87.0504 37.702 86.996 37.5856 86.8874 37.477C86.7788 37.3683 86.5693 37.314 86.259 37.314H86.162V38.3886H86.1581Z" fill="#002A52"/>
<path d="M87.8071 37.3141V36.9766H89.5839V37.3141H88.9127V39.8822H88.5054V37.3141H87.8071Z" fill="#002A52"/>
<path d="M92.4858 36.8438L93.1026 39.8851H92.6953L92.3617 37.9571L91.4694 39.9201L90.5772 37.9882L90.2397 39.889H89.8789L90.4569 36.8476L91.4694 39.183L92.4819 36.8476L92.4858 36.8438Z" fill="#002A52"/>
<path d="M95.2438 36.9765V37.314H94.049V38.086H95.2128V38.4158H94.049V39.5175H95.2438V39.8783H93.6533V36.9727H95.2438V36.9765Z" fill="#002A52"/>
<path d="M98.1573 39.1207V36.9716H98.5181V39.9974L96.3108 37.7591V39.8733H95.9189V36.8125L98.1573 39.1168V39.1207Z" fill="#002A52"/>
<path d="M98.9253 37.3141V36.9766H100.702V37.3141H100.031V39.8822H99.6236V37.3141H98.9253Z" fill="#002A52"/>
<path d="M104.795 37.3949C104.768 37.3639 104.744 37.3406 104.717 37.3212C104.663 37.2824 104.608 37.2553 104.558 37.2436C104.508 37.232 104.461 37.2281 104.418 37.2281C104.267 37.2281 104.147 37.2708 104.054 37.3561C103.961 37.4415 103.914 37.5346 103.914 37.6393C103.914 37.6471 103.914 37.6587 103.914 37.6703C103.914 37.6781 103.914 37.6897 103.914 37.7014C103.926 37.7557 103.957 37.81 104.003 37.8643C104.05 37.9186 104.112 37.9613 104.193 37.9962C104.24 38.0195 104.306 38.0505 104.399 38.0854C104.492 38.1242 104.585 38.1669 104.682 38.2212C104.795 38.2794 104.903 38.3453 105.004 38.4229C105.105 38.4966 105.171 38.5781 105.206 38.6673C105.214 38.6906 105.218 38.7139 105.221 38.7372C105.225 38.7604 105.233 38.7837 105.237 38.807C105.245 38.838 105.249 38.8729 105.252 38.904C105.252 38.935 105.256 38.966 105.256 38.9971C105.256 39.2492 105.171 39.4704 104.996 39.6604C104.822 39.8505 104.608 39.9475 104.356 39.9475H104.318C104.089 39.9475 103.883 39.866 103.701 39.6992C103.518 39.5324 103.425 39.3423 103.425 39.1329L103.763 39.0359C103.794 39.2298 103.86 39.3772 103.968 39.4704C104.077 39.5635 104.193 39.6139 104.318 39.6178H104.364C104.364 39.6178 104.38 39.6178 104.391 39.6139C104.504 39.6061 104.605 39.5596 104.705 39.4742C104.802 39.3928 104.868 39.2764 104.899 39.1329C104.899 39.1135 104.903 39.0941 104.903 39.0747V39.0203C104.903 38.8807 104.853 38.7682 104.756 38.6829C104.655 38.5975 104.546 38.5238 104.426 38.4695C104.411 38.4617 104.391 38.454 104.376 38.4462C104.356 38.4385 104.341 38.4307 104.321 38.4229C104.31 38.4229 104.302 38.4152 104.29 38.4113C104.279 38.4074 104.267 38.4035 104.259 38.3997C104.081 38.3298 103.922 38.2406 103.774 38.132C103.627 38.0272 103.553 37.8566 103.553 37.6277C103.553 37.585 103.561 37.5384 103.577 37.4841C103.592 37.4337 103.611 37.3794 103.639 37.3212C103.697 37.2126 103.786 37.1156 103.902 37.0225C104.019 36.9294 104.17 36.8867 104.356 36.8867C104.512 36.8867 104.636 36.9061 104.736 36.941C104.837 36.9759 104.93 37.0419 105.024 37.1311C105.051 37.1583 105.074 37.1854 105.101 37.2165C105.128 37.2475 105.152 37.2824 105.179 37.3212L104.872 37.4958C104.845 37.457 104.822 37.4221 104.795 37.391V37.3949Z" fill="#002A52"/>
<path d="M105.57 37.3141V36.9766H107.347V37.3141H106.676V39.8822H106.269V37.3141H105.57Z" fill="#002A52"/>
<path d="M107.712 38.3804C107.758 37.9071 107.929 37.5425 108.232 37.2903C108.53 37.0343 108.887 36.9102 109.302 36.9102C109.667 36.9102 109.977 37.0265 110.233 37.2593C110.489 37.4921 110.66 37.7442 110.749 38.0235C110.769 38.0856 110.784 38.1477 110.792 38.2097C110.804 38.2718 110.808 38.33 110.808 38.3921C110.808 38.8537 110.664 39.2261 110.377 39.5132C110.09 39.8003 109.698 39.9477 109.209 39.9477H109.155C108.775 39.9477 108.472 39.8391 108.243 39.6218C108.014 39.4046 107.859 39.164 107.774 38.9003C107.747 38.8265 107.727 38.749 107.72 38.6714C107.708 38.5938 107.704 38.524 107.704 38.4541V38.4425C107.704 38.4425 107.704 38.4347 107.708 38.4309V38.4192C107.708 38.4192 107.708 38.4076 107.708 38.4037C107.708 38.3998 107.708 38.3959 107.708 38.3921L107.712 38.3804ZM110.171 37.6783C110.02 37.5115 109.853 37.3951 109.675 37.3291C109.609 37.3058 109.547 37.2903 109.485 37.2748C109.423 37.2632 109.361 37.2554 109.302 37.2515H109.248C108.93 37.2515 108.655 37.3679 108.43 37.5968C108.205 37.8257 108.084 38.0895 108.073 38.3882V38.4231C108.073 38.4231 108.069 38.4347 108.069 38.4425V38.458C108.069 38.7528 108.17 39.0166 108.371 39.2494C108.573 39.4822 108.872 39.6024 109.267 39.614C109.275 39.614 109.279 39.614 109.283 39.614C109.287 39.614 109.291 39.614 109.295 39.614C109.302 39.614 109.306 39.614 109.31 39.614C109.31 39.614 109.318 39.614 109.322 39.614C109.613 39.614 109.842 39.5365 110.012 39.3813C110.183 39.2261 110.299 39.0554 110.365 38.8692C110.392 38.7994 110.412 38.7334 110.424 38.6675C110.435 38.6015 110.439 38.5395 110.439 38.4774V38.4037C110.416 38.0817 110.33 37.8373 110.179 37.6705L110.171 37.6783Z" fill="#002A52"/>
<path d="M112.142 36.9765C112.352 36.9921 112.518 37.0619 112.646 37.1821C112.774 37.3024 112.86 37.4343 112.903 37.574C112.914 37.6089 112.918 37.6438 112.926 37.6748C112.93 37.7058 112.934 37.7408 112.934 37.7718C112.934 38.0317 112.86 38.2334 112.716 38.3731C112.573 38.5128 112.398 38.5981 112.2 38.633L113.155 39.8783H112.689L111.828 38.6602H111.677V39.8783H111.308V36.9727H112.142V36.9765ZM111.677 38.3886C111.956 38.3886 112.177 38.3576 112.332 38.2877C112.487 38.2179 112.569 38.0821 112.569 37.8843V37.83C112.569 37.702 112.515 37.5856 112.406 37.477C112.297 37.3683 112.088 37.314 111.778 37.314H111.681V38.3886H111.677Z" fill="#002A52"/>
<path d="M115.199 36.9765V37.314H114.004V38.086H115.168V38.4158H114.004V39.5175H115.199V39.8783H113.608V36.9727H115.199V36.9765Z" fill="#002A52"/>
<path d="M117.15 37.3949C117.123 37.3639 117.1 37.3406 117.073 37.3212C117.018 37.2824 116.964 37.2553 116.914 37.2436C116.863 37.232 116.817 37.2281 116.774 37.2281C116.623 37.2281 116.502 37.2708 116.409 37.3561C116.316 37.4415 116.27 37.5346 116.27 37.6393C116.27 37.6471 116.27 37.6587 116.27 37.6703C116.27 37.6781 116.27 37.6897 116.27 37.7014C116.281 37.7557 116.312 37.81 116.359 37.8643C116.405 37.9186 116.467 37.9613 116.549 37.9962C116.595 38.0195 116.661 38.0505 116.754 38.0854C116.844 38.1242 116.941 38.1669 117.038 38.2212C117.15 38.2794 117.259 38.3453 117.36 38.4229C117.461 38.4966 117.526 38.5781 117.561 38.6673C117.569 38.6906 117.573 38.7139 117.577 38.7372C117.581 38.7604 117.589 38.7837 117.592 38.807C117.6 38.838 117.604 38.8729 117.608 38.904C117.608 38.935 117.612 38.966 117.612 38.9971C117.612 39.2492 117.526 39.4704 117.352 39.6604C117.177 39.8505 116.964 39.9475 116.712 39.9475H116.673C116.444 39.9475 116.239 39.866 116.056 39.6992C115.874 39.5324 115.781 39.3423 115.781 39.1329L116.118 39.0359C116.149 39.2298 116.215 39.3772 116.324 39.4704C116.432 39.5635 116.549 39.6139 116.673 39.6178H116.72C116.72 39.6178 116.735 39.6178 116.747 39.6139C116.859 39.6061 116.96 39.5596 117.061 39.4742C117.158 39.3928 117.224 39.2764 117.259 39.1329C117.259 39.1135 117.263 39.0941 117.263 39.0747V39.0203C117.263 38.8807 117.212 38.7682 117.115 38.6829C117.014 38.5975 116.906 38.5238 116.786 38.4695C116.77 38.4617 116.751 38.454 116.735 38.4462C116.72 38.4385 116.7 38.4307 116.681 38.4229C116.669 38.4229 116.661 38.4152 116.65 38.4113C116.638 38.4074 116.626 38.4035 116.619 38.3997C116.444 38.3298 116.281 38.2406 116.134 38.132C115.986 38.0272 115.913 37.8566 115.913 37.6277C115.913 37.585 115.92 37.5384 115.936 37.4841C115.951 37.4337 115.971 37.3794 115.998 37.3212C116.056 37.2126 116.145 37.1156 116.262 37.0225C116.378 36.9294 116.529 36.8867 116.716 36.8867C116.867 36.8867 116.995 36.9061 117.096 36.941C117.197 36.9759 117.29 37.0419 117.383 37.1311C117.41 37.1583 117.433 37.1854 117.461 37.2165C117.488 37.2475 117.511 37.2824 117.538 37.3212L117.232 37.4958C117.204 37.457 117.181 37.4221 117.154 37.391L117.15 37.3949Z" fill="#002A52"/>
<path d="M42.0968 39.0334C41.7166 39.0334 41.4062 38.7231 41.4062 38.3468C41.4062 37.9705 41.7166 37.6562 42.0968 37.6562C42.4769 37.6562 42.7873 37.9666 42.7873 38.3468C42.7873 38.7269 42.4769 39.0334 42.0968 39.0334Z" fill="#6D91B2"/>
<path d="M74.109 39.0334C73.7288 39.0334 73.4185 38.7231 73.4185 38.3468C73.4185 37.9705 73.7288 37.6562 74.109 37.6562C74.4892 37.6562 74.7995 37.9666 74.7995 38.3468C74.7995 38.7269 74.4892 39.0334 74.109 39.0334Z" fill="#6D91B2"/>
</svg>
