<svg width="128" height="48" viewBox="0 0 128 48" fill="none" xmlns="http://www.w3.org/2000/svg">
<g clip-path="url(#clip0_4361_26324)">
<path fill-rule="evenodd" clip-rule="evenodd" d="M35.6048 14.1103V18.2207H36.8407H38.0767V14.1103V10H36.8407H35.6048V14.1103ZM41.3535 14.3709V18.7417L41.2645 18.9547C41.1507 19.2272 40.981 19.4075 40.6924 19.5628L40.4624 19.6866L35.7916 19.7026C33.2227 19.7114 31.1221 19.7372 31.1237 19.7601C31.1253 19.7829 31.4955 20.319 31.9464 20.9513L32.7661 22.1011H36.8442H40.9223L41.3464 21.9622C41.5795 21.8858 41.9598 21.6996 42.1913 21.5485L42.6122 21.2737L42.9851 21.5238C43.3759 21.7859 43.8349 21.9815 44.2798 22.0758C44.4493 22.1117 51.9865 22.1263 65.2969 22.1165L86.0498 22.1011L86.4479 21.9603C86.6668 21.8829 87.0359 21.6957 87.2679 21.5442L87.6897 21.2688L87.9679 21.4686C88.5817 21.9096 89.283 22.1298 90.0739 22.1298C90.8623 22.1298 91.6619 21.8772 92.2186 21.4523L92.4663 21.2631L92.8696 21.5312C93.4368 21.9083 93.9681 22.0824 94.6576 22.117C95.5509 22.1618 96.2551 21.972 96.9469 21.4998L97.2878 21.2671L97.5612 21.4616C97.9629 21.7473 98.2794 21.8934 98.7683 22.0184L99.204 22.1298H102.373H105.543L105.885 22.0413C107.173 21.709 108.144 20.7597 108.534 19.453L108.635 19.1117L108.656 14.5559L108.677 10H107.439H106.202L106.186 14.4121L106.17 18.8243L106.031 19.0678C105.856 19.3737 105.564 19.5777 105.188 19.6582C104.995 19.6996 103.979 19.7149 102.169 19.7036L99.441 19.6866L99.1557 19.5397C98.9532 19.4355 98.8203 19.3117 98.6975 19.1132L98.5245 18.8335L98.508 16.1414L98.4914 13.4492H97.2943H96.0971L96.0553 16.1368L96.0135 18.8243L95.926 19.0108C95.8252 19.2257 95.5054 19.5239 95.2845 19.609C95.0432 19.7019 94.6155 19.675 94.3753 19.5518C94.0993 19.4103 93.9273 19.2275 93.8133 18.9547L93.7243 18.7417V16.0955V13.4492H92.4883H91.2524V16.0563C91.2524 17.8736 91.2323 18.7226 91.1861 18.8588C91.0841 19.1595 90.9237 19.356 90.6488 19.5172C90.1167 19.829 89.4291 19.65 89.0971 19.1132L88.9241 18.8335L88.9076 16.1414L88.8911 13.4492H87.6573H86.4234V16.1247V18.8001L86.3102 19.0222C86.1495 19.337 85.8239 19.5855 85.4784 19.6568C85.2785 19.6981 78.8564 19.7122 64.9475 19.7018L44.7075 19.6866L44.4271 19.5133C44.223 19.387 44.103 19.2562 43.9861 19.0324L43.8254 18.7249V14.3625V10H42.5895H41.3535V14.3709ZM111.43 16.0649V22.1298H112.753H114.075V16.0649V10H112.753H111.43V16.0649ZM22.0447 13.5115C21.5763 13.5932 21.0527 13.8697 20.7197 14.2114C20.5582 14.3771 19.6021 15.6769 18.595 17.0997L16.764 19.6866L15.726 19.7022L14.6881 19.7179L13.8883 20.852C13.4485 21.4758 13.07 22.0184 13.0471 22.0579C13.0141 22.115 13.5273 22.1298 15.5334 22.1298H18.0613L20.0639 19.3034C21.3169 17.5351 22.1311 16.4377 22.239 16.3718C22.4666 16.2329 22.6144 16.2387 22.8359 16.3955C22.9365 16.4666 23.5202 17.2362 24.1331 18.1057L25.2475 19.6866L23.6386 19.7153L22.0297 19.7441L21.1768 20.9226L20.3239 22.1011L25.128 22.1158C27.7702 22.1238 29.9431 22.1195 29.9565 22.1059C29.9956 22.0668 24.6387 14.5398 24.3745 14.2625C23.7875 13.6463 22.9043 13.3616 22.0447 13.5115ZM20.3994 28.5883C19.9864 28.6961 19.5687 28.925 19.2632 29.2109C19.0394 29.4204 13.1143 37.6983 13.0289 37.9208L13 37.9963H14.4908H15.9815L18.2645 34.7795C19.5201 33.0102 20.6146 31.5098 20.6967 31.4452C20.886 31.2963 21.1755 31.2948 21.3621 31.4415C21.4895 31.5418 24.2798 35.4175 24.2798 35.4942C24.2798 35.5108 23.3162 35.5256 22.1384 35.5271L19.997 35.5299L19.1634 36.6894C18.705 37.3271 18.3215 37.882 18.3113 37.9226L18.2927 37.9963H23.6781C27.9631 37.9963 29.0578 37.9816 29.0355 37.9244C28.9982 37.8285 23.2274 29.6981 22.9807 29.3938C22.7458 29.1041 22.3597 28.8414 21.9289 28.6783C21.5293 28.5271 20.7988 28.4841 20.3994 28.5883ZM29.6836 31.7468V34.9828L29.7707 35.3254C30.0661 36.4875 30.911 37.3991 32.0693 37.8055L32.5292 37.9668L35.5473 37.9834L38.5654 38L39.4133 36.7971C39.8797 36.1356 40.2612 35.5786 40.2612 35.5593C40.2612 35.5401 38.6307 35.5243 36.6377 35.5243H33.0142L32.8012 35.4353C32.5468 35.329 32.3515 35.1555 32.2219 34.9207L32.1268 34.7482L32.1101 31.6296L32.0934 28.5109H30.8885H29.6836V31.7468ZM43.4595 28.6021C42.47 28.8416 41.6429 29.6226 41.3412 30.6023C40.8561 32.1776 41.7283 33.8406 43.3081 34.3521L43.6242 34.4545L46.4607 34.4864L49.297 34.5183L49.4069 34.654C49.4719 34.7344 49.5167 34.8788 49.5167 35.0082C49.5167 35.1816 49.4802 35.2574 49.3398 35.3755L49.163 35.5243H45.8696H42.5763L41.735 36.7064C41.2722 37.3566 40.8936 37.9128 40.8936 37.9424C40.8936 38.017 48.9642 38.0113 49.4879 37.9365C50.6182 37.7749 51.6026 36.883 51.9051 35.7467C52.0128 35.3422 52.0108 34.6561 51.9006 34.2333C51.6246 33.1735 50.7102 32.3015 49.6432 32.0807C49.4482 32.0403 48.3989 32.0176 46.7284 32.0176C43.9248 32.0176 43.8859 32.0137 43.7349 31.7218C43.6124 31.4849 43.6346 31.3372 43.821 31.1509L43.989 30.9828L47.3134 30.982L50.6377 30.9812L51.4856 29.781C51.9519 29.1209 52.3335 28.5651 52.3335 28.5459C52.3335 28.5266 50.4127 28.513 48.0651 28.5156L43.7967 28.5205L43.4595 28.6021ZM60.2153 28.6019C59.801 28.7133 59.3797 28.9488 59.0932 29.2294C58.8861 29.4321 52.8509 37.8751 52.8509 37.9621C52.8509 37.9809 53.5219 37.9963 54.342 37.9963H55.8331L58.0625 34.8488C59.2887 33.1177 60.3743 31.6174 60.4748 31.5146C60.683 31.3019 60.9271 31.2688 61.1777 31.4195C61.2616 31.47 61.9658 32.4077 62.7424 33.5034L64.1546 35.4956L61.9999 35.5243L59.8452 35.5531L58.9925 36.7293C58.5235 37.3762 58.1397 37.9259 58.1397 37.9509C58.1397 37.9759 60.5613 37.9963 63.521 37.9963H68.9022L68.8686 37.9089C68.7814 37.6816 62.9126 29.4812 62.6569 29.2295C62.0357 28.6177 61.0749 28.3707 60.2153 28.6019ZM69.4198 31.802L69.4414 35.0932L69.5961 35.5575C69.9785 36.7048 70.945 37.6017 72.1091 37.8894C72.3549 37.9502 73.0834 37.9675 75.3828 37.9675H78.3402L79.1913 36.7713C79.6594 36.1134 80.0424 35.5636 80.0424 35.5497C80.0424 35.5358 78.3949 35.5243 76.3814 35.5243H72.7203L72.4684 35.4024C72.3167 35.3289 72.1551 35.1877 72.0622 35.0473L71.9079 34.8142L71.8921 31.6626L71.8763 28.5109H70.6373H69.3982L69.4198 31.802ZM87.9816 28.6019C87.5619 28.7147 87.164 28.9394 86.8694 29.23C86.6592 29.4374 80.6172 37.8804 80.6172 37.9668C80.6172 37.9841 81.2939 37.9913 82.1208 37.9829L83.6243 37.9675L85.8861 34.777C87.13 33.0222 88.214 31.5283 88.2949 31.4571C88.4598 31.3121 88.7341 31.2902 88.9421 31.4056C89.0153 31.4462 89.7165 32.383 90.5005 33.4875L91.9259 35.4956L89.7816 35.5106L87.6374 35.5257L86.7726 36.7179C86.297 37.3736 85.9074 37.9294 85.907 37.9531C85.9065 37.9769 88.3248 37.9963 91.2811 37.9963C94.5376 37.9963 96.6562 37.9753 96.6562 37.9431C96.6562 37.8176 90.7052 29.4977 90.4175 29.221C89.7829 28.6106 88.8403 28.371 87.9816 28.6019ZM102.433 28.6142C102.052 28.746 101.77 28.9682 101.515 29.3386C101.368 29.553 100.839 30.8542 99.7223 33.7477C98.8514 36.0054 98.1258 37.8849 98.1099 37.9244C98.0873 37.9807 98.3849 37.9963 99.4859 37.9963H100.891L101.95 35.2405C102.532 33.7248 103.025 32.5026 103.045 32.5242C103.065 32.546 103.548 33.7796 104.118 35.2656L105.155 37.9675H106.092H107.029L108.094 35.2057L109.159 32.4439L110.224 35.2057L111.29 37.9675L112.689 37.9829L114.089 37.9983L114.06 37.8967C113.962 37.5531 110.826 29.5909 110.712 29.3969C110.182 28.4935 108.915 28.2409 108.086 28.8734C107.647 29.2077 107.466 29.5504 106.776 31.3518C106.416 32.2892 106.103 33.0359 106.079 33.0111C106.055 32.9864 105.772 32.2806 105.45 31.4427C105.128 30.6048 104.785 29.7692 104.688 29.5857C104.227 28.7102 103.305 28.3128 102.433 28.6142Z" fill="#160B8B"/>
</g>
<defs>
<clipPath id="clip0_4361_26324">
<rect width="101.089" height="28" fill="white" transform="translate(13 10)"/>
</clipPath>
</defs>
</svg>
