<svg width="128" height="48" viewBox="0 0 128 48" fill="none" xmlns="http://www.w3.org/2000/svg">
<g clip-path="url(#clip0_4361_26310)">
<path d="M63.9999 46.6023C76.4815 46.6023 86.5999 36.484 86.5999 24.0023C86.5999 11.5207 76.4815 1.40234 63.9999 1.40234C51.5183 1.40234 41.3999 11.5207 41.3999 24.0023C41.3999 36.484 51.5183 46.6023 63.9999 46.6023Z" stroke="#241F0C" stroke-width="0.8"/>
<path d="M64.0001 45.4016C75.819 45.4016 85.4001 35.8205 85.4001 24.0016C85.4001 12.1827 75.819 2.60156 64.0001 2.60156C52.1812 2.60156 42.6001 12.1827 42.6001 24.0016C42.6001 35.8205 52.1812 45.4016 64.0001 45.4016Z" stroke="#241F0C" stroke-width="0.4"/>
<path d="M63.9999 46.6023C76.4815 46.6023 86.5999 36.484 86.5999 24.0023C86.5999 11.5207 76.4815 1.40234 63.9999 1.40234C51.5183 1.40234 41.3999 11.5207 41.3999 24.0023C41.3999 36.484 51.5183 46.6023 63.9999 46.6023Z" stroke="#241F0C" stroke-width="0.8"/>
<path d="M74.9459 34.946C80.9913 28.9007 80.9913 19.0993 74.9459 13.054C68.9006 7.00867 59.0992 7.00867 53.0539 13.054C47.0086 19.0993 47.0086 28.9007 53.0539 34.946C59.0992 40.9913 68.9006 40.9913 74.9459 34.946Z" stroke="#241F0C" stroke-width="0.398222"/>
<path d="M62.6826 32.3708L63.5715 32.297C63.5795 32.4518 63.6198 32.6032 63.6897 32.7415C63.7283 32.817 63.7873 32.8802 63.8601 32.9238C63.9329 32.9673 64.0165 32.9895 64.1013 32.9877C64.1589 32.9911 64.2165 32.9815 64.2698 32.9596C64.3232 32.9378 64.371 32.9043 64.4097 32.8615C64.4806 32.7809 64.5195 32.6772 64.5191 32.5699C64.5197 32.4662 64.4827 32.3658 64.4151 32.2873C64.3466 32.2037 64.1866 32.1255 63.9377 32.0517C63.5297 31.9282 63.2382 31.7628 63.0648 31.5584C62.883 31.3385 62.7882 31.0595 62.7982 30.7744C62.7971 30.5693 62.8433 30.3667 62.9333 30.1824C63.0206 29.9989 63.1617 29.8464 63.3377 29.745C63.5155 29.6384 63.7644 29.5859 64.0782 29.5859C64.4634 29.5859 64.7567 29.6822 64.9582 29.8748C65.1597 30.0674 65.28 30.3732 65.3191 30.7922L64.4444 30.8615C64.4356 30.7161 64.3839 30.5767 64.2959 30.4606C64.2565 30.4184 64.2083 30.3854 64.1547 30.3639C64.1011 30.3424 64.0434 30.3329 63.9857 30.3362C63.9407 30.3322 63.8953 30.3381 63.8528 30.3534C63.8103 30.3688 63.7716 30.3932 63.7395 30.425C63.6843 30.4875 63.6548 30.5684 63.6568 30.6517C63.6559 30.7177 63.6808 30.7815 63.7262 30.8295C63.7697 30.8837 63.8746 30.9335 64.0391 30.9797C64.4462 31.0982 64.7374 31.2168 64.9128 31.3353C65.0809 31.4464 65.2143 31.6026 65.2977 31.7859C65.3801 31.9772 65.4207 32.1839 65.4168 32.3922C65.4195 32.6415 65.3647 32.8882 65.2568 33.113C65.1605 33.3212 65.0042 33.4958 64.808 33.6144C64.586 33.7355 64.3354 33.7945 64.0826 33.785C63.57 33.785 63.2145 33.652 63.016 33.3859C62.8079 33.0875 62.692 32.7345 62.6826 32.3708Z" fill="white" stroke="black" stroke-width="0.222222"/>
<path d="M67.8543 29.7031H68.7903V32.0818C68.7915 32.307 68.7631 32.5315 68.7058 32.7493C68.6541 32.9486 68.5635 33.1356 68.4391 33.2996C68.341 33.4376 68.2119 33.5509 68.0623 33.6302C67.8555 33.7236 67.6304 33.7691 67.4036 33.7636C67.2414 33.7626 67.0794 33.7496 66.9191 33.7245C66.7626 33.7037 66.6126 33.6484 66.48 33.5627C66.3506 33.47 66.2407 33.3528 66.1565 33.2178C66.0627 33.0778 65.9946 32.9222 65.9556 32.7582C65.9012 32.5373 65.8714 32.311 65.8667 32.0836V29.7031H66.8036V32.1369C66.793 32.3175 66.8417 32.4967 66.9423 32.6471C66.9889 32.704 67.0475 32.7499 67.114 32.7814C67.1805 32.8129 67.2531 32.8292 67.3267 32.8292C67.4003 32.8292 67.4729 32.8129 67.5394 32.7814C67.6059 32.7499 67.6645 32.704 67.7111 32.6471C67.8128 32.4965 67.8619 32.3165 67.8507 32.1351L67.8543 29.7031Z" fill="white" stroke="black" stroke-width="0.222222"/>
<path d="M61.4482 33.0281H60.3966L60.2455 33.6778H59.2988L60.4304 29.7383H61.4419L62.5691 33.6778H61.5984L61.4482 33.0281ZM61.2508 32.1783L60.9237 30.7561L60.5939 32.1783H61.2508Z" fill="white" stroke="black" stroke-width="0.222222"/>
<path d="M49.5903 24.4869H57.4899L57.4703 24.2469L49.5806 24.0469L49.5903 24.4869Z" fill="#E56606"/>
<path d="M51.5903 23.3597L57.4703 23.8202L57.5299 23.5197L51.7201 22.6602L51.5903 23.3597Z" fill="#E56606"/>
<path d="M52.1074 20.6065L57.7376 22.3647L57.863 22.0856L52.391 19.9531L52.1074 20.6065Z" fill="#E56606"/>
<path d="M53.2393 18.0634L58.3441 21.0172L58.5281 20.7727L53.6588 17.4883L53.2393 18.0634Z" fill="#E56606"/>
<path d="M54.9209 15.8626L59.2711 19.8448L59.5031 19.6457L55.4542 15.3906L54.9209 15.8626Z" fill="#E56606"/>
<path d="M57.1147 14.0317L60.4099 18.9241L60.6819 18.7846L57.7441 13.6992L57.1147 14.0317Z" fill="#E56606"/>
<path d="M59.5244 12.7385L61.7324 18.2079L62.0275 18.1279L60.2089 12.543L59.5244 12.7385Z" fill="#E56606"/>
<path d="M62.2729 12.0176L63.1414 17.8514L63.4472 17.8425L62.9841 11.9883L62.2729 12.0176Z" fill="#E56606"/>
<path d="M49.9004 21.5385L57.5804 23.1092L57.6702 22.7687L50.0497 20.8594L49.9004 21.5385Z" fill="#E56606"/>
<path d="M50.8882 18.4614L58.0224 21.7111L58.186 21.4L51.1869 17.832L50.8882 18.4614Z" fill="#E56606"/>
<path d="M52.5234 15.7065L58.783 20.4256L59.0105 20.1571L52.951 15.1562L52.5234 15.7065Z" fill="#E56606"/>
<path d="M54.7456 13.3928L59.8238 19.3634L60.1047 19.1519L55.2825 12.9492L54.7456 13.3928Z" fill="#E56606"/>
<path d="M57.458 11.5657L60.9931 18.5622L61.3158 18.4226L58.0847 11.2617L57.458 11.5657Z" fill="#E56606"/>
<path d="M60.4702 10.4187L62.3982 18.0169L62.7431 17.9503L61.1475 10.2578L60.4702 10.4187Z" fill="#E56606"/>
<path d="M78.4507 24.4869H70.5503L70.5707 24.2469L78.4605 24.0469L78.4507 24.4869Z" fill="#E56606"/>
<path d="M76.4508 23.3597L70.5708 23.8202L70.5112 23.5197L76.321 22.6602L76.4508 23.3597Z" fill="#E56606"/>
<path d="M75.9324 20.6065L70.3031 22.3647L70.1777 22.0856L75.6497 19.9531L75.9324 20.6065Z" fill="#E56606"/>
<path d="M74.8016 18.0634L69.6958 21.0172L69.5127 20.7727L74.382 17.4883L74.8016 18.0634Z" fill="#E56606"/>
<path d="M73.1198 15.8626L68.7696 19.8448L68.5376 19.6457L72.5865 15.3906L73.1198 15.8626Z" fill="#E56606"/>
<path d="M70.926 14.0317L67.6309 18.9241L67.3589 18.7846L70.2967 13.6992L70.926 14.0317Z" fill="#E56606"/>
<path d="M68.5168 12.7385L66.3088 18.2079L66.0137 18.1279L67.8323 12.543L68.5168 12.7385Z" fill="#E56606"/>
<path d="M65.768 12.0176L64.8995 17.8514L64.5938 17.8425L65.0569 11.9883L65.768 12.0176Z" fill="#E56606"/>
<path d="M78.1404 21.5385L70.4604 23.1092L70.3706 22.7687L77.9902 20.8594L78.1404 21.5385Z" fill="#E56606"/>
<path d="M77.1524 18.4614L70.019 21.7111L69.8555 21.4L76.8546 17.832L77.1524 18.4614Z" fill="#E56606"/>
<path d="M75.5174 15.7065L69.2578 20.4256L69.0303 20.1571L75.0889 15.1562L75.5174 15.7065Z" fill="#E56606"/>
<path d="M73.2951 13.3928L68.2169 19.3634L67.936 19.1519L72.7574 12.9492L73.2951 13.3928Z" fill="#E56606"/>
<path d="M70.5829 11.5657L67.0478 18.5622L66.7251 18.4226L69.9562 11.2617L70.5829 11.5657Z" fill="#E56606"/>
<path d="M67.5694 10.4187L65.6423 18.0169L65.2974 17.9503L66.892 10.2578L67.5694 10.4187Z" fill="#E56606"/>
<path d="M63.6699 9.98545L63.8868 17.821L64.2388 17.8317L64.3659 9.97656L63.6699 9.98545Z" fill="#E56606"/>
<path d="M44.1923 20.8C44.1125 20.7885 44.0313 20.8089 43.9665 20.8569C43.9334 20.8784 43.9053 20.9067 43.884 20.9398C43.8627 20.973 43.8487 21.0103 43.8429 21.0493C43.8371 21.0883 43.8396 21.1281 43.8504 21.166C43.8611 21.204 43.8798 21.2392 43.9052 21.2694C43.9535 21.334 44.0254 21.3768 44.1052 21.3885C44.2918 21.416 44.4003 21.3325 44.4296 21.136C44.459 20.9396 44.379 20.8276 44.1923 20.8Z" fill="#009B3E"/>
<path d="M44.2807 20.1984C44.2011 20.1871 44.1201 20.2072 44.055 20.2544C44.0221 20.2761 43.9942 20.3045 43.9729 20.3376C43.9517 20.3708 43.9376 20.408 43.9316 20.4469C43.9255 20.4858 43.9277 20.5256 43.9379 20.5636C43.9482 20.6016 43.9662 20.6371 43.991 20.6677C44.0151 20.7 44.0455 20.7272 44.0803 20.7477C44.1151 20.7681 44.1536 20.7814 44.1936 20.7868C44.3803 20.8144 44.4887 20.7308 44.5181 20.5344C44.5317 20.4573 44.5148 20.3779 44.471 20.3131C44.4494 20.2814 44.4212 20.2548 44.3884 20.235C44.3555 20.2152 44.3188 20.2027 44.2807 20.1984Z" fill="#009B3E"/>
<path d="M47.912 19.065C47.7156 19.0107 47.5902 19.0783 47.5378 19.2703C47.526 19.3081 47.5226 19.348 47.5277 19.3873C47.5327 19.4265 47.5462 19.4642 47.5671 19.4978C47.5874 19.5325 47.6143 19.5627 47.6463 19.5868C47.6784 19.6109 47.7149 19.6284 47.7538 19.6383C47.7919 19.6499 47.832 19.6534 47.8715 19.6485C47.911 19.6436 47.949 19.6304 47.9831 19.6098C48.0169 19.5908 48.0467 19.5653 48.0706 19.5348C48.0945 19.5043 48.1122 19.4694 48.1227 19.4321C48.134 19.3945 48.1374 19.355 48.1328 19.316C48.1283 19.277 48.1157 19.2394 48.096 19.2054C48.0764 19.1708 48.05 19.1405 48.0184 19.1163C47.9868 19.0922 47.9506 19.0747 47.912 19.065Z" fill="#009B3E"/>
<path d="M47.7499 19.6501C47.6731 19.6266 47.59 19.6343 47.5188 19.6715C47.4836 19.6889 47.4527 19.7138 47.4282 19.7445C47.4038 19.7753 47.3865 19.811 47.3775 19.8492C47.3667 19.8876 47.364 19.9278 47.3695 19.9672C47.375 20.0067 47.3886 20.0446 47.4095 20.0786C47.4278 20.1135 47.4531 20.1444 47.4838 20.1693C47.5144 20.1942 47.5498 20.2126 47.5878 20.2234C47.6258 20.2342 47.6656 20.2372 47.7047 20.2322C47.7439 20.2271 47.7817 20.2142 47.8157 20.1941C47.8505 20.1759 47.8814 20.1508 47.9063 20.1204C47.9312 20.0899 47.9497 20.0547 47.9607 20.0169C47.9716 19.9792 47.9748 19.9395 47.9701 19.9005C47.9653 19.8614 47.9527 19.8237 47.933 19.7897C47.9136 19.7552 47.8873 19.7251 47.8558 19.7011C47.8243 19.6771 47.7883 19.6597 47.7499 19.6501Z" fill="#009B3E"/>
<path d="M46.1725 15.089C46.2064 15.1065 46.2437 15.1167 46.2818 15.1188C46.32 15.121 46.3581 15.115 46.3938 15.1015C46.4315 15.0914 46.4666 15.0737 46.4972 15.0496C46.5278 15.0254 46.5531 14.9953 46.5716 14.961C46.6026 14.9011 46.6158 14.8336 46.6098 14.7664C46.6102 14.7341 46.6021 14.7024 46.5866 14.6742C46.571 14.646 46.5484 14.6223 46.5209 14.6055C46.5039 14.5894 46.4854 14.5748 46.4658 14.5619C46.6365 14.6087 46.7618 14.5699 46.8418 14.4455C46.8649 14.4117 46.8803 14.3732 46.8869 14.3328C46.8935 14.2924 46.8912 14.2511 46.88 14.2117C46.8713 14.1719 46.8538 14.1345 46.8289 14.1022C46.8041 14.07 46.7723 14.0436 46.7361 14.025C46.7006 14.0057 46.6617 13.9937 46.6215 13.9897C46.5813 13.9858 46.5408 13.9899 46.5023 14.0019C46.4644 14.0119 46.429 14.0298 46.3984 14.0543C46.3678 14.0788 46.3426 14.1094 46.3245 14.1441C46.2552 14.2748 46.2916 14.4108 46.432 14.5441C46.246 14.4944 46.1165 14.5382 46.0436 14.6757C46.0253 14.7112 46.0144 14.7502 46.0118 14.7901C46.0092 14.83 46.0149 14.8701 46.0285 14.9077C46.0506 14.9848 46.1024 15.05 46.1725 15.089Z" fill="#009B3E"/>
<path d="M49.817 14.9168C49.7513 14.8716 49.6706 14.8541 49.5921 14.8679C49.5536 14.8741 49.5168 14.8885 49.4843 14.9101C49.4518 14.9317 49.4243 14.9601 49.4037 14.9932C49.3696 15.0422 49.3512 15.1002 49.3506 15.1598C49.35 15.2194 49.3674 15.2778 49.4005 15.3274C49.4336 15.377 49.4809 15.4155 49.5361 15.4378C49.5914 15.4602 49.6521 15.4654 49.7103 15.4528C49.7491 15.4466 49.7862 15.4324 49.8193 15.4111C49.8523 15.3898 49.8806 15.362 49.9023 15.3292C49.9242 15.2965 49.9393 15.2597 49.9467 15.2211C49.9541 15.1824 49.9537 15.1426 49.9454 15.1041C49.9371 15.0656 49.9211 15.0292 49.8985 14.997C49.8758 14.9648 49.8469 14.9375 49.8134 14.9168H49.817Z" fill="#009B3E"/>
<path d="M50.1511 14.4105C49.9822 14.2996 49.8432 14.3269 49.7342 14.4922C49.7118 14.5248 49.6964 14.5617 49.689 14.6006C49.6817 14.6395 49.6825 14.6795 49.6915 14.718C49.6998 14.7568 49.7158 14.7936 49.7386 14.8261C49.7613 14.8586 49.7903 14.8862 49.824 14.9073C49.8567 14.9288 49.8935 14.9435 49.932 14.9506C49.9705 14.9577 50.01 14.9571 50.0483 14.9488C50.0866 14.9406 50.1228 14.9248 50.155 14.9024C50.1871 14.88 50.2145 14.8515 50.2355 14.8185C50.2577 14.7861 50.2732 14.7496 50.281 14.7112C50.2888 14.6728 50.2887 14.6331 50.2808 14.5947C50.273 14.5563 50.2574 14.5198 50.2351 14.4876C50.2128 14.4553 50.1842 14.4279 50.1511 14.4069V14.4105Z" fill="#009B3E"/>
<path d="M50.962 13.3089C50.9314 13.284 50.8962 13.2654 50.8583 13.2543C50.8205 13.2431 50.7808 13.2396 50.7416 13.244C50.6826 13.2485 50.6264 13.2708 50.5803 13.3078C50.5342 13.3449 50.5004 13.395 50.4832 13.4516C50.4661 13.5083 50.4665 13.5687 50.4844 13.6251C50.5023 13.6815 50.5368 13.7311 50.5834 13.7676C50.6449 13.8182 50.7234 13.8436 50.8029 13.8387C50.8426 13.838 50.8816 13.8285 50.9171 13.8108C50.9527 13.7931 50.9838 13.7677 51.0082 13.7365C51.033 13.7053 51.0512 13.6695 51.0617 13.6312C51.0722 13.5928 51.0749 13.5528 51.0696 13.5134C51.0667 13.4737 51.0557 13.4351 51.0372 13.3999C51.0187 13.3647 50.9931 13.3337 50.962 13.3089Z" fill="#009B3E"/>
<path d="M55.2303 6.43637C55.2471 6.46988 55.271 6.49932 55.3003 6.52266C55.3296 6.54599 55.3637 6.56265 55.4001 6.57148C55.4736 6.59376 55.5528 6.58708 55.6214 6.55281C55.6576 6.53568 55.6895 6.51091 55.7152 6.48022C55.7408 6.44953 55.7595 6.41364 55.7699 6.37503C55.7942 6.2995 55.7878 6.21745 55.7521 6.14659C55.7359 6.11124 55.7124 6.07973 55.6832 6.05414C55.6539 6.02855 55.6195 6.00946 55.5823 5.99815C55.5451 5.98633 55.5059 5.98205 55.4669 5.98556C55.428 5.98907 55.3902 6.0003 55.3557 6.01859C55.2899 6.05206 55.2376 6.10693 55.2072 6.17414C55.1899 6.20514 55.1805 6.2399 55.1797 6.27537C55.179 6.31085 55.1869 6.34598 55.2028 6.3777L55.2303 6.43637Z" fill="#009B3E"/>
<path d="M54.8525 6.82985C54.8891 6.8436 54.9281 6.84975 54.9671 6.8479C55.0062 6.84606 55.0444 6.83626 55.0795 6.81912C55.1147 6.80198 55.1459 6.77785 55.1714 6.74821C55.1968 6.71856 55.216 6.68403 55.2276 6.64673C55.2399 6.60884 55.2445 6.56889 55.2411 6.52921C55.2378 6.48953 55.2265 6.45091 55.2081 6.41562C55.1216 6.2414 54.9894 6.19844 54.8116 6.28673C54.7763 6.30375 54.7447 6.32768 54.7188 6.35712C54.6928 6.38655 54.6731 6.4209 54.6606 6.45811C54.6482 6.49532 54.6434 6.53465 54.6464 6.57377C54.6494 6.61289 54.6603 6.651 54.6783 6.68584C54.6959 6.72051 54.7205 6.75118 54.7505 6.77596C54.7804 6.80073 54.8152 6.81907 54.8525 6.82985Z" fill="#009B3E"/>
<path d="M56.5884 5.36289C57.1443 6.54808 57.4204 7.13652 57.4169 7.12822L56.9075 7.32378L56.6835 7.42156L56.5715 7.47756C56.5663 7.47079 56.5621 7.4633 56.5591 7.45534L55.9546 6.49623C55.8089 6.866 55.7262 7.08467 55.7075 7.15045L55.7271 7.20467C55.768 7.30254 55.8212 7.39483 55.8853 7.47934L56.0631 7.73178L55.2649 8.12378L55.1831 8.16556L55.0729 8.06689C54.8649 7.90156 54.6871 7.80734 54.5395 7.786C54.3538 7.75578 54.1582 7.818 53.9511 7.97178L51.8506 9.538C51.7753 9.59237 51.7174 9.66739 51.6838 9.75399C51.6502 9.84059 51.6424 9.93506 51.6613 10.026L50.2631 8.48911C50.2181 8.92289 50.1949 9.14274 50.1938 9.14867L50.2346 9.21267C51.1235 10.2136 51.6186 10.7522 51.608 10.7389L51.1858 11.1887L51.0666 11.3122L51.0062 11.3771L50.6604 11.7487L50.6302 11.7833L50.4595 11.9611L50.3369 12.1033L50.224 12.234L49.2586 11.6002C49.261 11.8332 49.2764 12.0659 49.3049 12.2971L49.3351 12.3291C49.3567 12.3523 49.3799 12.374 49.4044 12.394C49.4806 12.4514 49.5612 12.5028 49.6453 12.5478C49.7538 12.6082 49.8231 12.6509 49.8658 12.6767L49.4506 13.1904L49.3618 13.2971L49.2853 13.4136L48.2613 12.8802L48.3831 13.5816L48.9858 13.8722L48.5013 14.6091L48.4658 14.6811L47.1511 14.1193C47.1555 14.1549 47.1822 14.2722 47.2311 14.4696C47.28 14.6669 47.3066 14.7691 47.3129 14.7771C47.2132 14.8774 47.1451 15.0047 47.1172 15.1433C47.0892 15.2819 47.1025 15.4256 47.1555 15.5567C47.2322 15.7635 47.3839 15.9339 47.5804 16.034L47.6978 16.0962L47.4435 16.5771L47.3618 16.7629L47.2613 17.0296L47.2044 17.1842L47.0969 17.5069L47.0915 17.522L46.9591 17.8776L46.8178 18.2509C46.8178 18.2509 46.7795 18.3771 46.776 18.3744L45.6409 18.1887L45.9724 18.8189L46.6355 18.9078C46.6355 18.9078 46.344 19.9522 46.3155 20.0678C46.304 20.114 46.2622 20.3629 46.2622 20.3629L44.7324 20.274C44.9609 20.6624 45.1129 20.8589 45.1884 20.866L45.2773 20.8731C45.2384 20.9313 45.2132 20.9976 45.2035 21.0669C45.1924 21.1657 45.2026 21.2657 45.2332 21.3603C45.2639 21.4549 45.3144 21.5418 45.3813 21.6153C45.5007 21.7796 45.6785 21.8919 45.8782 21.9291C46.0791 21.9572 46.2834 21.9124 46.4542 21.8029C46.5405 21.7559 46.6147 21.6896 46.671 21.6091C46.7273 21.5286 46.7642 21.4361 46.7786 21.3389L46.8844 20.6278H46.8933L47.0711 19.8233H47.0666L47.3742 18.7256L47.5875 18.0944L47.7653 17.6136L47.9538 17.1487L48.2053 16.5424L48.9706 15.0918L49.7351 13.93L50.2018 13.3007L50.6524 12.7424L51.0551 12.2847L51.3991 11.9158L52.0071 11.3113C52.3689 10.9513 55.2133 8.90511 55.2133 8.90511L55.5795 8.67934C55.6818 8.61445 56.6809 8.15311 56.6809 8.15311L57.4373 7.82956L57.5546 7.77445C57.7475 7.36823 57.8711 7.09623 57.9226 6.95845L56.8178 4.67578C56.6844 5.05445 56.608 5.28348 56.5884 5.36289ZM47.7191 15.2393C47.7288 15.2143 47.7441 15.1919 47.7638 15.1736C47.7834 15.1553 47.807 15.1418 47.8326 15.1339C47.8583 15.126 47.8854 15.1241 47.9119 15.1282C47.9384 15.1323 47.9637 15.1423 47.9858 15.1576C48.0942 15.2144 48.1173 15.3016 48.0569 15.4171C47.9964 15.5327 47.9111 15.562 47.8026 15.506C47.7775 15.4964 47.7548 15.4813 47.7364 15.4617C47.7179 15.4421 47.7042 15.4186 47.6961 15.393C47.6881 15.3673 47.686 15.3401 47.6899 15.3135C47.6939 15.2869 47.7039 15.2615 47.7191 15.2393ZM46.1902 21.1824C46.1859 21.2084 46.1756 21.233 46.1602 21.2542C46.1448 21.2755 46.1246 21.2929 46.1013 21.3051C46.0577 21.335 46.0043 21.3474 45.952 21.3398C45.8311 21.322 45.7804 21.2509 45.8 21.1193C45.7999 21.0924 45.8062 21.0659 45.8183 21.0418C45.8304 21.0177 45.8479 20.9968 45.8695 20.9808C45.8911 20.9647 45.9161 20.9539 45.9427 20.9492C45.9692 20.9446 45.9964 20.9462 46.0222 20.954C46.0478 20.959 46.0719 20.9695 46.093 20.9849C46.114 21.0003 46.1314 21.0201 46.144 21.0429C46.1784 21.081 46.1963 21.1312 46.1938 21.1824H46.1902ZM52.1458 10.2704C52.1173 10.1336 52.1386 10.0384 52.2098 9.98511L54.2346 8.47934C54.2901 8.44271 54.3541 8.42098 54.4204 8.41623C54.4491 8.40866 54.4792 8.40811 54.5081 8.41461C54.537 8.4211 54.564 8.43446 54.5866 8.45356L52.1458 10.2704Z" fill="#009B3E"/>
<path d="M57.9172 4.30469L57.6123 4.92691L58.6283 7.4158C58.8316 6.98972 58.9237 6.75269 58.9047 6.70469L57.9172 4.30469Z" fill="#009B3E"/>
<path d="M63.1141 5.49969C63.0307 5.42686 62.9329 5.37237 62.8271 5.33975C62.7213 5.30713 62.6098 5.29712 62.4998 5.31035L61.7123 5.38057C61.7158 5.42205 61.7247 5.49939 61.739 5.61257C61.7532 5.72546 61.763 5.81524 61.7692 5.87924C61.8344 6.61169 61.6566 7.03865 61.2358 7.16013C61.4058 7.2151 61.5849 7.23595 61.763 7.22146C62.0563 7.1948 62.2127 7.06858 62.2305 6.84102C62.3629 6.92397 62.5198 6.9591 62.675 6.94057C62.7796 6.93256 62.8815 6.90373 62.9748 6.85576C63.0682 6.8078 63.1509 6.74167 63.2183 6.66127C63.2857 6.58087 63.3364 6.4878 63.3673 6.38755C63.3983 6.2873 63.4089 6.18187 63.3985 6.07746C63.3916 5.96715 63.3629 5.8593 63.3141 5.76014C63.2652 5.66097 63.1973 5.57245 63.1141 5.49969ZM62.6225 6.32546C62.5167 6.33524 62.4447 6.26502 62.4065 6.11569C62.3965 6.08949 62.3879 6.06279 62.3807 6.03569C62.3793 6.0218 62.3793 6.0078 62.3807 5.99391C62.3807 5.97524 62.3807 5.96102 62.3807 5.95213L62.563 5.93613C62.7105 5.9228 62.7896 5.98413 62.8021 6.11835C62.8145 6.25257 62.7567 6.31391 62.6225 6.32546Z" fill="#009B3E"/>
<path d="M73.3777 6.4064C72.8248 7.59159 72.5504 8.18033 72.5546 8.17262L72.3004 8.02862L72.0746 7.91396L71.8177 7.78329L70.3795 7.15218L70.3652 7.11929C70.4541 7.03485 70.6026 7.03751 70.8257 7.12818L70.9261 7.16818L71.0319 7.21085C71.1617 7.2738 71.3059 7.3011 71.4497 7.28996C71.5919 7.26507 71.7018 7.15633 71.7795 6.96374C71.8169 6.88817 71.8385 6.80578 71.8431 6.72158C71.8477 6.63739 71.8351 6.55314 71.8061 6.47396C71.679 6.68729 71.4888 6.74063 71.2337 6.64107C70.7958 6.46329 70.5217 6.3744 70.4115 6.3744C70.1697 6.3744 69.9623 6.55366 69.7892 6.91218L69.0586 6.69262L68.9537 6.65618L68.8524 6.62951C68.8524 6.62951 68.8524 6.60818 68.8524 6.60462L69.2524 4.14062C69.0604 4.27307 68.8648 4.4144 68.6648 4.56196C68.4331 5.85736 68.3181 6.50063 68.3199 6.49174L68.0301 6.41618L67.5679 6.31574H67.5635L67.2746 6.25351L67.0452 6.21174L66.679 6.15129L66.5341 6.1264L66.4275 6.11307L66.2132 6.08196L65.9066 6.03751L65.4835 5.99129L65.391 4.56818L64.8124 5.04018C64.7447 5.01151 64.6724 4.99525 64.599 4.99218C64.4916 4.98677 64.3843 5.0032 64.2835 5.04048C64.1826 5.07776 64.0904 5.13511 64.0124 5.20907C63.9306 5.27863 63.8641 5.36439 63.8171 5.46092C63.7702 5.55746 63.7437 5.66268 63.7395 5.76996C63.7146 6.31336 64.0817 6.59811 64.8408 6.62418C64.8408 6.94062 64.6212 7.22181 64.1821 7.46774L64.2186 7.48818C64.8426 7.42892 65.2126 7.23307 65.3288 6.90062C65.3546 6.81173 65.3768 6.72996 65.3972 6.66329L65.4106 6.65174L65.8026 6.69529L66.3137 6.76818L66.8106 6.84551L67.311 6.9344L67.9066 7.06329L68.591 7.24107C68.591 7.24107 69.0808 7.3664 69.3217 7.44818C69.5626 7.52996 71.0675 8.13529 71.3244 8.25974C71.5812 8.38418 72.0355 8.63129 72.0355 8.63129L72.1492 8.69529C72.5854 8.58329 72.8728 8.50359 73.0115 8.45618L74.0541 6.14507C73.6746 6.28462 73.4515 6.36996 73.3777 6.4064ZM64.527 6.00107C64.4993 6.00397 64.4713 6.00033 64.4453 5.99042C64.4192 5.98052 64.3959 5.96463 64.3771 5.94404C64.3583 5.92345 64.3447 5.89874 64.3372 5.8719C64.3297 5.84506 64.3287 5.81684 64.3341 5.78951C64.3401 5.73723 64.3649 5.68888 64.4038 5.65342C64.4427 5.61796 64.4931 5.59779 64.5457 5.59663C64.5724 5.59875 64.5984 5.6066 64.6219 5.61964C64.6454 5.63267 64.6657 5.65059 64.6817 5.67218C64.7187 5.71273 64.739 5.76574 64.7386 5.82062C64.7324 5.94685 64.6621 6.00729 64.527 6.00107Z" fill="#009B3E"/>
<path d="M73.1318 9.28067C73.5887 9.16422 73.8296 9.08422 73.8536 9.03889L75.0536 6.75L74.3861 6.91356L73.1318 9.28067Z" fill="#009B3E"/>
<path d="M77.7946 10.0081C77.8498 10.0635 77.9244 10.0953 78.0026 10.097C78.0409 10.0977 78.0789 10.0901 78.114 10.0747C78.1492 10.0594 78.1806 10.0367 78.2061 10.0081C78.2617 9.95009 78.2921 9.87243 78.2906 9.7921C78.2919 9.75238 78.2846 9.71284 78.2693 9.67618C78.254 9.63952 78.2309 9.6066 78.2017 9.57966C78.1734 9.5523 78.1398 9.53113 78.1029 9.5175C78.066 9.50388 78.0267 9.49811 77.9875 9.50054C77.947 9.50153 77.9072 9.51052 77.8703 9.527C77.8334 9.54348 77.8001 9.56711 77.7723 9.59654C77.6438 9.73343 77.6512 9.87062 77.7946 10.0081Z" fill="#009B3E"/>
<path d="M77.7634 9.5927C77.8205 9.53491 77.8524 9.45698 77.8523 9.37581C77.854 9.33636 77.8472 9.297 77.8325 9.26037C77.8178 9.22373 77.7954 9.19065 77.7669 9.16332C77.7384 9.136 77.7044 9.11505 77.6672 9.10188C77.63 9.0887 77.5903 9.0836 77.551 9.08692C77.4706 9.08872 77.3942 9.12228 77.3386 9.18025C77.207 9.31714 77.2129 9.45433 77.3563 9.59181C77.4968 9.72692 77.6363 9.72692 77.7634 9.5927Z" fill="#009B3E"/>
<path d="M80.6082 16.214C80.6423 16.1156 80.6559 16.0113 80.6481 15.9075C80.6403 15.8037 80.6113 15.7026 80.5628 15.6104L80.1922 14.8806L79.5913 15.1829C79.5913 15.1829 79.4722 14.9251 79.3646 14.7446C79.1042 14.3002 78.5957 13.614 78.5957 13.614L78.6028 13.5784C78.7214 13.5553 78.8473 13.6442 78.9806 13.8451C78.9931 13.862 79.0126 13.8922 79.0411 13.934L79.1059 14.0282C79.1788 14.1528 79.283 14.2561 79.4082 14.3278C79.5397 14.387 79.6908 14.3574 79.8615 14.2389C79.9343 14.1974 79.9978 14.1413 80.0479 14.0741C80.0981 14.007 80.1339 13.9302 80.1531 13.8486C79.9302 13.9547 79.7415 13.8955 79.5868 13.6709C79.3208 13.2798 79.143 13.0543 79.0535 12.9944C78.8508 12.8617 78.5806 12.8949 78.2428 13.094L77.7557 12.5064L77.7166 12.4584L77.5957 12.318L77.5246 12.2362L77.0882 11.7215L76.9211 11.5375L77.8757 10.3393C77.4277 10.3014 77.1788 10.3112 77.1291 10.3686L77.0722 10.4371C77.047 10.372 77.0075 10.3133 76.9566 10.2655C76.8822 10.1993 76.7943 10.1498 76.6991 10.1205C76.6039 10.0912 76.5034 10.0828 76.4046 10.0958C76.2013 10.098 76.0066 10.1782 75.8606 10.3198C75.722 10.4675 75.6404 10.6597 75.6304 10.862C75.6188 10.9596 75.6301 11.0586 75.6632 11.1511C75.6964 11.2437 75.7506 11.3272 75.8215 11.3953L76.3397 11.8922L76.7939 12.4015L77.1246 12.7838L77.5353 13.2886C77.5353 13.2886 78.6375 14.8318 78.8019 15.1091C78.9246 15.3144 79.0811 15.6424 79.0811 15.6424C79.0293 15.7558 79.0048 15.8797 79.0094 16.0042C79.014 16.1288 79.0477 16.2505 79.1077 16.3598C79.152 16.459 79.2175 16.5473 79.2997 16.6185C79.3819 16.6896 79.4787 16.7418 79.5833 16.7713C79.7953 16.8162 80.0163 16.7827 80.2055 16.6771C80.3012 16.6322 80.3864 16.5678 80.4557 16.488C80.5251 16.4083 80.577 16.3149 80.6082 16.214ZM76.2971 10.998C76.2787 10.9798 76.2647 10.9578 76.2561 10.9334C76.2475 10.9091 76.2445 10.8832 76.2473 10.8575C76.2483 10.8048 76.2685 10.7542 76.3042 10.7153C76.32 10.695 76.3402 10.6786 76.3633 10.6673C76.3864 10.656 76.4118 10.6501 76.4375 10.6501C76.4632 10.6501 76.4886 10.656 76.5117 10.6673C76.5348 10.6786 76.555 10.695 76.5708 10.7153C76.592 10.7315 76.6092 10.7522 76.6213 10.776C76.6333 10.7997 76.6399 10.8259 76.6405 10.8525C76.6411 10.8791 76.6357 10.9055 76.6247 10.9298C76.6137 10.954 76.5975 10.9755 76.5771 10.9926C76.5582 11.01 76.5361 11.0234 76.5119 11.0319C76.4878 11.0405 76.4622 11.0441 76.4366 11.0424C76.3853 11.0476 76.334 11.0327 76.2935 11.0006L76.2971 10.998ZM79.9202 16.1678C79.8064 16.2246 79.7202 16.1926 79.6588 16.0718C79.6444 16.0442 79.6372 16.0134 79.638 15.9823C79.6388 15.9512 79.6475 15.9208 79.6633 15.894C79.6926 15.8347 79.7407 15.7869 79.8002 15.758L79.9131 15.7011L80.0019 15.8789C80.0654 16.0122 80.0369 16.1094 79.9166 16.1704L79.9202 16.1678Z" fill="#009B3E"/>
<path d="M81.3564 19.7758L81.0196 18.5527L80.8747 18.1136L80.7689 17.8087L80.7058 17.6256V17.6176L82.8187 16.5287C82.5372 16.4132 82.3348 16.332 82.2116 16.2852L79.9307 17.4478L80.1004 17.8754L80.3084 18.478L80.5013 19.094L80.9849 21.2816L81.7609 21.8149C81.6744 21.2123 81.6797 20.7444 81.7769 20.4114C81.8616 20.1062 82.0987 19.6955 82.488 19.1794L81.9173 18.8345C81.6935 19.1248 81.5052 19.4408 81.3564 19.7758Z" fill="#009B3E"/>
<path d="M80.2461 19.7128C80.2135 19.6892 80.1765 19.6724 80.1372 19.6635C80.0979 19.6546 80.0572 19.6539 80.0176 19.6613C79.9792 19.669 79.9428 19.6846 79.9107 19.7071C79.8785 19.7296 79.8514 19.7585 79.831 19.792C79.7862 19.8604 79.7702 19.9438 79.7865 20.024C79.7939 20.0633 79.8091 20.1007 79.8312 20.134C79.8534 20.1673 79.882 20.1958 79.9154 20.2177C79.9482 20.2399 79.9851 20.2553 80.024 20.2628C80.0628 20.2704 80.1028 20.27 80.1415 20.2617C80.1802 20.2534 80.2168 20.2373 80.2492 20.2145C80.2815 20.1917 80.3089 20.1625 80.3296 20.1288C80.3536 20.0979 80.3707 20.0623 80.3799 20.0243C80.3891 19.9863 80.3901 19.9468 80.383 19.9084C80.3745 19.8683 80.3581 19.8302 80.3345 19.7966C80.311 19.763 80.2809 19.7345 80.2461 19.7128Z" fill="#009B3E"/>
<path d="M44.7536 28.68L44.646 28.2969L47.422 28.5698L47.5216 28.9253L45.2931 30.6053L45.182 30.2071L45.8336 29.7289L45.5607 28.7573L44.7536 28.68ZM46.9998 28.8809L45.9491 28.792L46.1491 29.5031L46.9998 28.8809Z" fill="#E63329" stroke="#E63329" stroke-width="0.08"/>
<path d="M45.457 30.9911L47.857 30L48.0873 30.5573C48.185 30.7938 48.2499 30.9804 48.2224 31.1733C48.2015 31.3016 48.1476 31.4221 48.0659 31.5232C47.9843 31.6242 47.8776 31.7021 47.7566 31.7493C47.3237 31.9271 46.8961 31.744 46.6775 31.216L46.5637 30.9369L45.5975 31.3351L45.457 30.9911ZM46.9904 31.0578C47.1317 31.3991 47.3095 31.5236 47.593 31.4062C47.8766 31.2889 47.9273 31.0747 47.7886 30.7404L47.6801 30.4738L46.8864 30.8009L46.9904 31.0578Z" fill="#E63329" stroke="#E63329" stroke-width="0.08"/>
<path d="M46.3145 32.9671L48.5945 31.7227L48.8833 32.256C49.0069 32.48 49.0913 32.6587 49.086 32.8533C49.0785 32.9828 49.0377 33.1081 48.9674 33.2172C48.8972 33.3262 48.7999 33.4152 48.6851 33.4755C48.2745 33.7004 47.8291 33.5644 47.5545 33.0613L47.4105 32.7947L46.4931 33.296L46.3145 32.9671ZM47.8469 32.8667C48.0247 33.1902 48.214 33.2951 48.4833 33.1475C48.7527 33 48.7793 32.7813 48.6051 32.464L48.4682 32.2142L47.7189 32.6258L47.8469 32.8667Z" fill="#E63329" stroke="#E63329" stroke-width="0.08"/>
<path d="M47.3857 34.8317L49.5306 33.3633L49.7431 33.6744L47.8969 34.9393L48.3777 35.6424L48.0826 35.8451L47.3857 34.8317Z" fill="#E63329" stroke="#E63329" stroke-width="0.08"/>
<path d="M48.438 36.304L50.4691 34.6836L50.7038 34.9778L48.6727 36.5991L48.438 36.304Z" fill="#E63329" stroke="#E63329" stroke-width="0.08"/>
<path d="M49.1343 37.1567L51.0294 35.3789L51.9521 36.3629L51.6987 36.6002L51.0338 35.8891L50.4685 36.4225L51.1334 37.1336L50.8854 37.3665L50.2205 36.6553L49.6525 37.1887L50.3183 37.8998L50.0569 38.1451L49.1343 37.1567Z" fill="#E63329" stroke="#E63329" stroke-width="0.08"/>
<path d="M50.5635 38.6504L52.231 36.6602L52.8728 37.1935C53.479 37.6993 53.5297 38.4379 53.0355 39.0344C52.908 39.1963 52.7429 39.3245 52.5545 39.4078C52.3661 39.4912 52.1601 39.5272 51.9546 39.5126C51.6124 39.4886 51.3893 39.3402 51.1253 39.1197L50.5635 38.6504ZM51.4177 38.9108C51.8621 39.2859 52.3724 39.2326 52.7404 38.7926C53.1084 38.3526 53.0737 37.8228 52.5804 37.4104L52.2826 37.1624L51.0675 38.6157L51.4177 38.9108Z" fill="#E63329" stroke="#E63329" stroke-width="0.08"/>
<path d="M54.3743 40.532C54.2499 40.7765 54.3112 41.0031 54.5121 41.116C54.7387 41.2423 54.9699 41.1747 55.1014 40.9383C55.2419 40.6867 55.1423 40.5427 54.9361 40.3276C54.7992 40.1916 54.6596 40.0805 54.6267 39.8103C54.6065 39.6681 54.6343 39.5232 54.7059 39.3987C54.9236 39.0094 55.3219 38.8885 55.6952 39.0974C56.0401 39.2903 56.145 39.6414 55.9547 40.0334L55.6481 39.8591C55.6709 39.8198 55.6857 39.7763 55.6916 39.7312C55.6974 39.6861 55.6942 39.6402 55.6821 39.5963C55.67 39.5525 55.6493 39.5115 55.6212 39.4757C55.5931 39.4399 55.5581 39.4101 55.5183 39.388C55.3325 39.2849 55.1334 39.3578 55.0259 39.5489C54.9879 39.6148 54.9747 39.692 54.9885 39.7667C55.0214 39.9312 55.1805 40.0334 55.3299 40.196C55.5645 40.4734 55.6027 40.78 55.4347 41.0796C55.193 41.5134 54.7583 41.66 54.3441 41.4289C53.961 41.2147 53.8463 40.7907 54.0774 40.3623L54.3743 40.532Z" fill="#E63329" stroke="#E63329" stroke-width="0.08"/>
<path d="M56.6971 42.5528C56.5232 42.4852 56.3663 42.3803 56.2375 42.2454C56.1086 42.1106 56.0109 41.9491 55.9513 41.7724C55.8398 41.4539 55.8508 41.1053 55.9824 40.7946C56.0491 40.6289 56.1483 40.4783 56.2743 40.3517C56.4003 40.2252 56.5504 40.1252 56.7157 40.0577C56.8721 39.9899 57.0406 39.9544 57.211 39.9532C57.3814 39.9519 57.5504 39.9851 57.7077 40.0506C58.2028 40.2488 58.4944 40.6497 58.5131 41.1537L58.1024 40.9893C58.0684 40.8539 58.0014 40.7291 57.9074 40.626C57.8134 40.5228 57.6953 40.4446 57.5637 40.3982C57.4527 40.3529 57.3336 40.3306 57.2137 40.3326C57.0937 40.3346 56.9755 40.3608 56.8659 40.4097C56.6306 40.515 56.4442 40.7059 56.3443 40.9435C56.2445 41.1812 56.2387 41.4479 56.3282 41.6897C56.3741 41.8058 56.4427 41.9116 56.53 42.0009C56.6173 42.0902 56.7216 42.1612 56.8366 42.2097C56.959 42.2651 57.093 42.29 57.2271 42.2821C57.3612 42.2742 57.4914 42.2338 57.6064 42.1644L58.0375 42.3422C57.859 42.5042 57.637 42.6105 57.3988 42.648C57.1606 42.6854 56.9167 42.6523 56.6971 42.5528Z" fill="#E63329" stroke="#E63329" stroke-width="0.08"/>
<path d="M58.4321 43.1011L59.1432 40.6016L59.5059 40.7047L58.7948 43.2042L58.4321 43.1011Z" fill="#E63329" stroke="#E63329" stroke-width="0.08"/>
<path d="M59.4985 43.3931L60.0043 40.8438L61.327 41.106L61.2594 41.4473L60.3056 41.258L60.1554 42.018L61.1083 42.2073L61.0425 42.5406L60.0888 42.3513L59.9376 43.1149L60.8905 43.3042L60.8212 43.6598L59.4985 43.3931Z" fill="#E63329" stroke="#E63329" stroke-width="0.08"/>
<path d="M61.5464 43.7756L61.7384 41.1836L62.1251 41.2129L63.2513 43.268L63.3793 41.3063L63.7508 41.3338L63.5579 43.9249L63.1971 43.8983L62.0459 41.7818L61.9215 43.8032L61.5464 43.7756Z" fill="#E63329" stroke="#E63329" stroke-width="0.08"/>
<path d="M65.4971 43.9059C65.3112 43.9212 65.1241 43.8954 64.9493 43.8303C64.7744 43.7652 64.6161 43.6623 64.4855 43.529C64.2455 43.2909 64.1031 42.9716 64.0864 42.6339C64.0736 42.4556 64.0969 42.2765 64.155 42.1074C64.213 41.9383 64.3046 41.7827 64.4242 41.6499C64.5356 41.521 64.6716 41.4158 64.8242 41.3404C64.9769 41.265 65.1431 41.2209 65.3131 41.2107C65.8464 41.1743 66.2829 41.4072 66.5184 41.8525L66.074 41.8827C65.9842 41.7761 65.8695 41.6933 65.74 41.6416C65.6105 41.59 65.4703 41.5711 65.3318 41.5867C65.2122 41.5945 65.0954 41.6264 64.9885 41.6805C64.8816 41.7346 64.7867 41.8097 64.7095 41.9014C64.5437 42.0989 64.4591 42.352 64.473 42.6095C64.4869 42.867 64.5981 43.1096 64.7842 43.2881C64.876 43.3725 64.9838 43.4378 65.1012 43.4799C65.2186 43.522 65.3432 43.5402 65.4678 43.5334C65.6022 43.5302 65.7338 43.4943 65.8512 43.4287C65.9686 43.3632 66.0682 43.2701 66.1415 43.1574L66.6047 43.1245C66.5166 43.3487 66.3647 43.5422 66.1679 43.681C65.971 43.8199 65.7379 43.8981 65.4971 43.9059Z" fill="#E63329" stroke="#E63329" stroke-width="0.08"/>
<path d="M67.2986 43.6502L66.7866 41.1026L68.1084 40.8359L68.1768 41.1764L67.224 41.3693L67.3768 42.1284L68.3297 41.9373L68.3964 42.2706L67.4435 42.4617L67.5973 43.2253L68.5502 43.0333L68.6204 43.3844L67.2986 43.6502Z" fill="#E63329" stroke="#E63329" stroke-width="0.08"/>
<path d="M69.9619 40.2667L70.5717 41.8019C70.7291 42.1992 70.8917 42.3512 71.2348 42.2152C71.5575 42.0872 71.5717 41.865 71.4126 41.4676L70.8037 39.9325L71.1531 39.793L71.7611 41.3254C71.8615 41.577 71.9246 41.7752 71.8828 41.977C71.8576 42.1097 71.7974 42.2332 71.7085 42.3349C71.6196 42.4367 71.5052 42.5128 71.3771 42.5556C71.0748 42.6756 70.8295 42.6623 70.5833 42.497C70.3895 42.3654 70.3122 42.1716 70.2188 41.9379L69.6108 40.4054L69.9619 40.2667Z" fill="#E63329" stroke="#E63329" stroke-width="0.08"/>
<path d="M72.7574 41.916L71.4961 39.644L71.8348 39.4564L73.905 40.556L72.9343 38.8457L73.2605 38.668L74.5219 40.94L74.2054 41.1177L72.0819 39.9809L73.0872 41.7382L72.7574 41.916Z" fill="#E63329" stroke="#E63329" stroke-width="0.08"/>
<path d="M75.1181 40.5209L73.6426 38.3822L73.9519 38.168L75.4275 40.3031L75.1181 40.5209Z" fill="#E63329" stroke="#E63329" stroke-width="0.08"/>
<path d="M76.5628 39.4445L74.1353 38.081L74.4428 37.8267L76.2259 38.8658L75.5415 36.9156L75.8455 36.6641L76.7344 39.3023L76.5628 39.4445Z" fill="#E63329" stroke="#E63329" stroke-width="0.08"/>
<path d="M77.8027 38.358L75.936 36.5509L76.8747 35.582L77.1245 35.8229L76.4489 36.5216L77.0054 37.0603L77.6818 36.3616L77.9254 36.598L77.2498 37.2967L77.8089 37.838L78.4854 37.1394L78.7423 37.3883L77.8027 38.358Z" fill="#E63329" stroke="#E63329" stroke-width="0.08"/>
<path d="M79.2278 36.835L77.1709 35.2457L77.6287 34.6528C78.0153 34.1524 78.4571 34.0777 78.882 34.4066C78.9615 34.465 79.0286 34.5387 79.0793 34.6233C79.13 34.7079 79.1633 34.8018 79.1773 34.8995C79.1913 34.9972 79.1856 35.0966 79.1607 35.1921C79.1358 35.2876 79.0921 35.3771 79.0322 35.4555L80.2767 35.4812L79.986 35.8572L78.5042 35.8021L79.4589 36.539L79.2278 36.835ZM78.5869 35.619C78.9016 35.2119 78.9282 34.9079 78.6536 34.6964C78.3789 34.4848 78.13 34.5781 77.8536 34.9399L77.6749 35.1639L78.4651 35.7737L78.5869 35.619Z" fill="#E63329" stroke="#E63329" stroke-width="0.08"/>
<path d="M80.0835 34.3947C80.3235 34.528 80.5528 34.4756 80.6719 34.2791C80.8079 34.0569 80.7483 33.824 80.5181 33.6836C80.271 33.5325 80.1235 33.6267 79.8959 33.8249C79.7555 33.9574 79.639 34.0916 79.3679 34.1147C79.2248 34.1293 79.081 34.0958 78.959 34.0196C78.5786 33.7867 78.4737 33.384 78.6924 33.0196C78.8986 32.6827 79.2541 32.5911 79.6381 32.7956L79.4604 33.0951C79.4218 33.0709 79.3789 33.0545 79.334 33.0471C79.2891 33.0396 79.2431 33.0412 79.1989 33.0517C79.1546 33.0622 79.1128 33.0815 79.0761 33.1083C79.0393 33.1351 79.0083 33.1691 78.9848 33.208C78.8746 33.3858 78.9395 33.5911 79.1261 33.7049C79.1901 33.746 79.2669 33.7624 79.3421 33.7511C79.5084 33.7245 79.6088 33.5734 79.7866 33.4267C80.0728 33.2027 80.3804 33.1769 80.6755 33.3556C81.0995 33.6143 81.2292 34.0534 80.9821 34.4596C80.7537 34.8338 80.3252 34.9316 79.9066 34.6845L80.0835 34.3947Z" fill="#E63329" stroke="#E63329" stroke-width="0.08"/>
<path d="M81.6259 33.2181L79.3086 32.043L79.4784 31.707L81.7966 32.8821L81.6259 33.2181Z" fill="#E63329" stroke="#E63329" stroke-width="0.08"/>
<path d="M82.2081 31.9586L80.137 31.0857L79.9486 31.5301L79.6304 31.3968L80.1539 30.1523L80.4775 30.2883L80.2882 30.7328L82.3602 31.6057L82.2081 31.9586Z" fill="#E63329" stroke="#E63329" stroke-width="0.08"/>
<path d="M83.0367 29.6504L82.9238 30.0059L82.01 29.7259L80.2056 29.9926L80.3318 29.5908L81.6945 29.4201L80.6722 28.5028L80.7967 28.1055L82.1433 29.3704L83.0367 29.6504Z" fill="#E63329" stroke="#E63329" stroke-width="0.08"/>
<path d="M67.8694 27.4496C67.1138 28.3509 64.7805 27.6389 62.6587 25.8585C60.5369 24.078 59.4303 21.9038 60.1867 21.0034C60.9432 20.1029 63.2756 20.814 65.3974 22.5945C67.5192 24.3749 68.6258 26.5483 67.8694 27.4496Z" stroke="#163072" stroke-width="0.533333"/>
<path d="M60.2471 27.5212C59.4737 26.6323 60.5404 24.4403 62.6284 22.6198C64.7164 20.7994 67.0355 20.0421 67.808 20.931C68.5804 21.8198 67.5155 24.0118 65.4275 25.8314C63.3395 27.651 61.0204 28.4074 60.2471 27.5212Z" stroke="#163072" stroke-width="0.533333"/>
<path d="M71.2854 36.3272L71.745 36.041C71.7352 35.9628 71.721 35.881 71.7032 35.7984C71.6839 35.6797 71.6445 35.5652 71.5868 35.4597C71.5444 35.3953 71.4915 35.3385 71.4303 35.2917C71.37 35.2416 71.3006 35.2036 71.2259 35.1797L71.1957 35.585C71.2923 35.6121 71.3805 35.6635 71.4517 35.7344L70.9637 36.0304C70.9637 36.0304 70.7317 36.161 70.7334 36.1655C70.6343 36.0439 70.5138 35.9415 70.3779 35.8632L70.289 36.2259C70.378 36.2672 70.4604 36.3214 70.5334 36.3868C70.6113 36.4525 70.6806 36.5278 70.7397 36.6108C70.704 36.7076 70.6523 36.7978 70.5868 36.8775C70.5313 36.9467 70.4624 37.0038 70.3841 37.0455C70.3384 37.0713 70.2877 37.087 70.2354 37.0914C70.1831 37.0959 70.1304 37.089 70.081 37.0712C69.978 37.0242 69.8965 36.9401 69.8525 36.8357C69.7928 36.7104 69.7432 36.5805 69.7041 36.4472C69.7174 36.777 69.7645 37.0259 69.849 37.193C69.9078 37.3174 70.0137 37.4133 70.1432 37.4597C70.2047 37.4827 70.2704 37.4924 70.336 37.4883C70.4016 37.4842 70.4655 37.4662 70.5237 37.4357C70.6195 37.3852 70.7053 37.3178 70.777 37.2366C70.8637 37.1437 70.9381 37.04 70.9983 36.9281L70.9681 36.7415L70.9219 36.5352L71.2854 36.3272Z" fill="#241F0C"/>
<path d="M70.0613 35.8971L69.7129 35.8047L69.6187 36.0616L69.9671 36.1514L70.0613 35.8971Z" fill="#241F0C"/>
<path d="M71.7406 36.4921L71.5477 36.4636L71.4668 36.7321L71.825 36.7934L71.8775 36.6103L72.0712 36.6405L72.1415 36.3792L71.7921 36.3125L71.7406 36.4921Z" fill="#241F0C"/>
<path d="M75.2588 33.2398L75.2783 33.5073L75.6339 33.4487L75.6143 33.1758L75.2588 33.2398Z" fill="#241F0C"/>
<path d="M75.6437 31.9386L75.5353 31.7902C75.5164 31.7622 75.4947 31.7362 75.4704 31.7128C75.4481 31.6951 75.4224 31.6737 75.3886 31.6497L75.3744 31.64L75.3157 31.6079L75.2393 31.5644L74.857 31.3368L74.9068 31.3057L74.7397 31.0391L74.513 31.1804L74.4553 31.2124C74.436 31.2231 74.4142 31.2283 74.3921 31.2275C74.3763 31.2266 74.3606 31.223 74.3459 31.2168C74.3297 31.2092 74.3145 31.1997 74.3006 31.1884L74.3948 31.424L74.4153 31.4755C74.4226 31.5009 74.4375 31.5236 74.4579 31.5404C74.4744 31.5506 74.4936 31.5551 74.5129 31.5534C74.5321 31.5516 74.5503 31.5436 74.5646 31.5306L74.5779 31.5208L75.3779 31.9919L75.0784 32.4195L74.9095 32.6257L74.5095 32.4551L74.5442 32.8106L74.7059 32.8764C74.7059 32.8764 74.5513 33.1013 74.4473 33.2222C74.3581 33.3331 74.26 33.4365 74.1539 33.5315L74.1193 33.3448L74.0882 33.3715C74.0353 33.4161 73.9798 33.4573 73.9219 33.4951C73.8786 33.5238 73.8338 33.5502 73.7877 33.5742C73.7251 33.6052 73.6604 33.6317 73.5939 33.6533C73.505 33.6844 73.4295 33.712 73.3566 33.7324L73.145 33.7937C73.0764 33.8091 73.0121 33.8394 72.9566 33.8826C72.9366 33.9045 72.9211 33.9301 72.9112 33.9581C72.9013 33.986 72.8971 34.0157 72.8988 34.0453V34.2026C72.8988 34.2426 72.8988 34.2773 72.8988 34.3031C72.8988 34.3288 72.8988 34.3591 72.9077 34.4044C72.9159 34.3918 72.9233 34.3787 72.9299 34.3653C72.9412 34.3501 72.9537 34.3358 72.9673 34.3226C72.9921 34.2994 73.0199 34.2797 73.0499 34.2639C73.0816 34.2456 73.1153 34.231 73.1504 34.2204L73.2748 34.1902C73.3041 34.184 73.3424 34.1759 73.3913 34.1635C73.4305 34.1529 73.4691 34.1398 73.5068 34.1244L73.5628 34.1022C73.5628 34.1022 73.1184 34.5466 72.9157 34.7111C72.713 34.8755 72.4553 35.0551 72.4553 35.0551L72.3317 35.1386H72.3246C72.2799 35.1053 72.2327 35.0755 72.1833 35.0497C72.137 35.0257 72.0801 35.0035 72.017 34.9768L71.9806 34.9617L71.9521 35.3173C71.9824 35.3215 72.0122 35.3287 72.041 35.3386C72.0677 35.3484 72.1024 35.3617 72.1433 35.3795C72.1842 35.3973 72.2206 35.4124 72.2499 35.4266C72.2851 35.4429 72.3192 35.4613 72.3521 35.4817L72.3575 35.5102C72.3686 35.5736 72.3745 35.6378 72.3753 35.7022C72.373 35.7538 72.3628 35.8048 72.345 35.8533C72.3266 35.9081 72.3012 35.9604 72.2695 36.0088C72.241 36.0531 72.2049 36.0919 72.1628 36.1235C72.1346 36.1423 72.1049 36.1587 72.0739 36.1724C72.0369 36.1895 71.9989 36.2044 71.9602 36.2168C72.0767 36.2688 72.1995 36.3055 72.3255 36.3262C72.3981 36.3442 72.4748 36.3354 72.5415 36.3013C72.6126 36.2506 72.6517 36.1431 72.657 35.9786C72.6546 35.8139 72.6246 35.6507 72.5681 35.496V35.488L72.8588 35.2684L73.009 35.1457L73.6375 34.6124L73.6855 34.5662C73.7084 34.5454 73.729 34.5221 73.7468 34.4968C73.7592 34.4799 73.7652 34.4591 73.7637 34.4382L73.7735 34.344C73.7785 34.2532 73.8063 34.1651 73.8544 34.088C73.8849 34.0465 73.9191 34.0078 73.9566 33.9724L74.0046 33.9262L74.0179 33.9173C74.0598 33.958 74.116 33.9806 74.1744 33.9804C74.2131 33.985 74.2523 33.9782 74.2873 33.9608C74.335 33.9318 74.3789 33.8969 74.4179 33.8568L74.7735 33.4497L75.0179 33.1484L74.9824 32.9937L75.1059 33.0417L75.4073 32.6711L75.4793 32.5822L75.7761 32.144C75.7495 32.1013 75.7344 32.0737 75.729 32.0675C75.713 32.0382 75.6846 31.992 75.6437 31.9386Z" fill="#241F0C"/>
<path d="M75.9946 31.3725C75.9001 31.2562 75.7846 31.1589 75.6541 31.0854L75.5377 31.0196C75.4817 30.9876 75.4381 30.9609 75.4043 30.9431L75.2266 30.8471L75.2008 30.8311L75.1759 30.7422L74.7314 30.5547L74.8994 31.048L74.9501 31.0729L75.2612 31.2382L75.6621 31.4542C75.6914 31.4694 75.735 31.496 75.7981 31.5316C75.8612 31.5671 75.9074 31.5938 75.9359 31.6116C75.9643 31.6294 76.0097 31.6569 76.0523 31.6862L76.159 31.7618C76.1325 31.6218 76.0765 31.489 75.9946 31.3725Z" fill="#241F0C"/>
<path d="M52.4444 31.4393C52.3974 31.4698 52.3428 31.4866 52.2868 31.4879C52.2307 31.4891 52.1755 31.4748 52.1271 31.4464C52.1445 31.5198 52.1369 31.597 52.1055 31.6656C52.0741 31.7342 52.0207 31.7903 51.9538 31.8251C51.8994 31.8597 51.8384 31.8824 51.7746 31.8915C51.7109 31.9007 51.6459 31.8963 51.584 31.8784C51.4471 31.8322 51.3742 31.7362 51.2915 31.5993L51.1138 31.3078L52.3769 30.5469L52.5404 30.8189C52.7067 31.0909 52.6684 31.3051 52.4444 31.4393ZM51.4818 31.5282C51.5813 31.6935 51.6889 31.7398 51.824 31.6589C51.9591 31.578 51.992 31.4438 51.8933 31.2802L51.8044 31.1362L51.392 31.3842L51.4818 31.5282ZM51.9947 31.106C52.1004 31.2838 52.1964 31.3398 52.336 31.2553C52.4551 31.1833 52.4649 31.0775 52.3751 30.93L52.3164 30.8322L51.9609 31.0473L51.9947 31.106Z" fill="#241F0C" stroke="#241F0C" stroke-width="0.08"/>
<path d="M51.8081 32.4153L51.6738 32.2376L53.2018 31.8242L53.3254 31.9913L52.4827 33.3309L52.3414 33.138L52.5903 32.7531L52.2525 32.2927L51.8081 32.4153ZM53.04 32.0687L52.4649 32.2313L52.7138 32.5682L53.04 32.0687Z" fill="#241F0C" stroke="#241F0C" stroke-width="0.08"/>
<path d="M52.6729 33.5463L53.7635 32.5508L53.9075 32.709L53.4444 33.1303L53.8497 33.5748L54.312 33.1535L54.456 33.3117L53.3662 34.3037L53.2222 34.1463L53.6942 33.7161L53.2897 33.2717L52.8177 33.7019L52.6729 33.5463Z" fill="#241F0C" stroke="#241F0C" stroke-width="0.08"/>
<path d="M53.6978 34.6312L54.6844 33.5352L55 33.8196C55.2666 34.0596 55.2898 34.3129 55.0889 34.5387C55.0524 34.5811 55.0078 34.6159 54.9578 34.641C54.9078 34.666 54.8532 34.6809 54.7974 34.6847C54.7416 34.6885 54.6856 34.6812 54.6326 34.6631C54.5796 34.6451 54.5308 34.6167 54.4889 34.5796L54.4213 35.28L54.2231 35.1023L54.3173 34.2658L53.8524 34.7743L53.6978 34.6312ZM54.4089 34.32C54.6266 34.5165 54.7964 34.544 54.9289 34.3974C55.0613 34.2507 55.0178 34.1067 54.8249 33.9334L54.7058 33.8258L54.3271 34.2472L54.4089 34.32Z" fill="#241F0C" stroke="#241F0C" stroke-width="0.08"/>
<path d="M54.7628 35.5568L54.5806 35.4226L55.9192 34.5781L56.0863 34.7008L55.6757 36.2297L55.4872 36.091L55.6117 35.6466L55.1512 35.307L54.7628 35.5568ZM55.8383 34.8635L55.3352 35.1888L55.673 35.4368L55.8383 34.8635Z" fill="#241F0C" stroke="#241F0C" stroke-width="0.08"/>
<path d="M55.9263 36.3773L56.7112 35.1328L56.8889 35.2466L56.104 36.491L55.9263 36.3773Z" fill="#241F0C" stroke="#241F0C" stroke-width="0.08"/>
<path d="M56.5024 36.7403L57.1851 35.4336L57.3798 35.5358L57.5042 36.8594L58.0118 35.8665L58.1993 35.9643L57.5167 37.2709L57.3344 37.1758L57.2109 35.8149L56.6909 36.838L56.5024 36.7403Z" fill="#241F0C" stroke="#241F0C" stroke-width="0.08"/>
</g>
<defs>
<clipPath id="clip0_4361_26310">
<rect width="46" height="46" fill="white" transform="translate(41 1)"/>
</clipPath>
</defs>
</svg>
