<svg width="93" height="25" viewBox="0 0 93 25" fill="none" xmlns="http://www.w3.org/2000/svg">
<g id="svg4965">
<g id="layer1">
<g id="g4940">
<path id="path1274" d="M11.8178 19.76L11.752 19.8237C10.6913 20.9043 9.46359 21.4771 8.19855 21.4771C5.55798 21.4771 3.64119 19.4961 3.64119 16.7629C3.64119 14.0346 5.55798 12.0508 8.19855 12.0508C9.46359 12.0508 10.6913 12.6259 11.752 13.7095L11.8178 13.7751L13.516 11.7217L13.4706 11.666C12.0583 9.99705 10.3638 9.18461 8.28053 9.18461C6.19008 9.18461 4.27913 9.88813 2.90192 11.1569C1.40554 12.5308 0.615479 14.4685 0.615479 16.7629C0.615479 19.0561 1.40554 20.9986 2.90192 22.3729C4.27913 23.6475 6.19008 24.3472 8.28053 24.3472C10.3638 24.3472 12.0583 23.5352 13.4706 21.8656L13.516 21.8138L11.8178 19.76Z" fill="#002A52"/>
<path id="path1276" d="M15.2321 24.0664H18.2321V9.42125H15.2321V24.0664Z" fill="#002A52"/>
<path id="path1278" d="M29.9831 20.8825C29.1827 21.3698 28.4378 21.6148 27.7689 21.6148C26.7997 21.6148 26.3617 21.1033 26.3617 19.9638V12.193H29.417V9.43517H26.3617V4.87826L23.4212 6.4519V9.43517H20.8845V12.193H23.4212V20.4595C23.4212 22.7117 24.7553 24.2503 26.7468 24.2903C28.099 24.3168 28.9142 23.9139 29.4093 23.6195L29.4383 23.5979L30.1606 20.7741L29.9831 20.8825Z" fill="#002A52"/>
<path id="path1280" d="M32.4685 24.0664H35.4705V9.42125H32.4685V24.0664Z" fill="#002A52"/>
<path id="path1282" d="M83.3172 3.84977V17.8197L84.2517 16.3651C84.251 16.3715 88.4504 10.2905 88.9885 9.51513H90.8601C90.4617 10.0504 87.1599 14.5944 87.1599 14.5944C87.1599 14.5944 91.4608 23.5567 91.7093 24.0673H89.8715C89.7704 23.8582 86.0756 16.0364 86.0756 16.0364L83.3172 19.9014V24.0673H81.6049V4.8276C81.7547 4.74161 82.9141 4.07695 83.3172 3.84977ZM69.2516 11.2501C70.1348 9.92971 71.5187 9.20167 73.1377 9.20167C76.366 9.20167 78.0769 11.2606 78.0769 15.1568V24.0673H76.3604V15.5258C76.3604 12.211 75.2094 10.6722 72.716 10.6722C70.3295 10.6722 68.9046 12.4874 68.9046 15.5258V24.0673H67.1929V9.51513H68.9046V11.7718L69.2516 11.2501ZM58.7277 9.20167C62.0498 9.20167 63.6648 10.7208 63.6648 13.8468V24.0673H61.9524V21.9442L61.6192 22.3117C60.359 23.702 58.9126 24.3818 57.1902 24.3818C55.8406 24.3818 52.7005 23.9352 52.7005 19.7924C52.7005 16.4062 55.4958 15.2043 58.1143 15.2043C59.4291 15.2043 60.728 15.5071 61.6706 16.0353L61.9524 16.1915V14.1023C61.9524 11.7861 60.8212 10.613 58.5857 10.613C57.2072 10.613 55.9631 10.961 54.6874 11.68C54.5749 11.4214 54.1792 10.5465 54.0691 10.297C55.4023 9.5943 57.0487 9.20167 58.7277 9.20167ZM54.3796 19.6498C54.3796 21.8252 55.5067 23.0241 57.5545 23.0241C59.2975 23.0241 60.8455 22.2006 61.9201 20.7032L61.9524 20.6518V17.4613L61.8573 17.4062C60.7643 16.7831 59.6449 16.5318 57.9996 16.5318C55.7348 16.5318 54.3796 17.6971 54.3796 19.6498ZM41.1579 3.84977V11.6344L41.4894 11.2714C42.7504 9.87855 44.1463 9.20167 45.7511 9.20167C48.9627 9.20167 50.8061 11.8785 50.8061 16.5471C50.8061 21.3063 48.7124 24.3818 45.471 24.3818C43.8916 24.3818 42.6269 23.7691 41.4911 22.4556L41.1579 22.0677V24.0673H39.4491V4.8276C39.5946 4.74161 40.7562 4.07695 41.1579 3.84977ZM41.1985 12.9023L41.1579 12.956V20.5311L41.1885 20.5776C42.133 22.0392 43.6717 22.9132 45.3094 22.9132C47.8385 22.9132 49.1206 20.7815 49.1206 16.5781C49.1206 12.8231 47.7002 10.6722 45.2238 10.6722C43.7227 10.6722 42.3683 11.4222 41.1985 12.9023Z" fill="#002A52"/>
<path id="path1284" fill-rule="evenodd" clip-rule="evenodd" d="M37.2675 6.82231C34.5213 2.93241 29.9606 0.611601 25.3204 0.611601C20.6821 0.611601 16.1205 2.93241 13.3788 6.82231L13.2382 7.02246H16.696L16.7344 6.98094C19.0879 4.55182 22.1602 3.26721 25.3204 3.26721C28.481 3.26721 31.5527 4.55182 33.9107 6.98094L33.949 7.02246H37.4058L37.2675 6.82231Z" fill="#002A52"/>
</g>
</g>
</g>
</svg>
