<svg width="128" height="48" viewBox="0 0 128 48" fill="none" xmlns="http://www.w3.org/2000/svg">
<g clip-path="url(#clip0_1_17069)">
<path d="M105.579 32.8688L105.347 33.0881C105.25 33.1612 105.152 33.2343 105.03 33.2952C104.909 33.3561 104.787 33.4049 104.653 33.4536C104.507 33.4901 104.373 33.5145 104.214 33.5145C104.092 33.5145 103.971 33.4902 103.861 33.4658C103.739 33.4292 103.654 33.3805 103.569 33.3074C103.483 33.2343 103.422 33.149 103.374 33.0516C103.325 32.9419 103.301 32.8201 103.301 32.6739C103.301 32.3815 103.41 32.15 103.629 32.0039C103.837 31.8455 104.129 31.7724 104.507 31.7724C104.702 31.7724 104.884 31.7967 105.079 31.8089C105.262 31.8333 105.433 31.8698 105.579 31.9064V32.8688ZM107.114 34.1724C107.114 34.0506 107.102 33.9287 107.102 33.7825C107.102 33.4901 107.089 33.1368 107.089 32.7226V30.3957C107.089 30.079 107.028 29.7988 106.919 29.5308C106.809 29.2749 106.639 29.0434 106.407 28.8485C106.176 28.6536 105.908 28.5074 105.554 28.3856C105.225 28.2759 104.823 28.215 104.373 28.215C103.995 28.215 103.617 28.2638 103.276 28.3247C102.923 28.3978 102.594 28.5074 102.277 28.6414C101.997 28.7632 101.96 28.8729 101.96 28.8729L102.228 29.9815C102.289 29.8475 102.375 29.7866 102.472 29.75C102.752 29.6526 103.02 29.5673 103.276 29.5186C103.581 29.4455 103.885 29.4211 104.202 29.4211C104.446 29.4211 104.665 29.4577 104.836 29.5186C105.006 29.5795 105.152 29.6648 105.262 29.7744C105.372 29.8719 105.445 30.0059 105.493 30.1399C105.542 30.2739 105.567 30.4079 105.567 30.5541V30.8099C105.396 30.7612 105.201 30.7247 104.97 30.6881C104.738 30.6638 104.494 30.6394 104.226 30.6394C103.861 30.6394 103.532 30.6881 103.215 30.7856C102.923 30.883 102.655 31.0171 102.436 31.1998C102.216 31.3825 102.046 31.6018 101.924 31.8698C101.802 32.1379 101.741 32.4303 101.741 32.7714C101.741 33.0759 101.802 33.344 101.9 33.5876C102.009 33.8435 102.143 34.0384 102.338 34.2211C102.521 34.3917 102.74 34.5257 102.996 34.6231C103.252 34.7084 103.52 34.7572 103.824 34.7572C104.044 34.7572 104.239 34.7328 104.434 34.6719C104.616 34.6231 104.799 34.5622 104.945 34.477C105.104 34.3917 105.238 34.3064 105.347 34.2089C105.469 34.1115 105.567 34.014 105.652 33.9287H105.676L105.737 34.5866H107.102H107.345V34.5744C107.162 34.5013 107.126 34.2698 107.114 34.1724ZM61.9523 29.5917C61.8792 29.3602 61.7696 29.1531 61.6355 28.9825C61.5015 28.812 61.3432 28.6658 61.1726 28.5561C60.9899 28.4465 60.7949 28.3734 60.5878 28.3247C60.3807 28.2759 60.1614 28.2516 59.93 28.2516C59.6863 28.2516 59.467 28.2759 59.2599 28.3368C59.0406 28.3978 58.8457 28.4709 58.6751 28.5683C58.5046 28.6658 58.3462 28.7754 58.2122 28.8973C58.0782 29.0191 57.9564 29.1531 57.8711 29.2749H57.8589C57.8833 28.6658 57.4447 28.3612 57.4447 28.3612L56.1411 28.6292C56.3239 28.7145 56.4213 28.9582 56.4457 29.2871V34.611H57.9685H58.2244V34.5988C58.0173 34.55 57.9685 34.3064 57.9685 34.2211V30.347C58.1756 30.079 58.4193 29.8841 58.6873 29.7379C58.9553 29.5917 59.2355 29.5308 59.5279 29.5308C59.7472 29.5308 59.93 29.5673 60.0883 29.6526C60.2467 29.7379 60.3685 29.8841 60.4416 30.079C60.4782 30.1764 60.5026 30.2739 60.5147 30.3957C60.5269 30.5176 60.5269 30.6638 60.5269 30.8343V34.6231H62.0376V30.6028C62.0376 30.3957 62.0376 30.2252 62.0132 30.0668C62.0254 29.8841 61.9888 29.7379 61.9523 29.5917ZM94.4924 31.3825C94.3218 31.2607 94.1269 31.1511 93.9198 31.078C93.7005 31.0049 93.4934 30.944 93.2863 30.8952C93.1523 30.8587 93.0061 30.8221 92.8599 30.7856C92.7137 30.749 92.5797 30.7003 92.4457 30.6516C92.3117 30.5907 92.2142 30.5176 92.1289 30.4323C92.0558 30.347 92.0193 30.2252 92.0193 30.079L92.068 29.8475L92.2386 29.6526L92.3848 29.5673C92.5066 29.5064 92.8355 29.3967 93.4325 29.4333C93.5543 29.4455 93.6762 29.4455 93.8102 29.4698C94.0051 29.482 94.1878 29.5308 94.2975 29.6039L94.3949 29.6891L94.4071 29.7013L94.4559 29.7866L94.6995 28.6658C94.6995 28.6658 94.6264 28.4952 94.2975 28.4099H94.2853L94.2487 28.3978C94.1391 28.3734 94.0295 28.349 93.9076 28.3247C93.5787 28.2638 93.2254 28.2272 92.8477 28.2272C92.531 28.2272 92.2386 28.2638 91.9584 28.349C91.6782 28.4343 91.4345 28.5561 91.2152 28.7145C91.0081 28.8851 90.8376 29.0922 90.7158 29.348C90.5939 29.6039 90.533 29.9084 90.533 30.2495C90.533 30.5297 90.5696 30.7734 90.667 30.9683C90.7523 31.1632 90.8863 31.3216 91.0325 31.4556C91.1909 31.5896 91.3736 31.6871 91.5685 31.7602C91.7757 31.8455 91.9828 31.9064 92.2142 31.9673C92.3848 32.0039 92.5553 32.0526 92.7137 32.0891C92.8721 32.1379 93.0183 32.1866 93.1401 32.2475C93.2619 32.3084 93.3594 32.3693 93.4325 32.4546C93.5056 32.5399 93.5543 32.6495 93.5543 32.7835C93.5543 32.9176 93.5178 33.0272 93.4447 33.1125C93.3838 33.2099 93.2863 33.283 93.1645 33.344C93.0427 33.4049 92.9086 33.4414 92.7503 33.4658C92.5919 33.5023 92.4092 33.5145 92.2264 33.5145C91.9828 33.5145 91.7269 33.5023 91.4467 33.4536C91.1665 33.4049 90.8498 33.3196 90.5208 33.1978V34.416C90.7279 34.5135 90.9838 34.5866 91.3005 34.6475C91.6173 34.7084 91.9706 34.745 92.3604 34.745C92.7625 34.745 93.1279 34.6962 93.4447 34.6231C93.7858 34.5379 94.066 34.416 94.2975 34.2455C94.5411 34.0749 94.7239 33.8556 94.8457 33.5998C94.9797 33.3318 95.0406 33.0394 95.0406 32.6861C95.0406 32.3693 94.9919 32.1013 94.8701 31.8942C94.797 31.6871 94.663 31.5165 94.4924 31.3825ZM69.4447 28.3978H67.5685L65.2051 30.9196H65.1685V25.3399C65.1685 25.011 64.9858 24.8891 64.9858 24.8891L63.3168 25.0841C63.5361 25.1815 63.6213 25.3643 63.6579 25.5348V34.5988H65.1685H65.4366V34.5866C65.2051 34.5379 65.1807 34.2698 65.1685 34.1846V31.7237H65.1929L67.6173 34.611H69.4569L66.7157 31.3216L69.4447 28.3978ZM82.2366 29.8597C82.2122 29.7379 82.1878 29.6282 82.1635 29.5308L82.0538 29.2627C81.8833 28.946 81.6518 28.7023 81.3594 28.5196C81.0548 28.3368 80.6894 28.2516 80.2386 28.2394C80.0071 28.2394 79.7878 28.2638 79.5807 28.3247C79.3736 28.3856 79.1787 28.4587 79.0081 28.5561C78.8254 28.6536 78.6548 28.7754 78.5086 28.9094C78.3624 29.0434 78.2284 29.2018 78.1066 29.3724H78.0822C77.9117 28.9825 77.668 28.7023 77.3391 28.5196C77.0102 28.3368 76.6447 28.2516 76.2305 28.2516C75.999 28.2516 75.7797 28.2759 75.5726 28.3368C75.3777 28.3978 75.1828 28.4709 75 28.5683C74.8295 28.6658 74.6711 28.7754 74.5371 28.8973C74.4031 29.0191 74.2812 29.1531 74.196 29.2749H74.1716C74.196 28.6658 73.7574 28.3612 73.7574 28.3612L72.4538 28.6292C72.6609 28.7267 72.7706 29.0434 72.7584 29.482V34.5988H74.2812H74.5371V34.5866C74.3178 34.5379 74.2812 34.2577 74.2812 34.1846V30.3348C74.3787 30.213 74.4883 30.1033 74.6224 29.9937C74.7442 29.8841 74.8782 29.811 75.0244 29.7379C75.1584 29.6648 75.3046 29.616 75.4386 29.5673C75.5726 29.5308 75.7188 29.5064 75.8406 29.5064C76.0965 29.5064 76.2914 29.5673 76.4254 29.6891C76.5594 29.7988 76.6569 29.945 76.6934 30.1399C76.7178 30.2252 76.73 30.3348 76.7421 30.4445C76.7543 30.5541 76.7543 30.6759 76.7543 30.8099V34.5866H78.265V30.3226C78.3624 30.2008 78.4721 30.0912 78.6061 29.9815C78.7401 29.8719 78.8619 29.7988 79.0081 29.7257C79.1421 29.6526 79.2883 29.6039 79.4223 29.5551C79.5685 29.5186 79.7026 29.4942 79.8366 29.4942C80.0802 29.4942 80.2751 29.5551 80.4092 29.6769C80.5432 29.7866 80.6406 29.9328 80.6894 30.1277C80.7137 30.213 80.7259 30.3226 80.7381 30.4323C80.7503 30.5419 80.7503 30.6638 80.7503 30.7978V34.5744H82.2609V30.7247C82.2609 30.5419 82.2609 30.3714 82.2487 30.2252C82.2731 30.1033 82.2609 29.9815 82.2366 29.8597ZM88.9249 28.3612L87.5239 28.6292C87.7432 28.7267 87.865 29.0191 87.8528 29.4455V32.0526C87.8528 32.4059 87.8041 32.6861 87.7066 32.8932C87.6091 33.1003 87.463 33.2587 87.268 33.3561C87.0731 33.4658 86.8416 33.5145 86.5736 33.5145C86.3178 33.5145 86.0863 33.4658 85.9036 33.3805C85.7086 33.283 85.5625 33.149 85.465 32.9541C85.4041 32.8445 85.3553 32.7105 85.331 32.5643C85.3066 32.4059 85.2944 32.2353 85.2944 32.0282V29.2749C85.3188 28.678 84.8559 28.3734 84.8559 28.3734L83.4548 28.6414C83.6498 28.7267 83.7594 28.9703 83.7838 29.3115V32.1866C83.7838 32.4668 83.8081 32.7226 83.869 32.9541C83.9178 33.1856 84.0031 33.4049 84.1127 33.5998C84.3198 33.9531 84.6244 34.2333 85.0386 34.4404C85.4528 34.6597 85.9645 34.7572 86.5858 34.7572C86.9147 34.7572 87.2193 34.7206 87.4751 34.6597C87.7432 34.5988 87.9746 34.5135 88.1939 34.4039C88.401 34.2942 88.5838 34.1602 88.7421 33.9896C88.9005 33.8313 89.0345 33.6607 89.132 33.4658C89.3026 33.1125 89.3878 32.6861 89.3878 32.1866V29.2627C89.3878 28.6658 88.9249 28.3612 88.9249 28.3612ZM111.816 33.4414C111.646 33.478 111.463 33.4902 111.292 33.4902C110.915 33.4902 110.659 33.3927 110.537 33.1978C110.464 33.0759 110.427 32.9054 110.427 32.6617V29.6526H112.218V28.3978H110.427V26.7165V26.7044V26.68C110.415 26.3267 110.245 26.2414 110.245 26.2414L108.576 26.4363C108.795 26.5338 108.88 26.7165 108.917 26.8871V28.4099H107.759V29.6648H108.917V32.881C108.917 33.2709 108.965 33.5754 109.063 33.8069C109.197 34.1237 109.428 34.3673 109.757 34.5379C110.086 34.7084 110.513 34.7937 111.037 34.7937C111.244 34.7937 111.463 34.7815 111.707 34.745C111.938 34.7206 112.145 34.6719 112.316 34.6231V33.3683C112.157 33.3805 111.987 33.4171 111.816 33.4414ZM98.0619 29.9572C98.2325 29.7988 98.4274 29.677 98.6467 29.6039C98.866 29.5308 99.0975 29.4942 99.3411 29.4942C99.5726 29.4942 99.7797 29.5064 99.9868 29.5551H99.999C100.133 29.5795 100.291 29.6282 100.413 29.6891C100.523 29.7379 100.608 29.7866 100.681 29.9206L100.925 28.7511C100.925 28.7511 100.864 28.6049 100.62 28.5196C100.413 28.4343 100.182 28.3612 99.9259 28.3125C99.6701 28.2638 99.402 28.2394 99.1218 28.2394C98.7564 28.2394 98.3787 28.3003 97.9888 28.4343C97.6112 28.5561 97.2579 28.7511 96.9533 29.0191C96.6487 29.2871 96.4051 29.6282 96.2102 30.0668C96.0152 30.4932 95.9178 31.0049 95.9178 31.5896C95.9178 32.1257 96.0031 32.5886 96.1614 32.9907C96.332 33.3805 96.5513 33.7216 96.8437 33.9775C97.1361 34.2333 97.4772 34.4282 97.8548 34.5622C98.2447 34.6962 98.6589 34.7572 99.1097 34.7572C99.4264 34.7572 99.7066 34.7328 99.9868 34.6719C100.267 34.611 100.498 34.5379 100.681 34.4526V33.2221C100.486 33.3074 100.267 33.3683 100.048 33.4292C99.8163 33.4902 99.5726 33.5145 99.2924 33.5145C98.9757 33.5145 98.7076 33.4658 98.4883 33.3561C98.2569 33.2465 98.0741 33.1125 97.9157 32.9419C97.7696 32.7714 97.6599 32.5643 97.5868 32.3206C97.5137 32.077 97.4772 31.8211 97.4772 31.5531C97.4772 31.1876 97.5259 30.8587 97.6234 30.5907C97.7574 30.3226 97.8914 30.1155 98.0619 29.9572ZM46.9675 32.3206C46.9066 32.5764 46.8092 32.7957 46.6873 32.9785C46.5655 33.1612 46.4071 33.3074 46.2244 33.4049C46.0416 33.5023 45.8223 33.5511 45.5787 33.5511C45.4325 33.5511 45.2985 33.5267 45.1645 33.4902C45.0305 33.4536 44.9208 33.4049 44.8112 33.344C44.7015 33.283 44.6041 33.2099 44.5188 33.1369L44.2995 32.9297V29.9572C44.4822 29.811 44.7015 29.6891 44.933 29.5917C45.1645 29.5064 45.3838 29.4577 45.6152 29.4577C45.7736 29.4577 45.9442 29.482 46.1025 29.5308C46.2731 29.5795 46.4193 29.677 46.5777 29.8231C46.7239 29.9693 46.8457 30.1886 46.9432 30.4566C47.0284 30.7369 47.0772 31.078 47.0772 31.4556C47.065 31.7846 47.0284 32.0526 46.9675 32.3206ZM47.796 29.0069C47.5401 28.7511 47.2599 28.5561 46.931 28.4343C46.602 28.3125 46.2609 28.2394 45.9198 28.2394C45.7492 28.2394 45.5787 28.2516 45.4203 28.2881C45.2619 28.3125 45.1157 28.3612 44.9817 28.4099C44.8477 28.4587 44.7137 28.5196 44.6041 28.5805C44.4944 28.6414 44.3848 28.7145 44.2873 28.7754H44.2751C44.2751 28.6902 44.2873 28.5683 44.2873 28.4099C44.2995 28.2516 44.2995 28.081 44.2995 27.8983V25.3764V25.3643V25.3155H44.2873C44.2751 24.9744 44.1168 24.877 44.1168 24.877L42.4355 25.0597C42.6548 25.1572 42.7645 25.3643 42.7767 25.5226V33.1369C42.7767 33.3805 42.7767 33.6363 42.7645 33.9044C42.7645 34.1724 42.7523 34.4039 42.7401 34.5866H43.9949L44.1411 33.9287H44.1655C44.2264 34.0018 44.2995 34.0871 44.397 34.1846C44.4944 34.2698 44.6041 34.3673 44.7503 34.4526C44.8843 34.5379 45.0548 34.611 45.2498 34.6719C45.4325 34.7206 45.6518 34.7572 45.8833 34.7572C46.2122 34.7572 46.5411 34.6962 46.8701 34.5622C47.199 34.4282 47.4914 34.2211 47.7472 33.9409C48.0031 33.6607 48.2223 33.3074 48.3807 32.881C48.5391 32.4546 48.6244 31.9551 48.6244 31.3947C48.6244 30.8709 48.5513 30.4079 48.4051 30.0059C48.2589 29.5917 48.0518 29.2627 47.796 29.0069ZM53.3756 32.9054L53.1442 33.1369C53.0467 33.2099 52.9493 33.283 52.8274 33.344C52.7178 33.4049 52.5838 33.4536 52.4498 33.4902C52.3157 33.5389 52.1696 33.5511 52.0112 33.5511C51.8894 33.5511 51.7675 33.5389 51.6579 33.5023C51.5482 33.4658 51.4508 33.4171 51.3655 33.344C51.2802 33.2709 51.2193 33.1856 51.1706 33.0881C51.1218 32.9785 51.0975 32.8566 51.0975 32.7226C51.0975 32.4181 51.2071 32.1988 51.4142 32.0526C51.6335 31.9064 51.9259 31.8333 52.2914 31.8333C52.4741 31.8333 52.669 31.8455 52.864 31.8698C53.0467 31.8942 53.2173 31.9308 53.3635 31.9673V32.9054H53.3756ZM54.9107 34.1968C54.9107 34.0749 54.8985 33.9409 54.8985 33.8069C54.8863 33.5145 54.8863 33.1612 54.8863 32.747V30.4079C54.8863 30.0912 54.8254 29.811 54.7157 29.5429C54.6061 29.2749 54.4234 29.0434 54.1919 28.8485C53.9604 28.6536 53.6802 28.5074 53.3513 28.3978C53.0102 28.2759 52.6203 28.2272 52.1574 28.2272C51.7797 28.2272 51.402 28.2638 51.0609 28.3368C50.7076 28.4099 50.3787 28.5196 50.0741 28.6536C49.7939 28.7754 49.7574 28.8851 49.7574 28.8851L50.0254 29.9937C50.0863 29.8597 50.1716 29.811 50.2812 29.7622C50.5614 29.6526 50.8295 29.5917 51.0731 29.5308C51.3899 29.4577 51.6944 29.4333 51.999 29.4333C52.2548 29.4333 52.4619 29.4698 52.6325 29.5308C52.8152 29.5917 52.9493 29.677 53.0589 29.7866C53.1685 29.8841 53.2416 30.0059 53.2904 30.1399C53.3391 30.2739 53.3635 30.4201 53.3635 30.5663V30.8221C53.1929 30.7734 52.9858 30.7369 52.7665 30.7003C52.535 30.6638 52.2914 30.6516 52.0234 30.6516C51.6579 30.6516 51.3289 30.7003 51.0244 30.7978C50.7198 30.8952 50.464 31.0292 50.2447 31.212C50.0254 31.3947 49.8548 31.6262 49.733 31.8942C49.6112 32.1622 49.5503 32.4546 49.5503 32.7835C49.5503 33.0881 49.599 33.3683 49.7086 33.5998C49.8183 33.8434 49.9645 34.0506 50.135 34.2211C50.3178 34.4039 50.5371 34.5379 50.7929 34.6231C51.0487 34.7084 51.3289 34.7572 51.6213 34.7572C51.8406 34.7572 52.0477 34.7328 52.2183 34.6841C52.4132 34.6353 52.5838 34.5622 52.7421 34.477C52.9005 34.3917 53.0345 34.3064 53.1564 34.2089C53.2782 34.1115 53.3756 34.0262 53.4609 33.9287H53.4853L53.5584 34.5866H54.9229H55.1665V34.5744C54.9594 34.5379 54.9229 34.2942 54.9107 34.1968Z" fill="#002A52"/>
<path d="M82.4563 20.2249C81.6522 20.2249 81.2258 19.433 81.2258 18.2513C81.238 17.0696 81.6279 16.5579 82.4563 16.5579C83.2725 16.5701 83.6624 17.0817 83.6746 18.2513C83.6746 19.433 83.2482 20.2249 82.4563 20.2249ZM58.9802 20.1883C58.1274 20.1883 57.6644 19.299 57.6522 18.1295C57.6644 16.9599 58.1395 16.5335 58.9802 16.5213C59.8086 16.5335 60.2837 16.9599 60.2959 18.1295C60.2959 19.299 59.8329 20.1883 58.9802 20.1883ZM51.171 19.7132C51.171 19.8716 51.1345 19.9934 51.1101 20.164H45.3355C45.5426 19.3843 45.969 18.7873 46.5659 18.0807C47.3213 17.2157 48.1131 16.6188 48.9294 16.6188H48.9416H49.0269C49.7213 16.6553 50.2695 17.0452 50.6472 17.569C51.0005 18.166 51.171 18.8726 51.171 19.7132ZM85.1365 18.2513C85.1365 17.4472 84.9538 16.7772 84.6005 16.2655L84.5761 16.2289L84.5639 16.2168L84.5274 16.168C84.0644 15.5711 83.3578 15.2787 82.4563 15.2787C81.5182 15.2787 80.7994 15.5833 80.3365 16.2168C79.9588 16.7406 79.7639 17.4229 79.7639 18.2513V18.6777C79.7639 19.5305 79.3619 20.1762 78.5944 20.1762H78.5456H75.1588V19.7376V17.1183L75.1466 17.0574C75.1223 16.7163 74.9517 16.5944 74.9274 16.5701H74.9152L74.903 16.5579L73.0878 16.765L73.4167 16.899C73.5873 16.9721 73.6725 17.1427 73.6847 17.2523V19.8229L73.6725 19.8472L73.5751 20.03C73.4532 20.1274 73.4045 20.1518 73.3192 20.1518H71.1873V17.6421V17.63C71.1629 17.2767 70.9923 17.1548 70.9558 17.1427L70.9436 17.1305L69.1406 17.3376L69.4573 17.4838C69.6279 17.5569 69.7253 17.7152 69.7253 17.8371V19.1406V19.8107L69.7131 19.8716L69.6157 20.0421C69.4817 20.1396 69.4329 20.164 69.3598 20.164H67.2522V18.2269C67.2279 17.8736 67.0573 17.764 67.0329 17.7518L67.0208 17.7396L67.0086 17.7274L65.1933 17.9345L65.5223 18.0685C65.6928 18.1416 65.7903 18.3122 65.8025 18.434V19.7376V19.835L65.7903 19.8716L65.6807 20.0421C65.5588 20.1396 65.5101 20.164 65.4248 20.164H61.173C61.5142 19.5914 61.636 18.8361 61.6725 18.2025L61.6847 17.9711C61.6847 17.2157 61.4776 16.7284 61.1243 16.2289C60.6614 15.5589 59.9182 15.23 58.968 15.23C58.0299 15.23 57.2989 15.5589 56.8116 16.2289C56.4583 16.7406 56.2634 17.2401 56.2756 18.0076V18.0198V18.1782C56.2878 18.7873 56.3974 19.567 56.7507 20.164H52.572C52.5842 20.0178 52.5842 19.8716 52.5842 19.7376C52.5842 18.5193 52.3771 17.6543 51.9873 16.9965C51.3416 15.9487 50.3426 15.2178 49.0512 15.2178H49.039H48.9416C47.4553 15.2543 46.2736 15.9853 45.4086 17.2523V14.9376V13.1467H45.3964C45.3477 12.8543 45.2137 12.7569 45.1893 12.7447H45.1771L45.1649 12.7325L43.3619 12.9396L43.6786 13.0736C43.8492 13.1467 43.9345 13.3051 43.9466 13.4269L43.9223 20.1274H42.8258C42.7162 20.1152 42.5578 20.03 42.4847 19.8594L42.4238 19.7254L42.3385 19.5305L42.168 21.2239L42.1802 21.2482C42.1923 21.2726 42.302 21.4188 42.5944 21.4553V21.4675H42.7284H42.7406H42.7527H55.6908H62.7203H78.6431C79.4959 21.4675 80.1538 21.2361 80.6167 20.7975C81.0918 21.2361 81.7131 21.4675 82.4685 21.4675H82.4807C83.4066 21.4675 84.1253 21.1508 84.5883 20.5173C84.9538 20.0178 85.1365 19.0675 85.1365 18.2513ZM58.0177 14.097C58.4563 14.097 58.8218 13.7437 58.8218 13.3051C58.8218 12.8787 58.4563 12.5254 58.0177 12.5254C57.5791 12.5254 57.2258 12.8787 57.2258 13.3051C57.2258 13.7437 57.5913 14.097 58.0177 14.097ZM60.0522 14.097C60.4786 14.097 60.8441 13.7437 60.8441 13.3051C60.8441 12.8787 60.4786 12.5254 60.0522 12.5254C59.6258 12.5254 59.2604 12.8787 59.2604 13.3051C59.2604 13.7437 59.6137 14.097 60.0522 14.097Z" fill="#002A52"/>
<path d="M104.969 15.5566C104.53 15.5566 104.165 15.1911 104.165 14.7403C104.165 14.3017 104.543 13.9484 104.969 13.9484C105.408 13.9484 105.773 14.3017 105.773 14.7403C105.773 15.1789 105.395 15.5566 104.969 15.5566ZM91.2025 17.652V17.6398L91.2146 17.6276L91.2268 17.6154C91.239 17.5789 91.3365 17.4814 91.5558 17.4692H92.4816V17.3352C92.4816 16.3728 93.103 15.5809 94.1385 15.5809C94.5527 15.5809 94.9547 15.7758 95.2959 16.1291L95.3202 16.1535L95.4542 16.2022H95.4664L95.5151 16.1901L95.9415 16.0804L94.9913 17.0063H94.9669H94.9426C94.8938 17.0063 94.7964 16.9819 94.6867 16.8845L94.6258 16.8236V16.8114L94.5893 16.7748C94.4187 16.5799 94.2603 16.5068 94.0776 16.5068C93.6512 16.519 93.4928 16.7017 93.4806 17.2256V17.4692H95.4786V18.4073H91.6898L91.5314 18.5291L91.373 18.919L91.2025 17.652ZM98.037 20.6611C97.574 21.2337 96.8553 21.5139 95.9415 21.5261H90.8735C89.375 21.5261 88.3395 20.5515 88.3395 19.1017V17.5789V17.3109C88.3273 17.2012 88.242 17.0428 88.0715 16.9697L87.6816 16.7992L89.57 16.5799L89.5822 16.5921H89.5943C89.6309 16.6043 89.7771 16.7139 89.8258 17.0063V17.055L89.838 17.1159H89.8258V17.1647V17.189V17.2987V18.9921C89.8502 19.8205 90.1913 20.1738 91.0441 20.186L95.8563 20.1982C96.7091 20.1738 97.0624 19.8205 97.0867 19.0043V12.8154C97.0745 12.7058 96.9893 12.5474 96.8309 12.4743L96.441 12.3038L98.3294 12.0845L98.3415 12.0967H98.3537C98.3781 12.1088 98.5365 12.2185 98.5852 12.5109V12.5596L98.5974 12.6083H98.5852V18.5779C98.5974 19.6743 99.0603 20.1616 100.12 20.1738L103.032 20.186C103.885 20.1616 104.238 19.8083 104.262 18.9312V18.8703V17.3109C104.25 17.2012 104.165 17.0428 104.007 16.9697L103.617 16.7992L105.517 16.5799L105.542 16.5921H105.554C105.578 16.6043 105.724 16.7017 105.773 16.9697H105.785V17.0428V17.0916V18.9677C105.81 19.8083 106.151 20.1616 107.003 20.1738L109.696 20.186C110.536 20.1616 110.89 19.8083 110.902 18.9312V15.9586C110.902 15.8489 110.804 15.6906 110.646 15.6175L110.256 15.4469L112.145 15.2276L112.169 15.2398L112.181 15.252C112.218 15.2642 112.376 15.386 112.413 15.7149V15.9708V19.0286C112.413 19.7352 112.169 20.3444 111.694 20.8073C111.219 21.2703 110.561 21.5139 109.781 21.5139H106.918C106.151 21.5139 105.529 21.2824 105.054 20.8439C104.591 21.2824 103.958 21.5017 103.178 21.5139H100.047C99.1334 21.5139 98.4755 21.2337 98.037 20.6611ZM110.756 22.4885C111.194 22.4885 111.56 22.8418 111.56 23.2804C111.56 23.719 111.194 24.0845 110.756 24.0845C110.329 24.0845 109.964 23.719 109.964 23.2804C109.952 22.8418 110.329 22.4885 110.756 22.4885Z" fill="#002A52"/>
<path d="M31.1792 18.969C31.0939 18.6401 30.9965 18.299 30.8746 17.9579C30.7772 17.6411 30.6553 17.3244 30.5335 17.0076C30.363 16.569 30.168 16.1183 29.9487 15.6797C29.7294 15.2289 29.4858 14.7904 29.2178 14.3396C29.1812 14.2787 29.1447 14.2178 29.1081 14.169C28.9254 13.8766 28.7426 13.5964 28.5355 13.3162C28.4746 13.2188 28.4015 13.1335 28.3406 13.036C28.2675 12.9386 28.1944 12.8411 28.1091 12.7437C27.9873 12.8289 27.8533 12.9264 27.7315 13.0117C27.5609 13.1335 27.4025 13.2553 27.232 13.3772C27.0249 13.5233 26.83 13.6695 26.635 13.8157C26.3305 14.035 26.0259 14.2543 25.7213 14.4858C25.563 14.5954 25.4046 14.7173 25.2462 14.8269C24.8685 15.1071 24.4787 15.3751 24.101 15.6553C23.7477 15.9233 23.3822 16.1792 23.0289 16.4472C22.9071 16.5325 22.7975 16.6178 22.6756 16.703C22.6269 16.7396 22.5782 16.7761 22.5294 16.8127C22.4929 16.8371 22.4442 16.8736 22.4076 16.898C22.3711 16.9223 22.3345 16.9467 22.298 16.9711C22.2371 17.0198 22.1761 17.0563 22.1152 17.1051C22.2736 17.1416 22.4442 17.1904 22.6025 17.2391C22.7487 17.2756 22.8949 17.3244 23.0289 17.3731C23.4553 17.5193 23.8695 17.6898 24.2594 17.8848C24.3447 17.9213 24.4178 17.9579 24.4909 18.0066C25.0878 18.3233 25.6239 18.6888 26.1234 19.103C26.6228 19.5051 27.0736 19.9437 27.4878 20.4066C27.6827 20.6137 27.8655 20.833 28.036 21.0523C28.1335 21.1741 28.2188 21.2959 28.3163 21.4178C28.4746 21.6249 28.6208 21.8442 28.767 22.0634C28.7792 22.0756 28.7792 22.0878 28.7914 22.0878C28.8279 22.1365 28.8523 22.1853 28.8888 22.234C28.9132 22.2706 28.9376 22.3193 28.9741 22.3558C29.0107 22.4167 29.0594 22.4898 29.0959 22.5508C29.9366 23.9152 30.5091 25.2797 30.8746 26.3518C31.1061 27.0096 31.2523 27.5579 31.3498 27.9234C31.435 28.2523 31.4716 28.435 31.4716 28.4472C31.4838 28.3985 31.4959 28.3497 31.5081 28.2888C31.5203 28.2401 31.5325 28.1792 31.5447 28.1061C31.569 27.9843 31.5934 27.8259 31.63 27.631C31.6421 27.5457 31.6543 27.4726 31.6665 27.3751C31.6909 27.2046 31.7152 27.0096 31.7396 26.8025C31.7518 26.6685 31.7761 26.5223 31.7883 26.364C31.8005 26.2421 31.8127 26.1081 31.8249 25.9741C31.8371 25.8766 31.8371 25.767 31.8492 25.6574C31.8736 25.2188 31.8858 24.7315 31.8858 24.2076C31.8858 23.635 31.8614 23.0137 31.8005 22.3558C31.6787 21.3203 31.4959 20.1629 31.1792 18.969Z" fill="#002A52"/>
<path d="M26.5996 22.5637C26.8432 22.3201 26.9894 22.1982 26.9894 22.1982C26.9894 22.1982 26.9894 22.1982 26.9772 22.1982C26.9772 22.1982 26.965 22.1982 26.9529 22.2104C26.9163 22.2226 26.8676 22.2348 26.831 22.247C26.7823 22.2592 26.7214 22.2835 26.6605 22.3079C26.5386 22.3444 26.3925 22.4053 26.2097 22.4784C26.1366 22.5028 26.0513 22.5394 25.9661 22.5759C25.8077 22.6368 25.6249 22.7099 25.4422 22.7952C25.3204 22.8439 25.1864 22.9048 25.0402 22.9779C24.9305 23.0267 24.8087 23.0876 24.6869 23.1485C24.6016 23.1972 24.5041 23.2338 24.4067 23.2825C24.0168 23.4774 23.5782 23.7089 23.1397 23.9769C22.6402 24.2693 22.1163 24.5982 21.5803 24.9759C20.7031 25.5972 19.7894 26.3282 18.9122 27.2053C18.6686 27.449 18.4249 27.7048 18.1935 27.9729C17.9742 28.2165 17.7549 28.4724 17.5478 28.7404C17.2554 29.118 16.963 29.5079 16.6828 29.9099C16.4026 30.3241 16.1468 30.7505 15.8909 31.2135C15.8544 31.2744 15.83 31.3353 15.7935 31.3962C15.6351 31.6886 15.4889 32.0053 15.3427 32.3099C15.294 32.4196 15.2452 32.517 15.2087 32.6267C15.16 32.7363 15.1112 32.8581 15.0625 32.9678C15.2087 33.0287 15.3427 33.0896 15.4889 33.1627C15.6716 33.248 15.8666 33.3333 16.0615 33.4185C16.293 33.516 16.5122 33.6135 16.7437 33.7231C17.0848 33.8693 17.426 34.0277 17.7793 34.1739C17.962 34.247 18.1326 34.3323 18.3153 34.4053C18.7417 34.6003 19.1681 34.7952 19.6067 34.9779C19.96 35.1363 20.3011 35.2947 20.6544 35.4409C20.7031 35.4652 20.764 35.4896 20.8249 35.514C20.9589 35.5749 21.093 35.6236 21.2148 35.6845C21.2757 35.7089 21.3244 35.7333 21.3853 35.7576C21.4341 35.782 21.4828 35.8064 21.5315 35.8185C21.6412 35.8673 21.7508 35.916 21.8605 35.9647C21.8117 35.8064 21.763 35.648 21.7265 35.4774C21.6899 35.3312 21.6534 35.185 21.629 35.0388C21.5437 34.5881 21.4828 34.1495 21.4584 33.7109C21.4584 33.6257 21.4463 33.5404 21.4463 33.4429C21.4219 32.7729 21.4706 32.115 21.5681 31.4815C21.6655 30.848 21.8239 30.2388 22.0188 29.6419C22.1041 29.3739 22.2016 29.1059 22.3112 28.85C22.36 28.7038 22.4209 28.5698 22.4818 28.4358C22.4818 28.4358 22.4818 28.4358 22.4818 28.4236C22.4818 28.4236 22.4818 28.4114 22.494 28.4114C22.6036 28.1556 22.7133 27.9119 22.8351 27.6805C22.8595 27.6317 22.8838 27.583 22.9082 27.5221C22.9326 27.4734 22.9569 27.4368 22.9813 27.3881C23.0178 27.315 23.0544 27.2541 23.0909 27.1932C23.8584 25.7922 24.7478 24.6104 25.5031 23.7454C25.9295 23.2338 26.3194 22.8317 26.5996 22.5637Z" fill="#002A52"/>
<path d="M23.4902 29.7492C23.1613 29.6518 22.9785 29.5908 22.9785 29.5908C22.9785 29.5908 22.9785 29.5908 22.9907 29.5908C22.9907 29.5908 23.0029 29.603 23.0151 29.603C23.0516 29.6274 23.076 29.6639 23.1125 29.6883C23.1491 29.7249 23.1978 29.7614 23.2465 29.8101C23.344 29.8954 23.4658 29.9929 23.6242 30.1147C23.6851 30.1634 23.7582 30.2243 23.8191 30.2731C23.9531 30.3827 24.1115 30.4924 24.2699 30.6142C24.3795 30.6995 24.5014 30.7848 24.6232 30.87C24.7328 30.9431 24.8303 31.0162 24.9521 31.0893C25.0374 31.1502 25.1227 31.199 25.208 31.2599C25.5734 31.5035 25.9877 31.7594 26.4384 32.0152C26.9379 32.3076 27.4861 32.5878 28.0831 32.868C29.0577 33.3188 30.1541 33.7452 31.3481 34.0619C31.677 34.1472 32.0303 34.2325 32.3714 34.3056C32.6882 34.3787 33.0171 34.4396 33.3582 34.4883C33.8333 34.5614 34.3085 34.6101 34.808 34.6467C35.3075 34.6832 35.8069 34.6954 36.3308 34.6832C36.3917 34.6832 36.4648 34.6832 36.5257 34.6832C36.8668 34.671 37.208 34.6467 37.5491 34.6223C37.6587 34.6101 37.7805 34.598 37.8902 34.5858C38.012 34.5736 38.1338 34.5614 38.2679 34.537C38.2557 34.3787 38.2313 34.2325 38.2191 34.0741C38.1948 33.867 38.1704 33.6599 38.1582 33.4528C38.1338 33.2091 38.1095 32.9533 38.0851 32.7096C38.0486 32.332 37.9998 31.9665 37.9633 31.5888C37.9389 31.3939 37.9267 31.199 37.9024 31.004C37.8536 30.5411 37.8049 30.066 37.7562 29.603C37.7196 29.2254 37.6831 28.8355 37.6344 28.4578C37.6222 28.3969 37.6222 28.336 37.61 28.2751C37.5978 28.1289 37.5734 27.9949 37.5613 27.8487C37.5613 27.7878 37.5491 27.7269 37.5369 27.666C37.5369 27.6172 37.5247 27.5563 37.5247 27.5076C37.5125 27.3858 37.5003 27.2639 37.4882 27.1543C37.3663 27.2761 37.2567 27.3979 37.1349 27.5076C37.0252 27.6172 36.9156 27.7147 36.8059 27.8122C36.4648 28.1167 36.1115 28.3726 35.746 28.6162C35.6729 28.665 35.5998 28.7137 35.5267 28.7624C34.9542 29.1157 34.3694 29.3959 33.7602 29.6274C33.1633 29.8589 32.5542 30.0294 31.945 30.1634C31.6648 30.2243 31.3846 30.2731 31.1044 30.3096C30.9582 30.334 30.812 30.3462 30.6658 30.3705C30.6658 30.3705 30.6658 30.3705 30.6536 30.3705H30.6415C30.3734 30.3949 30.1054 30.4193 29.8374 30.4436C29.7765 30.4436 29.7278 30.4558 29.6668 30.4558C29.6181 30.4558 29.5694 30.4558 29.5206 30.4558C29.4476 30.4558 29.3745 30.4558 29.2892 30.468C27.6932 30.5167 26.2191 30.3218 25.0983 30.1025C24.4039 29.9929 23.8557 29.8589 23.4902 29.7492Z" fill="#002A52"/>
</g>
<defs>
<clipPath id="clip0_1_17069">
<rect width="97.4619" height="24" fill="white" transform="translate(15 12)"/>
</clipPath>
</defs>
</svg>
