<svg width="128" height="48" viewBox="0 0 128 48" fill="none" xmlns="http://www.w3.org/2000/svg">
<g clip-path="url(#clip0_1_17012)">
<path d="M44 4H84V25.5932L82.0201 28.6868L84 31.4401V44H44V23.6442L45.2374 22.2212L44 20.86V4Z" fill="#002A52"/>
<path d="M51.7656 31.8727V25.5928H58.4149L59.1283 26.5228L59.8653 25.5928H84.0007V31.4396C84.0007 31.4396 83.3695 31.8665 82.6396 31.8727H69.2753L68.471 30.8828V31.8727H65.8352V30.1829C65.8352 30.1829 65.4752 30.4188 64.6968 30.4188H63.7997V31.8727H59.8089L59.0966 30.9228L58.3732 31.8727H51.7656Z" fill="white"/>
<path d="M44 20.86L45.4994 17.3643H48.0926L48.9435 19.3224V17.3643H52.1671L52.6736 18.7796L53.1647 17.3643H67.635V18.0758C67.635 18.0758 68.3956 17.3643 69.6458 17.3643L74.3408 17.3807L75.1771 19.3132V17.3643H77.8747L78.6172 18.4743V17.3643H81.3395V23.6442H78.6172L77.9056 22.5305V23.6442H73.9423L73.5437 22.6543H72.4782L72.0861 23.6442H69.3983C68.3226 23.6442 67.635 22.9472 67.635 22.9472V23.6442H63.5824L62.778 22.6543V23.6442H47.7084L47.3101 22.6543H46.248L45.8526 23.6442H44V20.86Z" fill="white"/>
<path d="M46.0302 18.1382L44.0078 22.8404H45.3245L45.6977 21.8988H47.8671L48.2383 22.8404H49.584L47.5635 18.1382H46.0302ZM46.7785 19.2325L47.4398 20.8779H46.1153L46.7785 19.2325Z" fill="#002A52"/>
<path d="M49.7227 22.8399V18.1377L51.5938 18.1446L52.6821 21.1764L53.7443 18.1377H55.6005V22.8399H54.4249V19.3751L53.1788 22.8399H52.1478L50.8982 19.3751V22.8399H49.7227Z" fill="#002A52"/>
<path d="M56.4043 22.8399V18.1377H60.2403V19.1895H57.5922V19.9938H60.1785V20.9838H57.5922V21.8191H60.2403V22.8399H56.4043Z" fill="#002A52"/>
<path d="M60.9219 18.1382V22.8404H62.0974V21.1699H62.5924L64.0019 22.8404H65.4385L63.8917 21.108C64.5265 21.0545 65.1813 20.5096 65.1813 19.6637C65.1813 18.6742 64.4047 18.1382 63.5379 18.1382H60.9219ZM62.0974 19.19H63.4412C63.7636 19.19 63.9981 19.4422 63.9981 19.685C63.9981 19.9974 63.6942 20.1799 63.4586 20.1799H62.0974V19.19Z" fill="#002A52"/>
<path d="M66.8624 22.8399H65.6621V18.1377H66.8624V22.8399Z" fill="#002A52"/>
<path d="M69.7074 22.8399H69.4483C68.1947 22.8399 67.4336 21.8523 67.4336 20.5082C67.4336 19.1308 68.1862 18.1377 69.7692 18.1377H71.0686V19.2514H69.7217C69.0791 19.2514 68.6246 19.7529 68.6246 20.5198C68.6246 21.4304 69.1443 21.8129 69.893 21.8129H70.2023L69.7074 22.8399Z" fill="#002A52"/>
<path d="M72.2666 18.1382L70.2441 22.8404H71.5608L71.934 21.8988H74.1034L74.4746 22.8404H75.8203L73.7998 18.1382H72.2666ZM73.0148 19.2325L73.6761 20.8779H72.3516L73.0148 19.2325Z" fill="#002A52"/>
<path d="M75.957 22.8399V18.1377H77.4516L79.36 21.0921V18.1377H80.5355V22.8399H79.0893L77.1326 19.8082V22.8399H75.957Z" fill="#002A52"/>
<path d="M52.5684 31.0685V26.3662H56.4044V27.418H53.7563V28.2224H56.3425V29.2123H53.7563V30.0476H56.4044V31.0685H52.5684Z" fill="#002A52"/>
<path d="M71.3652 31.0685V26.3662H75.2013V27.418H72.5532V28.2224H75.127V29.2123H72.5532V30.0476H75.2013V31.0685H71.3652Z" fill="#002A52"/>
<path d="M56.5542 31.0685L58.422 28.7463L56.5098 26.3662H57.9908L59.1296 27.8376L60.2723 26.3662H61.6954L59.8083 28.7173L61.6795 31.0685H60.1987L59.0929 29.6203L58.014 31.0685H56.5542Z" fill="#002A52"/>
<path d="M61.8184 26.3672V31.0694H63.0249V29.5845H64.2623C65.3093 29.5845 66.103 29.029 66.103 27.9488C66.103 27.0539 65.4805 26.3672 64.415 26.3672H61.8184ZM63.0249 27.4306H64.328C64.6663 27.4306 64.9081 27.6379 64.9081 27.972C64.9081 28.2858 64.6675 28.5134 64.3242 28.5134H63.0249V27.4306Z" fill="#002A52"/>
<path d="M66.6133 26.3662V31.0685H67.7888V29.3979H68.2838L69.6933 31.0685H71.1299L69.5831 29.3361C70.2179 29.2825 70.8728 28.7376 70.8728 27.8917C70.8728 26.9022 70.0961 26.3662 69.2293 26.3662H66.6133ZM67.7888 27.418H69.1326C69.455 27.418 69.6895 27.6702 69.6895 27.913C69.6895 28.2254 69.3856 28.408 69.15 28.408H67.7888V27.418Z" fill="#002A52"/>
<path d="M75.7469 31.0685V30.0476H78.0996C78.4477 30.0476 78.5984 29.8595 78.5984 29.6531C78.5984 29.4555 78.4482 29.2556 78.0996 29.2556H77.0364C76.1123 29.2556 75.5977 28.6926 75.5977 27.8473C75.5977 27.0933 76.069 26.3662 77.4422 26.3662H79.7315L79.2365 27.4242H77.2566C76.8781 27.4242 76.7616 27.6228 76.7616 27.8125C76.7616 28.0074 76.9056 28.2224 77.1947 28.2224H78.3084C79.3386 28.2224 79.7856 28.8067 79.7856 29.5719C79.7856 30.3946 79.2875 31.0685 78.2523 31.0685H75.7469Z" fill="#002A52"/>
<path d="M80.0614 31.0685V30.0476H82.414C82.7622 30.0476 82.9129 29.8595 82.9129 29.6531C82.9129 29.4555 82.7626 29.2556 82.414 29.2556H81.3509C80.4268 29.2556 79.9121 28.6926 79.9121 27.8473C79.9121 27.0933 80.3834 26.3662 81.7567 26.3662H84.0459L83.5509 27.4242H81.571C81.1926 27.4242 81.0761 27.6228 81.0761 27.8125C81.0761 28.0074 81.22 28.2224 81.5092 28.2224H82.6229C83.653 28.2224 84.1 28.8067 84.1 29.5719C84.1 30.3946 83.6019 31.0685 82.5668 31.0685H80.0614Z" fill="#002A52"/>
</g>
<defs>
<clipPath id="clip0_1_17012">
<rect width="40.0996" height="40" fill="white" transform="translate(44 4)"/>
</clipPath>
</defs>
</svg>
