<svg width="128" height="48" viewBox="0 0 128 48" fill="none" xmlns="http://www.w3.org/2000/svg">
<g clip-path="url(#clip0_1_17089)">
<path fill-rule="evenodd" clip-rule="evenodd" d="M107.704 35.8317H109.574V32.3439H109.602L112.001 35.8317H114.373L111.36 31.8561L114.039 28.6476H111.834L109.602 31.5213H109.574V25.3689H107.704V35.8317ZM13.8365 30.6281C14.4637 30.1537 15.2596 29.8469 16.0539 29.8469C17.1564 29.8469 17.6722 30.2378 17.6722 31.3958H16.6408C15.8596 31.3958 14.9382 31.4652 14.2266 31.8139C13.5212 32.1601 13.0081 32.7811 13 33.8396V33.8774C13.0077 35.2365 14.2453 35.9994 15.5101 35.9994C16.3613 35.9994 17.296 35.553 17.7285 34.7572H17.7566C17.7705 34.981 17.7705 35.4555 17.8399 35.8317H19.4864C19.4443 35.2737 19.4168 34.7714 19.4029 34.2275C19.3888 33.6976 19.3748 33.1529 19.3748 32.4274V31.5074C19.3748 29.3866 18.4673 28.4791 16.2779 28.4791C15.4828 28.4791 14.5059 28.689 13.7802 29.0238L13.8365 30.6281ZM99.4344 35.8317H101.303V32.3156C101.303 31.3958 101.597 29.9311 102.95 29.9311C104.15 29.9311 104.164 31.1165 104.164 31.9957V35.8317H106.033V31.2975C106.033 29.6798 105.293 28.4799 103.592 28.4799C102.615 28.4799 101.82 28.8006 101.234 29.6229H101.206V28.6476H99.4344V35.8317ZM92.3502 30.6281C92.9777 30.1537 93.7734 29.8469 94.5685 29.8469C95.6703 29.8469 96.1868 30.2378 96.1868 31.3958H95.1545C94.3733 31.3958 93.4527 31.4652 92.7403 31.8139C92.0296 32.1628 91.513 32.7908 91.513 33.8647C91.513 35.2317 92.7545 35.9994 94.024 35.9994C94.8752 35.9994 95.8106 35.553 96.2422 34.7572H96.2703C96.2844 34.981 96.2844 35.4555 96.3539 35.8317H98.0002C97.958 35.2737 97.9307 34.7714 97.9166 34.2275C97.9027 33.6976 97.8886 33.1529 97.8886 32.4274V31.5074C97.8886 29.3866 96.9819 28.4791 94.7917 28.4791C93.9958 28.4791 93.0196 28.689 92.2941 29.0238L92.3502 30.6281ZM93.2989 33.7531C93.2989 32.6512 94.5404 32.511 95.3777 32.511H96.1868C96.1868 33.0695 96.1032 33.5854 95.7959 33.9902C95.5026 34.3811 95.0568 34.6317 94.4849 34.6317C93.8147 34.6317 93.2989 34.3672 93.2989 33.7531ZM85.6289 32.2185C85.6289 31.2144 86.1033 29.9309 87.3027 29.9309C88.5167 29.9309 88.8515 31.2557 88.8515 32.2185C88.8515 33.2088 88.5026 34.5484 87.2746 34.5484C86.0331 34.5484 85.6289 33.2369 85.6289 32.2185ZM83.7454 35.8313H85.5587V34.9526H85.5869C86.1308 35.7205 86.9959 35.9998 87.791 35.9998C89.9945 35.9998 90.8046 34.1857 90.8046 32.2185C90.8046 30.2374 89.9945 28.4795 87.791 28.4795C86.8149 28.4795 86.1588 28.8837 85.643 29.568H85.615V25.3687H83.7454V35.8313ZM73.7225 32.2185C73.7225 31.2557 74.0573 29.9309 75.2705 29.9309C76.4706 29.9309 76.9451 31.2144 76.9451 32.2185C76.9451 33.2369 76.5401 34.5484 75.2988 34.5484C74.0714 34.5484 73.7225 33.2088 73.7225 32.2185ZM77.0145 35.8313H78.8285V25.3687H76.9584V29.4837H76.931C76.3732 28.8002 75.7177 28.4795 74.7829 28.4795C72.5786 28.4795 71.7694 30.2374 71.7694 32.2185C71.7694 34.1857 72.5786 35.9998 74.7829 35.9998C75.6614 35.9998 76.4285 35.7205 76.9865 35.0228H77.0145V35.8313ZM66.0944 31.5348C66.1779 30.5726 66.7077 29.8469 67.754 29.8469C68.8004 29.8469 69.2187 30.6281 69.2748 31.5348H66.0944ZM70.5303 33.9068C69.8334 34.2969 69.0516 34.6317 68.1449 34.6317C66.9878 34.6317 66.1779 33.9763 66.0944 32.8183H71.0608C71.0608 30.3074 70.3071 28.4799 67.6424 28.4799C65.4109 28.4799 64.3084 30.1958 64.3084 32.2744C64.3084 34.6317 65.6902 35.9994 68.0614 35.9994C69.0658 35.9994 69.8475 35.8036 70.5303 35.4268V33.9068ZM60.2521 33.6693C60.2521 35.0924 61.0611 35.9991 62.5264 35.9991C63.0836 35.9991 63.5161 35.9431 63.907 35.8315L63.8515 34.3534C63.6563 34.4784 63.3348 34.5486 63.0003 34.5486C62.2885 34.5486 62.1216 33.9759 62.1216 33.3626V30.0144H63.782V28.6474H62.1216V26.6102L60.2521 27.2101V28.6474H58.8709V30.0144H60.2521V33.6693ZM56.0981 35.8315H57.9676V28.6474H56.0981V35.8315ZM56.0981 27.3358H57.9676V25.5505H56.0981V27.3358ZM47.8281 35.8317H49.697V32.3156C49.697 31.3958 49.9904 29.9311 51.3433 29.9311C52.5434 29.9311 52.5574 31.1165 52.5574 31.9957V35.8317H54.4269V31.2975C54.4269 29.6798 53.6873 28.4799 51.9854 28.4799C51.0085 28.4799 50.2134 28.8006 49.6275 29.6229H49.6001V28.6476H47.8281V35.8317ZM46.1982 28.6472H44.3295V32.163C44.3295 33.0831 44.0361 34.5484 42.6832 34.5484C41.4831 34.5484 41.4691 33.3624 41.4691 32.4837V28.6472H39.5996V33.1813C39.5996 34.7996 40.3392 35.9998 42.041 35.9998C43.0178 35.9998 43.827 35.5526 44.3989 34.8557H44.4264V35.8313H46.1982V28.6472ZM32.7724 35.8315H34.6419V28.6474H32.7724V35.8315ZM32.7724 27.3358H34.6419V25.5505H32.7724V27.3358ZM29.1905 35.8315H31.0594V25.3687H29.1905V35.8315ZM20.9205 35.8317H22.79V32.3156C22.79 31.3958 23.0826 29.9311 24.4363 29.9311C25.6363 29.9311 25.6496 31.1165 25.6496 31.9957V35.8317H27.5191V31.2975C27.5191 29.6798 26.7795 28.4799 25.0777 28.4799C24.1015 28.4799 23.2917 28.9261 22.8181 29.6229H22.79V25.3689H20.9205V35.8317ZM14.7852 33.7531C14.7852 32.6512 16.0267 32.511 16.8632 32.511H17.6722C17.6722 33.0695 17.5889 33.5854 17.2821 33.9902C16.9887 34.3811 16.5431 34.6317 15.9712 34.6317C15.301 34.6317 14.7852 34.3672 14.7852 33.7531Z" fill="#002A52"/>
<path fill-rule="evenodd" clip-rule="evenodd" d="M16.796 21.8056C17.7924 21.3123 18.8219 20.8955 19.7713 20.2878C20.1541 20.1758 19.5406 21.3481 17.2233 21.9363C17.1113 21.9647 16.796 22.0037 16.796 21.8056ZM19.0472 17.9207C19.4948 17.9691 19.9223 18.0485 20.3146 18.1915C19.7477 18.4443 18.3697 18.8788 17.8185 18.5137C18.1083 18.1095 18.5644 17.9488 19.0472 17.9207ZM23.6017 16.162C23.9898 16.0065 27.0187 14.4473 27.0531 14.6856C27.1136 15.1033 26.5152 15.3675 26.2031 15.4785C25.881 15.5931 23.8458 16.3462 23.587 16.2189L23.6017 16.162ZM24.58 17.6104C24.7855 17.3902 24.9379 17.0996 25.2311 16.9621C25.4957 16.9957 25.7119 17.1376 25.9281 17.2786C26.209 17.349 26.3646 16.5969 26.667 16.7262C26.9709 16.913 27.3302 16.9979 27.5926 17.2476C27.5721 17.4147 27.0308 18.0351 26.839 17.9719C26.5667 17.8822 26.2974 17.6118 26.0067 17.6098C25.3155 18.3683 25.4422 18.2042 24.5512 17.7558C24.4909 17.7109 24.5728 17.661 24.58 17.6104ZM34.7255 15.167C34.7951 15.0606 34.8781 14.7785 34.9993 14.9535C35.0547 15.0335 36.0458 19.4803 35.2924 19.9003C35.2111 19.9122 35.2392 19.8239 35.1984 19.7853C35.1984 18.531 34.5777 16.2529 34.5359 15.8322C34.5654 15.5979 34.6756 15.3958 34.7255 15.167ZM37.348 18.8125C37.4996 18.5599 37.6448 18.2878 37.8574 18.0743C38.0701 18.166 38.0426 17.9774 37.9235 18.2778C37.7622 18.6842 36.5149 20.3377 38.8294 20.9005C39.0876 20.9277 39.3102 21.0435 39.5895 21.0338C40.2123 20.9854 41.0966 20.7403 41.5523 20.3194C41.1059 20.0938 39.9142 20.1589 39.647 19.9733C39.5543 19.9088 39.876 19.2026 39.9874 19.139C40.2462 18.9908 42.1447 18.7638 41.9179 17.5487C41.8245 17.0485 41.3621 15.6937 41.6751 15.2237C41.8324 15.1107 41.8141 14.908 41.9243 14.7564L42.5517 18.0871C43.2675 20.4312 49.4022 19.3323 49.73 19.0723C49.7766 19.0353 49.9481 16.9683 50.2417 16.6771C50.5872 16.3343 50.4706 16.2816 51.3286 16.6862C51.9568 17.0785 52.7147 17.4336 53.0887 18.1157C53.5435 18.7107 53.266 19.9946 53.0024 20.0449C52.622 20.0668 52.3183 19.8611 51.9379 19.8583C51.4283 19.7903 50.8782 19.8303 50.3968 19.7186C50.3771 19.6745 50.3224 19.68 50.2886 19.6926C48.6582 20.3687 43.2341 21.3288 42.2688 19.2842C42.1348 19.0357 42.1039 18.7439 42.0182 18.4702L41.1944 19.3713L41.1936 19.4022C41.8543 19.6486 42.7269 19.2086 42.115 20.4127C41.4848 21.0801 40.7186 21.5818 39.861 21.7909C38.4331 22.2057 36.526 21.5848 36.9445 19.793C37.0364 19.4449 37.2294 19.1418 37.348 18.8125ZM38.6764 15.4849C39.1294 15.2125 38.6617 15.8155 38.8427 15.8736C39.1411 15.9143 39.233 15.5718 39.4715 15.4785C39.5726 15.5943 39.4413 15.8083 39.6239 15.8736C39.8624 15.7487 39.7431 15.4554 39.9824 15.3241C40.343 15.4602 39.4142 16.8931 39.1789 16.2575C39.1789 16.2378 39.1586 16.2251 39.1453 16.2125C38.9255 16.312 38.6593 16.6277 38.4302 16.3522C38.1489 16.0142 38.4329 15.7644 38.6764 15.4849ZM45.5265 15.268C45.7741 15.0592 47.4834 14.8095 47.5792 15.1956C47.73 15.8032 45.4787 16.947 45.426 16.5557C45.4085 16.4256 48.246 15.4019 45.1742 15.9058C44.7942 15.9681 45.4559 15.3518 45.5265 15.268ZM50.5826 18.0196C50.7119 18.0005 51.3015 18.2297 51.2178 18.4119C50.9954 18.8953 50.4076 18.6741 50.1301 18.4216C50.1798 18.2253 50.3919 18.0751 50.5826 18.0196ZM51.8178 18.1179C52.1967 18.3116 52.6017 18.6259 52.815 18.9958L51.5196 18.7753C51.6101 18.5543 51.7553 18.353 51.8178 18.1179ZM53.2972 15.3438C54.0947 14.8757 56.8542 17.1145 57.0846 17.2028L59.3233 14.6504C59.6281 14.4924 59.6358 17.6985 59.6476 17.8644C59.7844 19.7833 59.205 20.7457 59.2215 20.4638C59.2551 19.8885 59.1532 16.3812 58.9794 15.8477C58.6521 15.9959 57.7788 17.2987 57.4952 17.619C57.6696 17.9565 58.5181 18.9943 57.8678 19.9699C57.4072 20.6608 55.3032 21.4477 56.1934 18.8139C56.2479 18.6526 56.6438 18.0638 56.5548 17.9158C55.9077 17.4344 55.2389 17.0041 54.5015 16.7248C54.4257 16.8197 54.451 16.9846 54.3014 17.0218C53.7702 17.1312 53.5646 16.6406 53.227 16.3844C53.1309 16.2525 53.2298 15.5167 53.2972 15.3438ZM56.3752 14.715C57.5841 14.133 57.4303 15.3361 56.9949 15.1648C56.9282 15.1198 56.9696 15.0063 56.8614 14.9921C56.7323 14.9977 56.5421 14.9263 56.4602 15.0454C56.7064 15.6004 57.9276 15.0212 57.9394 15.1978C57.9559 15.4485 56.4241 16.0494 56.2684 15.9143C56.2692 15.8125 56.3519 15.7311 56.3666 15.6293C55.8683 15.4037 55.9668 14.9949 56.3752 14.715ZM56.7464 18.5838C56.8489 18.5018 56.83 18.3622 56.9527 18.2997C57.27 18.5438 57.5177 18.8631 57.7056 19.1817C57.7717 19.3837 56.4824 19.8855 56.4194 19.4C56.4088 19.0757 56.6551 18.8625 56.7464 18.5838ZM61.3416 18.2526C61.4516 18.2209 61.4865 19.1575 61.8946 19.3874C62.4027 19.6196 62.9171 19.8653 63.5557 19.7559C64.0819 19.6956 66.624 19.4813 66.4063 18.6048C66.2378 17.7157 66.1312 16.8006 65.9627 15.9171C65.8432 15.5969 66.0906 15.0753 66.2581 14.7964C66.3854 14.7767 66.8704 17.9894 66.9186 18.3108C66.9494 18.7053 67.2856 19.0379 67.6301 19.2625C68.4549 19.698 71.3373 19.5987 72.3053 19.1165C72.6067 18.1839 73.1617 17.7624 72.7601 19.1334C73.1193 19.2567 73.5041 19.5326 73.9202 19.3522C74.3859 19.1073 73.8629 18.0904 73.8808 17.6953C73.8852 17.5975 74.1333 16.8091 74.2212 16.9557C74.5639 17.5275 74.436 19.4008 75.3595 19.44C75.5504 19.4352 75.7609 19.4302 75.8641 19.2731L75.4388 16.0827C75.3203 15.5284 75.0072 15.8 75.6009 14.7136C75.7466 14.4473 75.7802 15.1397 76.1792 15.315C76.4953 15.4538 76.715 15.2696 76.5896 15.7242C76.4522 15.9585 76.4016 16.2876 76.0879 16.3866C75.8238 16.9313 77.1096 20.2436 75.2009 20.4541C74.7748 20.501 74.3231 20.0326 74.2703 19.6596C73.7499 19.8678 74.0422 20.7972 72.591 19.8175C72.1506 19.5201 73.077 19.9892 70.5677 20.3847C69.5544 20.5444 67.1945 20.686 66.6618 19.6989C66.5951 19.5523 66.5557 19.3874 66.5094 19.2345C65.6769 20.4547 64.4208 20.6367 62.9697 20.7103C62.0086 20.759 60.9195 20.2926 61.1023 19.1965C61.1521 18.8736 61.1964 18.5376 61.3416 18.2526ZM62.569 17.7614C62.7158 17.7351 64.0978 17.3409 64.0349 17.2336C63.8418 16.9044 62.0104 17.6972 62.7662 16.348C63.3832 15.2464 64.8286 14.6663 64.8975 15.0834C64.9249 15.2505 64.42 16.1626 64.1895 15.9591C64.1423 15.9086 64.1909 15.8139 64.1093 15.7872C63.644 15.7266 62.9002 16.1517 63.7845 16.3627C63.8612 16.381 65.7133 16.0805 64.249 17.534C63.6428 18.1356 61.7982 18.059 62.1065 17.7894C62.2575 17.7206 62.4061 17.7797 62.569 17.7614ZM68.8947 17.6862C69.4191 17.1437 69.4199 16.7148 70.1818 17.3544C70.5691 17.6795 70.6737 17.7483 69.8056 18.3663C69.4776 18.281 69.1678 17.9361 68.8667 17.7747L68.8947 17.6862ZM69.6099 16.061C70.7018 15.5115 71.8605 15.1017 72.9461 14.5332C73.5819 14.9868 69.548 16.5346 69.3489 16.4077L69.6099 16.061ZM72.8478 21.4444C73.0738 21.2176 73.179 20.9138 73.4858 20.7509C73.6383 20.7228 74.3328 21.1495 74.194 21.3403C73.5275 22.2564 73.5936 22.0163 72.8331 21.5201L72.8478 21.4444ZM78.0149 15.1648C78.2831 14.684 78.2523 16.2557 78.3076 16.6209C78.3295 17.2301 78.3847 17.7825 78.4263 18.3797C78.5371 18.9074 78.5582 19.5677 78.1673 19.9769C77.9799 19.9108 77.7832 16.9798 77.7709 16.6412C77.7617 16.1151 77.7737 15.5943 78.0149 15.1648ZM13.3579 18.2175C13.4956 17.956 13.5582 18.5599 13.5986 18.6062C14.0941 19.175 16.1101 18.7218 16.537 18.2428C16.7755 17.9753 16.1059 16.4417 16.0675 16.1129C16.0534 15.9919 16.2143 14.8638 16.3959 15.1759C16.6933 15.6872 16.7747 17.987 17.4043 18.4216C17.7803 18.0123 17.983 16.2921 20.6844 17.1662C21.4149 17.5024 22.2347 17.7628 23.1258 17.6112C23.2076 17.6928 22.9142 18.3761 22.7855 18.4274C22.432 18.5682 21.2957 18.4935 21.057 18.7115C21.0626 18.8386 21.2185 18.9094 21.2991 19.0119C22.289 19.8885 27.7071 19.2569 29.248 18.9494C30.2421 18.7511 29.6984 18.2321 30.2839 17.8855C30.7221 17.6261 29.7332 18.9335 30.8488 19.2168C31.2839 19.3272 31.4559 18.9496 31.6966 18.6968C31.6539 17.9166 31.5379 16.388 31.2363 15.6526C31.15 15.4421 31.411 14.7721 31.5992 14.6082C31.7605 14.7494 31.9079 14.9472 32.0973 15.0882C32.2455 15.2231 32.5654 15.1368 32.597 15.3781C32.4995 15.6693 32.4076 15.9669 32.1611 16.1865C32.0806 16.174 31.9781 16.1923 31.9773 16.2742C32.1245 18.7113 31.9125 18.286 33.5276 19.0413C34.0404 19.281 33.7685 19.3862 33.6825 19.8808C33.5978 20.3681 32.9768 19.8909 32.7661 19.7909L31.7169 19.4393C29.9341 21.022 30.3384 19.1471 29.8685 19.4499C29.1355 19.9224 28.445 20.0192 27.5997 20.1607C25.9896 20.43 23.3574 20.5319 21.7763 20.3172C21.281 20.2112 20.7342 19.8513 20.6367 19.3494L20.6753 18.8927C20.5752 18.7982 18.1485 19.8354 17.2999 19.506C16.8045 19.3136 16.9127 18.8233 16.7033 18.6568C16.0138 19.8935 13.3227 20.2719 13.238 19.3775C13.1466 18.9832 13.2519 18.5782 13.3579 18.2175Z" fill="#002A52"/>
<path fill-rule="evenodd" clip-rule="evenodd" d="M95.3385 14.7485L95.7971 14.3007L95.4357 13.9602L95.8558 13.6187L95.4944 13.2389L95.0859 13.5703L95.4165 13.9402L94.9879 14.3687L95.3385 14.7485ZM96.0977 16.7747C96.1849 16.7854 96.2813 16.7182 96.2813 16.7182C96.3392 16.6468 96.3127 16.536 96.3127 16.536C96.2191 16.3383 95.9386 16.4612 95.9386 16.4612C95.7764 16.5239 95.6143 16.619 95.4529 16.7462L95.5436 16.5611C95.7335 16.2897 95.7072 16.0218 95.7072 16.0218C95.6829 15.9012 95.5758 15.967 95.5758 15.967C95.3857 15.9933 95.3987 16.132 95.3987 16.132C95.345 16.2526 95.4557 16.3939 95.4557 16.3939C95.3207 16.7519 95.2701 16.9318 95.3029 16.9346C95.5487 16.7668 95.827 16.5996 95.9457 16.5705L96.0343 16.5711L96.0799 16.5962L96.0928 16.6569L96.0857 16.714L96.0977 16.7747ZM94.6009 7.9247C94.6009 7.9247 94.8644 8.34963 95.0529 8.19394C95.0529 8.19394 95.0907 8.10184 95.0209 7.95689C94.9509 7.81133 94.8752 7.72267 94.9079 7.87489C94.9079 7.87489 94.978 8.01621 94.913 8.03259C94.913 8.03259 94.8003 8.08624 94.6766 7.89757C94.5523 7.70991 94.3802 7.27913 94.4124 7.52124L94.6009 7.9247ZM95.9434 11.582L96.0214 11.7134C96.1928 11.6427 96.4562 11.7127 96.8113 11.9233C96.5856 11.5913 96.2963 11.4777 95.9434 11.582ZM94.0954 10.653C94.1974 10.6422 94.3375 10.5829 94.2731 10.5293C94.2731 10.5293 94.2731 10.5021 94.3375 10.5129C94.4016 10.5236 94.6065 10.5451 94.7087 10.5829C94.7087 10.5829 94.8916 10.6151 94.7944 10.5236C94.698 10.4321 94.6172 10.2708 94.3101 10.0451C94.3101 10.0451 94.2081 9.91589 94.3694 9.93168C94.3694 9.93168 94.5259 9.89949 94.4559 9.82377C94.3858 9.74868 94.4016 9.72155 94.3267 9.73795C94.251 9.75454 94.1217 9.73795 94.1166 9.78652C94.1109 9.8345 94.0903 9.98594 94.2296 10.088C94.3694 10.1902 94.5845 10.3894 94.5845 10.3894C94.5845 10.3894 94.3909 10.3408 94.2624 10.3301C94.1332 10.3194 93.8852 10.3465 93.8688 10.4372C93.8532 10.5293 93.9931 10.6635 94.0954 10.653ZM93.2077 9.8673C93.2826 9.66811 93.4439 9.42031 93.5303 9.29663C93.6168 9.17314 93.6004 9.42598 93.6004 9.42598C93.6004 9.42598 93.5889 9.81365 93.5682 9.9422C93.5461 10.0716 93.584 10.088 93.584 10.088C93.9982 9.43165 93.6538 8.99035 93.5518 8.7968C93.4496 8.60246 93.3261 8.72676 93.3261 8.72676C93.3261 8.72676 93.1153 9.01666 93.0141 9.20533C92.9113 9.39379 92.9811 9.47942 92.9811 9.47942L93.2077 9.8673ZM95.4165 9.86814C95.2515 9.87805 95.2122 9.70234 95.2122 9.70234C95.1436 9.51669 95.1922 9.29321 95.1922 9.29321C95.1922 9.03104 95.5136 9.13813 95.5136 9.13813C95.6165 9.17459 95.7114 9.24239 95.7971 9.34241C95.8657 9.4588 95.8264 9.67298 95.8264 9.67298C95.7286 9.91652 95.4165 9.86814 95.4165 9.86814ZM96.6256 8.89462C96.6256 8.89462 96.8305 8.87538 96.8991 8.95251C96.8991 8.95251 96.8706 9.07963 96.6848 9.20596C96.6848 9.20596 96.4113 9.43956 96.09 9.57601L95.7971 9.07963L96.6256 8.89462ZM92.7941 10.8421L94.4316 11.5534C94.6087 11.8749 94.6709 12.2804 94.6172 12.7711L94.9681 13.0932C95.1829 13.0539 95.3972 12.664 95.7092 12.2547C95.895 12.0405 96.0313 12.2741 96.0313 12.2741C96.1578 12.4861 96.2556 12.8197 96.3335 13.3367C96.5034 14.1688 96.3434 14.69 95.8849 15.0706C95.1922 15.5964 94.511 15.4514 94.1202 14.9728C94.3466 15.3085 94.6751 15.5427 95.1051 15.6741C96.0021 15.7913 96.817 15.1599 96.8212 14.2815C96.8212 13.4523 96.6362 12.7575 96.2649 12.1962C96.1121 12.0306 96.0013 11.9334 95.9335 11.9041C95.6971 11.7283 95.4993 11.7213 95.3385 11.8848L95.0365 12.2648L94.978 12.3326C94.9302 12.1077 94.8158 11.8577 94.6373 11.5828L95.0859 11.6221C95.6622 11.6221 95.9999 11.1836 96.0993 10.3072C96.0699 10.1902 96.1963 10.1315 96.1963 10.1315L97.0548 9.56589C97.2789 9.35171 97.1526 9.13813 97.1526 9.13813L96.8305 8.59257C96.6712 8.40269 96.3949 8.38324 96.0021 8.53405C95.5893 8.66888 95.3614 8.7112 95.3193 8.66038L95.4651 8.42677L94.6274 8.75756L94.8909 9.14746C94.8808 9.34241 95.0173 9.61528 95.0173 9.61528C95.0723 9.75801 95.193 9.94021 95.3778 10.1609C95.475 10.2779 95.6699 10.3072 95.6699 10.3072C95.6315 10.5516 95.5428 10.7836 95.3001 11.0372C94.9994 11.2534 94.6579 11.2728 94.2759 11.0963L93.6524 10.8028L92.7941 10.4429L92.5206 10.3459C92.3934 10.3165 92.4426 10.453 92.4426 10.453L92.7941 10.8421ZM105.323 14.223C104.577 14.1108 103.849 13.9744 103.139 13.8131C102.903 13.7845 102.786 13.6252 102.789 13.3367C102.818 12.9774 103.056 12.8183 103.5 12.859C103.327 12.7268 103.115 12.6268 102.828 12.479C102.612 12.4013 102.61 11.9877 102.749 11.8456C102.8 11.7656 102.989 11.7198 103.314 11.7091C103.227 11.5241 102.721 11.417 102.721 11.417C102.43 11.3364 102.235 11.2127 102.135 11.0471C102.042 10.7573 102.13 10.4973 102.398 10.268C102.788 9.90802 103.286 9.6246 103.286 9.6246C104.286 8.92254 104.919 8.31907 105.271 7.89759L104.776 8.03767L101.983 10.1843C100.618 10.2722 99.5823 9.70234 99.3851 9.10899C99.2116 8.57819 99.3836 8.17979 99.96 8.0219L99.8922 8.00267C99.328 8.15692 99.0286 8.50695 98.9373 8.94319C98.8551 9.59586 99.3529 10.0829 100.428 10.4044C101.072 10.5886 101.389 10.5915 101.882 10.3945C101.687 10.5501 101.555 10.8 101.608 11.0963C101.657 11.3492 101.979 11.5534 102.486 11.612C102.333 11.6627 102.219 11.7763 102.164 11.9142C102.07 12.2348 102.271 12.4719 102.769 12.6247C102.906 12.6448 102.867 12.7126 102.867 12.7126C102.417 12.7118 102.226 12.9361 102.291 13.3853C102.363 13.6217 102.623 13.8359 103.071 14.028C103.403 14.1787 104.251 14.3609 105.615 14.5736C105.831 14.6123 105.635 14.7293 105.635 14.7293L105.343 14.7694L105.352 14.8172L106.884 14.7485L106.484 14.3886L105.323 14.223ZM96.6748 10.8322L96.5669 10.7058C96.5392 10.6064 96.5813 10.568 96.6941 10.5886C96.6941 10.5886 96.8404 10.5307 96.7042 10.4236C96.7042 10.4236 96.4598 10.3459 96.4013 10.54C96.4013 10.54 96.372 10.618 96.4799 10.735L96.9283 11.2028C96.6633 11.1407 96.4714 11.1342 96.3527 11.1836C96.3527 11.1836 96.1185 11.1641 96.1963 11.3107C96.1963 11.3107 96.2163 11.3978 96.372 11.4463C96.372 11.4463 96.5762 11.3978 96.5963 11.2806C96.804 11.2763 96.9797 11.302 97.1232 11.3585L96.6748 10.8322ZM105.86 16.249L105.753 16.2298L105.655 16.162L104.553 15.5577L103.169 14.8265C102.772 14.6366 102.457 14.4414 102.222 14.2422L102.096 14.1058C102.008 13.9795 102.018 14.0572 102.018 14.0572L102.398 14.6321C102.76 15.0121 103.754 15.5184 104.895 16.1035C105.129 16.2691 104.895 16.2682 104.895 16.2682L104.602 16.2877C105.011 16.4733 105.743 16.5504 105.987 16.7646H106.055L105.918 16.3369L105.86 16.249ZM103.269 18.7894C103.15 18.7951 103.049 18.7657 102.967 18.7016C102.967 18.7016 103.065 18.5165 103.299 18.5558C103.299 18.5558 103.494 18.5264 103.572 18.6143C103.613 18.6609 103.552 18.7801 103.269 18.7894ZM99.093 18.7621C98.3124 18.9672 97.7374 19.0164 97.6204 18.9087C97.6818 18.4987 97.6947 18.2908 97.699 18.1487L97.7374 17.9924C97.8253 17.6794 98.2446 17.5053 98.7709 17.6709C98.9766 17.7337 99.3051 17.9258 99.7564 18.2465L100.097 18.4216L99.093 18.7621ZM102.227 16.4883L102.121 16.4784L102.043 16.4682L101.995 16.4391L102.014 16.3612L102.062 16.3027L102.13 16.2541H102.199L102.258 16.2741L102.296 16.3419L102.315 16.4197L102.335 16.5075L102.227 16.4883ZM103.217 18.0323C103.217 18.0323 102.837 18.0902 102.662 18.3922C102.662 18.3922 102.393 18.0402 102.084 17.6167C102.248 17.2768 102.327 16.9262 102.384 16.7019L102.491 16.7219L102.549 16.7604L102.588 16.8089L102.627 16.7897V16.7019L102.608 16.5948L102.501 16.5369L102.393 16.5075C102.393 16.2247 102.267 16.1184 102.267 16.1184C102.199 16.0105 102.072 16.1377 102.072 16.1377L102.004 16.1956L101.926 16.3612C101.848 16.6725 102.199 16.6533 102.199 16.6533C102.354 16.6239 102.277 16.8581 102.277 16.8581C102.242 17.0096 102.195 17.3031 102.067 17.5924C101.805 17.2339 101.516 16.8276 101.335 16.5411L101.209 16.3654L101.18 16.3077V16.2591H101.248L101.355 16.3168L101.472 16.3369L101.579 16.327L101.228 15.9863L101.082 15.8783L100.819 15.6842L100.584 15.5379L100.565 16.0255L100.653 16.1134L100.77 16.1905L100.936 16.4241L101.287 16.9796L101.628 17.4859L101.901 17.9145L101.911 17.9289C101.847 18.0623 101.775 18.2072 101.696 18.3629C101.778 18.2145 101.852 18.0738 101.92 17.9416L102.427 18.655C102.427 18.655 102.193 18.9285 102.125 19.1036C102.125 19.1036 101.735 19.6399 101.346 19.22L101.258 19.1135C101.193 19.0329 101.273 18.853 101.295 18.7779C101.316 18.7022 101.295 18.6866 101.295 18.6866C101.16 18.5951 100.895 19.0279 100.895 19.0279L100.826 19.1542C100.658 19.4907 100.472 19.715 100.185 19.7949C99.6772 19.8178 99.4521 19.567 99.5122 19.0449L99.4993 19.0434C99.6185 18.9957 99.7371 18.9436 99.8535 18.8886C100.196 18.7258 100.586 18.6515 101.023 18.6651C101.365 18.3037 101.316 18.1972 101.316 18.1972C100.701 18.2165 99.8442 17.7002 99.8442 17.7002L99.5408 17.5053L99.2193 17.311C98.8102 17.0575 98.4195 17.1846 98.4195 17.1846C97.8547 17.4087 97.6696 17.7588 97.6696 17.7588C97.5224 17.9359 97.4283 18.2286 97.3862 18.6357L97.3568 18.8208C97.0534 18.8301 96.8605 18.6456 96.7605 18.1859C96.774 18.1837 96.7884 18.1808 96.8012 18.178L97.1718 17.8559C97.5617 17.5152 97.6204 17.1652 97.3761 16.5996C97.2012 16.2919 97.117 15.9348 97.1232 15.5277L97.3862 15.7226L97.1232 15.0606L97.1034 14.9528L97.0548 14.9042L96.7141 15.2457V15.6255C96.6969 15.9969 96.7918 16.5312 96.9961 16.9595C97.1427 17.3302 97.1325 17.6808 97.1325 17.6808C97.1433 17.9031 96.8313 17.9258 96.1963 17.7488C95.048 17.5039 94.3324 17.296 94.0516 17.1259C93.5504 16.7775 93.8567 16.1619 94.9486 15.869L94.9587 15.8105C94.186 15.9791 93.6818 16.2591 93.4467 16.6482C93.2712 17.0381 93.2712 17.3988 93.7789 17.5932C93.8832 17.6581 94.3709 17.8009 95.2416 18.0223C95.9013 18.1873 96.3412 18.2515 96.7291 18.1908L96.7141 18.2165C96.3627 19.0163 96.6256 19.5319 98.1375 19.4341C98.5824 19.3528 99.0065 19.2335 99.41 19.0785L99.3851 19.1228C99.2187 19.7576 99.3258 20.1633 99.7078 20.3405C100.154 20.471 100.505 20.299 100.76 19.824L101.013 19.4341C101.013 19.4341 101.16 19.2107 101.209 19.4149C101.298 19.8042 101.55 20.0483 101.989 19.8919C102.213 19.7655 102.275 19.6463 102.427 19.4341L102.711 19.0357C102.925 19.3271 103.201 19.4169 103.431 19.3663C103.431 19.3663 103.754 19.3262 103.734 18.7914L103.675 18.3337C103.675 18.3337 103.617 17.9444 103.217 18.0323ZM105.289 15.4777C105.305 15.5478 105.383 15.6421 105.7 15.7449L105.678 15.6935C105.678 15.6935 105.246 15.4878 105.552 15.4571C105.552 15.4571 105.668 15.4164 105.847 15.4986L106.425 15.7449C106.131 15.5393 105.815 15.3957 105.646 15.3443C105.646 15.3443 105.32 15.2421 105.289 15.4777ZM102.005 12.3855L101.494 12.2776L101.348 12.8211L101.882 12.9683L102.005 12.3855ZM97.3168 19.7421L97.2483 19.752L97.132 19.9077L98.6824 19.8492C98.8102 19.7913 98.8288 19.6741 98.8288 19.6741L98.4087 19.6842L97.3168 19.7421ZM94.2466 14.9528C94.2466 14.9528 94.568 14.8558 94.2759 14.5443C94.2759 14.5443 93.7196 14.0673 93.554 14.1744L93.5739 14.2323C93.5739 14.2323 93.8674 14.603 93.584 14.6415C93.584 14.6415 93.3396 14.6415 93.1354 14.4959C92.5528 14.0444 92.1748 13.723 92.0041 13.5311C92.0041 13.5311 91.8578 13.4825 91.9064 13.6187L92.0629 13.7845C92.287 14.0179 92.7356 14.4758 93.4275 14.8358C93.4275 14.8358 93.7111 15.0121 94.2466 14.9528ZM93.4662 15.9492C93.4275 16.047 93.6425 16.0269 93.6425 16.0269C93.9253 15.9105 93.7789 15.667 93.7789 15.667C93.701 15.55 93.3204 15.5885 93.3204 15.5885L92.989 15.5984C93.1625 15.5006 93.3318 15.3579 93.4953 15.17C93.6125 15.0243 93.3789 15.0435 93.3789 15.0435H93.2032C93.0083 15.0243 93.067 15.1892 93.067 15.1892C93.1054 15.2963 92.989 15.4034 92.989 15.4034L92.6677 15.5791C92.4819 15.6571 92.7941 15.7057 92.7941 15.7057L93.4467 15.6955C93.6611 15.6862 93.4662 15.9492 93.4662 15.9492ZM104.29 17.0482L102.593 15.6549C102.593 15.6549 102.408 15.5277 102.496 15.45L102.828 15.4407L102.798 15.372L102.398 15.187L101.54 14.8558L101.677 15.3336L101.716 15.3822L101.794 15.372L101.92 15.45L102.155 15.6449L102.944 16.327L103.519 16.814L104.134 17.3011C104.134 17.3011 104.885 17.9052 104.973 18.1588C104.988 17.8088 104.748 17.4389 104.29 17.0482ZM95.7928 18.685L95.9778 18.6273C96.0948 18.5293 95.9386 18.4222 95.9386 18.4222C95.7928 18.2959 95.5879 18.3445 95.5879 18.3445C95.4515 18.3445 95.4314 18.4515 95.4314 18.4515C95.6315 18.4315 95.7485 18.4708 95.7829 18.5685L95.7442 18.5979C95.5586 18.5979 95.3829 18.6758 95.3829 18.6758C95.1644 18.7408 95.1486 19.0265 95.3244 19.1143C95.6122 19.2963 95.9434 19.3384 96.3185 19.2406C95.8843 19.1649 95.6143 19.0706 95.5094 18.9578C95.3043 18.6844 95.7928 18.685 95.7928 18.685ZM92.3064 13.044C92.4912 12.996 92.5013 12.9076 92.5013 12.9076L92.394 12.859C92.3064 12.7804 92.4912 12.781 92.4912 12.781C92.5799 12.7604 92.7192 12.7697 92.9113 12.8104L92.9398 12.7581L92.9113 12.859L92.9404 12.9468L93.0184 13.044L93.0761 13.1225L93.1447 13.1517L93.2133 13.1325L93.1741 13.044L93.0961 12.9669C93.1354 12.7618 93.2811 12.8104 93.2811 12.8104C93.2326 12.9076 93.2811 13.2296 93.2811 13.2296C93.3981 13.5017 93.5247 13.5503 94.0324 13.5602C94.5152 13.5552 94.8466 13.6139 95.0266 13.7351L95.0466 13.6867C94.7344 13.3553 93.8668 13.4045 93.8668 13.4045C93.3111 13.356 93.4953 12.9268 93.4953 12.9268C93.6024 12.4883 93.3982 12.5375 93.3982 12.5375L93.2911 12.5468L93.1639 12.5861L93.067 12.6247L92.9568 12.7168C92.8734 12.5341 92.4912 12.3911 92.4912 12.3911C92.2384 12.2648 92.1606 12.0792 92.3355 12.0405L92.4033 11.9919C92.4033 11.7684 92.1598 11.8263 92.1598 11.8263C91.8479 12.0205 92.1598 12.284 92.1598 12.284L92.3256 12.4304L92.609 12.6247H92.277C91.9643 12.5962 91.9357 12.8104 91.9357 12.8104C91.9841 13.0924 92.3064 13.044 92.3064 13.044ZM105.06 9.48816V9.52742C105.351 9.92381 105.67 10.1544 106.016 10.2194C106.141 10.2416 106.255 10.2479 106.358 10.2386C106.358 10.2386 106.377 9.80011 106.026 9.38106C106.026 9.38106 105.908 9.32317 105.577 9.2839C105.781 9.61244 105.869 9.86955 105.84 10.0538L105.06 9.48816ZM103.803 7.75407C103.822 7.66984 104.076 7.58847 104.543 7.47206C104.076 7.47206 103.793 7.58848 103.637 7.75407C103.471 8.00408 103.568 8.06623 103.92 8.01764L103.979 7.92978H103.734C103.715 7.81278 103.803 7.75407 103.803 7.75407ZM103.383 6.66293L103.481 6.68296C103.675 6.73155 103.509 6.9265 103.509 6.9265L103.344 6.97507L103.276 6.74146C103.284 6.71211 103.321 6.68641 103.383 6.66293ZM100.731 8.69967L101.287 7.25059C101.646 7.34494 102.286 7.30485 103.207 7.13136L103.305 7.36497L103.451 7.3164L103.383 7.01436C103.646 6.99491 103.754 6.87791 103.774 6.67284C103.716 6.54005 103.567 6.51149 103.324 6.58498C103.324 6.58498 103.12 6.64288 103.129 6.8192L103.188 7.05362C102.682 7.16639 102.178 7.24717 101.288 7.24778L101.404 6.94574C101.404 6.94574 101.442 6.73073 101.56 6.83865L101.657 7.06274L101.806 5.80437C101.806 5.80437 101.54 5.95237 101.394 6.22505C101.296 6.40299 101.163 6.69146 100.994 7.09209C100.526 8.50472 100.195 9.26467 99.9606 9.4588C100.371 9.27519 100.628 9.02174 100.731 8.69967ZM104.965 12.8804C104.888 12.8104 104.621 12.8175 104.224 12.8217L104.593 12.5782C104.808 12.4033 104.887 12.2377 104.887 12.2377C104.604 12.1397 104.545 12.2569 104.545 12.2569C104.448 12.2476 104.506 12.4812 104.506 12.4812L104.106 12.744L104.009 12.8025V12.8511L104.789 12.9104C104.943 12.894 105.013 13.0853 104.838 13.2503C105.179 13.3189 105.17 12.9104 104.965 12.8804ZM97.7733 16.2719L98.1338 15.8526L98.2409 15.717L98.2996 15.7063L98.3674 15.7362L98.3867 15.7941L98.3966 15.8628L98.4452 15.882L98.4745 15.8628L98.5138 15.7848L98.5237 15.6877L98.5039 15.5899C98.3474 15.4243 98.2117 15.6484 98.2117 15.6484L97.851 16.0769C97.8939 15.8162 97.8911 15.5949 97.8611 15.4342C97.7538 15.2299 97.6275 15.4441 97.6275 15.4441C97.519 15.5121 97.6075 15.6091 97.6075 15.6091L97.656 15.6385L97.7146 15.6877L97.7631 15.717L97.7733 15.7848L97.7346 16.2233L97.7733 16.2719ZM103.443 10.4872L103.404 11.0036L103.926 11.0992L104.009 10.5064L103.443 10.4872ZM106.094 13.8817C105.626 12.1484 105.212 10.9251 104.914 10.2287C104.738 9.74303 104.498 9.6489 104.192 9.94668C104.192 9.94668 104.309 10.0637 104.416 9.98515C104.416 9.98515 104.503 9.79101 104.621 9.95661C105.07 10.7443 105.586 12.479 105.987 13.8622L106.094 13.8817ZM102.486 8.00773L102.711 8.01764C102.711 8.01764 103.1 7.83201 103.169 7.84132C103.169 7.84132 102.905 7.73483 102.477 7.86196C102.477 7.86196 102.008 7.97837 101.891 8.21259C101.891 8.21259 101.843 8.37757 102.018 8.43607L102.291 8.59257C102.291 8.59257 102.389 8.69967 102.252 8.74824C102.057 8.80817 101.713 8.75613 101.14 8.59257L101.131 8.64115C101.485 8.9274 101.803 9.01525 102.086 8.90474L102.857 8.51402L102.467 8.24112C102.467 8.24112 102.291 8.07614 102.486 8.00773ZM106.346 11.265L105.946 11.5277L105.859 11.5763V11.6255L106.63 11.6941C106.783 11.6784 106.853 11.869 106.678 12.0348C107.019 12.1033 107.009 11.6941 106.804 11.6642C106.727 11.5941 106.461 11.6012 106.063 11.6063L106.434 11.3621C106.648 11.1878 106.727 11.022 106.727 11.022C106.445 10.9251 106.385 11.0415 106.385 11.0415C106.287 11.0313 106.346 11.265 106.346 11.265ZM98.4389 9.16669L98.5658 9.30312C98.5658 9.30312 98.7715 9.46892 98.6446 9.64384C98.6446 9.64384 98.4689 9.8487 98.1861 10.0436C98.1861 10.0436 97.8838 10.1801 97.8354 9.91732C97.8089 9.66954 97.9488 9.3746 98.2539 9.03104L98.4389 9.16669ZM95.3758 7.32774C95.4136 7.34353 95.4557 7.33847 95.4557 7.33847C96.1578 8.09903 97.4447 8.64115 97.4447 8.64115L98.0589 8.95251C97.7962 9.23531 97.7575 9.55659 97.7575 9.55659C97.6996 9.89668 97.6897 10.1601 97.7281 10.3459C97.8453 10.735 98.1861 10.5501 98.1861 10.5501C98.6053 10.3852 98.7709 9.92725 98.7709 9.92725C98.8045 9.73169 98.8181 9.51102 98.8102 9.26467C98.7616 8.90474 98.4689 8.69967 98.4689 8.69967C99.1515 7.89051 99.8928 7.03359 100.516 6.06937L100.638 5.47461C100.384 5.90296 99.8857 6.56514 99.1636 7.44919L98.2703 8.50612C98.1152 8.35044 97.2983 8.06623 97.2983 8.06623C96.7133 7.8326 96.207 7.45285 96.207 7.45285L96.09 7.34554L96.4892 7.3164C96.4892 7.3164 96.0807 7.03137 95.7199 6.91861C95.3594 6.80564 95.2201 6.69226 95.2308 6.79997C95.2416 6.90788 95.3108 7.25202 95.3108 7.25202C95.3108 7.25202 95.3385 7.31134 95.3758 7.32774ZM99.0051 15.8506L98.9958 16.1911C98.9958 16.1911 98.8494 16.3276 98.7909 16.1719L98.8009 16.0941L98.8302 15.7727H98.7517L98.7415 15.8891V15.9871L98.7223 16.1334L98.713 16.2699C98.7124 16.4134 98.7808 16.449 98.9173 16.3761L98.9666 16.3176L99.0243 16.3668L99.1029 16.4255L99.1902 16.4055L99.2387 16.3569L99.278 16.2699L99.2879 15.8113L99.2193 15.8891L99.2094 16.182C99.2094 16.182 99.1709 16.2984 99.0636 16.2111L99.0831 15.8312L99.0051 15.8506ZM99.7999 15.8769L99.9657 15.8376L100.112 15.7891L100.21 15.7599L100.278 15.7012V15.6721L100.131 15.7113L99.9171 15.7599L99.7908 15.7992L99.6543 15.8283H99.5272L99.4879 15.9456L99.6543 15.9063L99.7999 15.8769ZM106.615 13.8252C106.371 13.8444 106.44 13.4946 106.44 13.4946C106.545 13.4475 106.671 13.4766 106.82 13.5817L106.615 13.8252ZM106.791 13.4946L106.634 13.4167C106.4 13.3381 106.303 13.4167 106.303 13.4167C106.235 13.6082 106.29 13.7574 106.469 13.8645C106.645 13.9908 106.752 13.8938 106.752 13.8938L106.918 13.7181L106.947 13.7088L107.044 13.6795L106.791 13.4946ZM96.7726 7.06274L96.7627 6.84937C96.5576 6.68357 96.8404 6.5951 96.8404 6.5951C97.6889 6.13719 99.1029 5.62097 99.1029 5.62097L99.1608 5.47461C98.6638 5.63027 97.5874 6.09507 96.7526 6.48801C96.4799 6.62425 96.4884 6.87569 96.7726 7.06274ZM98.2731 7.27711L98.3709 7.10201L98.0589 7.2579C98.0589 7.2579 97.7374 7.42349 97.6597 7.18925C97.6597 7.18925 97.699 6.97507 97.8253 7.00424C97.8253 7.00424 97.9425 6.985 97.981 7.13136C97.981 7.13136 98.0589 6.98418 98.0002 6.83865C98.0002 6.83865 97.8747 6.71211 97.7182 6.89715L97.5617 7.1599C97.5617 7.1599 97.4439 7.35485 97.6204 7.40344L97.6797 7.41356L97.5911 7.6571L98.2731 7.27711ZM99.7365 17.0482L100.039 16.7747L100.438 17.1652L100.794 16.744L100.321 16.3348L100.078 16.6676L99.5778 16.2275L99.2715 16.6361L99.7365 17.0482ZM99.4628 6.4293C99.4628 6.4293 99.5608 6.38071 99.6385 6.25441C99.6385 6.25441 99.7165 6.06937 99.59 5.96228L99.4537 5.87442L99.3758 6.00154L99.473 6.08881C99.473 6.08881 99.6386 6.24447 99.4436 6.3123C99.4436 6.3123 99.2094 6.3708 99.2487 6.18576C99.248 5.97383 99.3258 5.79528 99.4829 5.65011C99.4829 5.65011 99.1029 5.89445 99.1416 6.33233C99.1416 6.33233 99.1416 6.61434 99.4628 6.4293Z" fill="#002A52"/>
</g>
<defs>
<clipPath id="clip0_1_17089">
<rect width="128" height="48" fill="white"/>
</clipPath>
</defs>
</svg>
