<svg width="128" height="48" viewBox="0 0 128 48" fill="none" xmlns="http://www.w3.org/2000/svg">
<g clip-path="url(#clip0_1_17058)">
<path d="M37.3281 4.05908C33.6304 4.37046 30.1915 6.08319 27.7151 8.84677C25.2387 11.6104 23.9121 15.2158 24.0067 18.9254C24.1013 22.635 25.61 26.1682 28.224 28.8019C30.838 31.4357 34.3597 32.9709 38.0685 33.0934L37.3281 4.05908Z" fill="#002A52"/>
<path d="M39.5295 14.9385L38.7891 44C42.5474 43.9474 46.1394 42.4421 48.8124 39.7996C51.4854 37.1571 53.0318 33.5826 53.1276 29.8251C53.2233 26.0677 51.8609 22.419 49.326 19.6438C46.791 16.8686 43.2802 15.1824 39.5295 14.9385Z" fill="#002A52"/>
<path d="M38.57 4C38.1504 4 37.7382 4.02221 37.3359 4.05676L38.3503 44H38.802L39.8089 4.05923C39.3992 4.02221 38.9871 4 38.57 4Z" fill="#6D91B2"/>
<path d="M64.3844 19.5398C63.812 19.1889 63.209 18.8907 62.5827 18.6488C61.3709 18.1354 60.2282 17.6616 60.2282 16.6743C60.2282 15.6871 61.2006 15.1318 62.1582 15.1318C62.6585 15.1317 63.1514 15.2528 63.5946 15.4847C63.8367 15.6083 64.1138 15.6451 64.3798 15.589C64.6457 15.5328 64.8843 15.3871 65.0557 15.1762L65.5494 14.5666L65.4654 14.4975C64.5286 13.6845 63.3295 13.2375 62.0891 13.2388C59.937 13.2388 58.2488 14.7196 58.2488 16.6225C58.2488 17.7726 58.7918 18.7154 59.8654 19.4213C60.4133 19.7573 60.9917 20.0408 61.593 20.2678C62.8542 20.7886 64.0438 21.2797 64.0438 22.4891C64.0438 23.4763 63.1701 24.2167 62.0077 24.2167C60.6379 24.2167 59.663 23.3776 59.0855 22.6742L59.009 22.5804L57.6367 23.923L57.7009 23.9996C58.2298 24.656 58.8993 25.1854 59.6601 25.5485C60.4209 25.9116 61.2535 26.0992 62.0965 26.0974C64.3721 26.0974 66.0232 24.5499 66.0232 22.4175C66.0331 21.2403 65.4778 20.2629 64.3844 19.5398Z" fill="#002A52"/>
<path d="M71.838 17.2892C70.9638 17.2819 70.1071 17.534 69.3761 18.0136C68.6452 18.4933 68.0729 19.1789 67.7316 19.9837C67.3903 20.7886 67.2954 21.6766 67.4587 22.5354C67.6221 23.3943 68.0365 24.1854 68.6495 24.8087C69.2625 25.4321 70.0465 25.8596 70.9025 26.0374C71.7585 26.2151 72.6479 26.135 73.4584 25.8073C74.2689 25.4795 74.964 24.9188 75.4558 24.196C75.9476 23.4732 76.214 22.6208 76.2213 21.7466V21.7021C76.2498 20.5606 75.8239 19.4545 75.0371 18.627C74.2503 17.7995 73.1671 17.3183 72.0256 17.2892H71.838ZM71.838 24.3232C70.4164 24.3232 69.3428 23.2002 69.3428 21.7071C69.3428 20.2139 70.4164 19.0909 71.838 19.0909C73.2596 19.0909 74.3308 20.2213 74.3308 21.7021C74.3308 23.183 73.2596 24.3232 71.838 24.3232Z" fill="#002A52"/>
<path d="M82.3521 17.2888C81.5158 17.2906 80.7027 17.5634 80.0346 18.0663V14.9145C80.0063 14.4623 79.8068 14.0378 79.4767 13.7274C79.1466 13.417 78.7107 13.244 78.2576 13.2437H78.1465V25.9517H80.037V20.1987C80.3105 19.8594 80.6552 19.5842 81.0467 19.3927C81.4382 19.2013 81.867 19.0981 82.3027 19.0905C82.6133 19.0883 82.9204 19.1562 83.2011 19.2891C83.4819 19.422 83.729 19.6165 83.9242 19.8581C84.171 20.1592 84.3907 20.5985 84.3907 21.7067V25.9517H86.2812V21.7955C86.2812 20.4282 86.0344 19.5298 85.4495 18.7894C85.0823 18.3191 84.6121 17.9393 84.0752 17.6792C83.5382 17.419 82.9487 17.2855 82.3521 17.2888Z" fill="#002A52"/>
<path d="M104.397 17.3434C104.175 17.3068 103.951 17.2887 103.726 17.2891C103.271 17.2755 102.819 17.3581 102.399 17.5317C101.978 17.7052 101.6 17.9657 101.287 18.2961C101.16 17.9587 100.933 17.6682 100.636 17.4636C100.339 17.2589 99.9867 17.1498 99.6262 17.1509H99.5176V25.952H101.408V20.4013C101.627 20.0247 101.935 19.708 102.306 19.4794C102.677 19.2507 103.098 19.1172 103.533 19.0908C103.743 19.0845 103.952 19.1069 104.155 19.1574L104.276 19.192L104.498 17.3607L104.397 17.3434Z" fill="#002A52"/>
<path d="M95.0021 18.1724C94.2772 17.5833 93.3668 17.2702 92.4329 17.2889C91.704 17.2804 90.9863 17.4679 90.3548 17.8318C89.6905 18.2346 89.141 18.8014 88.759 19.4779C88.3771 20.1543 88.1756 20.9176 88.1738 21.6945C88.1721 22.4713 88.3702 23.2355 88.7491 23.9136C89.128 24.5918 89.675 25.1611 90.3375 25.5668C90.9877 25.9331 91.7212 26.126 92.4674 26.127C93.3483 26.1378 94.2075 25.8537 94.9083 25.32V25.9518H96.7471V17.126H96.6385C96.2945 17.1271 95.958 17.2261 95.6682 17.4114C95.3784 17.5967 95.1474 17.8607 95.0021 18.1724ZM94.8565 20.1963V23.2196C94.6051 23.5567 94.2796 23.8314 93.9052 24.0227C93.5308 24.214 93.1174 24.3167 92.697 24.3229C92.356 24.3278 92.0174 24.2654 91.7005 24.1395C91.3836 24.0135 91.0946 23.8263 90.8501 23.5886C90.6056 23.351 90.4102 23.0675 90.2753 22.7543C90.1403 22.4411 90.0684 22.1045 90.0635 21.7635V21.7018C90.0395 21.0329 90.2821 20.3818 90.738 19.8917C91.1939 19.4016 91.8257 19.1125 92.4946 19.0881H92.6081C93.0423 19.0909 93.4701 19.1921 93.8596 19.384C94.249 19.5759 94.5898 19.8536 94.8565 20.1963Z" fill="#002A52"/>
<path d="M58.7303 29.4952C58.6489 29.4952 58.579 29.4661 58.5209 29.408C58.4627 29.3498 58.4336 29.278 58.4336 29.1927C58.4336 29.1074 58.4627 29.0376 58.5209 28.9833C58.579 28.9251 58.6489 28.896 58.7303 28.896C58.8118 28.896 58.8816 28.9251 58.9398 28.9833C58.9979 29.0376 59.027 29.1074 59.027 29.1927C59.027 29.278 58.9979 29.3498 58.9398 29.408C58.8816 29.4661 58.8118 29.4952 58.7303 29.4952ZM58.9339 30.0945V33.271H58.5267V30.0945H58.9339Z" fill="#002A52"/>
<path d="M62.1019 30.0363C62.482 30.0363 62.7923 30.1546 63.0327 30.3912C63.2732 30.6239 63.3934 30.9633 63.3934 31.4093V33.271H62.992V31.4559C62.992 31.1107 62.9047 30.8469 62.7302 30.6646C62.5595 30.4823 62.3249 30.3912 62.0262 30.3912C61.7198 30.3912 61.4755 30.4882 61.2932 30.6821C61.1109 30.876 61.0197 31.1611 61.0197 31.5373V33.271H60.6125V30.0945H61.0197V30.6355C61.1206 30.4416 61.266 30.2942 61.4561 30.1934C61.6461 30.0887 61.8614 30.0363 62.1019 30.0363Z" fill="#002A52"/>
<path d="M65.5799 30.4377V32.41C65.5799 32.6039 65.6167 32.7377 65.6904 32.8114C65.7641 32.8851 65.894 32.922 66.0802 32.922H66.4526V33.271H66.0162C65.7292 33.271 65.5159 33.2051 65.3762 33.0732C65.2366 32.9375 65.1668 32.7164 65.1668 32.41V30.4377H64.7246V30.0945H65.1668V29.2974H65.5799V30.0945H66.4526V30.4377H65.5799Z" fill="#002A52"/>
<path d="M70.7546 31.5199C70.7546 31.6595 70.7507 31.7662 70.7429 31.8398H68.1074C68.1191 32.0803 68.1772 32.2859 68.282 32.4565C68.3867 32.6272 68.5244 32.7571 68.695 32.8463C68.8657 32.9317 69.0519 32.9743 69.2535 32.9743C69.5173 32.9743 69.7384 32.9103 69.9168 32.7823C70.0991 32.6544 70.2193 32.4818 70.2775 32.2646H70.708C70.6304 32.5748 70.4637 32.8289 70.2077 33.0267C69.9556 33.2206 69.6375 33.3176 69.2535 33.3176C68.9549 33.3176 68.6873 33.2517 68.4507 33.1198C68.2141 32.984 68.0279 32.794 67.8922 32.5496C67.7603 32.3014 67.6944 32.0124 67.6944 31.6828C67.6944 31.3531 67.7603 31.0641 67.8922 30.8159C68.024 30.5677 68.2083 30.3776 68.4449 30.2457C68.6815 30.1139 68.951 30.0479 69.2535 30.0479C69.5561 30.0479 69.8198 30.1139 70.0448 30.2457C70.2736 30.3776 70.4482 30.556 70.5684 30.781C70.6925 31.0021 70.7546 31.2484 70.7546 31.5199ZM70.3415 31.5082C70.3454 31.2716 70.2969 31.0699 70.196 30.9032C70.0991 30.7364 69.9653 30.6103 69.7946 30.525C69.624 30.4397 69.4378 30.397 69.2361 30.397C68.9336 30.397 68.6756 30.494 68.4623 30.6879C68.249 30.8818 68.1307 31.1553 68.1074 31.5082H70.3415Z" fill="#002A52"/>
<path d="M72.6632 30.6588C72.7524 30.461 72.8882 30.3078 73.0705 30.1992C73.2567 30.0906 73.4836 30.0363 73.7512 30.0363V30.461H73.6406C73.3459 30.461 73.1093 30.5405 72.9309 30.6995C72.7524 30.8586 72.6632 31.1242 72.6632 31.4966V33.271H72.256V30.0945H72.6632V30.6588Z" fill="#002A52"/>
<path d="M76.6095 30.0363C76.9896 30.0363 77.2999 30.1546 77.5404 30.3912C77.7809 30.6239 77.9011 30.9633 77.9011 31.4093V33.271H77.4997V31.4559C77.4997 31.1107 77.4124 30.8469 77.2379 30.6646C77.0672 30.4823 76.8326 30.3912 76.5339 30.3912C76.2275 30.3912 75.9831 30.4882 75.8009 30.6821C75.6186 30.876 75.5274 31.1611 75.5274 31.5373V33.271H75.1202V30.0945H75.5274V30.6355C75.6283 30.4416 75.7737 30.2942 75.9638 30.1934C76.1538 30.0887 76.3691 30.0363 76.6095 30.0363Z" fill="#002A52"/>
<path d="M79.3719 31.6769C79.3719 31.3511 79.4359 31.0661 79.5639 30.8217C79.6958 30.5735 79.8762 30.3834 80.105 30.2516C80.3377 30.1158 80.5995 30.0479 80.8904 30.0479C81.1929 30.0479 81.4528 30.1178 81.67 30.2574C81.8911 30.397 82.0501 30.5754 82.1471 30.7926V30.0945H82.5543V33.271H82.1471V32.5671C82.0462 32.7843 81.8853 32.9646 81.6642 33.1081C81.447 33.2478 81.1871 33.3176 80.8846 33.3176C80.5976 33.3176 80.3377 33.2497 80.105 33.114C79.8762 32.9782 79.6958 32.7862 79.5639 32.538C79.4359 32.2898 79.3719 32.0027 79.3719 31.6769ZM82.1471 31.6828C82.1471 31.4268 82.0947 31.2018 81.99 31.0079C81.8853 30.814 81.7418 30.6646 81.5595 30.5599C81.3811 30.4552 81.1833 30.4028 80.966 30.4028C80.7411 30.4028 80.5394 30.4533 80.361 30.5541C80.1826 30.6549 80.041 30.8023 79.9363 30.9963C79.8354 31.1863 79.785 31.4132 79.785 31.6769C79.785 31.9368 79.8354 32.1656 79.9363 32.3635C80.041 32.5574 80.1826 32.7067 80.361 32.8114C80.5394 32.9123 80.7411 32.9627 80.966 32.9627C81.1833 32.9627 81.3811 32.9103 81.5595 32.8056C81.7418 32.7009 81.8853 32.5516 81.99 32.3576C82.0947 32.1637 82.1471 31.9388 82.1471 31.6828Z" fill="#002A52"/>
<path d="M84.7698 30.4377V32.41C84.7698 32.6039 84.8067 32.7377 84.8804 32.8114C84.954 32.8851 85.084 32.922 85.2701 32.922H85.6425V33.271H85.2062C84.9191 33.271 84.7058 33.2051 84.5662 33.0732C84.4266 32.9375 84.3567 32.7164 84.3567 32.41V30.4377H83.9146V30.0945H84.3567V29.2974H84.7698V30.0945H85.6425V30.4377H84.7698Z" fill="#002A52"/>
<path d="M87.2741 29.4952C87.1926 29.4952 87.1228 29.4661 87.0647 29.408C87.0065 29.3498 86.9774 29.278 86.9774 29.1927C86.9774 29.1074 87.0065 29.0376 87.0647 28.9833C87.1228 28.9251 87.1926 28.896 87.2741 28.896C87.3555 28.896 87.4254 28.9251 87.4835 28.9833C87.5417 29.0376 87.5708 29.1074 87.5708 29.1927C87.5708 29.278 87.5417 29.3498 87.4835 29.408C87.4254 29.4661 87.3555 29.4952 87.2741 29.4952ZM87.4777 30.0945V33.271H87.0705V30.0945H87.4777Z" fill="#002A52"/>
<path d="M90.5468 33.3176C90.2481 33.3176 89.9785 33.2517 89.7381 33.1198C89.5015 32.984 89.3134 32.794 89.1737 32.5496C89.038 32.3014 88.9701 32.0124 88.9701 31.6828C88.9701 31.3531 89.0399 31.0661 89.1795 30.8217C89.3192 30.5735 89.5092 30.3834 89.7497 30.2516C89.9902 30.1158 90.2597 30.0479 90.5584 30.0479C90.857 30.0479 91.1266 30.1158 91.3671 30.2516C91.6114 30.3834 91.8015 30.5735 91.9372 30.8217C92.0769 31.0661 92.1467 31.3531 92.1467 31.6828C92.1467 32.0086 92.0769 32.2956 91.9372 32.5438C91.7976 32.792 91.6056 32.984 91.3613 33.1198C91.1169 33.2517 90.8454 33.3176 90.5468 33.3176ZM90.5468 32.9627C90.7562 32.9627 90.9501 32.9162 91.1285 32.8231C91.307 32.7261 91.4505 32.5826 91.5591 32.3925C91.6715 32.1986 91.7278 31.962 91.7278 31.6828C91.7278 31.4035 91.6735 31.1689 91.5649 30.9788C91.4563 30.7849 91.3128 30.6414 91.1344 30.5483C90.9559 30.4513 90.762 30.4028 90.5526 30.4028C90.3431 30.4028 90.1492 30.4513 89.9708 30.5483C89.7924 30.6414 89.6489 30.7849 89.5403 30.9788C89.4355 31.1689 89.3832 31.4035 89.3832 31.6828C89.3832 31.962 89.4355 32.1986 89.5403 32.3925C89.6489 32.5826 89.7904 32.7261 89.965 32.8231C90.1434 32.9162 90.3373 32.9627 90.5468 32.9627Z" fill="#002A52"/>
<path d="M95.1347 30.0363C95.5148 30.0363 95.8251 30.1546 96.0656 30.3912C96.3061 30.6239 96.4263 30.9633 96.4263 31.4093V33.271H96.0249V31.4559C96.0249 31.1107 95.9376 30.8469 95.7631 30.6646C95.5924 30.4823 95.3578 30.3912 95.0591 30.3912C94.7527 30.3912 94.5084 30.4882 94.3261 30.6821C94.1438 30.876 94.0526 31.1611 94.0526 31.5373V33.271H93.6454V30.0945H94.0526V30.6355C94.1535 30.4416 94.2989 30.2942 94.489 30.1934C94.679 30.0887 94.8943 30.0363 95.1347 30.0363Z" fill="#002A52"/>
<path d="M97.8971 31.6769C97.8971 31.3511 97.9611 31.0661 98.0891 30.8217C98.221 30.5735 98.4014 30.3834 98.6302 30.2516C98.8629 30.1158 99.1247 30.0479 99.4156 30.0479C99.7182 30.0479 99.978 30.1178 100.195 30.2574C100.416 30.397 100.575 30.5754 100.672 30.7926V30.0945H101.08V33.271H100.672V32.5671C100.571 32.7843 100.41 32.9646 100.189 33.1081C99.9722 33.2478 99.7123 33.3176 99.4098 33.3176C99.1228 33.3176 98.8629 33.2497 98.6302 33.114C98.4014 32.9782 98.221 32.7862 98.0891 32.538C97.9611 32.2898 97.8971 32.0027 97.8971 31.6769ZM100.672 31.6828C100.672 31.4268 100.62 31.2018 100.515 31.0079C100.41 30.814 100.267 30.6646 100.085 30.5599C99.9063 30.4552 99.7085 30.4028 99.4913 30.4028C99.2663 30.4028 99.0646 30.4533 98.8862 30.5541C98.7078 30.6549 98.5662 30.8023 98.4615 30.9963C98.3606 31.1863 98.3102 31.4132 98.3102 31.6769C98.3102 31.9368 98.3606 32.1656 98.4615 32.3635C98.5662 32.5574 98.7078 32.7067 98.8862 32.8114C99.0646 32.9123 99.2663 32.9627 99.4913 32.9627C99.7085 32.9627 99.9063 32.9103 100.085 32.8056C100.267 32.7009 100.41 32.5516 100.515 32.3576C100.62 32.1637 100.672 31.9388 100.672 31.6828Z" fill="#002A52"/>
<path d="M103.173 28.9658V33.271H102.766V28.9658H103.173Z" fill="#002A52"/>
</g>
<defs>
<clipPath id="clip0_1_17058">
<rect width="80.7428" height="40" fill="white" transform="translate(24 4)"/>
</clipPath>
</defs>
</svg>
