<svg width="128" height="48" viewBox="0 0 128 48" fill="none" xmlns="http://www.w3.org/2000/svg">
<path d="M104.782 13.8335C104.782 13.8335 107.073 16.5089 107.484 17.0048C106.988 17.9967 104.064 22.9886 106.407 28.5873C107.784 32.4177 110.27 34.7668 112.528 37.2725C111.536 38.2905 109.989 39.8631 109.826 40.0001C105.604 36.4177 101.415 30.0163 101.552 23.7324C101.67 18.4078 103.953 15.2364 104.782 13.8335Z" fill="#002A52"/>
<path d="M115.08 34.1666C115.08 34.1666 112.789 31.4912 112.378 30.9953C112.874 30.0035 115.797 25.0116 113.455 19.4128C112.078 15.5824 109.592 13.2333 107.334 10.7276C108.326 9.70964 109.872 8.13703 110.035 8C114.257 11.5824 118.447 17.9838 118.31 24.2677C118.186 29.5924 115.908 32.7637 115.08 34.1666Z" fill="#002A52"/>
<path d="M14.6999 29.0379L13.6167 32.3789H15.8092L14.6999 29.0379ZM16.8271 35.4784L16.2268 33.6513H13.2056L12.6183 35.4784H11L13.9103 27.2695H15.5482L18.4911 35.4784H16.8271Z" fill="#002A52"/>
<path d="M30.6292 31.3208C30.9359 31.5297 31.1708 31.7776 31.3404 32.0713C31.5036 32.3649 31.5884 32.7303 31.5884 33.1545C31.5884 33.7091 31.4514 34.1724 31.1773 34.5444C30.9032 34.9163 30.5444 35.1969 30.0941 35.3731C29.6439 35.5558 29.1479 35.6471 28.6129 35.6471C28.0778 35.6471 27.5362 35.5493 27.0272 35.347C26.5117 35.1447 26.0614 34.8576 25.6699 34.4726L26.5117 33.422C26.8445 33.7417 27.1903 33.9832 27.5492 34.1528C27.9081 34.3225 28.254 34.4073 28.5868 34.4073C28.9717 34.4073 29.2719 34.3421 29.5329 34.1659C29.7939 33.9897 29.9244 33.7287 29.9244 33.3828C29.9244 33.1806 29.8788 33.0174 29.7809 32.8739C29.683 32.7368 29.546 32.6129 29.3633 32.5019C29.1806 32.3975 28.9587 32.254 28.639 32.1169L27.8429 31.7972C27.4122 31.6275 27.0598 31.4448 26.7792 31.2425C26.4986 31.0402 26.2833 30.7988 26.1332 30.5117C25.9831 30.2246 25.9048 29.8787 25.9048 29.4807C25.9048 28.9782 26.0288 28.5476 26.2768 28.1887C26.5247 27.8298 26.8641 27.5622 27.2947 27.3795C27.7254 27.1968 28.2148 27.1055 28.7629 27.1055C29.3111 27.1055 29.7809 27.1968 30.2377 27.3795C30.701 27.5622 31.1055 27.8363 31.4579 28.1887L30.6422 29.2393C30.3747 28.9652 30.0745 28.7499 29.7352 28.5867C29.3959 28.4236 29.0696 28.3453 28.7629 28.3453C28.3845 28.3453 28.1691 28.4301 27.9407 28.5932C27.7058 28.7564 27.5949 29.0043 27.5949 29.3306C27.5949 29.559 27.6863 29.7482 27.869 29.8918C28.0517 30.0353 28.2409 30.1854 28.6194 30.342L29.4155 30.6748C29.9114 30.8967 30.3225 31.112 30.6292 31.3208Z" fill="#002A52"/>
<path d="M55.3209 35.4781V31.5955C55.3209 31.1974 55.2687 30.9103 55.1708 30.7276C55.0729 30.5449 54.9555 30.4536 54.6814 30.4536C54.4726 30.4536 54.2507 30.5123 54.0093 30.6297C53.7678 30.7472 53.546 30.9038 53.3372 31.093V35.4781H51.6602V29.2594H53.2589V29.9707C53.546 29.7292 53.8592 29.527 54.205 29.3703C54.5509 29.2137 54.8837 29.1354 55.2034 29.1354C55.5949 29.1354 55.9147 29.2137 56.1692 29.3769C56.4171 29.54 56.6129 29.7619 56.7434 30.049C57.0436 29.7814 57.3698 29.5661 57.7157 29.3899C58.0615 29.2137 58.4139 29.1289 58.7793 29.1289C59.334 29.1289 59.8951 29.2986 60.1888 29.6314C60.4824 29.9707 60.6325 30.4274 60.6325 31.0082V35.4715H58.9555V31.3867C58.9555 31.0343 58.8968 30.7863 58.7793 30.6493C58.6618 30.5123 58.4857 30.447 58.2573 30.447C58.0289 30.447 57.8527 30.5123 57.6047 30.6493C57.3633 30.7798 57.1545 30.9364 56.9848 31.1061V35.4781H55.3209Z" fill="#002A52"/>
<path d="M69.0233 33.8928C69.2321 33.6839 69.3365 33.3838 69.3365 32.9923C69.3365 32.6334 69.2255 32.3528 69.0102 32.1505C68.7949 31.9482 68.4425 31.8503 67.9531 31.8503H66.5175V34.206H68.0249C68.4817 34.206 68.8144 34.1016 69.0233 33.8928ZM68.6056 30.4735C68.7818 30.3691 68.9188 30.2255 69.0037 30.0559C69.095 29.8862 69.1342 29.7035 69.1342 29.5012C69.1342 29.188 69.0298 28.9465 68.821 28.7573C68.6122 28.5746 68.2794 28.4832 67.8226 28.4832H66.5175V30.6301H67.9466C68.2076 30.6301 68.4294 30.5779 68.6056 30.4735ZM64.834 27.2695H67.9792C68.9254 27.2695 69.6171 27.4457 70.0608 27.7916C70.5045 28.1374 70.7264 28.6529 70.7264 29.3315C70.7264 29.7361 70.635 30.1015 70.4458 30.4213C70.2565 30.741 69.9629 30.9955 69.5518 31.1782C69.9955 31.3022 70.3414 31.5371 70.5959 31.8829C70.8504 32.2288 70.9809 32.6268 70.9809 33.0967C70.9809 33.8732 70.7459 34.4605 70.2761 34.8716C69.8063 35.2827 69.0885 35.4849 68.1228 35.4849H64.834V27.2695Z" fill="#002A52"/>
<path d="M84.0313 35.478V31.615C84.0313 31.23 83.966 30.9429 83.842 30.7471C83.7181 30.5514 83.4962 30.4535 83.1895 30.4535C82.9677 30.4535 82.7197 30.5188 82.4522 30.6427C82.1846 30.7667 81.9367 30.9168 81.7083 31.0995V35.4845H80.0312V29.2659H81.63V29.9772C81.9693 29.7161 82.3086 29.5139 82.6479 29.3703C82.9872 29.2202 83.3396 29.1484 83.7115 29.1484C84.3184 29.1484 84.9122 29.3181 85.2319 29.6509C85.5517 29.9902 85.7083 30.447 85.7083 31.0277V35.4911H84.0313V35.478Z" fill="#002A52"/>
<path d="M91.6853 35.4788L89.9039 32.7381L89.4797 33.1753V35.4788H87.8027V27.1133H89.4797V31.283L91.3656 29.2601H93.1666L90.9414 31.6484L93.4537 35.4788H91.6853Z" fill="#002A52"/>
<path d="M76.2469 34.0035V32.6919H75.1376C74.5242 32.6919 74.0283 33.0247 74.0283 33.6315C74.0283 34.2058 74.5308 34.5451 75.1376 34.5451C75.6401 34.5385 75.9924 34.3624 76.2469 34.0035ZM76.2469 31.5108C76.2469 30.8844 75.8685 30.4733 75.0919 30.4733C74.459 30.4733 73.8717 30.7147 73.3693 31.2041L72.782 30.1144C73.4998 29.4488 74.4329 29.1421 75.3595 29.1421C76.7037 29.1421 77.937 29.7098 77.937 31.4912V35.4847H76.2469V34.8518C75.8424 35.3542 75.2877 35.6479 74.5177 35.6479C73.5781 35.6479 72.4688 34.9823 72.4688 33.5924C72.4688 32.2025 73.5781 31.5891 74.5177 31.5891H76.2469V31.5108Z" fill="#002A52"/>
<path d="M47.8817 34.0035V32.6919H46.7724C46.159 32.6919 45.6631 33.0247 45.6631 33.6315C45.6631 34.2058 46.1655 34.5451 46.7724 34.5451C47.2748 34.5385 47.6272 34.3624 47.8817 34.0035ZM47.8817 31.5108C47.8817 30.8844 47.5032 30.4733 46.7267 30.4733C46.0937 30.4733 45.5065 30.7147 45.004 31.2041L44.4167 30.1144C45.1345 29.4488 46.0676 29.1421 46.9942 29.1421C48.3385 29.1421 49.5718 29.7098 49.5718 31.4912V35.4847H47.8817V34.8518C47.4771 35.3542 46.9225 35.6479 46.1525 35.6479C45.2128 35.6479 44.1035 34.9823 44.1035 33.5924C44.1035 32.2025 45.2128 31.5891 46.1525 31.5891H47.8817V31.5108Z" fill="#002A52"/>
<path d="M36.8543 34.0035V32.6919H35.745C35.1317 32.6919 34.6357 33.0247 34.6357 33.6315C34.6357 34.2058 35.1382 34.5451 35.745 34.5451C36.241 34.5385 36.5933 34.3624 36.8543 34.0035ZM36.8543 31.5108C36.8543 30.8844 36.4759 30.4733 35.6994 30.4733C35.0664 30.4733 34.4791 30.7147 33.9767 31.2041L33.3894 30.1144C34.1072 29.4488 35.0403 29.1421 35.9669 29.1421C37.3111 29.1421 38.5444 29.7098 38.5444 31.4912V35.4847H36.8543V34.8518C36.4498 35.3542 35.8951 35.6479 35.1251 35.6479C34.1855 35.6479 33.0762 34.9823 33.0762 33.5924C33.0762 32.2025 34.1855 31.5891 35.1251 31.5891H36.8543V31.5108Z" fill="#002A52"/>
<path d="M40.6309 27.3156L42.3079 27.1133V35.4788H40.6309V27.3156Z" fill="#002A52"/>
<path d="M19.7969 27.3156L21.4739 27.1133V35.4788H19.7969V27.3156Z" fill="#002A52"/>
<path d="M28.7549 19.1513H36.8268C37.0291 19.1513 37.1922 19.0925 37.3097 18.962C37.4271 18.8315 37.4858 18.6227 37.4858 18.3291V15.5428H39.1498V18.3878C39.1498 18.6815 39.2412 18.8903 39.4173 19.0208C39.5935 19.1513 39.8284 19.21 40.1221 19.21C40.4157 19.21 40.6245 19.1513 40.7681 19.0208C40.9116 18.8903 40.9769 18.6815 40.9769 18.3878V15.5428H42.6409V18.3878C42.6409 18.6815 42.7322 18.8903 42.9084 19.0208C43.0846 19.1513 43.3195 19.21 43.6131 19.21C43.9068 19.21 44.1156 19.1513 44.2591 19.0208C44.4027 18.8903 44.468 18.6815 44.468 18.3878V15.5428H46.1319V18.3291C46.1319 18.6227 46.1906 18.8315 46.3081 18.962C46.4256 19.0925 46.5887 19.1513 46.791 19.1513H55.2152L55.2282 12.6455H56.8922V20.8283H47.0977C46.9933 20.8283 46.8758 20.8022 46.7584 20.7696C46.6409 20.7369 46.5234 20.6847 46.406 20.626C46.2885 20.5673 46.1841 20.4824 46.0862 20.3911C45.9949 20.2997 45.9231 20.1888 45.8774 20.0713H45.8318C45.6556 20.3389 45.4207 20.5412 45.127 20.6717C44.8334 20.8022 44.468 20.8609 44.0373 20.8609V20.8348C43.6131 20.8348 43.2608 20.763 42.9737 20.626C42.68 20.4824 42.4908 20.2997 42.4125 20.0779H42.3668C42.1906 20.3454 41.9557 20.5477 41.6621 20.6782C41.3684 20.8087 41.003 20.8674 40.5723 20.8674C40.1417 20.8674 39.7958 20.7957 39.5087 20.6586C39.2151 20.5151 39.0258 20.3324 38.9475 20.1105H38.9018C38.8888 20.1562 38.8562 20.2149 38.7844 20.2997C38.7126 20.3846 38.6343 20.4629 38.5299 20.5477C38.4255 20.6325 38.308 20.6978 38.1645 20.7565C38.0209 20.8152 37.8839 20.8413 37.7338 20.8413H28.6114L28.1089 20.8152C27.9588 20.8087 27.8022 20.7891 27.6522 20.7435C27.5021 20.6978 27.3585 20.6391 27.228 20.5673C27.0975 20.4955 26.98 20.4172 26.8626 20.3193C26.7451 20.228 26.6538 20.117 26.5689 20.0126C26.4254 20.1758 26.2753 20.3063 26.0991 20.4107C25.9229 20.5151 25.7467 20.5999 25.5706 20.6586C25.3944 20.7174 25.2312 20.763 25.0681 20.7891C24.9441 20.8087 24.7614 20.8348 24.6374 20.8348H19.4824V19.1448H21.5771V14.3029H23.241V19.1448H24.6374C24.7223 19.1448 24.8006 19.1317 24.8985 19.1121C24.9898 19.086 25.0877 19.0403 25.166 18.9686C25.2508 18.8968 25.3161 18.8054 25.3748 18.688C25.4335 18.5705 25.4596 18.4204 25.4596 18.2443V12.6455H27.1236V17.9767C27.1236 18.179 27.1562 18.3487 27.215 18.4922C27.2737 18.6358 27.3585 18.7467 27.4499 18.8446C27.5412 18.9359 27.6522 19.0077 27.7696 19.0534C27.8871 19.0991 28.0045 19.1186 28.122 19.1252L28.7549 19.1513Z" fill="#002A52"/>
<path d="M69.9305 16.6534H68.8277C68.6581 16.6534 68.5341 16.6143 68.4623 16.5164C68.3905 16.4185 68.3514 16.2945 68.3514 16.1379C68.3514 15.9813 68.3905 15.8573 68.4623 15.7725C68.5341 15.6877 68.6124 15.6485 68.7103 15.6485C68.8212 15.6485 68.9191 15.6746 68.9908 15.7464C69.0626 15.8182 69.1018 15.9161 69.1148 16.0401H69.8652C69.8522 15.8573 69.8065 15.7073 69.7413 15.5833C69.6695 15.4593 69.5912 15.3614 69.4737 15.2766C69.3628 15.1918 69.2388 15.1396 69.0953 15.0939C68.9582 15.0547 68.8147 15.0352 68.6776 15.0352C68.3318 15.0352 68.0381 15.12 67.8163 15.3027C67.5944 15.4854 67.4835 15.7334 67.4835 16.0531C67.4835 16.2619 67.5553 16.4446 67.6793 16.5947V16.6339L67.3008 16.6469V17.2864H69.9174V16.6534H69.9305Z" fill="#002A52"/>
<path d="M91.5031 15.5428V19.1513H87.6009C87.6009 19.1513 87.5291 19.1382 87.49 19.1382H86.9614C86.844 19.1382 86.7265 19.1121 86.6091 19.0664C86.4916 19.0208 86.3872 18.949 86.2958 18.8576C86.2045 18.7663 86.1196 18.6488 86.0609 18.5053C86.0022 18.3617 85.9696 18.192 85.9696 17.9898V15.5297H84.3056V18.2247C84.3056 18.4009 84.2795 18.5509 84.2208 18.6684C84.162 18.7859 84.0903 18.8772 84.012 18.949C83.9271 19.0208 83.8358 19.0664 83.7444 19.0925C83.6531 19.1186 83.5682 19.1252 83.4899 19.1252H81.9173C81.8586 19.1252 81.7999 19.1382 81.7542 19.1513H73.9107C73.7672 19.1513 73.6301 19.1382 73.4801 19.1056C73.33 19.073 73.1995 19.0142 73.082 18.9294C72.9646 18.8446 72.8732 18.7402 72.7884 18.6097C72.7035 18.4792 72.6709 18.3291 72.6709 18.1398V12.6455H70.9939V19.1643H67.4768C67.2549 19.1643 67.0657 19.1317 66.9156 19.0599C66.7655 18.9881 66.648 18.8968 66.5501 18.7663C66.4588 18.6358 66.4001 18.4857 66.3609 18.2965C66.3283 18.1072 66.3022 17.8984 66.3022 17.6635V17.0566H64.834V17.8527C64.834 18.3095 64.8927 19.0012 65.0102 19.3405C65.1276 19.6798 65.2777 19.9604 65.48 20.1823C65.6823 20.4041 65.9237 20.5673 66.2043 20.6717C66.4849 20.7761 66.7916 20.8348 67.1309 20.8348H72.3708C72.4556 20.7304 72.5143 20.5999 72.56 20.4498C72.6057 20.2997 72.6448 20.1823 72.6513 20.0974H72.697C72.7427 20.2149 72.8145 20.3193 72.9058 20.4172C72.9972 20.5085 73.1081 20.5934 73.219 20.6521C73.3365 20.7108 73.454 20.7565 73.5714 20.7957C73.6889 20.8283 73.8063 20.8544 73.9107 20.8544H74.1587C74.224 20.8544 74.2696 20.8479 74.3088 20.8283H83.4769C83.6074 20.8283 83.7444 20.8152 83.9076 20.7957C84.0707 20.7696 84.2338 20.7239 84.41 20.6651C84.5862 20.6064 84.7624 20.5216 84.9386 20.4172C85.1147 20.3128 85.2648 20.1823 85.4084 20.0191C85.4932 20.1235 85.5846 20.228 85.702 20.3258C85.8195 20.4172 85.9369 20.502 86.0674 20.5738C86.198 20.6456 86.335 20.7043 86.4916 20.75C86.6417 20.7957 86.7983 20.8218 86.9484 20.8218H87.3595C87.3595 20.8218 87.4312 20.8348 87.4769 20.8348H93.1605V15.5493H91.5031V15.5428Z" fill="#002A52"/>
<path d="M16.8206 18.9042C16.8206 18.9825 16.7554 19.0542 16.6705 19.0542H14.6672C14.5889 19.0542 14.5172 18.989 14.5172 18.9042V17.4621C14.5172 17.0444 14.615 16.7377 14.8108 16.542H14.8173C15 16.3593 15.2806 16.2614 15.6721 16.2483H15.7765C16.0571 16.2483 16.3116 16.3593 16.5009 16.542C16.5074 16.5485 16.5139 16.5485 16.5139 16.555C16.7031 16.7443 16.8206 17.0053 16.8206 17.2924V18.9042ZM17.8125 15.4131C17.4144 14.9824 16.7945 14.7671 15.9527 14.7671H15.372C14.5367 14.7671 13.9168 14.9824 13.5188 15.4131C13.1207 15.8438 12.9185 16.4767 12.9185 17.3054V19.0542H12.7879C12.155 19.0738 11.6917 19.5371 11.4176 19.8634C11.1436 20.1962 11 20.6986 11 21.3773V23.7068H12.5661V21.5795C12.5661 21.0706 12.8532 20.8226 13.434 20.8226H15.9527C16.788 20.8226 17.4079 20.6073 17.8125 20.1766C18.2105 19.7459 18.4128 19.113 18.4128 18.2842V17.2989C18.4128 16.4767 18.204 15.8503 17.8059 15.4131" fill="#002A52"/>
<path d="M58.9668 12.6525L60.6438 12.4502V20.8287H58.9668V12.6525Z" fill="#002A52"/>
<path d="M85.9511 12.6455H84.2871V14.0158H85.9511V12.6455Z" fill="#002A52"/>
<path d="M93.1679 22.3428H91.5039V23.7131H93.1679V22.3428Z" fill="#002A52"/>
</svg>
