<svg width="128" height="48" viewBox="0 0 128 48" fill="none" xmlns="http://www.w3.org/2000/svg">
<g clip-path="url(#clip0_1_16999)">
<path d="M30.9916 15.1123H25.4883V32.9487H30.9916V15.1123Z" fill="#002A52"/>
<path d="M24.109 32.9487H18.6188L12.1172 15.1123H17.6074L24.109 32.9487Z" fill="#002A52"/>
<path d="M39.5814 15.1123C35.4309 16.1319 32.3574 19.7319 32.3574 24.0368C32.3574 28.3291 35.4309 31.9417 39.5814 32.9613C39.5814 32.1305 39.5814 16.0815 39.5814 15.1123Z" fill="#002A52"/>
<path d="M53.3845 27.2858C53.0561 26.8956 52.6358 26.6061 52.1104 26.4299C52.5045 26.2411 52.8328 25.9767 53.1086 25.6369C53.4633 25.1963 53.634 24.5921 53.634 23.8243V23.5348C53.634 22.5026 53.3319 21.7348 52.7277 21.2438C52.1367 20.7655 51.1385 20.5264 49.7856 20.5264H45.0703V32.9627H49.7856C51.1779 32.9627 52.2286 32.6858 52.9116 32.1445C53.6078 31.5907 53.9492 30.7348 53.9492 29.6019V29.325C53.9755 28.4313 53.7785 27.7515 53.3845 27.2858ZM52.3862 23.8494C52.3862 24.5795 52.1892 25.1208 51.7952 25.448C51.4012 25.7753 50.7707 25.9515 49.917 25.9515H46.3575V21.6341H49.8119C50.7707 21.6341 51.4537 21.7851 51.8346 22.0746C52.2024 22.3515 52.3994 22.8425 52.3994 23.5348V23.8494H52.3862ZM52.0316 31.3893C51.5982 31.7292 50.8495 31.9054 49.7987 31.9054H46.3444V27.1348H49.9301C50.9152 27.1348 51.6244 27.2984 52.0447 27.6383C52.4519 27.9655 52.6621 28.5445 52.6621 29.3501V29.6271C52.6883 30.4704 52.465 31.0494 52.0316 31.3893Z" fill="#002A52"/>
<path d="M62.3816 25.6608C62.2371 25.2832 62.0007 24.9559 61.6723 24.7167C61.3571 24.4776 60.9368 24.3013 60.4377 24.1881C59.9517 24.0748 59.3344 24.0244 58.6251 24.0244C58.1917 24.0244 55.8406 24.0244 55.8406 24.0244V25.0943C55.8406 25.0943 58.1917 25.0943 58.6251 25.0943C59.1899 25.0943 59.6628 25.1321 60.0305 25.2076C60.3852 25.2832 60.661 25.3839 60.858 25.5349C61.055 25.686 61.1864 25.8874 61.2652 26.1391C61.344 26.4034 61.3834 26.7433 61.3834 27.1335V27.8887C61.1601 27.6999 60.8449 27.5489 60.4771 27.4356C59.9911 27.2846 59.3213 27.209 58.5069 27.209C57.2854 27.209 56.3923 27.4356 55.8406 27.8762C55.2758 28.3293 55 29.0468 55 30.016V30.2552C55 31.1992 55.2758 31.8915 55.8406 32.3069C56.3923 32.7223 57.2854 32.9363 58.5201 32.9363H61.4096C61.8825 32.9363 62.1846 32.8608 62.3553 32.7097C62.5261 32.5587 62.6049 32.2818 62.6049 31.8664V27.0202C62.6049 26.5041 62.5261 26.0384 62.3816 25.6608ZM56.2084 30.0286C56.2084 29.3741 56.3791 28.9083 56.7075 28.6566C57.049 28.3922 57.64 28.2664 58.4806 28.2664H58.7039C59.1374 28.2664 59.5314 28.2915 59.8729 28.3545C60.2013 28.4048 60.4902 28.5055 60.7004 28.6314C60.9237 28.7573 61.0813 28.9209 61.1995 29.1349C61.3177 29.3489 61.3702 29.6258 61.3702 29.9657V31.879H58.4938C58.0341 31.879 57.6532 31.8412 57.3511 31.7783C57.0621 31.7153 56.8257 31.6146 56.6549 31.4762C56.4842 31.3377 56.3791 31.1867 56.3003 30.9853C56.2346 30.7839 56.1952 30.5321 56.1952 30.2426V30.0286H56.2084Z" fill="#002A52"/>
<path d="M71.5499 25.6966C71.4448 25.2812 71.2346 24.9414 70.9457 24.6518C70.6567 24.3749 70.2627 24.1483 69.7504 24.0099C69.2513 23.8714 68.6077 23.7959 67.8459 23.7959C67.071 23.7959 66.4274 23.8714 65.9414 24.0225C65.4423 24.1735 65.0351 24.3875 64.7462 24.677C64.4572 24.9539 64.2471 25.3064 64.142 25.7218C64.0369 26.1246 63.9844 26.5777 63.9844 27.0686V32.9595H65.2322V27.1693C65.2322 26.7917 65.2584 26.4518 65.311 26.1623C65.3635 25.8854 65.4686 25.6462 65.6393 25.47C65.8101 25.2812 66.0728 25.1428 66.4143 25.0421C66.7689 24.9414 67.2549 24.891 67.8591 24.891C68.4501 24.891 68.9361 24.9414 69.2907 25.0421C69.6322 25.1428 69.8949 25.2812 70.0657 25.47C70.2364 25.6588 70.3546 25.8854 70.394 26.1623C70.4466 26.4518 70.4728 26.7917 70.4728 27.1819V32.9721H71.7206V27.0812C71.7206 26.5525 71.6549 26.0994 71.5499 25.6966Z" fill="#002A52"/>
<path d="M75.4127 28.0395L80.5746 24.0619H78.8145L74.3357 27.536V20.5122H73.0879V32.9486H74.3357V28.6311L79.3268 32.9486H81.0605L75.4127 28.0395Z" fill="#002A52"/>
<path d="M90.7547 29.6507H85.7242L84.5158 32.9486H82.0859L86.9194 20.5122H89.6908L94.5243 32.9486H91.9762L90.7547 29.6507ZM86.3809 27.7626H90.098L88.2329 22.6898L86.3809 27.7626Z" fill="#002A52"/>
<path d="M95.562 20.5122H101.157C102.523 20.5122 103.508 20.764 104.113 21.2675C104.73 21.7709 105.032 22.5514 105.032 23.6087V23.7849C105.032 24.4269 104.901 24.9682 104.625 25.3961C104.349 25.8367 103.929 26.164 103.338 26.3779C103.968 26.5542 104.48 26.8814 104.848 27.3472C105.229 27.8129 105.413 28.4549 105.413 29.2605V29.5374C105.413 30.7332 105.032 31.6017 104.283 32.143C103.535 32.6842 102.471 32.9486 101.105 32.9486H95.5488V20.5122H95.562ZM97.9787 22.4129V25.5598H100.737C101.433 25.5598 101.919 25.4339 102.195 25.1947C102.471 24.9556 102.615 24.5528 102.615 24.0115V23.7849C102.615 23.294 102.484 22.9416 102.221 22.7402C101.958 22.5262 101.525 22.4255 100.895 22.4255H97.9787V22.4129ZM97.9787 31.0479H101C101.722 31.0479 102.221 30.9346 102.51 30.6954C102.799 30.4563 102.944 30.0283 102.944 29.3989V29.1723C102.944 28.5178 102.786 28.0647 102.471 27.8129C102.155 27.5612 101.617 27.4353 100.868 27.4353H97.9656V31.0479H97.9787Z" fill="#002A52"/>
<path d="M112.451 22.5246C111.794 22.5246 111.268 22.5624 110.861 22.6505C110.454 22.7386 110.139 22.9148 109.902 23.1792C109.666 23.4435 109.522 23.8085 109.443 24.2743C109.364 24.74 109.325 25.3442 109.325 26.0869V27.3708C109.325 28.1008 109.364 28.705 109.456 29.1708C109.548 29.6365 109.705 30.0015 109.942 30.2659C110.178 30.5302 110.507 30.7064 110.914 30.7946C111.321 30.8827 111.846 30.933 112.49 30.933C112.713 30.933 112.937 30.933 113.16 30.933C113.383 30.933 113.633 30.933 113.909 30.933C114.184 30.933 114.473 30.933 114.802 30.9204C115.13 30.9204 115.091 30.9078 115.498 30.8953V32.9092C114.775 32.9344 114.171 32.947 113.672 32.947C113.173 32.947 112.753 32.947 112.424 32.947C111.347 32.947 110.467 32.8463 109.745 32.6449C109.022 32.4435 108.445 32.1288 108.011 31.6883C107.578 31.2477 107.262 30.6813 107.079 29.9638C106.895 29.2589 106.803 28.3778 106.803 27.3456V26.0743C106.803 25.0295 106.895 24.1484 107.092 23.4309C107.289 22.726 107.604 22.147 108.051 21.7064C108.497 21.2659 109.075 20.9638 109.784 20.775C110.494 20.5862 111.374 20.498 112.398 20.498C112.805 20.498 113.278 20.498 113.79 20.498C114.303 20.498 114.683 20.5106 115.498 20.5358V22.5498C115.091 22.5372 114.5 22.5246 113.961 22.5246C113.409 22.5246 112.91 22.5246 112.451 22.5246Z" fill="#002A52"/>
</g>
<defs>
<clipPath id="clip0_1_16999">
<rect width="103.5" height="18" fill="white" transform="translate(12 15)"/>
</clipPath>
</defs>
</svg>
