<svg width="87" height="34" viewBox="0 0 87 34" fill="none" xmlns="http://www.w3.org/2000/svg">
<g id="Frame" clip-path="url(#clip0_2369_1303)">
<path id="Vector" d="M16.5918 33.3459L2.41192 24.1149C2.41192 24.1149 0.633721 23.0924 0.226649 21.1878C-0.345169 18.5135 1.53967 16.2207 1.53967 16.2207L19.9426 28.2057C21.3623 29.1308 21.7496 31.0237 20.8371 32.4514C19.8997 33.918 17.9734 34.2416 16.5912 33.3459H16.5918Z" fill="#002A52"/>
<path id="Vector_2" d="M3.16149 14.2425C3.16149 14.2425 0.989506 12.931 0.989506 9.8976C0.989506 6.87469 3.16056 5.57929 3.16056 5.57929L10.9126 0.505873C11.5947 0.0735815 12.4199 -0.0723222 13.2089 0.0998103C13.998 0.271943 14.6874 0.74823 15.1275 1.42536C15.5677 2.10249 15.7231 2.92585 15.5602 3.71686C15.3972 4.50786 14.9289 5.20271 14.2569 5.65069L7.72336 9.90502L18.8553 17.1551C18.8553 17.1551 20.8591 18.303 21.2538 20.241C21.8049 22.9446 19.9439 25.1723 19.9439 25.1723L3.16149 14.2425ZM3.12038 33.8351C3.84798 33.8351 4.36601 33.6043 4.87138 33.2766L8.65558 30.8116L4.87138 28.3472C4.36138 28.0187 3.82603 27.7887 3.12038 27.7887C2.71973 27.783 2.32193 27.8569 1.95012 28.0063C1.5783 28.1557 1.23988 28.3774 0.95453 28.6587C0.669178 28.94 0.442587 29.2752 0.287926 29.6449C0.133265 30.0145 0.0536194 30.4112 0.0536194 30.8119C0.0536194 31.2126 0.133265 31.6093 0.287926 31.979C0.442587 32.3486 0.669178 32.6838 0.95453 32.9651C1.23988 33.2464 1.5783 33.4682 1.95012 33.6175C2.32193 33.7669 2.71973 33.8409 3.12038 33.8351Z" fill="#002A52"/>
<path id="Vector_3" d="M17.7518 6.88184C17.0239 6.88184 16.5058 7.11273 16.0005 7.44005L12.216 9.90475L16.0005 12.3694C16.5105 12.6983 17.0461 12.9283 17.7518 12.9283C18.1488 12.9283 18.5419 12.8501 18.9087 12.6981C19.2755 12.5462 19.6088 12.3235 19.8895 12.0428C20.1702 11.7621 20.3929 11.4288 20.5449 11.062C20.6968 10.6952 20.775 10.3021 20.775 9.90505C20.775 9.50804 20.6968 9.11491 20.5449 8.74812C20.3929 8.38133 20.1702 8.04805 19.8895 7.76732C19.6088 7.48658 19.2755 7.2639 18.9087 7.11196C18.5419 6.96003 18.1488 6.88184 17.7518 6.88184Z" fill="#002A52"/>
<path id="Vector_4" d="M33.4953 24.2388C34.2955 24.2388 35.0416 24.0218 35.6246 23.5198V24.6456C34.9733 25.0931 34.2003 25.2829 33.3865 25.2829C31.3372 25.2829 29.9141 23.8586 29.9141 21.8106C29.9141 19.7758 31.3789 18.3518 33.4137 18.3518C34.2139 18.3518 34.9597 18.5827 35.5566 19.03V20.2642C35.0277 19.6948 34.2955 19.3963 33.4814 19.3963C32.0571 19.3963 31.0534 20.3866 31.0534 21.8103C31.0534 23.2346 32.071 24.2388 33.4953 24.2388ZM37.944 25.1611H36.8452V16.3545L37.944 17.0336V19.6136C38.446 18.8405 39.2462 18.3525 40.2634 18.3525C41.9455 18.3525 42.8406 19.5864 42.8406 21.2276V25.1611H41.7285V21.4174C41.7285 20.1152 41.1589 19.4238 39.992 19.4238C38.7578 19.4238 37.9431 20.4815 37.9431 21.8109L37.944 25.1611ZM49.6632 24.0209C49.1074 24.8075 48.2528 25.2823 47.2084 25.2823C45.2552 25.2823 43.8582 23.8311 43.8582 21.8508C43.8582 19.8305 45.2552 18.3512 47.2084 18.3512C48.2528 18.3512 49.1074 18.8396 49.6632 19.6401V18.4733H50.7756V25.1602H49.6632V24.0209ZM44.9975 21.8372C44.9975 23.2206 45.9606 24.2379 47.3169 24.2379C48.6868 24.2379 49.6632 23.2206 49.6632 21.8372C49.6632 20.4265 48.6868 19.3956 47.3169 19.3956C45.9606 19.3966 44.9975 20.4271 44.9975 21.8381V21.8372ZM53.5834 25.1611H52.4846V18.4742H53.5834V19.8982C54.1122 18.9079 54.9669 18.3522 56.0249 18.3522V19.6136C54.6955 19.4238 53.5834 20.3189 53.5834 21.9735V25.1611ZM67.2829 22.2448H62.0064C62.1693 23.4522 63.1188 24.2524 64.4479 24.2524C65.3026 24.2524 66.13 24.0082 66.8354 23.5062V24.5643C66.1164 25.0526 65.3026 25.2832 64.4479 25.2832C62.3455 25.2832 60.8405 23.9269 60.8405 21.8776C60.8405 19.8701 62.1155 18.3512 64.1367 18.3512C66.0626 18.3512 67.3243 19.7752 67.3243 21.6879C67.3246 21.8742 67.3107 22.0606 67.2829 22.2448ZM62.02 21.3503H66.1572C66.0487 20.2107 65.3298 19.37 64.1497 19.37C62.9288 19.3694 62.1962 20.224 62.02 21.3497V21.3503ZM69.6295 25.1611H68.5307V18.4742H69.6295V19.8982C70.1584 18.9079 71.0127 18.3522 72.0707 18.3522V19.6136C70.742 19.4238 69.6295 20.3189 69.6295 21.9735V25.1611ZM78.5953 22.2448H73.3192C73.4814 23.4522 74.4313 24.2524 75.7604 24.2524C76.615 24.2524 77.4424 24.0082 78.1478 23.5062V24.5643C77.4288 25.0526 76.615 25.2832 75.7604 25.2832C73.6579 25.2832 72.153 23.9269 72.153 21.8776C72.153 19.8701 73.4277 18.3512 75.4488 18.3512C77.3747 18.3512 78.6361 19.7752 78.6361 21.6879C78.6366 21.8743 78.623 22.0605 78.5953 22.2448ZM73.3328 21.3503H77.4693C77.3608 20.2107 76.6419 19.37 75.4621 19.37C74.2415 19.3694 73.5096 20.224 73.3328 21.3497V21.3503ZM85.1907 24.0128C84.6486 24.8134 83.7803 25.3014 82.7359 25.3014C80.7825 25.3014 79.3854 23.85 79.3854 21.8696C79.3854 19.8494 80.7825 18.3701 82.7359 18.3701C83.7803 18.3701 84.6486 18.8724 85.1907 19.6859V16.356L86.3031 17.0354V25.1608H85.1907V24.0128ZM80.525 21.8563C80.525 23.2398 81.4878 24.2573 82.8444 24.2573C84.2143 24.2573 85.1907 23.2398 85.1907 21.8563C85.1907 20.4456 84.2143 19.4148 82.8444 19.4148C81.4878 19.4148 80.525 20.445 80.525 21.8563ZM57.9447 22.9384C57.9447 23.8744 58.5143 24.2406 59.2333 24.2406C59.7917 24.2461 60.3376 24.0752 60.7932 23.7523V24.8239C60.3315 25.163 59.6944 25.2987 59.1384 25.2987C57.7141 25.2987 56.8458 24.661 56.8458 22.8568V16.353L57.9447 17.032V22.9384ZM59.7207 18.3868C59.6272 18.3261 59.5227 18.2845 59.4131 18.2642C59.3036 18.244 59.1911 18.2455 59.0821 18.2687C58.9731 18.292 58.8698 18.3364 58.778 18.3996C58.6862 18.4627 58.6077 18.5433 58.5471 18.6368C58.4864 18.7303 58.4448 18.8348 58.4246 18.9444C58.4043 19.054 58.4058 19.1664 58.429 19.2754C58.4523 19.3844 58.4967 19.4877 58.5599 19.5795C58.623 19.6713 58.7037 19.7498 58.7971 19.8104L58.8206 19.8253C58.9571 19.9127 59.1157 19.9591 59.2778 19.9591C59.4398 19.9591 59.5985 19.9127 59.7349 19.8253L60.8276 19.1246L59.7207 18.3868ZM32.2067 14.5958C32.993 14.5958 33.563 14.2567 33.563 13.6462C33.563 13.28 33.3732 12.9953 32.8703 12.7916L31.2831 12.1543C30.4693 11.8016 30.0217 11.3404 30.0217 10.4722C30.0217 9.30568 30.9576 8.57313 32.3139 8.57313C33.1002 8.57313 33.8328 8.79011 34.3484 9.18359V10.338C33.7382 9.79528 32.9918 9.4834 32.3281 9.4834C31.6225 9.4834 31.1205 9.80888 31.1205 10.3516C31.1205 10.7584 31.3106 11.0026 31.8398 11.206L33.427 11.8436C34.2813 12.2099 34.6751 12.7252 34.6751 13.4441C34.6751 14.7191 33.6439 15.5057 32.1931 15.5057C31.3109 15.5057 30.5107 15.2616 29.9277 14.8279V13.6326C30.6328 14.2972 31.4197 14.5958 32.2067 14.5958ZM36.7642 13.1443C36.7642 14.0802 37.3336 14.4465 38.0528 14.4465C38.6107 14.4515 39.156 14.2806 39.6112 13.9581V15.0297C39.1495 15.3688 38.5121 15.5045 37.9561 15.5045C36.5318 15.5045 35.6642 14.8672 35.6642 13.063V7.23322L36.7627 6.55322L36.7642 13.1443ZM45.7569 14.2428C45.2008 15.0297 44.3462 15.5045 43.3018 15.5045C41.3486 15.5045 39.9516 14.0533 39.9516 12.0727C39.9516 10.0524 41.3486 8.57313 43.3018 8.57313C44.3462 8.57313 45.2008 9.0615 45.7569 9.86204V8.69615H46.8693V15.3824H45.7569V14.2428ZM41.0909 12.0594C41.0909 13.4429 42.054 14.4601 43.4103 14.4601C44.7805 14.4601 45.7569 13.4429 45.7569 12.0594C45.7569 10.6487 44.7805 9.61755 43.4103 9.61755C42.054 9.61755 41.0909 10.6487 41.0909 12.0594ZM49.6768 15.3824H48.578V8.69615H49.6768V9.83546C50.1788 9.06242 50.979 8.57406 51.9962 8.57406C53.6783 8.57406 54.5734 9.80857 54.5734 11.4498V15.3833H53.4613V11.6399C53.4613 10.3377 52.8916 9.64599 51.7251 9.64599C50.4906 9.64599 49.6759 10.704 49.6759 12.0334L49.6768 15.3824ZM61.3963 14.2159C60.8538 15.0164 59.9856 15.5048 58.9412 15.5048C56.988 15.5048 55.5909 14.0533 55.5909 12.0727C55.5909 10.0524 56.988 8.57313 58.9412 8.57313C59.9856 8.57313 60.8538 9.0751 61.3963 9.88893V7.2323L62.5087 6.55322V15.3824H61.3963V14.2159ZM56.7302 12.0594C56.7302 13.4429 57.6934 14.4601 59.0497 14.4601C60.4199 14.4601 61.3963 13.4429 61.3963 12.0594C61.3963 10.6487 60.4199 9.61755 59.0497 9.61755C57.6943 9.61755 56.7302 10.6487 56.7302 12.0594ZM81.7428 14.2159C81.2004 15.0164 80.3321 15.5048 79.2877 15.5048C77.3342 15.5048 75.9372 14.0533 75.9372 12.0727C75.9372 10.0524 77.3342 8.57313 79.2877 8.57313C80.3321 8.57313 81.2004 9.0751 81.7428 9.88893V7.2323L82.8549 6.55322V15.3824H81.7428V14.2159ZM77.0768 12.0594C77.0768 13.4429 78.0396 14.4601 79.3962 14.4601C80.7661 14.4601 81.7428 13.4429 81.7428 12.0594C81.7428 10.6487 80.7661 9.61755 79.3962 9.61755C78.0405 9.61755 77.0768 10.6487 77.0768 12.0594ZM69.5078 14.2428C68.9517 15.0297 68.0971 15.5045 67.0527 15.5045C65.0995 15.5045 63.7024 14.0533 63.7024 12.0727C63.7024 10.0524 65.0995 8.57313 67.0527 8.57313C68.0971 8.57313 68.9517 9.0615 69.5078 9.86204V8.69615H70.6202V15.3824H69.5078V14.2428ZM64.8417 12.0594C64.8417 13.4429 65.8048 14.4601 67.1611 14.4601C68.531 14.4601 69.5078 13.4429 69.5078 12.0594C69.5078 10.6487 68.531 9.61755 67.1611 9.61755C65.8039 9.61755 64.8417 10.6487 64.8417 12.0594ZM73.4277 15.3824H72.3288V8.69615H73.4277V10.1204C73.9565 9.13011 74.8111 8.57406 75.8692 8.57406V9.83546C74.5398 9.64568 73.4277 10.5408 73.4277 12.1957V15.3824ZM38.3128 10.1204C38.43 10.1969 38.5644 10.2432 38.7039 10.2552C38.8433 10.2672 38.9836 10.2445 39.1122 10.1891C39.2408 10.1338 39.3537 10.0475 39.4409 9.93795C39.528 9.82842 39.5868 9.69903 39.6119 9.5613C39.6319 9.45124 39.6299 9.3383 39.6061 9.22901C39.5822 9.11971 39.5369 9.01624 39.4728 8.92457C39.4089 8.83288 39.3274 8.75473 39.2332 8.6946L39.2097 8.68008C39.073 8.59317 38.9142 8.54727 38.7521 8.54782C38.5901 8.54837 38.4316 8.59534 38.2954 8.68317L37.2034 9.38635L38.3128 10.1204Z" fill="#002A52"/>
</g>
<defs>
<clipPath id="clip0_2369_1303">
<rect width="86.5454" height="34" fill="white"/>
</clipPath>
</defs>
</svg>
