<svg width="128" height="48" viewBox="0 0 128 48" fill="none" xmlns="http://www.w3.org/2000/svg">
<rect x="47" y="7" width="34" height="34" rx="8" fill="#002A52"/>
<path d="M52.8164 30.2102V19.4695C52.8164 18.6579 53.4176 18.0627 54.2374 18.0627C55.0572 18.0627 55.6584 18.6579 55.6584 19.4695V30.2102C55.6584 31.0218 55.0572 31.617 54.2374 31.617C53.4176 31.617 52.8164 31.0218 52.8164 30.2102ZM54.3467 32.2728C53.4564 32.2728 52.8164 32.908 52.8164 33.8031C52.8164 34.6983 53.4564 35.3335 54.3467 35.3335C55.2371 35.3335 55.877 34.6983 55.877 33.8031C55.877 32.908 55.2371 32.2728 54.3467 32.2728ZM73.9236 25.7037C73.2726 25.7037 72.6759 26.165 72.6217 27.1689C72.5674 28.4712 71.6724 29.1224 70.7231 29.1224C69.4211 29.1224 68.8244 28.1456 68.8244 27.2503C68.8244 26.165 69.4483 25.1882 71.0214 25.1882H71.4554C73.8694 25.1882 75.334 23.9401 75.334 21.8509C75.334 19.7889 73.9507 18.4866 71.6181 18.4866H65.1086C63.1286 18.4866 61.7454 19.7889 61.7454 21.8509V28.2541C61.7454 28.8239 61.4741 29.1224 61.0131 29.1224H60.7418C60.2807 29.1224 60.0095 28.8239 60.0095 28.2541V14.2268C60.0095 13.4128 59.4128 12.8159 58.5992 12.8159C57.7854 12.8159 57.1887 13.4128 57.1887 14.2268V28.4983C57.1887 29.5294 57.4599 30.3162 57.9482 30.8589C58.4906 31.4558 59.3314 31.8084 60.3892 31.8084H61.3385C62.3963 31.8084 63.2642 31.4015 63.8067 30.7775C64.2949 30.2077 64.5662 29.448 64.5662 28.4983V22.068C64.5662 21.4982 64.7832 21.1726 65.3798 21.1726H71.6452C72.1606 21.1726 72.4047 21.3897 72.4047 21.8238C72.4047 22.2851 72.1606 22.5021 71.6181 22.5021H71.1028C67.5226 22.5021 65.8681 24.6998 65.8681 27.2503C65.8681 29.6107 67.4412 31.8084 70.2349 31.8084C71.2482 31.8084 72.1403 31.3993 72.7303 30.7397C72.8513 31.4642 73.363 31.8356 73.9778 31.8356C74.6559 31.8356 75.2254 31.3472 75.2254 30.3976V27.1146C75.2254 26.165 74.5745 25.7037 73.9236 25.7037Z" fill="white"/>
</svg>
