<svg width="128" height="48" viewBox="0 0 128 48" fill="none" xmlns="http://www.w3.org/2000/svg">
<g clip-path="url(#clip0_1_16996)">
<path d="M58.3924 12V17.0467H63.3268V12H58.3924ZM63.3268 17.0467V21.8318H68.2613V17.0467H63.3268ZM63.3268 21.8318H58.3924V30.3177C58.3924 32.0373 58.9158 33.4207 59.8501 34.3925C60.8969 35.4394 62.4297 36 64.3362 36C66.2802 36 67.6632 35.4019 68.2613 34.8785V30.8411C67.8129 31.1777 66.9158 31.5885 65.7567 31.5885C64.9342 31.5885 64.3362 31.4017 63.8874 30.9905C63.5137 30.6168 63.3268 29.9815 63.3268 29.1216V21.8318ZM47.7381 16.4861C45.4579 16.4861 43.5514 17.2335 42.243 18.4297C41.1215 19.4766 40.4859 20.8972 40.4859 22.4675C40.4859 23.8505 40.9347 25.0095 41.8319 25.9066C42.729 26.8038 44.0374 27.4765 45.7569 27.8878L48.5981 28.561C50.0187 28.8971 50.6543 29.4206 50.6543 30.3552C50.6543 31.5139 49.6075 32.1866 47.8878 32.1866C46.6541 32.1866 45.6448 31.7758 45.0092 31.1026C44.5608 30.6543 44.2988 30.0562 44.2617 29.383L40 30.3177C40.1122 31.5885 40.7103 32.7105 41.6075 33.6072C43.028 35.1028 45.3082 36 47.8878 36C50.3924 36 52.4485 35.2151 53.7941 33.9067C54.8038 32.897 55.4019 31.5514 55.4019 29.9815C55.4019 28.5609 54.8785 27.2897 53.9063 26.3179C52.9345 25.3456 51.551 24.6354 49.7943 24.2993L46.9156 23.7383C45.7195 23.5139 45.0467 22.9158 45.0467 22.0933C45.0467 21.0093 46.0931 20.2619 47.7756 20.2619C48.8221 20.2619 49.7196 20.5981 50.3177 21.1962C50.6915 21.6074 50.9529 22.1309 51.028 22.729L55.1775 21.7943C55.0653 20.5981 54.5044 19.5517 53.6448 18.6916C52.2989 17.3457 50.2055 16.4861 47.7381 16.4861ZM79.2893 16.4861C76.6354 16.4861 74.2426 17.4954 72.523 19.215C70.8033 20.9722 69.7569 23.4016 69.7569 26.2428C69.7569 29.084 70.8409 31.5139 72.5981 33.271C74.3173 34.9907 76.7475 36 79.439 36C82.2055 36 84.3364 34.9907 85.7941 33.5701C86.9531 32.4486 87.6634 31.1402 88.0371 29.7943L83.6632 28.3365C83.4763 29.0093 83.1026 29.7196 82.5041 30.2802C81.7938 30.9534 80.822 31.4393 79.439 31.4393C78.1681 31.4393 76.9716 30.9534 76.112 30.0934C75.252 29.1962 74.7289 27.8877 74.7289 26.2428C74.7289 24.5607 75.252 23.2895 76.112 22.3928C76.9716 21.5328 78.1306 21.0844 79.4015 21.0844C80.7474 21.0844 81.6821 21.5327 82.3548 22.2055C82.9158 22.7665 83.252 23.4768 83.4764 24.1871L87.9249 22.6914C87.5883 21.3831 86.8781 20.0746 85.8316 18.9906C84.3364 17.5329 82.168 16.4861 79.2893 16.4861Z" fill="#002A52"/>
</g>
<defs>
<clipPath id="clip0_1_16996">
<rect width="48.0371" height="24" fill="white" transform="translate(40 12)"/>
</clipPath>
</defs>
</svg>
