<svg width="128" height="48" viewBox="0 0 128 48" fill="none" xmlns="http://www.w3.org/2000/svg">
<path d="M59.9334 32.9686H56.9976L56.7286 31.0606C56.435 31.4847 56.0883 31.8395 55.6887 32.1247C55.2888 32.4105 54.873 32.6428 54.4411 32.8219C54.0088 33.0013 53.5725 33.1316 53.1322 33.2134C52.6919 33.2949 52.2677 33.3356 51.86 33.3356C50.539 33.3356 49.3403 33.0989 48.2637 32.6259C47.1871 32.1533 46.2697 31.5049 45.5113 30.6812C44.7528 29.8577 44.1694 28.8953 43.7621 27.7944C43.3541 26.6936 43.1504 25.5069 43.1504 24.2348C43.1504 22.9626 43.3541 21.7763 43.7621 20.6751C44.1694 19.5743 44.7528 18.6121 45.5113 17.7884C46.2697 16.9649 47.1871 16.3166 48.2637 15.8436C49.3403 15.3706 50.5387 15.1343 51.86 15.1343C52.7569 15.1343 53.6581 15.2565 54.5633 15.5012C55.4685 15.746 56.2879 16.125 57.0218 16.6387C57.7557 17.1525 58.3711 17.8092 58.869 18.6081C59.3662 19.4073 59.6641 20.3536 59.7617 21.446H55.2113C55.1295 20.696 54.767 20.1089 54.1226 19.6847C53.4779 19.2605 52.6915 19.0484 51.7617 19.0484C51.0279 19.0484 50.4041 19.1952 49.8903 19.4888C49.3766 19.7823 48.9565 20.1738 48.6306 20.663C48.3041 21.1521 48.0681 21.7069 47.921 22.3267C47.7742 22.9468 47.7008 23.5827 47.7008 24.2348C47.7008 24.8868 47.7742 25.5234 47.921 26.1429C48.0677 26.763 48.3041 27.3171 48.6306 27.8066C48.9565 28.2957 49.3766 28.6872 49.8903 28.9811C50.4041 29.2747 51.0279 29.4214 51.7617 29.4214C52.8871 29.4214 53.8045 29.1807 54.5138 28.6997C55.2234 28.2186 55.6429 27.5783 55.7739 26.7791H52.5936V23.4029H59.9328V32.9683L59.9334 32.9686Z" fill="#002A52"/>
<path d="M62.7949 15.501H67.3453V21.8615H73.3389V15.501H77.8894V32.9684H73.3389V25.776H67.3453V32.9684H62.7949V15.501Z" fill="#002A52"/>
<path d="M80.9727 15.501H85.5231V29.0539H93.6695V32.9684H80.9727V15.501Z" fill="#002A52"/>
<path d="M53.5683 10.7662V8H37.7662H35V10.7662V37.2335V40H37.7662H53.5683V37.2335H37.7662V10.7662H53.5683Z" fill="#002A52"/>
</svg>
