<svg width="128" height="48" viewBox="0 0 128 48" fill="none" xmlns="http://www.w3.org/2000/svg">
<path d="M63.3555 11.9617L67.58 9.52554V7.61572H63.3555V11.9617Z" fill="#002A52"/>
<path d="M59.6931 26.5587C58.6538 27.355 57.1084 27.9084 55.4685 28.2458C54.0581 28.536 52.5802 28.671 51.2845 28.671C47.0262 28.671 40.1562 25.9446 40.1562 18.0151C40.1562 9.63353 46.5875 6.82617 51.8311 6.82617C55.4415 6.82617 58.1949 8.4593 58.5053 8.65501L58.0802 10.3961C56.69 8.58752 54.679 7.3458 51.6894 7.3458C50.0697 7.3458 48.7403 7.91942 47.8563 8.61452C46.79 9.45133 44.4078 11.2802 44.4078 17.9341C44.4078 24.5881 47.5796 28.1243 51.4329 28.1243C52.9581 28.1243 54.6857 27.7262 55.4753 26.6532V20.6133L53.498 21.7605V20.2894L59.6998 16.7059V26.5587H59.6931ZM63.3575 14.6004L67.582 12.1642V28.293H63.3575V14.6004ZM81.8145 26.9636C81.8145 26.9636 80.9237 27.8949 78.474 27.8949H75.471V17.428H78.3323C78.3323 17.428 80.0599 17.4078 81.0047 17.9679C81.0047 17.9679 82.3882 18.6697 82.8268 20.62C82.8201 20.6133 83.7041 25.155 81.8145 26.9636ZM75.4642 7.98691H78.6293C78.6293 7.98691 82.0305 7.93292 82.3544 10.963C82.3544 10.963 82.6581 13.9188 81.7066 15.4845C81.7066 15.4845 80.9102 17.0366 78.6293 17.0366H75.4642V7.98691ZM85.9041 18.771C85.9041 18.771 84.5409 17.5157 80.917 17.1716C80.917 17.1716 82.5366 17.1378 84.6961 15.8691C87.5372 14.1955 86.5317 11.0305 86.5317 11.0305C85.5532 7.47402 78.9329 7.60899 78.9329 7.60899H75.4642H75.4575L71.2397 10.0452V28.2863H79.4256C79.4256 28.2863 86.1133 28.4887 87.5507 24.2642C87.5575 24.271 88.779 20.9912 85.9041 18.771Z" fill="#002A52"/>
<path d="M87.4894 31.5518H40.4863V31.8622H87.4894V31.5518Z" fill="#002A52"/>
<path d="M43.2176 40.2919C43.2176 40.2177 43.1906 40.1569 43.1366 40.103C43.0826 40.049 43.0219 40.022 42.9477 40.022C42.8734 40.022 42.8127 40.049 42.7587 40.103C42.7047 40.1569 42.6777 40.2177 42.6777 40.2919C42.6777 40.3661 42.7047 40.4269 42.7587 40.4809C42.8127 40.5349 42.8734 40.5619 42.9477 40.5619C43.0219 40.5619 43.0826 40.5349 43.1366 40.4809C43.1906 40.4336 43.2176 40.3661 43.2176 40.2919Z" fill="#002A52"/>
<path d="M42.3339 40.1113C42.2799 40.0573 42.2192 40.0303 42.1449 40.0303C42.0707 40.0303 42.01 40.0573 41.956 40.1113C41.902 40.1652 41.875 40.226 41.875 40.3002C41.875 40.3744 41.902 40.4352 41.956 40.4892C42.01 40.5432 42.0707 40.5702 42.1449 40.5702C42.2192 40.5702 42.2799 40.5432 42.3339 40.4892C42.3879 40.4352 42.4149 40.3744 42.4149 40.3002C42.4149 40.226 42.3879 40.1585 42.3339 40.1113Z" fill="#002A52"/>
<path d="M43.8732 37.6672C43.7517 37.6537 43.6302 37.6335 43.5088 37.6065C43.3873 37.5795 43.2658 37.5525 43.1443 37.5187C43.0296 37.485 42.9149 37.4513 42.8069 37.4175H42.8002V37.8022L42.9824 37.8494C43.1038 37.8832 43.2388 37.9236 43.3805 37.9709C43.5222 38.0181 43.6505 38.0721 43.7652 38.1261C43.8799 38.1868 43.9811 38.2543 44.0554 38.3218C44.1296 38.396 44.1701 38.4703 44.1701 38.558C44.1701 38.6592 44.1296 38.747 44.0419 38.8212C43.9542 38.8954 43.8394 38.9562 43.691 39.0101C43.5425 39.0574 43.367 39.0979 43.1713 39.1181C42.9756 39.1384 42.7664 39.1519 42.5437 39.1519C41.9566 39.1519 41.5247 39.0574 41.2615 38.8819C40.9983 38.6997 40.8634 38.4163 40.8634 38.0249V37.2218H40.4922V38.1194C40.4922 38.3218 40.5259 38.5108 40.5867 38.6862C40.6474 38.8617 40.7554 39.0101 40.9106 39.1384C41.0658 39.2666 41.275 39.3678 41.5382 39.442C41.8014 39.5163 42.1321 39.55 42.537 39.55C42.9014 39.55 43.2118 39.523 43.4615 39.469C43.7112 39.4151 43.9204 39.3476 44.0756 39.2598C44.2308 39.1721 44.3456 39.0776 44.413 38.9629C44.4805 38.8482 44.5143 38.7335 44.5143 38.612C44.5143 38.5378 44.494 38.45 44.4603 38.3555C44.4265 38.2678 44.3658 38.1868 44.2848 38.1059L44.2646 38.0856H47.74V34.7451H47.3554V37.6942H44.2106C44.1094 37.6874 43.9946 37.6807 43.8732 37.6672Z" fill="#002A52"/>
<path d="M50.291 37.4635C50.2168 37.5242 50.1156 37.5782 49.9873 37.6254C49.8591 37.6794 49.7039 37.6997 49.5352 37.6997C49.3125 37.6997 49.1303 37.6457 48.9886 37.5377C48.8536 37.4297 48.7794 37.2408 48.7794 36.9843C48.7794 36.8966 48.7929 36.8021 48.8199 36.7009C48.8469 36.5997 48.8941 36.512 48.9548 36.431C49.0156 36.35 49.0965 36.2825 49.191 36.2285C49.2855 36.1745 49.407 36.1475 49.5419 36.1475C49.6769 36.1475 49.7984 36.1745 49.8861 36.2285C49.9806 36.2825 50.0548 36.3567 50.1156 36.4512C50.1763 36.5457 50.2168 36.6604 50.2438 36.7886C50.2708 36.9169 50.2843 37.0653 50.2843 37.2138V37.4635H50.291ZM50.4395 36.215C50.3518 36.08 50.237 35.9721 50.0953 35.8911C49.9536 35.8101 49.7781 35.7764 49.5689 35.7764C49.38 35.7764 49.218 35.8101 49.0696 35.8843C48.9278 35.9586 48.7996 36.0531 48.7051 36.1745C48.6039 36.296 48.5297 36.431 48.4824 36.5794C48.4352 36.7279 48.4082 36.8831 48.4082 37.0383C48.4082 37.234 48.4352 37.396 48.4892 37.531C48.5432 37.6592 48.6242 37.7672 48.7186 37.8549C48.8131 37.9359 48.9278 37.9966 49.0561 38.0304C49.1843 38.0641 49.326 38.0843 49.4745 38.0843C49.6499 38.0843 49.8051 38.0641 49.9401 38.0169C50.0616 37.9764 50.1696 37.9291 50.264 37.8751L50.2843 37.8616V38.0843C50.2843 38.28 50.2505 38.4353 50.183 38.55C50.1156 38.6647 50.0143 38.7592 49.8929 38.8267C49.7714 38.8942 49.6229 38.9347 49.4475 38.9616C49.2788 38.9819 49.083 38.9954 48.8738 38.9954H48.7524V39.3868H48.8941C49.1775 39.3868 49.434 39.3666 49.6499 39.3193C49.8659 39.2721 50.0548 39.1911 50.21 39.0831C50.3585 38.9751 50.48 38.8199 50.5542 38.6377C50.6352 38.4488 50.6757 38.2126 50.6757 37.9291V37.3488C50.6757 37.1261 50.6554 36.9101 50.6217 36.7212C50.588 36.5187 50.5272 36.3567 50.4395 36.215Z" fill="#002A52"/>
<path d="M53.4774 37.4658C53.3626 37.3173 53.2344 37.1216 53.0859 36.8787L52.3706 35.6977L51.9994 35.9339L52.5798 36.7842C52.6473 36.8922 52.708 36.9867 52.7418 37.0812C52.7755 37.1689 52.7958 37.2634 52.7958 37.3511C52.7958 37.4523 52.7553 37.5333 52.6743 37.594C52.5933 37.6548 52.4516 37.6885 52.2491 37.6885H51.2031V38.0799H52.0804C52.2019 38.0799 52.3234 38.0732 52.4313 38.0664C52.5393 38.0597 52.6405 38.0327 52.7283 37.9989C52.816 37.9585 52.8902 37.9045 52.951 37.8302C53.005 37.7627 53.0455 37.6683 53.0657 37.5603L53.0724 37.5333L53.0859 37.5603C53.2007 37.7425 53.3154 37.8775 53.4234 37.9585C53.5381 38.0462 53.6731 38.0934 53.8215 38.0934H55.2522V34.7529H54.8675V37.702H53.8283C53.7068 37.6885 53.5853 37.6143 53.4774 37.4658Z" fill="#002A52"/>
<path d="M56.453 34.7368H56.0684V38.0773H56.453V34.7368Z" fill="#002A52"/>
<path d="M59.5976 38.9482C59.5436 38.8942 59.4828 38.8672 59.4086 38.8672C59.3344 38.8672 59.2736 38.8942 59.2197 38.9482C59.1657 39.0022 59.1387 39.0629 59.1387 39.1371C59.1387 39.2114 59.1657 39.2721 59.2197 39.3261C59.2736 39.3801 59.3344 39.4071 59.4086 39.4071C59.4828 39.4071 59.5436 39.3801 59.5976 39.3261C59.6516 39.2721 59.6785 39.2114 59.6785 39.1371C59.6785 39.0629 59.6516 39.0022 59.5976 38.9482Z" fill="#002A52"/>
<path d="M65.8398 38.6904C65.7858 38.6364 65.725 38.6094 65.6508 38.6094C65.5766 38.6094 65.5158 38.6364 65.4618 38.6904C65.4079 38.7443 65.3809 38.8051 65.3809 38.8793C65.3809 38.9535 65.4079 39.0143 65.4618 39.0683C65.5158 39.1223 65.5766 39.1493 65.6508 39.1493C65.725 39.1493 65.7858 39.1223 65.8398 39.0683C65.8937 39.0143 65.9207 38.9535 65.9207 38.8793C65.914 38.8051 65.887 38.7376 65.8398 38.6904Z" fill="#002A52"/>
<path d="M65.0312 38.6904C64.9772 38.6364 64.9164 38.6094 64.8422 38.6094C64.768 38.6094 64.7072 38.6364 64.6532 38.6904C64.5993 38.7443 64.5723 38.8051 64.5723 38.8793C64.5723 38.9535 64.5993 39.0143 64.6532 39.0683C64.7072 39.1223 64.768 39.1493 64.8422 39.1493C64.9164 39.1493 64.9772 39.1223 65.0312 39.0683C65.0851 39.0143 65.1121 38.9535 65.1121 38.8793C65.1121 38.8051 65.0851 38.7376 65.0312 38.6904Z" fill="#002A52"/>
<path d="M69.7735 34.8989C69.8207 34.9529 69.8882 34.9799 69.9557 34.9799C70.0299 34.9799 70.0906 34.9529 70.1446 34.8989C70.1986 34.8449 70.2256 34.7842 70.2256 34.71C70.2256 34.6357 70.1986 34.575 70.1446 34.521C70.0906 34.4738 70.0231 34.4468 69.9557 34.4468C69.8814 34.4468 69.8207 34.4738 69.7735 34.521C69.7262 34.575 69.6992 34.6357 69.6992 34.71C69.6992 34.7775 69.7195 34.8449 69.7735 34.8989Z" fill="#002A52"/>
<path d="M71.6568 37.6788C71.6568 37.4224 71.6231 37.1727 71.5556 36.9365C71.4881 36.6936 71.3869 36.4844 71.2452 36.3089C71.1035 36.1334 70.928 35.985 70.7053 35.8837C70.4894 35.7758 70.2262 35.7285 69.9225 35.7285C69.7808 35.7285 69.6525 35.742 69.5243 35.769C69.3961 35.796 69.2949 35.823 69.2139 35.8433H69.2071V36.2144H69.2139C69.3084 36.1942 69.4096 36.1739 69.5243 36.1604C69.8483 36.1132 70.1317 36.1334 70.3949 36.2212C70.5636 36.2752 70.7121 36.3696 70.8335 36.4911C70.955 36.6126 71.0562 36.7813 71.1305 36.977C71.2047 37.1727 71.2384 37.4156 71.2384 37.6923V37.7058H67.9384C67.7292 37.7058 67.5875 37.6383 67.5133 37.5034C67.439 37.3684 67.3986 37.1862 67.3986 36.95V34.75H67.0139V37.2199C67.0139 37.3347 66.9936 37.4291 66.9599 37.4966C66.9262 37.5574 66.8789 37.6046 66.8182 37.6383C66.7575 37.6653 66.69 37.6856 66.6157 37.6923C66.5415 37.6991 66.4605 37.6991 66.3795 37.6991H66.0016C65.7924 37.6991 65.6507 37.6316 65.5765 37.4966C65.5022 37.3617 65.4617 37.1794 65.4617 36.9433V35.8095H65.0771V37.2132C65.0771 37.3279 65.0568 37.4224 65.0231 37.4899C64.9894 37.5506 64.9421 37.5979 64.8814 37.6316C64.8206 37.6586 64.7532 37.6788 64.6789 37.6856C64.6047 37.6923 64.5237 37.6923 64.436 37.6923H61.0685V37.6788C61.0685 37.4224 61.0348 37.1727 60.9673 36.9365C60.8998 36.6936 60.7986 36.4844 60.6568 36.3089C60.5151 36.1334 60.3329 35.985 60.117 35.8837C59.901 35.7758 59.6378 35.7285 59.3341 35.7285C59.1924 35.7285 59.0642 35.742 58.936 35.769C58.8078 35.796 58.7065 35.823 58.6256 35.8433H58.6188V36.2144H58.6256C58.72 36.1942 58.8213 36.1739 58.936 36.1604C59.2599 36.1132 59.5568 36.1334 59.8065 36.2212C59.9752 36.2752 60.1237 36.3696 60.2452 36.4911C60.3734 36.6126 60.4679 36.7813 60.5421 36.977C60.6163 37.1727 60.6501 37.4156 60.6501 37.6923V37.7058H59.2599C59.0709 37.7058 58.8752 37.7261 58.6795 37.7733C58.4838 37.8206 58.3084 37.8948 58.1464 38.0028C57.9912 38.1107 57.863 38.2592 57.7617 38.4482C57.6605 38.6371 57.6133 38.8733 57.6133 39.1567C57.6133 39.3929 57.6538 39.6021 57.7415 39.7776C57.8225 39.9531 57.944 40.1083 58.0924 40.223C58.2409 40.3445 58.4231 40.4322 58.6323 40.4929C58.8415 40.5537 59.0777 40.5874 59.3274 40.5874C59.3881 40.5874 59.4624 40.5807 59.5636 40.5739C59.6581 40.5672 59.766 40.5469 59.8808 40.5267C59.9955 40.4997 60.117 40.4727 60.2384 40.4255C60.3599 40.385 60.4746 40.331 60.5826 40.2635H60.5894L60.4274 39.9531H60.4206C60.1979 40.0543 59.9955 40.1218 59.82 40.1488C59.4219 40.2095 59.0912 40.2028 58.8145 40.1285C58.6593 40.088 58.5243 40.0206 58.4096 39.9328C58.2949 39.8451 58.2004 39.7371 58.1329 39.6021C58.0654 39.4672 58.0317 39.3052 58.0317 39.1163C58.0317 38.9138 58.0722 38.7451 58.1464 38.6101C58.2206 38.4819 58.3219 38.3807 58.4433 38.3064C58.5648 38.2322 58.693 38.1782 58.8415 38.1512C58.9832 38.1242 59.1249 38.1107 59.2599 38.1107H64.49C64.6047 38.1107 64.6992 38.104 64.7869 38.0972C64.8746 38.0837 64.9556 38.0702 65.0231 38.0433C65.0906 38.0163 65.1581 37.9825 65.2121 37.9353C65.2593 37.8948 65.3065 37.8475 65.347 37.7868L65.3605 37.7733L65.3673 37.7936C65.4213 37.9083 65.5022 37.996 65.6102 38.0433C65.7182 38.0905 65.8397 38.1175 65.9746 38.1175C65.9814 38.1175 65.9814 38.1175 65.9814 38.1175H66.4268C66.5348 38.1175 66.636 38.1107 66.7237 38.104C66.8114 38.0905 66.8924 38.077 66.9599 38.05C67.0274 38.023 67.0949 37.9893 67.1489 37.942C67.1961 37.9015 67.2433 37.8543 67.2838 37.7936L67.2973 37.7801L67.3041 37.8003C67.3581 37.915 67.439 38.0028 67.547 38.05C67.655 38.0972 67.7832 38.1242 67.9182 38.1242H73.4114V34.7837H73.0268V37.7328H71.6433V37.6788H71.6568Z" fill="#002A52"/>
<path d="M74.6269 34.7368H74.2422V38.0773H74.6269V34.7368Z" fill="#002A52"/>
<path d="M78.9733 36.1734C78.899 36.1126 78.8653 36.0316 78.8653 35.9237C78.8653 35.8562 78.8856 35.7887 78.9328 35.728C78.98 35.6672 79.0678 35.6335 79.196 35.6335C79.2297 35.6335 79.2567 35.6335 79.2905 35.6402C79.3242 35.647 79.3579 35.6537 79.4052 35.6605H79.4119V35.4108H79.4052C79.3782 35.404 79.3444 35.3973 79.2972 35.3905C79.2567 35.3838 79.2095 35.3838 79.169 35.3838C79.0273 35.3838 78.9058 35.431 78.7978 35.5188C78.6898 35.6065 78.6359 35.7415 78.6359 35.9102C78.6359 36.0316 78.6763 36.1396 78.7573 36.2408L78.7708 36.2611H78.4941V36.4905H79.5199V36.2611H79.2837C79.1555 36.2611 79.0475 36.2341 78.9733 36.1734Z" fill="#002A52"/>
<path d="M85.127 34.8906C85.1742 34.9446 85.2417 34.9716 85.3092 34.9716C85.3834 34.9716 85.4441 34.9446 85.4981 34.8906C85.5521 34.8366 85.5791 34.7759 85.5791 34.7017C85.5791 34.6274 85.5521 34.5667 85.4981 34.5127C85.4441 34.4655 85.3767 34.4385 85.3092 34.4385C85.2349 34.4385 85.1742 34.4655 85.127 34.5127C85.0797 34.5667 85.0527 34.6274 85.0527 34.7017C85.0527 34.7759 85.073 34.8366 85.127 34.8906Z" fill="#002A52"/>
<path d="M87.0438 37.6845H86.0383C85.8291 37.6845 85.6873 37.617 85.6131 37.4821C85.5389 37.3471 85.4984 37.1649 85.4984 36.9287V35.8084H85.1137V37.2121C85.1137 37.3268 85.0935 37.4213 85.0597 37.4888C85.026 37.5496 84.9788 37.5968 84.918 37.6305C84.8573 37.6575 84.7898 37.6778 84.7156 37.6845C84.6413 37.6913 84.5604 37.6913 84.4726 37.6913H81.6923C81.5843 37.6913 81.4965 37.671 81.4291 37.6373C81.3616 37.6035 81.3008 37.5496 81.2604 37.4888C81.2199 37.4213 81.1929 37.3471 81.1726 37.2526C81.1524 37.1581 81.1456 37.0569 81.1456 36.9422V34.7422H80.7677V37.2121C80.7677 37.3268 80.7475 37.4213 80.7137 37.4888C80.68 37.5563 80.6327 37.6035 80.572 37.6305C80.5113 37.6575 80.4438 37.6778 80.3696 37.6845C80.2953 37.6913 80.2143 37.6913 80.1266 37.6913H77.8524C77.6432 37.6913 77.4677 37.6845 77.3327 37.671C77.1978 37.6575 77.083 37.6305 77.0021 37.5833C76.9211 37.5428 76.8671 37.4753 76.8334 37.3876C76.7996 37.2999 76.7861 37.1851 76.7861 37.0434V36.3281H76.4082V37.2256C76.4082 37.3808 76.4284 37.5158 76.4689 37.6238C76.5094 37.7318 76.5769 37.8195 76.6646 37.887C76.7524 37.9545 76.8806 38.0017 77.0291 38.0354C77.1775 38.0624 77.3732 38.0827 77.5959 38.0827H80.1738C80.3965 38.0827 80.572 38.0624 80.707 38.0152C80.8284 37.9747 80.9364 37.887 81.0309 37.752L81.0444 37.7385L81.0511 37.7588C81.1051 37.8735 81.1861 37.9612 81.2941 38.0084C81.4088 38.0624 81.537 38.0894 81.6788 38.0894H84.5131C84.6211 38.0894 84.7223 38.0827 84.81 38.0759C84.8978 38.0624 84.9788 38.0489 85.0462 38.0219C85.1137 37.9949 85.1812 37.9612 85.2352 37.914C85.2824 37.8735 85.3297 37.8262 85.3702 37.7655L85.3837 37.752L85.3904 37.7722C85.4444 37.887 85.5321 37.9747 85.6334 38.0219C85.7413 38.0692 85.8628 38.0962 85.9978 38.0962C86.0045 38.0962 86.0045 38.0962 86.0045 38.0962H87.4082V35.8084H87.0235V37.6845H87.0438Z" fill="#002A52"/>
<path d="M87.4003 38.6767C87.3463 38.6227 87.2856 38.5957 87.2113 38.5957C87.1371 38.5957 87.0764 38.6227 87.0224 38.6767C86.9684 38.7307 86.9414 38.7914 86.9414 38.8656C86.9414 38.9399 86.9684 39.0006 87.0224 39.0546C87.0764 39.1086 87.1371 39.1356 87.2113 39.1356C87.2856 39.1356 87.3463 39.1086 87.4003 39.0546C87.4543 39.0006 87.4813 38.9399 87.4813 38.8656C87.4813 38.7914 87.4543 38.7307 87.4003 38.6767Z" fill="#002A52"/>
</svg>
