<svg width="41" height="41" viewBox="0 0 41 41" fill="none" xmlns="http://www.w3.org/2000/svg">
<path d="M20.1255 32.5909C13.2564 32.5909 7.66211 27.0022 7.66211 20.1275C7.66211 13.2528 13.2509 7.66406 20.1255 7.66406C21.9445 7.66406 23.703 8.04873 25.3406 8.80709C25.8242 9.0324 26.033 9.60391 25.8132 10.082C25.5879 10.5656 25.0164 10.7744 24.5383 10.5546C23.148 9.91165 21.6642 9.58743 20.1255 9.58743C14.317 9.58743 9.58548 14.3134 9.58548 20.1275C9.58548 25.9416 14.3115 30.6676 20.1255 30.6676C25.9396 30.6676 30.6656 25.9416 30.6656 20.1275C30.6656 19.0614 30.5062 18.0063 30.193 16.9951C30.0336 16.4896 30.3194 15.951 30.825 15.7917C31.3305 15.6378 31.8691 15.9181 32.0284 16.4236C32.4021 17.6216 32.589 18.8636 32.589 20.1275C32.589 26.9967 27.0002 32.5909 20.1255 32.5909Z" fill="#052460"/>
<path d="M20.1239 40.2575C19.1568 40.2575 18.1896 40.1915 17.2444 40.0542C16.8597 39.9992 16.552 39.719 16.4531 39.3453L15.887 37.1856C14.189 36.7625 12.5733 36.092 11.0676 35.1853L9.13875 36.3119C8.80354 36.5042 8.38589 36.4822 8.07815 36.2514C7.3143 35.6799 6.57793 35.0424 5.89651 34.361C5.21508 33.6796 4.57762 32.9432 4.00611 32.1793C3.7753 31.8716 3.75332 31.454 3.94566 31.1187L5.07221 29.1844C4.16547 27.6787 3.49503 26.063 3.07189 24.365L0.912229 23.7989C0.538545 23.7 0.258287 23.3868 0.203333 23.0076C0.0659498 22.0624 0 21.0898 0 20.1281C0 19.1664 0.0659498 18.1992 0.203333 17.2485C0.258287 16.8638 0.538545 16.5506 0.912229 16.4572L3.07189 15.8912C3.49503 14.1931 4.16547 12.572 5.07221 11.0717L3.94566 9.13738C3.75332 8.80217 3.7753 8.38453 4.00611 8.07679C4.57762 7.31293 5.21508 6.58205 5.89651 5.89514C6.57793 5.21371 7.3143 4.57625 8.07815 4.00474C8.38589 3.77393 8.80903 3.75194 9.13875 3.94428L11.0676 5.07083C12.5733 4.1641 14.189 3.49366 15.887 3.07052L16.4531 0.910857C16.552 0.537174 16.8652 0.256907 17.2444 0.201954C19.1348 -0.0673179 21.1076 -0.0673179 23.0035 0.201954C23.3882 0.256907 23.6959 0.537174 23.7948 0.910857L24.3608 3.07052C25.4599 3.34529 26.5315 3.72447 27.5591 4.20256C28.0427 4.42787 28.2461 4.9994 28.0207 5.48299C27.7954 5.96658 27.2239 6.1699 26.7403 5.94459C25.6687 5.44452 24.5367 5.06533 23.3772 4.81804C23.02 4.7411 22.7397 4.47184 22.6463 4.12013L22.0968 2.02641C20.7889 1.88353 19.4535 1.88353 18.1456 2.02641L17.5961 4.12013C17.5027 4.47184 17.2224 4.7411 16.8652 4.81804C14.9858 5.2137 13.2218 5.95008 11.6062 6.99969C11.3039 7.19752 10.9083 7.20852 10.595 7.02167L8.72111 5.92811C8.21004 6.34026 7.71546 6.78538 7.24836 7.25249C6.78125 7.71959 6.33613 8.21417 5.92398 8.72523L7.01755 10.5991C7.1989 10.9124 7.19341 11.3025 6.99557 11.6103C5.94596 13.2259 5.20959 14.9954 4.81392 16.8693C4.73699 17.2265 4.46772 17.5068 4.11601 17.6002L2.02229 18.1497C1.95085 18.8037 1.91788 19.4686 1.91788 20.1281C1.91788 20.7875 1.95085 21.4524 2.02229 22.1064L4.11601 22.6559C4.46772 22.7493 4.73699 23.0296 4.81392 23.3868C5.20959 25.2662 5.94596 27.0357 6.99557 28.6458C7.19341 28.9481 7.20439 29.3383 7.01755 29.657L5.92398 31.5309C6.33613 32.042 6.78125 32.5365 7.24836 33.0036C7.71546 33.4707 8.21004 33.9159 8.72111 34.328L10.595 33.2345C10.9083 33.0531 11.2984 33.0586 11.6062 33.2564C13.2218 34.306 14.9913 35.0424 16.8652 35.4381C17.2224 35.515 17.5027 35.7843 17.5961 36.136L18.1456 38.2297C19.4535 38.3726 20.7944 38.3726 22.0968 38.2297L22.6463 36.136C22.7397 35.7843 23.02 35.515 23.3772 35.4381C25.2511 35.0424 27.0206 34.306 28.6362 33.2564C28.9385 33.0586 29.3341 33.0476 29.6474 33.2345L31.5213 34.328C32.0323 33.9159 32.5269 33.4707 32.994 33.0036C33.4611 32.5365 33.9063 32.042 34.3184 31.5309L33.2248 29.657C33.0435 29.3438 33.049 28.9536 33.2468 28.6458C34.2964 27.0302 35.0328 25.2607 35.4285 23.3868C35.5054 23.0296 35.7747 22.7493 36.1264 22.6559L38.2201 22.1064C38.2915 21.4524 38.3245 20.7875 38.3245 20.1281C38.3245 19.4686 38.2915 18.8037 38.2201 18.1497L36.1264 17.6002C35.7747 17.5068 35.5054 17.2265 35.4285 16.8693C35.2141 15.8692 34.9009 14.8855 34.4997 13.9458C34.2909 13.4567 34.5162 12.8907 35.0053 12.6819C35.4944 12.4731 36.0604 12.6984 36.2692 13.1874C36.6429 14.0612 36.9507 14.9679 37.1815 15.8912L39.3411 16.4572C39.7148 16.5561 39.9951 16.8693 40.05 17.2485C40.1874 18.1937 40.2534 19.1664 40.2534 20.1281C40.2534 21.0898 40.1874 22.0569 40.05 23.0076C39.9951 23.3923 39.7148 23.7055 39.3411 23.7989L37.1815 24.365C36.7583 26.063 36.0879 27.6842 35.1812 29.1844L36.3077 31.1187C36.5001 31.454 36.4781 31.8716 36.2473 32.1793C35.6757 32.9432 35.0383 33.6796 34.3569 34.361C33.6754 35.0424 32.9446 35.6799 32.1752 36.2514C31.8675 36.4822 31.4498 36.5042 31.1146 36.3119L29.1803 35.1853C27.6745 36.092 26.0589 36.7625 24.3608 37.1856L23.7948 39.3453C23.6959 39.719 23.3827 39.9992 23.0035 40.0542C22.0583 40.1915 21.0911 40.2575 20.1239 40.2575Z" fill="#00AEEF"/>
<path d="M20.5732 29.0315C20.3423 29.0315 20.128 28.9106 20.0126 28.7127C17.8584 25.0418 12.1103 17.222 12.0554 17.145C11.863 16.8868 11.8905 16.5241 12.1213 16.2988L13.8908 14.5512C14.1161 14.3314 14.4623 14.304 14.7206 14.4798L20.4413 18.4749C24.2715 13.5621 27.827 10.1715 30.168 8.17115C32.8003 5.91806 34.4819 4.90143 34.5478 4.86296C34.6467 4.80251 34.7621 4.76953 34.883 4.76953H37.7406C38.0978 4.76953 38.3891 5.0608 38.3891 5.41799C38.3891 5.60484 38.3121 5.78067 38.1692 5.90157C30.0526 13.1334 21.2271 28.5479 21.1337 28.7017C21.0183 28.9051 20.804 29.026 20.5732 29.0315ZM13.4292 16.8263C14.5887 18.4145 18.4355 23.723 20.5622 27.1136C21.4194 25.6628 23.2164 22.7008 25.508 19.3047C29.3602 13.606 32.9102 9.16032 36.092 6.06644H35.0644C34.0477 6.72039 27.9204 10.8529 21.0842 19.7553C20.8754 20.0301 20.4852 20.0906 20.1995 19.8927L14.4129 15.8536L13.4292 16.8263Z" fill="#052460"/>
<path d="M20.5783 29.3076C20.2541 29.3076 19.9463 29.1317 19.7815 28.8514C17.6218 25.1751 11.8957 17.3827 11.8407 17.3057C11.5714 16.9375 11.6099 16.421 11.9341 16.1023L13.7036 14.3547C14.0224 14.0415 14.5169 13.9975 14.8796 14.2558L20.3915 18.1026C24.1832 13.2722 27.7003 9.92549 29.9918 7.96365C32.679 5.6666 34.3991 4.63349 34.4156 4.62799C34.5529 4.54007 34.7178 4.49609 34.8882 4.49609H37.7457C38.2568 4.49609 38.669 4.90826 38.669 5.41932C38.669 5.6831 38.5536 5.93039 38.3612 6.10624C30.316 13.2722 21.474 28.6811 21.3861 28.8405C21.2267 29.1262 20.919 29.3021 20.5893 29.3076H20.5783ZM14.3411 14.6405C14.2477 14.6405 14.1488 14.679 14.0773 14.7504L12.3078 16.4979C12.1759 16.6298 12.1594 16.8386 12.2693 16.987C12.3243 17.0639 18.0724 24.8783 20.2431 28.5767C20.309 28.6921 20.4354 28.7635 20.5673 28.7635C20.6992 28.7635 20.8201 28.6921 20.886 28.5767C20.974 28.4228 29.8654 12.926 37.9766 5.70508C38.059 5.63364 38.1029 5.52922 38.1029 5.42481C38.1029 5.21598 37.9326 5.05113 37.7293 5.05113H34.8717C34.8057 5.05113 34.7398 5.06762 34.6793 5.10609C34.6574 5.11708 32.9868 6.12272 30.3325 8.3868C28.0245 10.3596 24.469 13.7448 20.6442 18.6521L20.4849 18.8554L14.5499 14.7119C14.484 14.668 14.4125 14.646 14.3356 14.646L14.3411 14.6405ZM20.5673 27.6425L20.3255 27.2578C18.2098 23.8727 14.3411 18.5367 13.2035 16.987L13.0662 16.7947L14.3795 15.4923L20.353 19.6632C20.5179 19.7786 20.7432 19.7457 20.8641 19.5863C27.6838 10.7003 33.7616 6.56785 34.9101 5.83147L34.9761 5.7875H36.7566L36.273 6.26011C33.1077 9.3375 29.5632 13.7777 25.7219 19.4599C23.4469 22.8286 21.6499 25.7905 20.7871 27.2523L20.5563 27.6425H20.5673ZM13.7916 16.8551C15.028 18.5532 18.4736 23.3176 20.5563 26.5874C21.4905 25.0212 23.1831 22.257 25.2823 19.1522C28.9477 13.7283 32.3603 9.41993 35.4267 6.34254H35.1519C33.8605 7.17783 27.9475 11.2774 21.3092 19.927C21.0069 20.3227 20.4519 20.4051 20.0507 20.1194L14.451 16.2122L13.797 16.8551H13.7916Z" fill="#062460"/>
</svg>
