<svg width="32" height="38" viewBox="0 0 32 38" fill="none" xmlns="http://www.w3.org/2000/svg">
<path d="M23.8738 37.3679L31.752 28.5056C32.3111 27.8738 31.8638 26.873 31.0195 26.873L28.0617 26.873L28.0617 16.0371C28.0617 15.4947 27.62 15.0586 27.0832 15.0586L24.8076 15.0586C24.7908 15.1089 24.7629 15.1536 24.7293 15.1984C24.7684 15.1481 24.6958 15.2431 24.6958 15.2431C24.679 15.2655 24.6678 15.2822 24.651 15.3046C24.6175 15.3549 24.5895 15.3997 24.5616 15.45C24.5113 15.5394 24.4498 15.6736 24.4218 15.7351C24.3994 15.791 24.3435 15.942 24.31 16.0371C24.2708 16.1433 24.2373 16.2495 24.2037 16.3614C24.1366 16.5794 24.0695 16.8031 23.9913 17.0211L26.0992 17.0211L26.0992 27.8571C26.0992 28.3994 26.5409 28.8355 27.0777 28.8355L28.8333 28.8355L23.1414 35.2376L17.4494 28.8355L19.2051 28.8355C19.7475 28.8355 20.1836 28.3938 20.1836 27.8571L20.1836 22.5118C19.5965 22.8976 18.8976 23.1156 18.221 23.3393L18.221 26.8786L15.2633 26.8786C14.419 26.8786 13.9717 27.885 14.5308 28.5112L22.4089 37.3734C22.8003 37.8096 23.4824 37.8096 23.8738 37.3734L23.8738 37.3679Z" fill="#00AEEF"/>
<path d="M12.915 20.2305C12.3726 20.2305 11.9365 19.7944 11.9365 19.2521V18.0332C11.9365 17.4908 12.3726 17.0547 12.915 17.0547C13.4574 17.0547 13.8935 17.4908 13.8935 18.0332V19.2521C13.8935 19.7944 13.4574 20.2305 12.915 20.2305Z" fill="#052460"/>
<path d="M12.9151 25.7423C5.81975 25.7423 0.0439453 19.9665 0.0439453 12.8712C0.0439453 5.7758 5.81975 0 12.9151 0C20.0104 0 25.7863 5.7758 25.7863 12.8712C25.7863 19.9665 20.0104 25.7423 12.9151 25.7423ZM12.9151 1.96253C6.89886 1.96253 2.0009 6.85492 2.0009 12.8767C2.0009 18.8986 6.89327 23.7909 12.9151 23.7909C18.9369 23.7909 23.8293 18.8986 23.8293 12.8767C23.8293 6.85492 18.9369 1.96253 12.9151 1.96253Z" fill="#052460"/>
<path d="M12.9145 19.0145C10.8066 19.0145 9.0957 17.4209 9.0957 15.4584C9.0957 14.916 9.53182 14.4799 10.0742 14.4799C10.6165 14.4799 11.0527 14.916 11.0527 15.4584C11.0527 16.3418 11.8858 17.0575 12.9145 17.0575C13.9433 17.0575 14.7765 16.3418 14.7765 15.4584C14.7765 14.575 13.9433 13.8593 12.9145 13.8593C12.3722 13.8593 11.9361 13.4232 11.9361 12.8808C11.9361 12.3385 12.3722 11.9023 12.9145 11.9023C15.0225 11.9023 16.7334 13.4959 16.7334 15.4584C16.7334 17.4209 15.0225 19.0145 12.9145 19.0145Z" fill="#052460"/>
<path d="M12.9145 13.8543C10.8066 13.8543 9.0957 12.2608 9.0957 10.2982C9.0957 8.3357 10.8066 6.74219 12.9145 6.74219C15.0225 6.74219 16.7334 8.3357 16.7334 10.2982C16.7334 10.8406 16.2973 11.2767 15.7549 11.2767C15.2126 11.2767 14.7765 10.8406 14.7765 10.2982C14.7765 9.41482 13.9433 8.69914 12.9145 8.69914C11.8858 8.69914 11.0527 9.41482 11.0527 10.2982C11.0527 11.1817 11.8858 11.8974 12.9145 11.8974C13.4569 11.8974 13.893 12.3335 13.893 12.8758C13.893 13.4182 13.4569 13.8543 12.9145 13.8543Z" fill="#052460"/>
<path d="M12.915 8.70319C12.3726 8.70319 11.9365 8.26707 11.9365 7.72472V6.50582C11.9365 5.96346 12.3726 5.52734 12.915 5.52734C13.4574 5.52734 13.8935 5.96346 13.8935 6.50582V7.72472C13.8935 8.26707 13.4574 8.70319 12.915 8.70319Z" fill="#052460"/>
</svg>
