<svg width="43" height="41" viewBox="0 0 43 41" fill="none" xmlns="http://www.w3.org/2000/svg">
<path d="M19.9226 40.7234C14.7964 40.7234 9.99509 38.7079 6.40554 35.0475C2.8243 31.3955 0.904598 26.5567 1.00454 21.4222C0.996211 21.3639 1.00038 21.3056 1.0087 21.2306C1.30436 10.945 9.61198 2.87891 19.9226 2.87891C20.339 2.87891 20.6805 3.22037 20.6805 3.63679V20.8725L26.5812 23.675C34.5515 27.4603 36.8502 28.5555 36.8835 28.5722C37.0625 28.6721 37.1958 28.8512 37.2458 29.051C37.2957 29.2551 37.2583 29.4675 37.1417 29.6465C34.081 36.3717 27.3183 40.7234 19.9184 40.7234H19.9226ZM2.52448 22.1093C2.69105 31.5454 10.474 39.2076 19.9268 39.2076C26.4688 39.2076 32.5693 35.4348 35.4968 29.5882L19.7352 22.101L2.52448 22.1093ZM19.1647 20.5935V4.41134C10.2824 4.79445 3.16993 11.7237 2.56196 20.5935H19.1647Z" fill="#00AEEF" stroke="#00AEEF" stroke-width="0.33" stroke-miterlimit="10"/>
<path d="M36.5834 6.66751C32.9897 3.01132 28.1925 1 23.0746 1C22.6582 1 22.3168 1.34147 22.3168 1.75789V12.7764C22.314 17.3515 22.3279 19.664 22.3584 19.714C22.4209 19.9056 22.5583 20.0596 22.7373 20.1471C22.779 20.1679 39.3234 28.03 39.3484 28.0383C39.4525 28.0841 39.5566 28.1091 39.6691 28.1091C40.0105 28.1091 40.3104 27.8759 40.3936 27.5594C41.4097 25.2608 41.9469 22.8164 41.9969 20.2554C42.0843 15.1292 40.1646 10.3029 36.5875 6.65918L36.5834 6.66751ZM23.8325 2.5366C24.8736 2.5824 25.9063 2.71982 26.9141 2.94886L23.8325 6.03454V2.5366ZM23.8325 8.17495L28.5922 3.41525C29.3043 3.65261 30.0081 3.93994 30.6827 4.27308L23.8325 11.1232V8.17495ZM23.8325 13.272L32.0735 5.03097C32.6732 5.39742 33.2603 5.80135 33.8142 6.23859L23.8325 16.2202V13.272ZM23.8325 18.9936V18.3648L34.9677 7.22968C35.4757 7.70856 35.9587 8.2166 36.4043 8.74545L25.4066 19.7432L23.8325 18.9936ZM26.8641 20.4303L37.3413 9.95308C37.7494 10.5361 38.1241 11.1482 38.4614 11.7812L28.8671 21.3755L26.8682 20.4261L26.8641 20.4303ZM30.3162 22.0751L39.1485 13.2428C39.4442 13.9549 39.6982 14.6961 39.8981 15.4457L32.3192 23.0246L30.3204 22.0751H30.3162ZM39.2651 26.3226L37.2247 25.3524L40.327 22.25C40.1396 23.645 39.7857 25.0109 39.2651 26.3226ZM35.7714 24.6653L33.7725 23.7158L40.2729 17.2155C40.4145 18.1274 40.4853 19.0228 40.4853 19.9555L35.7755 24.6653H35.7714Z" fill="#052460" stroke="#052460" stroke-width="0.33" stroke-miterlimit="10"/>
</svg>
