<svg width="41" height="34" viewBox="0 0 41 34" fill="none" xmlns="http://www.w3.org/2000/svg">
<path d="M22.3316 25.1827C22.8448 25.1827 23.2608 24.7666 23.2608 24.2534C23.2608 23.7402 22.8448 23.3242 22.3316 23.3242C21.8184 23.3242 21.4023 23.7402 21.4023 24.2534C21.4023 24.7666 21.8184 25.1827 22.3316 25.1827Z" fill="#00AEEF"/>
<path d="M22.3317 25.2494C21.7851 25.2494 21.3379 24.8021 21.3379 24.2555C21.3379 23.7089 21.7851 23.2617 22.3317 23.2617C22.8783 23.2617 23.3255 23.7089 23.3255 24.2555C23.3255 24.8021 22.8783 25.2494 22.3317 25.2494ZM22.3317 23.3859C21.8547 23.3859 21.4621 23.7735 21.4621 24.2555C21.4621 24.7375 21.8497 25.1251 22.3317 25.1251C22.8137 25.1251 23.2013 24.7375 23.2013 24.2555C23.2013 23.7735 22.8137 23.3859 22.3317 23.3859Z" fill="#00AEEF"/>
<path d="M6.51515 30.7647C7.02835 30.7647 7.44437 30.3487 7.44437 29.8355C7.44437 29.3223 7.02835 28.9062 6.51515 28.9062C6.00196 28.9062 5.58594 29.3223 5.58594 29.8355C5.58594 30.3487 6.00196 30.7647 6.51515 30.7647Z" fill="#052460"/>
<path d="M38.1485 0.0635628H6.51528C4.93511 0.0635628 3.72266 1.27105 3.72266 2.85619V12.1583C3.72266 12.7149 4.09534 13.0875 4.65187 13.0875C5.20841 13.0875 5.58109 12.7149 5.58109 12.1583V2.85122C5.58109 2.29468 5.95377 1.922 6.51031 1.922H38.1435C38.7001 1.922 39.0727 2.29468 39.0727 2.85122V25.1823C39.0727 25.7388 38.7001 26.1115 38.1435 26.1115H15.8125C15.2559 26.1115 14.8832 26.4842 14.8832 27.0407C14.8832 27.5973 15.2559 27.97 15.8125 27.97H17.6709V30.7626C17.6709 31.3191 17.2982 31.6918 16.7417 31.6918H15.8125C15.2559 31.6918 14.8832 32.0645 14.8832 32.621C14.8832 33.1776 15.2559 33.5502 15.8125 33.5502H28.8364C29.3929 33.5502 29.7656 33.1776 29.7656 32.621C29.7656 32.0645 29.3929 31.6918 28.8364 31.6918H27.9072C27.3507 31.6918 26.978 31.3191 26.978 30.7626V27.97H38.1435C39.7237 27.97 40.9362 26.7625 40.9362 25.1773V2.85122C40.9362 1.27105 39.7287 0.0585938 38.1435 0.0585938L38.1485 0.0635628ZM19.3554 31.6968C19.4498 31.4185 19.5393 31.1402 19.5393 30.7676V27.9749H25.1195V30.7676C25.1195 31.1402 25.214 31.4185 25.3034 31.6968H19.3504H19.3554Z" fill="#00AEEF"/>
<path d="M28.8454 33.6208H15.8215C15.2301 33.6208 14.8276 33.2233 14.8276 32.627C14.8276 32.0307 15.2252 31.6332 15.8215 31.6332H16.7507C17.2774 31.6332 17.6203 31.2903 17.6203 30.7636V28.0356H15.8215C15.2301 28.0356 14.8276 27.6381 14.8276 27.0418C14.8276 26.4455 15.2252 26.048 15.8215 26.048H38.1525C38.6793 26.048 39.0221 25.7051 39.0221 25.1784V2.85226C39.0221 2.32553 38.6793 1.98267 38.1525 1.98267H6.51933C5.99261 1.98267 5.64974 2.32553 5.64974 2.85226V12.1544C5.64974 12.7457 5.25222 13.1482 4.65593 13.1482C4.05964 13.1482 3.66211 12.7507 3.66211 12.1544V2.85226C3.66211 1.22736 4.88947 0 6.51436 0H38.1476C39.7725 0 40.9998 1.22736 40.9998 2.85226V25.1833C40.9998 26.8082 39.7725 28.0356 38.1476 28.0356H27.0466V30.7636C27.0466 31.2903 27.3895 31.6332 27.9162 31.6332H28.8454C29.4368 31.6332 29.8393 32.0307 29.8393 32.627C29.8393 33.2233 29.4417 33.6208 28.8454 33.6208ZM15.8215 31.7574C15.2947 31.7574 14.9519 32.1003 14.9519 32.627C14.9519 33.1537 15.2947 33.4966 15.8215 33.4966H28.8454C29.3722 33.4966 29.715 33.1537 29.715 32.627C29.715 32.1003 29.3722 31.7574 28.8454 31.7574H27.9162C27.3199 31.7574 26.9224 31.3599 26.9224 30.7636V27.9114H38.1476C39.7029 27.9114 40.8756 26.7387 40.8756 25.1833V2.85226C40.8756 1.29693 39.7029 0.124227 38.1476 0.124227H6.51436C4.95904 0.124227 3.78634 1.29693 3.78634 2.85226V12.1544C3.78634 12.6811 4.1292 13.024 4.65593 13.024C5.18265 13.024 5.52552 12.6811 5.52552 12.1544V2.85226C5.52552 2.26093 5.92304 1.85844 6.51933 1.85844H38.1525C38.7439 1.85844 39.1463 2.25597 39.1463 2.85226V25.1833C39.1463 25.7747 38.7488 26.1771 38.1525 26.1771H15.8215C15.2947 26.1771 14.9519 26.52 14.9519 27.0467C14.9519 27.5735 15.2947 27.9163 15.8215 27.9163H17.7445V30.7686C17.7445 31.3649 17.347 31.7624 16.7507 31.7624H15.8215V31.7574ZM25.3969 31.7574H19.27L19.2998 31.673C19.3893 31.4046 19.4837 31.1264 19.4837 30.7636V27.9114H25.1882V30.7636C25.1882 31.1264 25.2826 31.4046 25.3721 31.673L25.4019 31.7574H25.3969ZM19.439 31.6332H25.223C25.1385 31.3798 25.059 31.1115 25.059 30.7636V28.0356H19.6029V30.7636C19.6029 31.1115 19.5234 31.3798 19.439 31.6332Z" fill="#00AEEF"/>
<path d="M16.4922 10.0946L18.9767 14.8153L29.1634 8.35547" stroke="#052460" stroke-width="4"/>
<path d="M36.2895 20.5312H15.8218C15.2653 20.5312 14.8926 20.9039 14.8926 21.4605C14.8926 22.017 15.2653 22.3897 15.8218 22.3897H36.2895C36.846 22.3897 37.2187 22.017 37.2187 21.4605C37.2187 20.9039 36.846 20.5312 36.2895 20.5312Z" fill="#00AEEF"/>
<path d="M36.2896 22.4564H15.8219C15.2306 22.4564 14.8281 22.0589 14.8281 21.4626C14.8281 20.8663 15.2257 20.4688 15.8219 20.4688H36.2896C36.8859 20.4688 37.2834 20.8663 37.2834 21.4626C37.2834 22.0589 36.8859 22.4564 36.2896 22.4564ZM15.8219 20.593C15.2952 20.593 14.9524 20.9358 14.9524 21.4626C14.9524 21.9893 15.2952 22.3322 15.8219 22.3322H36.2896C36.8163 22.3322 37.1592 21.9893 37.1592 21.4626C37.1592 20.9358 36.8163 20.593 36.2896 20.593H15.8219Z" fill="#00AEEF"/>
<path d="M10.2363 14.9453H2.79262C1.21245 14.9453 0 16.1528 0 17.7379V30.7619C0 32.3421 1.20749 33.5545 2.79262 33.5545H10.2363C11.8165 33.5545 13.0289 32.3471 13.0289 30.7619V17.7379C13.0289 16.1578 11.8214 14.9453 10.2363 14.9453ZM11.1655 30.7669C11.1655 31.3234 10.7928 31.6961 10.2363 31.6961H2.79262C2.23609 31.6961 1.86341 31.3234 1.86341 30.7669V17.7429C1.86341 17.1864 2.23609 16.8137 2.79262 16.8137H10.2363C10.7928 16.8137 11.1655 17.1864 11.1655 17.7429V30.7669Z" fill="#052460"/>
</svg>
