<svg width="40" height="37" viewBox="0 0 40 37" fill="none" xmlns="http://www.w3.org/2000/svg">
<path d="M37.6595 27.9682H2.34049C1.04676 27.9682 0 26.9156 0 25.6278V2.34049C0 1.04676 1.05264 0 2.34049 0H37.6595C38.9532 0 40 1.05264 40 2.34049V25.6278C40 26.9215 38.9474 27.9682 37.6595 27.9682ZM2.33461 2.33461V25.6278H37.6536V2.33461H2.32874H2.33461Z" fill="#00AEEF"/>
<path d="M24.9984 36.0925H14.9954C14.3486 36.0925 13.8252 35.5691 13.8252 34.9223V26.7952C13.8252 26.1484 14.3486 25.625 14.9954 25.625H24.9984C25.6452 25.625 26.1686 26.1484 26.1686 26.7952V34.9223C26.1686 35.5691 25.6452 36.0925 24.9984 36.0925ZM16.1657 33.752H23.834V27.9655H16.1657V33.752Z" fill="#00AEEF"/>
<path d="M32.5023 36.0944H7.49787C6.85101 36.0944 6.32764 35.571 6.32764 34.9242C6.32764 34.2773 6.85101 33.7539 7.49787 33.7539H32.5023C33.1492 33.7539 33.6725 34.2773 33.6725 34.9242C33.6725 35.571 33.1492 36.0944 32.5023 36.0944Z" fill="#00AEEF"/>
<path d="M8.30277 21.4196C9.53182 21.4138 10.5198 20.4082 10.508 19.1791C10.508 18.8381 10.4257 18.497 10.2669 18.1912L14.8597 14.0101C15.7771 14.5923 16.9826 14.4158 17.7 13.6043L21.6106 15.5214C21.3813 16.721 22.1693 17.8854 23.3689 18.1147C24.5686 18.3441 25.7329 17.5561 25.9623 16.3564C26.0564 15.8801 25.9858 15.3861 25.7682 14.951L30.4786 10.7405C31.5077 11.4108 32.8838 11.1168 33.5542 10.0877C34.2246 9.05859 33.9305 7.68251 32.9014 7.01212C31.8723 6.34173 30.4962 6.63577 29.8259 7.66488C29.3966 8.32351 29.3495 9.15857 29.6965 9.85836L24.9861 14.063C24.0687 13.4749 22.8514 13.6455 22.1281 14.4629L18.2175 12.5458C18.4469 11.3461 17.6588 10.1818 16.4533 9.95243C15.2478 9.72309 14.0893 10.5111 13.86 11.7166C13.7659 12.1988 13.8364 12.6987 14.0599 13.1339L9.46714 17.315C8.43215 16.6622 7.06196 16.9739 6.40921 18.0089C5.75646 19.0439 6.06815 20.4141 7.10314 21.0668C7.45597 21.2903 7.86761 21.4079 8.28513 21.4079L8.30277 21.4196ZM31.6782 7.82954C32.2545 7.83542 32.7191 8.31174 32.7074 8.88804C32.7015 9.45258 32.2428 9.91127 31.6782 9.91715C31.1019 9.91127 30.6374 9.43495 30.6491 8.85865C30.655 8.29411 31.1137 7.83542 31.6782 7.82954ZM23.7923 14.8863C24.3686 14.8922 24.8332 15.3685 24.8215 15.9448C24.8156 16.5093 24.3569 16.968 23.7923 16.9739C23.216 16.9739 22.7456 16.5034 22.7456 15.9271C22.7456 15.3508 23.216 14.8804 23.7923 14.8804V14.8863ZM16.0476 11.0992C16.6239 11.1109 17.0825 11.5814 17.0767 12.1577C17.0708 12.7222 16.6121 13.175 16.0476 13.1868C15.4713 13.1809 15.0126 12.7046 15.0184 12.1283C15.0243 11.5637 15.483 11.105 16.0476 11.0992ZM8.30277 18.1559C8.87907 18.1618 9.34364 18.6381 9.33188 19.2144C9.326 19.779 8.86731 20.2376 8.30277 20.2435C7.72647 20.2376 7.2619 19.7613 7.27366 19.185C7.27954 18.6205 7.73823 18.1618 8.30277 18.1559Z" fill="black"/>
<path d="M8.29711 21.7136C7.82078 21.7136 7.36209 21.5784 6.95632 21.3255C5.78608 20.5846 5.43325 19.0321 6.16832 17.8618C6.52704 17.2914 7.08569 16.8974 7.73844 16.7504C8.31474 16.6151 8.91457 16.6916 9.43795 16.9621L13.719 13.0632C13.5426 12.6222 13.4956 12.1341 13.5838 11.6636C13.7073 11.005 14.0836 10.4346 14.6364 10.0582C15.1892 9.68189 15.8596 9.54075 16.5182 9.67012C17.1768 9.79362 17.7473 10.17 18.1236 10.7227C18.4588 11.2108 18.6058 11.793 18.547 12.3811L22.0754 14.11C22.8516 13.369 24.0042 13.2103 24.9569 13.7101L29.3497 9.78772C29.0616 9.04089 29.1498 8.1882 29.5849 7.51193C30.3435 6.34756 31.9019 6.01826 33.0663 6.77098C33.6308 7.13558 34.0189 7.70011 34.1542 8.35874C34.2953 9.01737 34.1718 9.68776 33.8014 10.2523C33.0898 11.352 31.6549 11.7107 30.52 11.105L26.1271 15.0274C26.2977 15.4625 26.3447 15.9506 26.2565 16.4093C25.9978 17.7677 24.6805 18.6616 23.3221 18.4028C22.6635 18.2794 22.093 17.903 21.7167 17.3502C21.3815 16.8562 21.2345 16.2799 21.2933 15.6919L17.7649 13.963C16.9945 14.698 15.8478 14.8568 14.901 14.3746L10.6258 18.2676C10.7376 18.5557 10.8022 18.8674 10.8022 19.1791C10.814 20.5669 9.6908 21.7019 8.30297 21.7136H8.29711ZM8.30297 17.2796C7.66199 17.2796 7.03865 17.5972 6.67405 18.1794C6.10951 19.0791 6.38001 20.267 7.27386 20.8315C7.57966 21.0256 7.93839 21.1256 8.29711 21.1256C9.3615 21.1197 10.2201 20.2494 10.2142 19.185C10.2142 18.8909 10.1436 18.591 10.0084 18.3264L9.90839 18.1265L14.8305 13.6454L15.0187 13.763C15.8184 14.2688 16.8534 14.1217 17.4826 13.4102L17.6296 13.2397L21.9401 15.3508L21.899 15.5743C21.8049 16.08 21.9107 16.5916 22.1989 17.015C22.487 17.4384 22.9222 17.7266 23.4279 17.8207C23.9337 17.9206 24.4453 17.8089 24.8687 17.5266C25.2921 17.2385 25.5802 16.8033 25.6802 16.2976C25.7567 15.8859 25.6979 15.4508 25.5097 15.0803L25.4097 14.8803L30.4553 10.3758L30.6435 10.4993C31.0728 10.7816 31.5902 10.8756 32.096 10.7698C32.6017 10.6639 33.031 10.364 33.3133 9.93474C33.5955 9.50545 33.6896 8.98796 33.5838 8.48223C33.4779 7.97649 33.178 7.54722 32.7487 7.26495C32.3194 6.98268 31.8019 6.88858 31.2962 6.99443C30.7905 7.10028 30.3612 7.4002 30.0789 7.82949C29.7084 8.39403 29.6673 9.1291 29.9672 9.7348L30.0672 9.93474L25.0275 14.4393L24.8393 14.3158C24.0337 13.8042 22.9928 13.9453 22.3635 14.6628L22.2165 14.8333L17.906 12.7163L17.9472 12.4928C18.1471 11.4519 17.4591 10.4464 16.4182 10.2464C15.9125 10.1523 15.4009 10.2582 14.9775 10.5463C14.5541 10.8345 14.2659 11.2696 14.1718 11.7754C14.0954 12.1929 14.1542 12.6281 14.3483 13.0044L14.4482 13.2044L9.52615 17.6913L9.33797 17.5737C9.02042 17.3737 8.66758 17.2796 8.31475 17.2796H8.30297ZM8.30297 20.5375C7.55613 20.5257 6.96808 19.92 6.97397 19.1791C6.98573 18.4499 7.56203 17.8677 8.29711 17.8559H8.30297C9.03805 17.8677 9.63199 18.4734 9.62611 19.2085C9.61435 19.9436 9.03805 20.5199 8.30297 20.5316V20.5375ZM8.30297 18.4499C7.89721 18.4558 7.57378 18.7851 7.5679 19.1909C7.5679 19.6025 7.89134 19.9436 8.30886 19.9494C8.70874 19.9494 9.03806 19.6201 9.04394 19.2085C9.04394 18.7968 8.7205 18.4558 8.30886 18.4499H8.30297ZM23.7984 17.2738C23.0575 17.2738 22.4576 16.6739 22.4576 15.933C22.4576 15.192 23.0575 14.5922 23.7984 14.5922C24.5394 14.604 25.1274 15.2097 25.1216 15.9506C25.1098 16.6798 24.5335 17.262 23.7984 17.2738ZM23.7925 15.1803C23.3809 15.1803 23.0457 15.5155 23.0457 15.933C23.0457 16.3505 23.3809 16.6857 23.7984 16.6857C24.2042 16.6857 24.5276 16.3564 24.5335 15.9447C24.5335 15.5331 24.2101 15.192 23.7984 15.1861L23.7925 15.1803ZM16.0536 13.4808C15.3068 13.469 14.7129 12.8633 14.7246 12.1223C14.7364 11.3931 15.3127 10.8168 16.0419 10.8051H16.0536C16.7887 10.8168 17.3827 11.4284 17.3709 12.1635C17.3591 12.8927 16.7828 13.469 16.0536 13.4808ZM16.0478 11.3931C15.642 11.399 15.3186 11.7283 15.3127 12.1341C15.3068 12.5457 15.6361 12.8927 16.0536 12.8986C16.4535 12.8927 16.777 12.5693 16.7828 12.1576C16.7887 11.746 16.4594 11.4049 16.0478 11.3931ZM31.6843 10.217C31.3197 10.217 30.9845 10.07 30.7376 9.81125C30.4906 9.5525 30.3553 9.21731 30.3553 8.85859C30.3671 8.1294 30.9434 7.54722 31.6784 7.53545H31.6843C32.043 7.53545 32.3782 7.68247 32.6252 7.94122C32.8722 8.19997 33.0075 8.53516 33.0075 8.89388C32.9957 9.62895 32.4194 10.2053 31.6843 10.217ZM31.6784 8.12352C31.2727 8.1294 30.9434 8.45872 30.9434 8.86448C30.9434 9.27612 31.2727 9.61719 31.6843 9.62307C32.0901 9.62307 32.4135 9.29377 32.4194 8.88212C32.4194 8.68218 32.3489 8.494 32.2077 8.34698C32.0666 8.20585 31.8843 8.12351 31.6843 8.11763L31.6784 8.12352Z" fill="#052460"/>
</svg>
