<svg width="40" height="31" viewBox="0 0 40 31" fill="none" xmlns="http://www.w3.org/2000/svg">
<path d="M17.4943 24.7103C17.1692 24.5588 16.8262 24.4029 16.4698 24.3361V25.8862H7.83737C7.4053 25.8862 7.05787 26.2381 7.05787 26.6657V28.0644L1.95767 23.5299L7.05787 18.9954V20.3941C7.05787 20.8261 7.40976 21.1736 7.83737 21.1736H12.4743C12.1224 20.6658 11.7928 20.1446 11.481 19.6101H8.62133V17.2538C8.62133 16.5812 7.82399 16.2248 7.32065 16.6702L0.260577 22.9464C-0.0868591 23.2582 -0.0868591 23.8016 0.260577 24.1134L7.32065 30.3895C7.81954 30.835 8.62133 30.4831 8.62133 29.806V27.4497H17.2538C17.6859 27.4497 18.0333 27.0978 18.0333 26.6702V24.9642C17.8507 24.884 17.6725 24.7949 17.4943 24.7103Z" fill="#00AEEF"/>
<path d="M39.7356 6.47372L32.6755 0.197592C32.1721 -0.247839 31.3749 0.108506 31.3749 0.781107V3.13744H22.7424C22.3103 3.13744 21.9629 3.48933 21.9629 3.91694V5.72985C22.003 5.74321 22.0386 5.76549 22.0742 5.79221C22.0342 5.76103 22.1099 5.81894 22.1099 5.81894C22.1277 5.8323 22.141 5.84121 22.1589 5.85457C22.1989 5.8813 22.2346 5.90357 22.2747 5.92584C22.3459 5.96593 22.4528 6.01493 22.5018 6.0372C22.5464 6.05502 22.6667 6.09956 22.7424 6.12629C22.827 6.15747 22.9116 6.18419 23.0007 6.21092C23.1744 6.26437 23.3526 6.31782 23.5263 6.38018V4.7009H32.1588C32.5909 4.7009 32.9383 4.34901 32.9383 3.9214V2.52274L38.0385 7.05724L32.9383 11.5917V10.1931C32.9383 9.761 32.5864 9.41357 32.1588 9.41357H27.9005C28.2078 9.88127 28.3815 10.4381 28.5597 10.977H31.3793V13.3334C31.3793 14.006 32.1811 14.3623 32.6799 13.9169L39.74 7.64075C40.0875 7.32895 40.0875 6.78552 39.74 6.47372H39.7356Z" fill="#00AEEF"/>
<path d="M20.0861 21.366C19.6541 21.366 19.3066 21.0185 19.3066 20.5865V19.6154C19.3066 19.1834 19.6541 18.8359 20.0861 18.8359C20.5182 18.8359 20.8657 19.1834 20.8657 19.6154V20.5865C20.8657 21.0185 20.5182 21.366 20.0861 21.366Z" fill="#052460"/>
<path d="M20.0859 25.7577C14.4333 25.7577 9.83203 21.1564 9.83203 15.5038C9.83203 9.85131 14.4333 5.25 20.0859 5.25C25.7384 5.25 30.3397 9.85131 30.3397 15.5038C30.3397 21.1564 25.7384 25.7577 20.0859 25.7577ZM20.0859 6.81346C15.293 6.81346 11.391 10.711 11.391 15.5083C11.391 20.3056 15.2886 24.2031 20.0859 24.2031C24.8832 24.2031 28.7807 20.3056 28.7807 15.5083C28.7807 10.711 24.8832 6.81346 20.0859 6.81346Z" fill="#052460"/>
<path d="M20.0853 20.3964C18.406 20.3964 17.043 19.1269 17.043 17.5634C17.043 17.1313 17.3904 16.7839 17.8225 16.7839C18.2545 16.7839 18.602 17.1313 18.602 17.5634C18.602 18.2672 19.2657 18.8373 20.0853 18.8373C20.9049 18.8373 21.5686 18.2672 21.5686 17.5634C21.5686 16.8596 20.9049 16.2895 20.0853 16.2895C19.6532 16.2895 19.3058 15.942 19.3058 15.51C19.3058 15.0779 19.6532 14.7305 20.0853 14.7305C21.7645 14.7305 23.1276 15.9999 23.1276 17.5634C23.1276 19.1269 21.7645 20.3964 20.0853 20.3964Z" fill="#052460"/>
<path d="M20.0853 16.287C18.406 16.287 17.043 15.0175 17.043 13.454C17.043 11.8906 18.406 10.6211 20.0853 10.6211C21.7645 10.6211 23.1276 11.8906 23.1276 13.454C23.1276 13.8861 22.7801 14.2335 22.3481 14.2335C21.916 14.2335 21.5686 13.8861 21.5686 13.454C21.5686 12.7503 20.9049 12.1801 20.0853 12.1801C19.2657 12.1801 18.602 12.7503 18.602 13.454C18.602 14.1578 19.2657 14.728 20.0853 14.728C20.5173 14.728 20.8648 15.0754 20.8648 15.5075C20.8648 15.9395 20.5173 16.287 20.0853 16.287Z" fill="#052460"/>
<path d="M20.0861 12.1824C19.6541 12.1824 19.3066 11.835 19.3066 11.4029V10.4318C19.3066 9.99978 19.6541 9.65234 20.0861 9.65234C20.5182 9.65234 20.8657 9.99978 20.8657 10.4318V11.4029C20.8657 11.835 20.5182 12.1824 20.0861 12.1824Z" fill="#052460"/>
</svg>
