<svg width="40" height="40" viewBox="0 0 40 40" fill="none" xmlns="http://www.w3.org/2000/svg">
<path d="M37.6595 31.6167H2.34049C1.04676 31.6167 0 30.5641 0 29.2762V5.98893C0 4.69519 1.05264 3.64844 2.34049 3.64844H9.80888C10.4557 3.64844 10.9791 4.17181 10.9791 4.81868C10.9791 5.46555 10.4557 5.98893 9.80888 5.98893H2.34049V29.2821H37.6595V5.98893H30.2676C29.6207 5.98893 29.0973 5.46555 29.0973 4.81868C29.0973 4.17181 29.6207 3.64844 30.2676 3.64844H37.6595C38.9533 3.64844 40 4.70107 40 5.98893V29.2762C40 30.5699 38.9474 31.6167 37.6595 31.6167Z" fill="#00AEEF"/>
<path d="M24.9994 39.7409H14.9964C14.3495 39.7409 13.8262 39.2176 13.8262 38.5707V30.4437C13.8262 29.7968 14.3495 29.2734 14.9964 29.2734H24.9994C25.6462 29.2734 26.1696 29.7968 26.1696 30.4437V38.5707C26.1696 39.2176 25.6462 39.7409 24.9994 39.7409ZM16.1666 37.4063H23.8291V31.6139H16.1666V37.4063Z" fill="#00AEEF"/>
<path d="M32.5008 39.7428H7.49641C6.84954 39.7428 6.32617 39.2195 6.32617 38.5726C6.32617 37.9257 6.84954 37.4023 7.49641 37.4023H32.5008C33.1477 37.4023 33.6711 37.9257 33.6711 38.5726C33.6711 39.2195 33.1477 39.7428 32.5008 39.7428Z" fill="#00AEEF"/>
<path d="M27.0814 25.8277H12.915C10.9861 25.8277 9.41602 24.2576 9.41602 22.3287V3.49897C9.41602 1.57013 10.9861 0 12.915 0H27.0814C29.0103 0 30.5804 1.57013 30.5804 3.49897V22.3287C30.5804 24.2576 29.0103 25.8277 27.0814 25.8277ZM12.915 1.55248C11.8388 1.55248 10.9685 2.4287 10.9626 3.50485V22.3346C10.9626 23.4108 11.8388 24.2811 12.915 24.287H27.0814C28.1576 24.287 29.0279 23.4108 29.0338 22.3346V3.49897C29.0338 2.42282 28.1576 1.55248 27.0814 1.5466H12.915V1.55248Z" fill="#052460"/>
<path d="M22.66 13.3623H17.3381C16.2443 13.3623 15.3563 12.4743 15.3563 11.3805C15.3857 11.257 15.027 8.56954 17.5615 7.01118C17.9261 6.78771 18.3966 6.89356 18.6259 7.25816C19.1081 8.01676 20.1137 8.24611 20.8723 7.7639C21.0781 7.63452 21.2487 7.46398 21.378 7.25816C21.6074 6.89944 22.0837 6.78771 22.4424 7.01118C23.8185 7.85211 24.6535 9.35167 24.6477 10.963V11.3805C24.6477 12.4743 23.7538 13.3623 22.66 13.3623ZM17.8555 8.72832C16.6971 9.83388 16.9382 11.1923 16.9088 11.3746C16.9088 11.6157 17.1028 11.8039 17.3439 11.8039H22.6659C22.907 11.8039 23.1011 11.6098 23.1011 11.3746V10.9571C23.1011 10.1161 22.76 9.3105 22.1543 8.72832C20.937 9.83388 19.0787 9.83388 17.8673 8.72832H17.8555Z" fill="#052460"/>
<path d="M17.3142 8.07983C17.0907 7.71523 17.2025 7.2389 17.5671 7.01544C17.9258 6.79198 18.3962 6.89783 18.6256 7.25066C19.1078 8.00926 20.1134 8.23861 20.872 7.7564C21.0778 7.62702 21.2483 7.45649 21.3777 7.25066C21.6012 6.88607 22.0775 6.77433 22.4421 6.9978C22.8067 7.22126 22.9184 7.69759 22.695 8.06219C22.695 8.06219 22.6891 8.07395 22.6832 8.07983C21.7423 9.56175 19.7782 10.0028 18.2963 9.0619C17.8964 8.80903 17.5612 8.47383 17.3142 8.07983Z" fill="#052460"/>
<path d="M21.612 8.32124C21.2532 8.0919 21.1474 7.61557 21.3709 7.25685C21.8531 6.49825 21.6237 5.49266 20.8651 5.01045C20.1065 4.52824 19.1009 4.75758 18.6187 5.51618C18.2835 6.04544 18.2835 6.72171 18.6187 7.25685C18.854 7.61557 18.7481 8.09778 18.3894 8.32712C18.0307 8.56235 17.5485 8.4565 17.3191 8.09778C17.3191 8.09778 17.3132 8.08602 17.3073 8.08014C16.3664 6.59822 16.8075 4.63409 18.2894 3.69319C18.801 3.36976 19.3891 3.19922 19.9948 3.19922C22.5117 3.19922 24.0054 5.99251 22.6822 8.08014C22.5352 8.31536 21.9766 8.55059 21.612 8.32124Z" fill="#052460"/>
<path d="M26.257 16.6736H13.7372C13.3079 16.6736 12.9609 16.3266 12.9609 15.8973C12.9609 15.4681 13.3079 15.1211 13.7372 15.1211H26.257C26.6863 15.1211 27.0333 15.4681 27.0333 15.8973C27.0333 16.3266 26.6863 16.6736 26.257 16.6736Z" fill="#052460"/>
<path d="M26.257 19.6462H13.7372C13.3079 19.6462 12.9609 19.2993 12.9609 18.87C12.9609 18.4407 13.3079 18.0938 13.7372 18.0938H26.257C26.6863 18.0938 27.0333 18.4407 27.0333 18.87C27.0333 19.2993 26.6863 19.6462 26.257 19.6462Z" fill="#052460"/>
<path d="M26.257 22.6228H13.7372C13.3079 22.6228 12.9609 22.2758 12.9609 21.8466C12.9609 21.4173 13.3079 21.0703 13.7372 21.0703H26.257C26.6863 21.0703 27.0333 21.4173 27.0333 21.8466C27.0333 22.2758 26.6863 22.6228 26.257 22.6228Z" fill="#052460"/>
</svg>
