<svg width="40" height="40" viewBox="0 0 40 40" fill="none" xmlns="http://www.w3.org/2000/svg">
<path d="M39.0881 39.6593C38.7573 39.6593 38.4841 39.3957 38.4745 39.0601C38.3259 34.1609 38.0191 26.1265 37.8225 25.3643L37.7602 25.1294C37.5157 24.2042 37.2904 23.3173 36.6529 22.9434C35.7612 22.4257 32.4631 20.7862 32.4295 20.7862C32.1227 20.6376 31.9933 20.2685 32.1467 19.9569C32.2953 19.6501 32.6644 19.5207 32.976 19.6741C33.115 19.7412 36.3461 21.3375 37.2856 21.8744C38.3642 22.488 38.6806 23.72 38.9635 24.813L39.0258 25.0431C39.3326 26.1696 39.6777 37.7035 39.7209 39.017C39.7305 39.3573 39.462 39.6401 39.1217 39.6497H39.0929L39.0881 39.6593Z" fill="#00AEEF"/>
<path d="M39.0878 39.9447C38.5988 39.9447 38.2009 39.5612 38.1865 39.0722C38.0283 33.8326 37.7263 26.1434 37.5442 25.4387L37.4819 25.2038C37.247 24.3122 37.0312 23.502 36.5087 23.1952C35.665 22.7063 32.5634 21.1627 32.3333 21.062C32.3237 21.062 32.3142 21.0524 32.3046 21.0476C31.8587 20.8271 31.6718 20.2854 31.8875 19.8396C32.108 19.389 32.6449 19.2068 33.0955 19.4225C33.1291 19.4369 36.456 21.0812 37.4243 21.6325C38.6036 22.3036 38.9392 23.5979 39.2364 24.734L39.2987 24.9737C39.5815 26.0044 39.8835 35.0886 39.9986 38.9476V39.0147C40.0082 39.2544 39.9219 39.4845 39.7541 39.657C39.5863 39.8296 39.3658 39.9303 39.1261 39.9399H39.0878V39.9447ZM32.5491 20.5443C33.2681 20.8319 36.758 22.6823 36.7963 22.7015C37.525 23.1281 37.7695 24.0485 38.0235 25.0264L38.0955 25.2949C38.3256 26.1817 38.6515 35.5296 38.757 39.053C38.7618 39.2304 38.9008 39.3694 39.0782 39.3742H39.0926C39.2028 39.3694 39.2843 39.3311 39.3466 39.2687C39.4089 39.2064 39.4377 39.1201 39.4377 39.0291V38.962C39.1932 30.9707 38.9392 25.7982 38.757 25.1223L38.6947 24.8874C38.4118 23.7944 38.1194 22.6775 37.1511 22.1214C36.1971 21.5749 32.8846 19.945 32.8558 19.9259C32.6929 19.8492 32.4915 19.9163 32.41 20.0793C32.3717 20.1608 32.3669 20.2518 32.3956 20.3333C32.4244 20.4196 32.4867 20.4867 32.5634 20.5251V20.5347L32.5491 20.5443Z" fill="#00AEEF"/>
<path d="M33.0578 39.7035C32.9668 39.7035 32.8757 39.6843 32.7894 39.6412C32.0128 39.2385 31.3273 38.6776 30.7712 38.0017C29.9515 36.9663 29.6207 35.9212 29.3714 34.6653C29.2851 34.0852 29.2612 33.5004 29.2947 32.9107C29.3139 32.1725 29.3331 31.4055 29.1174 30.9884C28.9304 30.6289 28.149 29.2531 27.3197 27.8006L26.0685 25.6002C24.8365 23.4238 24.2229 22.3309 24.0599 21.933C23.7292 21.2858 23.7052 20.5236 23.9976 19.8621C24.2852 19.306 24.7646 18.8793 25.3447 18.6492C25.9343 18.3952 27.1088 18.189 28.3791 19.7278L34.3282 26.9137L33.3838 27.6903L27.4299 20.5092C26.5623 19.4594 26.0206 19.6991 25.8384 19.7758C25.5316 19.8908 25.2775 20.1065 25.1098 20.3894C24.9803 20.7345 25.0091 21.118 25.1864 21.4392C25.407 21.9426 26.7061 24.234 27.1375 24.9914L28.3887 27.187C29.2612 28.7258 30.0186 30.0393 30.2151 30.4276C30.5699 31.1274 30.5459 32.0478 30.5219 32.9395C30.4884 33.4332 30.5076 33.9318 30.5747 34.4256C30.7952 35.5329 31.0636 36.391 31.73 37.2299C32.171 37.762 32.7127 38.2031 33.3215 38.5242C33.6283 38.6728 33.7577 39.042 33.6091 39.3488C33.5084 39.5597 33.2927 39.6939 33.053 39.6939L33.0578 39.7035Z" fill="#00AEEF"/>
<path d="M33.0579 39.9851H33.0484C32.9141 39.9851 32.7847 39.9515 32.6648 39.894C31.8403 39.4674 31.1308 38.8921 30.5508 38.1778C29.6927 37.0944 29.3476 36.0111 29.0935 34.7167C29.0024 34.1031 28.9736 33.4943 29.012 32.8903C29.0264 32.2288 29.0455 31.4714 28.8634 31.1166C28.6764 30.7523 27.8519 29.3094 27.0705 27.9383L25.8145 25.738C24.5346 23.4753 23.9546 22.4399 23.7916 22.0372C23.432 21.3325 23.4033 20.4888 23.734 19.741C24.06 19.1082 24.5921 18.6336 25.2345 18.3795C25.8864 18.0967 27.2047 17.8618 28.5901 19.5397L34.5392 26.7255C34.5872 26.783 34.6111 26.8597 34.6015 26.9316C34.5919 27.0083 34.5584 27.0755 34.5009 27.1234L33.5565 27.9C33.4367 28.0007 33.2593 27.9815 33.1586 27.8616L27.2047 20.6806C26.4761 19.7985 26.0782 19.9711 25.9488 20.0238C25.6899 20.1245 25.4838 20.2971 25.3543 20.5224C25.2728 20.7477 25.2968 21.0401 25.4358 21.2894C25.6611 21.7975 26.9459 24.0698 27.3677 24.8128L29.2469 28.1109C29.8413 29.156 30.3159 29.9853 30.4645 30.2825C30.8576 31.0543 30.8288 32.0514 30.8049 32.9335C30.7761 33.4224 30.7905 33.9018 30.8528 34.3716C31.0589 35.4214 31.3178 36.246 31.9506 37.0369C32.3676 37.5403 32.871 37.9525 33.4558 38.2593C33.6619 38.36 33.8249 38.5422 33.9064 38.7675C33.9879 38.9928 33.9736 39.2373 33.8681 39.4578C33.7195 39.7646 33.4079 39.9611 33.0675 39.9659H33.0627L33.0579 39.9851ZM26.1885 18.7535C25.9104 18.7535 25.6659 18.8206 25.455 18.9117C24.9277 19.1178 24.5058 19.5013 24.247 19.9951C23.9977 20.5703 24.0169 21.2366 24.3093 21.8071C24.4771 22.2194 25.1818 23.4657 26.3131 25.46L27.5643 27.6555C28.3888 29.0984 29.1798 30.4838 29.3667 30.853C29.616 31.3371 29.5968 32.1377 29.5777 32.9095C29.5441 33.4847 29.5681 34.0552 29.6496 34.6113C29.8845 35.8097 30.2056 36.8212 30.987 37.8135C31.5191 38.4607 32.1663 38.9928 32.9141 39.3811C32.9525 39.4003 33.0004 39.4099 33.0484 39.4099C33.173 39.4099 33.288 39.3332 33.3456 39.2229C33.4271 39.0599 33.3552 38.8586 33.1922 38.7819C32.5354 38.4367 31.9745 37.9765 31.5048 37.4109C30.8001 36.524 30.5172 35.6323 30.2919 34.477C30.22 33.9497 30.2008 33.432 30.2344 32.9191C30.2584 32.0754 30.2823 31.1933 29.9564 30.551C29.8126 30.2633 29.3428 29.4436 28.7483 28.4033L26.8836 25.1292C26.1309 23.7965 25.1242 22.0132 24.9229 21.553C24.7168 21.1839 24.6784 20.7141 24.8414 20.2875C25.0571 19.9088 25.3687 19.6451 25.733 19.5061C26.3467 19.2472 26.9746 19.5109 27.6458 20.3258L33.4175 27.2864L33.9208 26.8693L28.1539 19.904C27.4252 19.0219 26.7445 18.7487 26.1837 18.7487L26.1885 18.7535Z" fill="#00AEEF"/>
<path d="M27.267 37.1644C27.0657 37.1644 26.8691 37.1405 26.6726 37.0925L15.4504 34.384C14.0841 34.0533 13.2452 32.6775 13.576 31.3112C13.576 31.3112 13.576 31.3064 13.576 31.3016L19.6689 6.04801C19.9997 4.68179 21.3803 3.84288 22.7465 4.17365L33.9687 6.88213C35.3349 7.2129 36.1739 8.58871 35.8431 9.95494C35.8431 9.95494 35.8431 9.95974 35.8431 9.96454L32.2478 24.7773C32.1663 25.1081 31.8355 25.3094 31.5047 25.2327C31.174 25.156 30.9726 24.8204 31.0493 24.4897L34.6255 9.68649C34.7932 8.9866 34.3618 8.28191 33.6619 8.10933L22.4589 5.40085C21.759 5.23307 21.0543 5.66451 20.8817 6.36441L14.7888 31.618C14.621 32.3179 15.0525 33.0226 15.7524 33.1952L26.9746 35.9037C27.6745 36.0714 28.3792 35.6448 28.5518 34.9401L29.3235 31.6468C29.3859 31.3112 29.7071 31.0907 30.0378 31.153C30.3734 31.2153 30.5939 31.5365 30.5316 31.8673C30.5316 31.8865 30.522 31.9057 30.5172 31.9248L29.7454 35.223C29.4674 36.3687 28.4415 37.1692 27.2622 37.1644H27.267Z" fill="#00AEEF"/>
<path d="M27.2771 37.454C27.0518 37.454 26.8265 37.43 26.606 37.3773L15.3838 34.6688C13.8689 34.3045 12.9341 32.7705 13.2985 31.2556L19.3914 5.99242C19.7605 4.47279 21.2945 3.5428 22.8093 3.90713C22.8093 3.90713 22.8141 3.90713 22.8189 3.90713L34.0316 6.61561C34.765 6.79298 35.3882 7.24359 35.7813 7.89075C36.1744 8.53312 36.2942 9.29533 36.1168 10.0288L32.5215 24.8511C32.464 25.086 32.3202 25.2826 32.114 25.4072C31.9079 25.5319 31.6634 25.5702 31.4333 25.5127C30.9491 25.3976 30.6519 24.9087 30.7718 24.4245L34.3479 9.62131C34.4774 9.07482 34.137 8.52354 33.5905 8.38931L22.3875 5.68083C21.841 5.5514 21.2897 5.89175 21.1555 6.43824L15.0626 31.6919C14.9331 32.2383 15.2687 32.7944 15.8152 32.9287L27.0326 35.6371C27.5743 35.7666 28.1304 35.4358 28.2646 34.8893C28.2646 34.8893 28.2646 34.8893 28.2646 34.8845L29.0364 31.5912C29.0748 31.3707 29.209 31.1645 29.4056 31.0255C29.6021 30.8865 29.8418 30.8386 30.0815 30.8817C30.3164 30.9249 30.5225 31.0591 30.6615 31.2556C30.8005 31.4522 30.8485 31.6919 30.8053 31.9315C30.8005 31.9603 30.791 31.9891 30.7862 32.0178L30.0144 35.3016C29.7028 36.5767 28.5714 37.4636 27.2627 37.4636L27.2771 37.454ZM22.1478 4.39609C21.1267 4.39609 20.2015 5.09119 19.9474 6.12665L13.8545 31.3803C13.5573 32.6027 14.3052 33.8251 15.518 34.1175L26.7354 36.826C26.908 36.8691 27.0854 36.8883 27.2627 36.8883C27.2627 36.8883 27.2675 36.8883 27.2723 36.8883C28.3174 36.8883 29.2234 36.1788 29.4679 35.1626L30.2397 31.8644C30.2684 31.7302 30.2493 31.6439 30.1965 31.572C30.1438 31.5001 30.0719 31.4522 29.9808 31.433C29.8945 31.4186 29.8034 31.433 29.7315 31.4857C29.6596 31.5385 29.6117 31.6104 29.5925 31.7015L28.8159 35.0044C28.8159 35.0044 28.8159 35.0092 28.8159 35.014C28.6098 35.8672 27.7469 36.3946 26.8984 36.1836L15.681 33.4751C14.8277 33.269 14.3052 32.4061 14.5065 31.5576L20.5994 6.30401C20.8055 5.45552 21.6684 4.92821 22.5169 5.12955L33.7248 7.83803C34.5733 8.04416 35.1006 8.90704 34.8992 9.75554L31.3231 24.5635C31.2799 24.7409 31.3902 24.923 31.5676 24.9662C31.6538 24.9854 31.7449 24.971 31.8168 24.9278C31.8935 24.8799 31.9463 24.808 31.9654 24.7217L35.5608 9.90893C35.7046 9.3145 35.6087 8.7057 35.2971 8.19276C34.9807 7.67983 34.487 7.3155 33.8973 7.17648L22.6799 4.468C22.6799 4.468 22.6751 4.468 22.6703 4.468C22.4929 4.42486 22.3156 4.40568 22.143 4.40568L22.1478 4.39609Z" fill="#00AEEF"/>
<path d="M19.333 8.6086L19.6206 7.41016L35.2819 11.1972L34.9943 12.3957L19.333 8.6086Z" fill="#00AEEF"/>
<path d="M34.9946 12.6792C34.9946 12.6792 34.9515 12.6792 34.9275 12.6696L19.2663 8.88255C19.1944 8.86338 19.132 8.82024 19.0889 8.75313C19.0505 8.69081 19.0362 8.6141 19.0553 8.5374L19.343 7.33896C19.3813 7.18556 19.5299 7.09447 19.6881 7.12803L35.3494 10.9151C35.5028 10.9535 35.5939 11.1069 35.5603 11.2603L35.2727 12.4587C35.2535 12.5306 35.2104 12.5929 35.1432 12.6361C35.1001 12.6648 35.0474 12.6792 34.9946 12.6792ZM19.6737 8.39838L34.7789 12.0512L34.9371 11.4089L19.8319 7.75601L19.6737 8.39838Z" fill="#00AEEF"/>
<path d="M14.5869 30.2375L14.8745 29.0391L30.09 32.7159L29.8024 33.9143L14.5869 30.2375Z" fill="#00AEEF"/>
<path d="M29.8032 34.1955C29.8032 34.1955 29.76 34.1955 29.7361 34.1859L14.5206 30.5091C14.3672 30.4707 14.2761 30.3173 14.3097 30.1639L14.5973 28.9655C14.6165 28.8936 14.6596 28.8312 14.7267 28.7881C14.7938 28.7497 14.8705 28.7354 14.9425 28.7546L30.1579 32.4314C30.2298 32.4505 30.2921 32.4937 30.3353 32.5608C30.3736 32.6231 30.388 32.6998 30.3688 32.7765L30.0812 33.975C30.0476 34.1044 29.9326 34.1907 29.8032 34.1907V34.1955ZM14.9329 30.0249L29.5922 33.5675L29.7504 32.9251L15.0911 29.3825L14.9329 30.0249Z" fill="#00AEEF"/>
<path d="M29.2699 9.00817C29.222 9.00817 29.174 9.00339 29.1261 8.98901L26.0868 8.25556C25.7513 8.17407 25.5499 7.83849 25.6266 7.50772C25.7081 7.17215 26.0437 6.97082 26.3744 7.04752L29.4137 7.78097C29.7445 7.86246 29.9458 8.19802 29.8595 8.52879C29.7924 8.80204 29.5479 8.99379 29.2651 8.99379V9.00817H29.2699Z" fill="#00AEEF"/>
<path d="M29.2656 9.29296C29.2033 9.30255 29.1218 9.28338 29.0547 9.2642L26.0154 8.53075C25.7805 8.47323 25.584 8.32943 25.4546 8.12329C25.3299 7.91716 25.2916 7.67267 25.3443 7.43777C25.4594 6.9536 25.9531 6.6516 26.4373 6.76665L29.4765 7.50009C29.9607 7.61994 30.2531 8.1089 30.1333 8.59307C30.0422 8.9622 29.7306 9.23065 29.3567 9.269C29.3279 9.27859 29.2944 9.28818 29.2656 9.28818V9.29296ZM26.2264 7.31793C26.073 7.31793 25.9339 7.4234 25.9004 7.5768C25.8812 7.66308 25.8956 7.75417 25.9387 7.83087C25.9867 7.90757 26.0586 7.9603 26.1449 7.97947L29.1841 8.71292C29.1841 8.71292 29.1985 8.71292 29.2033 8.71292C29.2225 8.71292 29.2416 8.70812 29.2608 8.70812C29.4094 8.70812 29.5436 8.60266 29.582 8.45885C29.6251 8.28148 29.5197 8.09932 29.3423 8.05617L26.3079 7.32273C26.2839 7.31793 26.2551 7.31314 26.2312 7.31314L26.2264 7.31793Z" fill="#00AEEF"/>
<path d="M21.658 32.7839C21.3943 32.7839 21.1738 32.9948 21.1738 33.2585C21.1738 33.4838 21.3272 33.6804 21.5477 33.7331C21.5861 33.7331 21.6197 33.7331 21.658 33.7331C21.8785 33.7331 22.0751 33.5797 22.1278 33.364C22.1901 33.1051 22.0319 32.8462 21.7731 32.7839C21.7347 32.7743 21.6964 32.7695 21.658 32.7695V32.7839Z" fill="#00AEEF"/>
<path d="M21.6011 34.0229C21.5723 34.0229 21.5435 34.0229 21.51 34.0181C21.1313 33.9318 20.882 33.6154 20.8868 33.2559C20.8916 32.8772 21.1744 32.5608 21.5435 32.508C21.6346 32.4697 21.7449 32.4841 21.8408 32.508C22.0373 32.556 22.2051 32.6806 22.3105 32.8532C22.416 33.0258 22.4496 33.2319 22.4016 33.4332C22.3201 33.7784 22.0133 34.0181 21.6586 34.0181C21.6442 34.0181 21.625 34.0181 21.6059 34.0181L21.6011 34.0229ZM21.6538 33.0737C21.5483 33.0737 21.4572 33.16 21.4572 33.2703C21.4572 33.3613 21.5196 33.4428 21.6107 33.462C21.7497 33.4524 21.8264 33.3901 21.8503 33.3038C21.8647 33.2511 21.8503 33.1983 21.8264 33.1552C21.8024 33.1121 21.7641 33.0833 21.7161 33.0689C21.6969 33.0689 21.6778 33.0689 21.6586 33.0737H21.6538Z" fill="#00AEEF"/>
<path d="M13.9886 23.7812H13.9263L13.4757 23.7285C5.8296 22.7602 0.283203 17.8753 0.283203 12.0844C0.283203 5.57447 7.38758 0.277344 16.1218 0.277344C19.837 0.277344 23.4515 1.25528 26.2846 3.02898C26.5675 3.21594 26.6442 3.59944 26.4572 3.88227C26.2751 4.15552 25.9155 4.23701 25.6327 4.07402C22.9913 2.43455 19.6117 1.50935 16.1218 1.50935C8.07309 1.50935 1.5152 6.25039 1.5152 12.0844C1.5152 17.2473 6.61099 21.6336 13.6243 22.5013L14.0461 22.5492C14.3865 22.5684 14.6502 22.856 14.631 23.1964C14.6118 23.5368 14.3242 23.8004 13.9838 23.7812H13.9886Z" fill="#052460"/>
<path d="M14.017 24.0696C13.993 24.0696 13.9643 24.0696 13.9451 24.0696H13.9259L13.4418 24.0168C5.65187 23.0341 0 18.015 0 12.0899C0 5.42176 7.23381 0 16.1215 0C19.8942 0 23.5566 0.992306 26.4377 2.79477C26.6438 2.93379 26.7828 3.13513 26.826 3.37002C26.8739 3.60492 26.826 3.84461 26.6918 4.04595C26.4281 4.44383 25.9008 4.56367 25.4885 4.32398C22.8663 2.6941 19.5394 1.80246 16.1215 1.80246C8.22612 1.80246 1.80246 6.41887 1.80246 12.0899C1.80246 17.109 6.79278 21.3707 13.6623 22.2287L14.0841 22.2767C14.5635 22.3007 14.947 22.7225 14.923 23.2211C14.8991 23.7004 14.5012 24.0791 14.0218 24.0791L14.017 24.0696ZM13.9882 23.4943C13.9882 23.4943 14.017 23.4943 14.0314 23.4943C14.1992 23.4847 14.3382 23.3505 14.3478 23.1779C14.3574 22.9958 14.2136 22.8376 14.0314 22.828L13.5904 22.7752C6.42846 21.8836 1.22721 17.387 1.22721 12.0755C1.22721 6.0881 7.90494 1.21762 16.1167 1.21762C19.6401 1.21762 23.0725 2.14282 25.7761 3.82064C25.92 3.90693 26.1165 3.85899 26.2124 3.71518C26.2603 3.64327 26.2795 3.55219 26.2603 3.46591C26.2411 3.37962 26.1932 3.30292 26.1213 3.25498C23.3409 1.51484 19.7839 0.551282 16.1167 0.551282C7.54062 0.551282 0.56567 5.71897 0.56567 12.0707C0.56567 17.7082 6.00661 22.4828 13.5089 23.432L13.9547 23.4847H13.9882V23.4943Z" fill="#052460"/>
<path d="M5.4264 14.7177C5.08604 14.7177 4.81279 14.4396 4.81279 14.0993C4.81279 13.9746 4.85114 13.85 4.92305 13.7493C5.64691 12.7187 5.64691 11.3429 4.92305 10.3074C4.71691 10.0342 4.77444 9.65066 5.04289 9.44453C5.31614 9.2384 5.69964 9.29592 5.90577 9.56438C5.91536 9.57396 5.92016 9.58833 5.92974 9.59792C6.95561 11.0552 6.95561 13.0015 5.92974 14.4588C5.81469 14.6218 5.62294 14.7177 5.4264 14.7177Z" fill="#052460"/>
<path d="M5.42666 15.0057H5.42187C5.18218 15.0057 4.95687 14.9099 4.78908 14.7421C4.6213 14.5695 4.52542 14.3442 4.52542 14.1045C4.52542 13.9175 4.58295 13.7402 4.68842 13.5916C5.34517 12.6616 5.34517 11.4104 4.68842 10.4804C4.5494 10.2982 4.48708 10.0586 4.52063 9.81886C4.55419 9.57917 4.67883 9.36824 4.87058 9.22443C5.06233 9.08061 5.29722 9.0183 5.53691 9.05186C5.7766 9.08541 5.98753 9.21004 6.13134 9.40179C6.13134 9.40179 6.1601 9.44494 6.16489 9.44973C7.25308 10.9933 7.25308 13.0786 6.16489 14.6318C5.99711 14.8715 5.72387 15.0105 5.43145 15.0105L5.42666 15.0057ZM5.41228 9.60794C5.34037 9.60794 5.27325 9.6319 5.21573 9.67504C5.14382 9.72777 5.10068 9.80447 5.08629 9.89555C5.07191 9.98184 5.09588 10.0681 5.14862 10.14C5.94438 11.2762 5.94438 12.791 5.15341 13.9175C5.11506 13.9751 5.09109 14.0374 5.09109 14.1093C5.09109 14.1956 5.12465 14.2819 5.18697 14.3442C5.24929 14.4065 5.33078 14.4401 5.42187 14.4401C5.52733 14.4401 5.628 14.3873 5.69032 14.301C6.64428 12.9444 6.64428 11.1228 5.69032 9.77092C5.61841 9.67505 5.54171 9.62711 5.45542 9.61752C5.44104 9.61752 5.42187 9.61752 5.40748 9.61752L5.41228 9.60794Z" fill="#052460"/>
<path d="M7.81767 15.952C7.47731 15.952 7.20407 15.674 7.20407 15.3337C7.20407 15.2186 7.23762 15.1083 7.29514 15.0125C8.42168 13.186 8.42168 10.8802 7.29514 9.05381C7.11777 8.76618 7.20406 8.38267 7.49169 8.2053C7.77931 8.02793 8.16282 8.11422 8.34019 8.40184C9.716 10.6262 9.716 13.4353 8.34019 15.6596C8.22993 15.8418 8.02859 15.952 7.81767 15.952Z" fill="#052460"/>
<path d="M7.81822 16.2337C7.57854 16.2337 7.35323 16.1378 7.18065 15.97C7.01287 15.7974 6.91699 15.5721 6.91699 15.3324C6.91699 15.1647 6.96493 15.0017 7.05122 14.8626C8.12982 13.1177 8.12982 10.9461 7.05122 9.20119C6.79235 8.77933 6.92179 8.22326 7.34364 7.9596C7.54977 7.83496 7.78946 7.79181 8.02435 7.84934C8.25925 7.90207 8.45579 8.04588 8.58522 8.25201C10.0282 10.5818 10.0282 13.4772 8.58522 15.807C8.42224 16.0707 8.12982 16.2337 7.81822 16.2337ZM7.81822 8.39584C7.7607 8.39584 7.69838 8.41021 7.64565 8.44376C7.56895 8.4917 7.51621 8.56362 7.49704 8.64991C7.47786 8.73619 7.49225 8.82727 7.54018 8.89918C8.73384 10.8311 8.73384 13.228 7.54018 15.1598C7.50663 15.2126 7.49224 15.2701 7.49224 15.3324C7.49224 15.4235 7.5258 15.505 7.58812 15.5673C7.73193 15.7111 7.99559 15.6776 8.10585 15.505C9.43372 13.3574 9.43372 10.692 8.10585 8.54923C8.04353 8.44856 7.93327 8.39104 7.82302 8.39104L7.81822 8.39584Z" fill="#052460"/>
<path d="M10.3031 17.2174C9.9627 17.2174 9.68945 16.9394 9.68945 16.599C9.68945 16.4935 9.71821 16.3881 9.77095 16.297C11.3145 13.6604 11.3145 10.3911 9.77095 7.75449C9.62234 7.44768 9.75177 7.07857 10.0586 6.93475C10.3318 6.80532 10.6578 6.89161 10.8304 7.14088C12.5993 10.1658 12.5993 13.9097 10.8304 16.9298C10.7153 17.1119 10.514 17.227 10.2983 17.2222L10.3031 17.2174Z" fill="#052460"/>
<path d="M10.3124 17.5013H10.3028C9.80906 17.5013 9.40638 17.0891 9.41118 16.5953C9.41118 16.4371 9.45432 16.2837 9.53102 16.1495C11.0219 13.5992 11.0219 10.4353 9.53102 7.8898C9.30571 7.42001 9.49267 6.88312 9.94328 6.6674C10.346 6.47564 10.8205 6.60029 11.0746 6.96941C12.9058 10.0949 12.9058 13.9587 11.0842 17.0651C10.9164 17.3336 10.624 17.4965 10.3124 17.4965V17.5013ZM10.3364 7.15156C10.2884 7.15156 10.2357 7.16115 10.1878 7.18512C10.0248 7.26661 9.95288 7.46316 10.0296 7.62615C11.6115 10.3298 11.6115 13.7143 10.02 16.4371C9.99122 16.4851 9.97684 16.5426 9.97684 16.6001C9.97684 16.7823 10.1254 16.9309 10.3076 16.9357C10.3076 16.9357 10.3076 16.9357 10.3124 16.9357C10.4275 16.9357 10.5329 16.8733 10.5952 16.7775C12.3066 13.8533 12.3066 10.21 10.5952 7.281C10.5377 7.1995 10.4418 7.15636 10.3364 7.15636V7.15156Z" fill="#052460"/>
<path d="M12.8957 18.5604C12.5554 18.5604 12.2773 18.2872 12.2773 17.9468C12.2773 17.8366 12.3061 17.7311 12.3588 17.6352C14.3339 14.1549 14.3339 9.89326 12.3588 6.41298C12.1911 6.11577 12.2917 5.73706 12.5889 5.56927C12.8862 5.40149 13.2649 5.50217 13.4326 5.79938C15.6234 9.65837 15.6234 14.3802 13.4326 18.2392C13.3272 18.4358 13.1211 18.5556 12.8957 18.5604Z" fill="#052460"/>
<path d="M12.8915 18.8424C12.3977 18.8424 11.995 18.4397 11.9902 17.9459C11.9902 17.7877 12.0286 17.6295 12.1101 17.4905C14.0228 14.1205 14.0228 9.92592 12.1101 6.5511C11.8608 6.11966 12.0142 5.56839 12.4456 5.31911C12.8771 5.06983 13.4284 5.22324 13.6776 5.64988C15.902 9.57599 15.902 14.4465 13.6776 18.3726C13.5242 18.6554 13.2222 18.8328 12.8963 18.8376L12.8915 18.8424ZM12.8915 5.77451C12.8339 5.77451 12.7764 5.78889 12.7237 5.81765C12.5655 5.90873 12.508 6.11487 12.599 6.27307C14.6124 9.82046 14.6124 14.2259 12.599 17.7733C12.5703 17.8261 12.5559 17.8836 12.5559 17.9411C12.5559 18.1233 12.7045 18.2719 12.8867 18.2719C13.0065 18.2719 13.1168 18.2048 13.1743 18.0993C15.3027 14.3458 15.3027 9.68623 13.1743 5.9375C13.112 5.83203 13.0017 5.76973 12.8867 5.76973L12.8915 5.77451Z" fill="#052460"/>
</svg>
