<svg width="39" height="39" viewBox="0 0 39 39" fill="none" xmlns="http://www.w3.org/2000/svg">
<g clip-path="url(#clip0_4870_24576)">
<path d="M7.50108 29.65H12.5186C12.7974 30.689 13.1268 31.7026 13.5069 32.6149C13.7603 33.2231 14.0391 33.7806 14.3432 34.2874C15.0274 33.9326 15.7623 33.5525 16.4718 33.1217C16.2184 32.6909 15.965 32.2094 15.7369 31.6773C15.4835 31.0691 15.2555 30.3849 15.0527 29.6753H21.4387C22.3763 28.9151 23.3139 28.1295 24.2769 27.2426H14.4952C14.1658 25.5954 13.9884 23.7962 13.9124 21.9209H25.0625C25.0118 23.6948 24.8344 25.418 24.5303 27.0145C24.9611 26.6091 25.3666 26.2289 25.7974 25.7981C26.3295 25.266 26.8617 24.7085 27.3685 24.1763C27.4192 23.4414 27.4699 22.7065 27.4952 21.9463H29.2945C29.9533 21.1354 30.5868 20.3245 31.1697 19.5135H27.4952C27.4445 17.6636 27.2925 15.8644 26.9884 14.1919H32.9436C33.197 14.7241 33.3744 15.2816 33.5518 15.8137C34.1093 14.8254 34.5907 13.8625 35.0215 12.8995C33.0449 8.99697 29.6492 5.93069 25.4933 4.41023C24.3022 3.97943 23.0859 3.67533 21.7935 3.49795C21.0332 3.39658 20.273 3.32056 19.4874 3.32056C9.8578 3.26988 2.05273 11.0749 2.05273 20.6792C2.05273 21.7436 2.1541 22.8079 2.35683 23.8215C2.5849 25.1393 2.96502 26.381 3.49718 27.572C4.99231 31.0184 7.5771 33.882 10.7954 35.7572C11.7584 35.4531 12.7974 35.0223 13.8617 34.5155C11.3276 33.4765 9.12291 31.804 7.50108 29.65ZM13.887 19.4629C13.9377 17.5876 14.1405 15.8137 14.4699 14.1412H24.4796C24.8091 15.7884 24.9865 17.5876 25.0625 19.4629H13.9124H13.887ZM31.4231 11.7085H26.4056C26.1268 10.6695 25.7974 9.65584 25.4173 8.74356C25.0625 7.9073 24.657 7.14707 24.2516 6.4882C27.1405 7.4765 29.6239 9.30106 31.4231 11.6831V11.7085ZM15.7369 9.70652C16.7759 7.22309 18.1697 5.75331 19.4114 5.72797C19.4114 5.72797 19.4114 5.72797 19.4368 5.72797C20.0449 5.72797 20.6785 6.08274 21.2867 6.71627C21.9455 7.40048 22.6044 8.41412 23.1366 9.70652C23.39 10.3147 23.618 10.9989 23.8208 11.7085H15.0021C15.2048 10.9989 15.4329 10.3147 15.6863 9.70652H15.7369ZM14.6726 6.51354C14.2418 7.17241 13.8617 7.93264 13.5069 8.7689C13.1268 9.68118 12.7974 10.6695 12.5186 11.7338H7.50108C9.3003 9.35175 11.7837 7.50184 14.6726 6.53888V6.51354ZM6.00595 14.1412H11.9611C11.657 15.8137 11.505 17.613 11.4543 19.4629H4.56151C4.71355 17.5623 5.22038 15.7884 6.03129 14.1412H6.00595ZM6.00595 27.2172C5.54981 26.2796 5.22038 25.2913 4.96696 24.2523C4.78958 23.4921 4.61219 22.7065 4.56151 21.8956H11.4543C11.505 23.7455 11.657 25.5447 11.9611 27.2172H6.00595Z" fill="#052460"/>
<path d="M36.2379 16.0938C35.6804 17.1327 35.0469 18.1971 34.3373 19.2867C34.3373 19.3374 34.3626 19.4134 34.3626 19.4641H34.2106C33.6784 20.275 33.1209 21.086 32.4874 21.8969H34.3373C34.1853 23.7975 33.6784 25.5713 32.8675 27.2185H27.85C27.85 27.2185 27.6219 27.4466 27.5205 27.5733C26.1014 28.9924 24.6823 30.2341 23.2379 31.3998C23.2126 31.4758 23.1872 31.5772 23.1619 31.6532C22.0975 34.162 20.7038 35.6571 19.4367 35.6571C18.9806 35.6571 18.5244 35.4037 18.0936 35.0743C16.7252 35.9105 15.3568 36.6454 14.0391 37.2283C15.7369 37.7858 17.5615 38.0899 19.4367 38.0899C29.041 38.0899 36.8461 30.2848 36.8461 20.6805C36.8461 19.084 36.618 17.5635 36.2126 16.0938H36.2379ZM24.2515 34.8462C24.6823 34.1873 25.0625 33.4271 25.4172 32.5908C25.7973 31.6785 26.1268 30.6902 26.4055 29.6259H31.4231C29.6239 32.008 27.1404 33.8579 24.2515 34.8208V34.8462Z" fill="#052460"/>
<path d="M37.2017 1.82594C34.2622 -1.11363 28.4844 -0.454761 21.769 3.44777C23.0614 3.62516 24.2778 3.92925 25.4688 4.36005C29.9542 2.2314 33.7047 1.87662 35.4279 3.62516C36.923 5.12029 36.8723 8.26259 35.2758 12.2158C35.1998 12.4185 35.0731 12.6466 34.9971 12.8493C34.5916 13.8123 34.1101 14.7753 33.5273 15.7636C32.8431 16.9799 32.0322 18.2217 31.1452 19.438C30.5624 20.2489 29.9288 21.0599 29.27 21.8708C28.6618 22.631 28.0029 23.3659 27.344 24.1008C26.8372 24.6583 26.3051 25.1905 25.7729 25.7226C25.3421 26.1534 24.9366 26.5335 24.5058 26.939C24.4298 27.015 24.3538 27.091 24.2524 27.1671C23.3148 28.054 22.3518 28.8396 21.4142 29.5998C19.7164 30.9429 18.0692 32.1086 16.4727 33.0462C15.7378 33.477 15.0283 33.8571 14.344 34.2119C14.192 34.2879 14.0399 34.3893 13.8879 34.44C12.8236 34.9468 11.7846 35.3776 10.8216 35.6817C7.52728 36.746 4.91714 36.6447 3.65008 35.3523C2.20564 33.9078 2.23098 31.0443 3.52338 27.5218C3.01656 26.3308 2.63644 25.0638 2.38303 23.7714C-0.531202 29.6505 -0.784614 34.516 1.85086 37.1515C3.06724 38.3678 4.79044 38.9507 6.84307 38.9507C8.8957 38.9507 11.4298 38.3172 14.0906 37.1515C15.4084 36.5686 16.7514 35.8337 18.1452 34.9975C19.8431 33.9585 21.5663 32.7421 23.3148 31.323C24.7592 30.1573 26.2037 28.8903 27.5975 27.4965C27.7242 27.3698 27.8255 27.2684 27.9269 27.1417C29.6501 25.3932 31.1959 23.6193 32.539 21.8201C33.1472 21.0092 33.7047 20.1983 34.2622 19.3873C34.3129 19.3367 34.3382 19.2606 34.3889 19.21C35.0984 18.1456 35.732 17.0813 36.2895 16.017C39.4824 9.96044 40.0653 4.53744 37.2524 1.74992L37.2017 1.82594Z" fill="#00AEEF"/>
</g>
<defs>
<clipPath id="clip0_4870_24576">
<rect width="39" height="39" fill="white"/>
</clipPath>
</defs>
</svg>
