<svg width="40" height="40" viewBox="0 0 40 40" fill="none" xmlns="http://www.w3.org/2000/svg">
<path d="M19.8549 0.0742188C19.3333 0.0742188 18.9141 0.498623 18.9141 1.01507C18.9141 1.53151 19.3385 1.95593 19.8549 1.95593C29.7236 1.95593 37.7515 9.98384 37.7515 19.8526C37.7515 20.3741 38.1759 20.7934 38.6924 20.7934C39.2088 20.7934 39.6332 20.369 39.6332 19.8526C39.6332 8.94584 30.7616 0.0742188 19.8549 0.0742188Z" fill="#00AEEF"/>
<path d="M38.6924 20.8726C38.1351 20.8726 37.68 20.4175 37.68 19.855C37.68 10.0272 29.6828 2.02999 19.855 2.02999C19.2976 2.02999 18.8425 1.5749 18.8425 1.01755C18.8425 0.460194 19.2976 0 19.855 0C30.8026 0 39.71 8.90741 39.71 19.855C39.71 20.4124 39.2549 20.8726 38.6975 20.8726H38.6924ZM19.855 0.148283C19.3743 0.148283 18.9857 0.536894 18.9857 1.01755C18.9857 1.4982 19.3743 1.88682 19.855 1.88682C29.7646 1.88682 37.8232 9.94541 37.8232 19.855C37.8232 20.3357 38.2118 20.7243 38.6924 20.7243C39.1731 20.7243 39.5617 20.3357 39.5617 19.855C39.5617 8.98922 30.7208 0.148283 19.855 0.148283Z" fill="#00AEEF"/>
<path d="M19.855 37.7515C9.98627 37.7515 1.95836 29.7236 1.95836 19.8549C1.95836 19.3334 1.53397 18.9141 1.01753 18.9141C0.50108 18.9141 0.0766602 19.3385 0.0766602 19.8549C0.0766602 30.7616 8.94827 39.6333 19.855 39.6333C20.3765 39.6333 20.7959 39.2088 20.7959 38.6924C20.7959 38.1759 20.3714 37.7515 19.855 37.7515Z" fill="#00AEEF"/>
<path d="M19.855 39.7112C8.90742 39.7112 0 30.8038 0 19.8562C0 19.2988 0.455107 18.8438 1.01246 18.8438C1.56981 18.8438 2.02489 19.2988 2.02489 19.8562C2.02489 29.684 10.0221 37.6812 19.8499 37.6812C20.4073 37.6812 20.8624 38.1363 20.8624 38.6937C20.8624 39.251 20.4073 39.7112 19.8499 39.7112H19.855ZM1.01758 18.9869C0.536925 18.9869 0.148306 19.3755 0.148306 19.8562C0.148306 30.722 8.98923 39.5629 19.855 39.5629C20.3357 39.5629 20.7243 39.1743 20.7243 38.6937C20.7243 38.213 20.3357 37.8244 19.855 37.8244C9.94542 37.8244 1.88682 29.7658 1.88682 19.8562C1.88682 19.3755 1.49823 18.9869 1.01758 18.9869Z" fill="#00AEEF"/>
<path d="M19.8552 5.10547C11.7199 5.10547 5.09814 11.7272 5.09814 19.8625C5.09814 27.9978 11.7199 34.6196 19.8552 34.6196C27.9905 34.6196 34.6122 27.9978 34.6122 19.8625C34.6122 11.7272 27.9905 5.10547 19.8552 5.10547ZM19.8552 32.7328C12.7579 32.7328 6.98496 26.9598 6.98496 19.8625C6.98496 12.7652 12.7579 6.99229 19.8552 6.99229C26.9525 6.99229 32.7254 12.7652 32.7254 19.8625C32.7254 26.9598 26.9525 32.7328 19.8552 32.7328Z" fill="#00AEEF"/>
<path d="M19.8552 34.6924C11.679 34.6924 5.02661 28.04 5.02661 19.8638C5.02661 11.6876 11.679 5.03516 19.8552 5.03516C28.0314 5.03516 34.6839 11.6876 34.6839 19.8638C34.6839 28.04 28.0314 34.6924 19.8552 34.6924ZM19.8552 5.17833C11.7609 5.17833 5.1698 11.7643 5.1698 19.8638C5.1698 27.9633 11.7557 34.5492 19.8552 34.5492C27.9547 34.5492 34.5407 27.9633 34.5407 19.8638C34.5407 11.7643 27.9547 5.17833 19.8552 5.17833ZM19.8552 32.8056C12.717 32.8056 6.90831 26.9969 6.90831 19.8587C6.90831 12.7205 12.717 6.91174 19.8552 6.91174C26.9934 6.91174 32.8022 12.7205 32.8022 19.8587C32.8022 26.9969 26.9934 32.8056 19.8552 32.8056ZM19.8552 7.06003C12.7989 7.06003 7.05662 12.8023 7.05662 19.8587C7.05662 26.9151 12.7989 32.6573 19.8552 32.6573C26.9116 32.6573 32.6539 26.9151 32.6539 19.8587C32.6539 12.8023 26.9116 7.06003 19.8552 7.06003Z" fill="#00AEEF"/>
<path d="M27.9136 16.5212L22.9281 15.7951L20.6987 11.2801C20.3868 10.6358 19.3232 10.6358 19.0112 11.2801L16.7818 15.7951L11.7964 16.5212C11.4384 16.5724 11.147 16.8229 11.0345 17.1604C10.922 17.4979 11.014 17.8763 11.2748 18.1268L14.8797 21.6397L14.0309 26.6047C13.9695 26.9575 14.1127 27.3155 14.4042 27.5251C14.6956 27.7347 15.0791 27.7654 15.3962 27.5967L19.855 25.2548L24.3138 27.5967C24.4518 27.6683 24.6052 27.7041 24.7535 27.7041C24.9478 27.7041 25.1421 27.6427 25.3058 27.5251C25.5972 27.3155 25.7404 26.9575 25.679 26.6047L24.8302 21.6397L28.4351 18.1268C28.6908 17.8763 28.7828 17.503 28.6754 17.1604C28.5681 16.8178 28.2715 16.5724 27.9136 16.5212ZM23.1582 20.6375C22.9332 20.8522 22.836 21.1641 22.8872 21.4709L23.4956 25.04L20.2896 23.3526C20.1515 23.281 19.9981 23.2453 19.8498 23.2453C19.7016 23.2453 19.5482 23.281 19.4101 23.3526L16.204 25.04L16.8125 21.4709C16.8688 21.1641 16.7665 20.8522 16.5415 20.6375L13.944 18.1064L17.5284 17.5848C17.8352 17.5388 18.1011 17.3496 18.2392 17.0684L19.8447 13.8214L21.4503 17.0684C21.5884 17.3445 21.8543 17.5388 22.1611 17.5848L25.7455 18.1064L23.1479 20.6375H23.1582Z" fill="#052460"/>
</svg>
