<svg width="40" height="40" viewBox="0 0 40 40" fill="none" xmlns="http://www.w3.org/2000/svg">
<path d="M17.49 9.73707C13.7295 10.6062 10.714 13.5863 9.79159 17.3114C8.8692 21.0541 9.9335 24.8679 12.6297 27.5109C13.5876 28.451 14.1552 29.9411 14.1552 31.5198V31.7681C14.1552 32.8147 14.6164 33.7371 15.326 34.3934V36.4688C15.326 38.4023 16.9047 39.981 18.8382 39.981H21.1796C23.1131 39.981 24.6918 38.4023 24.6918 36.4688V34.3934C25.4191 33.7548 25.8625 32.8147 25.8625 31.7681V31.5198C25.8625 29.9588 26.4657 28.4333 27.4767 27.4222C29.4634 25.4355 30.5632 22.7925 30.5632 19.9721C30.5632 13.2493 24.337 8.12288 17.49 9.71933V9.73707ZM22.3504 36.4688C22.3504 37.1074 21.8182 37.6395 21.1796 37.6395H18.8382C18.1996 37.6395 17.6674 37.1074 17.6674 36.4688V35.298H22.3504V36.4688ZM25.8093 25.7903C24.3548 27.2448 23.5211 29.338 23.5211 31.5375V31.7859C23.5211 32.4244 22.9889 32.9566 22.3504 32.9566H17.6674C17.0288 32.9566 16.4967 32.4244 16.4967 31.7859V31.5375C16.4967 29.3025 15.6807 27.2448 14.2617 25.8435C12.1685 23.7859 11.3348 20.8058 12.0621 17.879C12.7716 14.9876 15.1131 12.6994 18.0222 12.0253C23.3792 10.7659 28.2217 14.7748 28.2217 19.9898C28.2217 25.2049 27.3703 24.2293 25.8271 25.7903H25.8093Z" fill="#00AEEF"/>
<path d="M10.8913 9.22547L7.57418 5.9084C7.11298 5.4472 6.36797 5.4472 5.92451 5.9084C5.46331 6.3696 5.46331 7.11461 5.92451 7.55807L9.24158 10.8751C9.70278 11.3363 10.4478 11.3363 10.8913 10.8751C11.3524 10.4139 11.3524 9.66893 10.8913 9.22547Z" fill="#00AEEF"/>
<path d="M5.94235 18.8203H1.17073C0.532152 18.8203 0 19.3525 0 19.991C0 20.6296 0.532152 21.1618 1.17073 21.1618H5.94235C6.58093 21.1618 7.11308 20.6296 7.11308 19.991C7.11308 19.3525 6.58093 18.8203 5.94235 18.8203Z" fill="#00AEEF"/>
<path d="M38.8291 18.8203H34.0575C33.4189 18.8203 32.8867 19.3525 32.8867 19.991C32.8867 20.6296 33.4189 21.1618 34.0575 21.1618H38.8291C39.4676 21.1618 39.9998 20.6296 39.9998 19.991C39.9998 19.3525 39.4676 18.8203 38.8291 18.8203Z" fill="#00AEEF"/>
<path d="M34.0929 5.9084C33.6317 5.4472 32.8867 5.4472 32.4432 5.9084L29.1262 9.22547C28.665 9.68667 28.665 10.4317 29.1262 10.8751C29.5874 11.3363 30.3324 11.3363 30.7758 10.8751L34.0929 7.55807C34.5541 7.09687 34.5541 6.35186 34.0929 5.9084Z" fill="#00AEEF"/>
<path d="M20.0086 0C19.37 0 18.8379 0.532152 18.8379 1.17073V5.94235C18.8379 6.58093 19.37 7.11308 20.0086 7.11308C20.6472 7.11308 21.1794 6.58093 21.1794 5.94235V1.17073C21.1794 0.532152 20.6472 0 20.0086 0Z" fill="#00AEEF"/>
<path d="M20.0088 14.1367C19.5299 14.1367 19.0332 14.1899 18.5542 14.3141C16.5321 14.793 14.8469 16.4427 14.3503 18.4471C14.1906 19.068 14.5809 19.7066 15.2017 19.8662C15.8225 20.0259 16.4611 19.6356 16.6208 19.0148C16.9046 17.8618 17.9157 16.8684 19.0864 16.6024C19.4057 16.5314 19.7072 16.4959 20.0088 16.4959C20.6474 16.4959 21.1795 15.9638 21.1795 15.3252C21.1795 14.6866 20.6474 14.1545 20.0088 14.1545V14.1367Z" fill="#062360"/>
</svg>
