<svg width="42" height="37" viewBox="0 0 42 37" fill="none" xmlns="http://www.w3.org/2000/svg">
<path d="M38.8741 28.5532H2.18149C0.979246 28.5532 0 27.574 0 26.3718V2.18149C0 0.979245 0.979246 0 2.18149 0H38.8741C40.0764 0 41.0556 0.979245 41.0556 2.18149V26.3766C41.0556 27.5788 40.0764 28.5581 38.8741 28.5581V28.5532ZM2.18149 1.92456C2.0409 1.92456 1.92456 2.0409 1.92456 2.17664V26.3718C1.92456 26.5123 2.0409 26.6238 2.18149 26.6238H38.8741C39.0147 26.6238 39.131 26.5075 39.131 26.3718V2.18149C39.131 2.0409 39.0147 1.9294 38.8741 1.9294H2.18149V1.92456Z" fill="#00AEEF"/>
<path d="M25.7216 36.9992H15.328C14.7947 36.9992 14.3633 36.5677 14.3633 36.0345V27.5897C14.3633 27.0564 14.7947 26.625 15.328 26.625H25.7216C26.2548 26.625 26.6863 27.0564 26.6863 27.5897V36.0345C26.6863 36.5677 26.2548 36.9992 25.7216 36.9992ZM16.2975 35.0698H24.7617V28.5544H16.2975V35.0698Z" fill="#00AEEF"/>
<path d="M33.518 37.0036H7.53893C7.00568 37.0036 6.57422 36.5722 6.57422 36.0389C6.57422 35.5057 7.00568 35.0742 7.53893 35.0742H33.518C34.0513 35.0742 34.4827 35.5057 34.4827 36.0389C34.4827 36.5722 34.0513 37.0036 33.518 37.0036Z" fill="#00AEEF"/>
<rect x="8.72656" y="9.21484" width="1.9391" height="12.6042" fill="#15326A"/>
<rect x="19.3916" y="7.75781" width="1.9391" height="14.0585" fill="#15326A"/>
<rect x="30.0566" y="7.75781" width="1.9391" height="14.0585" fill="#15326A"/>
<rect x="24.7246" y="12.125" width="1.9391" height="9.6955" fill="#15326A"/>
<rect x="14.0586" y="14.543" width="1.9391" height="7.27163" fill="#15326A"/>
</svg>
