<svg width="58" height="33" viewBox="0 0 58 33" fill="none" xmlns="http://www.w3.org/2000/svg">
<path d="M30.3906 1.13281H51.2563C54.2249 1.13281 56.6302 3.53811 56.6302 6.50674V25.6639C56.6302 28.6325 54.2249 31.0378 51.2563 31.0378H15.5586" stroke="#06AEEF" stroke-width="2" stroke-miterlimit="10" stroke-linecap="round"/>
<path d="M29.0217 5.08984H49.6317C51.1623 5.08984 52.4039 6.33141 52.4039 7.86205V24.3174C52.4039 25.848 51.1623 27.0896 49.6317 27.0896H18.1738" stroke="#062361" stroke-width="2" stroke-miterlimit="10" stroke-linecap="round"/>
<path d="M22.6924 9.01562H10.4473" stroke="#06AEEF" stroke-width="2" stroke-miterlimit="10" stroke-linecap="round"/>
<path d="M17.626 15.7539H5.38086" stroke="#06AEEF" stroke-width="2" stroke-miterlimit="10" stroke-linecap="round"/>
<path d="M13.6162 22.4922H1.37109" stroke="#06AEEF" stroke-width="2" stroke-miterlimit="10" stroke-linecap="round"/>
<path d="M33.6767 21.2362C36.704 21.2362 39.1581 18.7821 39.1581 15.7548C39.1581 12.7275 36.704 10.2734 33.6767 10.2734C30.6494 10.2734 28.1953 12.7275 28.1953 15.7548C28.1953 18.7821 30.6494 21.2362 33.6767 21.2362Z" stroke="#06AEEF" stroke-width="2" stroke-miterlimit="10" stroke-linecap="round"/>
</svg>
