<?xml version="1.0" encoding="UTF-8"?>
<svg xmlns="http://www.w3.org/2000/svg" version="1.1" viewBox="0 0 512 512">
  <defs>
    <style>
      .cls-1 {
        fill: #066fd0;
      }

      .cls-1, .cls-2 {
        stroke-width: 0px;
      }

      .cls-2 {
        fill: #062360;
      }
    </style>
  </defs>
  <g id="Layer_1" data-name="Layer 1" image-rendering="optimizeQuality" shape-rendering="geometricPrecision" text-rendering="geometricPrecision">
    <g>
      <path class="cls-1" d="M301,343h42v-144.7h-42v144.7ZM313.7,211h16.7v119.3h-16.7v-119.3Z"/>
      <path class="cls-1" d="M169,343h42v-64h-42v64ZM181.7,291.7h16.7v38.7h-16.7v-38.7Z"/>
      <polygon class="cls-1" points="247.7 279 235 279 235 343 277 343 277 238.7 264.3 238.7 264.3 330.3 247.7 330.3 247.7 279"/>
      <polygon class="cls-2" points="169 249.7 169 262.3 214.5 262.3 302.5 181.7 343 181.7 343 169 297.5 169 209.5 249.7 169 249.7"/>
    </g>
  </g>
</svg>