<svg width="37" height="41" viewBox="0 0 37 41" fill="none" xmlns="http://www.w3.org/2000/svg">
<path d="M15.9383 34.9049C15.7093 34.5996 15.2704 34.5328 14.9603 34.7666C14.655 34.9956 14.5882 35.4345 14.822 35.7445L15.8047 37.0517C7.92859 36.317 1.74603 29.6717 1.74603 21.6V20.3645C1.74603 19.9828 1.43117 19.668 1.04953 19.668C0.667891 19.668 0.353027 19.9828 0.353027 20.3645V21.6C0.353027 30.3539 7.04129 37.5812 15.5805 38.4303L14.5405 39.3987C14.2591 39.6659 14.2495 40.1048 14.5071 40.3815C14.6455 40.5294 14.8267 40.6057 15.0176 40.6057C15.1845 40.6057 15.361 40.5437 15.4946 40.4149L17.7367 38.3206C18.0039 38.0821 18.042 37.6766 17.8274 37.3856L15.9478 34.9002L15.9383 34.9049Z" fill="#052460"/>
<path d="M15.008 40.7253C14.7838 40.7253 14.5739 40.6347 14.4165 40.4677C14.1159 40.1433 14.135 39.6281 14.4546 39.3228L15.3133 38.5213C11.2346 38.0538 7.46107 36.1218 4.6751 33.0591C1.8128 29.9153 0.233765 25.8461 0.233765 21.6051V20.3696C0.233765 19.9212 0.596328 19.5586 1.04476 19.5586C1.49318 19.5586 1.85575 19.9212 1.85575 20.3696V21.6051C1.85575 25.4645 3.29166 29.1568 5.90112 32.0048C8.43425 34.7717 11.8547 36.5082 15.5519 36.9137L14.7218 35.8165C14.4546 35.4587 14.5262 34.9482 14.884 34.6811C15.2418 34.4139 15.7522 34.4855 16.0194 34.8433L17.8989 37.3287C18.1518 37.6722 18.104 38.1397 17.794 38.4164L15.5566 40.5106C15.4087 40.649 15.2084 40.7301 15.0032 40.7301L15.008 40.7253ZM1.04476 19.7828C0.720361 19.7828 0.457993 20.0452 0.457993 20.3696V21.6051C0.457993 25.7936 2.01318 29.8056 4.84208 32.9064C7.64714 35.9882 11.4635 37.9107 15.5853 38.321L15.8333 38.3448L14.6073 39.485C14.3735 39.7044 14.364 40.0765 14.5787 40.3103C14.7981 40.5392 15.1798 40.5488 15.404 40.3389L17.6461 38.2446C17.8703 38.0443 17.9037 37.7056 17.7224 37.4575L15.8428 34.9721C15.7474 34.848 15.6139 34.7669 15.4564 34.7431C15.299 34.7192 15.1463 34.7622 15.0223 34.8528C14.7647 35.0484 14.7122 35.4157 14.9078 35.6733L16.048 37.1856L15.7904 37.1617C11.9358 36.8039 8.36748 35.0245 5.73416 32.1527C3.08654 29.2618 1.62677 25.5122 1.62677 21.6004V20.3648C1.62677 20.0404 1.36437 19.778 1.03998 19.778L1.04476 19.7828Z" fill="#052460"/>
<path d="M15.008 40.9649C14.7218 40.9649 14.4499 40.8457 14.2447 40.631C13.8535 40.2064 13.8774 39.5433 14.2924 39.1474L14.7838 38.6894C10.8433 38.1169 7.20822 36.1849 4.50335 33.2176C1.59812 30.0309 0 25.9045 0 21.6015V20.3659C0 19.7887 0.472285 19.3164 1.04952 19.3164C1.62675 19.3164 2.09903 19.7887 2.09903 20.3659V21.6015C2.09903 25.3988 3.51586 29.0339 6.08239 31.839C8.44378 34.415 11.6019 36.0942 15.0271 36.5999L14.5405 35.9559C14.1923 35.4932 14.2877 34.8348 14.7504 34.4866C15.2131 34.1383 15.8714 34.2338 16.2197 34.6965L18.0945 37.1819C18.4189 37.6256 18.3617 38.2314 17.9562 38.594L15.7188 40.6835C15.528 40.8647 15.2704 40.9649 15.0032 40.9649H15.008ZM1.04474 20.0224C0.85392 20.0224 0.696503 20.1799 0.696503 20.3707V21.6062C0.696503 25.7327 2.2326 29.6922 5.01857 32.7501C7.78546 35.7889 11.5446 37.6828 15.6091 38.0883L16.3819 38.1646L14.7695 39.6674C14.6311 39.7962 14.6263 40.0156 14.7551 40.1539C14.8792 40.2827 15.1129 40.2923 15.237 40.173L17.4791 38.0788C17.6175 37.9547 17.6365 37.7544 17.5268 37.6113L15.652 35.1306C15.5948 35.0543 15.5137 35.0066 15.423 34.997C15.3276 34.9827 15.2418 35.0066 15.1654 35.0638C15.0939 35.1211 15.0462 35.2022 15.0318 35.2928C15.0175 35.3834 15.0414 35.4741 15.0986 35.5504L16.5632 37.492L15.7713 37.4204C11.8595 37.0579 8.2339 35.2499 5.56242 32.3351C2.87186 29.4012 1.39301 25.5944 1.39301 21.6206V20.385C1.39301 20.1942 1.23556 20.0368 1.04474 20.0368V20.0224Z" fill="#052460"/>
<path d="M21.6819 2.33462L22.6504 1.60951C22.9557 1.38053 23.0224 0.941639 22.7887 0.631557C22.5549 0.321475 22.1208 0.259458 21.8107 0.493213L19.3253 2.35848C18.9961 2.60177 18.9484 3.12176 19.2394 3.41276L21.0522 5.82663C21.1906 6.00791 21.4005 6.10809 21.6104 6.10809C21.7582 6.10809 21.9014 6.06038 22.0302 5.96975C22.3355 5.74076 22.4023 5.30188 22.1685 4.99179L21.1906 3.68468C29.0571 4.4241 35.2445 11.0694 35.2445 19.1363V20.3719C35.2445 20.7535 35.5593 21.0684 35.941 21.0684C36.3226 21.0684 36.6374 20.7535 36.6374 20.3719V19.1363C36.6374 10.4636 30.0828 3.30781 21.6676 2.3394L21.6819 2.33462Z" fill="#052460"/>
<path d="M35.9504 21.1758C35.502 21.1758 35.1394 20.8132 35.1394 20.3648V19.1292C35.1394 15.2747 33.7035 11.5823 31.094 8.73433C28.5609 5.96744 25.1452 4.23098 21.4481 3.82072L22.2686 4.91793C22.3974 5.08967 22.4546 5.30434 22.4213 5.51901C22.3926 5.73369 22.2781 5.92451 22.1064 6.05331C21.7439 6.31569 21.2334 6.23459 20.971 5.89111L19.1535 3.47247C19.0056 3.32458 18.9197 3.0956 18.9388 2.85708C18.9579 2.61378 19.0724 2.39434 19.2584 2.25599L21.7438 0.390728C21.9156 0.261924 22.1303 0.209449 22.3449 0.238072C22.5596 0.266695 22.7504 0.381187 22.8792 0.552925C23.1464 0.910712 23.0748 1.42116 22.717 1.6883L21.9728 2.24645C30.4214 3.36275 36.7614 10.5662 36.7614 19.1197V20.3553C36.7614 20.8037 36.3988 21.1662 35.9504 21.1662V21.1758ZM20.9567 3.54403L21.2096 3.56788C25.0593 3.93044 28.6277 5.70983 31.261 8.58167C33.9086 11.4726 35.3684 15.2174 35.3684 19.1292V20.3648C35.3684 20.6892 35.6308 20.9516 35.9552 20.9516C36.2795 20.9516 36.5419 20.6892 36.5419 20.3648V19.1292C36.5419 10.5948 30.1495 3.42476 21.6723 2.44681L21.3908 2.41342L22.5882 1.51657C22.8458 1.32098 22.8983 0.953647 22.7027 0.69604C22.6073 0.572007 22.4737 0.490908 22.3163 0.467056C22.1589 0.447974 22.0062 0.486138 21.8822 0.576777L19.3968 2.44204C19.2632 2.54222 19.1773 2.69965 19.1678 2.87616C19.1535 3.0479 19.2155 3.21009 19.3252 3.32458L21.1523 5.75277C21.3384 5.99606 21.7104 6.05808 21.9728 5.86726C22.0969 5.77662 22.178 5.63828 22.1971 5.48562C22.2161 5.33296 22.1779 5.17554 22.0873 5.0515L20.9567 3.53926V3.54403Z" fill="#052460"/>
<path d="M35.9505 21.4153C35.3733 21.4153 34.901 20.943 34.901 20.3657V19.1302C34.901 15.3376 33.4841 11.7025 30.9176 8.89747C28.5562 6.31663 25.3981 4.64219 21.9777 4.13174L22.4595 4.77576C22.6265 4.99997 22.698 5.27666 22.6599 5.55335C22.6217 5.83004 22.4738 6.07811 22.2496 6.24507C21.7869 6.58378 21.1285 6.48837 20.7803 6.03994L18.9627 3.6213C18.7862 3.44956 18.6813 3.14902 18.7003 2.84848C18.7242 2.5384 18.8769 2.25217 19.1154 2.07566L21.6008 0.210393C21.825 0.0434259 22.1017 -0.0281316 22.3784 0.0100324C22.6551 0.0481964 22.9032 0.196082 23.0701 0.420295C23.2371 0.644509 23.3087 0.921198 23.2705 1.19789C23.2323 1.47458 23.0844 1.72264 22.8602 1.88961L22.574 2.10428C30.8365 3.47818 37 10.6959 37 19.1302V20.3657C37 20.943 36.5277 21.4153 35.9505 21.4153ZM20.4416 3.25874L21.2335 3.3303C25.1453 3.69763 28.7661 5.50565 31.4376 8.42042C34.1234 11.3543 35.607 15.1564 35.607 19.1302V20.3657C35.607 20.5566 35.7644 20.714 35.9552 20.714C36.1461 20.714 36.3035 20.5566 36.3035 20.3657V19.1302C36.3035 10.7198 30.0017 3.64515 21.6485 2.68151L20.7708 2.58133L22.45 1.32669C22.5215 1.26944 22.5692 1.18835 22.5835 1.09771C22.5979 1.00707 22.574 0.916427 22.5167 0.840099C22.4595 0.763771 22.3784 0.720837 22.2878 0.706525C22.1971 0.692214 22.1065 0.716066 22.0301 0.773312L19.5447 2.63858C19.4636 2.69582 19.4159 2.79123 19.4111 2.90095C19.4016 3.00113 19.435 3.09654 19.5018 3.16333L21.348 5.61537C21.4625 5.75848 21.6867 5.79188 21.8393 5.68215C21.9061 5.62968 21.9538 5.54858 21.9681 5.45794C21.9824 5.3673 21.9586 5.27666 21.9014 5.20033L20.4464 3.25874H20.4416Z" fill="#052460"/>
<path d="M6.65964 14.3852C6.65964 14.3852 6.65486 14.3996 6.65486 14.4043C5.7103 16.2601 5.23804 18.2637 5.23804 20.3675C5.23804 21.4408 5.36206 22.4951 5.6149 23.5112C6.34001 26.5119 8.11941 29.1881 10.6287 31.0391C12.9233 32.7421 15.6473 33.6342 18.5048 33.6342C21.7106 33.6342 24.8018 32.475 27.2157 30.3664C27.2205 30.3616 27.23 30.3616 27.2348 30.3521C30.1162 27.8237 31.7668 24.1886 31.7668 20.3675C31.7668 18.7359 31.4758 17.1426 30.8938 15.6256C30.8938 15.6208 30.889 15.6113 30.8795 15.6065C28.9236 10.5164 23.9527 7.10547 18.5 7.10547C16.1482 7.10547 13.8345 7.73517 11.8261 8.91826C11.8261 8.91826 11.8213 8.91985 11.8118 8.92303C9.59826 10.2015 7.81887 12.0906 6.65964 14.3805V14.3852ZM12.3699 10.1252C13.4671 9.94391 15.2799 9.69108 16.1768 10.545C16.4582 10.8121 16.5584 11.2033 16.4916 11.7329C16.4201 12.3053 15.9144 12.7251 15.3181 13.2069C14.4022 13.9559 13.1475 14.972 13.8154 16.9756C14.011 17.5529 14.5405 18.2112 15.1559 18.9745C15.7904 19.7616 16.8542 21.0735 16.692 21.5982C16.649 21.7366 16.4201 21.8797 16.0623 21.9799C15.6139 22.1039 15.0987 21.7509 14.2972 21.1403C13.1237 20.2482 11.8165 19.4515 10.2852 19.7091C9.78907 19.795 9.41221 19.7091 9.09735 19.4372C7.93335 18.4593 7.93336 16.1933 7.9095 14.8289C8.94947 12.873 10.4856 11.2463 12.3699 10.1252ZM7.06989 23.8118C7.87134 23.6734 8.52014 24.0837 8.93517 24.7611C9.97514 26.4975 11.6734 26.1636 12.909 25.9203C13.4957 25.8011 14.0539 25.6961 14.3974 25.8106C14.4021 26.2876 14.0348 27.5852 13.1952 28.63C12.7086 29.2453 12.0455 29.7796 11.225 29.8369C9.23571 28.3103 7.78547 26.1922 7.06989 23.8118ZM26.5001 29.2263C25.9324 29.3217 25.3552 29.3885 24.7828 29.4219C23.3802 29.5173 22.0874 29.4505 21.8346 29.1547C21.8489 28.7635 22.4261 28.3533 22.679 28.1147C24.1721 26.7408 26.0994 25.6293 27.168 23.8547C28.1173 22.2757 27.4543 21.145 26.9152 20.2387C26.6099 19.7139 26.2807 19.1557 26.3141 18.5213C26.4 16.9661 28.6182 16.6369 29.8109 16.5463C30.2211 17.7771 30.431 19.0508 30.431 20.3627C30.431 23.7354 28.9999 26.9507 26.4954 29.2215L26.5001 29.2263ZM18.5 8.43167C23.1083 8.43167 27.3397 11.1461 29.2909 15.2726C27.6355 15.4634 25.422 16.1026 25.0451 17.987C24.7923 19.2416 25.3314 20.1671 25.7703 20.9113C26.3093 21.832 26.5431 22.3138 26.0278 23.182C25.0928 24.7372 23.3421 25.7629 22.0063 26.946C20.9473 27.881 20.2746 28.7063 20.5704 29.5841C21.0093 30.9103 23.218 30.8387 24.3105 30.8005C22.5454 31.7785 20.5466 32.308 18.4952 32.308C16.4439 32.308 14.4403 31.7833 12.6609 30.7862C14.0587 30.0659 14.9985 28.5727 15.466 27.1129C15.7331 26.2829 15.9144 25.2 15.2656 24.7659C14.4928 24.2506 13.5482 24.4367 12.6418 24.6132C11.3586 24.866 10.6048 24.971 10.0658 24.0741C9.36929 22.9149 8.1051 22.247 6.75505 22.5094C6.63102 21.8129 6.55945 21.0926 6.55945 20.3675C6.55945 19.4611 6.65488 18.5642 6.85047 17.7055C7.05083 18.6978 7.442 19.7855 8.23867 20.4581C8.85883 20.9828 9.62211 21.1689 10.4999 21.0258C11.6782 20.8302 12.5989 21.5267 13.4958 22.2041C14.3258 22.8338 15.3181 23.5732 16.4201 23.2584C17.2454 23.0199 17.7558 22.6 17.9466 22.0037C18.3235 20.8016 17.2358 19.4563 16.1816 18.1444C15.695 17.5385 15.1893 16.9136 15.07 16.5606C14.7075 15.4777 15.1941 15.0197 16.1529 14.2374C16.859 13.6601 17.6604 13.0018 17.7987 11.9046C17.9514 10.6977 17.4934 9.98685 17.0784 9.59567C16.6586 9.19018 16.0718 8.94688 15.5137 8.82285C16.4773 8.56524 17.4743 8.44121 18.4857 8.44121L18.5 8.43167Z" fill="#00AEEF"/>
<path d="M18.5 33.7404C15.6139 33.7404 12.866 32.834 10.5571 31.1214C8.02876 29.2561 6.23507 26.5608 5.50041 23.5315C5.24757 22.5154 5.11877 21.4468 5.11877 20.3639C5.11877 18.2506 5.59581 16.2374 6.5356 14.3769V14.3578L6.55467 14.3292C7.72344 12.0203 9.51717 10.1169 11.7355 8.8336L11.7784 8.80975C13.8011 7.61712 16.1243 6.99219 18.4905 6.99219C23.9813 6.99219 28.9903 10.4269 30.9653 15.5457L30.9796 15.56V15.5886H30.9844C31.5664 17.1152 31.8622 18.7228 31.8622 20.3687C31.8622 24.2232 30.1973 27.8917 27.292 30.4392L27.2586 30.463C24.84 32.5811 21.7153 33.7499 18.4857 33.7499L18.5 33.7404ZM6.76457 14.4246L6.75028 14.458C5.82003 16.2947 5.34297 18.284 5.34297 20.3687C5.34297 21.4373 5.46702 22.482 5.71509 23.4838C6.43543 26.4606 8.20051 29.113 10.6859 30.9449C12.9567 32.6288 15.6568 33.5209 18.4952 33.5209C21.6724 33.5209 24.7398 32.3712 27.1346 30.2818L27.168 30.2579C30.0112 27.7629 31.6475 24.1564 31.6475 20.3687C31.6475 18.7562 31.3565 17.1772 30.784 15.6793L30.7649 15.6506C28.8281 10.6082 23.8954 7.22117 18.4952 7.22117C16.1625 7.22117 13.8726 7.84134 11.8786 9.01965L11.8499 9.03396C9.66982 10.2981 7.90952 12.1586 6.75983 14.4294L6.76457 14.4246ZM18.5 32.4142C16.4392 32.4142 14.4021 31.8847 12.6084 30.8781L12.4224 30.7731L12.6084 30.6777C13.8201 30.0528 14.8267 28.7361 15.361 27.0712C15.6139 26.2793 15.7951 25.2489 15.2036 24.8529C14.4737 24.3663 13.5673 24.5429 12.6943 24.7098H12.6657C11.3681 24.9722 10.5428 25.0771 9.97036 24.123C9.2691 22.959 8.01923 22.3675 6.7789 22.6108L6.66441 22.6347L6.64531 22.5202C6.51651 21.795 6.44973 21.0652 6.44973 20.3591C6.44973 19.4384 6.54991 18.5368 6.7455 17.6733L6.85999 17.1629L6.96496 17.6781C7.21779 18.9184 7.67097 19.8248 8.31499 20.3639C8.90653 20.8648 9.63644 21.0461 10.4856 20.903C11.7164 20.6978 12.6561 21.4134 13.5673 22.1051C14.3544 22.7014 15.3372 23.4409 16.3915 23.1403C17.1738 22.9161 17.6604 22.5154 17.8417 21.9572C18.1995 20.8219 17.1356 19.5004 16.11 18.2219L16.0718 18.1742C15.5661 17.5493 15.0891 16.953 14.9698 16.5857C14.5834 15.436 15.1177 14.9303 16.0861 14.1384C16.7826 13.5659 17.5602 12.9267 17.6938 11.8819C17.8417 10.7275 17.4028 10.0405 17.0068 9.66844C16.5537 9.22955 15.9335 9.01965 15.4946 8.92424L15.0462 8.82406L15.4898 8.7048C16.4487 8.44719 17.46 8.31839 18.4952 8.31839C23.1274 8.31839 27.4018 11.028 29.3911 15.2261L29.4578 15.3692L29.3004 15.3883C27.917 15.5457 25.5365 16.0943 25.1549 18.012C24.9116 19.2333 25.4411 20.1349 25.8657 20.8553C26.4095 21.7903 26.6719 22.3246 26.1233 23.2405C25.4506 24.3616 24.3629 25.206 23.3182 26.0265C22.8793 26.3652 22.4691 26.6896 22.0827 27.0331C21.0427 27.949 20.4034 28.7313 20.6754 29.5519C21.0952 30.8113 23.261 30.7302 24.3057 30.6873L24.7828 30.6682L24.3629 30.8972C22.5645 31.8942 20.5322 32.4189 18.4905 32.4189L18.5 32.4142ZM12.8995 30.7827C14.6311 31.7177 16.5155 32.19 18.5 32.19C20.3414 32.19 22.1733 31.7511 23.8287 30.9258C22.6503 30.9496 20.8757 30.8495 20.4655 29.6187C20.1506 28.6789 20.828 27.8393 21.9348 26.8613C22.326 26.5131 22.7601 26.1744 23.1799 25.85C24.2103 25.0438 25.2789 24.2137 25.9325 23.126C26.4143 22.315 26.2044 21.8809 25.6748 20.9745C25.2312 20.216 24.673 19.2762 24.9354 17.9691C25.3314 15.9846 27.6594 15.3692 29.1192 15.1831C27.1394 11.1473 22.9891 8.54737 18.4952 8.54737C17.6318 8.54737 16.7826 8.64278 15.9717 8.82406C16.3676 8.95763 16.8113 9.16754 17.1643 9.51101C17.5936 9.92127 18.0754 10.6702 17.918 11.9153C17.7749 13.0507 16.9592 13.7234 16.2388 14.3149C15.2847 15.0925 14.8458 15.5123 15.1845 16.5236C15.2942 16.8528 15.7808 17.4587 16.2483 18.0407L16.2722 18.0693C17.3503 19.4146 18.4523 20.7837 18.0564 22.0336C17.8465 22.668 17.3074 23.1165 16.4487 23.3645C15.2799 23.6985 14.2495 22.9161 13.4242 22.2912C12.5512 21.6281 11.6448 20.9459 10.5142 21.1319C9.59827 21.2846 8.80637 21.0842 8.16235 20.5404C7.57081 20.0443 7.1319 19.2667 6.85521 18.2315C6.73118 18.9232 6.66919 19.6388 6.66919 20.3639C6.66919 21.0222 6.72643 21.6996 6.84569 22.377C8.1385 22.1719 9.43128 22.8064 10.1612 24.0133C10.6573 24.8386 11.3443 24.748 12.618 24.4999H12.6466C13.5673 24.3186 14.5214 24.1326 15.3276 24.6717C15.8858 25.0438 15.9717 25.9024 15.5757 27.1475C15.0509 28.7886 14.0825 30.1005 12.8995 30.7874V30.7827ZM11.1916 29.9478L11.1582 29.924C9.16891 28.3974 7.68053 26.2364 6.96496 23.8416L6.92678 23.7176L7.05082 23.6937C7.84272 23.5554 8.55828 23.9227 9.03056 24.6955C10.0324 26.3652 11.6782 26.0408 12.8851 25.8023C13.5387 25.6687 14.073 25.5781 14.4308 25.6925L14.5071 25.7164V25.7975C14.5167 26.265 14.1636 27.5912 13.2811 28.6884C12.6705 29.4565 11.9597 29.8906 11.2298 29.9383H11.1868L11.1916 29.9478ZM7.21778 23.8988C7.92858 26.1839 9.35975 28.2448 11.2584 29.7141C12.0789 29.6377 12.7134 29.0462 13.1046 28.5501C13.8869 27.5721 14.2447 26.3795 14.2781 25.8881C13.9346 25.8213 13.3813 25.9311 12.9281 26.0265C11.6591 26.2793 9.91789 26.6228 8.83498 24.8148C8.43426 24.1564 7.86656 23.8368 7.21778 23.9036V23.8988ZM23.6378 29.5757C22.865 29.5757 21.992 29.5089 21.7535 29.2275L21.7249 29.1941V29.1512C21.7392 28.7838 22.1447 28.4356 22.4405 28.1827C22.5025 28.1303 22.5597 28.0778 22.6074 28.0349C23.0797 27.6007 23.5949 27.1905 24.1006 26.7898C25.2073 25.912 26.3522 25.0008 27.0774 23.7987C27.9933 22.2721 27.3445 21.1797 26.8245 20.2971C26.5192 19.7724 26.171 19.1856 26.2091 18.5177C26.2711 17.3299 27.521 16.6095 29.8109 16.433H29.8967L29.9254 16.5093C30.3404 17.7497 30.5503 19.0472 30.5503 20.3639C30.5503 23.7605 29.1001 27.0187 26.5765 29.3086L26.5526 29.3324H26.5192C25.9802 29.4326 25.3982 29.4994 24.7875 29.5328C24.5538 29.5471 24.1101 29.5757 23.6331 29.5757H23.6378ZM21.9539 29.1082C22.1971 29.2895 23.2085 29.4135 24.7732 29.3038C25.36 29.2656 25.9229 29.2036 26.4477 29.113C28.9092 26.8709 30.3213 23.6842 30.3213 20.3591C30.3213 19.0949 30.1257 17.8546 29.7345 16.662C28.2461 16.786 26.5001 17.2106 26.4286 18.5225C26.3952 19.1236 26.71 19.6579 27.0106 20.1731C27.5353 21.0556 28.2509 22.2673 27.2634 23.9084C26.5192 25.1487 25.3552 26.0694 24.2341 26.9615C23.7332 27.3574 23.218 27.7677 22.7553 28.1923C22.7076 28.2352 22.6456 28.2877 22.5788 28.3449C22.345 28.5453 21.9968 28.8458 21.9491 29.1034L21.9539 29.1082ZM15.8762 22.1147C15.4326 22.1147 14.9364 21.7664 14.2256 21.2274C13.0712 20.3448 11.7975 19.5672 10.2995 19.8153C9.76523 19.9059 9.35974 19.8153 9.02104 19.5147C7.8475 18.532 7.81887 16.371 7.79502 14.9398V14.792L7.80457 14.7681C8.85885 12.7883 10.414 11.1473 12.3079 10.0167L12.3461 10.0024C13.7915 9.76385 15.3849 9.63027 16.2483 10.4508C16.5536 10.7418 16.6729 11.1711 16.5966 11.7341C16.5203 12.359 15.9669 12.8074 15.3849 13.2797C14.4928 14.0096 13.2763 15.0019 13.9203 16.9244C14.1064 17.4825 14.6311 18.1265 15.237 18.8755L15.2561 18.8994C16.1243 19.9823 16.9639 21.0795 16.7969 21.6138C16.7302 21.8428 16.3772 21.9906 16.0909 22.0717C16.0194 22.0908 15.9478 22.1004 15.8715 22.1004L15.8762 22.1147ZM10.8767 19.5434C12.1934 19.5434 13.3288 20.2542 14.3687 21.0461C15.1416 21.6281 15.6377 21.9763 16.0337 21.8666C16.4296 21.7521 16.568 21.6185 16.5823 21.5613C16.7254 21.0986 15.652 19.7676 15.0796 19.0568L15.1463 18.9614L15.0557 19.0329C14.4355 18.2696 13.906 17.6065 13.7009 17.0102C13.0092 14.9351 14.2924 13.8903 15.2322 13.1223C15.8142 12.65 16.3056 12.2493 16.3724 11.7198C16.4392 11.2236 16.3438 10.8706 16.0909 10.6273C15.2036 9.77816 13.2572 10.093 12.4033 10.2361C10.5619 11.3381 9.04487 12.9362 8.01444 14.8587V14.9446C8.03352 16.2517 8.06693 18.4318 9.15937 19.3478C9.45037 19.6006 9.7843 19.6769 10.2566 19.5958C10.4665 19.5625 10.6669 19.5434 10.8672 19.5434H10.8767Z" fill="#00AEEF"/>
</svg>
