<svg width="26" height="40" viewBox="0 0 26 40" fill="none" xmlns="http://www.w3.org/2000/svg">
<path d="M0.859897 30.6388C0.385975 30.6388 0.00488281 30.2577 0.00488281 29.7838V3.34677C0.00488281 1.49994 1.50481 0 3.35164 0H21.7222C23.569 0 25.069 1.49994 25.069 3.34677V9.07292C25.069 9.54684 24.6879 9.92793 24.214 9.92793C23.7401 9.92793 23.359 9.54684 23.359 9.07292V3.34677C23.359 2.4429 22.6261 1.71003 21.7222 1.71003H3.35164C2.44777 1.71003 1.71491 2.4429 1.71491 3.34677V29.7838C1.71491 30.2577 1.33382 30.6388 0.859897 30.6388Z" fill="#00AEEF"/>
<path d="M13.314 4.19831H11.7554C11.2815 4.19831 10.9004 3.81722 10.9004 3.3433C10.9004 2.86937 11.2815 2.48828 11.7554 2.48828H13.314C13.7879 2.48828 14.169 2.86937 14.169 3.3433C14.169 3.81722 13.7879 4.19831 13.314 4.19831Z" fill="#00AEEF"/>
<path d="M13.314 37.5069H11.7554C11.2815 37.5069 10.9004 37.1258 10.9004 36.6519C10.9004 36.178 11.2815 35.7969 11.7554 35.7969H13.314C13.7879 35.7969 14.169 36.178 14.169 36.6519C14.169 37.1258 13.7879 37.5069 13.314 37.5069Z" fill="#00AEEF"/>
<path d="M15.8052 4.19903C15.5805 4.19903 15.3606 4.1062 15.1994 3.94986C15.1603 3.91077 15.1261 3.8668 15.0919 3.81794C15.0626 3.77397 15.0381 3.72022 15.0137 3.67136C14.9942 3.61762 14.9795 3.56388 14.9649 3.51013C14.9551 3.45639 14.9502 3.39776 14.9502 3.34402C14.9502 3.28539 14.9502 3.23164 14.9649 3.1779C14.9795 3.12416 14.9942 3.07041 15.0137 3.01667C15.0381 2.96293 15.0626 2.91407 15.0919 2.87009C15.1261 2.82124 15.1603 2.77727 15.1994 2.73818C15.517 2.42061 16.0886 2.42061 16.411 2.73818C16.5674 2.89941 16.6602 3.11927 16.6602 3.34402C16.6602 3.56876 16.5674 3.78863 16.411 3.94986C16.2498 4.1062 16.03 4.19903 15.8052 4.19903Z" fill="#00AEEF"/>
<path d="M9.26908 4.19903C9.04434 4.19903 8.82448 4.1062 8.66325 3.94986C8.50202 3.78863 8.40918 3.56876 8.40918 3.34402C8.40918 3.11927 8.50202 2.89941 8.66325 2.73818C8.98083 2.42061 9.55248 2.42061 9.87006 2.73818C10.0313 2.89941 10.1241 3.11927 10.1241 3.34402C10.1241 3.56876 10.0313 3.78863 9.87006 3.94986C9.70883 4.1062 9.48895 4.19903 9.26908 4.19903Z" fill="#00AEEF"/>
<path d="M21.7174 39.9979H3.34676C1.49993 39.9979 0 38.498 0 36.6511V30.2019C0 29.728 0.381092 29.3469 0.855014 29.3469C1.32894 29.3469 1.71003 29.728 1.71003 30.2019V36.6511C1.71003 37.555 2.44289 38.2879 3.34676 38.2879H21.7174C22.6212 38.2879 23.3541 37.555 23.3541 36.6511V9.06595C23.3541 8.59203 23.7352 8.21094 24.2091 8.21094C24.683 8.21094 25.0641 8.59203 25.0641 9.06595V36.6511C25.0641 38.498 23.5642 39.9979 21.7174 39.9979Z" fill="#00AEEF"/>
<path d="M7.16615 17.3242H7.12985C6.66454 17.3242 6.28516 17.7048 6.28516 18.1689V21.8466C6.28516 22.3125 6.66454 22.6918 7.12985 22.6918H7.16676C7.63207 22.6918 8.01146 22.3113 8.01146 21.8466V18.1689C8.01084 17.7048 7.63086 17.3242 7.16615 17.3242Z" fill="#052460"/>
<path d="M8.41504 23.2679C8.41504 23.6951 8.76416 24.043 9.19134 24.043H10.0209V26.0294C10.0209 26.4959 10.4015 26.8753 10.8656 26.8753H10.9019C11.3678 26.8753 11.7478 26.4954 11.7478 26.0294V24.043H12.9071V26.0294C12.9071 26.4959 13.2889 26.8753 13.753 26.8753H13.7888C14.2546 26.8753 14.634 26.4954 14.634 26.0294V24.043H15.4642C15.8908 24.043 16.2399 23.6951 16.2399 23.2679V17.4609H8.41504V23.2679Z" fill="#052460"/>
<path d="M14.278 13.9369L14.937 12.9198C14.9793 12.8556 14.9606 12.7679 14.8958 12.7261C14.8317 12.6838 14.744 12.7013 14.7022 12.7673L14.0191 13.8195C13.5066 13.6096 12.9342 13.4916 12.3297 13.4916C11.7246 13.4916 11.1534 13.6096 10.6397 13.8195L9.95779 12.7673C9.91605 12.7013 9.82769 12.6838 9.76295 12.7261C9.69821 12.7679 9.67945 12.8556 9.7218 12.9198L10.3813 13.9369C9.19234 14.5196 8.39062 15.6178 8.39062 16.8775C8.39062 16.955 8.39548 17.0312 8.40213 17.1069H16.2578C16.2645 17.0312 16.2687 16.955 16.2687 16.8775C16.2687 15.6178 15.4664 14.5196 14.278 13.9369ZM10.5084 15.7582C10.2996 15.7582 10.1302 15.5899 10.1302 15.3806C10.1302 15.1712 10.2996 15.0036 10.5084 15.0036C10.7184 15.0036 10.8866 15.1712 10.8866 15.3806C10.8866 15.59 10.7172 15.7582 10.5084 15.7582ZM14.1504 15.7582C13.9416 15.7582 13.7722 15.5899 13.7722 15.3806C13.7722 15.1712 13.9416 15.0036 14.1504 15.0036C14.3597 15.0036 14.5279 15.1712 14.5279 15.3806C14.5279 15.5899 14.3597 15.7582 14.1504 15.7582Z" fill="#052460"/>
<path d="M17.5265 17.3242H17.4914C17.0261 17.3242 16.6455 17.7048 16.6455 18.1689V21.8466C16.6455 22.3125 17.0267 22.6918 17.4914 22.6918H17.5271C17.993 22.6918 18.3718 22.3113 18.3718 21.8466V18.1689C18.3718 17.7048 17.9918 17.3242 17.5265 17.3242Z" fill="#052460"/>
</svg>
