<?xml version="1.0" encoding="UTF-8"?>
<svg xmlns="http://www.w3.org/2000/svg" version="1.1" viewBox="0 0 512 512">
  <defs>
    <style>
      .cls-1 {
        fill: #066fd0;
      }

      .cls-1, .cls-2 {
        stroke-width: 0px;
      }

      .cls-2 {
        fill: #062360;
      }
    </style>
  </defs>
  <g id="Layer_1" data-name="Layer 1" image-rendering="optimizeQuality" shape-rendering="geometricPrecision" text-rendering="geometricPrecision">
    <g>
      <path class="cls-1" d="M241.8,206.9c-21.2,4.9-38.2,21.7-43.4,42.7-5.2,21.1.8,42.6,16,57.5,5.4,5.3,8.6,13.7,8.6,22.6v1.4c0,5.9,2.6,11.1,6.6,14.8v11.7c0,10.9,8.9,19.8,19.8,19.8h13.2c10.9,0,19.8-8.9,19.8-19.8v-11.7c4.1-3.6,6.6-8.9,6.6-14.8v-1.4c0-8.8,3.4-17.4,9.1-23.1,11.2-11.2,17.4-26.1,17.4-42,0-37.9-35.1-66.8-73.7-57.8ZM269.2,357.6c0,3.6-3,6.6-6.6,6.6h-13.2c-3.6,0-6.6-3-6.6-6.6v-6.6h26.4v6.6ZM288.7,297.4c-8.2,8.2-12.9,20-12.9,32.4v1.4c0,3.6-3,6.6-6.6,6.6h-26.4c-3.6,0-6.6-3-6.6-6.6v-1.4c0-12.6-4.6-24.2-12.6-32.1-11.8-11.6-16.5-28.4-12.4-44.9,4-16.3,17.2-29.2,33.6-33,30.2-7.1,57.5,15.5,57.5,44.9s-4.8,23.9-13.5,32.7Z"/>
      <path class="cls-1" d="M204.6,204l-18.7-18.7c-2.6-2.6-6.8-2.6-9.3,0-2.6,2.6-2.6,6.8,0,9.3l18.7,18.7c2.6,2.6,6.8,2.6,9.3,0,2.6-2.6,2.6-6.8,0-9.3Z"/>
      <path class="cls-1" d="M176.7,258.1h-26.9c-3.6,0-6.6,3-6.6,6.6s3,6.6,6.6,6.6h26.9c3.6,0,6.6-3,6.6-6.6s-3-6.6-6.6-6.6Z"/>
      <path class="cls-1" d="M362.1,258.1h-26.9c-3.6,0-6.6,3-6.6,6.6s3,6.6,6.6,6.6h26.9c3.6,0,6.6-3,6.6-6.6s-3-6.6-6.6-6.6Z"/>
      <path class="cls-1" d="M335.4,185.3c-2.6-2.6-6.8-2.6-9.3,0l-18.7,18.7c-2.6,2.6-2.6,6.8,0,9.3,2.6,2.6,6.8,2.6,9.3,0l18.7-18.7c2.6-2.6,2.6-6.8,0-9.3Z"/>
      <path class="cls-1" d="M256,152c-3.6,0-6.6,3-6.6,6.6v26.9c0,3.6,3,6.6,6.6,6.6s6.6-3,6.6-6.6v-26.9c0-3.6-3-6.6-6.6-6.6Z"/>
      <path class="cls-2" d="M256,231.7c-2.7,0-5.5.3-8.2,1-11.4,2.7-20.9,12-23.7,23.3-.9,3.5,1.3,7.1,4.8,8,3.5.9,7.1-1.3,8-4.8,1.6-6.5,7.3-12.1,13.9-13.6,1.8-.4,3.5-.6,5.2-.6,3.6,0,6.6-3,6.6-6.6s-3-6.6-6.6-6.6Z"/>
    </g>
  </g>
</svg>