<svg width="105" height="105" viewBox="0 0 105 105" fill="none" xmlns="http://www.w3.org/2000/svg">
<path d="M45.9621 25.9193C36.2361 28.1673 28.437 35.8747 26.0514 45.5089C23.6658 55.1889 26.4184 65.0525 33.3917 71.8882C35.8691 74.3197 37.3372 78.1733 37.3372 82.2564V82.8987C37.3372 85.6054 38.53 87.991 40.3651 89.6885V95.0561C40.3651 100.057 44.4481 104.14 49.4487 104.14H55.5045C60.5051 104.14 64.5881 100.057 64.5881 95.0561V89.6885C66.4691 88.0369 67.616 85.6054 67.616 82.8987V82.2564C67.616 78.2192 69.1759 74.2738 71.7909 71.6588C76.9291 66.5206 79.7735 59.6849 79.7735 52.3904C79.7735 35.003 63.6706 21.7445 45.9621 25.8735V25.9193ZM58.5324 95.0561C58.5324 96.7077 57.1561 98.084 55.5045 98.084H49.4487C47.7971 98.084 46.4208 96.7077 46.4208 95.0561V92.0282H58.5324V95.0561ZM67.4784 67.4381C63.7165 71.2 61.5603 76.6135 61.5603 82.3023V82.9445C61.5603 84.5961 60.184 85.9724 58.5324 85.9724H46.4208C44.7693 85.9724 43.3929 84.5961 43.3929 82.9445V82.3023C43.3929 76.5217 41.2826 71.2 37.6124 67.5757C32.1989 62.254 30.0427 54.5466 31.9237 46.9769C33.7588 39.499 39.8145 33.5808 47.3384 31.8375C61.1932 28.5802 73.7177 38.9484 73.7177 52.4363C73.7177 65.9242 71.5156 63.4009 67.5243 67.4381H67.4784Z" fill="#066FD0"/>
<path d="M28.8958 24.5888L20.3168 16.0098C19.124 14.817 17.1972 14.817 16.0502 16.0098C14.8574 17.2026 14.8574 19.1295 16.0502 20.2764L24.6293 28.8554C25.8221 30.0482 27.7489 30.0482 28.8958 28.8554C30.0886 27.6626 30.0886 25.7358 28.8958 24.5888Z" fill="#066FD0"/>
<path d="M16.0961 49.4092H3.75518C2.10361 49.4092 0.727295 50.7855 0.727295 52.4371C0.727295 54.0886 2.10361 55.4649 3.75518 55.4649H16.0961C17.7477 55.4649 19.124 54.0886 19.124 52.4371C19.124 50.7855 17.7477 49.4092 16.0961 49.4092Z" fill="#066FD0"/>
<path d="M101.152 49.4092H88.8112C87.1596 49.4092 85.7833 50.7855 85.7833 52.4371C85.7833 54.0886 87.1596 55.4649 88.8112 55.4649H101.152C102.804 55.4649 104.18 54.0886 104.18 52.4371C104.18 50.7855 102.804 49.4092 101.152 49.4092Z" fill="#066FD0"/>
<path d="M88.903 16.0098C87.7102 14.817 85.7834 14.817 84.6365 16.0098L76.0574 24.5888C74.8646 25.7817 74.8646 27.7085 76.0574 28.8554C77.2502 30.0482 79.1771 30.0482 80.324 28.8554L88.903 20.2764C90.0958 19.0836 90.0958 17.1568 88.903 16.0098Z" fill="#066FD0"/>
<path d="M52.4766 0.733398C50.825 0.733398 49.4487 2.10971 49.4487 3.76129V16.1022C49.4487 17.7538 50.825 19.1301 52.4766 19.1301C54.1282 19.1301 55.5045 17.7538 55.5045 16.1022V3.76129C55.5045 2.10971 54.1282 0.733398 52.4766 0.733398Z" fill="#066FD0"/>
<path d="M52.4767 37.2969C51.238 37.2969 49.9534 37.4345 48.7147 37.7556C43.4848 38.9943 39.1264 43.2609 37.8419 48.445C37.429 50.0507 38.4383 51.7023 40.044 52.1152C41.6497 52.5281 43.3012 51.5188 43.7141 49.9131C44.4482 46.9311 47.0632 44.3619 50.091 43.6738C50.9168 43.4903 51.6967 43.3985 52.4767 43.3985C54.1282 43.3985 55.5045 42.0222 55.5045 40.3706C55.5045 38.7191 54.1282 37.3428 52.4767 37.3428V37.2969Z" fill="#062360"/>
</svg>
