<svg width="40" height="36" viewBox="0 0 40 36" fill="none" xmlns="http://www.w3.org/2000/svg">
<path d="M36.1103 10.5183L35.8773 10.2568L36.1246 10.0095L37.2658 8.86828L37.5274 8.60675L37.7889 8.86828L38.1883 9.26771C38.3738 9.45316 38.6258 9.55778 38.8826 9.55778C39.1489 9.55778 39.3961 9.45316 39.5816 9.26771C39.767 9.08226 39.8716 8.83501 39.8716 8.56872C39.8716 8.30719 39.767 8.05992 39.5816 7.86972L38.4023 6.69044L38.3785 6.66668L38.3595 6.63813C38.3215 6.58107 38.2787 6.52877 38.2311 6.48598C38.1978 6.45269 38.1598 6.42891 38.1218 6.40514L38.098 6.38611L38.0695 6.35758L36.8712 5.1593C36.6905 4.98336 36.448 4.88825 36.1912 4.88825C35.9344 4.88825 35.6919 4.98812 35.5064 5.16406C35.1165 5.53971 35.1023 6.16738 35.4827 6.5573L35.8773 6.95197L36.1389 7.21351L35.8773 7.47504L34.6791 8.67332L34.4461 8.90633L34.1845 8.70186C31.845 6.85688 29.0443 5.74418 26.0771 5.4874L25.7395 5.45887V1.96862H28.1455C28.6876 1.96862 29.1298 1.52639 29.1298 0.984312C29.1298 0.442229 28.6876 0 28.1455 0H21.3552C20.8132 0 20.3709 0.442229 20.3709 0.984312C20.3709 1.52639 20.8132 1.96862 21.3552 1.96862H23.7613V5.45887L23.4237 5.4874C19.6386 5.81551 16.1294 7.53685 13.5426 10.3424C10.9415 13.1621 9.51025 16.8283 9.51025 20.6705C9.51025 29.0775 16.3481 35.9154 24.7551 35.9154C33.1527 35.9058 39.9905 29.068 40 20.6705C40 16.9187 38.621 13.3143 36.1246 10.5183H36.1103ZM24.7456 33.9467C17.4275 33.9467 11.4741 27.9933 11.4741 20.6752C11.4741 13.3571 17.4275 7.40371 24.7456 7.40371C32.0542 7.41322 38.0076 13.3666 38.0172 20.6752C38.0172 27.9933 32.0637 33.9467 24.7456 33.9467Z" fill="#00AEEF"/>
<path d="M4.37939 10.121H11.8449C12.387 10.121 12.8292 9.67872 12.8292 9.13664C12.8292 8.59456 12.387 8.15234 11.8449 8.15234H4.37939C3.83731 8.15234 3.39508 8.59456 3.39508 9.13664C3.39508 9.67872 3.83731 10.121 4.37939 10.121Z" fill="#00AEEF"/>
<path d="M2.34429 15.5467H7.77463C8.31671 15.5467 8.75894 15.1045 8.75894 14.5624C8.75894 14.0204 8.31671 13.5781 7.77463 13.5781H2.34429C1.80221 13.5781 1.35999 14.0204 1.35999 14.5624C1.35999 15.1045 1.80221 15.5467 2.34429 15.5467Z" fill="#00AEEF"/>
<path d="M11.8497 31.2305H4.38415C3.84207 31.2305 3.39984 31.6727 3.39984 32.2148C3.39984 32.7569 3.84207 33.1991 4.38415 33.1991H11.8497C12.3918 33.1991 12.834 32.7569 12.834 32.2148C12.834 31.6727 12.3918 31.2305 11.8497 31.2305Z" fill="#00AEEF"/>
<path d="M2.34429 27.7694H7.77463C8.31671 27.7694 8.75894 27.3272 8.75894 26.7851C8.75894 26.243 8.31671 25.8008 7.77463 25.8008H2.34429C1.80221 25.8008 1.35999 26.243 1.35999 26.7851C1.35999 27.3272 1.80221 27.7694 2.34429 27.7694Z" fill="#00AEEF"/>
<path d="M7.09463 21.66C7.63671 21.66 8.07893 21.2178 8.07893 20.6757C8.07893 20.1336 7.63671 19.6914 7.09463 19.6914H0.984308C0.442225 19.6914 0 20.1336 0 20.6757C0 21.2178 0.442225 21.66 0.984308 21.66H7.09463Z" fill="#00AEEF"/>
<path d="M24.7456 11.5391C24.2035 11.5391 23.7613 11.9813 23.7613 12.5234V20.6689C23.7613 21.2109 24.2035 21.6532 24.7456 21.6532C25.2877 21.6532 25.7299 21.2109 25.7299 20.6689V12.5234C25.7299 11.9813 25.2877 11.5391 24.7456 11.5391Z" fill="#052460"/>
</svg>
