<svg width="36" height="40" viewBox="0 0 36 40" fill="none" xmlns="http://www.w3.org/2000/svg">
<path d="M17.8792 17.0904C14.2465 17.0904 11.2949 14.1341 11.2949 10.5062C11.2949 6.87818 14.2512 3.92188 17.8792 3.92188C21.5072 3.92188 24.4635 6.87818 24.4635 10.5062C24.4635 14.1341 21.5072 17.0904 17.8792 17.0904ZM17.8792 5.33617C15.0317 5.33617 12.7139 7.65391 12.7139 10.5014C12.7139 13.3489 15.0317 15.6667 17.8792 15.6667C20.7267 15.6667 23.0444 13.3489 23.0444 10.5014C23.0444 7.65391 20.7267 5.33617 17.8792 5.33617Z" fill="#052460"/>
<path d="M17.8781 21.0087C17.3767 21.0087 16.8706 20.9708 16.3786 20.8999C16.0948 20.8621 15.8678 20.6539 15.7921 20.3796L15.5367 19.4005C14.7325 19.1876 13.971 18.8707 13.252 18.4544L12.377 18.9653C12.131 19.1072 11.8235 19.093 11.5918 18.918C11.1897 18.6153 10.8066 18.2842 10.4565 17.9294C10.1018 17.5746 9.76594 17.1915 9.47267 16.7942C9.30239 16.5671 9.28349 16.2597 9.43012 16.009L9.94098 15.1339C9.52 14.4149 9.20308 13.6487 8.99496 12.8493L8.01583 12.5891C7.74148 12.5182 7.53334 12.2864 7.4955 12.0026C7.42455 11.5107 7.38672 11.0045 7.38672 10.5032C7.38672 10.0018 7.42455 9.49565 7.4955 9.00372C7.53334 8.71992 7.74148 8.49288 8.01583 8.4172L8.99496 8.15704C9.20781 7.35292 9.52473 6.59138 9.94098 5.87241L9.43012 4.99734C9.28822 4.75137 9.30239 4.44392 9.47267 4.21215C9.77067 3.81482 10.1018 3.43168 10.4565 3.07692C10.8113 2.72217 11.1944 2.39106 11.5918 2.08834C11.8188 1.91805 12.131 1.89913 12.377 2.04103L13.252 2.55188C13.971 2.1309 14.7373 1.81399 15.5367 1.60586L15.7921 0.62674C15.863 0.352394 16.0948 0.144268 16.3786 0.106427C17.3672 -0.0354757 18.3936 -0.0354757 19.3822 0.106427C19.666 0.144268 19.8931 0.352394 19.9687 0.62674L20.2242 1.60586C21.0283 1.81872 21.7946 2.13563 22.5088 2.55188L23.3839 2.04103C23.6298 1.89913 23.9373 1.91332 24.1691 2.08834C24.5664 2.38633 24.9495 2.71744 25.3043 3.07219C25.6591 3.42695 25.9902 3.81009 26.2882 4.20741C26.4584 4.43446 26.4773 4.74191 26.3307 4.99261L25.8199 5.86768C26.2408 6.58665 26.5578 7.35293 26.7659 8.15231L27.745 8.41246C28.0194 8.48341 28.2275 8.71519 28.2653 8.99899C28.3363 9.49565 28.3741 9.99704 28.3741 10.4984C28.3741 10.9998 28.3363 11.5059 28.2653 11.9979C28.2275 12.2817 28.0194 12.5087 27.745 12.5844L26.7659 12.8446C26.553 13.6487 26.2361 14.4102 25.8199 15.1292L26.3307 16.0043C26.4726 16.2502 26.4584 16.5577 26.2882 16.7894C25.9902 17.1868 25.6591 17.5699 25.3043 17.9247C24.9495 18.2794 24.5664 18.6105 24.1691 18.9085C23.942 19.0788 23.6298 19.0977 23.3839 18.9558L22.5088 18.445C21.7898 18.866 21.0236 19.1829 20.2242 19.391L19.9687 20.3701C19.8978 20.6445 19.666 20.8526 19.3822 20.8904C18.8856 20.9614 18.3842 20.9992 17.8828 20.9992L17.8781 21.0087ZM17.0408 19.5518C17.599 19.6039 18.1571 19.6039 18.7153 19.5518L18.9565 18.6295C19.0227 18.3693 19.2308 18.1706 19.4957 18.1139C20.4276 17.9152 21.3074 17.551 22.1115 17.0307C22.3338 16.884 22.6271 16.8793 22.8541 17.0118L23.6819 17.4942C23.8995 17.3145 24.1029 17.1253 24.3015 16.9314C24.5002 16.7327 24.6894 16.5246 24.8691 16.3117L24.3867 15.4839C24.2495 15.2522 24.2589 14.9636 24.4056 14.7413C24.9259 13.9372 25.2948 13.0574 25.4888 12.1256C25.5455 11.8654 25.7442 11.6526 25.9996 11.5864L26.922 11.3451C26.9456 11.066 26.9598 10.787 26.9598 10.5079C26.9598 10.2288 26.9456 9.94974 26.922 9.67067L25.9996 9.42943C25.7394 9.36321 25.5408 9.15509 25.4888 8.8902C25.2901 7.95838 24.9259 7.07858 24.4056 6.27447C24.2589 6.05215 24.2542 5.76361 24.3867 5.53184L24.8691 4.70407C24.6894 4.49122 24.5002 4.2831 24.3063 4.08443C24.1123 3.88577 23.8995 3.69657 23.6866 3.51682L22.8588 3.99929C22.6271 4.13646 22.3385 4.127 22.1162 3.98037C21.3121 3.46006 20.437 3.09585 19.5005 2.89718C19.2403 2.84042 19.0275 2.64175 18.9612 2.3816L18.72 1.45923C18.1619 1.4072 17.6037 1.4072 17.0456 1.45923L16.8043 2.3816C16.7381 2.64175 16.53 2.84042 16.2651 2.89718C15.3333 3.09585 14.4535 3.46006 13.6494 3.98037C13.427 4.127 13.1385 4.13173 12.9067 3.99929L12.079 3.51682C11.8614 3.69657 11.658 3.88577 11.4593 4.08443C11.2607 4.2831 11.0714 4.49122 10.8964 4.70407L11.3789 5.53184C11.5161 5.76361 11.5066 6.05215 11.36 6.27447C10.8397 7.07858 10.4755 7.95838 10.2768 8.8902C10.22 9.15036 10.0214 9.36321 9.76123 9.42943L8.83886 9.67067C8.81521 9.94974 8.80101 10.2288 8.80101 10.5079C8.80101 10.787 8.81521 11.066 8.83886 11.3451L9.76123 11.5864C10.0214 11.6526 10.22 11.8607 10.2768 12.1256C10.4755 13.0574 10.8397 13.9372 11.36 14.7413C11.5066 14.9636 11.5114 15.2522 11.3789 15.4839L10.8964 16.3117C11.0762 16.5246 11.2654 16.7327 11.4641 16.9314C11.658 17.13 11.8661 17.3145 12.0837 17.4942L12.9115 17.0118C13.1432 16.8793 13.4318 16.884 13.6541 17.0307C14.4582 17.551 15.3333 17.9152 16.2698 18.1139C16.53 18.1706 16.7428 18.3693 16.809 18.6295L17.0503 19.5518H17.0408Z" fill="#052460"/>
<path d="M34.8425 21.231C34.308 20.7391 33.5844 20.4364 32.8512 20.3985C32.0187 20.356 31.243 20.654 30.6612 21.231L26.7021 25.1475C26.6217 25.0104 26.5365 24.8827 26.4325 24.7644C25.9453 24.1873 25.231 23.8657 24.4269 23.8657H18.8832C17.8379 23.8657 16.8162 23.7285 15.8513 23.4636C13.3348 22.7683 10.9272 23.2744 8.89802 24.9347C8.07025 25.6111 7.46952 26.3443 7.08639 26.8788L6.09308 25.9138C5.96064 25.7861 5.78561 25.7152 5.60113 25.7152C5.41193 25.7152 5.22746 25.7956 5.09975 25.9327L0.270344 30.9466C0.142632 31.0791 0.071664 31.2636 0.0763941 31.448C0.0763941 31.6325 0.156816 31.8122 0.293989 31.94L8.46286 39.7209C8.60003 39.8487 8.7703 39.9149 8.94531 39.9149C9.12978 39.9149 9.30952 39.8439 9.4467 39.702L14.2335 34.7922C14.366 34.6598 14.437 34.4753 14.4322 34.2861C14.4322 34.1016 14.3518 33.9219 14.2194 33.7941L13.8031 33.3921L14.7586 33.2833C15.3357 33.2171 15.9222 33.184 16.504 33.184H24.9377C26.3095 33.184 27.4731 32.886 28.3954 32.2947C28.4049 32.29 28.4096 32.2853 28.4191 32.2805C28.7502 32.0487 29.0529 31.7791 29.3131 31.4669L34.9939 24.7833C35.9683 23.6386 35.9068 22.2102 34.8425 21.231ZM8.9264 38.2357L1.76504 31.4196L5.62007 27.4133L12.7388 34.3192L8.92166 38.2357H8.9264ZM33.9249 23.8751L28.2441 30.5588C28.0643 30.7716 27.8562 30.9608 27.6292 31.1169C26.9338 31.5568 26.0304 31.7791 24.9377 31.7791H16.504C15.8702 31.7791 15.2269 31.817 14.6025 31.8879L12.5071 32.1244L8.11754 27.8626C8.425 27.4085 8.98317 26.6801 9.79675 26.0179C11.4854 24.6367 13.4011 24.2346 15.4918 24.8117C16.5797 25.1144 17.7244 25.2658 18.8974 25.2658H24.4411C25.4344 25.2658 25.704 26.1267 25.704 26.6375C25.704 27.0112 25.5858 27.366 25.3776 27.6119C25.1506 27.8768 24.829 28.014 24.4222 28.014H19.5975C19.2096 28.014 18.8974 28.3262 18.8974 28.714C18.8974 29.1019 19.2096 29.4141 19.5975 29.4141H24.4222C25.2357 29.4141 25.9547 29.0972 26.4466 28.5201C26.8534 28.0424 27.0852 27.4085 27.1089 26.7369L31.6687 22.2244C32.3214 21.5716 33.3384 21.7371 33.906 22.2622C34.1993 22.5318 34.5966 23.1041 33.9391 23.8751H33.9249Z" fill="#00AEEF"/>
<path d="M8.94458 39.9967C8.74592 39.9967 8.55198 39.921 8.41008 39.7838L0.241239 32.0029C0.0898763 31.861 0.00473009 31.667 0 31.4589C0 31.2508 0.0709617 31.0521 0.217594 30.9007L5.047 25.8868C5.19363 25.7355 5.39702 25.6503 5.60514 25.6456C5.81327 25.6456 6.00722 25.726 6.15385 25.8679L7.08566 26.7714C7.45461 26.2605 8.0506 25.5463 8.85945 24.8841C10.9123 23.2096 13.3436 22.694 15.8836 23.3988C16.8439 23.6637 17.8561 23.8009 18.892 23.8009H24.4356C25.2634 23.8009 25.9966 24.1273 26.498 24.7232C26.5784 24.8178 26.654 24.9219 26.725 25.0307L30.6131 21.1804C31.2091 20.5844 31.999 20.2817 32.8599 20.3243C33.6073 20.3621 34.3499 20.6743 34.8986 21.1757C35.996 22.1879 36.0575 23.659 35.0547 24.832L29.3738 31.5156C29.109 31.8278 28.8015 32.1069 28.4657 32.3387L28.442 32.3576C27.5055 32.9583 26.3277 33.261 24.9417 33.261H16.508C15.9309 33.261 15.3491 33.2942 14.7721 33.3604L13.9821 33.4503L14.2801 33.7435C14.4268 33.8854 14.5119 34.0841 14.5166 34.2875C14.5166 34.4956 14.4409 34.699 14.2943 34.8456L9.50747 39.7555C9.36083 39.9068 9.16217 39.992 8.94932 39.992L8.94458 39.9967ZM5.60988 25.797C5.43959 25.797 5.27403 25.8679 5.15578 25.9909L0.326377 31.0048C0.208125 31.1231 0.146636 31.2839 0.151366 31.4494C0.151366 31.615 0.222305 31.7711 0.345287 31.8893L8.51416 39.6703C8.75539 39.8974 9.16217 39.8926 9.38921 39.6561L14.1761 34.7463C14.2943 34.6281 14.3558 34.4625 14.3558 34.2969C14.3558 34.1314 14.2849 33.9753 14.1666 33.8618L13.6321 33.3415L14.7484 33.2138C15.3302 33.1475 15.9215 33.1144 16.5033 33.1144H24.937C26.2945 33.1144 27.444 32.8212 28.3569 32.2346L28.4231 32.2819L28.3805 32.2204C28.7069 31.9934 29.0002 31.7238 29.2603 31.4211L34.9412 24.7374C35.8872 23.6259 35.8257 22.2447 34.7945 21.2892C34.2742 20.8115 33.5647 20.5135 32.8552 20.4756C32.8032 20.4756 32.7511 20.4756 32.6991 20.4756C31.947 20.4756 31.2517 20.7594 30.7219 21.2892L26.6919 25.2767L26.6446 25.1915C26.5689 25.0591 26.4837 24.9361 26.3844 24.8179C25.9114 24.2597 25.2208 23.9475 24.4356 23.9475H18.892C17.8419 23.9475 16.8155 23.8103 15.8411 23.5407C13.3483 22.8501 10.9691 23.3562 8.95405 24.9976C8.12156 25.6787 7.51611 26.4213 7.15663 26.9275L7.1046 26.9984L6.04504 25.972C5.92679 25.8585 5.7707 25.7922 5.60988 25.7922V25.797ZM8.93041 38.3412L8.87365 38.2891L1.66027 31.4163L1.71229 31.3596L5.62408 27.3011L5.68084 27.3532L12.8564 34.3159L12.8044 34.3726L8.93514 38.3412H8.93041ZM1.87783 31.4163L8.92567 38.1283L12.6341 34.3253L5.62879 27.5235L1.87783 31.4163ZM12.4732 32.2157L12.4496 32.1921L8.01277 27.8877L8.05062 27.8356C8.38173 27.3484 8.93985 26.6295 9.74397 25.972C11.4515 24.5766 13.3909 24.1651 15.5099 24.7516C16.5931 25.0496 17.7284 25.201 18.892 25.201H24.4356C25.4904 25.201 25.7742 26.1092 25.7742 26.6484C25.7742 27.0363 25.6465 27.4099 25.429 27.6701C25.1877 27.9539 24.8472 28.0958 24.4167 28.0958H19.592C19.2467 28.0958 18.9676 28.3749 18.9676 28.7202C18.9676 29.0655 19.2467 29.3445 19.592 29.3445H24.4167C25.2066 29.3445 25.9067 29.0371 26.3797 28.4789C26.7723 28.0154 27.0041 27.3957 27.023 26.743V26.7099L27.0466 26.691L31.6065 22.1785C32.2923 21.4926 33.3566 21.6629 33.9526 22.2163C34.208 22.4481 34.7188 23.0866 33.9951 23.938L28.3143 30.6217C28.1298 30.8392 27.917 31.0332 27.6852 31.194C26.9757 31.6434 26.0533 31.8704 24.9465 31.8704H16.5127C15.8836 31.8704 15.2451 31.9082 14.616 31.9792L12.4827 32.2204L12.4732 32.2157ZM8.21143 27.864L12.53 32.0549L14.5923 31.8231C15.2261 31.7474 15.8695 31.7143 16.5033 31.7143H24.937C26.0155 31.7143 26.9047 31.4967 27.5906 31.0616C27.8082 30.9055 28.0116 30.7257 28.1866 30.5176L33.8674 23.834C34.4539 23.1481 34.1749 22.6325 33.839 22.3251C33.2951 21.8237 32.3254 21.6676 31.7058 22.2873L27.1649 26.7808C27.1365 27.462 26.9 28.1005 26.4885 28.583C25.9824 29.179 25.2445 29.5054 24.4072 29.5054H19.5825C19.1521 29.5054 18.8068 29.1553 18.8068 28.7296C18.8068 28.3039 19.1568 27.9539 19.5825 27.9539H24.4072C24.7904 27.9539 25.0931 27.8262 25.306 27.5802C25.5046 27.3484 25.6134 27.0126 25.6134 26.6578C25.6134 26.1754 25.3627 25.3618 24.4309 25.3618H18.8872C17.7094 25.3618 16.56 25.2057 15.4627 24.9077C13.3956 24.3354 11.5036 24.7374 9.83384 26.0997C9.07703 26.7193 8.53307 27.4005 8.20669 27.8782L8.21143 27.864Z" fill="#00AEEF"/>
<path d="M17.4011 28.5318C17.3113 28.1534 16.9376 27.9217 16.5592 28.0115C16.1808 28.1014 15.949 28.4751 16.0389 28.8535V28.8819C16.1193 29.2035 16.4078 29.4211 16.7247 29.4211C16.7768 29.4211 16.8335 29.4164 16.8856 29.4022C17.264 29.3123 17.4957 28.9386 17.4059 28.5602V28.5318H17.4011Z" fill="#00AEEF"/>
<path d="M16.7251 29.4961C16.3608 29.4961 16.0534 29.2502 15.9683 28.8954V28.867C15.8642 28.4508 16.1243 28.0298 16.5406 27.9352C16.9568 27.8359 17.3778 28.096 17.4724 28.5123V28.5407C17.5292 28.7441 17.4913 28.9522 17.3826 29.1272C17.2738 29.3022 17.1035 29.4252 16.9001 29.4725C16.8433 29.4867 16.7818 29.4914 16.7203 29.4914L16.7251 29.4961ZM16.7156 28.0677C16.6683 28.0677 16.621 28.0724 16.5737 28.0818C16.2379 28.1623 16.0297 28.4981 16.1102 28.8292V28.8576C16.1953 29.1887 16.5311 29.3968 16.867 29.3211C17.2028 29.2407 17.4109 28.9049 17.3305 28.5738V28.5454C17.2548 28.2569 16.9994 28.0629 16.7156 28.0629V28.0677Z" fill="#00AEEF"/>
</svg>
