<?xml version="1.0" encoding="UTF-8"?>
<svg xmlns="http://www.w3.org/2000/svg" version="1.1" viewBox="0 0 512 512">
  <defs>
    <style>
      .cls-1 {
        fill: #066fd0;
      }

      .cls-1, .cls-2 {
        stroke-width: 0px;
      }

      .cls-2 {
        fill: #062360;
      }
    </style>
  </defs>
  <g id="Layer_1" data-name="Layer 1" image-rendering="optimizeQuality" shape-rendering="geometricPrecision" text-rendering="geometricPrecision">
    <path class="cls-2" d="M240.8,297.8l47.6-47.6c2.7-2.7,2.7-7.2,0-9.9-2.7-2.7-7.2-2.7-9.9,0l-42.7,42.7-21.6-21.6c-1.3-1.3-3.1-2.1-5-2.1s-3.6.7-5,2.1-2.1,3.1-2.1,5,.7,3.6,2.1,5l26.6,26.6c2.7,2.7,7.2,2.7,9.9,0Z"/>
    <path class="cls-1" d="M342.3,193.7l-93.3-38.7c-.9-.4-1.8-.5-2.7-.5s-1.8.2-2.7.5l-93.3,38.7c-2.6,1.1-4.3,3.6-4.3,6.5v47.1c0,31.3,9.2,61.6,26.7,87.5,17.4,26,42,45.9,71,57.8,1.7.7,3.6.7,5.3,0,29-11.8,53.5-31.8,71-57.8,17.4-26,26.7-56.2,26.7-87.5v-47.1c0-2.8-1.7-5.4-4.3-6.5ZM332.6,247.3c0,56.6-33.5,107.9-85.2,130.7l-1,.4-1-.4c-51.8-22.8-85.2-74.1-85.2-130.7v-42.4l86.2-35.8,86.2,35.8v42.4Z"/>
  </g>
</svg>