<?xml version="1.0" encoding="UTF-8" standalone="no" ?>
<!DOCTYPE svg PUBLIC "-//W3C//DTD SVG 1.1//EN" "http://www.w3.org/Graphics/SVG/1.1/DTD/svg11.dtd">
<svg xmlns="http://www.w3.org/2000/svg" xmlns:xlink="http://www.w3.org/1999/xlink" version="1.1" width="200" height="239" viewBox="0 0 200 239" xml:space="preserve">
<desc>Created with Fabric.js 3.6.6</desc>
<defs>
</defs>
<g transform="matrix(1 0 0 1 110 102)"  >
<g style=""   >
		<g transform="matrix(1 0 0 1 -9.74 13.14)"  >
<path style="stroke: none; stroke-width: 0; stroke-dasharray: none; stroke-linecap: butt; stroke-dashoffset: 0; stroke-linejoin: miter; stroke-miterlimit: 4; fill: rgb(6,35,96); fill-rule: nonzero; opacity: 1;"  transform=" translate(-246.26, -269.15)" d="M 240.8 297.8 l 47.6 -47.6 c 2.7 -2.7 2.7 -7.2 0 -9.9 c -2.7 -2.7 -7.2 -2.7 -9.9 0 l -42.7 42.7 l -21.6 -21.6 c -1.3 -1.3 -3.1 -2.1 -5 -2.1 s -3.6 0.7 -5 2.1 s -2.1 3.1 -2.1 5 s 0.7 3.6 2.1 5 l 26.6 26.6 c 2.7 2.7 7.2 2.7 9.9 0 Z" stroke-linecap="round" />
</g>
		<g transform="matrix(1 0 0 1 -9.65 17.81)"  >
<path style="stroke: none; stroke-width: 0; stroke-dasharray: none; stroke-linecap: butt; stroke-dashoffset: 0; stroke-linejoin: miter; stroke-miterlimit: 4; fill: rgb(6,111,208); fill-rule: nonzero; opacity: 1;"  transform=" translate(-246.35, -273.81)" d="M 342.3 193.7 l -93.3 -38.7 c -0.9 -0.4 -1.8 -0.5 -2.7 -0.5 s -1.8 0.2 -2.7 0.5 l -93.3 38.7 c -2.6 1.1 -4.3 3.6 -4.3 6.5 v 47.1 c 0 31.3 9.2 61.6 26.7 87.5 c 17.4 26 42 45.9 71 57.8 c 1.7 0.7 3.6 0.7 5.3 0 c 29 -11.8 53.5 -31.8 71 -57.8 c 17.4 -26 26.7 -56.2 26.7 -87.5 v -47.1 c 0 -2.8 -1.7 -5.4 -4.3 -6.5 Z M 332.6 247.3 c 0 56.6 -33.5 107.9 -85.2 130.7 l -1 0.4 l -1 -0.4 c -51.8 -22.8 -85.2 -74.1 -85.2 -130.7 v -42.4 l 86.2 -35.8 l 86.2 35.8 v 42.4 Z" stroke-linecap="round" />
</g>
</g>
</g>
</svg>