<svg width="41" height="40" viewBox="0 0 41 40" fill="none" xmlns="http://www.w3.org/2000/svg">
<path d="M30.9811 4.73892C28.6645 4.49165 26.387 3.97757 24.1875 3.20321C22.1768 2.49391 20.2441 1.56337 18.4221 0.444121C17.4525 -0.14804 16.2356 -0.14804 15.2661 0.444121C13.4505 1.56988 11.5179 2.49391 9.50062 3.20321C7.30116 3.97757 5.02361 4.49165 2.70703 4.73892C1.1648 4.8951 0 6.19655 0 7.74528V16.7188C0 23.4603 3.65709 29.6748 9.55268 32.9479L15.3767 36.1821C15.8257 36.4358 16.3332 36.566 16.8473 36.566C17.3614 36.566 17.869 36.4358 18.318 36.1821L20.4068 35.0237C20.2571 34.7504 20.127 34.4771 20.0099 34.1908C19.7951 33.6637 19.6259 33.1236 19.4958 32.5705L17.0621 33.924C16.9319 33.9956 16.7757 33.9956 16.6456 33.924L10.8216 30.6899C5.75243 27.8723 2.60291 22.5233 2.60291 16.7253V7.75178C2.60291 7.53053 2.7721 7.34182 2.99335 7.3223C5.51166 7.0555 7.99093 6.49588 10.3726 5.65644C12.559 4.88207 14.6609 3.87996 16.6326 2.65659C16.6977 2.61754 16.7692 2.59803 16.8473 2.59803C16.9254 2.59803 16.997 2.61754 17.0621 2.65659C19.0338 3.87345 21.1356 4.88207 23.3221 5.65644C25.7102 6.49588 28.1895 7.0555 30.7013 7.3223C30.9226 7.34182 31.0917 7.53053 31.0917 7.75178V16.7253C31.0917 16.927 31.0787 17.1288 31.0722 17.337C31.9312 17.5127 32.7966 17.6298 33.6491 17.825C33.6686 17.4606 33.6881 17.0962 33.6881 16.7318V7.7583C33.6881 6.20957 32.5168 4.91461 30.9811 4.75193V4.73892Z" fill="#00AEEF"/>
<path d="M15.9818 22.1263C15.663 22.1263 15.3571 22.0091 15.1229 21.8009L11.238 18.3455C10.7044 17.8705 10.6589 17.0506 11.1339 16.517C11.609 15.9834 12.4224 15.9378 12.956 16.4064L15.8972 19.0223L21.513 13.0356C21.9946 12.5085 22.8145 12.476 23.3416 12.9575C23.8687 13.4391 23.9012 14.259 23.4196 14.7861C23.4131 14.7926 23.4066 14.7991 23.4001 14.8056L16.9254 21.7163C16.6781 21.9766 16.3397 22.1263 15.9818 22.1263Z" fill="#00AEEF"/>
<path d="M29.6216 33.6492V32.582" stroke="#052460" stroke-width="2" stroke-linecap="round" stroke-linejoin="round"/>
<path d="M40.0004 28.0861C40.0004 33.819 35.3542 38.4652 29.6213 38.4652C23.8884 38.4652 19.2422 33.819 19.2422 28.0861C19.2422 22.3532 23.8884 17.707 29.6213 17.707C35.3542 17.707 40.0004 22.3532 40.0004 28.0861Z" stroke="#052460" stroke-width="2" stroke-linecap="round" stroke-linejoin="round"/>
<path d="M27.1421 30.3335C27.1421 31.5764 28.2548 32.5851 29.6214 32.5851C30.9879 32.5851 32.1006 31.5764 32.1006 30.3335C32.1006 29.0907 30.9879 28.082 29.6214 28.082" stroke="#052460" stroke-width="2" stroke-linecap="round" stroke-linejoin="round"/>
<path d="M29.6214 28.089C28.2548 28.089 27.1421 27.0803 27.1421 25.8374C27.1421 24.5946 28.2548 23.5859 29.6214 23.5859C30.9879 23.5859 32.1006 24.5946 32.1006 25.8374" stroke="#052460" stroke-width="2" stroke-linecap="round" stroke-linejoin="round"/>
<path d="M29.6216 22.5195V23.5867" stroke="#052460" stroke-width="2" stroke-linecap="round" stroke-linejoin="round"/>
</svg>
