<svg width="41" height="38" viewBox="0 0 41 38" fill="none" xmlns="http://www.w3.org/2000/svg">
<path d="M28.2379 6.54392C29.4029 7.63885 30.4138 8.58671 31.5788 9.68164C30.9648 10.1719 30.5189 10.5268 29.9726 10.9633C28.42 9.40616 26.7811 7.81395 25.231 6.14003C25.0115 5.9019 25.0372 5.08479 25.2706 4.83498C26.8045 3.19142 28.427 1.63189 30.0659 0C30.4815 0.478596 30.8527 0.908165 31.4294 1.57353C30.4348 2.41866 29.3515 3.3385 28.0512 4.44277C29.2628 4.60853 30.0986 4.6739 30.9157 4.83965C36.7593 6.0233 40.9826 11.0824 40.9966 17.0357C41.0013 19.2395 41.0433 21.5065 40.5764 23.638C39.374 29.143 34.5694 33.0091 28.9407 33.1725C25.252 33.2799 21.5563 33.1935 17.7695 33.1935V31.3282C18.1781 31.3282 18.5937 31.3282 19.0069 31.3282C22.0792 31.3282 25.1516 31.3539 28.2216 31.3212C34.5601 31.2581 39.1382 26.6193 39.1266 20.2668C39.1242 18.5999 39.1663 16.9073 38.9165 15.2684C38.1507 10.2396 33.4395 6.34781 28.2379 6.54626V6.54392Z" fill="#00AEEF"/>
<path d="M12.8418 31.2385C11.6092 30.1342 10.5749 29.2097 9.38428 28.1428C10.031 27.6128 10.4722 27.2533 11.0255 26.8027C12.5664 28.3529 14.1516 29.9381 15.7251 31.5373C16.227 32.0463 16.1757 32.5809 15.6877 33.0758C14.1352 34.6494 12.5804 36.2206 11.0302 37.7871C10.5329 37.3248 10.1173 36.9373 9.48934 36.3536C10.5796 35.3894 11.6442 34.4486 12.8979 33.3396C11.7376 33.1809 10.8971 33.1132 10.0777 32.9498C4.2458 31.7731 0.00847276 26.6883 0.00146892 20.7467C-0.000865693 18.5429 -0.0358849 16.2783 0.426369 14.1468C1.62403 8.62309 6.54072 4.73129 12.1858 4.60989C15.5663 4.53751 18.9492 4.58654 22.332 4.58654C22.5912 4.58654 22.8527 4.64024 23.1632 4.67526V6.40754C22.7359 6.42855 22.3601 6.46357 21.9865 6.46357C18.9142 6.46824 15.8442 6.44256 12.7718 6.47057C6.50103 6.52894 1.8855 11.1561 1.86682 17.4106C1.86216 19.0775 1.83881 20.7654 2.05826 22.4113C2.72596 27.4331 7.53993 31.4626 12.8372 31.2338L12.8418 31.2385Z" fill="#00AEEF"/>
<path d="M14.4194 18.2799V18.3079C15.456 18.4876 16.3385 19.2464 16.3385 20.7242C16.3385 22.6316 15.0264 23.6121 12.9813 23.6121H8.50586V13.7344H12.7479C14.779 13.7344 15.9533 14.6332 15.9533 16.2207C15.9533 17.4371 15.2342 18.002 14.4194 18.2799ZM12.6942 17.8223C13.8685 17.8223 14.3097 17.353 14.3097 16.4822C14.3097 15.6114 13.7704 15.1281 12.7899 15.1281H10.1518V17.8223H12.6942ZM10.1518 22.216H12.8599C14.27 22.216 14.6973 21.553 14.6973 20.6285C14.6973 19.6199 14.0762 19.0526 13.0397 19.0526H10.1518V22.216Z" fill="#052460"/>
<path d="M17.3081 17.4523C17.3081 15.3932 18.4123 13.8594 20.859 13.8594C22.6263 13.8594 24.0224 14.91 24.0224 16.7333C24.0224 19.773 19.9462 20.2842 19.1594 22.2313V22.2593H23.9244V23.6134H17.0723C17.0723 21.9278 18.0808 20.6975 19.5446 19.773C21.2979 18.6126 22.4185 18.1574 22.4185 16.8033C22.4185 16.0166 22.045 15.2275 20.817 15.2275C19.3952 15.2275 18.8559 16.1403 18.8559 17.4523H17.3081Z" fill="#052460"/>
<path d="M31.23 18.2799V18.3079C32.2666 18.4876 33.149 19.2464 33.149 20.7242C33.149 22.6316 31.837 23.6121 29.7919 23.6121H25.3164V13.7344H29.5584C31.5895 13.7344 32.7638 14.6332 32.7638 16.2207C32.7638 17.4371 32.0448 18.002 31.23 18.2799ZM29.5047 17.8223C30.679 17.8223 31.1203 17.353 31.1203 16.4822C31.1203 15.6114 30.581 15.1281 29.6004 15.1281H26.9623V17.8223H29.5047ZM26.9623 22.216H29.6705C31.0806 22.216 31.5078 21.553 31.5078 20.6285C31.5078 19.6199 30.8868 19.0526 29.8502 19.0526H26.9623V22.216Z" fill="#052460"/>
</svg>
