<svg width="48" height="48" viewBox="0 0 48 48" fill="none" xmlns="http://www.w3.org/2000/svg">
<path d="M39.6264 8.73177C35.2331 8.73177 27.2338 7.83526 24.7276 4.53651C24.3016 3.86785 23.3704 3.80841 22.8603 4.44736C19.9132 7.74611 11.8942 8.73177 7.17389 8.73177C6.52504 8.73177 6 9.2568 6 9.90565V28.7273C6 37.2021 15.7576 42.383 23.1476 43.9927C24.1035 44.2008 40.7904 39.9708 40.7904 28.7273V9.90565C40.7904 9.2568 40.2654 8.73177 39.6165 8.73177H39.6264ZM38.6061 28.7719C38.6061 37.6924 25.4012 41.3131 23.4002 41.8084C21.3991 41.3131 8.19422 37.6974 8.19422 28.7719V10.9408C17.3326 10.7279 21.8895 8.09777 23.7023 6.67129C27.3527 9.90069 33.7372 10.8319 38.6011 10.9408V28.7719H38.6061Z" fill="#00AEEF"/>
<path d="M23.4058 32.7057C18.6013 32.7057 14.6934 28.7977 14.6934 23.9932C14.6934 19.1887 18.6013 15.2808 23.4058 15.2808C28.2103 15.2808 32.1183 19.1887 32.1183 23.9932C32.1183 28.7977 28.2103 32.7057 23.4058 32.7057ZM23.4058 16.9995C19.5474 16.9995 16.4121 20.1397 16.4121 23.9932C16.4121 27.8467 19.5523 30.987 23.4058 30.987C27.2593 30.987 30.3996 27.8467 30.3996 23.9932C30.3996 20.1397 27.2593 16.9995 23.4058 16.9995Z" fill="#052460"/>
<path d="M20 24L21.8892 25.8892L22.2041 26.2041L26.3461 22.0621" stroke="#052460" stroke-width="2"/>
</svg>
