<svg width="113" height="113" viewBox="0 0 113 113" fill="none" xmlns="http://www.w3.org/2000/svg">
<path d="M75.2597 47.3904H79.9391V26.3787C79.9391 26.1493 79.8932 25.9199 79.8015 25.6905C79.8015 25.6446 79.8015 25.5529 79.8015 25.507C79.6639 25.2318 79.4803 24.9565 79.251 24.7271L55.9454 1.42155C55.4866 0.962784 54.9361 0.733398 54.2938 0.733398H2.95741C1.67285 0.733398 0.617676 1.78857 0.617676 3.07313V101.067C0.617676 102.351 1.67285 103.406 2.95741 103.406H49.6144V98.7268H5.29713V5.41286H51.9541V26.4246C51.9541 27.7091 53.0093 28.7643 54.2938 28.7643H75.3055V47.4362L75.2597 47.3904ZM56.5877 24.0389V8.67013L71.9565 24.0389H56.5877Z" fill="#066FD0"/>
<path d="M110.264 75.3751H105.584V73.0354C105.584 63.9976 98.29 56.7031 89.2522 56.7031C88.5641 56.7031 87.8759 56.7031 87.2336 56.8408C79.0675 57.85 72.9659 65.0069 72.9659 73.5859V75.3751H68.2864C67.0018 75.3751 65.9467 76.4303 65.9467 77.7148V110.379C65.9467 111.664 67.0018 112.719 68.2864 112.719H110.264C111.548 112.719 112.604 111.664 112.604 110.379V77.7148C112.604 76.4303 111.548 75.3751 110.264 75.3751ZM77.5994 73.5859C77.5994 67.3925 81.9578 62.2084 87.7841 61.4743C94.1611 60.6485 100.033 65.1904 100.813 71.5673C100.859 72.0719 100.905 72.5307 100.905 73.0354V75.3751H77.5536V73.5859H77.5994ZM107.924 108.04H70.5802V80.0545H107.924V108.04Z" fill="#062360"/>
<path d="M86.9585 93.4051V101.021C86.9585 102.305 88.0136 103.36 89.2982 103.36C90.5828 103.36 91.6379 102.305 91.6379 101.021V93.3592C93.84 92.0288 94.5741 89.1844 93.2436 86.9823C92.4179 85.5601 90.858 84.6885 89.2523 84.6885C86.6832 84.6885 84.6188 86.7529 84.5729 89.3221C84.5729 91.0195 85.4904 92.5793 86.9585 93.4051Z" fill="#062360"/>
</svg>
