<svg width="35" height="40" viewBox="0 0 35 40" fill="none" xmlns="http://www.w3.org/2000/svg">
<path d="M33.6264 4.73177C29.233 4.73177 21.2338 3.83526 18.7276 0.536511C18.3016 -0.132154 17.3704 -0.191587 16.8603 0.44736C13.9132 3.74611 5.89416 4.73177 1.17388 4.73177C0.525024 4.73177 0 5.25679 0 5.90564V24.7273C0 33.202 9.75756 38.383 17.1475 39.9927C18.1035 40.2008 34.7904 35.9708 34.7904 24.7273V5.90564C34.7904 5.25679 34.2654 4.73177 33.6165 4.73177H33.6264ZM32.6061 24.7719C32.6061 33.6924 19.4012 37.3131 17.4002 37.8084C15.3991 37.3131 2.19421 33.6974 2.19421 24.7719V6.94084C11.3326 6.72785 15.8895 4.09777 17.7023 2.67129C21.3527 5.90069 27.7372 6.83187 32.6012 6.94084V24.7719H32.6061Z" fill="#00AEEF"/>
<path d="M17.4001 25.068C16.9246 25.068 16.5432 24.6817 16.5432 24.2111V23.4038C16.5432 22.9283 16.9296 22.5469 17.4001 22.5469C17.8707 22.5469 18.257 22.9332 18.257 23.4038V24.2111C18.257 24.6866 17.8707 25.068 17.4001 25.068Z" fill="#052460"/>
<path d="M17.4001 28.7101C12.5956 28.7101 8.68762 24.8021 8.68762 19.9976C8.68762 15.1931 12.5956 11.2852 17.4001 11.2852C22.2046 11.2852 26.1125 15.1931 26.1125 19.9976C26.1125 24.8021 22.2046 28.7101 17.4001 28.7101ZM17.4001 13.0039C13.5417 13.0039 10.4064 16.1441 10.4064 19.9976C10.4064 23.8511 13.5466 26.9914 17.4001 26.9914C21.2536 26.9914 24.3938 23.8511 24.3938 19.9976C24.3938 16.1441 21.2536 13.0039 17.4001 13.0039Z" fill="#052460"/>
<path d="M17.4002 24.2611C15.8945 24.2611 14.6661 23.1119 14.6661 21.7003C14.6661 21.2248 15.0525 20.8434 15.523 20.8434C15.9936 20.8434 16.3799 21.2298 16.3799 21.7003C16.3799 22.1709 16.8356 22.5423 17.3953 22.5423C17.955 22.5423 18.4107 22.1659 18.4107 21.7003C18.4107 21.2347 17.955 20.8583 17.3953 20.8583C16.9198 20.8583 16.5384 20.472 16.5384 20.0014C16.5384 19.5309 16.9247 19.1445 17.3953 19.1445C18.901 19.1445 20.1294 20.2936 20.1294 21.7053C20.1294 23.1169 18.901 24.266 17.3953 24.266L17.4002 24.2611Z" fill="#052460"/>
<path d="M17.4002 20.852C15.8945 20.852 14.6661 19.7028 14.6661 18.2912C14.6661 16.8796 15.8945 15.7305 17.4002 15.7305C18.906 15.7305 20.1343 16.8796 20.1343 18.2912C20.1343 18.7667 19.748 19.1481 19.2775 19.1481C18.8069 19.1481 18.4206 18.7618 18.4206 18.2912C18.4206 17.8207 17.9649 17.4492 17.4052 17.4492C16.8455 17.4492 16.3898 17.8256 16.3898 18.2912C16.3898 18.7568 16.8455 19.1332 17.4052 19.1332C17.8807 19.1332 18.2621 19.5196 18.2621 19.9901C18.2621 20.4607 17.8757 20.847 17.4052 20.847L17.4002 20.852Z" fill="#052460"/>
<path d="M17.4001 17.4508C16.9246 17.4508 16.5432 17.0645 16.5432 16.5939V15.7866C16.5432 15.3111 16.9296 14.9297 17.4001 14.9297C17.8707 14.9297 18.257 15.316 18.257 15.7866V16.5939C18.257 17.0694 17.8707 17.4508 17.4001 17.4508Z" fill="#052460"/>
</svg>
