<?xml version="1.0" encoding="UTF-8"?>
<svg xmlns="http://www.w3.org/2000/svg" version="1.1" viewBox="0 0 512 512">
  <defs>
    <style>
      .cls-1 {
        fill: #066fd0;
      }

      .cls-1, .cls-2 {
        stroke-width: 0px;
      }

      .cls-2 {
        fill: #062360;
      }
    </style>
  </defs>
  <g id="Layer_1" data-name="Layer 1" image-rendering="optimizeQuality" shape-rendering="geometricPrecision" text-rendering="geometricPrecision">
    <g>
      <path class="cls-1" d="M301.2,253.7h10.2v-45.8c0-.5-.1-1-.3-1.5,0-.1,0-.3,0-.4-.3-.6-.7-1.2-1.2-1.7l-50.8-50.8c-1-1-2.2-1.5-3.6-1.5h-111.9c-2.8,0-5.1,2.3-5.1,5.1v213.6c0,2.8,2.3,5.1,5.1,5.1h101.7v-10.2h-96.6v-203.4h101.7v45.8c0,2.8,2.3,5.1,5.1,5.1h45.8v40.7h0ZM260.5,202.8v-33.5l33.5,33.5h-33.5Z"/>
      <g>
        <path class="cls-2" d="M377.5,314.7h-10.2v-5.1c0-19.7-15.9-35.6-35.6-35.6-1.5,0-3,0-4.4.3-17.8,2.2-31.1,17.8-31.1,36.5v3.9h-10.2c-2.8,0-5.1,2.3-5.1,5.1v71.2c0,2.8,2.3,5.1,5.1,5.1h91.5c2.8,0,5.1-2.3,5.1-5.1v-71.2c0-2.8-2.3-5.1-5.1-5.1ZM306.3,310.8c0-13.5,9.5-24.8,22.2-26.4,13.9-1.8,26.7,8.1,28.4,22,.1,1.1.2,2.1.2,3.2v5.1h-50.9v-3.9ZM372.4,385.9h-81.4v-61h81.4v61Z"/>
        <path class="cls-2" d="M326.7,354v16.6c0,2.8,2.3,5.1,5.1,5.1s5.1-2.3,5.1-5.1v-16.7c4.8-2.9,6.4-9.1,3.5-13.9-1.8-3.1-5.2-5-8.7-5-5.6,0-10.1,4.5-10.2,10.1,0,3.7,2,7.1,5.2,8.9Z"/>
      </g>
    </g>
  </g>
</svg>