<svg width="41" height="40" viewBox="0 0 41 40" fill="none" xmlns="http://www.w3.org/2000/svg">
<path fill-rule="evenodd" clip-rule="evenodd" d="M24.8278 6.46963C25.1749 6.63776 25.3213 7.05535 25.1586 7.40244C24.9959 7.74953 24.5729 7.89596 24.2258 7.73326C22.1758 6.75165 19.8818 6.20389 17.463 6.20389C8.76404 6.20389 1.665 13.303 1.665 22.0019C1.665 30.7008 8.76404 37.7999 17.463 37.7999C26.1619 37.7999 33.261 30.7008 33.261 22.0019C33.261 20.4725 33.0387 18.992 32.6319 17.5874C32.5234 17.2186 32.735 16.8281 33.1092 16.7196C33.4779 16.6112 33.8684 16.8227 33.9769 17.1915C34.4216 18.7154 34.6602 20.3315 34.6602 21.9965C34.6602 31.4655 26.9375 39.1883 17.4684 39.1883C7.99937 39.1883 0.276611 31.4655 0.276611 21.9965C0.276611 12.5274 7.99937 4.80469 17.4684 4.80469C20.1041 4.80469 22.5988 5.40125 24.8332 6.46963H24.8278Z" fill="#00AEEF"/>
<path d="M17.4629 39.465C7.83119 39.465 0 31.6283 0 22.002C0 12.3757 7.83661 4.53906 17.4629 4.53906C20.077 4.53906 22.5934 5.10851 24.9471 6.23113C25.4298 6.4589 25.6358 7.03919 25.4026 7.52187C25.2887 7.75507 25.0935 7.93403 24.8495 8.02081C24.6054 8.10758 24.3397 8.09131 24.1065 7.98284C22.0185 6.98496 19.7787 6.4806 17.4575 6.4806C8.8996 6.4806 1.93069 13.4441 1.93069 22.0074C1.93069 30.5708 8.89418 37.5289 17.4575 37.5289C26.0209 37.5289 32.979 30.5654 32.979 22.0074C32.979 20.5323 32.7729 19.0735 32.3607 17.6688C32.2088 17.1536 32.5071 16.6167 33.0169 16.4649C33.2664 16.3889 33.5267 16.4215 33.7545 16.5462C33.9823 16.6709 34.145 16.877 34.2209 17.1265C34.6819 18.7101 34.9205 20.3479 34.9205 22.0074C34.9205 31.6392 27.0839 39.4704 17.4575 39.4704L17.4629 39.465ZM17.4629 5.07597C8.12947 5.07597 0.542328 12.6686 0.542328 21.9966C0.542328 31.3246 8.13489 38.9172 17.4629 38.9172C26.791 38.9172 34.3836 31.3246 34.3836 21.9966C34.3836 20.3913 34.1558 18.8023 33.7111 17.2675C33.6786 17.159 33.608 17.0668 33.505 17.0126C33.402 16.9584 33.2881 16.9475 33.1796 16.9801C32.9518 17.0451 32.8217 17.2838 32.8867 17.5115C33.3098 18.965 33.5267 20.4727 33.5267 22.002C33.5267 30.8582 26.3191 38.0658 17.4629 38.0658C8.60672 38.0658 1.39379 30.8582 1.39379 22.002C1.39379 13.1458 8.60129 5.93285 17.4629 5.93285C19.8654 5.93285 22.1812 6.45348 24.3451 7.48933C24.4481 7.53814 24.5674 7.54356 24.6705 7.5056C24.779 7.46763 24.8657 7.39171 24.9145 7.28867C25.0176 7.07716 24.9254 6.82226 24.7139 6.71922C22.4361 5.63456 20.001 5.08139 17.4629 5.08139V5.07597Z" fill="#00AEEF"/>
<path fill-rule="evenodd" clip-rule="evenodd" d="M16.7632 15.1612V14.0277C16.7632 13.6427 17.0777 13.3281 17.4628 13.3281C17.8479 13.3281 18.1624 13.6427 18.1624 14.0277V15.1558C19.6647 15.351 21.1073 16.2187 21.8177 17.9054C21.9696 18.2633 21.8014 18.6701 21.4435 18.8219C21.0856 18.9738 20.6788 18.8056 20.527 18.4477C19.7406 16.5767 17.6526 16.1699 16.1504 16.7665C15.2121 17.1353 14.4909 17.9108 14.5451 19.0117C14.5831 19.7384 14.9518 20.2211 15.4616 20.5574C16.0744 20.9587 16.8608 21.1593 17.593 21.2787C19.6159 21.6095 21.8882 22.4718 22.1811 24.8743C22.4793 27.3419 20.2721 28.638 18.1679 28.8658V29.983C18.1679 30.3681 17.8533 30.6826 17.4682 30.6826C17.0832 30.6826 16.7686 30.3681 16.7686 29.983V28.855C14.9085 28.6218 13.2326 27.51 12.75 25.5685C12.6578 25.1943 12.8856 24.8146 13.2598 24.7224C13.634 24.6302 14.0136 24.858 14.1058 25.2322C14.5017 26.8158 16.069 27.5371 17.6147 27.5046C18.4173 27.4883 19.3067 27.2768 19.963 26.8212C20.5216 26.4362 20.8903 25.8559 20.7927 25.0424C20.6951 24.256 20.2558 23.7408 19.6755 23.3937C18.9976 22.9816 18.1461 22.7863 17.3652 22.6562C15.4074 22.3308 13.2652 21.4088 13.1513 19.0822C13.0645 17.3359 14.1546 16.056 15.6406 15.4703C15.9985 15.3293 16.3782 15.2317 16.7686 15.172L16.7632 15.1612Z" fill="#00AEEF"/>
<path d="M17.4627 30.9391C16.9258 30.9391 16.492 30.5053 16.492 29.9684V29.0735C14.4583 28.7427 12.9343 27.4357 12.4788 25.6189C12.3486 25.0983 12.6686 24.5722 13.1838 24.4421C13.7044 24.3119 14.2305 24.6319 14.3606 25.1471C14.7511 26.7198 16.351 27.2567 17.5983 27.2134C18.4389 27.1917 19.2416 26.9639 19.8002 26.5788C20.3534 26.1992 20.592 25.6894 20.5161 25.0603C20.4401 24.4421 20.1202 23.9648 19.529 23.6123C18.8403 23.1947 17.9346 23.0103 17.3109 22.9127C14.545 22.4571 12.9669 21.0959 12.8692 19.0839C12.7825 17.343 13.7803 15.895 15.5321 15.2062C15.8358 15.0869 16.1557 14.9947 16.4866 14.935V14.0294C16.4866 13.4925 16.9204 13.0586 17.4574 13.0586C17.9943 13.0586 18.4281 13.4925 18.4281 14.0294V14.9242C20.0931 15.2116 21.4109 16.2529 22.0617 17.7985C22.2678 18.2921 22.0346 18.8615 21.5465 19.0676C21.3079 19.1706 21.0421 19.1706 20.8035 19.0676C20.5649 18.9645 20.3751 18.7856 20.2774 18.547C19.5724 16.8712 17.6743 16.4481 16.2479 17.0122C15.7978 17.1911 14.7511 17.7389 14.8108 18.9917C14.8379 19.5557 15.0982 19.9895 15.6026 20.3204C16.0798 20.6295 16.7415 20.8518 17.6309 20.9983C20.5703 21.4809 22.1919 22.7663 22.4467 24.8271C22.5661 25.7979 22.3329 26.6548 21.758 27.3761C21.0476 28.2709 19.8436 28.8891 18.4335 29.0898V29.9684C18.4335 30.5053 17.9997 30.9391 17.4627 30.9391ZM13.4224 24.9573C13.3899 24.9573 13.3519 24.9573 13.3194 24.9681C13.0916 25.0223 12.9506 25.2555 13.0103 25.4888C13.4224 27.1483 14.8759 28.3305 16.8011 28.5692L17.0398 28.5963V29.963C17.0398 30.1962 17.2296 30.3914 17.4682 30.3914C17.7068 30.3914 17.8966 30.2016 17.8966 29.963V28.6017L18.1407 28.5746C19.4911 28.4282 20.6896 27.8533 21.3404 27.0344C21.8177 26.4324 22.0129 25.7111 21.9153 24.8868C21.6983 23.0917 20.2286 21.9636 17.555 21.5243C16.5788 21.3616 15.8683 21.123 15.3206 20.7651C14.6644 20.3366 14.3173 19.7455 14.2793 19.0079C14.2251 17.8962 14.8921 16.9579 16.0581 16.5024C17.7285 15.8407 19.952 16.3505 20.7872 18.3354C20.8794 18.5524 21.1289 18.6554 21.3458 18.5632C21.5628 18.471 21.6658 18.2216 21.5736 18.0046C20.9716 16.5675 19.7189 15.6238 18.1353 15.4231L17.8966 15.3906V14.0239C17.8966 13.7907 17.7068 13.5955 17.4682 13.5955C17.2296 13.5955 17.0398 13.7853 17.0398 14.0239V15.396L16.8066 15.4286C16.4378 15.4828 16.0798 15.575 15.7382 15.7052C14.2142 16.3071 13.3465 17.5545 13.417 19.0513C13.5255 21.2694 15.646 22.0829 17.4085 22.3704C18.0756 22.4788 19.0464 22.6795 19.8165 23.1405C20.5432 23.5798 20.9662 24.2034 21.0584 24.9898C21.1614 25.825 20.8306 26.5246 20.1093 27.0235C19.4694 27.4628 18.5583 27.7286 17.6146 27.7503C16.1612 27.7828 14.3064 27.1591 13.8346 25.2772C13.7858 25.082 13.6122 24.9518 13.4224 24.9518V24.9573Z" fill="#00AEEF"/>
<path d="M40.5175 12.4079L34.0475 1.19797C33.6896 0.579721 33.0605 0.210938 32.3446 0.210938C31.6288 0.210938 30.9943 0.574297 30.6417 1.19797L24.1718 12.4079C23.8138 13.0261 23.8138 13.7583 24.1718 14.3765C24.5297 14.9948 25.1642 15.3636 25.8747 15.3636H38.8146C39.5305 15.3636 40.1596 15.0002 40.5175 14.382C40.8754 13.7583 40.8754 13.0316 40.5175 12.4133V12.4079ZM39.5576 13.8179C39.4003 14.0891 39.1237 14.2518 38.8092 14.2518H25.8692C25.5547 14.2518 25.2781 14.0891 25.1262 13.8234C24.969 13.5522 24.969 13.2322 25.1262 12.9611L31.5962 1.75115C31.7535 1.47998 32.0301 1.32271 32.3392 1.32271C32.6484 1.32271 32.9304 1.47998 33.0822 1.75115L39.5522 12.9611C39.7095 13.2322 39.7095 13.5522 39.5522 13.8234L39.5576 13.8179Z" fill="#052460"/>
<path d="M38.8091 15.5757H25.8691C25.0773 15.5757 24.3723 15.1689 23.9764 14.4856C23.5805 13.8022 23.5805 12.9888 23.9764 12.3L30.4463 1.09008C30.8422 0.406746 31.5473 0 32.3391 0C33.1309 0 33.8359 0.406746 34.2318 1.09008L40.7072 12.3C41.0977 12.9833 41.0977 13.7968 40.7072 14.4856C40.3113 15.1689 39.6009 15.5757 38.8145 15.5757H38.8091ZM32.3391 0.428439C31.7046 0.428439 31.1351 0.753836 30.8205 1.30701L24.3506 12.5169C24.0306 13.0755 24.0306 13.7155 24.3506 14.2686C24.6651 14.8164 25.2346 15.1472 25.8691 15.1472H38.8091C39.449 15.1472 40.0022 14.8272 40.3276 14.2686C40.6475 13.71 40.6475 13.0701 40.3276 12.5169L33.8576 1.30701C33.5376 0.748413 32.9845 0.428439 32.3391 0.428439ZM38.8091 14.4639H25.8691C25.4786 14.4639 25.1315 14.2632 24.9363 13.927C24.7411 13.5907 24.7411 13.1894 24.9363 12.8532L31.4063 1.64325C31.6015 1.30701 31.9486 1.10635 32.3391 1.10635C32.7296 1.10635 33.0766 1.30701 33.2719 1.64325L39.7418 12.8532C39.9371 13.1894 39.9371 13.5907 39.7418 13.927C39.5466 14.2632 39.1941 14.4693 38.8091 14.4693V14.4639ZM32.3391 1.53479C32.1005 1.53479 31.8998 1.6541 31.7805 1.86018L25.3105 13.0701C25.1912 13.2762 25.1912 13.5094 25.3105 13.7155C25.4298 13.9216 25.6305 14.0409 25.8691 14.0409H38.8091C39.0423 14.0409 39.2483 13.9216 39.3676 13.7155C39.4869 13.5094 39.4869 13.2762 39.3676 13.0701L32.8977 1.86018C32.7784 1.6541 32.5777 1.53479 32.3391 1.53479Z" fill="#052460"/>
<path d="M32.3391 10.2907C32.8868 10.2907 33.3424 9.85687 33.3586 9.3037L33.4942 5.49656C33.5051 5.20912 33.4075 4.95965 33.2068 4.74814C33.0061 4.54206 32.7567 4.43359 32.4692 4.43359H32.1927C31.9052 4.43359 31.6557 4.53664 31.4605 4.74272C31.2598 4.94881 31.1677 5.19828 31.1731 5.48571L31.3141 9.29827C31.3358 9.84603 31.7859 10.2853 32.3337 10.2853L32.3391 10.2907Z" fill="#052460"/>
<path d="M32.3389 10.9609C31.6936 10.9609 31.1675 11.487 31.1675 12.1324C31.1675 12.7777 31.6936 13.3038 32.3389 13.3038C32.9843 13.3038 33.5103 12.7777 33.5103 12.1324C33.5103 11.487 32.9843 10.9609 32.3389 10.9609Z" fill="#052460"/>
</svg>
