<svg width="40" height="40" viewBox="0 0 40 40" fill="none" xmlns="http://www.w3.org/2000/svg">
<path d="M20.0021 32.3793C13.1757 32.3793 7.62109 26.8247 7.62109 19.9982C7.62109 13.1718 13.1757 7.61719 20.0021 7.61719C26.8286 7.61719 32.3832 13.1718 32.3832 19.9982C32.3832 26.8247 26.8286 32.3793 20.0021 32.3793ZM20.0021 9.52502C14.229 9.52502 9.53389 14.2201 9.53389 19.9933C9.53389 25.7665 14.229 30.4615 20.0021 30.4615C25.7753 30.4615 30.4704 25.7665 30.4704 19.9933C30.4704 14.2201 25.7753 9.52502 20.0021 9.52502Z" fill="#052460"/>
<path d="M20.0025 39.9975C19.0436 39.9975 18.0797 39.9279 17.1407 39.7938C16.7582 39.7391 16.4501 39.4609 16.3508 39.0932L15.7844 36.9469C14.0951 36.5296 12.4904 35.8638 10.9949 34.9596L9.07714 36.0775C8.74426 36.2712 8.33189 36.2464 8.02385 36.0179C7.2637 35.4465 6.53336 34.8155 5.85767 34.1398C5.18198 33.4641 4.54602 32.7338 3.97963 31.9736C3.75109 31.6656 3.72625 31.2532 3.92001 30.9204L5.03789 29.0026C4.13365 27.5071 3.4679 25.9023 3.05056 24.2131L0.904238 23.6467C0.531614 23.5474 0.25837 23.2393 0.203718 22.8568C0.0695735 21.9178 0 20.9539 0 19.995C0 19.0361 0.0695735 18.0772 0.203718 17.1382C0.25837 16.7557 0.536582 16.4476 0.904238 16.3483L3.05056 15.7819C3.4679 14.0926 4.13365 12.4879 5.03789 10.9924L3.92001 9.07464C3.72625 8.74176 3.75109 8.32939 3.97963 8.02136C4.54602 7.2612 5.18198 6.53086 5.85767 5.85517C6.53336 5.17948 7.2637 4.5485 8.02385 3.97714C8.33189 3.7486 8.74923 3.72376 9.07714 3.91752L10.9949 5.03539C12.4904 4.13613 14.0951 3.4654 15.7844 3.04807L16.3508 0.90175C16.4501 0.529126 16.7582 0.255869 17.1407 0.201217C19.0187 -0.0670723 20.9812 -0.0670723 22.8593 0.201217C23.2368 0.255869 23.5499 0.534095 23.6492 0.90175L24.2156 3.04807C25.9049 3.4654 27.5096 4.13116 29.0051 5.03539L30.9229 3.91752C31.2557 3.72376 31.6681 3.7486 31.9761 3.97714C32.7363 4.54353 33.4666 5.17948 34.1423 5.85517C34.823 6.53583 35.454 7.2612 36.0204 8.02136C36.2489 8.32939 36.2738 8.74176 36.08 9.07464L34.9621 10.9924C35.8663 12.4879 36.5321 14.0926 36.9494 15.7819L39.0957 16.3483C39.4684 16.4476 39.7416 16.7557 39.7963 17.1382C39.9304 18.0772 40 19.0411 40 20C40 20.9589 39.9304 21.9178 39.7963 22.8617C39.7416 23.2393 39.4634 23.5523 39.0957 23.6517L36.9494 24.2181C36.5321 25.9073 35.8663 27.5121 34.9621 29.0076L36.08 30.9253C36.2738 31.2582 36.2489 31.6706 36.0204 31.9786C35.454 32.7388 34.823 33.4641 34.1423 34.1448C33.4666 34.8205 32.7363 35.4564 31.9761 36.0228C31.6681 36.2563 31.2557 36.2762 30.9229 36.0824L29.0051 34.9646C27.5096 35.8688 25.9049 36.5346 24.2156 36.9519L23.6492 39.0982C23.5499 39.4708 23.2418 39.7441 22.8593 39.7987C21.9202 39.9329 20.9614 40.0024 19.9975 40.0024L20.0025 39.9975ZM18.04 37.9803C19.3367 38.1195 20.6732 38.1195 21.9699 37.9803L22.5164 35.8986C22.6108 35.5508 22.8891 35.2825 23.2418 35.208C25.1049 34.8106 26.8637 34.0852 28.4685 33.0418C28.7716 32.8431 29.1591 32.8332 29.4721 33.017L31.3302 34.105C31.837 33.6976 32.3289 33.2555 32.7959 32.7934C33.2629 32.3264 33.7001 31.8395 34.1075 31.3278L33.0245 29.4646C32.8406 29.1516 32.8506 28.7641 33.0493 28.461C34.0926 26.8563 34.823 25.0975 35.2155 23.2344C35.29 22.8816 35.5583 22.5984 35.9061 22.509L37.9878 21.9625C38.0574 21.3116 38.0921 20.6558 38.0921 20C38.0921 19.3442 38.0574 18.6883 37.9878 18.0375L35.9061 17.491C35.5583 17.4016 35.29 17.1184 35.2155 16.7656C34.818 14.9025 34.0926 13.1437 33.0493 11.5389C32.8506 11.2359 32.8406 10.8483 33.0245 10.5353L34.1075 8.67221C33.7001 8.16544 33.258 7.67357 32.7959 7.20655C32.3338 6.7445 31.842 6.30232 31.3302 5.89491L29.4671 6.97801C29.1541 7.16184 28.7666 7.1519 28.4635 6.95317C26.8588 5.90982 25.1 5.17948 23.2369 4.78698C22.8841 4.71245 22.6009 4.44416 22.5115 4.09638L21.965 2.01465C20.6682 1.87554 19.3367 1.87554 18.035 2.01465L17.4885 4.09638C17.3941 4.44416 17.1159 4.71245 16.7631 4.78698C14.9 5.18444 13.1412 5.90982 11.5365 6.95317C11.2334 7.1519 10.8459 7.16184 10.5329 6.97801L8.66973 5.89491C8.16296 6.30232 7.67109 6.7445 7.20407 7.20655C6.74201 7.66861 6.29986 8.16047 5.89245 8.67221L6.97554 10.5353C7.15937 10.8483 7.14944 11.2359 6.95071 11.5389C5.90736 13.1437 5.17699 14.9025 4.7845 16.7656C4.70997 17.1184 4.44171 17.4016 4.09392 17.491L2.01219 18.0375C1.94264 18.6883 1.90785 19.3442 1.90785 20C1.90785 20.6558 1.94264 21.3116 2.01219 21.9625L4.09392 22.509C4.44171 22.5984 4.70997 22.8816 4.7845 23.2344C5.18196 25.0975 5.90736 26.8563 6.95071 28.461C7.14944 28.7641 7.1544 29.1516 6.97554 29.4646L5.89245 31.3278C6.29986 31.8345 6.74201 32.3264 7.20407 32.7934C7.66612 33.2555 8.15799 33.6976 8.66973 34.11L10.5329 33.022C10.8459 32.8381 11.2334 32.8481 11.5365 33.0468C13.1412 34.0901 14.8951 34.8205 16.7631 35.213C17.1159 35.2875 17.3991 35.5558 17.4885 35.9036L18.035 37.9853L18.04 37.9803Z" fill="#00AEEF"/>
<path d="M15.6514 20.0078L19 23L24.6973 17.3027" stroke="#052460" stroke-width="2"/>
</svg>
