<svg width="40" height="37" viewBox="0 0 40 37" fill="none" xmlns="http://www.w3.org/2000/svg">
<g id="Group 38191">
<g id="Group">
<g id="g17">
<g id="g19">
<g id="g25">
<path id="Vector" d="M37.6595 27.9683H2.34049C1.04676 27.9683 0 26.9156 0 25.6278V2.34049C0 1.04675 1.05264 0 2.34049 0H9.80888C10.4557 0 10.9791 0.523376 10.9791 1.17024C10.9791 1.81711 10.4557 2.34049 9.80888 2.34049H2.34049V25.6336H37.6595V2.34049H30.2676C29.6207 2.34049 29.0973 1.81711 29.0973 1.17024C29.0973 0.523376 29.6207 0 30.2676 0H37.6595C38.9533 0 40 1.05263 40 2.34049V25.6278C40 26.9215 38.9474 27.9683 37.6595 27.9683Z" fill="#00AEEF"/>
</g>
<path id="Vector_2" d="M24.9994 36.0925H14.9964C14.3495 36.0925 13.8262 35.5691 13.8262 34.9223V26.7952C13.8262 26.1484 14.3495 25.625 14.9964 25.625H24.9994C25.6462 25.625 26.1696 26.1484 26.1696 26.7952V34.9223C26.1696 35.5691 25.6462 36.0925 24.9994 36.0925ZM16.1666 33.7579H23.8291V27.9655H16.1666V33.7579Z" fill="#00AEEF"/>
<g id="g31">
<path id="Vector_3" d="M32.5028 36.0944H7.49836C6.85149 36.0944 6.32812 35.571 6.32812 34.9242C6.32812 34.2773 6.85149 33.7539 7.49836 33.7539H32.5028C33.1496 33.7539 33.673 34.2773 33.673 34.9242C33.673 35.571 33.1496 36.0944 32.5028 36.0944Z" fill="#00AEEF"/>
</g>
</g>
</g>
</g>
<path id="Vector 914" d="M8.92188 1.21094H32.1503" stroke="#00AEEF" stroke-width="2.4"/>
<g id="Group 38190">
<rect id="Rectangle 5160" x="8.33398" y="7.23828" width="6.61859" height="6.61858" fill="#052460"/>
<rect id="Rectangle 5161" x="16.8438" y="7.23828" width="15.601" height="6.61858" fill="#052460"/>
<rect id="Rectangle 5162" x="16.8438" y="15.2773" width="15.601" height="1.89102" fill="#052460"/>
<rect id="Rectangle 5163" x="16.8438" y="18.582" width="15.601" height="1.89102" fill="#052460"/>
</g>
</g>
</svg>
