<svg width="41" height="33" viewBox="0 0 41 33" fill="none" xmlns="http://www.w3.org/2000/svg">
<path d="M40.2694 3.49873C39.7366 2.87017 38.9957 2.48721 38.1756 2.4206L9.30351 0.0104315C8.48347 -0.0561708 7.68841 0.197751 7.05985 0.726407C6.43545 1.25506 6.05249 1.99601 5.98172 2.81189L5.39895 8.26079H3.08036C1.382 8.26079 0 9.64279 0 11.3412V29.4154C0 31.1137 1.382 32.4957 3.08036 32.4957H32.0524C33.7507 32.4957 35.1327 31.1137 35.1327 29.4154V26.4849L36.1609 26.5723C36.2483 26.5806 36.3357 26.5848 36.419 26.5848C38.0008 26.5848 39.3495 25.3651 39.4869 23.7625L40.9896 5.75072C41.0562 4.93068 40.8022 4.13561 40.2736 3.50705L40.2694 3.49873ZM3.08036 9.86341H32.0524C32.8682 9.86341 33.5301 10.5253 33.5301 11.3412V12.9896H1.60262V11.3412C1.60262 10.5253 2.26448 9.86341 3.08036 9.86341ZM1.60262 14.588H33.5301V17.9098H1.60262V14.588ZM32.0524 30.8931H3.08036C2.26448 30.8931 1.60262 30.2312 1.60262 29.4154V19.5124H33.5301V29.4154C33.5301 30.2312 32.8682 30.8931 32.0524 30.8931ZM39.3911 5.61335L37.8884 23.6251C37.8218 24.4368 37.1058 25.0446 36.2941 24.9738L35.1327 24.8781V11.3453C35.1327 9.64695 33.7507 8.26496 32.0524 8.26496H7.00989L7.57185 2.9784C7.57185 2.9784 7.57185 2.96591 7.57185 2.96175C7.63845 2.15003 8.35443 1.54228 9.16614 1.61305L38.0382 4.02322C38.4337 4.05652 38.7875 4.23968 39.0456 4.54355C39.3037 4.84742 39.4244 5.22623 39.3911 5.62168V5.61335Z" fill="#00AEEF"/>
<path d="M30.1791 21.8945H22.474C22.0328 21.8945 21.6748 22.2525 21.6748 22.6938V27.7222C21.6748 28.1635 22.0328 28.5215 22.474 28.5215H30.1791C30.6203 28.5215 30.9783 28.1635 30.9783 27.7222V22.6938C30.9783 22.2525 30.6203 21.8945 30.1791 21.8945ZM29.3799 26.923H23.2733V23.4971H29.3799V26.923Z" fill="#052460"/>
</svg>
