<svg width="118" height="82" viewBox="0 0 118 82" fill="none" xmlns="http://www.w3.org/2000/svg">
<path d="M108.545 0.0458799H20.9658C16.1487 0.0458799 12.1574 4.03718 12.1574 8.90015V12.2492H9.08365C4.08305 12.2492 0 16.2864 0 21.3328V72.5775C0 77.5322 4.03718 81.5694 9.08365 81.5694H96.2042C101.159 81.5694 105.196 77.5322 105.196 72.5775V66.9346H108.545C113.408 66.9346 117.399 62.9433 117.399 58.1262V8.85427C117.399 3.99131 113.408 0 108.545 0V0.0458799ZM99.645 64.2738V72.5775C99.645 74.5044 98.0852 76.0642 96.1583 76.0642H9.03778C7.06507 76.0642 5.45937 74.5044 5.45937 72.5775V21.3328C5.45937 19.3601 7.01919 17.7544 9.03778 17.7544H96.1583C98.0852 17.7544 99.645 19.3142 99.645 21.3328V64.2738ZM111.894 58.1721C111.894 59.9613 110.38 61.4753 108.545 61.4753H105.196V21.3787C105.196 16.3781 101.159 12.2951 96.2042 12.2951H17.7085V8.94603C17.7085 7.11094 19.2225 5.597 21.0117 5.597H108.591C110.426 5.597 111.94 7.11094 111.94 8.94603V58.218L111.894 58.1721Z" fill="#066FD0"/>
<path d="M74.1832 62.3467H14.6806C11.0563 62.3467 11.0563 67.8519 14.6806 67.8519H74.2749C77.8533 67.8519 77.8533 62.3467 74.229 62.3467H74.1832Z" fill="#062360"/>
<path d="M15.9193 44.822H33.6737C35.9217 44.822 37.7109 43.0328 37.7109 40.8307V27.3428C37.7109 25.0949 35.9217 23.3057 33.6737 23.3057H15.9193C13.7172 23.3057 11.928 25.0949 11.928 27.3428V40.8307C11.928 43.0328 13.7172 44.822 15.9193 44.822ZM17.4332 28.8109H32.2056V39.3168H17.4332V28.8109Z" fill="#066FD0"/>
<path d="M90.5154 23.3057H79.092C75.4677 23.3057 75.4677 28.8109 79.092 28.8109H90.5154C94.0938 28.8109 94.0938 23.3057 90.5154 23.3057Z" fill="#062360"/>
</svg>
