<?xml version="1.0" encoding="UTF-8"?>
<svg xmlns="http://www.w3.org/2000/svg" version="1.1" viewBox="0 0 512 512">
  <defs>
    <style>
      .cls-1 {
        fill: #066fd0;
      }

      .cls-1, .cls-2 {
        stroke-width: 0px;
      }

      .cls-2 {
        fill: #062360;
      }
    </style>
  </defs>
  <g id="Layer_1" data-name="Layer 1" image-rendering="optimizeQuality" shape-rendering="geometricPrecision" text-rendering="geometricPrecision">
    <g>
      <path class="cls-1" d="M364.7,167.1h-190.9c-10.5,0-19.2,8.7-19.2,19.3v7.3h-6.7c-10.9,0-19.8,8.8-19.8,19.8v111.7c0,10.8,8.8,19.6,19.8,19.6h189.9c10.8,0,19.6-8.8,19.6-19.6v-12.3h7.3c10.6,0,19.3-8.7,19.3-19.2v-107.4c0-10.6-8.7-19.3-19.3-19.3ZM345.3,307.1v18.1c0,4.2-3.4,7.6-7.6,7.6h-189.9c-4.3,0-7.8-3.4-7.8-7.6v-111.7c0-4.3,3.4-7.8,7.8-7.8h189.9c4.2,0,7.6,3.4,7.6,7.8v93.6ZM372,293.8c0,3.9-3.3,7.2-7.3,7.2h-7.3v-87.4c0-10.9-8.8-19.8-19.6-19.8h-171.1v-7.3c0-4,3.3-7.3,7.2-7.3h190.9c4,0,7.3,3.3,7.3,7.3v107.4Z"/>
      <path class="cls-2" d="M289.8,302.9h-129.7c-7.9,0-7.9,12,0,12h129.9c7.8,0,7.8-12-.1-12Z"/>
      <path class="cls-1" d="M162.8,264.7h38.7c4.9,0,8.8-3.9,8.8-8.7v-29.4c0-4.9-3.9-8.8-8.8-8.8h-38.7c-4.8,0-8.7,3.9-8.7,8.8v29.4c0,4.8,3.9,8.7,8.7,8.7ZM166.1,229.8h32.2v22.9h-32.2v-22.9Z"/>
      <path class="cls-2" d="M325.4,217.8h-24.9c-7.9,0-7.9,12,0,12h24.9c7.8,0,7.8-12,0-12Z"/>
    </g>
  </g>
</svg>