<svg width="40" height="40" viewBox="0 0 40 40" fill="none" xmlns="http://www.w3.org/2000/svg">
<path d="M1.91472 9.03243C1.83139 8.08608 1.88494 7.13378 2.08135 6.19933C2.33728 5.03872 2.8432 4.07452 3.58123 3.33649C4.61686 2.30086 6.06912 1.73543 7.90229 1.6521C8.78912 1.61639 9.67592 1.68187 10.5508 1.83067L10.783 0.509354C9.81282 0.33675 8.83077 0.271269 7.84871 0.312932C5.67033 0.414114 3.91452 1.11049 2.63487 2.39014C1.71233 3.31268 1.08738 4.49709 0.771935 5.91364C0.771935 5.91364 0.771935 5.91364 0.771935 5.9196C0.551716 6.97903 0.486247 8.06823 0.587428 9.14551L1.9266 9.02647L1.91472 9.03243Z" fill="#2AACE2"/>
<path d="M0.576256 9.44907C0.421507 9.44907 0.296518 9.33003 0.278663 9.17529C0.177481 8.06229 0.242956 6.94929 0.469127 5.86009C0.796479 4.37808 1.45116 3.14009 2.41536 2.17589C3.74858 0.842672 5.56391 0.116554 7.82562 0.00942068C8.83148 -0.0262905 9.83734 0.0391778 10.8253 0.211782C10.9027 0.223686 10.9741 0.271295 11.0158 0.336766C11.0575 0.402236 11.0813 0.479608 11.0634 0.556982L10.8313 1.8783C10.8194 1.95567 10.7718 2.0271 10.7063 2.06876C10.6408 2.11637 10.5635 2.12827 10.4861 2.11637C9.63497 1.96757 8.77197 1.90806 7.903 1.93782C6.15315 2.02114 4.76634 2.55681 3.78428 3.53887C3.08791 4.23524 2.60584 5.15182 2.36181 6.25292C2.17731 7.15165 2.12373 8.0742 2.2011 8.99674C2.20705 9.07411 2.18325 9.15148 2.12968 9.21695C2.08207 9.27647 2.00468 9.31813 1.9273 9.32408L0.588135 9.44313C0.588135 9.44313 0.570292 9.44313 0.56434 9.44313L0.576256 9.44907ZM8.37318 0.598649C8.20058 0.598649 8.02798 0.598643 7.85537 0.610546C5.75436 0.705776 4.06405 1.37834 2.84391 2.60442C1.96304 3.4853 1.3619 4.62211 1.05836 5.97914C0.861944 6.91953 0.796451 7.87184 0.850018 8.83009L1.594 8.76461C1.54043 7.88373 1.60591 7.00881 1.78446 6.14579C2.0523 4.92566 2.58799 3.91384 3.36768 3.13415C4.45687 2.04496 5.97458 1.44976 7.88512 1.36049C8.70053 1.32478 9.50403 1.37835 10.3016 1.49739L10.4325 0.759343C9.75403 0.658161 9.0636 0.604607 8.37318 0.604607V0.598649Z" fill="#00AEEF"/>
<path d="M4.86232 17.8077C4.45759 17.0696 4.08859 16.3256 3.76124 15.6055L2.53516 16.159C2.87441 16.9149 3.26128 17.6886 3.68386 18.4564L4.86232 17.8136V17.8077Z" fill="#2AACE2"/>
<path d="M3.68418 18.7464C3.68418 18.7464 3.63061 18.7464 3.60085 18.7345C3.52347 18.7107 3.45801 18.6631 3.4223 18.5917C2.99972 17.8179 2.60689 17.0382 2.26168 16.2764C2.19621 16.1276 2.26168 15.949 2.41048 15.8836L3.63656 15.33C3.78535 15.2646 3.96393 15.33 4.0294 15.4788C4.35675 16.199 4.71983 16.9311 5.1186 17.6632C5.15431 17.7346 5.1662 17.812 5.1424 17.8893C5.11859 17.9667 5.07098 18.0322 4.99956 18.0679L3.82106 18.7107C3.7794 18.7345 3.72584 18.7464 3.67823 18.7464H3.68418ZM2.92829 16.3002C3.19612 16.8775 3.48778 17.4608 3.80323 18.0441L4.45792 17.687C4.15437 17.1215 3.86869 16.5561 3.61276 15.9966L2.93424 16.3062L2.92829 16.3002Z" fill="#00AEEF"/>
<path d="M0.970801 11.6278C1.13745 12.3479 1.34579 13.0562 1.58386 13.7585L2.85161 13.3241C2.62544 12.6693 2.43496 12.0027 2.27426 11.3242L0.964844 11.6278H0.970801Z" fill="#2AACE2"/>
<path d="M1.58348 14.0563C1.45849 14.0563 1.34538 13.9789 1.30372 13.8539C1.05969 13.1516 0.851392 12.4255 0.684739 11.6994C0.666884 11.622 0.684738 11.5387 0.720449 11.4732C0.762112 11.4077 0.827581 11.3601 0.904955 11.3423L2.21437 11.0387C2.37507 11.003 2.53576 11.0982 2.57147 11.2589C2.72622 11.9137 2.91669 12.5743 3.1369 13.229C3.16071 13.3064 3.1607 13.3838 3.12499 13.4552C3.08928 13.5266 3.02977 13.5802 2.9524 13.604L1.68465 14.0385C1.65489 14.0504 1.61916 14.0563 1.5894 14.0563H1.58348ZM1.33347 11.8482C1.46441 12.366 1.60725 12.8779 1.7739 13.3778L2.48218 13.1338C2.32148 12.6517 2.18461 12.1636 2.05962 11.6815L1.33347 11.8482Z" fill="#00AEEF"/>
<path d="M10.1043 25.1985C10.0448 25.133 9.98531 25.0675 9.93175 24.9961L8.91992 25.877C8.97944 25.9484 9.03899 26.0139 9.09851 26.0853C9.43776 26.4722 9.79485 26.865 10.152 27.2459C10.3127 27.4185 10.4734 27.5911 10.64 27.7578L11.6102 26.8293C11.4495 26.6626 11.2888 26.496 11.134 26.3293C10.7829 25.9544 10.4376 25.5734 10.1103 25.1985H10.1043Z" fill="#2AACE2"/>
<path d="M10.6343 28.0596C10.557 28.0596 10.4796 28.0298 10.4201 27.9703C10.2534 27.7977 10.0927 27.6251 9.92607 27.4525C9.563 27.0656 9.20591 26.6728 8.86665 26.2799L8.6881 26.0716C8.58097 25.9466 8.59287 25.7621 8.71786 25.649L9.72968 24.7682C9.85467 24.661 10.0392 24.6729 10.1522 24.7979L10.3249 24.9943C10.6522 25.3693 10.9974 25.7502 11.3426 26.1192C11.4974 26.2859 11.6581 26.4525 11.8128 26.6132C11.8664 26.6728 11.8961 26.7442 11.8961 26.8275C11.8961 26.9049 11.8604 26.9823 11.8069 27.0358L10.8367 27.9643C10.7772 28.0179 10.7058 28.0476 10.6284 28.0476L10.6343 28.0596ZM9.33684 25.905C9.67014 26.2859 10.0153 26.6668 10.3665 27.0418C10.4617 27.143 10.551 27.2382 10.6463 27.3394L11.1879 26.8216C11.0986 26.7263 11.0034 26.6311 10.9141 26.5299C10.5689 26.1609 10.2296 25.7859 9.90227 25.4169L9.33684 25.905Z" fill="#00AEEF"/>
<path d="M7.29701 23.9032L8.35646 23.0818C8.26123 22.9569 8.16002 22.8319 8.06479 22.7069C7.65411 22.1712 7.2613 21.6237 6.88633 21.082L5.7793 21.8439C6.16022 22.3974 6.57088 22.9628 6.99346 23.5163C7.08869 23.6473 7.18988 23.7782 7.29106 23.9032H7.29701Z" fill="#2AACE2"/>
<path d="M7.292 24.2014C7.292 24.2014 7.26819 24.2014 7.25629 24.2014C7.17892 24.1895 7.10748 24.1538 7.05987 24.0883L6.76228 23.6955C6.34565 23.1479 5.93497 22.5766 5.54215 22.0111C5.49454 21.9457 5.48262 21.8683 5.49453 21.7909C5.50643 21.7136 5.55406 21.6421 5.61953 21.6005L6.72657 20.8386C6.86346 20.7434 7.04797 20.7791 7.1432 20.916C7.51817 21.4576 7.91101 21.9992 8.30978 22.529L8.59546 22.9039C8.69664 23.0349 8.67285 23.2194 8.54191 23.3205L7.48246 24.1419C7.4289 24.1836 7.36343 24.2074 7.29796 24.2074L7.292 24.2014ZM6.19688 21.9159C6.53018 22.3921 6.87538 22.8682 7.2325 23.3325L7.34558 23.4813L7.93481 23.023L7.82172 22.8801C7.47652 22.4278 7.13725 21.9576 6.8099 21.4933L6.19688 21.9159Z" fill="#00AEEF"/>
<path d="M11.7773 28.9114C13.0451 30.1494 14.3783 31.3159 15.777 32.4111C17.6697 33.899 19.6874 35.2204 21.8122 36.3512C23.0502 37.0119 24.3357 37.5833 25.6571 38.0654L24.431 38.4165L24.8 39.7081L28.2342 38.726C28.5913 38.6248 28.7937 38.2499 28.6925 37.8987L27.7997 34.774L26.5082 35.143L27.0796 37.1309C25.4785 36.625 23.9251 35.9703 22.4431 35.1727C20.3897 34.0776 18.4375 32.7979 16.6103 31.3576C15.2532 30.2922 13.9557 29.1614 12.7177 27.9531L11.7833 28.9114H11.7773Z" fill="#2AACE2"/>
<path d="M24.8007 39.9986C24.7531 39.9986 24.6995 39.9867 24.6579 39.9628C24.5864 39.9271 24.5388 39.8617 24.515 39.7843L24.146 38.4927C24.0984 38.332 24.1936 38.1713 24.3484 38.1237L24.7174 38.0166C23.6758 37.6059 22.6581 37.1298 21.6701 36.606C19.5393 35.4632 17.4918 34.13 15.5932 32.6361C14.2005 31.5469 12.8434 30.3625 11.5697 29.1186C11.5162 29.065 11.4805 28.9876 11.4805 28.9102C11.4805 28.8329 11.5102 28.7555 11.5638 28.696L12.4982 27.7377C12.6113 27.6187 12.8018 27.6187 12.9208 27.7377C14.1409 28.9281 15.4384 30.0649 16.7895 31.1184C18.6048 32.5468 20.5511 33.8205 22.5807 34.9038C23.8782 35.6001 25.2412 36.1894 26.6339 36.6655L26.2173 35.2192C26.1934 35.1418 26.2054 35.0645 26.2411 34.993C26.2768 34.9216 26.3423 34.874 26.4196 34.8502L27.7112 34.4812C27.8719 34.4336 28.0326 34.5288 28.0802 34.6835L28.973 37.8083C29.0444 38.0582 29.0147 38.3201 28.8897 38.5463C28.7647 38.7725 28.5563 38.9391 28.3123 39.0046L24.8781 39.9866C24.8781 39.9866 24.8245 39.9986 24.7948 39.9986H24.8007ZM24.8007 38.6177L25.0031 39.3379L28.1516 38.4392C28.2468 38.4094 28.3242 38.3499 28.3778 38.2606C28.4313 38.1713 28.4373 38.0701 28.4075 37.9749L27.5921 35.1359L26.872 35.3382L27.36 37.0405C27.3898 37.1476 27.36 37.2607 27.2827 37.3381C27.2053 37.4154 27.0862 37.4393 26.9851 37.4095C25.3721 36.8976 23.7949 36.237 22.295 35.4335C20.2356 34.3324 18.2537 33.0408 16.4145 31.5945C15.1289 30.5887 13.885 29.5054 12.7125 28.3805L12.1887 28.9162C13.385 30.0709 14.6468 31.166 15.9503 32.1838C17.8251 33.6598 19.8428 34.9752 21.9438 36.1001C23.1699 36.7488 24.4496 37.3202 25.753 37.7964C25.8721 37.838 25.9554 37.9571 25.9494 38.088C25.9494 38.2189 25.8601 38.3261 25.7352 38.3618L24.7948 38.6296L24.8007 38.6177Z" fill="#00AEEF"/>
<path d="M39.2825 29.1359C39.0087 27.4217 38.4433 25.5826 37.5981 23.6602L36.3661 24.2018C37.1637 26.0171 37.6993 27.7491 37.9553 29.3501C38.4374 32.3499 37.9077 34.7187 36.4316 36.2007C35.6995 36.9328 34.7472 37.4328 33.5985 37.6947C32.67 37.903 31.6225 37.9506 30.4738 37.8435C30.194 37.8137 29.9024 37.778 29.6048 37.7304L29.3965 39.0576C29.7179 39.1053 30.0333 39.1469 30.3428 39.1767C30.7773 39.2183 31.2058 39.2421 31.6165 39.2421C32.3784 39.2421 33.1402 39.1648 33.8842 39.0041C35.2829 38.6886 36.4554 38.0637 37.366 37.153C39.1635 35.3556 39.8182 32.588 39.2706 29.1418L39.2825 29.1359Z" fill="#2AACE2"/>
<path d="M31.6882 39.5322C31.2478 39.5382 30.7895 39.5143 30.3193 39.4667C30.0039 39.437 29.6765 39.3953 29.3551 39.3417C29.2777 39.3298 29.2063 39.2882 29.1587 39.2227C29.1111 39.1572 29.0932 39.0799 29.1051 39.0025L29.3134 37.6752C29.3372 37.5145 29.4979 37.4014 29.6527 37.4252C29.9384 37.4729 30.2241 37.5086 30.5038 37.5324C31.6228 37.6395 32.6405 37.5919 33.5333 37.3895C34.6225 37.1455 35.5272 36.6694 36.2176 35.9789C37.6282 34.5684 38.1222 32.2888 37.658 29.3843C37.408 27.813 36.8783 26.1048 36.0926 24.3073C36.0271 24.1586 36.0926 23.98 36.2474 23.9145L37.4794 23.3729C37.6282 23.3074 37.8067 23.3729 37.8722 23.5276C38.7233 25.4739 39.3007 27.3368 39.5744 29.0748C40.1399 32.6161 39.4554 35.473 37.5865 37.3419C36.6342 38.2942 35.4141 38.9489 33.9559 39.2763C33.2059 39.437 32.4441 39.5203 31.6823 39.5203L31.6882 39.5322ZM29.742 38.8001C29.9563 38.8299 30.1705 38.8537 30.3788 38.8775C30.8252 38.9192 31.2597 38.937 31.6882 38.937C32.4084 38.937 33.1286 38.8596 33.8369 38.7049C35.176 38.4013 36.3009 37.8062 37.1759 36.9312C38.9019 35.2052 39.5328 32.5269 38.9971 29.1819C38.7412 27.5749 38.2234 25.8548 37.4556 24.0514L36.7711 24.349C37.5151 26.0929 38.0151 27.7535 38.2591 29.295C38.7531 32.3959 38.1996 34.854 36.6521 36.4015C35.8784 37.1753 34.8784 37.705 33.6762 37.9728C32.7239 38.1871 31.6406 38.2406 30.4562 38.1276C30.2657 38.1097 30.0634 38.0859 29.867 38.0561L29.7479 38.7942L29.742 38.8001Z" fill="#00AEEF"/>
<path d="M36.024 20.543L34.8574 21.2096C35.1788 21.775 35.4883 22.3464 35.7621 22.9059L36.9644 22.3107C36.6727 21.7274 36.3573 21.1322 36.024 20.543Z" fill="#2AACE2"/>
<path d="M35.7686 23.2053C35.6614 23.2053 35.5543 23.1458 35.5007 23.0387C35.221 22.4792 34.9175 21.9138 34.602 21.3543C34.5187 21.2114 34.5722 21.0329 34.7151 20.9496L35.8817 20.283C36.0245 20.2056 36.2031 20.2532 36.2864 20.396C36.6256 20.9912 36.947 21.5864 37.2387 22.1756C37.3101 22.3244 37.2506 22.503 37.1018 22.5744L35.8995 23.1696C35.8578 23.1934 35.8102 23.1994 35.7686 23.1994V23.2053ZM35.2626 21.3245C35.4829 21.7174 35.6971 22.1161 35.8995 22.5149L36.5661 22.1816C36.3578 21.7769 36.1435 21.3662 35.9114 20.9555L35.2626 21.3245Z" fill="#00AEEF"/>
<path d="M32.913 15.875L31.8477 16.6904C32.3476 17.3451 32.8357 18.0236 33.2999 18.7021L34.4069 17.9462C33.9308 17.2439 33.4249 16.5476 32.913 15.875Z" fill="#2AACE2"/>
<path d="M33.2997 18.9996C33.2044 18.9996 33.1092 18.952 33.0557 18.8686C32.5914 18.1901 32.1093 17.5176 31.6153 16.8688C31.5677 16.8033 31.5439 16.726 31.5558 16.6486C31.5677 16.5712 31.6093 16.4998 31.6689 16.4522L32.7342 15.6368C32.7997 15.5891 32.8771 15.5653 32.9544 15.5773C33.0318 15.5892 33.1032 15.6308 33.1509 15.6903C33.6687 16.3629 34.1746 17.0652 34.6567 17.7735C34.6983 17.839 34.7162 17.9223 34.7043 17.9996C34.6924 18.077 34.6448 18.1484 34.5793 18.1901L33.4723 18.946C33.4187 18.9817 33.3651 18.9996 33.3056 18.9996H33.2997ZM32.2581 16.7498C32.639 17.2557 33.014 17.7675 33.3711 18.2913L33.9901 17.8687C33.621 17.333 33.2401 16.8093 32.8533 16.2974L32.2581 16.7498Z" fill="#00AEEF"/>
<path d="M29.5932 12L28.623 12.9285C29.1885 13.5237 29.7479 14.1427 30.2836 14.7676L31.3014 13.8927C30.7479 13.2499 30.1765 12.613 29.5872 12H29.5932Z" fill="#2AACE2"/>
<path d="M30.2844 15.0599C30.2011 15.0599 30.1178 15.0242 30.0582 14.9587C29.5166 14.3278 28.9631 13.7148 28.4036 13.1315C28.3501 13.072 28.3203 13.0006 28.3203 12.9173C28.3203 12.8339 28.356 12.7625 28.4096 12.7089L29.3797 11.7804C29.4988 11.6674 29.6892 11.6733 29.8023 11.7923C30.3916 12.4113 30.9749 13.0541 31.5284 13.6969C31.5819 13.7565 31.6057 13.8338 31.5998 13.9112C31.5998 13.9886 31.5581 14.06 31.4986 14.1136L30.4808 14.9885C30.4273 15.0361 30.3558 15.0599 30.2844 15.0599ZM29.0464 12.9351C29.475 13.3934 29.9035 13.8636 30.3201 14.3457L30.8856 13.8576C30.463 13.3696 30.0285 12.8875 29.5821 12.4173L29.0405 12.9351H29.0464Z" fill="#00AEEF"/>
<path d="M12.9569 5.02451L14.2722 4.74477L13.8377 2.71518C15.0698 3.14967 16.2661 3.6794 17.4267 4.29244C19.4563 5.36378 21.3847 6.60772 23.1941 8.01236C24.0452 8.67301 24.9082 9.38722 25.7474 10.1372C26.2117 10.5538 26.6818 10.9883 27.1461 11.4347C27.3425 11.6251 27.5508 11.8275 27.7532 12.0299L28.6996 11.0835C28.4912 10.8752 28.2829 10.6728 28.0746 10.4705C27.6044 10.0122 27.1223 9.56578 26.6402 9.13725C25.7772 8.36351 24.8904 7.63144 24.0154 6.95293C23.1643 6.29227 22.2775 5.66136 21.3728 5.06618C21.8906 4.77454 22.4025 4.50075 22.9143 4.25078L22.3191 3.04851C21.718 3.3461 21.099 3.67939 20.4919 4.0246L20.9205 4.76858C19.992 4.1734 19.0397 3.61987 18.0636 3.10801C17.1946 2.64972 16.3078 2.23905 15.3971 1.87003L16.5815 1.62004L16.3018 0.304688L12.8081 1.04867C12.445 1.12604 12.2129 1.48315 12.2903 1.84622L12.9688 5.02451H12.9569Z" fill="#2AACE2"/>
<path d="M27.7469 12.3271C27.6696 12.3271 27.5982 12.2973 27.5386 12.2378C27.3363 12.0354 27.1339 11.839 26.9375 11.6486C26.4792 11.2081 26.0149 10.7736 25.5507 10.357C24.7174 9.61303 23.8604 8.90475 23.0152 8.25005C21.2237 6.85731 19.3012 5.61338 17.2955 4.55395C16.3134 4.03614 15.2897 3.57189 14.2541 3.17907L14.5755 4.67893C14.5933 4.75631 14.5755 4.83368 14.5338 4.90511C14.4921 4.97653 14.4207 5.01819 14.3434 5.03605L13.028 5.31578C12.8732 5.34554 12.7066 5.25031 12.6768 5.08961L11.9983 1.91132C11.8852 1.38755 12.2245 0.869729 12.7423 0.762595L16.2361 0.0186126C16.3134 0.000756964 16.3908 0.0186169 16.4622 0.06028C16.5337 0.101943 16.5753 0.17337 16.5932 0.250744L16.8729 1.5661C16.9086 1.7268 16.8015 1.8875 16.6467 1.91726L16.3908 1.97082C17.0098 2.24461 17.6228 2.53626 18.2121 2.85171C18.8846 3.20882 19.5512 3.58378 20.2119 3.98256C20.2119 3.9766 20.2119 3.96471 20.2119 3.95876C20.2298 3.88139 20.2833 3.81591 20.3488 3.78019C20.9618 3.42903 21.5868 3.09573 22.1939 2.79218C22.3427 2.72076 22.5212 2.78029 22.5926 2.92908L23.1878 4.13135C23.2593 4.28015 23.1997 4.45871 23.0569 4.53013C22.6938 4.70869 22.3248 4.89915 21.9558 5.10151C22.7414 5.63122 23.4973 6.17879 24.2115 6.73231C25.0924 7.41083 25.9792 8.14886 26.8542 8.92855C27.3363 9.36304 27.8243 9.80943 28.3005 10.2677C28.5088 10.4641 28.7171 10.6724 28.9254 10.8808C28.979 10.9343 29.0147 11.0117 29.0147 11.0891C29.0147 11.1665 28.985 11.2438 28.9254 11.2974L27.9791 12.2437C27.9196 12.3033 27.8422 12.333 27.7708 12.333L27.7469 12.3271ZM13.8374 2.42317C13.8731 2.42317 13.9029 2.42317 13.9386 2.44103C15.1766 2.88146 16.3967 3.41714 17.5633 4.03018C19.5988 5.10747 21.557 6.36926 23.3723 7.77985C24.2294 8.4405 25.0984 9.16068 25.9435 9.91656C26.4137 10.3391 26.8839 10.7736 27.3482 11.22C27.4791 11.345 27.61 11.476 27.7469 11.6069L28.2767 11.0772C28.1398 10.9403 28.0029 10.8093 27.8719 10.6784C27.4017 10.2261 26.9256 9.77968 26.4435 9.35115C25.5805 8.58336 24.7055 7.85722 23.8366 7.18466C23.0152 6.54186 22.1284 5.91097 21.2118 5.30983C21.1225 5.25031 21.0749 5.15508 21.0749 5.0539C21.0749 5.042 21.0749 5.02414 21.0749 5.01223C20.9797 5.0777 20.8487 5.08366 20.7475 5.01223C19.825 4.423 18.8727 3.86948 17.9085 3.36357C17.0574 2.91718 16.1706 2.50056 15.2659 2.13749C15.1469 2.08988 15.0695 1.96488 15.0814 1.83394C15.0933 1.703 15.1885 1.59586 15.3135 1.5661L16.2063 1.37564L16.0516 0.643569L12.8494 1.32803C12.6471 1.36969 12.5221 1.57206 12.5637 1.77442L13.1827 4.66108L13.9148 4.50632L13.5458 2.76839C13.522 2.66125 13.5577 2.55411 13.641 2.48269C13.6946 2.43508 13.766 2.41127 13.8374 2.41127V2.42317ZM20.8904 4.13731L21.1701 4.61941C21.2058 4.67893 21.2178 4.75036 21.2058 4.81583C21.2118 4.81583 21.2177 4.80987 21.2296 4.80392C21.6582 4.55989 22.0927 4.32776 22.5153 4.1135L22.182 3.44689C21.7534 3.66116 21.3249 3.89328 20.8963 4.13731H20.8904Z" fill="#00AEEF"/>
<path d="M0.511274 29.2325C0.33867 30.2027 0.273226 31.1847 0.314889 32.1668C0.41607 34.3452 1.11243 36.101 2.39208 37.3806C3.31462 38.3031 4.49903 38.9281 5.91558 39.2435C5.91558 39.2435 5.91558 39.2435 5.92153 39.2435C6.65956 39.3983 7.41543 39.4757 8.17132 39.4757C8.49867 39.4757 8.82008 39.4638 9.14743 39.434L9.02839 38.0948C8.08204 38.1782 7.12977 38.1246 6.19533 37.9282C5.03472 37.6723 4.07052 37.1664 3.33249 36.4283C2.29686 35.3927 1.73143 33.9404 1.6481 32.1073C1.61239 31.2204 1.6719 30.3336 1.82665 29.4587L0.505353 29.2266L0.511274 29.2325Z" fill="#2AACE2"/>
<path d="M8.17157 39.7728C7.39783 39.7728 6.61817 39.6954 5.86228 39.5347C4.38027 39.2074 3.14228 38.5526 2.17808 37.5884C0.844859 36.2552 0.118723 34.434 0.0115895 32.1782C-0.0300735 31.1783 0.0413285 30.1665 0.213932 29.1785C0.225836 29.1011 0.273464 29.0297 0.338935 28.988C0.404405 28.9404 0.481776 28.9225 0.559151 28.9404L1.88048 29.1725C1.95786 29.1844 2.02925 29.232 2.07091 29.2975C2.11257 29.363 2.13639 29.4403 2.11854 29.5177C1.96974 30.3629 1.91023 31.2318 1.93999 32.1008C2.02331 33.8507 2.55898 35.2375 3.54104 36.2195C4.23741 36.9159 5.15399 37.392 6.25509 37.6361C7.15382 37.8206 8.07635 37.8741 8.99889 37.7968C9.07626 37.7908 9.15363 37.8146 9.2191 37.8682C9.27862 37.9158 9.32028 37.9932 9.32623 38.0705L9.44528 39.4097C9.45123 39.4871 9.42742 39.5645 9.37386 39.6299C9.32624 39.6895 9.24889 39.7311 9.17151 39.7371C8.83821 39.7668 8.49892 39.7787 8.17157 39.7787V39.7728ZM5.96345 38.9514H5.97537C6.90386 39.1478 7.85614 39.2133 8.82034 39.1597L8.75488 38.4158C7.87995 38.4634 6.99311 38.4038 6.13604 38.2253C4.91591 37.9575 3.9041 37.4218 3.1244 36.6481C2.03521 35.5589 1.44004 34.0411 1.35076 32.1306C1.321 31.3211 1.3686 30.5057 1.48764 29.7141L0.749615 29.5832C0.618674 30.4343 0.571059 31.3033 0.600818 32.1603C0.696048 34.2614 1.36859 35.9517 2.59468 37.1718C3.47555 38.0527 4.60643 38.6479 5.96345 38.9514Z" fill="#00AEEF"/>
<path d="M16.155 37.4756C16.9109 37.1364 17.6846 36.7495 18.4524 36.3269L17.8096 35.1484C17.0716 35.5532 16.3276 35.9222 15.6074 36.2495L16.1609 37.4756H16.155Z" fill="#2AACE2"/>
<path d="M16.1478 37.7724C16.0347 37.7724 15.9275 37.7069 15.874 37.5998L15.3204 36.3737C15.2907 36.3023 15.2847 36.2189 15.3145 36.1475C15.3442 36.0761 15.3978 36.0166 15.4692 35.9809C16.1835 35.6595 16.9215 35.2904 17.6536 34.8917C17.725 34.8559 17.8024 34.8441 17.8798 34.8679C17.9571 34.8917 18.0167 34.9393 18.0583 35.0107L18.7011 36.1892C18.7785 36.332 18.7249 36.5165 18.5821 36.5939C17.8083 37.0165 17.0286 37.4093 16.2608 37.7545C16.2192 37.7724 16.1775 37.7783 16.1358 37.7783L16.1478 37.7724ZM15.993 36.4034L16.3025 37.0819C16.8798 36.8141 17.4631 36.5225 18.0464 36.207L17.6893 35.5523C17.1239 35.8559 16.5525 36.1415 15.993 36.3975V36.4034Z" fill="#00AEEF"/>
<path d="M11.6239 39.043C12.344 38.8763 13.0523 38.668 13.7546 38.4299L13.3201 37.1562C12.6654 37.3824 11.9988 37.5729 11.3203 37.7336L11.6239 39.043Z" fill="#2AACE2"/>
<path d="M11.6241 39.3381C11.5705 39.3381 11.5169 39.3203 11.4693 39.2905C11.4038 39.2489 11.3562 39.1834 11.3383 39.106L11.0348 37.7966C10.9991 37.6359 11.0943 37.4752 11.255 37.4395C11.9216 37.2847 12.5823 37.0943 13.2251 36.8741C13.3025 36.8503 13.3799 36.8562 13.4513 36.886C13.5227 36.9217 13.5763 36.9812 13.6001 37.0586L14.0345 38.3263C14.0881 38.4811 14.0048 38.6477 13.85 38.7013C13.1477 38.9453 12.4216 39.1536 11.6955 39.3203C11.6717 39.3203 11.6479 39.3262 11.63 39.3262L11.6241 39.3381ZM11.6776 37.9573L11.8443 38.6834C12.3561 38.5584 12.868 38.4096 13.3739 38.243L13.1299 37.5347C12.6537 37.6895 12.1656 37.8323 11.6716 37.9514L11.6776 37.9573Z" fill="#00AEEF"/>
<path d="M24.998 30.0808L25.8789 31.0926C25.9503 31.0331 26.0158 30.9735 26.0872 30.914C26.4741 30.5748 26.8669 30.2177 27.2479 29.8606C27.4205 29.6999 27.5931 29.5392 27.7597 29.3725L26.8312 28.4023C26.6646 28.563 26.4979 28.7178 26.3313 28.8785C25.9563 29.2296 25.5754 29.5749 25.2004 29.9022C25.135 29.9617 25.0695 30.0212 24.998 30.0748V30.0808Z" fill="#2AACE2"/>
<path d="M25.8786 31.3927C25.7952 31.3927 25.712 31.357 25.6524 31.2916L24.7715 30.2797C24.718 30.2202 24.6942 30.1429 24.7001 30.0655C24.7061 29.9881 24.7418 29.9107 24.8013 29.8631L24.9977 29.6905C25.3727 29.3572 25.7536 29.018 26.1226 28.6668C26.2893 28.5121 26.4559 28.3573 26.6166 28.1966C26.6761 28.143 26.7535 28.1252 26.8309 28.1133C26.9083 28.1133 26.9856 28.149 27.0392 28.2026L27.9677 29.1668C28.0212 29.2263 28.051 29.2977 28.051 29.381C28.051 29.4584 28.0153 29.5358 27.9617 29.5893C27.7891 29.756 27.6165 29.9167 27.4439 30.0774C27.057 30.4405 26.6642 30.7976 26.2714 31.1368L26.0631 31.3154C26.0095 31.363 25.9381 31.3868 25.8667 31.3868L25.8786 31.3927ZM25.4143 30.1131L25.9024 30.6785C26.2833 30.3452 26.6642 29.9941 27.0392 29.6489C27.1404 29.5596 27.2356 29.4643 27.3368 29.3691L26.819 28.8335C26.7237 28.9227 26.6285 29.012 26.5273 29.1072C26.1583 29.4524 25.7834 29.7917 25.4143 30.1191V30.1131Z" fill="#00AEEF"/>
<path d="M21.082 33.1282L21.8439 34.2353C22.3974 33.8544 22.9628 33.4437 23.5164 33.0211C23.6473 32.9199 23.7783 32.8247 23.9032 32.7235L23.0819 31.6641C22.9569 31.7593 22.8319 31.8605 22.7069 31.9557C22.1712 32.3664 21.6237 32.7592 21.082 33.1282Z" fill="#2AACE2"/>
<path d="M21.8429 34.5328C21.7477 34.5328 21.6584 34.4852 21.5989 34.4019L20.8371 33.2948C20.7895 33.2294 20.7775 33.152 20.7894 33.0687C20.8014 32.9913 20.849 32.9199 20.9145 32.8782C21.4501 32.5092 21.9918 32.1164 22.5274 31.7116L22.9024 31.426C23.0273 31.3248 23.2178 31.3486 23.319 31.4795L24.1403 32.5389C24.188 32.5985 24.2118 32.6818 24.1999 32.7592C24.188 32.8365 24.1523 32.908 24.0868 32.9556L23.694 33.2532C23.1345 33.6817 22.569 34.0924 22.0096 34.4733C21.956 34.509 21.9025 34.5269 21.8429 34.5269V34.5328ZM21.4918 33.2056L21.9144 33.8186C22.3846 33.4912 22.8607 33.146 23.3309 32.783L23.4797 32.6699L23.0214 32.0807L22.8786 32.1937C22.4203 32.5449 21.956 32.8842 21.4918 33.2056Z" fill="#00AEEF"/>
<path d="M29.3442 2.05799C32.3439 1.57589 34.7128 2.1056 36.1948 3.58167C36.9269 4.31375 37.4268 5.26603 37.6887 6.41474C37.897 7.34323 37.9446 8.39076 37.8375 9.53947C37.8137 9.81921 37.772 10.1109 37.7244 10.4085L39.0517 10.6168C39.0993 10.2954 39.1409 9.97991 39.1707 9.67041C39.2957 8.38481 39.2362 7.18849 38.9981 6.1231C38.6827 4.72442 38.0577 3.55191 37.1471 2.63532C35.3496 0.837859 32.582 0.183147 29.1359 0.730718C27.4217 1.0045 25.5826 1.56992 23.6602 2.41509L24.2018 3.64713C26.0171 2.84958 27.7491 2.31392 29.3501 2.05799H29.3442Z" fill="#2AACE2"/>
<path d="M39.0456 10.9138C39.0456 10.9138 39.0158 10.9138 38.9979 10.9138L37.6707 10.7055C37.5933 10.6936 37.5219 10.6519 37.4743 10.5864C37.4267 10.521 37.4088 10.4436 37.4207 10.3662C37.4683 10.0805 37.504 9.79484 37.5278 9.52105C37.635 8.40805 37.5873 7.39029 37.385 6.49156C37.141 5.40236 36.6648 4.49769 35.9744 3.80728C34.5638 2.39669 32.2902 1.89672 29.3797 2.36692C27.8084 2.6169 26.1003 3.14662 24.3028 3.93226C24.154 3.99773 23.9754 3.93226 23.91 3.77751L23.3684 2.54547C23.3386 2.47405 23.3326 2.39073 23.3684 2.31931C23.3981 2.24789 23.4517 2.18837 23.5231 2.15266C25.4694 1.30154 27.3323 0.724204 29.0702 0.450419C32.6116 -0.115008 35.4685 0.569454 37.3374 2.43834C38.2897 3.39659 38.9444 4.61672 39.2717 6.06898C39.5217 7.17007 39.5812 8.3902 39.4503 9.71152C39.4205 10.027 39.3789 10.3543 39.3253 10.6757C39.3134 10.7531 39.2717 10.8245 39.2063 10.8721C39.1527 10.9078 39.0932 10.9317 39.0337 10.9317L39.0456 10.9138ZM38.0575 10.1579L38.7956 10.2769C38.8253 10.0627 38.8491 9.84841 38.867 9.6401C38.986 8.38425 38.9325 7.22365 38.7004 6.18802C38.3968 4.84885 37.8016 3.72394 36.9267 2.84902C35.2007 1.12298 32.5223 0.492088 29.1714 1.03371C27.5644 1.28964 25.8443 1.80745 24.0409 2.57524L24.3385 3.2597C26.0765 2.51572 27.743 2.01576 29.2845 1.77173C32.3854 1.27773 34.8435 1.83125 36.391 3.38468C37.1648 4.15842 37.6945 5.15834 37.9623 6.36061C38.1766 7.31886 38.2302 8.40211 38.1171 9.58057C38.0992 9.77103 38.0754 9.97341 38.0456 10.1698L38.0575 10.1579Z" fill="#00AEEF"/>
<path d="M14.7656 9.7287L13.8907 8.71094C13.2479 9.26446 12.6111 9.83584 11.998 10.4251L12.9265 11.3952C13.5217 10.8239 14.1407 10.2644 14.7656 9.73466V9.7287Z" fill="#2AACE2"/>
<path d="M12.9214 11.687C12.844 11.687 12.7667 11.6573 12.7071 11.5978L11.7786 10.6276C11.7251 10.5681 11.6953 10.4967 11.6953 10.4133C11.6953 10.33 11.731 10.2586 11.7905 10.205C12.4095 9.6158 13.0523 9.03251 13.6951 8.48494C13.8201 8.3778 14.0106 8.39565 14.1177 8.51469L14.9926 9.53247C15.0462 9.59199 15.07 9.66935 15.0641 9.74673C15.0641 9.8241 15.0224 9.89552 14.9629 9.94909C14.3439 10.4788 13.7308 11.0323 13.1357 11.6037C13.0761 11.6573 13.0047 11.687 12.9333 11.687H12.9214ZM12.4214 10.4312L12.9392 10.9728C13.4035 10.5383 13.8737 10.1098 14.3498 9.69912L13.8618 9.13369C13.3737 9.55627 12.8916 9.99076 12.4214 10.4371V10.4312Z" fill="#00AEEF"/>
<path d="M18.706 6.71641L17.9502 5.60938C17.2479 6.08552 16.5515 6.59142 15.8789 7.10328L16.6943 8.16867C17.349 7.66871 18.0275 7.18066 18.706 6.71641Z" fill="#2AACE2"/>
<path d="M16.6942 8.46669C16.6049 8.46669 16.5156 8.42502 16.4561 8.34765L15.6407 7.28228C15.5931 7.21681 15.5693 7.13944 15.5812 7.06206C15.5931 6.98469 15.6347 6.91326 15.6942 6.86564C16.3728 6.34783 17.0751 5.84192 17.7774 5.35982C17.8429 5.31816 17.9262 5.30031 17.9976 5.31221C18.075 5.32412 18.1464 5.37173 18.1881 5.4372L18.944 6.54424C18.9916 6.60971 19.0035 6.6871 18.9916 6.76447C18.9797 6.84185 18.9321 6.91325 18.8666 6.95492C18.194 7.41321 17.5215 7.90127 16.8668 8.39528C16.8132 8.43694 16.7477 8.4548 16.6882 8.4548L16.6942 8.46669ZM16.2954 7.15728L16.7477 7.75246C17.2536 7.37154 17.7714 6.99658 18.2892 6.63947L17.8667 6.02049C17.337 6.3895 16.8072 6.77041 16.2954 7.15728Z" fill="#00AEEF"/>
<path d="M38.7201 11.7833C38.6189 11.4262 38.244 11.2179 37.8928 11.325L34.7681 12.2178L35.1371 13.5094L37.125 12.938C36.6191 14.5391 35.9644 16.0925 35.1669 17.5745C34.0717 19.6279 32.7921 21.5801 31.3517 23.4073C30.2863 24.7644 29.1555 26.0619 27.9473 27.2999L28.9055 28.2402C30.1435 26.9725 31.3101 25.6393 32.4052 24.2406C33.8932 22.3479 35.2145 20.3302 36.3453 18.2054C37.006 16.9674 37.5774 15.6818 38.0595 14.3605L38.4107 15.5866L39.7022 15.2176L38.7201 11.7833Z" fill="#2AACE2"/>
<path d="M28.9062 28.5308C28.8289 28.5308 28.7515 28.5011 28.6979 28.4475L27.7396 27.5071C27.6861 27.4535 27.6504 27.3762 27.6504 27.2988C27.6504 27.2214 27.6802 27.1441 27.7337 27.0845C28.9241 25.8644 30.0609 24.5669 31.1144 23.2218C32.5369 21.4124 33.8106 19.4602 34.8998 17.4306C35.5961 16.1331 36.1854 14.7701 36.6615 13.3774L35.2152 13.794C35.1378 13.8178 35.0605 13.8059 34.989 13.7702C34.9176 13.7345 34.87 13.669 34.8462 13.5917L34.4772 12.3001C34.4295 12.1394 34.5248 11.9787 34.6795 11.9311L37.8043 11.0383C38.3161 10.8895 38.8578 11.1871 39.0006 11.7049L39.9826 15.1391C40.0064 15.2165 39.9945 15.2939 39.9588 15.3653C39.9231 15.4367 39.8577 15.4843 39.7803 15.5082L38.4887 15.8772C38.328 15.9248 38.1673 15.8296 38.1197 15.6748L38.0126 15.3118C37.6019 16.3474 37.1257 17.3711 36.602 18.3532C35.4592 20.4899 34.126 22.5314 32.6321 24.43C31.537 25.8287 30.3525 27.1798 29.1145 28.4535C29.061 28.507 28.9836 28.5427 28.9062 28.5427V28.5308ZM28.3646 27.2929L28.9003 27.8166C30.049 26.6262 31.1501 25.3585 32.1678 24.055C33.6439 22.1802 34.9593 20.1685 36.0842 18.0615C36.7389 16.8354 37.3102 15.5498 37.7804 14.2523C37.8221 14.1273 37.9352 14.0619 38.0721 14.0559C38.203 14.0559 38.3102 14.1452 38.3459 14.2702L38.6137 15.2106L39.3339 15.0023L38.4352 11.8537C38.3756 11.6573 38.1673 11.5442 37.9709 11.5978L35.1319 12.4132L35.3402 13.1334L37.0424 12.6453C37.1495 12.6096 37.2626 12.6453 37.34 12.7227C37.4174 12.8001 37.4412 12.9131 37.4114 13.0203C36.8996 14.6332 36.233 16.2105 35.4354 17.7104C34.3343 19.7756 33.0428 21.7517 31.5965 23.5908C30.5906 24.8764 29.5133 26.1203 28.3825 27.2929H28.3646Z" fill="#00AEEF"/>
<path d="M1.70336 27.7476C1.75098 27.7476 1.79862 27.7476 1.84624 27.7298L5.02451 27.0513L4.74479 25.7359L2.71518 26.1704C3.14967 24.9384 3.6794 23.742 4.29244 22.5814C5.36378 20.5518 6.60772 18.6234 8.01236 16.8141C8.67301 15.963 9.38724 15.0999 10.1372 14.2607C10.5538 13.7965 10.9883 13.3263 11.4347 12.862C11.6311 12.6597 11.8275 12.4573 12.0299 12.2549L11.0835 11.3086C10.8752 11.5169 10.6728 11.7252 10.4705 11.9335C10.0122 12.4037 9.5658 12.8858 9.13727 13.3679C8.36353 14.231 7.63142 15.1178 6.95291 15.9927C5.50065 17.8616 4.20912 19.8555 3.10803 21.9505C2.64973 22.8195 2.23905 23.7063 1.87003 24.617L1.62006 23.4325L0.304688 23.7123L1.04867 27.206C1.11414 27.5155 1.38791 27.7357 1.70336 27.7357V27.7476Z" fill="#2AACE2"/>
<path d="M1.70334 28.0454C1.251 28.0454 0.852241 27.724 0.757011 27.2776L0.0130282 23.7839C-0.022683 23.6232 0.0785016 23.4625 0.239202 23.4327L1.55454 23.153C1.63191 23.1351 1.70929 23.153 1.78071 23.1946C1.84618 23.2363 1.89382 23.3077 1.91167 23.3851L1.96522 23.641C2.23901 23.022 2.53067 22.4149 2.84612 21.8197C3.95912 19.7187 5.26258 17.6951 6.72079 15.8143C7.3993 14.9334 8.14325 14.0407 8.91699 13.1717C9.34553 12.6896 9.79787 12.2015 10.2562 11.7254C10.4585 11.5171 10.6609 11.3088 10.8692 11.1004C10.9883 10.9874 11.1728 10.9874 11.2918 11.1004L12.2381 12.0468C12.2917 12.1003 12.3274 12.1777 12.3274 12.2551C12.3274 12.3325 12.2977 12.4099 12.2381 12.4634C12.0358 12.6598 11.8394 12.8622 11.6489 13.0646C11.2085 13.5229 10.774 13.9871 10.3574 14.4513C9.60743 15.2906 8.89914 16.1417 8.25039 16.9868C6.85765 18.7784 5.61373 20.7068 4.5543 22.7125C4.03649 23.6946 3.57225 24.7183 3.17942 25.7539L4.67927 25.4325C4.75664 25.4147 4.83997 25.4325 4.90544 25.4742C4.97091 25.5158 5.01855 25.5873 5.0364 25.6646L5.31612 26.98C5.35183 27.1407 5.25065 27.3014 5.08995 27.3312L1.91167 28.0097C1.8462 28.0216 1.77477 28.0335 1.70929 28.0335L1.70334 28.0454ZM0.649882 23.9565L1.33432 27.1586C1.37599 27.355 1.5605 27.4919 1.78071 27.4443L4.66739 26.8253L4.51263 26.0932L2.7747 26.4622C2.67352 26.486 2.56041 26.4503 2.48899 26.367C2.41756 26.2836 2.39377 26.1706 2.42948 26.0694C2.86992 24.8314 3.40558 23.6113 4.01862 22.4447C5.08996 20.4092 6.35174 18.457 7.76829 16.6357C8.42894 15.7786 9.14913 14.9156 9.90502 14.0645C10.3217 13.5943 10.7621 13.1241 11.2085 12.6598C11.3335 12.5289 11.4644 12.392 11.5953 12.2611L11.0656 11.7313C10.9287 11.8682 10.7978 12.0051 10.6668 12.1361C10.2145 12.6063 9.76812 13.0884 9.33959 13.5645C8.5718 14.4216 7.84566 15.3025 7.1731 16.1714C5.73275 18.0225 4.44716 20.0163 3.35201 22.0876C2.89967 22.9447 2.489 23.8315 2.12593 24.7302C2.07832 24.8492 1.96523 24.9326 1.82238 24.9147C1.69144 24.9028 1.5843 24.8076 1.55454 24.6826L1.36411 23.7898L0.632009 23.9446L0.649882 23.9565Z" fill="#00AEEF"/>
<path d="M11.3257 24.665H16.1389C16.4004 24.665 16.6431 24.5714 16.84 24.4164C17.0368 24.5714 17.2795 24.665 17.5411 24.665H22.3543C22.6158 24.665 22.8585 24.5714 23.0554 24.4164C23.2522 24.5714 23.4949 24.665 23.7564 24.665H28.5697C29.2303 24.665 29.7642 24.0829 29.7642 23.3662V20.9325C29.7642 19.8385 29.2006 18.8879 28.3566 18.4198C28.7665 17.8845 29.0119 17.1971 29.0119 16.4512C29.0119 14.7459 27.7337 13.3594 26.1617 13.3594C24.5896 13.3594 23.3115 14.7459 23.3115 16.4512C23.3115 17.2001 23.5569 17.8875 23.9668 18.4198C23.6027 18.6217 23.2899 18.9142 23.0527 19.2711C22.8154 18.9171 22.5026 18.6217 22.1386 18.4198C22.5484 17.8845 22.7938 17.1971 22.7938 16.4512C22.7938 14.7459 21.5157 13.3594 19.9436 13.3594C18.3716 13.3594 17.0934 14.7459 17.0934 16.4512C17.0934 17.2001 17.3388 17.8875 17.7487 18.4228C17.3847 18.6246 17.0719 18.9171 16.8346 19.274C16.5973 18.92 16.2845 18.6246 15.9205 18.4228C16.3303 17.8875 16.5757 17.2001 16.5757 16.4542C16.5757 14.7488 15.2976 13.3623 13.7255 13.3623C12.1535 13.3623 10.8754 14.7488 10.8754 16.4542C10.8754 17.203 11.1207 17.8875 11.5306 18.4228C10.6866 18.8908 10.123 19.8415 10.123 20.9355V23.3692C10.123 24.0858 10.6596 24.6679 11.3203 24.6679L11.3257 24.665ZM26.1671 14.4329C27.1945 14.4329 28.0277 15.3397 28.0277 16.4512C28.0277 17.5628 27.1918 18.4696 26.1671 18.4696C25.1424 18.4696 24.3065 17.5628 24.3065 16.4512C24.3065 15.3368 25.1424 14.4329 26.1671 14.4329ZM24.8836 19.2096C25.2692 19.4232 25.706 19.5431 26.1671 19.5431C26.6282 19.5431 27.065 19.4232 27.4506 19.2096C28.2191 19.3559 28.7827 20.0725 28.7827 20.9325V23.3662C28.7827 23.492 28.6883 23.5915 28.575 23.5915H23.7618C23.6486 23.5915 23.5542 23.4891 23.5542 23.3662V20.9325C23.5542 20.0725 24.1178 19.353 24.8863 19.2096H24.8836ZM19.949 14.4329C20.9764 14.4329 21.8096 15.3397 21.8096 16.4512C21.8096 17.5628 20.9737 18.4696 19.949 18.4696C18.9244 18.4696 18.0884 17.5628 18.0884 16.4512C18.0884 15.3397 18.9244 14.4329 19.949 14.4329ZM18.6655 19.2096C19.0511 19.4232 19.4879 19.5431 19.949 19.5431C20.4101 19.5431 20.8469 19.4232 21.2325 19.2096C22.001 19.3559 22.5646 20.0725 22.5646 20.9325V23.3662C22.5646 23.492 22.4702 23.5915 22.357 23.5915H17.5438C17.4278 23.5915 17.3361 23.4891 17.3361 23.3662V20.9325C17.3361 20.0725 17.8997 19.353 18.6682 19.2096H18.6655ZM13.7336 14.4329C14.761 14.4329 15.5942 15.3397 15.5942 16.4512C15.5942 17.5628 14.7583 18.4696 13.7336 18.4696C12.709 18.4696 11.8731 17.5628 11.8731 16.4512C11.8731 15.3397 12.709 14.4329 13.7336 14.4329ZM11.118 20.9325C11.118 20.0725 11.6816 19.353 12.4501 19.2096C12.8357 19.4232 13.2725 19.5431 13.7336 19.5431C14.1947 19.5431 14.6316 19.4232 15.0172 19.2096C15.7856 19.3559 16.3492 20.0725 16.3492 20.9325V23.3662C16.3492 23.492 16.2548 23.5915 16.1416 23.5915H11.3284C11.2124 23.5915 11.1207 23.4891 11.1207 23.3662V20.9325H11.118Z" fill="#052460"/>
</svg>
