<svg width="112" height="120" viewBox="0 0 112 120" fill="none" xmlns="http://www.w3.org/2000/svg">
<path opacity="0.35" d="M62.3716 70.8293C62.3716 52.4878 65.6858 37.6585 72.3142 26.3415C79.3326 14.6342 92.1995 5.85365 110.915 0V25.1707C101.557 28.2927 95.1238 33.1707 91.6147 39.8049C88.4954 46.439 86.9358 56.7805 86.9358 70.8293H62.3716ZM0 70.8293H49.1284V120H0V70.8293ZM0 70.8293C0 52.4878 3.50917 37.6585 10.5275 26.3415C17.5459 14.6342 30.4128 5.85365 49.1284 0V25.1707C39.3807 28.2927 32.7523 33.1707 29.2431 39.8049C26.1239 46.439 24.7592 56.7805 25.1491 70.8293H0ZM62.3716 70.8293H111.5V120H62.3716V70.8293Z" fill="#D4DFE9"/>
</svg>
