<svg width="24" height="18" viewBox="0 0 24 18" fill="none" xmlns="http://www.w3.org/2000/svg">
<g clip-path="url(#clip0_2312_351118)">
<rect x="0.25" y="0.25" width="23.5" height="16.6429" rx="1.75" fill="white" stroke="#F5F5F5" stroke-width="0.5"/>
<mask id="mask0_2312_351118" style="mask-type:luminance" maskUnits="userSpaceOnUse" x="0" y="0" width="24" height="18">
<rect x="0.25" y="0.25" width="23.5" height="17.5" rx="1.75" fill="white" stroke="white" stroke-width="0.5"/>
</mask>
<g mask="url(#mask0_2312_351118)">
<path fill-rule="evenodd" clip-rule="evenodd" d="M0 18H24V12H0V18Z" fill="#138E16"/>
<path fill-rule="evenodd" clip-rule="evenodd" d="M0 18H8V12H24V6H8V0H0V18Z" fill="#ED2B35"/>
<path fill-rule="evenodd" clip-rule="evenodd" d="M4.00056 4.04032L3.00882 5.4896L3.52358 3.81062L1.77215 3.93886L3.40578 3.29449L2.21351 2.00513L3.73586 2.88058L4.00056 1.14453L4.26526 2.88058L5.7876 2.00513L4.59534 3.29449L6.22896 3.93886L4.47754 3.81062L4.99229 5.4896L4.00056 4.04032Z" fill="white"/>
</g>
</g>
<defs>
<clipPath id="clip0_2312_351118">
<rect width="24" height="18" fill="white"/>
</clipPath>
</defs>
</svg>
