<svg width="24" height="18" viewBox="0 0 24 18" fill="none" xmlns="http://www.w3.org/2000/svg">
<rect x="0.25" y="0.679688" width="23.5" height="16.6429" rx="1.46429" fill="white" stroke="#F5F5F5" stroke-width="0.5"/>
<mask id="mask0_2312_351109" style="mask-type:luminance" maskUnits="userSpaceOnUse" x="0" y="0" width="24" height="18">
<rect x="0.25" y="0.25" width="23.5" height="17.5" rx="1.46429" fill="white" stroke="white" stroke-width="0.5"/>
</mask>
<g mask="url(#mask0_2312_351109)">
<path fill-rule="evenodd" clip-rule="evenodd" d="M0 6H24V0H0V6Z" fill="#E41D33"/>
<path fill-rule="evenodd" clip-rule="evenodd" d="M0 18H24V12H0V18Z" fill="#262626"/>
<path d="M10.6033 8.55579L10.8469 9.04309L11.1092 8.56571L11.1092 8.56569L11.1092 8.56565L11.1092 8.56558L11.1093 8.56543L11.1103 8.56369L11.1148 8.5556L11.1338 8.52254C11.1507 8.49352 11.1756 8.45147 11.2073 8.40077C11.271 8.29885 11.36 8.1645 11.463 8.03156C11.5673 7.89693 11.6789 7.77289 11.7865 7.68508C11.9013 7.59133 11.9727 7.57087 12.0017 7.57087C12.0508 7.57087 12.1312 7.5975 12.2428 7.68683C12.3505 7.77299 12.459 7.89494 12.5588 8.02801C12.6574 8.15943 12.7406 8.29241 12.7995 8.39341C12.8288 8.44361 12.8517 8.4852 12.867 8.51383C12.8747 8.52812 12.8804 8.53914 12.8841 8.54633L12.8882 8.55415L12.889 8.55577L12.889 8.55579L12.889 8.55588L12.8891 8.55594L12.8891 8.55598L13.1445 9.06689L13.4001 8.55579L13.8925 7.57087L14.2874 7.57087C14.4452 7.57087 14.5731 7.69879 14.5731 7.85658V9.646C14.5731 9.8742 14.3188 10.0103 14.1289 9.88373L13.303 9.33314L13.231 9.28516H13.1445H12.5731H12.2874V9.57087V10.1423C12.2874 10.3001 12.1595 10.428 12.0017 10.428C11.8439 10.428 11.716 10.3001 11.716 10.1423V9.57087V9.28516H11.4302H10.8588H10.7723L10.7003 9.33314L9.87445 9.88373C9.68457 10.0103 9.43025 9.8742 9.43025 9.646V7.85658C9.43025 7.69879 9.55816 7.57087 9.71596 7.57087L10.1108 7.57087L10.6033 8.55579Z" fill="#F4B32E" fill-opacity="0.25" stroke="#C6A846" stroke-width="0.571429"/>
</g>
</svg>
