<svg width="69" height="16" viewBox="0 0 69 16" fill="none" xmlns="http://www.w3.org/2000/svg">
<g clip-path="url(#clip0_2312_350955)">
<path d="M7.9949 0C3.62507 0 0.0681265 3.55648 0.0662727 7.9277C0.0658093 9.32499 0.431005 10.6889 1.12478 11.8911L0 16L4.20299 14.8975C5.36114 15.5291 6.66481 15.8619 7.99166 15.8624H7.9949C12.3643 15.8624 15.9212 12.3054 15.9231 7.93419C15.924 5.81578 15.1 3.82389 13.6031 2.32557C12.1061 0.826787 10.1156 0.000926891 7.9949 0ZM7.9949 14.5235H7.99212C6.80987 14.5235 5.64987 14.2051 4.63816 13.6049L4.39764 13.4622L1.90384 14.1166L2.56934 11.6849L2.4127 11.4355C1.75322 10.3863 1.4047 9.17344 1.40517 7.92863C1.40656 4.29522 4.36288 1.33936 7.99768 1.33936C9.75785 1.33982 11.4124 2.02618 12.6562 3.27193C13.9006 4.51721 14.5851 6.1731 14.5846 7.93373C14.5832 11.5671 11.6269 14.5235 7.9949 14.5235ZM11.6093 9.58823C11.4114 9.48905 10.4373 9.00985 10.2556 8.94358C10.0739 8.8773 9.94184 8.8444 9.80976 9.04275C9.67767 9.24111 9.29811 9.68741 9.18271 9.81949C9.06732 9.95203 8.95146 9.96825 8.75356 9.86908C8.55567 9.7699 7.91704 9.56042 7.1607 8.88564C6.57166 8.36056 6.17402 7.71174 6.05863 7.51338C5.94323 7.31503 6.04611 7.20797 6.14575 7.10926C6.23474 7.02074 6.34365 6.878 6.44282 6.76214C6.542 6.64628 6.5749 6.56378 6.64071 6.43124C6.70652 6.29915 6.67362 6.18329 6.62403 6.08412C6.57444 5.98494 6.17819 5.00985 6.01321 4.61314C5.85239 4.22709 5.68926 4.27899 5.56737 4.27297C5.45198 4.26694 5.31989 4.26602 5.18781 4.26602C5.05573 4.26602 4.84115 4.31561 4.65948 4.51396C4.47781 4.71232 3.96617 5.19152 3.96617 6.16661C3.96617 7.1417 4.67617 8.08388 4.77488 8.21597C4.87406 8.34805 6.17171 10.3492 8.15896 11.207C8.63168 11.411 9.00058 11.5328 9.28838 11.6241C9.76295 11.7748 10.1949 11.7534 10.536 11.7025C10.9165 11.6455 11.708 11.2233 11.873 10.7603C12.038 10.2978 12.038 9.90106 11.9884 9.8181C11.9388 9.73561 11.8067 9.68602 11.6089 9.58684L11.6093 9.58823ZM25.635 9.46727H25.6137L24.2994 4.16452H22.7153L21.3792 9.40239H21.3579L20.1404 4.16452H18.4488L20.4852 11.86H22.1986L23.4805 6.62171H23.5023L24.8059 11.86H26.4869L28.5557 4.16452H26.8965L25.6355 9.46727H25.635ZM33.7161 6.76723C33.5655 6.56981 33.3588 6.41548 33.097 6.30379C32.8347 6.19303 32.4987 6.13741 32.0894 6.13741C31.8021 6.13741 31.5078 6.21064 31.2057 6.35848C30.904 6.50539 30.6565 6.74082 30.4623 7.0643H30.4298V4.16452H28.9V11.8596H30.4298V8.93894C30.4298 8.37122 30.523 7.96385 30.7102 7.71544C30.897 7.46796 31.1987 7.34376 31.6153 7.34376C31.9815 7.34376 32.2364 7.45684 32.3805 7.68347C32.5242 7.90963 32.596 8.25258 32.596 8.71232V11.8596H34.1263V8.43239C34.1263 8.08759 34.0952 7.77338 34.0345 7.48928C33.9734 7.20612 33.8677 6.96513 33.7166 6.76723H33.7161ZM40.0195 10.6203V7.72147C40.0195 7.38315 39.9444 7.11204 39.7928 6.90766C39.6422 6.70282 39.4485 6.54293 39.2117 6.42799C38.9744 6.31306 38.7121 6.23566 38.4248 6.19627C38.1374 6.15688 37.8538 6.13695 37.5739 6.13695C37.2652 6.13695 36.9579 6.16707 36.653 6.22871C36.3471 6.28989 36.0728 6.39231 35.8285 6.53598C35.5843 6.67964 35.3827 6.87012 35.2256 7.10694C35.0671 7.34422 34.9772 7.64222 34.9559 8.00185H36.4857C36.5144 7.70015 36.6155 7.48419 36.7879 7.35488C36.9603 7.22558 37.1971 7.16116 37.4988 7.16116C37.635 7.16116 37.7625 7.16997 37.8811 7.18804C37.9993 7.20612 38.1036 7.24134 38.1935 7.29556C38.2834 7.34932 38.3552 7.42486 38.409 7.52219C38.4628 7.61905 38.4896 7.75067 38.4896 7.91519C38.4966 8.07369 38.4498 8.19326 38.3497 8.27621C38.2486 8.35917 38.1124 8.4222 37.94 8.46484C37.7676 8.5084 37.5702 8.54084 37.3472 8.5617C37.1243 8.58394 36.8982 8.61314 36.6688 8.64836C36.4384 8.68451 36.2104 8.73271 35.9847 8.79388C35.7585 8.85459 35.5565 8.94682 35.3808 9.06824C35.2047 9.19106 35.0611 9.35419 34.9494 9.55903C34.8381 9.76388 34.7825 10.0248 34.7825 10.3404C34.7825 10.6277 34.8312 10.8757 34.9281 11.0838C35.0249 11.2928 35.1598 11.4647 35.3322 11.6014C35.5046 11.7382 35.7057 11.8387 35.9356 11.9036C36.165 11.968 36.4134 12.0005 36.679 12.0005C37.0238 12.0005 37.3616 11.9499 37.6916 11.8498C38.022 11.7484 38.3098 11.5732 38.5541 11.3211C38.561 11.4147 38.5735 11.5064 38.5916 11.5959C38.6097 11.6853 38.6328 11.7738 38.6616 11.8596H40.2132C40.1414 11.7451 40.0908 11.5727 40.0621 11.3424C40.0329 11.1125 40.0185 10.8724 40.0185 10.6203H40.0195ZM38.4896 9.70409C38.4896 9.79122 38.4808 9.90615 38.4628 10.0494C38.4451 10.1935 38.3965 10.3348 38.3172 10.4753C38.238 10.6152 38.1156 10.7362 37.9506 10.8363C37.7857 10.9373 37.5521 10.9874 37.2499 10.9874C37.128 10.9874 37.0094 10.9767 36.8945 10.9545C36.7795 10.9331 36.679 10.8951 36.5928 10.8414C36.5065 10.7876 36.4384 10.7139 36.3879 10.6203C36.3379 10.5267 36.3124 10.4122 36.3124 10.276C36.3124 10.1323 36.3379 10.0132 36.3879 9.92006C36.4384 9.8269 36.5047 9.74951 36.5877 9.68833C36.6697 9.62716 36.767 9.57896 36.8782 9.54281C36.9895 9.50713 37.1025 9.47839 37.2179 9.45661C37.3398 9.43529 37.4622 9.41675 37.5841 9.40285C37.7069 9.38895 37.8232 9.37041 37.9344 9.34909C38.0461 9.32731 38.1499 9.30043 38.2473 9.26799C38.3441 9.23555 38.4248 9.19152 38.4896 9.13359V9.70455V9.70409ZM42.8752 4.61731H41.3449V6.28757H40.4185V7.31132H41.3449V10.599C41.3449 10.8794 41.3922 11.1056 41.4853 11.278C41.579 11.4504 41.7064 11.5838 41.8677 11.677C42.0294 11.7706 42.2162 11.8332 42.4285 11.8651C42.6398 11.8971 42.865 11.9138 43.1018 11.9138C43.2534 11.9138 43.4073 11.9101 43.5658 11.9036C43.7233 11.8962 43.867 11.8823 43.9968 11.86V10.6745C43.9245 10.6889 43.8494 10.7005 43.7701 10.707C43.6913 10.7144 43.6089 10.7181 43.5227 10.7181C43.2645 10.7181 43.0916 10.6745 43.0054 10.5883C42.9197 10.5021 42.8766 10.3297 42.8766 10.0707V7.31132H43.9972V6.28757H42.8766V4.61731H42.8752ZM49.1994 9.41907C49.0988 9.24296 48.9658 9.09559 48.8008 8.97694C48.6358 8.85877 48.4468 8.7633 48.2354 8.691C48.0232 8.61963 47.8058 8.55892 47.5834 8.5084C47.3679 8.45788 47.1565 8.41108 46.948 8.36798C46.7394 8.32488 46.5545 8.27621 46.3928 8.22292C46.2315 8.16869 46.1008 8.09918 46.0002 8.01251C45.8992 7.92631 45.8496 7.81555 45.8496 7.67837C45.8496 7.56343 45.8774 7.47167 45.9354 7.40355C45.9928 7.33542 46.0633 7.28351 46.1458 7.2469C46.2287 7.21122 46.3195 7.18804 46.4201 7.17692C46.5207 7.16626 46.6143 7.16116 46.7 7.16116C46.973 7.16116 47.2103 7.21307 47.4119 7.31734C47.6126 7.42162 47.7243 7.6209 47.7451 7.91519H49.1999C49.1711 7.57039 49.0831 7.2849 48.9362 7.05828C48.7893 6.83212 48.6039 6.65091 48.3814 6.51419C48.159 6.37748 47.9059 6.28062 47.6214 6.22315C47.3377 6.16568 47.0453 6.13695 46.7441 6.13695C46.4428 6.13695 46.1471 6.16383 45.8607 6.21712C45.5729 6.27135 45.3143 6.36496 45.0849 6.49797C44.8546 6.63098 44.6701 6.81219 44.5297 7.04206C44.3893 7.27193 44.3193 7.56668 44.3193 7.92585C44.3193 8.17008 44.3698 8.37724 44.4709 8.54594C44.5705 8.7151 44.704 8.85459 44.8685 8.96628C45.0344 9.07751 45.223 9.16788 45.4348 9.23555C45.6466 9.3046 45.864 9.36346 46.0864 9.41397C46.6328 9.52891 47.0587 9.64384 47.3637 9.75924C47.6691 9.87418 47.8216 10.0466 47.8216 10.2764C47.8216 10.4132 47.7896 10.5253 47.7247 10.6152C47.6598 10.7056 47.5792 10.777 47.4823 10.8307C47.385 10.8849 47.277 10.9248 47.1588 10.9494C47.0402 10.9749 46.9267 10.9874 46.8191 10.9874C46.6681 10.9874 46.523 10.9693 46.383 10.9336C46.2426 10.8975 46.1189 10.8418 46.0109 10.7663C45.9034 10.6908 45.8149 10.5939 45.7467 10.4753C45.6791 10.3566 45.6443 10.2153 45.6443 10.0494H44.19C44.2048 10.4229 44.2887 10.7339 44.4435 10.9818C44.5974 11.2298 44.7948 11.429 45.0358 11.5801C45.2763 11.7307 45.5516 11.8387 45.8607 11.9036C46.1689 11.968 46.485 12.0005 46.808 12.0005C47.131 12.0005 47.4351 11.9699 47.7405 11.9092C48.0459 11.848 48.317 11.7419 48.5538 11.5908C48.7916 11.4402 48.9825 11.2409 49.1303 10.9929C49.2773 10.7445 49.3509 10.4377 49.3509 10.0711C49.3509 9.81207 49.3009 9.59518 49.2003 9.41953L49.1994 9.41907ZM52.2378 4.16452L49.3287 11.86H51.0309L51.6339 10.1462H54.511L55.0921 11.86H56.849L53.9724 4.16452H52.2373H52.2378ZM52.0765 8.88564L53.0784 6.06187H53.0998L54.0697 8.88564H52.0765ZM62.1397 7.04252C61.9316 6.76955 61.6693 6.55034 61.3533 6.38536C61.0372 6.21991 60.6604 6.13741 60.2225 6.13741C59.8772 6.13741 59.5616 6.20554 59.2742 6.34179C58.986 6.47851 58.7496 6.69772 58.5633 6.99942H58.5415V6.28757H57.0863V13.8111H58.6175V11.1704H58.6384C58.8252 11.4439 59.0643 11.6501 59.3558 11.7896C59.6459 11.9296 59.9643 12 60.3091 12C60.7188 12 61.0761 11.9203 61.3811 11.7627C61.6865 11.6047 61.9414 11.3924 62.1462 11.1264C62.3511 10.8604 62.5031 10.5554 62.6046 10.2106C62.7042 9.86537 62.7552 9.5062 62.7552 9.13266C62.7552 8.73734 62.7042 8.35871 62.6046 7.99537C62.5031 7.63295 62.3492 7.31456 62.1407 7.04159L62.1397 7.04252ZM61.1595 9.74765C61.116 9.96362 61.0423 10.1518 60.9385 10.3135C60.8342 10.4753 60.698 10.6069 60.5283 10.707C60.3601 10.8076 60.1497 10.8585 59.8985 10.8585C59.6473 10.8585 59.4466 10.808 59.2742 10.707C59.1018 10.6069 58.9633 10.4753 58.859 10.3135C58.7547 10.1518 58.6796 9.96362 58.6328 9.74765C58.586 9.53215 58.5633 9.31294 58.5633 9.09095C58.5633 8.86896 58.5842 8.6377 58.6273 8.42266C58.6708 8.20716 58.7441 8.01668 58.8488 7.85077C58.9522 7.68578 59.0893 7.55138 59.2585 7.44711C59.4272 7.34283 59.6367 7.29 59.8883 7.29C60.14 7.29 60.3397 7.34283 60.5079 7.44711C60.6766 7.55092 60.8152 7.68717 60.9227 7.85633C61.0302 8.02549 61.1072 8.21782 61.1544 8.43286C61.2017 8.64836 61.224 8.86803 61.224 9.09095C61.224 9.31387 61.2031 9.53262 61.16 9.74765H61.1595ZM68.7012 7.99629C68.6006 7.63388 68.4463 7.31549 68.2378 7.04252C68.0292 6.76955 67.7678 6.55034 67.4517 6.38536C67.1352 6.21991 66.758 6.13741 66.32 6.13741C65.9757 6.13741 65.6591 6.20554 65.3723 6.34179C65.0849 6.47851 64.8476 6.69772 64.6609 6.99942H64.64V6.28757H63.1853V13.8111H64.7151V11.1704H64.7369C64.9237 11.4439 65.1628 11.6501 65.4534 11.7896C65.7439 11.9296 66.0623 12 66.4071 12C66.8164 12 67.1732 11.9203 67.4791 11.7627C67.784 11.6047 68.0394 11.3924 68.2438 11.1264C68.4491 10.8604 68.6011 10.5554 68.7017 10.2106C68.8027 9.86537 68.8527 9.5062 68.8527 9.13266C68.8527 8.73734 68.8027 8.35871 68.7017 7.99537L68.7012 7.99629ZM67.2571 9.74765C67.2145 9.96362 67.1408 10.1518 67.0365 10.3135C66.9318 10.4753 66.7955 10.6069 66.6268 10.707C66.4581 10.8076 66.2482 10.8585 65.9965 10.8585C65.7449 10.8585 65.5437 10.808 65.3713 10.707C65.1985 10.6069 65.0608 10.4753 64.9561 10.3135C64.8523 10.1518 64.7767 9.96362 64.7299 9.74765C64.6831 9.53215 64.66 9.31294 64.66 9.09095C64.66 8.86896 64.6817 8.6377 64.7248 8.42266C64.7679 8.20716 64.8416 8.01668 64.9459 7.85077C65.0497 7.68578 65.1864 7.55138 65.3556 7.44711C65.5238 7.34283 65.7342 7.29 65.9859 7.29C66.2375 7.29 66.4363 7.34283 66.605 7.44711C66.7742 7.55092 66.9123 7.68717 67.0203 7.85633C67.1283 8.02549 67.2057 8.21782 67.252 8.43286C67.2993 8.64836 67.322 8.86803 67.322 9.09095C67.322 9.31387 67.3002 9.53262 67.2571 9.74765Z" fill="#2E577C"/>
</g>
<defs>
<clipPath id="clip0_2312_350955">
<rect width="68.8523" height="16" fill="white"/>
</clipPath>
</defs>
</svg>
