<svg width="171" height="48" viewBox="0 0 171 48" fill="none" xmlns="http://www.w3.org/2000/svg">
<path d="M170.751 43.1884C170.751 45.8467 168.553 48 165.834 48H4.92342C2.20586 48 0 45.8467 0 43.1884V4.81784C0 2.1608 2.20586 0 4.92342 0H165.833C168.553 0 170.75 2.1608 170.75 4.81784L170.751 43.1884Z" fill="black"/>
<path d="M37.5758 23.7313C37.5387 19.7121 40.9512 17.7567 41.1072 17.6657C39.1746 14.9184 36.1791 14.543 35.1265 14.5131C32.6106 14.2549 30.1702 15.9809 28.8886 15.9809C27.5814 15.9809 25.6079 14.538 23.4808 14.5804C20.7437 14.6216 18.1831 16.1667 16.7787 18.566C13.8804 23.4582 16.042 30.6475 18.8188 34.602C20.2078 36.5386 21.8309 38.701 23.9554 38.625C26.0338 38.5414 26.8102 37.333 29.3184 37.333C31.8035 37.333 32.5326 38.625 34.6993 38.5763C36.9299 38.5414 38.3343 36.6309 39.6747 34.6768C41.2799 32.457 41.9245 30.2709 41.9501 30.1587C41.8977 30.1412 37.618 28.5487 37.5758 23.7313Z" fill="white"/>
<path d="M33.4829 11.9117C34.6008 10.5487 35.3656 8.69431 35.1533 6.8125C33.5353 6.88234 31.5119 7.90368 30.3467 9.23678C29.3158 10.4115 28.3949 12.337 28.6328 14.1477C30.4503 14.2799 32.3164 13.2536 33.4829 11.9117Z" fill="white"/>
<path d="M67.6551 38.3459H64.7504L63.1593 33.4711H57.6288L56.1131 38.3459H53.2852L58.7645 21.75H62.1489L67.6551 38.3459ZM62.6797 31.4259L61.2408 27.0924C61.0885 26.6497 60.8033 25.6072 60.3825 23.966H60.3314C60.1638 24.6719 59.8939 25.7144 59.523 27.0924L58.1097 31.4259H62.6797Z" fill="white"/>
<path d="M81.7473 32.2147C81.7473 34.2499 81.1832 35.8586 80.0551 37.0396C79.0447 38.0909 77.79 38.6159 76.2922 38.6159C74.6755 38.6159 73.5141 38.0497 72.8068 36.9174H72.7557V43.2213H70.0288V30.3179C70.0288 29.0385 69.9942 27.7253 69.9277 26.3785H72.3259L72.4781 28.2753H72.5293C73.4387 26.8461 74.8188 26.1328 76.6708 26.1328C78.1187 26.1328 79.3274 26.6902 80.2943 27.8064C81.2638 28.9237 81.7473 30.3928 81.7473 32.2147ZM78.9692 32.312C78.9692 31.1472 78.7006 30.187 78.1609 29.4313C77.5712 28.6431 76.7795 28.2491 75.787 28.2491C75.1142 28.2491 74.5028 28.4686 73.9567 28.9013C73.4093 29.3378 73.0511 29.9077 72.8836 30.6135C72.7992 30.9427 72.757 31.2121 72.757 31.4241V33.4194C72.757 34.2898 73.0307 35.0243 73.5781 35.6242C74.1255 36.224 74.8367 36.5233 75.7115 36.5233C76.7386 36.5233 77.538 36.1367 78.1097 35.366C78.6827 34.5941 78.9692 33.5765 78.9692 32.312Z" fill="white"/>
<path d="M95.8632 32.2147C95.8632 34.2499 95.2992 35.8586 94.1698 37.0396C93.1606 38.0909 91.9059 38.6159 90.4081 38.6159C88.7914 38.6159 87.6301 38.0497 86.924 36.9174H86.8729V43.2213H84.146V30.3179C84.146 29.0385 84.1114 27.7253 84.0449 26.3785H86.4431L86.5953 28.2753H86.6465C87.5546 26.8461 88.9347 26.1328 90.788 26.1328C92.2346 26.1328 93.4433 26.6902 94.4128 27.8064C95.3785 28.9237 95.8632 30.3928 95.8632 32.2147ZM93.0851 32.312C93.0851 31.1472 92.8153 30.187 92.2755 29.4313C91.6859 28.6431 90.8967 28.2491 89.9029 28.2491C89.2289 28.2491 88.6188 28.4686 88.0713 28.9013C87.5239 29.3378 87.167 29.9077 86.9995 30.6135C86.9164 30.9427 86.8729 31.2121 86.8729 31.4241V33.4194C86.8729 34.2898 87.1466 35.0243 87.6914 35.6242C88.2389 36.2228 88.95 36.5233 89.8274 36.5233C90.8545 36.5233 91.6539 36.1367 92.2256 35.366C92.7986 34.5941 93.0851 33.5765 93.0851 32.312Z" fill="white"/>
<path d="M111.646 33.6928C111.646 35.1045 111.143 36.253 110.134 37.1397C109.025 38.1087 107.481 38.5925 105.497 38.5925C103.666 38.5925 102.197 38.2483 101.086 37.5587L101.718 35.3427C102.915 36.0485 104.229 36.4027 105.66 36.4027C106.687 36.4027 107.486 36.1757 108.061 35.7243C108.632 35.2728 108.917 34.6668 108.917 33.9111C108.917 33.2377 108.682 32.6702 108.21 32.2101C107.741 31.7499 106.957 31.3222 105.862 30.9269C102.882 29.8432 101.393 28.2557 101.393 26.1681C101.393 24.8038 101.915 23.6852 102.96 22.8147C104.001 21.943 105.39 21.5078 107.127 21.5078C108.676 21.5078 109.962 21.7709 110.99 22.296L110.308 24.4633C109.348 23.9545 108.264 23.7001 107.05 23.7001C106.091 23.7001 105.341 23.9308 104.804 24.3898C104.35 24.8 104.122 25.3001 104.122 25.8925C104.122 26.5484 104.382 27.0909 104.904 27.5174C105.358 27.9115 106.183 28.338 107.38 28.7981C108.845 29.373 109.92 30.0452 110.612 30.8159C111.302 31.5841 111.646 32.5455 111.646 33.6928Z" fill="white"/>
<path d="M120.662 28.3754H117.656V34.1855C117.656 35.6633 118.186 36.4015 119.248 36.4015C119.735 36.4015 120.139 36.3604 120.459 36.2781L120.534 38.2971C119.997 38.4928 119.29 38.5914 118.414 38.5914C117.337 38.5914 116.495 38.2709 115.888 37.6311C115.283 36.9901 114.978 35.9152 114.978 34.405V28.373H113.188V26.3777H114.978V24.1866L117.656 23.3984V26.3777H120.662V28.3754Z" fill="white"/>
<path d="M134.225 32.266C134.225 34.1054 133.685 35.6156 132.608 36.7966C131.479 38.0125 129.98 38.6185 128.111 38.6185C126.31 38.6185 124.876 38.0362 123.807 36.8714C122.738 35.7066 122.203 34.2364 122.203 32.4643C122.203 30.6099 122.753 29.091 123.857 27.91C124.958 26.7278 126.444 26.1367 128.313 26.1367C130.114 26.1367 131.563 26.7191 132.657 27.8851C133.703 29.0162 134.225 30.4765 134.225 32.266ZM131.396 32.3521C131.396 31.2484 131.154 30.3019 130.664 29.5125C130.092 28.5573 129.275 28.0809 128.216 28.0809C127.12 28.0809 126.287 28.5585 125.715 29.5125C125.225 30.3031 124.984 31.2646 124.984 32.4019C124.984 33.5056 125.225 34.4521 125.715 35.2402C126.305 36.1955 127.129 36.6719 128.192 36.6719C129.233 36.6719 130.05 36.1855 130.64 35.2153C131.142 34.411 131.396 33.4545 131.396 32.3521Z" fill="white"/>
<path d="M143.088 28.7167C142.818 28.6681 142.53 28.6431 142.229 28.6431C141.269 28.6431 140.527 28.9961 140.006 29.7031C139.552 30.3267 139.324 31.1148 139.324 32.0663V38.3453H136.598L136.624 30.1471C136.624 28.7678 136.589 27.5121 136.521 26.3797H138.897L138.996 28.6693H139.072C139.36 27.8824 139.814 27.2489 140.435 26.7738C141.043 26.3461 141.699 26.1328 142.406 26.1328C142.658 26.1328 142.886 26.1503 143.088 26.1814V28.7167Z" fill="white"/>
<path d="M155.283 31.7986C155.283 32.275 155.251 32.6766 155.183 33.0045H147.002C147.034 34.1867 147.429 35.0909 148.189 35.7144C148.878 36.2718 149.77 36.5512 150.865 36.5512C152.076 36.5512 153.181 36.3629 154.175 35.985L154.602 37.8306C153.441 38.3245 152.07 38.5702 150.487 38.5702C148.584 38.5702 147.09 38.0239 146.003 36.9328C144.919 35.8416 144.375 34.3763 144.375 32.5381C144.375 30.7336 144.88 29.2309 145.892 28.0325C146.951 26.753 148.382 26.1133 150.183 26.1133C151.952 26.1133 153.291 26.753 154.201 28.0325C154.921 29.0489 155.283 30.3059 155.283 31.7986ZM152.682 31.109C152.7 30.3209 152.522 29.64 152.153 29.0651C151.681 28.3256 150.956 27.9564 149.98 27.9564C149.088 27.9564 148.363 28.3168 147.809 29.0401C147.355 29.615 147.085 30.3046 147.002 31.1078H152.682V31.109Z" fill="white"/>
<path d="M61.7778 11.5421C61.7778 13.0099 61.3263 14.1148 60.4246 14.8568C59.5894 15.5414 58.4025 15.8844 56.8651 15.8844C56.1028 15.8844 55.4504 15.8519 54.9043 15.7871V7.76726C55.6167 7.65502 56.3841 7.59766 57.213 7.59766C58.6775 7.59766 59.7813 7.90817 60.5257 8.52921C61.3596 9.2313 61.7778 10.2352 61.7778 11.5421ZM60.3645 11.5783C60.3645 10.6268 60.1061 9.89723 59.5894 9.38843C59.0727 8.88088 58.318 8.62648 57.3242 8.62648C56.9022 8.62648 56.5427 8.65391 56.2447 8.71128V14.8082C56.4097 14.8331 56.7116 14.8443 57.1503 14.8443C58.1761 14.8443 58.9678 14.5662 59.5255 14.01C60.0831 13.4538 60.3645 12.6433 60.3645 11.5783Z" fill="white"/>
<path d="M69.2725 12.8229C69.2725 13.727 69.0077 14.4678 68.4782 15.0489C67.9231 15.6462 67.1877 15.9443 66.2693 15.9443C65.3842 15.9443 64.6795 15.6587 64.1538 15.0851C63.6294 14.5127 63.3672 13.7906 63.3672 12.9202C63.3672 12.0098 63.6371 11.2628 64.1794 10.6829C64.7217 10.1031 65.4507 9.8125 66.3691 9.8125C67.2542 9.8125 67.9653 10.0981 68.5038 10.6705C69.0154 11.2267 69.2725 11.945 69.2725 12.8229ZM67.8822 12.8653C67.8822 12.3228 67.762 11.8577 67.5228 11.4698C67.2414 11.0009 66.8411 10.7665 66.3205 10.7665C65.782 10.7665 65.3727 11.0009 65.0913 11.4698C64.8509 11.8577 64.7319 12.3303 64.7319 12.889C64.7319 13.4315 64.8521 13.8966 65.0913 14.2845C65.3817 14.7533 65.7858 14.9878 66.3077 14.9878C66.8193 14.9878 67.2209 14.7496 67.51 14.272C67.7581 13.8767 67.8822 13.4078 67.8822 12.8653Z" fill="white"/>
<path d="M79.3198 9.92969L77.4332 15.8083H76.2053L75.4238 13.2556C75.2256 12.6183 75.0644 11.9848 74.9391 11.3563H74.9148C74.7984 12.0023 74.6372 12.6346 74.43 13.2556L73.5999 15.8083H72.358L70.584 9.92969H71.9615L72.6432 12.7243C72.8082 13.3853 72.9438 14.0151 73.0525 14.6111H73.0768C73.1766 14.1198 73.3416 13.4938 73.5744 12.7368L74.43 9.93094H75.5223L76.3422 12.677C76.5404 13.3466 76.7016 13.9914 76.8257 14.6124H76.8628C76.9536 14.0076 77.0904 13.3628 77.2721 12.677L78.0037 9.93094H79.3198V9.92969Z" fill="white"/>
<path d="M86.2693 15.8107H84.9289V12.4436C84.9289 11.4061 84.5247 10.8873 83.7138 10.8873C83.316 10.8873 82.995 11.0295 82.7456 11.315C82.4987 11.6006 82.3734 11.9373 82.3734 12.3227V15.8094H81.033V11.6118C81.033 11.0956 81.0164 10.5356 80.9844 9.92956H82.1624L82.225 10.8486H82.2621C82.4182 10.5631 82.651 10.3274 82.9566 10.1391C83.3199 9.91958 83.7266 9.80859 84.1717 9.80859C84.7345 9.80859 85.2026 9.98568 85.5748 10.3411C86.0378 10.7763 86.2693 11.426 86.2693 12.289V15.8107Z" fill="white"/>
<path d="M89.9661 15.8104H88.627V7.23438H89.9661V15.8104Z" fill="white"/>
<path d="M97.8565 12.8229C97.8565 13.727 97.5917 14.4678 97.0622 15.0489C96.5071 15.6462 95.7704 15.9443 94.8533 15.9443C93.9669 15.9443 93.2622 15.6587 92.7378 15.0851C92.2134 14.5127 91.9512 13.7906 91.9512 12.9202C91.9512 12.0098 92.2211 11.2628 92.7634 10.6829C93.3057 10.1031 94.0347 9.8125 94.9518 9.8125C95.8382 9.8125 96.548 10.0981 97.0878 10.6705C97.5994 11.2267 97.8565 11.945 97.8565 12.8229ZM96.4649 12.8653C96.4649 12.3228 96.3447 11.8577 96.1055 11.4698C95.8254 11.0009 95.4237 10.7665 94.9045 10.7665C94.3647 10.7665 93.9554 11.0009 93.6753 11.4698C93.4349 11.8577 93.3159 12.3303 93.3159 12.889C93.3159 13.4315 93.4361 13.8966 93.6753 14.2845C93.9657 14.7533 94.3698 14.9878 94.8917 14.9878C95.4033 14.9878 95.8036 14.7496 96.0927 14.272C96.3421 13.8767 96.4649 13.4078 96.4649 12.8653Z" fill="white"/>
<path d="M104.344 15.8109H103.141L103.041 15.1337H103.004C102.592 15.6737 102.005 15.9443 101.243 15.9443C100.674 15.9443 100.213 15.766 99.8665 15.4118C99.5519 15.0901 99.3945 14.6897 99.3945 14.2146C99.3945 13.4963 99.7015 12.9489 100.319 12.5697C100.936 12.1906 101.803 12.0048 102.92 12.0136V11.9038C102.92 11.1294 102.503 10.7428 101.667 10.7428C101.073 10.7428 100.548 10.8887 100.095 11.178L99.823 10.3201C100.383 9.9821 101.075 9.8125 101.891 9.8125C103.467 9.8125 104.257 10.6231 104.257 12.2443V14.4092C104.257 14.9965 104.287 15.4642 104.344 15.8109ZM102.953 13.7906V12.884C101.474 12.8591 100.735 13.2544 100.735 14.0687C100.735 14.3755 100.819 14.6049 100.992 14.7583C101.165 14.9117 101.385 14.9878 101.647 14.9878C101.941 14.9878 102.216 14.8968 102.467 14.7159C102.719 14.5339 102.873 14.3032 102.931 14.0201C102.945 13.9565 102.953 13.8792 102.953 13.7906Z" fill="white"/>
<path d="M111.961 15.8104H110.771L110.709 14.8664H110.671C110.292 15.5847 109.644 15.9438 108.735 15.9438C108.009 15.9438 107.404 15.6657 106.924 15.1096C106.444 14.5534 106.205 13.8313 106.205 12.9447C106.205 11.9932 106.465 11.2225 106.987 10.6339C107.492 10.0852 108.111 9.8108 108.848 9.8108C109.657 9.8108 110.224 10.0764 110.546 10.6089H110.572V7.23438H111.913V14.2266C111.913 14.799 111.929 15.3265 111.961 15.8104ZM110.572 13.3312V12.3511C110.572 12.1815 110.559 12.0443 110.535 11.9395C110.459 11.6253 110.297 11.3609 110.05 11.1476C109.8 10.9344 109.5 10.8272 109.153 10.8272C108.653 10.8272 108.262 11.0204 107.974 11.4083C107.689 11.7961 107.544 12.2912 107.544 12.896C107.544 13.4772 107.681 13.9485 107.956 14.3114C108.246 14.698 108.638 14.8913 109.128 14.8913C109.568 14.8913 109.919 14.7304 110.187 14.4075C110.445 14.1094 110.572 13.7503 110.572 13.3312Z" fill="white"/>
<path d="M123.425 12.8229C123.425 13.727 123.16 14.4678 122.631 15.0489C122.075 15.6462 121.341 15.9443 120.422 15.9443C119.538 15.9443 118.833 15.6587 118.306 15.0851C117.782 14.5127 117.52 13.7906 117.52 12.9202C117.52 12.0098 117.789 11.2628 118.332 10.6829C118.874 10.1031 119.603 9.8125 120.523 9.8125C121.407 9.8125 122.119 10.0981 122.656 10.6705C123.168 11.2267 123.425 11.945 123.425 12.8229ZM122.036 12.8653C122.036 12.3228 121.916 11.8577 121.676 11.4698C121.394 11.0009 120.995 10.7665 120.473 10.7665C119.936 10.7665 119.526 11.0009 119.244 11.4698C119.003 11.8577 118.884 12.3303 118.884 12.889C118.884 13.4315 119.004 13.8966 119.244 14.2845C119.534 14.7533 119.938 14.9878 120.46 14.9878C120.972 14.9878 121.375 14.7496 121.664 14.272C121.91 13.8767 122.036 13.4078 122.036 12.8653Z" fill="white"/>
<path d="M130.633 15.8107H129.294V12.4436C129.294 11.4061 128.89 10.8873 128.078 10.8873C127.68 10.8873 127.359 11.0295 127.111 11.315C126.863 11.6006 126.739 11.9373 126.739 12.3227V15.8094H125.397V11.6118C125.397 11.0956 125.382 10.5356 125.35 9.92956H126.526L126.589 10.8486H126.626C126.783 10.5631 127.016 10.3274 127.321 10.1391C127.685 9.91958 128.091 9.80859 128.537 9.80859C129.098 9.80859 129.567 9.98568 129.939 10.3411C130.403 10.7763 130.633 11.426 130.633 12.289V15.8107Z" fill="white"/>
<path d="M139.653 10.9117H138.177V13.7675C138.177 14.4933 138.439 14.8562 138.958 14.8562C139.199 14.8562 139.398 14.8362 139.555 14.7951L139.59 15.7865C139.325 15.8838 138.977 15.9324 138.549 15.9324C138.019 15.9324 137.607 15.7753 137.309 15.461C137.01 15.1468 136.862 14.618 136.862 13.876V10.9117H135.98V9.9328H136.862V8.85534L138.175 8.46875V9.93155H139.651V10.9117H139.653Z" fill="white"/>
<path d="M146.748 15.8104H145.406V12.4683C145.406 11.4145 145.002 10.887 144.193 10.887C143.571 10.887 143.146 11.1925 142.914 11.8036C142.874 11.932 142.851 12.0892 142.851 12.2737V15.8092H141.512V7.23438H142.851V10.7773H142.876C143.299 10.1325 143.904 9.8108 144.688 9.8108C145.243 9.8108 145.702 9.98788 146.066 10.3433C146.52 10.786 146.748 11.4444 146.748 12.3149V15.8104Z" fill="white"/>
<path d="M154.069 12.5929C154.069 12.8274 154.052 13.0244 154.02 13.1853H150C150.017 13.7664 150.209 14.2091 150.581 14.5159C150.922 14.7903 151.36 14.9274 151.898 14.9274C152.492 14.9274 153.035 14.8352 153.523 14.6493L153.733 15.5572C153.161 15.7991 152.489 15.9201 151.71 15.9201C150.776 15.9201 150.04 15.652 149.508 15.1157C148.974 14.5795 148.709 13.86 148.709 12.9571C148.709 12.0704 148.956 11.3322 149.453 10.7436C149.973 10.115 150.675 9.80078 151.561 9.80078C152.428 9.80078 153.087 10.115 153.532 10.7436C153.892 11.2424 154.069 11.8597 154.069 12.5929ZM152.79 12.255C152.801 11.8672 152.712 11.5329 152.531 11.2511C152.298 10.8882 151.944 10.7061 151.464 10.7061C151.027 10.7061 150.67 10.8832 150.397 11.2386C150.175 11.5217 150.043 11.8597 150 12.255H152.79Z" fill="white"/>
</svg>
