<svg width="167" height="48" viewBox="0 0 167 48" fill="none" xmlns="http://www.w3.org/2000/svg">
<path d="M160.532 48H6.89734C3.51891 48 0.751953 45.2985 0.751953 42V6.00002C0.751953 2.70152 3.51891 1.67093e-05 6.89734 1.67093e-05H160.532C163.91 1.67093e-05 166.677 2.70152 166.677 6.00002V42C166.677 45.2985 163.91 48 160.532 48Z" fill="black"/>
<path d="M59.0325 12.2928C59.0325 13.2948 58.7252 14.0973 58.1199 14.6958C57.4239 15.4053 56.5175 15.7623 55.4067 15.7623C54.3451 15.7623 53.4386 15.3993 52.695 14.6838C51.9499 13.9578 51.5781 13.0668 51.5781 12.0003C51.5781 10.9338 51.9499 10.0428 52.695 9.32278C53.4386 8.60128 54.3451 8.23828 55.4067 8.23828C55.9352 8.23828 56.4391 8.34478 56.92 8.54278C57.3993 8.74228 57.7896 9.01228 58.0723 9.34528L57.4301 9.97828C56.9369 9.40978 56.2655 9.12928 55.4067 9.12928C54.6324 9.12928 53.961 9.39328 53.391 9.92578C52.8272 10.4598 52.5445 11.1513 52.5445 12.0003C52.5445 12.8493 52.8272 13.5468 53.391 14.0808C53.961 14.6073 54.6324 14.8773 55.4067 14.8773C56.2286 14.8773 56.92 14.6073 57.4654 14.0748C57.8249 13.7223 58.0292 13.2363 58.083 12.6153H55.4067V11.7483H58.9772C59.0202 11.9358 59.0325 12.1173 59.0325 12.2928Z" fill="white" stroke="white" stroke-width="0.16" stroke-miterlimit="10"/>
<path d="M64.6959 9.28584H61.342V11.5658H64.3656V12.4328H61.342V14.7128H64.6959V15.5963H60.3926V8.40234H64.6959V9.28584Z" fill="white" stroke="white" stroke-width="0.16" stroke-miterlimit="10"/>
<path d="M68.6941 15.5963H67.7447V9.28584H65.6875V8.40234H70.7528V9.28584H68.6941V15.5963Z" fill="white" stroke="white" stroke-width="0.16" stroke-miterlimit="10"/>
<path d="M74.418 15.5963V8.40234H75.3659V15.5963H74.418Z" fill="white" stroke="white" stroke-width="0.16" stroke-miterlimit="10"/>
<path d="M79.5672 15.5963H78.6254V9.28584H76.5605V8.40234H81.632V9.28584H79.5672V15.5963Z" fill="white" stroke="white" stroke-width="0.16" stroke-miterlimit="10"/>
<path d="M91.2227 14.6718C90.496 15.3993 89.5957 15.7623 88.5218 15.7623C87.4417 15.7623 86.5414 15.3993 85.8147 14.6718C85.0896 13.9458 84.7285 13.0548 84.7285 12.0003C84.7285 10.9458 85.0896 10.0548 85.8147 9.32878C86.5414 8.60128 87.4417 8.23828 88.5218 8.23828C89.5895 8.23828 90.4898 8.60128 91.2165 9.33478C91.9478 10.0668 92.3089 10.9518 92.3089 12.0003C92.3089 13.0548 91.9478 13.9458 91.2227 14.6718ZM86.5168 14.0688C87.0638 14.6073 87.729 14.8773 88.5218 14.8773C89.3084 14.8773 89.9798 14.6073 90.5205 14.0688C91.0659 13.5303 91.3425 12.8388 91.3425 12.0003C91.3425 11.1618 91.0659 10.4703 90.5205 9.93178C89.9798 9.39328 89.3084 9.12328 88.5218 9.12328C87.729 9.12328 87.0638 9.39328 86.5168 9.93178C85.9714 10.4703 85.6949 11.1618 85.6949 12.0003C85.6949 12.8388 85.9714 13.5303 86.5168 14.0688Z" fill="white" stroke="white" stroke-width="0.16" stroke-miterlimit="10"/>
<path d="M93.6406 15.5963V8.40234H94.7929L98.3756 13.9973H98.4171L98.3756 12.6143V8.40234H99.3236V15.5963H98.3342L94.5824 9.72534H94.5409L94.5824 11.1143V15.5963H93.6406Z" fill="white" stroke="white" stroke-width="0.16" stroke-miterlimit="10"/>
<path d="M84.4952 26.1006C81.6084 26.1006 79.2501 28.2456 79.2501 31.2051C79.2501 34.1406 81.6084 36.3081 84.4952 36.3081C87.3881 36.3081 89.7464 34.1406 89.7464 31.2051C89.7464 28.2456 87.3881 26.1006 84.4952 26.1006ZM84.4952 34.2981C82.9112 34.2981 81.5485 33.0216 81.5485 31.2051C81.5485 29.3646 82.9112 28.1106 84.4952 28.1106C86.0792 28.1106 87.4481 29.3646 87.4481 31.2051C87.4481 33.0216 86.0792 34.2981 84.4952 34.2981ZM73.051 26.1006C70.158 26.1006 67.8059 28.2456 67.8059 31.2051C67.8059 34.1406 70.158 36.3081 73.051 36.3081C75.9424 36.3081 78.296 34.1406 78.296 31.2051C78.296 28.2456 75.9424 26.1006 73.051 26.1006ZM73.051 34.2981C71.4654 34.2981 70.0981 33.0216 70.0981 31.2051C70.0981 29.3646 71.4654 28.1106 73.051 28.1106C74.6349 28.1106 75.9977 29.3646 75.9977 31.2051C75.9977 33.0216 74.6349 34.2981 73.051 34.2981ZM59.4328 27.6651V29.8341H64.7378C64.5826 31.0461 64.1678 31.9371 63.5318 32.5581C62.7574 33.3081 61.5514 34.1406 59.4328 34.1406C56.168 34.1406 53.6116 31.5681 53.6116 28.3806C53.6116 25.1931 56.168 22.6206 59.4328 22.6206C61.198 22.6206 62.4824 23.2941 63.4304 24.1671L64.9959 22.6386C63.67 21.4026 61.9063 20.4531 59.4328 20.4531C54.9559 20.4531 51.1934 24.0096 51.1934 28.3806C51.1934 32.7516 54.9559 36.3081 59.4328 36.3081C61.8525 36.3081 63.67 35.5341 65.0988 34.0821C66.563 32.6526 67.0193 30.6426 67.0193 29.0196C67.0193 28.5156 66.9762 28.0521 66.8994 27.6651H59.4328ZM115.119 29.3466C114.687 28.2051 113.355 26.1006 110.642 26.1006C107.954 26.1006 105.715 28.1691 105.715 31.2051C105.715 34.0641 107.931 36.3081 110.9 36.3081C113.302 36.3081 114.687 34.8786 115.257 34.0461L113.475 32.8866C112.881 33.7356 112.071 34.2981 110.9 34.2981C109.737 34.2981 108.903 33.7776 108.368 32.7516L115.36 29.9271L115.119 29.3466ZM107.991 31.0461C107.931 29.0781 109.556 28.0701 110.721 28.0701C111.633 28.0701 112.408 28.5156 112.666 29.1531L107.991 31.0461ZM102.308 35.9976H104.606V20.9976H102.308V35.9976ZM98.5436 27.2376H98.4667C97.9505 26.6406 96.9657 26.1006 95.7182 26.1006C93.1003 26.1006 90.7067 28.3446 90.7067 31.2216C90.7067 34.0821 93.1003 36.3081 95.7182 36.3081C96.9657 36.3081 97.9505 35.7636 98.4667 35.1486H98.5436V35.8806C98.5436 37.8321 97.4758 38.8806 95.7535 38.8806C94.3493 38.8806 93.4782 37.8906 93.1187 37.0581L91.1199 37.8726C91.6961 39.2256 93.2216 40.8906 95.7535 40.8906C98.4483 40.8906 100.722 39.3426 100.722 35.5761V26.4111H98.5436V27.2376ZM95.9149 34.2981C94.3309 34.2981 93.005 33.0036 93.005 31.2216C93.005 29.4231 94.3309 28.1106 95.9149 28.1106C97.4758 28.1106 98.7064 29.4231 98.7064 31.2216C98.7064 33.0036 97.4758 34.2981 95.9149 34.2981ZM125.88 20.9976H120.383V35.9976H122.675V30.3141H125.88C128.425 30.3141 130.922 28.5156 130.922 25.6551C130.922 22.7961 128.419 20.9976 125.88 20.9976ZM125.94 28.2276H122.675V23.0841H125.94C127.651 23.0841 128.628 24.4716 128.628 25.6551C128.628 26.8161 127.651 28.2276 125.94 28.2276ZM140.109 26.0721C138.453 26.0721 136.731 26.7861 136.023 28.3686L138.057 29.2011C138.495 28.3686 139.3 28.0986 140.151 28.0986C141.34 28.0986 142.546 28.7961 142.564 30.0276V30.1851C142.15 29.9511 141.262 29.6046 140.169 29.6046C137.978 29.6046 135.746 30.7821 135.746 32.9796C135.746 34.9896 137.541 36.2841 139.558 36.2841C141.1 36.2841 141.951 35.6046 142.486 34.8141H142.564V35.9736H144.778V30.2196C144.778 27.5601 142.744 26.0721 140.109 26.0721ZM139.833 34.2921C139.083 34.2921 138.038 33.9291 138.038 33.0216C138.038 31.8606 139.341 31.4151 140.469 31.4151C141.478 31.4151 141.951 31.6326 142.564 31.9191C142.385 33.3081 141.16 34.2921 139.833 34.2921ZM152.844 26.4006L150.209 32.9031H150.131L147.407 26.4006H144.935L149.028 35.4876L146.693 40.5441H149.088L155.395 26.4006H152.844ZM132.182 35.9976H134.48V20.9976H132.182V35.9976Z" fill="white"/>
<path d="M13.5778 9.04897C13.2168 9.41797 13.0078 9.99247 13.0078 10.7365V37.2745C13.0078 38.0185 13.2168 38.593 13.5778 38.962L13.6669 39.043L28.8982 24.178V23.827L13.6669 8.96197L13.5778 9.04897Z" fill="url(#paint0_linear_2312_348416)"/>
<path d="M33.9699 29.1328L28.8984 24.1753V23.8243L33.9761 18.8668L34.0898 18.9313L40.103 22.2718C41.8191 23.2198 41.8191 24.7798 40.103 25.7338L34.0898 29.0683L33.9699 29.1328Z" fill="url(#paint1_linear_2312_348416)"/>
<path d="M34.0899 29.067L28.8986 23.9985L13.5781 38.958C14.1481 39.543 15.0776 39.6135 16.1346 39.0285L34.0899 29.067Z" fill="url(#paint2_linear_2312_348416)"/>
<path d="M34.0899 18.9315L16.1346 8.97001C15.0776 8.39101 14.1481 8.4615 13.5781 9.0465L28.8986 24L34.0899 18.9315Z" fill="url(#paint3_linear_2312_348416)"/>
<defs>
<linearGradient id="paint0_linear_2312_348416" x1="27.5459" y1="37.5508" x2="7.41278" y2="16.9299" gradientUnits="userSpaceOnUse">
<stop stop-color="#00A0FF"/>
<stop offset="0.0066" stop-color="#00A1FF"/>
<stop offset="0.2601" stop-color="#00BEFF"/>
<stop offset="0.5122" stop-color="#00D2FF"/>
<stop offset="0.7604" stop-color="#00DFFF"/>
<stop offset="1" stop-color="#00E3FF"/>
</linearGradient>
<linearGradient id="paint1_linear_2312_348416" x1="42.3377" y1="23.9981" x2="12.5978" y2="23.9981" gradientUnits="userSpaceOnUse">
<stop stop-color="#FFE000"/>
<stop offset="0.4087" stop-color="#FFBD00"/>
<stop offset="0.7754" stop-color="#FFA500"/>
<stop offset="1" stop-color="#FF9C00"/>
</linearGradient>
<linearGradient id="paint2_linear_2312_348416" x1="31.267" y1="21.2432" x2="3.96487" y2="-6.72051" gradientUnits="userSpaceOnUse">
<stop stop-color="#FF3A44"/>
<stop offset="1" stop-color="#C31162"/>
</linearGradient>
<linearGradient id="paint3_linear_2312_348416" x1="9.72165" y1="47.7886" x2="21.9133" y2="35.3016" gradientUnits="userSpaceOnUse">
<stop stop-color="#32A071"/>
<stop offset="0.0685" stop-color="#2DA771"/>
<stop offset="0.4762" stop-color="#15CF74"/>
<stop offset="0.8009" stop-color="#06E775"/>
<stop offset="1" stop-color="#00F076"/>
</linearGradient>
</defs>
</svg>
