<svg width="122" height="122" viewBox="0 0 122 122" fill="none" xmlns="http://www.w3.org/2000/svg">
<path d="M53.5172 71.6424C53.8148 71.9731 54.2438 72.1546 54.6883 72.1379C55.1329 72.1213 55.5471 71.9081 55.8191 71.5562L78.3914 42.3449C79.4298 41.0011 81.361 40.7535 82.7048 41.7919C84.0486 42.8303 84.2962 44.7615 83.2578 46.1053L57.3328 79.6553C56.7752 80.3769 55.9261 80.8138 55.0148 80.8479C54.1035 80.8821 53.224 80.51 52.614 79.8322L38.889 64.5822C37.7529 63.3198 37.8552 61.3755 39.1175 60.2395C40.3799 59.1034 42.3242 59.2057 43.4602 60.468L53.5172 71.6424ZM60.9996 4.6001C29.8507 4.6001 4.59961 29.8512 4.59961 61.0001C4.59961 92.149 29.8507 117.4 60.9996 117.4C92.1485 117.4 117.4 92.149 117.4 61.0001C117.4 29.8512 92.1485 4.6001 60.9996 4.6001Z" stroke="#D4DFE9" stroke-width="3" stroke-linejoin="round"/>
<path d="M84.9361 47.7096C86.6499 45.4917 86.2413 42.3045 84.0235 40.5907C81.8056 38.8769 78.6184 39.2855 76.9046 41.5034L54.6987 70.2404L45.0426 59.5115C43.1676 57.4281 39.9587 57.2592 37.8754 59.1342C35.792 61.0092 35.6231 64.2181 37.4981 66.3015L51.2231 81.5515C52.23 82.6702 53.6814 83.2843 55.1854 83.2279C56.6894 83.1715 58.0908 82.4505 59.0111 81.2596L84.9361 47.7096Z" fill="#3FA40D" stroke="#3FA40D" stroke-linejoin="round"/>
</svg>
