<svg width="120" height="48" viewBox="0 0 120 48" fill="none" xmlns="http://www.w3.org/2000/svg">
<g id="Webflow / Black">
<path id="Vector" fill-rule="evenodd" clip-rule="evenodd" d="M33.0601 14.3555L23.1948 33.6413H13.9284L18.057 25.6484H17.8718C14.4657 30.07 9.38366 32.9807 2.14258 33.6413V25.7591C2.14258 25.7591 6.77487 25.4854 9.49806 22.6224H2.14258V14.3556H10.4094V21.1549L10.5949 21.1542L13.973 14.3556H20.225V21.1118L20.4104 21.1115L23.9153 14.3555H33.0601Z" fill="white"/>
<path id="Vector_2" d="M86.8574 31.5125H89.5198V16.2305H86.8574V31.5125Z" fill="white"/>
<path id="Vector_3" fill-rule="evenodd" clip-rule="evenodd" d="M72.1796 31.3584C72.7582 31.5989 73.3467 31.7193 73.9448 31.7193C74.933 31.7193 75.8173 31.4787 76.5975 30.9975C77.3776 30.5165 77.9823 29.8534 78.4114 29.0081C78.8405 28.1564 79.055 27.1908 79.055 26.1116C79.055 25.0323 78.834 24.0669 78.3919 23.2152C77.9498 22.3635 77.3354 21.7035 76.5486 21.2354C75.762 20.7608 74.868 20.5268 73.8667 20.5332C73.2297 20.5332 72.6185 20.6568 72.0333 20.9038C71.4482 21.1509 70.9606 21.502 70.5705 21.9571C70.5403 21.9918 70.5111 22.0268 70.4827 22.0621V16.2422H67.8105V31.5145H70.4632L70.4579 30.0878C70.5264 30.1719 70.5998 30.2541 70.6777 30.3344C71.1003 30.7701 71.601 31.1113 72.1796 31.3584ZM74.9103 28.8911C74.4747 29.1577 73.9773 29.291 73.4181 29.291C72.8655 29.291 72.3584 29.1544 71.8968 28.8814C71.4351 28.6017 71.0678 28.2215 70.7947 27.7403C70.5281 27.2592 70.3948 26.713 70.3948 26.1018C70.3884 25.4907 70.5184 24.9446 70.785 24.4635C71.0581 23.9759 71.4254 23.5988 71.887 23.3322C72.3486 23.0591 72.859 22.9258 73.4181 22.9323C73.9773 22.9258 74.4747 23.0559 74.9103 23.3224C75.3524 23.5825 75.6904 23.9563 75.9245 24.444C76.1651 24.9251 76.2854 25.4777 76.2854 26.1018C76.2854 26.7261 76.1651 27.2787 75.9245 27.7598C75.6904 28.241 75.3524 28.618 74.9103 28.8911Z" fill="white"/>
<path id="Vector_4" d="M36.918 17.1602H39.9607L42.6826 27.1005L45.5782 17.1602H48.1138L51.2541 26.901L53.8677 17.1602H56.6569L52.5414 31.5158H49.918L46.7247 21.9997L43.7935 31.5158H41.1408L36.918 17.1602Z" fill="white"/>
<path id="Vector_5" fill-rule="evenodd" clip-rule="evenodd" d="M61.1507 31.768C60.0908 31.7745 59.1351 31.5404 58.2834 31.0659C57.4382 30.5847 56.7718 29.9183 56.2841 29.0666C55.803 28.2149 55.5625 27.2429 55.5625 26.1506C55.5625 25.0908 55.8096 24.1319 56.3037 23.2736C56.7978 22.4154 57.4674 21.7458 58.3127 21.2646C59.1579 20.7835 60.1006 20.543 61.1408 20.543C62.3111 20.543 63.3351 20.803 64.2128 21.3232C65.0971 21.8433 65.757 22.5812 66.1926 23.537C66.6347 24.4862 66.794 25.5752 66.6705 26.804H58.3168C58.3402 27.2936 58.4623 27.739 58.6833 28.1401C58.9303 28.5822 59.2749 28.9267 59.717 29.1738C60.1592 29.4209 60.6532 29.5444 61.1994 29.5444C61.6155 29.5379 62.0024 29.4664 62.3599 29.3299C62.7175 29.1869 63.0198 28.9951 63.2669 28.7545C63.5205 28.5139 63.6993 28.2409 63.8033 27.9353H66.5925C66.4234 28.683 66.0854 29.3494 65.5783 29.9345C65.0711 30.5132 64.434 30.965 63.6667 31.2901C62.8996 31.6152 62.0609 31.7745 61.1507 31.768ZM58.693 24.1221C58.5372 24.3938 58.4292 24.6863 58.3691 24.9998H63.9066C63.8664 24.6038 63.7442 24.243 63.54 23.9173C63.3059 23.5337 62.9873 23.2379 62.5843 23.0298C62.1812 22.8153 61.726 22.708 61.2189 22.708C60.6792 22.708 60.1884 22.8315 59.7462 23.0786C59.3042 23.3257 58.9531 23.6735 58.693 24.1221Z" fill="white"/>
<path id="Vector_6" d="M81.0153 20.7673C81.0153 19.8961 81.2135 19.1224 81.6101 18.4463C82.0067 17.7636 82.5626 17.2337 83.2778 16.8566C83.9994 16.473 84.8415 16.2747 85.8036 16.2617V18.6315C85.355 18.6381 84.9714 18.7323 84.6529 18.9144C84.3408 19.0899 84.1003 19.3467 83.9312 19.6848C83.7756 19.9961 83.6916 20.3569 83.6793 20.7673H85.7451V23.0201H83.6777V31.5145H81.0153V23.0201H79.2988V20.7673H81.0153Z" fill="white"/>
<path id="Vector_7" fill-rule="evenodd" clip-rule="evenodd" d="M96.2873 31.7465C95.2015 31.7465 94.2295 31.5092 93.3713 31.0347C92.5196 30.5535 91.85 29.8904 91.3623 29.0451C90.8812 28.1934 90.6406 27.228 90.6406 26.1486C90.6406 25.0629 90.8812 24.0941 91.3623 23.2424C91.85 22.3842 92.5196 21.7178 93.3713 21.2432C94.2295 20.7686 95.2015 20.5312 96.2873 20.5312C97.3795 20.5312 98.3548 20.7686 99.213 21.2432C100.078 21.7178 100.751 22.381 101.232 23.2327C101.713 24.0844 101.957 25.0564 101.963 26.1486C101.957 27.228 101.713 28.1934 101.232 29.0451C100.757 29.8904 100.087 30.5535 99.2227 31.0347C98.3581 31.5092 97.3795 31.7465 96.2873 31.7465ZM96.2873 29.2987C96.8594 29.2987 97.3666 29.1686 97.8086 28.9086C98.2508 28.642 98.5921 28.2714 98.8327 27.7968C99.0732 27.3157 99.1935 26.7663 99.1935 26.1486C99.1935 25.5245 99.0732 24.9718 98.8327 24.4907C98.5921 24.0096 98.2508 23.639 97.8086 23.379C97.3666 23.1124 96.8594 22.9791 96.2873 22.9791C95.7217 22.9791 95.2178 23.1124 94.7756 23.379C94.3401 23.639 94.0019 24.0096 93.7614 24.4907C93.5209 24.9718 93.4039 25.5245 93.4103 26.1486C93.4103 26.7663 93.5306 27.3157 93.7711 27.7968C94.0182 28.2714 94.3563 28.642 94.7854 28.9086C95.221 29.1686 95.7217 29.2987 96.2873 29.2987Z" fill="white"/>
<path id="Vector_8" d="M104.842 20.7656H101.877L105.085 31.5128H107.68L109.79 24.6486L112.068 31.5128H114.623L117.842 20.7656H115.16L113.334 27.4551L111.317 20.7656H108.723L106.715 27.6024L104.842 20.7656Z" fill="white"/>
</g>
</svg>
